<svg width="141" height="142" viewBox="0 0 141 142" fill="none" xmlns="http://www.w3.org/2000/svg">
<g clip-path="url(#clip0_679_5303)">
<path d="M29.1943 24.6601C29.1943 19.7409 33.1697 15.7534 38.0741 15.7534H113.588C117.754 15.7534 121.189 19.0283 121.401 23.2014L126.974 133.014C127.14 136.28 124.577 139.035 121.318 139.094L34.7692 140.671C31.7062 140.727 29.1938 138.252 29.1938 135.18L29.1943 24.6601Z" fill="url(#paint0_linear_679_5303)"/>
<path d="M47.4193 138.805H47.4168L37.7327 138.679C34.4944 138.637 31.86 135.96 31.86 132.712V118.047C31.86 117.932 31.9528 117.84 32.0666 117.84C32.1804 117.84 32.2732 117.932 32.2732 118.047V132.712C32.2732 135.735 34.7246 138.225 37.7378 138.265L47.4219 138.39C47.5362 138.392 47.6275 138.486 47.6259 138.6C47.6244 138.713 47.5321 138.804 47.4193 138.804V138.805Z" fill="white"/>
<path d="M32.066 113.711C31.9517 113.711 31.8594 113.618 31.8594 113.503V111.129C31.8594 111.014 31.9522 110.922 32.066 110.922C32.1798 110.922 32.2726 111.014 32.2726 111.129V113.503C32.2726 113.618 32.1798 113.711 32.066 113.711Z" fill="white"/>
<path d="M35.3807 17.4433C35.3715 15.8694 36.7515 14.6513 38.3063 14.8631C48.6184 16.2658 84.0791 20.604 113.397 18.3467C114.734 18.2439 115.895 19.2599 115.966 20.6029L121.81 130.905C121.89 132.417 120.739 133.711 119.232 133.801C106.901 134.532 56.1192 137.362 38.0059 135.459C36.9037 135.343 36.0666 134.412 36.06 133.3L35.3807 17.4433Z" fill="#95D7F3"/>
<path opacity="0.58" d="M109.889 26.7634H74.9717C74.6767 26.7634 74.4375 27.0033 74.4375 27.2992V37.4523C74.4375 37.7482 74.6767 37.9881 74.9717 37.9881H109.889C110.184 37.9881 110.423 37.7482 110.423 37.4523V27.2992C110.423 27.0033 110.184 26.7634 109.889 26.7634Z" fill="white"/>
<path opacity="0.58" d="M111.403 74.0864H43.347C43.1811 74.0864 43.0466 74.2213 43.0466 74.3877V78.3348C43.0466 78.5012 43.1811 78.6361 43.347 78.6361H111.403C111.569 78.6361 111.703 78.5012 111.703 78.3348V74.3877C111.703 74.2213 111.569 74.0864 111.403 74.0864Z" fill="white"/>
<path opacity="0.58" d="M111.484 81.1072H43.266C43.1448 81.1072 43.0466 81.2057 43.0466 81.3272V85.4368C43.0466 85.5583 43.1448 85.6568 43.266 85.6568H111.484C111.605 85.6568 111.703 85.5583 111.703 85.4368V81.3272C111.703 81.2057 111.605 81.1072 111.484 81.1072Z" fill="white"/>
<path opacity="0.58" d="M112.93 121.193H43.368C43.2219 121.193 43.1035 121.312 43.1035 121.459V125.478C43.1035 125.624 43.2219 125.743 43.368 125.743H112.93C113.076 125.743 113.194 125.624 113.194 125.478V121.459C113.194 121.312 113.076 121.193 112.93 121.193Z" fill="white"/>
<path opacity="0.25" d="M109.981 69.32H44.6921C43.7832 69.32 43.0461 68.5807 43.0461 67.669V43.1491C43.0461 42.2374 43.7832 41.498 44.6921 41.498H108.873C109.754 41.498 110.478 42.1922 110.517 43.0745L111.624 67.5944C111.667 68.5344 110.918 69.32 109.98 69.32H109.981Z" fill="white"/>
<path d="M110.019 69.5774H44.7306C43.6812 69.5774 42.8277 68.7213 42.8277 67.6688V43.1489C42.8277 42.0964 43.6812 41.2402 44.7306 41.2402H108.912C109.932 41.2402 110.767 42.0408 110.813 43.0625L111.92 67.5824C111.944 68.1084 111.757 68.6072 111.395 68.9877C111.032 69.3682 110.544 69.5774 110.019 69.5774H110.019ZM44.7306 41.7554C43.9647 41.7554 43.3414 42.3807 43.3414 43.1489V67.6688C43.3414 68.437 43.9642 69.0622 44.7306 69.0622H110.019C110.402 69.0622 110.758 68.9095 111.023 68.6319C111.288 68.3542 111.424 67.9896 111.407 67.6061L110.3 43.0862C110.266 42.3401 109.656 41.756 108.912 41.756H44.7306V41.7554Z" fill="white"/>
<path opacity="0.25" d="M111.024 118.418H45.1909C44.038 118.418 43.1035 117.481 43.1035 116.324V92.6902C43.1035 91.5338 44.038 90.5964 45.1909 90.5964H110.111C111.233 90.5964 112.154 91.4855 112.197 92.6095L113.11 116.243C113.157 117.431 112.209 118.418 111.024 118.418V118.418Z" fill="white"/>
<path d="M111.024 118.676H45.1909C43.898 118.676 42.8461 117.62 42.8461 116.324V92.6902C42.8461 91.3935 43.898 90.3389 45.1909 90.3389H110.11C111.375 90.3389 112.404 91.3318 112.453 92.5992L113.367 116.233C113.392 116.878 113.16 117.489 112.714 117.955C112.268 118.42 111.667 118.676 111.024 118.676L111.024 118.676ZM45.1909 90.8536C44.1815 90.8536 43.3598 91.6773 43.3598 92.6902V116.324C43.3598 117.337 44.181 118.16 45.1909 118.16H111.024C111.526 118.16 111.995 117.96 112.343 117.597C112.692 117.234 112.873 116.757 112.853 116.253L111.94 92.6188C111.902 91.629 111.098 90.8536 110.11 90.8536H45.1909Z" fill="white"/>
<path d="M63.6373 41.4956L63.1237 41.5042L63.5837 69.3259L64.0973 69.3174L63.6373 41.4956Z" fill="white"/>
<path d="M88.758 41.4861L88.2446 41.5L88.9951 69.3221L89.5086 69.3082L88.758 41.4861Z" fill="white"/>
<path d="M43.2525 50.6345L43.2507 51.1497L111.253 51.3878L111.255 50.8726L43.2525 50.6345Z" fill="white"/>
<path d="M111.255 60.5212H43.2537V61.0364H111.255V60.5212Z" fill="white"/>
<path d="M63.4703 90.5943L63.1266 118.416L63.6402 118.423L63.9839 90.6007L63.4703 90.5943Z" fill="white"/>
<path d="M112.465 97.0986H43.2537V97.6137H112.465V97.0986Z" fill="white"/>
<path d="M112.638 103.513H43.2537V104.028H112.638V103.513Z" fill="white"/>
<path d="M43.1003 110.401L43.0939 110.916L112.919 111.784L112.925 111.269L43.1003 110.401Z" fill="white"/>
<path d="M49.3063 16.8994C49.3719 15.5271 50.5007 14.4483 51.8705 14.4483L99.5087 14.4468C101.221 14.4468 102.686 15.6834 102.978 17.3761L103.019 17.6095C103.339 19.4637 101.916 21.16 100.039 21.16H51.1651C50.0424 21.16 49.1474 20.2185 49.2012 19.0935L49.3063 16.8994Z" fill="url(#paint1_linear_679_5303)"/>
<path d="M106.264 140.392C108.052 140.546 111.155 140.798 113.601 140.906C115.072 140.971 115.918 140.827 116.406 140.631C116.405 140.686 116.403 140.739 116.401 140.787C116.389 141.045 116.18 141.252 115.92 141.266C111.298 141.525 107.622 141.356 106.313 141.276C106.042 141.259 105.881 140.964 106.019 140.733C106.088 140.617 106.172 140.504 106.263 140.392H106.264Z" fill="url(#paint2_linear_679_5303)"/>
<path d="M113.601 140.905C111.155 140.797 108.052 140.545 106.264 140.391C108.021 138.228 113.601 136.77 113.601 136.77H115.177C116.26 138.337 116.417 139.828 116.406 140.63C115.918 140.826 115.071 140.97 113.601 140.905V140.905Z" fill="url(#paint3_linear_679_5303)"/>
<path d="M115.442 134.19L115.294 137.116C115.278 137.433 115.041 137.699 114.725 137.745C114.41 137.79 113.989 137.796 113.541 137.647C113.266 137.555 113.062 137.322 113.011 137.039L112.502 134.19H115.442V134.19Z" fill="url(#paint4_linear_679_5303)"/>
<path d="M135.909 140.885C136.684 140.776 137.035 140.372 137.182 139.94C137.183 139.944 137.184 139.948 137.186 139.952C137.299 140.407 137.035 140.879 136.506 141.104C135.867 141.376 135.169 141.422 134.626 141.399C134.044 141.375 133.51 141.133 133.216 140.747L133.212 140.742C133.795 141.032 134.616 141.066 135.909 140.885H135.909Z" fill="url(#paint5_linear_679_5303)"/>
<path d="M132.253 134.172H133.553C135.532 134.131 136.775 138.319 137.182 139.94C137.035 140.372 136.685 140.776 135.909 140.885C134.616 141.066 133.796 141.031 133.212 140.742C132.143 139.33 131.613 137.263 131.357 136.057C131.068 134.684 132.253 134.172 132.253 134.172V134.172Z" fill="url(#paint6_linear_679_5303)"/>
<path d="M133.386 131.455L134.108 134.333C134.196 134.686 134.028 135.051 133.702 135.218C133.299 135.426 132.73 135.644 132.208 135.581C131.962 135.551 131.758 135.378 131.677 135.146L130.617 132.118L133.385 131.455H133.386Z" fill="url(#paint7_linear_679_5303)"/>
<path d="M134.247 132.286C133.35 133.085 130.429 133.191 130.429 133.191C119.91 107.868 115.607 104.27 115.607 104.27C117.126 113.828 115.852 134.988 115.852 134.988C114.116 135.757 111.878 134.988 111.878 134.988C111.737 119.341 109.339 105.694 106.507 94.9355C113.616 94.775 117.397 92.3347 118.631 91.3557C124.558 100.939 134.247 132.286 134.247 132.286H134.247Z" fill="url(#paint8_linear_679_5303)"/>
<path d="M116.826 62.2346C118.172 68.9673 117.689 81.0172 117.372 86.5138C117.283 88.0584 118.359 90.2005 119.228 91.6613C119.364 91.8907 119.28 92.1837 119.043 92.3061C117.588 93.0563 112.659 95.3809 106.946 95.6699C106.565 95.6889 106.225 95.4288 106.126 95.0596C101.889 79.1888 96.9666 69.0475 96.9666 69.0475C102.4 60.3434 116.825 62.2346 116.825 62.2346H116.826Z" fill="#007CBA"/>
<path d="M125.266 81.5569C124.834 84.6934 123.557 88.1143 121.002 91.748L120.031 90.9541C120.031 90.9541 121.152 86.3918 120.515 81.2139C122.091 80.9054 123.952 81.2232 125.267 81.5569H125.266Z" fill="url(#paint9_linear_679_5303)"/>
<path d="M115.323 70.5415L116.826 62.2344C116.826 62.2344 126.868 69.9338 125.267 81.5569C123.953 81.2237 122.091 80.9054 120.515 81.2139C120.056 77.4841 118.685 73.4348 115.323 70.5415Z" fill="#007CBA"/>
<path d="M96.9671 69.0474L100.844 77.4209C100.217 82.4763 97.5095 84.6621 94.59 85.5007C94.4081 83.1967 93.8273 81.3353 93.288 80.0478C97.0184 76.1848 96.9671 69.0474 96.9671 69.0474Z" fill="#007CBA"/>
<path d="M93.288 80.0474C93.8267 81.3349 94.4075 83.1962 94.59 85.5003C86.8011 88.5314 84.7404 82.6527 84.7404 82.6527L86.1798 82.3982C89.4304 82.7417 91.7014 81.6907 93.288 80.0474Z" fill="url(#paint10_linear_679_5303)"/>
<path d="M100.539 58.7092L102.41 65.6096C102.62 66.385 103.456 66.8009 104.2 66.5027C105.003 66.1808 106.021 65.7417 106.898 65.2671C107.833 64.7607 108.126 63.5533 107.534 62.6674L103.643 56.8484L100.539 58.7092H100.539Z" fill="url(#paint11_linear_679_5303)"/>
<path d="M96.4442 53.4668C96.4273 53.5851 98.0052 61.341 98.0052 61.341L102.401 60.343L101.994 52.7691C101.994 52.7691 96.7298 51.4826 96.4442 53.4663V53.4668Z" fill="url(#paint12_linear_679_5303)"/>
<path d="M101.006 54.457L101.531 58.427C101.538 58.4779 101.538 58.5283 101.531 58.5792C101.486 58.8903 101.255 59.9501 100.189 59.6467C99.2216 59.3716 98.3343 59.1356 97.7217 59.3233C97.4464 59.4076 97.2803 59.6873 97.3382 59.9701C97.4818 60.6745 97.8345 62.2567 98.3502 63.5838C98.4547 63.8532 98.749 63.9946 99.0258 63.9139C99.8593 63.6702 101.603 63.1066 102.901 62.3235C103.077 62.2176 103.181 62.0258 103.172 61.8201C103.13 60.818 103.014 57.7709 103.112 56.9169C103.204 56.1153 104.185 55.635 104.611 55.4628C104.751 55.4062 104.861 55.2957 104.916 55.1558C105.114 54.6596 105.386 53.512 103.944 53.0415C103.642 52.9433 103.483 52.6168 103.59 52.317C103.804 51.7205 103.894 50.8104 102.778 50.3091C101.644 49.7995 100.797 50.4058 100.34 50.8984C100.155 51.0973 99.8588 51.1282 99.6292 50.9827C99.4985 50.8999 99.3303 50.8726 99.1268 50.9997C98.8531 51.1709 98.4901 51.0542 98.3486 50.7631C98.0769 50.2042 97.5238 49.6052 96.4134 49.7959C94.4434 50.1343 94.2204 52.3237 94.7402 53.6071C95.26 54.89 97.3746 54.4015 98.4358 53.7546C99.2427 53.2631 100.289 53.7783 100.744 54.0539C100.888 54.1413 100.984 54.2899 101.006 54.457H101.006Z" fill="url(#paint13_linear_679_5303)"/>
<path d="M103.288 58.3641C103.288 58.3641 102.478 56.0898 103.31 55.5331C104.142 54.9763 105.375 55.2652 105.104 56.9129C104.766 58.962 103.288 58.3641 103.288 58.3641Z" fill="url(#paint14_linear_679_5303)"/>
<path d="M85.3176 83.7284C84.9254 84.0353 83.5823 83.3942 82.7606 82.9511C82.3602 82.7352 82.1659 82.2653 82.3033 81.8304C82.5012 81.2047 82.8308 80.3976 83.2368 80.2958C83.9104 80.1267 86.9334 82.4627 85.3176 83.7284Z" fill="url(#paint15_linear_679_5303)"/>
<path d="M139.128 98.7776L68.715 73.6592L64.9897 84.0385L135.379 109.859C136.873 110.407 138.542 109.799 139.343 108.419C140.166 107.002 140.952 104.787 140.999 101.47C141.017 100.265 140.261 99.1817 139.128 98.7776H139.128Z" fill="url(#paint16_linear_679_5303)"/>
<path d="M46.9313 70.9768L56.658 72.1748C56.6477 73.5173 56.2094 75.2548 54.7254 77.2477L46.6027 71.873C46.1716 71.5876 46.4187 70.914 46.9313 70.9768Z" fill="url(#paint17_linear_679_5303)"/>
<path d="M68.715 73.659C69.1605 80.164 64.9897 84.0384 64.9897 84.0384L54.7253 77.247C56.2094 75.254 56.6477 73.5171 56.658 72.1741L68.715 73.659Z" fill="url(#paint18_linear_679_5303)"/>
<path d="M138.255 101.961C138.34 101.961 138.42 101.908 138.45 101.823C138.488 101.715 138.431 101.596 138.324 101.558L70.9568 77.6776C70.8486 77.6396 70.7307 77.6961 70.6928 77.8041C70.6549 77.9121 70.7112 78.0309 70.8189 78.0689L138.186 101.949C138.209 101.957 138.232 101.961 138.254 101.961H138.255Z" fill="#91B3FA"/>
<path d="M137.093 106.033C137.178 106.033 137.258 105.98 137.288 105.895C137.326 105.787 137.27 105.668 137.162 105.63L69.7951 81.7495C69.687 81.7114 69.5691 81.7675 69.5311 81.8759C69.4927 81.9839 69.5496 82.1027 69.6572 82.1408L137.024 106.021C137.047 106.029 137.07 106.033 137.093 106.033Z" fill="#91B3FA"/>
<path d="M120.432 90.816L115.899 90.4453L113.935 92.26C113.935 92.26 114.4 92.9037 115.852 92.534C117.304 92.1639 119.293 92.0729 119.293 92.0729C119.293 92.0729 121.298 92.9792 121.322 91.2833L120.432 90.8155V90.816Z" fill="url(#paint19_linear_679_5303)"/>
<path d="M101.654 38.4805C102.945 34.9933 101.173 31.1167 97.6964 29.8219C94.2198 28.5271 90.3549 30.3044 89.064 33.7916C87.7731 37.2788 89.5451 41.1554 93.0217 42.4501C96.4984 43.7449 100.363 41.9677 101.654 38.4805Z" fill="url(#paint20_linear_679_5303)"/>
<path d="M99.9518 40.7422C102.487 38.1995 102.487 34.0769 99.9518 31.5341C97.4167 28.9914 93.3065 28.9914 90.7715 31.5341C88.2364 34.0769 88.2364 38.1995 90.7715 40.7422C93.3065 43.285 97.4167 43.285 99.9518 40.7422Z" fill="url(#paint21_linear_679_5303)"/>
<path opacity="0.58" d="M89.5463 35.143C89.5145 35.1518 89.4802 35.1533 89.4458 35.1461C89.3284 35.122 89.2525 35.0068 89.2772 34.8891C89.7519 32.5711 91.4604 30.7466 93.736 30.1276C94.099 30.0289 94.4716 29.9626 94.8433 29.9312C94.9627 29.9209 95.0678 30.0099 95.0781 30.1297C95.0883 30.2494 95.0007 30.3559 94.8802 30.3651C94.5347 30.3949 94.1882 30.4561 93.8498 30.5481C91.7332 31.1239 90.144 32.8209 89.7026 34.977C89.6857 35.0603 89.6232 35.1225 89.5468 35.1435L89.5463 35.143Z" fill="white"/>
<path opacity="0.78" d="M100.569 38.4521C101.787 35.6645 100.522 32.4141 97.7424 31.1922C94.9632 29.9702 91.7227 31.2395 90.5045 34.0271C89.2862 36.8147 90.5516 40.065 93.3308 41.287C96.11 42.5089 99.3505 41.2397 100.569 38.4521Z" fill="white"/>
<path d="M96.0844 40.3338L95.928 39.7554C95.32 39.8947 94.6869 39.9143 94.2143 39.8438C94.0456 39.8186 93.9226 39.6695 93.9231 39.4988L93.9241 38.9198C93.9241 38.7075 94.1112 38.5471 94.3209 38.5748C94.7879 38.637 95.3426 38.6355 95.9008 38.4838C96.4801 38.326 96.8589 38.0118 96.7498 37.6082C96.6513 37.2436 96.2587 37.1181 95.3954 37.1207C94.1615 37.1181 93.2008 36.8405 92.9266 35.826C92.679 34.9102 93.1572 34.0294 94.265 33.5271L94.1087 32.9486C94.0585 32.7625 94.1682 32.5707 94.3537 32.5198L94.6926 32.4277C94.8781 32.3774 95.0694 32.4874 95.1201 32.6735L95.2606 33.1929C95.8229 33.0638 96.254 33.0489 96.6062 33.0746C96.7867 33.088 96.9246 33.2412 96.9246 33.4227V33.958C96.9246 34.1641 96.7482 34.3256 96.5437 34.3055C96.2171 34.2737 95.767 34.2706 95.2231 34.4187C94.5357 34.6058 94.4168 34.9447 94.486 35.2007C94.5711 35.5159 95.0422 35.6203 96.01 35.6527C97.39 35.6892 98.0641 36.0769 98.3225 37.0323C98.5593 37.909 98.1246 38.873 96.921 39.4119L97.0963 40.0593C97.1465 40.2454 97.0368 40.4372 96.8513 40.4881L96.5124 40.5801C96.3268 40.6305 96.1356 40.5205 96.0849 40.3344L96.0844 40.3338Z" fill="url(#paint22_linear_679_5303)"/>
<path d="M116.262 24.8397C120.542 20.5472 120.542 13.5876 116.262 9.29506C111.983 5.00253 105.044 5.00253 100.764 9.29506C96.4849 13.5876 96.4849 20.5472 100.764 24.8397C105.044 29.1322 111.983 29.1322 116.262 24.8397Z" fill="url(#paint23_linear_679_5303)"/>
<path d="M116.004 24.5812C120.142 20.4314 120.142 13.7033 116.004 9.55357C111.867 5.40381 105.159 5.40381 101.022 9.55357C96.8849 13.7033 96.8849 20.4314 101.022 24.5812C105.159 28.731 111.867 28.731 116.004 24.5812Z" fill="url(#paint24_linear_679_5303)"/>
<path opacity="0.58" d="M98.9838 15.2982C98.9541 15.3064 98.9218 15.308 98.89 15.3013C98.7798 15.2787 98.7091 15.1707 98.7316 15.0601C99.4949 11.3328 102.242 8.39837 105.9 7.40291C106.484 7.24403 107.083 7.13759 107.681 7.0872C107.792 7.07743 107.891 7.16073 107.901 7.27334C107.91 7.38543 107.827 7.4857 107.715 7.49392C107.142 7.54277 106.567 7.64458 106.007 7.79729C102.497 8.75213 99.8625 11.5668 99.1299 15.1424C99.114 15.2206 99.0556 15.2792 98.9838 15.2987V15.2982Z" fill="white"/>
<path opacity="0.78" d="M115.137 23.5894C118.639 20.0772 118.639 14.3828 115.137 10.8705C111.635 7.35833 105.958 7.35833 102.457 10.8705C98.9551 14.3828 98.9551 20.0772 102.457 23.5894C105.958 27.1016 111.635 27.1016 115.137 23.5894Z" fill="white"/>
<path d="M109.693 23.914L109.438 22.9694C108.446 23.1972 107.412 23.2291 106.641 23.1139C106.366 23.0727 106.165 22.8295 106.165 22.5503L106.166 21.6058C106.166 21.2592 106.471 20.997 106.814 21.0427C107.576 21.144 108.482 21.142 109.393 20.8941C110.338 20.6371 110.956 20.1234 110.778 19.4647C110.617 18.8703 109.977 18.6646 108.567 18.6688C106.554 18.6646 104.986 18.2111 104.539 16.556C104.134 15.0612 104.915 13.6236 106.723 12.804L106.468 11.8594C106.386 11.5555 106.565 11.2424 106.868 11.1601L107.421 11.0095C107.724 10.9272 108.036 11.1066 108.118 11.4105L108.348 12.2584C109.266 12.0476 109.969 12.0234 110.544 12.0656C110.838 12.0872 111.063 12.3376 111.063 12.6338V13.5074C111.063 13.8442 110.776 14.1069 110.442 14.0745C109.909 14.0226 109.174 14.018 108.287 14.2591C107.165 14.5645 106.971 15.1173 107.084 15.5353C107.223 16.0495 107.992 16.2202 109.571 16.2732C111.824 16.3333 112.924 16.9658 113.345 18.5243C113.732 19.9547 113.022 21.5281 111.058 22.4074L111.344 23.464C111.426 23.7679 111.247 24.0811 110.944 24.1633L110.391 24.314C110.088 24.3963 109.776 24.2168 109.694 23.9129L109.693 23.914Z" fill="url(#paint25_linear_679_5303)"/>
<path d="M130.19 46.7739C134.593 42.3568 134.593 35.1954 130.19 30.7784C125.786 26.3613 118.646 26.3613 114.243 30.7784C109.839 35.1954 109.839 42.3568 114.243 46.7739C118.646 51.1909 125.786 51.1909 130.19 46.7739Z" fill="url(#paint26_linear_679_5303)"/>
<path d="M129.924 46.5077C134.182 42.2377 134.182 35.3146 129.924 31.0445C125.667 26.7745 118.765 26.7745 114.508 31.0445C110.251 35.3146 110.251 42.2377 114.508 46.5077C118.765 50.7778 125.667 50.7778 129.924 46.5077Z" fill="url(#paint27_linear_679_5303)"/>
<path opacity="0.58" d="M112.408 36.9505C112.378 36.9587 112.347 36.9602 112.314 36.9536C112.204 36.9309 112.133 36.823 112.156 36.7124C112.941 32.8792 115.765 29.8619 119.528 28.8382C120.128 28.6747 120.744 28.5657 121.359 28.5132C121.471 28.5035 121.57 28.5868 121.579 28.6994C121.588 28.8115 121.506 28.9107 121.393 28.9199C120.803 28.9703 120.211 29.0752 119.635 29.2321C116.021 30.2152 113.308 33.1131 112.554 36.7942C112.538 36.8723 112.48 36.9309 112.408 36.9505Z" fill="white"/>
<path opacity="0.78" d="M129.031 45.4879C132.635 41.8738 132.635 36.0143 129.031 32.4003C125.428 28.7863 119.587 28.7863 115.983 32.4003C112.38 36.0143 112.38 41.8738 115.983 45.4879C119.587 49.1019 125.428 49.1019 129.031 45.4879Z" fill="white"/>
<path d="M123.43 45.8217L123.167 44.8498C122.145 45.0843 121.082 45.1167 120.288 44.9984C120.005 44.9563 119.799 44.7059 119.799 44.4184L119.8 43.4461C119.8 43.0893 120.114 42.8198 120.467 42.8666C121.25 42.971 122.183 42.969 123.12 42.7139C124.093 42.4491 124.729 41.9211 124.545 41.2428C124.38 40.631 123.721 40.4196 122.271 40.4237C120.199 40.4196 118.585 39.9528 118.125 38.2498C117.709 36.7118 118.512 35.2325 120.373 34.3893L120.11 33.4175C120.025 33.1048 120.209 32.7825 120.521 32.6976L121.09 32.5428C121.402 32.458 121.723 32.6426 121.808 32.9552L122.043 33.8278C122.988 33.6108 123.712 33.5861 124.303 33.6298C124.606 33.6519 124.838 33.9095 124.838 34.2145V35.1132C124.838 35.4598 124.543 35.7303 124.199 35.6968C123.651 35.6434 122.895 35.6382 121.981 35.8871C120.828 36.2013 120.628 36.7705 120.743 37.2003C120.886 37.7294 121.677 37.9048 123.303 37.9598C125.621 38.0215 126.752 38.6724 127.186 40.2762C127.584 41.7478 126.854 43.3669 124.833 44.2719L125.127 45.3594C125.212 45.672 125.028 45.9944 124.716 46.0793L124.147 46.234C123.836 46.3189 123.514 46.1343 123.43 45.8217Z" fill="url(#paint28_linear_679_5303)"/>
<path d="M132.602 25.7717C137.492 24.8228 140.689 20.0774 139.743 15.1727C138.797 10.2679 134.066 7.0611 129.176 8.01005C124.286 8.959 121.089 13.7044 122.035 18.6091C122.981 23.5139 127.712 26.7207 132.602 25.7717Z" fill="url(#paint29_linear_679_5303)"/>
<path d="M137.055 23.0836C140.46 19.6686 140.46 14.1317 137.055 10.7167C133.65 7.30165 128.13 7.30165 124.725 10.7167C121.321 14.1317 121.321 19.6686 124.725 23.0836C128.13 26.4986 133.65 26.4986 137.055 23.0836Z" fill="url(#paint30_linear_679_5303)"/>
<path opacity="0.58" d="M123.061 15.4977C123.029 15.5065 122.994 15.508 122.959 15.5008C122.839 15.4761 122.761 15.3584 122.786 15.2381C123.418 12.1504 125.693 9.71984 128.725 8.89508C129.207 8.76345 129.704 8.67553 130.199 8.63336C130.321 8.62308 130.429 8.71358 130.439 8.83647C130.45 8.95884 130.36 9.06836 130.237 9.07711C129.768 9.11721 129.298 9.20051 128.84 9.32494C125.972 10.1055 123.819 12.4054 123.22 15.3275C123.203 15.4129 123.139 15.4766 123.061 15.4977Z" fill="white"/>
<path opacity="0.78" d="M136.34 22.2676C139.221 19.3773 139.221 14.6911 136.34 11.8008C133.458 8.91042 128.786 8.91042 125.905 11.8008C123.023 14.6911 123.023 19.3773 125.905 22.2676C128.786 25.1579 133.458 25.1579 136.34 22.2676Z" fill="white"/>
<path d="M131.86 22.5349L131.65 21.758C130.834 21.9452 129.983 21.9714 129.348 21.8768C129.122 21.8428 128.957 21.6428 128.957 21.413L128.958 20.6355C128.958 20.3502 129.209 20.1347 129.491 20.1723C130.118 20.2556 130.864 20.254 131.613 20.0499C132.391 19.838 132.9 19.4159 132.753 18.8734C132.621 18.3839 132.094 18.2153 130.934 18.2184C129.277 18.2148 127.987 17.842 127.618 16.4794C127.286 15.2495 127.928 14.0663 129.416 13.3917L129.206 12.6143C129.138 12.3644 129.285 12.1062 129.535 12.0384L129.99 11.9145C130.239 11.8466 130.497 11.9942 130.564 12.2446L130.753 12.9423C131.509 12.769 132.087 12.749 132.56 12.7839C132.803 12.8019 132.988 13.0076 132.988 13.2513V13.9702C132.988 14.2473 132.751 14.4638 132.476 14.437C132.038 14.3944 131.434 14.3903 130.703 14.5892C129.78 14.8402 129.62 15.2957 129.713 15.6397C129.828 16.0629 130.46 16.2033 131.76 16.247C133.614 16.2963 134.519 16.8167 134.866 18.0996C135.185 19.2765 134.601 20.5713 132.984 21.2952L133.22 22.1647C133.287 22.4146 133.14 22.6727 132.891 22.7406L132.435 22.8645C132.186 22.9324 131.929 22.7848 131.861 22.5344L131.86 22.5349Z" fill="url(#paint31_linear_679_5303)"/>
</g>
<defs>
<linearGradient id="paint0_linear_679_5303" x1="164.959" y1="-13.7263" x2="53.1991" y2="104.033" gradientUnits="userSpaceOnUse">
<stop stop-color="#0E4E69"/>
<stop offset="1" stop-color="#4042E2"/>
</linearGradient>
<linearGradient id="paint1_linear_679_5303" x1="78.069" y1="-7.14691" x2="74.7111" y2="36.6364" gradientUnits="userSpaceOnUse">
<stop stop-color="#052938"/>
<stop offset="1" stop-color="#4042E2"/>
</linearGradient>
<linearGradient id="paint2_linear_679_5303" x1="116.406" y1="140.898" x2="105.969" y2="140.898" gradientUnits="userSpaceOnUse">
<stop stop-color="#09005D"/>
<stop offset="1" stop-color="#1A0F91"/>
</linearGradient>
<linearGradient id="paint3_linear_679_5303" x1="105.954" y1="87.4342" x2="108.536" y2="112.669" gradientUnits="userSpaceOnUse">
<stop stop-color="#09005D"/>
<stop offset="1" stop-color="#1A0F91"/>
</linearGradient>
<linearGradient id="paint4_linear_679_5303" x1="115.442" y1="135.982" x2="112.502" y2="135.982" gradientUnits="userSpaceOnUse">
<stop stop-color="#FEBBBA"/>
<stop offset="1" stop-color="#FF928E"/>
</linearGradient>
<linearGradient id="paint5_linear_679_5303" x1="137.212" y1="140.672" x2="133.212" y2="140.672" gradientUnits="userSpaceOnUse">
<stop stop-color="#09005D"/>
<stop offset="1" stop-color="#1A0F91"/>
</linearGradient>
<linearGradient id="paint6_linear_679_5303" x1="120.456" y1="273.315" x2="117.873" y2="298.555" gradientUnits="userSpaceOnUse">
<stop stop-color="#09005D"/>
<stop offset="1" stop-color="#1A0F91"/>
</linearGradient>
<linearGradient id="paint7_linear_679_5303" x1="134.131" y1="133.523" x2="130.618" y2="133.523" gradientUnits="userSpaceOnUse">
<stop stop-color="#FEBBBA"/>
<stop offset="1" stop-color="#FF928E"/>
</linearGradient>
<linearGradient id="paint8_linear_679_5303" x1="106.965" y1="101.055" x2="146.016" y2="157.794" gradientUnits="userSpaceOnUse">
<stop stop-color="#E1473D"/>
<stop offset="1" stop-color="#E9605A"/>
</linearGradient>
<linearGradient id="paint9_linear_679_5303" x1="118.035" y1="82.1575" x2="130.575" y2="93.2282" gradientUnits="userSpaceOnUse">
<stop stop-color="#FEBBBA"/>
<stop offset="1" stop-color="#FF928E"/>
</linearGradient>
<linearGradient id="paint10_linear_679_5303" x1="94.59" y1="83.2081" x2="84.7404" y2="83.2081" gradientUnits="userSpaceOnUse">
<stop stop-color="#FEBBBA"/>
<stop offset="1" stop-color="#FF928E"/>
</linearGradient>
<linearGradient id="paint11_linear_679_5303" x1="104.164" y1="56.8067" x2="104.272" y2="75.2557" gradientUnits="userSpaceOnUse">
<stop stop-color="#FEBBBA"/>
<stop offset="1" stop-color="#FF928E"/>
</linearGradient>
<linearGradient id="paint12_linear_679_5303" x1="98.2032" y1="53.779" x2="105.488" y2="66.9485" gradientUnits="userSpaceOnUse">
<stop stop-color="#FEBBBA"/>
<stop offset="1" stop-color="#FF928E"/>
</linearGradient>
<linearGradient id="paint13_linear_679_5303" x1="104.635" y1="57.638" x2="93.9291" y2="56.0981" gradientUnits="userSpaceOnUse">
<stop stop-color="#09005D"/>
<stop offset="1" stop-color="#1A0F91"/>
</linearGradient>
<linearGradient id="paint14_linear_679_5303" x1="109.973" y1="65.0932" x2="103.827" y2="56.6742" gradientUnits="userSpaceOnUse">
<stop stop-color="#FEBBBA"/>
<stop offset="1" stop-color="#FF928E"/>
</linearGradient>
<linearGradient id="paint15_linear_679_5303" x1="85.7867" y1="82.0478" x2="82.2592" y2="82.0478" gradientUnits="userSpaceOnUse">
<stop stop-color="#FEBBBA"/>
<stop offset="1" stop-color="#FF928E"/>
</linearGradient>
<linearGradient id="paint16_linear_679_5303" x1="67.0633" y1="65.7299" x2="169.41" y2="140.164" gradientUnits="userSpaceOnUse">
<stop stop-color="#09005D"/>
<stop offset="1" stop-color="#1A0F91"/>
</linearGradient>
<linearGradient id="paint17_linear_679_5303" x1="46.3813" y1="74.1097" x2="56.6575" y2="74.1097" gradientUnits="userSpaceOnUse">
<stop stop-color="#09005D"/>
<stop offset="1" stop-color="#1A0F91"/>
</linearGradient>
<linearGradient id="paint18_linear_679_5303" x1="61.7371" y1="-57.7397" x2="61.7371" y2="-21.6815" gradientUnits="userSpaceOnUse">
<stop stop-color="#FEBBBA"/>
<stop offset="1" stop-color="#FF928E"/>
</linearGradient>
<linearGradient id="paint19_linear_679_5303" x1="113.097" y1="87.7525" x2="125.634" y2="98.8235" gradientUnits="userSpaceOnUse">
<stop stop-color="#FEBBBA"/>
<stop offset="1" stop-color="#FF928E"/>
</linearGradient>
<linearGradient id="paint20_linear_679_5303" x1="4.28897" y1="-300.553" x2="13.7556" y2="-265.767" gradientUnits="userSpaceOnUse">
<stop stop-color="#FF928E"/>
<stop offset="1" stop-color="#FE7062"/>
</linearGradient>
<linearGradient id="paint21_linear_679_5303" x1="4.29288" y1="-300.557" x2="13.7595" y2="-265.771" gradientUnits="userSpaceOnUse">
<stop stop-color="#FF928E"/>
<stop offset="1" stop-color="#FE7062"/>
</linearGradient>
<linearGradient id="paint22_linear_679_5303" x1="4.45909" y1="-300.602" x2="13.9257" y2="-265.816" gradientUnits="userSpaceOnUse">
<stop stop-color="#FF928E"/>
<stop offset="1" stop-color="#FE7062"/>
</linearGradient>
<linearGradient id="paint23_linear_679_5303" x1="21.3469" y1="-305.198" x2="30.8135" y2="-270.412" gradientUnits="userSpaceOnUse">
<stop stop-color="#FF928E"/>
<stop offset="1" stop-color="#FE7062"/>
</linearGradient>
<linearGradient id="paint24_linear_679_5303" x1="21.3469" y1="-305.197" x2="30.8135" y2="-270.412" gradientUnits="userSpaceOnUse">
<stop stop-color="#FF928E"/>
<stop offset="1" stop-color="#FE7062"/>
</linearGradient>
<linearGradient id="paint25_linear_679_5303" x1="21.62" y1="-305.271" x2="31.0866" y2="-270.485" gradientUnits="userSpaceOnUse">
<stop stop-color="#FF928E"/>
<stop offset="1" stop-color="#FE7062"/>
</linearGradient>
<linearGradient id="paint26_linear_679_5303" x1="28.6422" y1="-307.183" x2="38.1088" y2="-272.397" gradientUnits="userSpaceOnUse">
<stop stop-color="#FF928E"/>
<stop offset="1" stop-color="#FE7062"/>
</linearGradient>
<linearGradient id="paint27_linear_679_5303" x1="28.6424" y1="-307.182" x2="38.109" y2="-272.397" gradientUnits="userSpaceOnUse">
<stop stop-color="#FF928E"/>
<stop offset="1" stop-color="#FE7062"/>
</linearGradient>
<linearGradient id="paint28_linear_679_5303" x1="28.9217" y1="-307.259" x2="38.3883" y2="-272.473" gradientUnits="userSpaceOnUse">
<stop stop-color="#FF928E"/>
<stop offset="1" stop-color="#FE7062"/>
</linearGradient>
<linearGradient id="paint29_linear_679_5303" x1="42.2303" y1="-310.877" x2="51.6969" y2="-276.091" gradientUnits="userSpaceOnUse">
<stop stop-color="#FF928E"/>
<stop offset="1" stop-color="#FE7062"/>
</linearGradient>
<linearGradient id="paint30_linear_679_5303" x1="42.2326" y1="-310.88" x2="51.6992" y2="-276.094" gradientUnits="userSpaceOnUse">
<stop stop-color="#FF928E"/>
<stop offset="1" stop-color="#FE7062"/>
</linearGradient>
<linearGradient id="paint31_linear_679_5303" x1="42.4561" y1="-310.941" x2="51.9227" y2="-276.155" gradientUnits="userSpaceOnUse">
<stop stop-color="#FF928E"/>
<stop offset="1" stop-color="#FE7062"/>
</linearGradient>
<clipPath id="clip0_679_5303">
<rect width="141" height="141.027" fill="white" transform="translate(0 0.377197)"/>
</clipPath>
</defs>
</svg>
