<svg width="186" height="21" viewBox="0 0 186 21" fill="none" xmlns="http://www.w3.org/2000/svg">
<path d="M62.557 5.26389C62.6016 5.2249 62.6462 5.10794 62.6462 5.02996C62.6462 4.95198 62.6462 4.913 62.6016 4.83502C62.557 4.79603 62.5124 4.71806 62.4678 4.71806C62.4231 4.67907 62.3339 4.67907 62.2893 4.67907C62.2447 4.67907 62.1554 4.64008 62.0662 4.64008H61.5307V5.92669H61.8877V5.45883H62.0216L62.4678 5.92669H62.914L62.3785 5.38085C62.4678 5.34187 62.5124 5.30288 62.557 5.26389ZM62.2447 5.10794C62.2447 5.14693 62.2 5.14693 62.2 5.14693C62.1554 5.18591 62.1554 5.18591 62.0662 5.18591C62.0216 5.18591 61.9769 5.18591 61.9323 5.18591H61.8431V4.79603H61.9769C62.0216 4.79603 62.0662 4.79603 62.1108 4.79603C62.1554 4.79603 62.1554 4.83502 62.2 4.83502C62.2447 4.87401 62.2447 4.87401 62.2447 4.87401C62.2447 4.87401 62.2893 4.913 62.2893 4.95198C62.2893 5.06895 62.2893 5.10794 62.2447 5.10794ZM63.1371 4.40615C62.8693 4.17222 62.4678 4.01627 62.0662 4.01627C61.6646 4.01627 61.3076 4.13323 60.9953 4.40615C60.7276 4.64008 60.5491 4.95198 60.5491 5.34187C60.5491 5.69276 60.683 6.00467 60.9953 6.27758C61.263 6.51151 61.6646 6.66746 62.0662 6.66746C62.4678 6.66746 62.8247 6.5505 63.1371 6.27758C63.4048 6.04365 63.5833 5.69276 63.5833 5.34187C63.5833 4.99097 63.4494 4.67907 63.1371 4.40615ZM62.914 6.04365C62.6909 6.23859 62.3785 6.35556 62.0662 6.35556C61.7538 6.35556 61.4415 6.23859 61.2184 6.04365C60.9953 5.84871 60.8614 5.5758 60.8614 5.30288C60.8614 5.02996 60.9953 4.75704 61.2184 4.5621C61.4415 4.36716 61.7538 4.2502 62.0662 4.2502C62.3785 4.2502 62.6909 4.36716 62.914 4.5621C63.1371 4.75704 63.2709 5.02996 63.2709 5.30288C63.2709 5.61478 63.1371 5.84871 62.914 6.04365ZM51.6251 11.8919L48.9033 5.06895H43.9952L48.7695 15.3228H54.347L59.1659 5.06895H54.347L51.6251 11.8919ZM11.2442 6.94038C11.5119 6.82342 11.7796 6.70645 12.0027 6.62848C13.0736 5.96568 13.8321 4.913 13.8321 3.62639C13.7875 1.63799 12.0027 0.0394764 9.77174 0.000488281H10.0395H0V15.3618H8.21005C8.34391 15.3618 8.52239 15.3618 8.65625 15.3618H10.6195H10.8872C13.5644 15.2838 15.3046 13.3344 15.3046 11.0341C15.3046 8.96776 13.4306 7.36925 11.2442 6.94038ZM4.77432 2.84662H7.13917C7.40689 2.84662 7.67461 2.88561 7.94233 2.96359C8.47777 3.15853 8.87935 3.54841 9.01321 4.01627C9.05783 4.13323 9.05783 4.2502 9.05783 4.36716C9.05783 4.67907 9.01321 4.913 8.92397 5.14693C8.79011 5.38085 8.65625 5.5758 8.38853 5.73175C8.29929 5.77074 8.21005 5.80972 8.12081 5.84871C7.80847 5.96568 7.49613 6.04365 7.18379 6.08264C6.87145 6.12163 6.73759 6.12163 5.97906 6.12163H4.77432V2.84662ZM9.28092 12.1648C8.83473 12.3987 8.34391 12.5547 7.80847 12.5547H4.77432V8.69485H7.31765C7.49613 8.69485 7.67461 8.69485 7.76385 8.69485C8.21005 8.69485 8.61163 8.73384 8.83473 8.8508C8.87935 8.88979 8.96859 8.88979 9.05783 8.92878C9.72712 9.24068 10.2179 9.86449 10.2179 10.6053C10.2179 11.2681 9.86098 11.8139 9.28092 12.1648ZM25.3887 5.14693L21.2837 9.74753V0.000488281H16.5986V15.4008H21.239L23.2469 13.1785L25.121 15.4008H30.4307L25.9687 10.1374L30.4307 5.14693H25.3887ZM42.4335 5.53681C41.4964 4.95198 39.1762 4.64008 37.1237 4.64008C36.2759 4.64008 35.4728 4.71806 34.625 4.83502C33.5987 4.99097 32.394 5.2249 31.6801 5.49782L33.0187 7.8761C33.9111 7.40824 34.7589 7.17431 35.8743 7.01836C36.499 6.94038 37.1683 6.90139 37.7038 6.97937C38.1053 7.01836 38.4623 7.13532 38.7746 7.33026C39.1316 7.56419 39.3547 7.91509 39.3547 8.42193V8.49991C37.5253 8.5389 35.6959 8.61687 34.1342 9.04574C32.5725 9.43562 30.9215 10.6832 30.9215 12.2818C30.9215 14.1142 32.751 15.5568 34.8481 15.5568C34.8927 15.5568 35.4281 15.5568 35.4281 15.5568C36.7667 15.4788 38.2838 15.0889 39.3547 14.4651L40.1132 15.3618H43.8613V8.22699C43.8613 7.01836 43.3705 6.16062 42.4335 5.53681ZM39.3547 12.5937C39.3547 12.5937 38.4177 13.4904 37.1683 13.4904C37.0791 13.4904 37.0345 13.4904 36.9452 13.4904C36.9006 13.4904 36.9006 13.4904 36.856 13.4904C36.8114 13.4904 36.8114 13.4904 36.8114 13.4904C36.0974 13.3734 35.562 12.8276 35.562 12.1258C35.562 11.463 36.0974 10.8782 36.8114 10.7612H36.856C37.4807 10.6443 39.3993 10.4883 39.3993 10.4883L39.3547 12.5937Z" fill="white"/>
<path fill-rule="evenodd" clip-rule="evenodd" d="M106.423 15.5877C105.769 15.5877 105.376 15.3131 105.376 14.7089V2.13043C105.376 1.58115 105.703 1.25159 106.423 1.25159C107.077 1.25159 107.469 1.52623 107.469 2.13043V6.46973C108.32 5.70074 109.562 5.26132 111.263 5.26132H111.917C113.552 5.26132 114.73 5.59088 115.515 6.25002C116.299 6.90915 116.692 7.89785 116.692 9.27105V14.7638C116.692 15.3131 116.365 15.6427 115.645 15.6427C114.926 15.6427 114.599 15.368 114.599 14.7638V9.27105C114.599 8.3922 114.403 7.788 114.01 7.45843C113.618 7.12886 112.898 6.96408 111.852 6.96408H111.198C110.216 6.96408 109.366 7.07393 108.647 7.23872C107.927 7.4035 107.535 7.73307 107.404 8.11756V14.7089C107.404 15.3131 107.077 15.5877 106.423 15.5877ZM93.1427 15.4803L93.1428 15.4803C93.1838 15.4792 93.2146 15.4785 93.2341 15.4785H96.1034C97.6381 15.4785 98.8392 15.2043 99.6399 14.7107C100.441 14.2171 100.908 13.3945 101.041 12.2428C101.108 11.9686 101.041 11.7492 100.841 11.5847C100.641 11.4202 100.374 11.3653 100.04 11.3653C99.4398 11.3653 99.0394 11.6944 98.9727 12.2428C98.9059 12.846 98.639 13.2848 98.1719 13.5042C97.7716 13.7235 97.0376 13.8332 96.1034 13.8332H93.1674C92.2999 13.8332 91.6326 13.7235 91.0988 13.559C90.6317 13.3945 90.2314 13.1203 90.0312 12.6815C89.831 12.2976 89.6975 11.6944 89.6975 10.9814V6.31983C89.6975 5.60688 89.831 5.05846 90.0312 4.61972C90.2314 4.18099 90.6317 3.90678 91.0988 3.74225C91.6326 3.57772 92.2999 3.52288 93.1674 3.52288H96.1701C97.1043 3.52288 97.7716 3.63256 98.2387 3.85193C98.7057 4.0713 98.9727 4.51004 99.0394 5.1133C99.1061 5.71657 99.5065 5.99078 100.107 5.99078C100.441 5.99078 100.708 5.93594 100.908 5.77141C101.108 5.60688 101.175 5.38751 101.108 5.1133C100.974 4.01646 100.507 3.13899 99.7067 2.64541C98.9059 2.15183 97.7048 1.87762 96.1701 1.87762H93.1674C91.299 1.87762 89.8977 2.20667 89.0303 2.97446C88.1628 3.74225 87.6957 4.89393 87.6957 6.42952V11.0911C87.6957 12.6815 88.1628 13.7784 89.0303 14.5462C90.4166 15.5488 92.6162 15.4935 93.1427 15.4803ZM75.6006 11.7912V11.4166H84.4811C85.2325 11.4166 85.5741 11.0956 85.5741 10.5605V9.54395C85.5741 8.20632 85.1642 7.24323 84.3445 6.60117C83.5248 5.95911 82.2952 5.63808 80.5874 5.63808H78.538C76.8302 5.58458 75.6006 5.90561 74.7809 6.54767C73.9612 7.18973 73.5513 8.15282 73.5513 9.49044V11.7912C73.5513 13.0753 73.9612 14.0384 74.7809 14.6804C75.6006 15.3225 76.8302 15.6435 78.538 15.6435H80.5874C82.0219 15.6435 83.1149 15.483 83.9346 15.055C84.7544 14.6804 85.2325 14.0384 85.4375 13.2358C85.5058 12.9683 85.4375 12.7542 85.2325 12.5937C85.0276 12.4332 84.7544 12.3797 84.4128 12.3797C84.0713 12.3797 83.798 12.4867 83.6614 12.5937C83.4564 12.7542 83.3198 12.9148 83.2515 13.1823C83.1149 13.5033 82.8417 13.7173 82.4318 13.8243C82.0219 13.9849 81.4071 14.0384 80.5191 14.0384H78.4697C77.3767 14.0384 76.6253 13.8779 76.2154 13.5568C75.8056 13.2358 75.6006 12.6472 75.6006 11.7912ZM76.1471 7.67127C76.557 7.40375 77.3084 7.24323 78.4014 7.24323V7.18973H80.3824C81.4754 7.18973 82.2268 7.35024 82.6367 7.67127C83.0466 7.9923 83.2515 8.58086 83.2515 9.43694V9.59745H75.5323V9.43694C75.5323 8.58086 75.7373 7.9923 76.1471 7.67127ZM131.544 6.47984C131.544 5.89718 131.127 5.63233 130.432 5.63233C129.667 5.63233 129.32 5.95014 129.389 6.53281V12.8891C129.25 13.2599 128.833 13.5777 128.069 13.7366C127.304 13.8955 126.401 14.0015 125.358 14.0015H124.664C123.552 14.0015 122.787 13.8426 122.37 13.5247C121.953 13.2069 121.745 12.6243 121.745 11.7768V6.47984C121.745 5.89718 121.328 5.63233 120.633 5.63233C119.868 5.63233 119.521 5.95014 119.521 6.47984V11.7768C119.521 13.101 119.938 14.0544 120.772 14.6901C121.606 15.3257 122.857 15.6435 124.594 15.6435H125.289C127.096 15.6435 128.416 15.2198 129.32 14.4782V14.796C129.32 15.3787 129.737 15.6435 130.432 15.6435C131.196 15.6435 131.544 15.3257 131.544 14.796V6.47984ZM136.834 15.5905C136.18 15.5905 135.787 15.3257 135.787 14.743V6.47984C135.787 5.95014 136.114 5.63233 136.834 5.63233C137.488 5.63233 137.88 5.89718 137.88 6.47984V6.79765C138.73 6.05608 139.973 5.63233 141.674 5.63233H142.328C143.963 5.63233 145.14 5.95015 145.925 6.58578C146.71 7.22141 147.103 8.17485 147.103 9.49909V14.796C147.103 15.3257 146.776 15.6435 146.056 15.6435C145.402 15.6435 145.01 15.3787 145.01 14.796V9.49909C145.01 8.65158 144.813 8.06892 144.421 7.7511C144.029 7.43328 143.309 7.27438 142.262 7.27438H141.608C140.627 7.27438 139.777 7.38031 139.058 7.53922C138.338 7.69813 137.946 8.01595 137.815 8.38673V14.743C137.815 15.3257 137.488 15.5905 136.834 15.5905ZM151.089 19.4741C151.603 19.8037 152.375 19.9685 153.339 19.9685V20.0234H157.84C158.997 20.0234 159.833 19.8037 160.411 19.3094C160.99 18.8699 161.247 18.1009 161.247 17.1122V6.51117C161.247 5.90697 160.861 5.63233 160.219 5.63233C159.511 5.63233 159.19 5.9619 159.19 6.51117C158.868 6.23654 158.483 6.01683 158.033 5.85204C157.647 5.68726 157.132 5.63233 156.554 5.63233H154.625C153.018 5.63233 151.86 5.9619 151.089 6.62103C150.317 7.28016 149.932 8.26886 149.932 9.64206V12.004C149.932 13.3222 150.317 14.3109 151.089 14.9701C151.86 15.6292 153.018 15.9588 154.625 15.9588H155.525C156.297 15.9588 157.004 15.8489 157.647 15.6292C158.29 15.4095 158.804 15.0799 159.254 14.6954V17.0573C159.254 17.5517 159.19 17.8812 158.997 18.046C158.804 18.2108 158.418 18.2657 157.84 18.2657H153.403C153.018 18.2657 152.696 18.2657 152.503 18.2108C152.31 18.1559 152.118 18.046 152.053 17.8812C151.925 17.6066 151.796 17.4418 151.668 17.277C151.539 17.1122 151.346 17.0573 151.025 17.0573C150.703 17.0573 150.446 17.1122 150.253 17.277C150.06 17.4418 149.996 17.6615 150.06 17.9362C150.189 18.6502 150.51 19.1446 151.089 19.4741ZM155.525 14.2011H154.625C153.596 14.2011 152.889 14.0363 152.503 13.7616C152.118 13.4321 151.925 12.8828 151.925 12.004V9.64206C151.925 8.76321 152.118 8.15901 152.503 7.82944C152.889 7.49987 153.596 7.33509 154.625 7.33509H156.554C157.454 7.33509 158.097 7.44495 158.547 7.66466C158.997 7.82944 159.254 8.21394 159.254 8.76321V12.8279C159.254 13.2673 158.868 13.6518 158.161 13.8715C157.454 14.0912 156.554 14.2011 155.525 14.2011ZM171.318 15.6432C169.824 15.6432 168.704 15.3181 167.957 14.7222C167.21 14.0721 166.899 13.1512 166.899 11.7969V7.19217H165.779C165.157 7.19217 164.783 6.9213 164.783 6.3254C164.783 5.7295 165.094 5.45863 165.779 5.45863H166.899V3.99596C166.899 3.45423 167.21 3.12919 167.895 3.12919C168.517 3.12919 168.891 3.40005 168.891 3.99596V5.45863H171.567C172.189 5.45863 172.563 5.7295 172.563 6.3254C172.563 6.9213 172.252 7.19217 171.567 7.19217H168.891V11.7969C168.891 12.6636 169.078 13.2054 169.451 13.5304C169.824 13.8013 170.447 13.9638 171.443 13.9638C171.754 13.9638 172.003 14.018 172.127 14.1805C172.314 14.2888 172.376 14.5055 172.376 14.8306C172.314 15.3723 171.94 15.6432 171.318 15.6432ZM186 6.47984C186 5.89718 185.608 5.63233 184.953 5.63233C184.299 5.63233 183.972 5.95014 183.972 6.53281V12.8891C183.842 13.2599 183.449 13.5777 182.73 13.7366C182.01 13.8955 181.16 14.0015 180.179 14.0015H179.525C178.478 14.0015 177.759 13.8426 177.366 13.5247C176.974 13.2069 176.777 12.6243 176.777 11.7768V6.47984C176.777 5.89718 176.385 5.63233 175.731 5.63233C175.011 5.63233 174.684 5.95014 174.684 6.47984V11.7768C174.684 13.101 175.077 14.0544 175.862 14.6901C176.647 15.3257 177.824 15.6435 179.459 15.6435H180.113C181.814 15.6435 183.057 15.2198 183.907 14.4782V14.796C183.907 15.3787 184.234 15.6435 184.953 15.6435C185.673 15.6435 186 15.3257 186 14.796V6.47984Z" fill="white"/>
<rect x="67" width="0.688213" height="16.5171" fill="white"/>
</svg>
