<svg width="68" height="22" viewBox="0 0 68 22" fill="none" xmlns="http://www.w3.org/2000/svg">
<path d="M12 16V6.71973H13.5234V14.7051H17.4653V16H12Z" fill="white"/>
<path d="M20.4106 8.97314V16H18.9189V8.97314H20.4106ZM19.6743 6.28174C19.9028 6.28174 20.0996 6.3431 20.2646 6.46582C20.4339 6.58854 20.5186 6.80013 20.5186 7.10059C20.5186 7.39681 20.4339 7.6084 20.2646 7.73535C20.0996 7.85807 19.9028 7.91943 19.6743 7.91943C19.4373 7.91943 19.2363 7.85807 19.0713 7.73535C18.9105 7.6084 18.8301 7.39681 18.8301 7.10059C18.8301 6.80013 18.9105 6.58854 19.0713 6.46582C19.2363 6.3431 19.4373 6.28174 19.6743 6.28174Z" fill="white"/>
<path d="M25.3491 8.83984C25.9754 8.83984 26.5129 8.96891 26.9614 9.22705C27.41 9.48519 27.7549 9.85124 27.9961 10.3252C28.2373 10.7992 28.3579 11.3662 28.3579 12.0264V12.8262H23.667C23.6839 13.5075 23.8659 14.0322 24.2129 14.4004C24.5641 14.7686 25.055 14.9526 25.6855 14.9526C26.1341 14.9526 26.5361 14.9103 26.8916 14.8257C27.2513 14.7368 27.6216 14.6077 28.0024 14.4385V15.6509C27.6512 15.8159 27.2936 15.9365 26.9297 16.0127C26.5658 16.0889 26.1299 16.127 25.6221 16.127C24.9323 16.127 24.325 15.9937 23.8003 15.7271C23.2798 15.4562 22.8714 15.0542 22.5752 14.521C22.2832 13.9878 22.1372 13.3255 22.1372 12.5342C22.1372 11.7471 22.2705 11.0785 22.5371 10.5283C22.8037 9.97819 23.1782 9.55924 23.6606 9.27148C24.1431 8.98372 24.7059 8.83984 25.3491 8.83984ZM25.3491 9.96338C24.8794 9.96338 24.4985 10.1157 24.2065 10.4204C23.9188 10.7251 23.7495 11.1715 23.6987 11.7598H26.8979C26.8937 11.4085 26.8345 11.0975 26.7202 10.8267C26.6102 10.5558 26.4409 10.3442 26.2124 10.1919C25.9881 10.0396 25.7004 9.96338 25.3491 9.96338ZM26.1045 6.04053C26.2188 6.23519 26.3711 6.45101 26.5615 6.68799C26.7562 6.92497 26.9572 7.15771 27.1646 7.38623C27.3761 7.61051 27.5623 7.80306 27.7231 7.96387V8.12256H26.7075C26.479 7.97868 26.2357 7.80729 25.9775 7.6084C25.7236 7.40527 25.4845 7.18734 25.2603 6.95459C25.0317 7.18734 24.7926 7.40316 24.543 7.60205C24.2975 7.80094 24.0627 7.97445 23.8384 8.12256H22.8291V7.96387C22.9899 7.79883 23.174 7.60417 23.3813 7.37988C23.5887 7.1556 23.7876 6.92497 23.978 6.68799C24.1685 6.45101 24.3208 6.23519 24.4351 6.04053H26.1045Z" fill="white"/>
<path d="M33.7026 8.83984C34.494 8.83984 35.1097 9.04508 35.5498 9.45557C35.9941 9.86182 36.2163 10.5156 36.2163 11.417V16H34.7246V11.6963C34.7246 11.1504 34.6125 10.742 34.3882 10.4712C34.1639 10.1961 33.8169 10.0586 33.3472 10.0586C32.6659 10.0586 32.1919 10.2681 31.9253 10.687C31.6629 11.106 31.5317 11.7132 31.5317 12.5088V16H30.04V8.97314H31.2017L31.4111 9.92529H31.4937C31.646 9.67985 31.8343 9.47884 32.0586 9.32227C32.2871 9.16146 32.541 9.04085 32.8203 8.96045C33.1038 8.88005 33.3979 8.83984 33.7026 8.83984Z" fill="white"/>
<path d="M43.1733 6.12305V8.60498C43.1733 8.86312 43.1649 9.11491 43.1479 9.36035C43.1353 9.60579 43.1204 9.79622 43.1035 9.93164H43.186C43.3341 9.6862 43.5161 9.48519 43.7319 9.32861C43.9478 9.16781 44.189 9.0472 44.4556 8.9668C44.7264 8.88639 45.0142 8.84619 45.3188 8.84619C45.8563 8.84619 46.3133 8.93717 46.6899 9.11914C47.0666 9.29688 47.3543 9.57406 47.5532 9.95068C47.7563 10.3273 47.8579 10.8161 47.8579 11.417V16H46.3662V11.6963C46.3662 11.1504 46.2541 10.742 46.0298 10.4712C45.8055 10.1961 45.4585 10.0586 44.9888 10.0586C44.536 10.0586 44.1763 10.1538 43.9097 10.3442C43.6473 10.5304 43.459 10.8076 43.3447 11.1758C43.2305 11.5397 43.1733 11.984 43.1733 12.5088V16H41.6816V6.12305H43.1733Z" fill="white"/>
<path d="M52.7456 8.83984C53.3719 8.83984 53.9093 8.96891 54.3579 9.22705C54.8065 9.48519 55.1514 9.85124 55.3926 10.3252C55.6338 10.7992 55.7544 11.3662 55.7544 12.0264V12.8262H51.0635C51.0804 13.5075 51.2624 14.0322 51.6094 14.4004C51.9606 14.7686 52.4515 14.9526 53.082 14.9526C53.5306 14.9526 53.9326 14.9103 54.2881 14.8257C54.6478 14.7368 55.0181 14.6077 55.3989 14.4385V15.6509C55.0477 15.8159 54.6901 15.9365 54.3262 16.0127C53.9622 16.0889 53.5264 16.127 53.0186 16.127C52.3288 16.127 51.7215 15.9937 51.1968 15.7271C50.6763 15.4562 50.2679 15.0542 49.9717 14.521C49.6797 13.9878 49.5337 13.3255 49.5337 12.5342C49.5337 11.7471 49.667 11.0785 49.9336 10.5283C50.2002 9.97819 50.5747 9.55924 51.0571 9.27148C51.5396 8.98372 52.1024 8.83984 52.7456 8.83984ZM52.7456 9.96338C52.2759 9.96338 51.895 10.1157 51.603 10.4204C51.3153 10.7251 51.146 11.1715 51.0952 11.7598H54.2944C54.2902 11.4085 54.231 11.0975 54.1167 10.8267C54.0067 10.5558 53.8374 10.3442 53.6089 10.1919C53.3846 10.0396 53.0968 9.96338 52.7456 9.96338ZM53.501 6.04053C53.6152 6.23519 53.7676 6.45101 53.958 6.68799C54.1527 6.92497 54.3537 7.15771 54.561 7.38623C54.7726 7.61051 54.9588 7.80306 55.1196 7.96387V8.12256H54.104C53.8755 7.97868 53.6322 7.80729 53.374 7.6084C53.1201 7.40527 52.881 7.18734 52.6567 6.95459C52.4282 7.18734 52.1891 7.40316 51.9395 7.60205C51.694 7.80094 51.4591 7.97445 51.2349 8.12256H50.2256V7.96387C50.3864 7.79883 50.5705 7.60417 50.7778 7.37988C50.9852 7.1556 51.1841 6.92497 51.3745 6.68799C51.5649 6.45101 51.7173 6.23519 51.8315 6.04053H53.501ZM52.7456 18.4756C52.5086 18.4756 52.3076 18.4121 52.1426 18.2852C51.9818 18.1624 51.9014 17.953 51.9014 17.6567C51.9014 17.3563 51.9818 17.1447 52.1426 17.022C52.3076 16.8993 52.5086 16.8379 52.7456 16.8379C52.9784 16.8379 53.1772 16.8993 53.3423 17.022C53.5073 17.1447 53.5898 17.3563 53.5898 17.6567C53.5898 17.953 53.5073 18.1624 53.3423 18.2852C53.1772 18.4121 52.9784 18.4756 52.7456 18.4756Z" fill="white"/>
<path fill-rule="evenodd" clip-rule="evenodd" d="M11.5834 2.13524C5.78987 2.13524 1.2 6.3641 1.2 11.4556C1.2 16.5471 5.78987 20.7759 11.5834 20.7759H55.5168C61.3103 20.7759 65.9002 16.5471 65.9002 11.4556C65.9002 6.3641 61.3103 2.13524 55.5168 2.13524H11.5834ZM0 11.4556C0 5.58936 5.24497 0.935242 11.5834 0.935242H55.5168C61.8552 0.935242 67.1002 5.58936 67.1002 11.4556C67.1002 17.3218 61.8552 21.9759 55.5168 21.9759H11.5834C5.24497 21.9759 0 17.3218 0 11.4556Z" fill="white"/>
</svg>
