<svg width="112" height="43" viewBox="0 0 112 43" fill="none" xmlns="http://www.w3.org/2000/svg">
<path d="M0 7C0 3.13401 3.13401 0 7 0H105C108.866 0 112 3.13401 112 7V36C112 39.866 108.866 43 105 43H7C3.13401 43 0 39.866 0 36V7Z" fill="#FF6E01"/>
<path d="M20.2695 13.7227C21.7409 13.7227 23.0137 13.9896 24.0879 14.5234C25.1686 15.0508 26.002 15.8353 26.5879 16.877C27.1738 17.9121 27.4668 19.1947 27.4668 20.7246C27.4668 22.3327 27.1673 23.6771 26.5684 24.7578C25.9694 25.832 25.1003 26.6426 23.9609 27.1895C22.8216 27.7298 21.4447 28 19.8301 28H15.9434V21.916H14.5176V19.9531H15.9434V13.7227H20.2695ZM20.2109 15.666H18.2773V19.9531H21.2559V21.916H18.2773V26.0371H19.8691C21.5879 26.0371 22.877 25.5977 23.7363 24.7188C24.5957 23.8398 25.0254 22.5312 25.0254 20.793C25.0254 19.6211 24.8366 18.6576 24.459 17.9023C24.0879 17.1471 23.5443 16.5872 22.8281 16.2227C22.112 15.8516 21.2396 15.666 20.2109 15.666ZM34.5469 16.9844C35.9141 16.9844 36.946 17.2871 37.6426 17.8926C38.3457 18.498 38.6973 19.4421 38.6973 20.7246V28H37.0664L36.627 26.4668H36.5488C36.2428 26.8574 35.9271 27.1797 35.6016 27.4336C35.276 27.6875 34.8984 27.8763 34.4688 28C34.0456 28.1302 33.528 28.1953 32.916 28.1953C32.2715 28.1953 31.6953 28.0781 31.1875 27.8438C30.6797 27.6029 30.2793 27.2383 29.9863 26.75C29.6934 26.2617 29.5469 25.6432 29.5469 24.8945C29.5469 23.7812 29.9603 22.9447 30.7871 22.3848C31.6204 21.8249 32.877 21.5156 34.5566 21.457L36.4316 21.3887V20.8223C36.4316 20.0736 36.2559 19.5397 35.9043 19.2207C35.5592 18.9017 35.071 18.7422 34.4395 18.7422C33.8991 18.7422 33.375 18.8203 32.8672 18.9766C32.3594 19.1328 31.8646 19.3249 31.3828 19.5527L30.6406 17.9316C31.168 17.6517 31.7669 17.4238 32.4375 17.248C33.1146 17.0723 33.8177 16.9844 34.5469 16.9844ZM36.4219 22.834L35.0254 22.8828C33.8796 22.9219 33.0755 23.1172 32.6133 23.4688C32.151 23.8203 31.9199 24.3021 31.9199 24.9141C31.9199 25.4479 32.0794 25.8385 32.3984 26.0859C32.7174 26.3268 33.1374 26.4473 33.6582 26.4473C34.4525 26.4473 35.11 26.2227 35.6309 25.7734C36.1582 25.3177 36.4219 24.6504 36.4219 23.7715V22.834ZM37.9746 12.9121C37.929 13.498 37.7598 14.0156 37.4668 14.4648C37.1738 14.9076 36.7767 15.2559 36.2754 15.5098C35.7741 15.7572 35.1816 15.8809 34.498 15.8809C33.4434 15.8809 32.6263 15.6139 32.0469 15.0801C31.4674 14.5397 31.1517 13.8171 31.0996 12.9121H32.4375C32.4766 13.2767 32.584 13.5501 32.7598 13.7324C32.9421 13.9147 33.1829 14.0352 33.4824 14.0938C33.7884 14.1523 34.1367 14.1816 34.5273 14.1816C34.8594 14.1816 35.1751 14.1491 35.4746 14.084C35.7806 14.0124 36.0345 13.8854 36.2363 13.7031C36.4447 13.5208 36.5684 13.2572 36.6074 12.9121H37.9746ZM34.1465 31.8086C33.7819 31.8086 33.4727 31.7109 33.2188 31.5156C32.9714 31.3268 32.8477 31.0046 32.8477 30.5488C32.8477 30.0866 32.9714 29.7611 33.2188 29.5723C33.4727 29.3835 33.7819 29.2891 34.1465 29.2891C34.5046 29.2891 34.8105 29.3835 35.0645 29.5723C35.3184 29.7611 35.4453 30.0866 35.4453 30.5488C35.4453 31.0046 35.3184 31.3268 35.0645 31.5156C34.8105 31.7109 34.5046 31.8086 34.1465 31.8086ZM45.9336 26.3398C46.2331 26.3398 46.5293 26.3138 46.8223 26.2617C47.1152 26.2031 47.3822 26.1348 47.623 26.0566V27.7949C47.3691 27.9056 47.0404 28 46.6367 28.0781C46.2331 28.1562 45.8132 28.1953 45.377 28.1953C44.765 28.1953 44.2148 28.0944 43.7266 27.8926C43.2383 27.6842 42.8509 27.3294 42.5645 26.8281C42.278 26.3268 42.1348 25.6335 42.1348 24.748V18.9375H40.6602V17.9121L42.2422 17.1016L42.9941 14.7871H44.4395V17.1895H47.5352V18.9375H44.4395V24.7188C44.4395 25.2656 44.5762 25.6725 44.8496 25.9395C45.123 26.2064 45.4844 26.3398 45.9336 26.3398ZM67.2324 16.9844C68.4434 16.9844 69.3548 17.2969 69.9668 17.9219C70.5853 18.5469 70.8945 19.5495 70.8945 20.9297V28H68.5996V21.3398C68.5996 20.5195 68.4401 19.901 68.1211 19.4844C67.8021 19.0677 67.3171 18.8594 66.666 18.8594C65.7546 18.8594 65.097 19.1523 64.6934 19.7383C64.2962 20.3177 64.0977 21.1608 64.0977 22.2676V28H61.8027V21.3398C61.8027 20.793 61.7311 20.3372 61.5879 19.9727C61.4512 19.6016 61.2396 19.3249 60.9531 19.1426C60.6667 18.9538 60.3053 18.8594 59.8691 18.8594C59.2376 18.8594 58.7331 19.0026 58.3555 19.2891C57.9844 19.5755 57.7174 19.9987 57.5547 20.5586C57.3919 21.112 57.3105 21.7923 57.3105 22.5996V28H55.0156V17.1895H56.8027L57.125 18.6445H57.252C57.4733 18.2669 57.7467 17.9577 58.0723 17.7168C58.4043 17.4694 58.7721 17.2871 59.1758 17.1699C59.5794 17.0462 59.9993 16.9844 60.4355 16.9844C61.2428 16.9844 61.9232 17.1276 62.4766 17.4141C63.0299 17.694 63.4434 18.1237 63.7168 18.7031H63.8926C64.2311 18.1172 64.7031 17.6842 65.3086 17.4043C65.9141 17.1243 66.5553 16.9844 67.2324 16.9844ZM83.5215 17.1895V28H81.7148L81.4023 26.5449H81.2754C81.0475 26.916 80.7578 27.2253 80.4062 27.4727C80.0547 27.7135 79.6641 27.8926 79.2344 28.0098C78.8047 28.1335 78.3522 28.1953 77.877 28.1953C77.0632 28.1953 76.3665 28.0586 75.7871 27.7852C75.2142 27.5052 74.7747 27.0755 74.4688 26.4961C74.1628 25.9167 74.0098 25.168 74.0098 24.25V17.1895H76.3145V23.8203C76.3145 24.6602 76.4837 25.2884 76.8223 25.7051C77.1673 26.1217 77.7012 26.3301 78.4238 26.3301C79.1204 26.3301 79.6738 26.1868 80.084 25.9004C80.4941 25.6139 80.7839 25.1908 80.9531 24.6309C81.1289 24.071 81.2168 23.3841 81.2168 22.5703V17.1895H83.5215ZM91.0508 16.9844C92.418 16.9844 93.4499 17.2871 94.1465 17.8926C94.8496 18.498 95.2012 19.4421 95.2012 20.7246V28H93.5703L93.1309 26.4668H93.0527C92.7467 26.8574 92.431 27.1797 92.1055 27.4336C91.7799 27.6875 91.4023 27.8763 90.9727 28C90.5495 28.1302 90.0319 28.1953 89.4199 28.1953C88.7754 28.1953 88.1992 28.0781 87.6914 27.8438C87.1836 27.6029 86.7832 27.2383 86.4902 26.75C86.1973 26.2617 86.0508 25.6432 86.0508 24.8945C86.0508 23.7812 86.4642 22.9447 87.291 22.3848C88.1243 21.8249 89.3809 21.5156 91.0605 21.457L92.9355 21.3887V20.8223C92.9355 20.0736 92.7598 19.5397 92.4082 19.2207C92.0632 18.9017 91.5749 18.7422 90.9434 18.7422C90.403 18.7422 89.8789 18.8203 89.3711 18.9766C88.8633 19.1328 88.3685 19.3249 87.8867 19.5527L87.1445 17.9316C87.6719 17.6517 88.2708 17.4238 88.9414 17.248C89.6185 17.0723 90.3216 16.9844 91.0508 16.9844ZM92.9258 22.834L91.5293 22.8828C90.3835 22.9219 89.5794 23.1172 89.1172 23.4688C88.6549 23.8203 88.4238 24.3021 88.4238 24.9141C88.4238 25.4479 88.5833 25.8385 88.9023 26.0859C89.2214 26.3268 89.6413 26.4473 90.1621 26.4473C90.9564 26.4473 91.6139 26.2227 92.1348 25.7734C92.6621 25.3177 92.9258 24.6504 92.9258 23.7715V22.834Z" fill="white"/>
</svg>
