<svg width="38" height="34" viewBox="0 0 38 34" fill="none" xmlns="http://www.w3.org/2000/svg">
<path d="M12.5 1.50142C15.5358 1.50142 18.3981 2.48257 20.5597 4.26414C22.7776 6.0921 23.999 8.53961 23.999 11.1558C23.999 13.7721 22.7776 16.2199 20.5599 18.0484C18.3981 19.8308 15.5357 20.8123 12.5 20.8123C11.3134 20.8123 10.1489 20.6624 9.03093 20.366L5.9346 22.6336L3.70254 24.2683L4.37361 21.5843L5.12703 18.571C3.97597 17.7625 3.01255 16.7636 2.31598 15.651C1.45506 14.2759 1 12.7215 1 11.1558C1 8.53956 2.22149 6.09204 4.43945 4.26412C6.60115 2.48257 9.46377 1.50142 12.5 1.50142Z" fill="white"/>
<path d="M5.34375 21.8269L8.83496 19.2701C9.97558 19.6207 11.21 19.8124 12.5 19.8124C18.2979 19.8124 22.999 15.9366 22.999 11.1558C22.999 6.37506 18.2979 2.50146 12.5 2.50146C6.70117 2.50146 2 6.37506 2 11.1558C2 14.0134 3.67969 16.5477 6.26953 18.1242L5.34375 21.8269ZM5.34366 23.8269C4.95499 23.8269 4.56585 23.7139 4.22797 23.4867C3.52882 23.0167 3.19914 22.1591 3.40348 21.3418L3.99551 18.974C2.97971 18.1698 2.11959 17.2219 1.46839 16.1817C0.507763 14.6473 3.8147e-06 12.9094 3.8147e-06 11.1558C3.8147e-06 9.66663 0.351854 8.22588 1.04577 6.8736C1.69976 5.59913 2.62758 4.46156 3.80346 3.49246C6.14379 1.56369 9.23229 0.501465 12.5 0.501465C15.7673 0.501465 18.8555 1.56371 21.1957 3.4925C22.3715 4.46161 23.2993 5.59917 23.9533 6.87362C24.6472 8.2259 24.999 9.66665 24.999 11.1558C24.999 12.645 24.6472 14.0858 23.9534 15.4383C23.2994 16.7129 22.3717 17.8507 21.196 18.82C18.8556 20.7497 15.7673 21.8124 12.5 21.8124C11.3921 21.8124 10.3013 21.6903 9.24505 21.4488L6.52545 23.4405C6.17426 23.6977 5.75923 23.8269 5.34366 23.8269Z" fill="#007CBA"/>
<path d="M32.0186 31.8265L30.916 27.3574C34 25.4546 35.999 22.3958 35.999 18.9468C35.999 13.1765 30.4023 8.5011 23.499 8.5011C16.5967 8.5011 11 13.1765 11 18.9468C11 24.7171 16.5967 29.395 23.499 29.395C25.0352 29.395 26.5049 29.1637 27.8623 28.7405L32.0186 31.8265ZM32.0186 33.8265C31.5986 33.8265 31.1797 33.6946 30.8262 33.4323L27.4531 30.9278C26.1729 31.2381 24.8467 31.395 23.499 31.395C19.6924 31.395 16.0986 30.1429 13.3789 27.8693C12.0205 26.7345 10.9512 25.4046 10.1982 23.9167C9.40332 22.346 9 20.6739 9 18.9468C9 17.2196 9.40332 15.5476 10.1982 13.9771C10.9512 12.4894 12.0215 11.1598 13.3789 10.0253C16.0986 7.7527 19.6924 6.5011 23.499 6.5011C27.3057 6.5011 30.9004 7.75269 33.6201 10.0253C34.9775 11.1598 36.0479 12.4894 36.8008 13.9771C37.5957 15.5476 37.999 17.2196 37.999 18.9468C37.999 20.9812 37.417 22.9993 36.3154 24.7827C35.5205 26.0706 34.4531 27.2387 33.1875 28.2154L33.96 31.3475C34.1621 32.1666 33.8291 33.0245 33.126 33.4918C32.79 33.7154 32.4043 33.8265 32.0186 33.8265Z" fill="white"/>
<path d="M32.2969 32.268L30.0645 30.6333L26.9678 28.3657C25.8506 28.662 24.6855 28.812 23.499 28.812C20.4629 28.812 17.6006 27.8304 15.4395 26.0481C13.2217 24.2196 12 21.7717 12 19.1555C12 16.5393 13.2217 14.0918 15.4395 12.2638C17.6006 10.4823 20.4629 9.5011 23.499 9.5011C26.5352 9.5011 29.3975 10.4823 31.5596 12.2638C33.7773 14.0917 34.999 16.5392 34.999 19.1555C34.999 20.7211 34.5439 22.2756 33.6826 23.6507C32.9863 24.7633 32.0234 25.7622 30.8721 26.5706L31.625 29.584L32.2969 32.268Z" fill="white"/>
<path d="M30.6553 29.8265L29.7295 26.1238C32.3193 24.5473 33.999 22.013 33.999 19.1555C33.999 14.3747 29.2979 10.5011 23.499 10.5011C17.7012 10.5011 13 14.3747 13 19.1555C13 23.9363 17.7012 27.812 23.499 27.812C24.7891 27.812 26.0234 27.6203 27.1641 27.2697L30.6553 29.8265ZM30.6553 31.8265C30.2393 31.8265 29.8252 31.6973 29.4736 31.4401L26.7539 29.4484C25.6973 29.6899 24.6074 29.812 23.499 29.812C20.2314 29.812 17.1436 28.7493 14.8027 26.8197C13.627 25.8503 12.6992 24.7125 12.0459 23.4379C11.3516 22.0854 11 20.6446 11 19.1555C11 17.6663 11.3516 16.2255 12.0459 14.8733C12.7002 13.5988 13.6279 12.4612 14.8037 11.4921C17.1436 9.56334 20.2314 8.5011 23.499 8.5011C26.7666 8.5011 29.8555 9.56333 32.1953 11.4921C33.3711 12.4612 34.2988 13.5988 34.9531 14.8732C35.6475 16.2255 35.999 17.6663 35.999 19.1555C35.999 20.909 35.4912 22.6469 34.5303 24.1814C33.8799 25.2215 33.0195 26.1695 32.0039 26.9736L32.5957 29.3414C32.7998 30.1587 32.4697 31.0164 31.7715 31.4864C31.4336 31.7135 31.0439 31.8265 30.6553 31.8265Z" fill="#007CBA"/>
</svg>
