<svg width="13" height="14" viewBox="0 0 13 14" fill="none" xmlns="http://www.w3.org/2000/svg">
<path d="M6.81335 9.54164C5.85886 9.54164 5.11893 9.29671 4.59356 8.80685C4.0722 8.31363 3.81152 7.61742 3.81152 6.71822C3.81152 5.79554 4.07621 5.08255 4.60559 4.57927C5.13898 4.07598 5.89696 3.82434 6.87952 3.82434C7.19635 3.82434 7.51317 3.85286 7.83 3.9099C8.14682 3.96694 8.39547 4.03404 8.57594 4.11121L8.26914 4.82084C8.04857 4.74703 7.80794 4.68663 7.54726 4.63966C7.28658 4.58933 7.05598 4.56417 6.85546 4.56417C5.51597 4.56417 4.84622 5.27883 4.84622 6.70816C4.84622 7.38591 5.00864 7.90597 5.33349 8.26834C5.66235 8.6307 6.14761 8.81188 6.78929 8.81188C7.33872 8.81188 7.90219 8.7129 8.47969 8.51495V9.25477C8.03854 9.44602 7.48309 9.54164 6.81335 9.54164Z" fill="white"/>
<circle cx="6.19374" cy="7.15932" r="5.69374" stroke="white"/>
</svg>
