<svg width="130" height="132" viewBox="0 0 130 132" fill="none" xmlns="http://www.w3.org/2000/svg">
<g clip-path="url(#clip0_679_4994)">
<path d="M0.716257 84.869C2.77673 75.9948 9.51509 69.029 18.0929 66.8986C23.9903 65.4339 29.6484 66.2198 34.4309 68.5934C36.0172 69.3807 37.902 68.4897 38.3416 66.727C42.5691 49.7745 57.448 37.2505 75.1549 37.2505C96.1517 37.2505 113.172 54.8593 113.172 76.5813C113.172 77.1579 113.161 77.9456 113.151 78.7013C113.226 80.3259 113.911 81.0156 114.935 81.1886C123.161 82.0744 129.626 89.0902 129.985 97.7437C130.397 107.68 122.58 115.912 112.967 115.912H24.0459C8.82406 115.912 -3.09445 101.279 0.716257 84.869Z" fill="#6CC7EE"/>
<path d="M7.60319 88.1944C9.44314 80.2711 15.4592 74.0511 23.1184 72.1494C28.3841 70.8416 33.4357 71.5436 37.7057 73.6627C39.1219 74.3656 40.8049 73.5698 41.1973 71.9962C44.9721 56.8595 58.2567 45.6772 74.0668 45.6772C92.8138 45.6772 108.011 61.3999 108.011 80.7944C108.011 81.3092 108.001 82.0126 107.993 82.6872C108.059 84.1373 108.671 84.7535 109.585 84.9081C116.93 85.6992 122.702 91.9635 123.023 99.6897C123.391 108.562 116.411 115.912 107.828 115.912H28.4331C14.842 115.912 4.20084 102.847 7.60319 88.1944Z" fill="#95D7F3"/>
<path d="M17.9276 126.542C17.9276 127.269 18.5177 127.864 19.2391 127.864H90.1637C90.8851 127.864 91.4752 127.269 91.4752 126.542L92.0654 85.4167C92.0654 84.6898 91.2164 83.2698 89.6601 83.3768L20.3445 81.567C19.4395 81.5435 18.5644 81.8947 17.9234 82.5396C17.2823 83.184 16.9319 84.0656 16.9529 84.9778L17.9271 126.542H17.9276Z" fill="url(#paint0_linear_679_4994)"/>
<path d="M19.2223 125.273C19.2223 125.962 19.7806 126.525 20.4632 126.525H88.4532C89.1359 126.525 89.6942 125.962 89.6942 125.273L90.2511 87.9397C90.1857 85.6929 88.2336 84.8858 87.0502 84.9334L20.6179 83.1349C19.982 83.1175 19.3671 83.365 18.9167 83.818C18.4663 84.271 18.2187 84.8914 18.2345 85.5331L19.2223 125.273Z" fill="#95D7F3"/>
<path d="M12.4376 131.278H95.527C95.6728 131.278 95.791 131.159 95.791 131.012V127.931C95.791 127.784 95.6728 127.665 95.527 127.665L12.4376 127.665C12.2918 127.665 12.1736 127.784 12.1736 127.931V131.012C12.1736 131.159 12.2918 131.278 12.4376 131.278Z" fill="url(#paint1_linear_679_4994)"/>
<path d="M48.7193 124.704H22.5414C21.5761 124.704 20.794 123.914 20.794 122.941V88.4635C20.794 87.4631 21.6177 86.6631 22.6087 86.7013L48.7865 87.712C49.7252 87.7483 50.4672 88.5266 50.4672 89.4742V122.941C50.4672 123.915 49.6841 124.704 48.7193 124.704Z" fill="#6CC7EE"/>
<path opacity="0.51" d="M43.513 100.226H26.1727C26.0352 100.226 25.9237 100.339 25.9237 100.477V102.299C25.9237 102.438 26.0352 102.551 26.1727 102.551H43.513C43.6505 102.551 43.762 102.438 43.762 102.299V100.477C43.762 100.339 43.6505 100.226 43.513 100.226Z" fill="white"/>
<path opacity="0.51" d="M43.548 103.939H26.2078C26.0702 103.939 25.9587 104.051 25.9587 104.19V106.012C25.9587 106.151 26.0702 106.264 26.2078 106.264H43.548C43.6855 106.264 43.797 106.151 43.797 106.012V104.19C43.797 104.051 43.6855 103.939 43.548 103.939Z" fill="white"/>
<path opacity="0.51" d="M43.6522 107.73H26.312C26.1744 107.73 26.0629 107.843 26.0629 107.981V109.804C26.0629 109.942 26.1744 110.055 26.312 110.055H43.6522C43.7897 110.055 43.9012 109.942 43.9012 109.804V107.981C43.9012 107.843 43.7897 107.73 43.6522 107.73Z" fill="white"/>
<path opacity="0.51" d="M43.6877 111.443H26.3475C26.2099 111.443 26.0984 111.556 26.0984 111.695V113.517C26.0984 113.656 26.2099 113.768 26.3475 113.768H43.6877C43.8252 113.768 43.9367 113.656 43.9367 113.517V111.695C43.9367 111.556 43.8252 111.443 43.6877 111.443Z" fill="white"/>
<path opacity="0.51" d="M81.5406 100.223H56.3925C56.255 100.223 56.1435 100.336 56.1435 100.475V102.297C56.1435 102.436 56.255 102.548 56.3925 102.548H81.5406C81.6781 102.548 81.7896 102.436 81.7896 102.297V100.475C81.7896 100.336 81.6781 100.223 81.5406 100.223Z" fill="white"/>
<path opacity="0.51" d="M81.62 103.939H56.4719C56.3344 103.939 56.2229 104.051 56.2229 104.19V106.012C56.2229 106.151 56.3344 106.264 56.4719 106.264H81.62C81.7575 106.264 81.869 106.151 81.869 106.012V104.19C81.869 104.051 81.7575 103.939 81.62 103.939Z" fill="white"/>
<path opacity="0.51" d="M71.1704 107.73H56.4719C56.3344 107.73 56.2229 107.843 56.2229 107.981V109.804C56.2229 109.942 56.3344 110.055 56.4719 110.055H71.1704C71.308 110.055 71.4195 109.942 71.4195 109.804V107.981C71.4195 107.843 71.308 107.73 71.1704 107.73Z" fill="white"/>
<g opacity="0.51">
<path d="M69.7581 91.5568H69.3675C69.1736 91.5568 69.0161 91.3979 69.0161 91.2023V89.8552C69.0161 89.3731 68.6288 88.9823 68.1508 88.9823H65.7301C65.2521 88.9823 64.8648 89.3731 64.8648 89.8552V91.2023C64.8648 91.3979 64.7073 91.5568 64.5134 91.5568H64.1228C63.9289 91.5568 63.7715 91.3979 63.7715 91.2023V89.8552C63.7715 88.7641 64.6485 87.8794 65.7301 87.8794H68.1508C69.2324 87.8794 70.1094 88.7641 70.1094 89.8552V91.2023C70.1094 91.3979 69.952 91.5568 69.7581 91.5568Z" fill="white"/>
<path d="M70.2421 91.8752H63.6383C63.2337 91.8752 62.9057 92.2062 62.9057 92.6144V97.728C62.9057 98.1363 63.2337 98.4672 63.6383 98.4672H70.2421C70.6467 98.4672 70.9747 98.1363 70.9747 97.728V92.6144C70.9747 92.2062 70.6467 91.8752 70.2421 91.8752ZM67.8849 96.8177C67.9261 96.9898 67.7966 97.1557 67.621 97.1557H66.2595C66.0838 97.1557 65.9544 96.9902 65.9955 96.8177L66.3132 95.4831C65.938 95.2568 65.6927 94.8339 65.7179 94.3554C65.7502 93.7355 66.2482 93.2282 66.8622 93.1896C67.5738 93.1448 68.1643 93.7138 68.1643 94.4224C68.1643 94.8731 67.9247 95.2676 67.5672 95.4831L67.8849 96.8177Z" fill="white"/>
</g>
<path d="M88.9802 31.8596C88.9545 31.8596 88.9283 31.8534 88.9041 31.8398C88.8279 31.7973 88.8008 31.7007 88.8428 31.6239C88.9442 31.4401 89.0424 31.2553 89.1377 31.0687C89.1774 30.9909 89.2722 30.9607 89.3498 31.0003C89.4269 31.0404 89.4572 31.1361 89.4175 31.2143C89.3208 31.4033 89.2213 31.5914 89.1185 31.7775C89.09 31.8299 89.0363 31.8591 88.9807 31.8591L88.9802 31.8596Z" fill="#91B3FA"/>
<path d="M70.5799 42.7874C70.4869 42.7874 70.3944 42.7869 70.3014 42.7855C70.2145 42.7841 70.1453 42.7124 70.1463 42.6247C70.1477 42.538 70.2178 42.4682 70.3037 42.4682H70.3061C70.713 42.4739 71.1237 42.4668 71.5302 42.4484C71.611 42.4427 71.6905 42.512 71.6942 42.5997C71.6984 42.6874 71.6311 42.7614 71.5442 42.7652C71.2246 42.7798 70.9004 42.7874 70.5803 42.7874H70.5799ZM68.3035 42.6634C68.2979 42.6634 68.2923 42.6634 68.2867 42.6624C67.876 42.6176 67.4616 42.5601 67.056 42.4913C66.9705 42.4767 66.9126 42.3947 66.9271 42.3084C66.9416 42.2221 67.0229 42.1632 67.1084 42.1783C67.5083 42.2462 67.9162 42.3027 68.3213 42.347C68.4077 42.3565 68.4703 42.4347 68.461 42.5219C68.4521 42.6035 68.3839 42.6634 68.3049 42.6634H68.3035ZM73.5318 42.5785C73.4547 42.5785 73.3874 42.521 73.3762 42.4418C73.3641 42.3551 73.4239 42.2749 73.5098 42.2627C73.9126 42.2056 74.3186 42.1354 74.7167 42.0543C74.8013 42.0373 74.8849 42.0929 74.9022 42.1787C74.919 42.2645 74.8639 42.3485 74.7788 42.3659C74.3747 42.4479 73.9626 42.5191 73.5538 42.5771C73.5463 42.578 73.5388 42.5785 73.5318 42.5785ZM65.1236 42.0656C65.11 42.0656 65.0965 42.0637 65.0829 42.0599C64.6844 41.9525 64.284 41.8318 63.8924 41.7012C63.8097 41.6738 63.7654 41.5838 63.7925 41.5008C63.8196 41.4179 63.9083 41.3726 63.991 41.3999C64.3765 41.5286 64.7708 41.6474 65.1638 41.7535C65.2479 41.7761 65.2974 41.8629 65.275 41.9477C65.2563 42.0189 65.1927 42.0656 65.1231 42.0656H65.1236ZM76.6912 41.8756C76.6235 41.8756 76.5613 41.8313 76.5408 41.7629C76.5155 41.679 76.5627 41.5904 76.6459 41.5649C77.0355 41.4457 77.4262 41.3137 77.8069 41.1722C77.8882 41.1421 77.9789 41.184 78.0088 41.2665C78.0387 41.349 77.9971 41.44 77.9153 41.4702C77.5289 41.614 77.1327 41.7479 76.737 41.869C76.7216 41.8737 76.7066 41.8756 76.6912 41.8756ZM62.0717 40.9832C62.0506 40.9832 62.0291 40.979 62.0086 40.9695C61.6306 40.8012 61.2531 40.6197 60.8872 40.4302C60.8101 40.3901 60.7798 40.2944 60.819 40.2167C60.8587 40.1389 60.9531 40.1082 61.0307 40.1478C61.3914 40.3345 61.7628 40.5132 62.1352 40.6791C62.2146 40.7145 62.2506 40.8083 62.2156 40.8884C62.1894 40.9478 62.1319 40.9832 62.0717 40.9832ZM79.7058 40.6904C79.6474 40.6904 79.5908 40.6574 79.5637 40.6004C79.5259 40.5217 79.559 40.4264 79.6371 40.3887C80.0029 40.211 80.3687 40.0196 80.7243 39.8197C80.8005 39.7773 80.8958 39.8046 80.9383 39.8815C80.9804 39.9578 80.9533 40.055 80.8771 40.0974C80.5164 40.3001 80.1449 40.4943 79.7735 40.6749C79.7515 40.6857 79.7282 40.6904 79.7053 40.6904H79.7058ZM59.2225 39.4397C59.1935 39.4397 59.1641 39.4317 59.1379 39.4148C58.7908 39.1899 58.4455 38.9518 58.1124 38.7071C58.0423 38.6558 58.0269 38.5563 58.0778 38.4856C58.1292 38.4149 58.2273 38.3993 58.2974 38.4507C58.6254 38.6916 58.9651 38.9259 59.3075 39.1475C59.3804 39.1946 59.4019 39.2931 59.3552 39.3667C59.3253 39.4138 59.2744 39.4397 59.2225 39.4397ZM82.503 39.0494C82.4531 39.0494 82.404 39.0254 82.3736 38.981C82.3241 38.9089 82.3423 38.8099 82.4138 38.7604C82.7483 38.5275 83.081 38.2814 83.4015 38.0292C83.4702 37.9755 83.5688 37.9877 83.6225 38.057C83.6758 38.1263 83.6636 38.2258 83.595 38.28C83.2693 38.536 82.9324 38.7854 82.5928 39.0221C82.5652 39.0409 82.5344 39.0503 82.5035 39.0503L82.503 39.0494ZM56.6439 37.4715C56.6065 37.4715 56.5696 37.4583 56.5397 37.4319C56.2318 37.1571 55.9271 36.8686 55.6337 36.5739C55.5721 36.5122 55.5721 36.4118 55.6333 36.3495C55.6945 36.2873 55.794 36.2873 55.8557 36.3491C56.1444 36.639 56.4448 36.9233 56.7485 37.1943C56.8135 37.2523 56.8196 37.3527 56.7621 37.4183C56.7308 37.4536 56.6878 37.4715 56.6443 37.4715H56.6439ZM85.0195 36.9949C84.978 36.9949 84.9359 36.9779 84.9051 36.9449C84.8453 36.8813 84.8485 36.7809 84.9116 36.7205C85.2078 36.4386 85.4989 36.1449 85.7774 35.8475C85.8372 35.7838 85.9367 35.781 85.9998 35.8409C86.0629 35.9012 86.0657 36.0016 86.0063 36.0653C85.7236 36.3674 85.4279 36.6654 85.1275 36.9515C85.0971 36.9803 85.0583 36.9949 85.0195 36.9949ZM54.3914 35.1281C54.346 35.1281 54.3017 35.1087 54.2704 35.071C54.0068 34.7519 53.7485 34.42 53.5032 34.0848C53.4518 34.0141 53.4663 33.9151 53.5363 33.8627C53.6069 33.8109 53.705 33.826 53.7564 33.8962C53.998 34.2267 54.2526 34.5534 54.5124 34.8683C54.568 34.9357 54.5591 35.0357 54.4923 35.0918C54.4629 35.1163 54.4273 35.1285 54.3918 35.1285L54.3914 35.1281ZM87.1968 34.5812C87.1632 34.5812 87.1291 34.5704 87.1006 34.5477C87.0319 34.494 87.0197 34.394 87.073 34.3252C87.3234 34.0004 87.5669 33.6652 87.7963 33.3286C87.8458 33.2565 87.9439 33.2381 88.0149 33.2876C88.0864 33.3376 88.1046 33.4361 88.0556 33.5082C87.8224 33.85 87.5757 34.1904 87.3211 34.5199C87.2903 34.56 87.2435 34.5812 87.1968 34.5812ZM52.5173 32.4673C52.4641 32.4673 52.4117 32.44 52.3823 32.3905C52.1692 32.0322 51.9646 31.6645 51.774 31.2968C51.7338 31.219 51.7637 31.1233 51.8408 31.0827C51.9174 31.0422 52.0127 31.0724 52.0529 31.1501C52.2403 31.5122 52.4416 31.8743 52.6519 32.2274C52.6967 32.3023 52.6724 32.3999 52.5982 32.4452C52.5729 32.4607 52.5449 32.4678 52.5173 32.4678V32.4673ZM51.0712 29.5473C51.0091 29.5473 50.9502 29.51 50.9255 29.4483C50.7699 29.0617 50.6241 28.6662 50.4924 28.273C50.4648 28.19 50.5087 28.1 50.5909 28.0717C50.6727 28.0434 50.7624 28.0882 50.7905 28.1712C50.9203 28.5582 51.0638 28.9476 51.2175 29.3285C51.2502 29.4096 51.2114 29.5025 51.1311 29.5355C51.1119 29.5435 51.0918 29.5473 51.0717 29.5473H51.0712Z" fill="#91B3FA"/>
<path d="M50.0863 26.4291C50.0148 26.4291 49.9503 26.3796 49.9335 26.3066C49.8854 26.0987 49.8401 25.8908 49.798 25.682C49.7807 25.5963 49.8359 25.5124 49.9209 25.4949C50.0059 25.4775 50.0891 25.5326 50.1064 25.6189C50.148 25.8244 50.1924 26.0294 50.24 26.234C50.2597 26.3193 50.2073 26.4046 50.1228 26.4249C50.1106 26.4277 50.0985 26.4291 50.0868 26.4291H50.0863Z" fill="#91B3FA"/>
<path d="M52.7532 10.2445C52.7247 10.2445 52.6958 10.2365 52.6696 10.22C52.5962 10.1733 52.5743 10.0753 52.6205 10.0013C52.7327 9.82169 52.8481 9.64306 52.9658 9.46583C53.0144 9.39325 53.1121 9.37345 53.184 9.42247C53.2564 9.47149 53.2751 9.57 53.227 9.64258C53.1107 9.81745 52.9971 9.99326 52.8864 10.1705C52.8565 10.2186 52.8056 10.2445 52.7532 10.2445Z" fill="#91B3FA"/>
<path d="M90.7701 15.5614C90.7019 15.5614 90.6393 15.5166 90.6192 15.4473C90.4991 15.0339 90.3646 14.6185 90.2193 14.2131C90.1898 14.1306 90.2319 14.0396 90.3136 14.0099C90.3949 13.9798 90.4856 14.0227 90.515 14.1052C90.6627 14.5167 90.7991 14.9382 90.9215 15.3582C90.9458 15.4426 90.8981 15.5308 90.815 15.5553C90.8 15.5595 90.7855 15.5614 90.7706 15.5614H90.7701ZM89.5511 12.358C89.4923 12.358 89.4362 12.325 89.4091 12.268C89.2236 11.8786 89.0241 11.4911 88.8157 11.1154C88.7732 11.039 88.8003 10.9423 88.8764 10.8994C88.9521 10.857 89.0484 10.8839 89.0904 10.9607C89.3016 11.3416 89.5044 11.7353 89.6927 12.1308C89.7305 12.21 89.6974 12.3048 89.6193 12.3425C89.5974 12.3533 89.574 12.358 89.5511 12.358ZM87.8331 9.39606C87.7836 9.39606 87.7345 9.37249 87.7042 9.32817C87.4594 8.97555 87.2005 8.62527 86.9342 8.28773C86.88 8.2189 86.8912 8.11943 86.9594 8.06475C87.0276 8.01006 87.1262 8.02137 87.1804 8.0902C87.4509 8.4334 87.714 8.78839 87.9621 9.14668C88.0121 9.21833 87.9948 9.31733 87.9233 9.36777C87.8957 9.3871 87.8644 9.39653 87.8331 9.39653V9.39606ZM54.3586 8.011C54.3231 8.011 54.2876 7.99922 54.2582 7.97423C54.1913 7.91813 54.182 7.81819 54.2376 7.75077C54.5137 7.41559 54.8043 7.08276 55.1024 6.76266C55.1618 6.69855 55.2613 6.69572 55.3248 6.75559C55.3879 6.81593 55.3912 6.91635 55.3319 6.97999C55.0384 7.29537 54.7516 7.62302 54.4796 7.95349C54.4483 7.9912 54.4039 8.011 54.3586 8.011ZM85.6657 6.75182C85.6245 6.75182 85.5834 6.73579 85.5526 6.70373C85.2564 6.39542 84.9457 6.09135 84.6289 5.80047C84.5649 5.74155 84.5602 5.64113 84.6186 5.57607C84.677 5.51102 84.777 5.5063 84.841 5.5657C85.1625 5.86129 85.4778 6.17007 85.7783 6.48263C85.839 6.54533 85.8371 6.64622 85.775 6.70703C85.7446 6.73673 85.7049 6.75182 85.6657 6.75182ZM56.7335 5.55486C56.6896 5.55486 56.6462 5.53647 56.6153 5.50065C56.5583 5.43465 56.5649 5.33423 56.6303 5.27672C56.9578 4.9882 57.2975 4.70676 57.6404 4.43946C57.7096 4.38619 57.8082 4.39892 57.861 4.46822C57.9138 4.53752 57.9011 4.63746 57.8325 4.69073C57.4946 4.95379 57.1596 5.23099 56.8373 5.51526C56.8074 5.54166 56.7704 5.55439 56.7335 5.55439V5.55486ZM83.1095 4.49037C83.0768 4.49037 83.0441 4.48 83.0156 4.45926C82.6726 4.20233 82.3175 3.95295 81.9596 3.7177C81.8867 3.67009 81.8662 3.57156 81.9138 3.49802C81.961 3.42447 82.0582 3.40373 82.1316 3.45182C82.4946 3.69036 82.8553 3.94352 83.2034 4.20469C83.273 4.25702 83.2875 4.35649 83.2356 4.42673C83.2048 4.46869 83.1571 4.49085 83.109 4.49085L83.1095 4.49037ZM59.4668 3.51122C59.4145 3.51122 59.3631 3.48482 59.3332 3.43626C59.2874 3.36177 59.3098 3.26419 59.3836 3.21752C59.7514 2.98652 60.1317 2.76353 60.5139 2.55516C60.5905 2.5132 60.6858 2.54243 60.7269 2.61927C60.768 2.69659 60.7395 2.79276 60.6634 2.83425C60.2868 3.03932 59.9121 3.259 59.5495 3.48623C59.5238 3.50273 59.4948 3.51027 59.4663 3.51027L59.4668 3.51122ZM80.2248 2.67537C80.2005 2.67537 80.1757 2.66972 80.1528 2.65793C79.7735 2.4604 79.3829 2.27277 78.9918 2.09882C78.9124 2.06346 78.8759 1.97012 78.911 1.8895C78.9455 1.80936 79.0385 1.77259 79.1184 1.80795C79.5155 1.98379 79.9122 2.17472 80.2972 2.37507C80.3743 2.41515 80.4047 2.51085 80.365 2.58863C80.3369 2.64332 80.2818 2.67443 80.2248 2.67443V2.67537ZM62.4912 1.93947C62.4295 1.93947 62.3711 1.9027 62.3459 1.84189C62.3127 1.7608 62.3505 1.66793 62.4309 1.63446C62.8304 1.4671 63.2415 1.30917 63.6527 1.16633C63.7354 1.13805 63.8246 1.18189 63.8527 1.26439C63.8807 1.34736 63.8373 1.43787 63.7555 1.46616C63.3504 1.60712 62.9458 1.76222 62.5519 1.92722C62.5323 1.93523 62.5117 1.93947 62.4916 1.93947H62.4912ZM77.0864 1.35537C77.0705 1.35537 77.0542 1.35302 77.0378 1.34783C76.6318 1.21489 76.216 1.09326 75.802 0.985774C75.7179 0.964088 75.667 0.877345 75.689 0.792488C75.7104 0.707631 75.7978 0.656717 75.8805 0.678403C76.3006 0.787774 76.7229 0.911288 77.135 1.04612C77.2177 1.07299 77.263 1.16256 77.2359 1.246C77.2145 1.31295 77.1528 1.35585 77.0864 1.35585V1.35537ZM65.7272 0.883945C65.6557 0.883945 65.5912 0.834445 65.5744 0.761845C65.5548 0.676517 65.6071 0.591188 65.6917 0.570917C66.1145 0.470503 66.5458 0.381874 66.9724 0.308331C67.0597 0.294188 67.1392 0.351703 67.1541 0.437974C67.1691 0.524245 67.1111 0.606274 67.0256 0.62136C66.6051 0.69396 66.1809 0.781174 65.7641 0.880174C65.752 0.883003 65.7398 0.884417 65.7277 0.884417L65.7272 0.883945ZM73.778 0.563845C73.7701 0.563845 73.7621 0.563374 73.7542 0.56196C73.3318 0.496431 72.9019 0.443631 72.4763 0.404503C72.3899 0.396488 72.3259 0.319174 72.3338 0.23196C72.3417 0.144745 72.4165 0.0801597 72.5048 0.088174C72.9365 0.127774 73.3729 0.181517 73.8014 0.247988C73.8873 0.261188 73.9462 0.342274 73.9331 0.429017C73.9214 0.507745 73.8542 0.563845 73.778 0.563845ZM69.0898 0.369145C69.0081 0.369145 68.9389 0.305031 68.9333 0.221588C68.9272 0.133903 68.9926 0.0580026 69.0791 0.0523454C69.5113 0.0217026 69.95 0.00425971 70.3845 0.000488281H70.3859C70.4724 0.000488281 70.5424 0.0707311 70.5434 0.157945C70.5443 0.245631 70.4742 0.317288 70.3873 0.318231C69.9593 0.322003 69.5267 0.338974 69.1015 0.369145C69.0978 0.369145 69.094 0.369145 69.0903 0.369145H69.0898Z" fill="#91B3FA"/>
<path d="M91.3682 18.2636C91.292 18.2636 91.2252 18.2075 91.2131 18.1292C91.1813 17.9219 91.1463 17.7154 91.1075 17.5085C91.0916 17.4222 91.1477 17.3393 91.2332 17.3232C91.3182 17.3082 91.4009 17.3643 91.4168 17.45C91.4556 17.6598 91.4911 17.8695 91.5238 18.0797C91.5373 18.1665 91.4785 18.2475 91.3925 18.2612C91.3841 18.2626 91.3761 18.2631 91.3682 18.2631V18.2636Z" fill="#91B3FA"/>
<path d="M86.7347 20.9191C86.7431 20.8107 86.6824 20.7089 86.5833 20.6655L83.7636 19.4294C83.5459 17.9977 83.1002 16.5905 82.4208 15.2662L83.9767 12.5932C84.0313 12.4994 84.0211 12.3811 83.951 12.2986L81.5541 9.47097C81.484 9.38847 81.3695 9.35971 81.2696 9.39931L78.4115 10.5364C77.2201 9.65436 75.9114 8.992 74.5433 8.5531L73.7701 5.55104C73.743 5.44591 73.6528 5.36954 73.5454 5.36106L69.8687 5.07207C69.7613 5.06358 69.6604 5.12487 69.6174 5.22481L68.3923 8.06988C66.9733 8.28957 65.5787 8.73931 64.2662 9.42477L61.617 7.85444C61.5241 7.79928 61.4068 7.80966 61.325 7.88037L58.5226 10.2993C58.4408 10.37 58.4123 10.4855 58.452 10.5864L59.579 13.4701C58.7048 14.6722 58.0483 15.9922 57.6134 17.3731L54.6376 18.1533C54.5334 18.1806 54.4577 18.2716 54.4493 18.38L54.1629 22.0897C54.1545 22.1981 54.2152 22.3 54.3143 22.3433L57.134 23.5794C57.3517 25.0111 57.7974 26.4184 58.4768 27.7426L56.9205 30.4156C56.8658 30.5094 56.8761 30.6277 56.9462 30.7102L59.3435 33.5379C59.4136 33.6204 59.5281 33.6491 59.628 33.6091L62.4861 32.472C63.6775 33.354 64.9862 34.0164 66.3543 34.4553L67.1275 37.4573C67.1546 37.5625 67.2448 37.6388 67.3523 37.6473L71.0289 37.9363C71.1363 37.9448 71.2372 37.8835 71.2802 37.7836L72.5053 34.9385C73.9243 34.7188 75.3189 34.2691 76.6314 33.5836L79.2806 35.1539C79.3735 35.2091 79.4908 35.1987 79.5726 35.128L82.375 32.7091C82.4568 32.6384 82.4853 32.5234 82.446 32.422L81.3191 29.5383C82.1933 28.3361 82.8493 27.0157 83.2847 25.6353L86.26 24.8551C86.3642 24.8278 86.4399 24.7368 86.4483 24.6283L86.7347 20.9191Z" fill="#9FCBE4"/>
<path opacity="0.7" d="M70.4416 25.0474C69.7216 25.0474 69.0207 24.8239 68.4213 24.3959C66.8411 23.2678 66.4655 21.053 67.5835 19.4586C68.1251 18.6864 68.9324 18.173 69.8566 18.0137C70.7808 17.8543 71.7115 18.0674 72.4763 18.6138C73.2417 19.1607 73.7505 19.9748 73.9084 20.9073C74.0668 21.8398 73.8556 22.7789 73.3136 23.5511C72.7721 24.3233 71.9647 24.8367 71.0406 24.996C70.8406 25.0304 70.6397 25.0474 70.4406 25.0474H70.4416ZM70.4556 18.438C70.2832 18.438 70.1098 18.4531 69.9365 18.4828C69.1366 18.6209 68.4376 19.065 67.969 19.7335C67.0009 21.1133 67.3261 23.0306 68.6937 24.007C69.3562 24.4803 70.1612 24.6641 70.9616 24.5265C71.7615 24.3883 72.46 23.9443 72.9291 23.2758C73.3982 22.6073 73.5809 21.7945 73.444 20.9875C73.3071 20.1804 72.8665 19.4751 72.2044 19.0023C71.6853 18.6317 71.0789 18.438 70.4556 18.438Z" fill="white"/>
<path opacity="0.7" d="M70.385 30.722C70.1444 30.722 69.9033 30.7126 69.6608 30.6937C67.2284 30.5028 65.0152 29.3671 63.4294 27.496C62.0011 25.8116 61.2358 23.7128 61.2358 21.5202C61.2358 21.2774 61.2451 21.0337 61.2638 20.7895C61.4535 18.3352 62.5786 16.1021 64.433 14.5021C66.287 12.902 68.6474 12.1261 71.0803 12.317C73.5126 12.5079 75.7259 13.6436 77.3117 15.5147C77.735 16.0139 78.1055 16.5584 78.4129 17.1317L77.998 17.358C77.707 16.8139 77.3551 16.2977 76.9533 15.8239C75.4493 14.05 73.3505 12.9727 71.0438 12.7917C68.7371 12.6121 66.4982 13.3466 64.74 14.8636C62.9818 16.3812 61.9147 18.4988 61.7348 20.8263C61.717 21.0582 61.7081 21.2892 61.7081 21.5193C61.7081 23.5987 62.4342 25.5891 63.7887 27.1868C65.2927 28.9608 67.3915 30.0375 69.6982 30.219C72.0068 30.4005 74.2439 29.6646 76.002 28.1471C77.1953 27.117 78.0882 25.7829 78.5839 24.2884L79.0315 24.4398C78.5087 26.0158 77.5672 27.423 76.3085 28.5091C74.6391 29.9498 72.559 30.7225 70.3855 30.7225L70.385 30.722Z" fill="white"/>
<path d="M106.723 37.0692C106.696 37.0692 106.668 37.0621 106.643 37.047C106.568 37.0023 106.543 36.9052 106.588 36.8298C106.693 36.6497 106.795 36.4659 106.888 36.283C106.928 36.2052 107.023 36.1751 107.1 36.2147C107.177 36.2547 107.208 36.3504 107.168 36.4286C107.072 36.6167 106.968 36.8062 106.859 36.9914C106.829 37.0414 106.777 37.0692 106.723 37.0692H106.723Z" fill="#91B3FA"/>
<path d="M96.5708 42.3814C96.5666 42.3814 96.5624 42.3814 96.5582 42.3814C96.1316 42.3475 95.7027 42.2881 95.2845 42.2046C95.1995 42.1877 95.1439 42.1042 95.1607 42.018C95.1775 41.9322 95.2607 41.8761 95.3452 41.893C95.7522 41.9741 96.1685 42.0321 96.5829 42.0651C96.6693 42.0722 96.7343 42.1485 96.7273 42.2358C96.7207 42.3192 96.6521 42.3819 96.5708 42.3819V42.3814ZM98.628 42.348C98.549 42.348 98.4808 42.2881 98.4719 42.207C98.4621 42.1198 98.5243 42.0415 98.6107 42.0316C99.0247 41.985 99.4391 41.9133 99.8418 41.8185C99.9259 41.7978 100.011 41.8515 100.031 41.9373C100.05 42.0227 99.9979 42.108 99.9128 42.1278C99.4979 42.2254 99.0714 42.2989 98.6453 42.3475C98.6392 42.348 98.6336 42.3484 98.6275 42.3484L98.628 42.348ZM93.3427 41.613C93.3231 41.613 93.303 41.6092 93.2834 41.6012C92.8881 41.439 92.4975 41.2514 92.1228 41.043C92.0466 41.0006 92.019 40.904 92.0611 40.8276C92.1031 40.7508 92.1985 40.7229 92.2746 40.7654C92.6386 40.9676 93.018 41.1501 93.402 41.3075C93.4824 41.3405 93.5212 41.4334 93.4885 41.5145C93.4637 41.5762 93.4048 41.6135 93.3427 41.6135V41.613ZM101.828 41.4706C101.768 41.4706 101.711 41.4357 101.685 41.3768C101.649 41.2967 101.685 41.2029 101.764 41.167C102.143 40.9959 102.516 40.8003 102.873 40.5858C102.947 40.5405 103.044 40.5655 103.089 40.6404C103.133 40.7159 103.109 40.813 103.034 40.8582C102.668 41.0793 102.283 41.2806 101.893 41.457C101.872 41.4664 101.85 41.4706 101.829 41.4706H101.828ZM90.501 39.8909C90.4655 39.8909 90.4295 39.8786 90.4006 39.8541C90.0735 39.5788 89.7581 39.2799 89.4633 38.9659C89.4035 38.9023 89.4063 38.8019 89.4689 38.7415C89.532 38.6812 89.632 38.684 89.6913 38.7472C89.9777 39.0522 90.2842 39.3421 90.6019 39.6099C90.6688 39.666 90.6776 39.7659 90.622 39.8334C90.5912 39.8711 90.5463 39.8904 90.501 39.8904V39.8909ZM104.612 39.6514C104.569 39.6514 104.526 39.6335 104.495 39.5986C104.437 39.5331 104.443 39.4326 104.508 39.3747L104.6 39.2903C104.877 39.0357 105.143 38.7637 105.391 38.4827C105.449 38.4167 105.548 38.4111 105.613 38.4695C105.678 38.528 105.684 38.6279 105.626 38.6934C105.371 38.9829 105.097 39.2629 104.812 39.525L104.717 39.6113C104.687 39.6382 104.65 39.6514 104.613 39.6514H104.612ZM88.3079 37.381C88.256 37.381 88.2051 37.3551 88.1752 37.3079C87.9448 36.9449 87.7332 36.564 87.5463 36.1755C87.5084 36.0968 87.5411 36.0016 87.6192 35.9634C87.6977 35.9252 87.7916 35.9582 87.8294 36.0369C88.0107 36.4141 88.2163 36.7842 88.4401 37.1368C88.4868 37.2103 88.4658 37.3089 88.3924 37.356C88.3663 37.373 88.3368 37.381 88.3079 37.381Z" fill="#91B3FA"/>
<path d="M86.9702 34.3118C86.9006 34.3118 86.837 34.2646 86.8184 34.1935C86.7642 33.987 86.7151 33.7763 86.6731 33.5671C86.6558 33.4813 86.7104 33.3974 86.7959 33.3799C86.881 33.3625 86.9641 33.4176 86.9814 33.5039C87.0225 33.707 87.0702 33.9121 87.1225 34.1124C87.145 34.1972 87.095 34.284 87.0109 34.3066C86.9973 34.3103 86.9838 34.3118 86.9707 34.3118H86.9702Z" fill="#91B3FA"/>
<path d="M88.2658 25.6983C88.2373 25.6983 88.2083 25.6903 88.1822 25.6738C88.1088 25.6271 88.0869 25.5291 88.1331 25.4551C88.2462 25.2741 88.3658 25.0945 88.4887 24.9206C88.5391 24.8494 88.6377 24.8329 88.7078 24.8838C88.7788 24.9347 88.7947 25.0337 88.7442 25.1049C88.6246 25.2736 88.5083 25.4485 88.3985 25.6243C88.3686 25.6724 88.3177 25.6983 88.2653 25.6983H88.2658Z" fill="#91B3FA"/>
<path d="M107.373 27.242C107.312 27.242 107.254 27.2057 107.228 27.1454C107.069 26.7663 106.885 26.3925 106.683 26.0342C106.64 25.9583 106.666 25.8612 106.742 25.8178C106.817 25.7745 106.913 25.8009 106.956 25.8772C107.165 26.2459 107.353 26.631 107.518 27.0214C107.552 27.102 107.515 27.1953 107.434 27.2298C107.414 27.2382 107.394 27.2425 107.373 27.2425L107.373 27.242ZM105.657 24.4417C105.613 24.4417 105.568 24.4229 105.537 24.3861C105.457 24.2909 105.375 24.1971 105.291 24.1037C105.099 23.8916 104.896 23.6846 104.688 23.4885C104.625 23.4286 104.622 23.3282 104.681 23.2641C104.74 23.2 104.84 23.1967 104.903 23.2566C105.117 23.4583 105.325 23.6709 105.523 23.8897C105.609 23.9854 105.694 24.082 105.777 24.1801C105.833 24.247 105.825 24.347 105.759 24.404C105.729 24.4295 105.693 24.4417 105.657 24.4417ZM89.9432 23.6276C89.9016 23.6276 89.86 23.6111 89.8291 23.5785C89.7693 23.5149 89.7717 23.4145 89.8343 23.3541C89.8978 23.2929 89.9623 23.232 90.0277 23.1722C90.2735 22.9459 90.5323 22.7286 90.7968 22.5258C90.8659 22.4726 90.9645 22.4862 91.0168 22.556C91.0696 22.6258 91.0561 22.7253 90.9869 22.7781C90.73 22.9751 90.4786 23.1863 90.2398 23.406C90.1763 23.4645 90.1137 23.5239 90.0515 23.5833C90.0212 23.6125 89.9819 23.6271 89.9432 23.6271V23.6276ZM103.194 22.2816C103.166 22.2816 103.136 22.2736 103.11 22.2571C102.765 22.037 102.403 21.8347 102.035 21.6565C101.957 21.6183 101.924 21.5241 101.962 21.4449C101.999 21.3657 102.092 21.3322 102.171 21.3704C102.55 21.5538 102.922 21.7617 103.278 21.9884C103.351 22.0356 103.373 22.1331 103.327 22.2076C103.297 22.2552 103.246 22.2816 103.194 22.2816H103.194ZM92.612 21.7334C92.554 21.7334 92.4984 21.7013 92.4709 21.6452C92.4321 21.5665 92.4638 21.4713 92.5419 21.4326C92.918 21.244 93.3095 21.0757 93.7057 20.9315C93.788 20.9022 93.8777 20.9447 93.9071 21.0272C93.9365 21.1097 93.894 21.2007 93.8123 21.2304C93.4268 21.3704 93.0465 21.534 92.6816 21.7169C92.6591 21.7282 92.6353 21.7334 92.6115 21.7334H92.612ZM100.205 20.9649C100.191 20.9649 100.178 20.9631 100.164 20.9598C99.7699 20.8542 99.3648 20.7702 98.9602 20.7108C98.8742 20.6981 98.8144 20.6175 98.827 20.5312C98.8396 20.4445 98.9186 20.3823 99.005 20.3969C99.4213 20.4582 99.8381 20.544 100.245 20.6529C100.329 20.6755 100.379 20.7622 100.356 20.8471C100.338 20.9183 100.274 20.9649 100.204 20.9649H100.205ZM95.7199 20.7325C95.6438 20.7325 95.577 20.6769 95.5648 20.5986C95.5513 20.5119 95.6097 20.4308 95.6957 20.4171C96.1101 20.3511 96.5334 20.3082 96.9548 20.2903C97.0417 20.2884 97.1151 20.3544 97.1184 20.4421C97.1221 20.5298 97.0548 20.6038 96.9679 20.6071C96.5586 20.6246 96.1475 20.6661 95.7447 20.7302C95.7363 20.7316 95.7279 20.7321 95.7199 20.7321V20.7325Z" fill="#91B3FA"/>
<path d="M108.101 29.8178C108.025 29.8178 107.958 29.7617 107.946 29.6834C107.915 29.4784 107.877 29.2715 107.833 29.0688C107.815 28.983 107.869 28.8986 107.954 28.8803C108.04 28.8619 108.122 28.9166 108.141 29.0019C108.185 29.2107 108.224 29.4237 108.257 29.6344C108.271 29.7211 108.212 29.8022 108.126 29.8159C108.117 29.8173 108.109 29.8178 108.101 29.8178Z" fill="#91B3FA"/>
<path d="M105.721 31.1049C105.726 31.0493 105.695 30.9969 105.644 30.9748L104.196 30.3398C104.084 29.6043 103.855 28.8812 103.506 28.2014L104.305 26.8281C104.333 26.78 104.328 26.7192 104.292 26.6768L103.061 25.2243C103.025 25.1819 102.966 25.1673 102.915 25.1875L101.447 25.7716C100.835 25.3186 100.163 24.9782 99.4597 24.7529L99.0625 23.2108C99.0485 23.1566 99.0023 23.1175 98.9471 23.1132L97.0586 22.9647C97.0035 22.9605 96.9516 22.9921 96.9296 23.043L96.3003 24.5044C95.5714 24.6171 94.8552 24.8486 94.1809 25.2002L92.8199 24.3936C92.7722 24.3653 92.712 24.3705 92.6699 24.4068L91.2304 25.6495C91.1883 25.6858 91.1739 25.7452 91.194 25.7971L91.7728 27.2783C91.3238 27.8959 90.9865 28.5738 90.7632 29.2833L89.2349 29.684C89.1811 29.6981 89.1424 29.7448 89.1382 29.8004L88.991 31.706C88.9868 31.7616 89.0181 31.8139 89.0685 31.8361L90.5169 32.4711C90.6286 33.2065 90.858 33.9297 91.2066 34.6095L90.4071 35.9828C90.3791 36.0308 90.3842 36.0917 90.4202 36.1341L91.6518 37.5866C91.6878 37.629 91.7467 37.6436 91.7981 37.6233L93.2661 37.0392C93.8782 37.4923 94.5505 37.8326 95.2532 38.058L95.6504 39.6C95.6644 39.6542 95.7106 39.6934 95.7658 39.6976L97.6543 39.8461C97.7094 39.8504 97.7613 39.8188 97.7833 39.7679L98.4126 38.3064C99.1415 38.1933 99.8582 37.9623 100.532 37.6106L101.893 38.4172C101.941 38.4455 102.001 38.4403 102.043 38.404L103.483 37.1618C103.525 37.1255 103.539 37.0661 103.519 37.0142L102.94 35.533C103.389 34.9154 103.726 34.2371 103.95 33.528L105.478 33.1273C105.532 33.1132 105.571 33.0665 105.575 33.0109L105.721 31.1049Z" fill="#9FCBE4"/>
<path opacity="0.7" d="M97.3515 33.3405C96.9581 33.3405 96.575 33.2185 96.2475 32.9847C95.384 32.3682 95.1789 31.1582 95.7896 30.2877C96.0858 29.8658 96.5269 29.5854 97.0315 29.4982C97.5365 29.411 98.0449 29.5274 98.463 29.8258C98.8812 30.1246 99.1592 30.5691 99.2457 31.0786C99.3321 31.5881 99.2167 32.1009 98.9209 32.5228C98.6247 32.9446 98.1841 33.2251 97.679 33.3123C97.5697 33.3311 97.4604 33.3405 97.3515 33.3405ZM97.3576 29.9469C96.9039 29.9469 96.4568 30.1614 96.175 30.5625C95.7143 31.2191 95.869 32.1316 96.5199 32.5958C96.8352 32.8211 97.2193 32.9088 97.5991 32.8428C97.9799 32.7773 98.3126 32.5657 98.5355 32.248C98.7588 31.9298 98.8457 31.5429 98.7803 31.1592C98.7153 30.7751 98.5056 30.4395 98.1907 30.2146C97.9374 30.0336 97.6459 29.9469 97.3571 29.9469H97.3576Z" fill="white"/>
<path opacity="0.7" d="M97.3235 36.2563C97.1969 36.2563 97.0698 36.2511 96.9422 36.2412C95.662 36.1408 94.4977 35.543 93.6628 34.5587C92.889 33.6465 92.5106 32.5254 92.511 31.4091C92.511 30.0396 93.0811 28.6781 94.1912 27.7202C96.2049 25.9815 99.2457 26.2205 100.968 28.2529C100.982 28.2689 100.995 28.2849 101.009 28.301C101.195 28.5272 101.362 28.77 101.504 29.0241C101.504 29.0251 101.505 29.026 101.506 29.0269C101.508 29.0307 101.51 29.0345 101.512 29.0383C101.515 29.0449 101.519 29.0515 101.523 29.0581C101.525 29.0618 101.527 29.0656 101.529 29.0689C101.535 29.0802 101.542 29.092 101.548 29.1033L101.133 29.3296C100.987 29.0576 100.811 28.7993 100.61 28.5617C99.5097 27.2643 97.8141 26.7778 96.2732 27.1601C95.6377 27.318 95.0285 27.6235 94.4977 28.0813C93.4969 28.9454 92.9829 30.173 92.9825 31.4081C92.9825 32.4146 93.324 33.4259 94.0211 34.2485C95.5747 36.0809 98.3168 36.2969 100.133 34.7289C100.731 34.2136 101.177 33.5456 101.425 32.7979L101.873 32.9492C101.598 33.779 101.102 34.5191 100.44 35.0905C99.5615 35.8485 98.4668 36.2554 97.323 36.2554L97.3235 36.2563Z" fill="white"/>
<path d="M16.6276 63.9714C16.6276 63.9714 18.2447 64.0577 18.4428 67.4143C18.4428 67.4143 14.6933 70.8057 9.62857 71.6128C9.24825 71.6736 10.1603 68.994 10.2972 68.631C10.9494 66.9042 13.0034 65.7916 16.6276 63.9714Z" fill="url(#paint2_linear_679_4994)"/>
<path d="M34.8378 60.0251H31.4257C31.4257 60.0251 20.9528 48.3549 14.0841 47.1777C14.0841 47.1777 9.30292 53.336 14.3387 64.8422C14.7438 65.7676 15.8768 66.1791 16.722 65.6342C16.9748 65.4711 17.1565 65.2528 17.2663 64.9794L16.8613 55.1548C16.8613 55.1548 25.7946 63.038 27.3472 64.5593C28.8998 66.0806 36.7927 65.1533 34.8374 60.0246L34.8378 60.0251Z" fill="#007CBA"/>
<path d="M1.84974 84.5267C3.27946 83.2625 5.55766 81.8443 8.84694 81.438L9.95941 82.1243C9.95941 82.1243 9.25016 83.1796 7.95454 84.2943C6.76357 84.9919 4.92503 85.9369 3.40047 86.142C1.91842 86.3413 1.69976 85.4378 1.85021 84.5267H1.84974Z" fill="url(#paint3_linear_679_4994)"/>
<path d="M10.2977 68.6307C11.1784 68.9182 11.5662 70.1772 13.8014 69.3448C15.9637 68.5393 17.5715 67.5004 18.3984 66.9014C18.4167 67.0635 18.4326 67.2332 18.4433 67.4142C18.4433 67.4142 14.4901 71.2075 9.42534 72.0144C9.04502 72.0753 8.74365 71.6921 8.88102 71.3291C9.12678 70.6782 9.57018 69.6903 10.2981 68.6302L10.2977 68.6307Z" fill="#91B3FA"/>
<path d="M0.772302 85.6064C1.05404 85.2831 1.41381 84.9121 1.84926 84.5271C1.69881 85.4381 1.91701 86.3417 3.39952 86.1423C4.92409 85.9373 6.76309 84.9923 7.95359 84.2947C6.46126 85.5786 4.19007 86.9417 1.32363 86.8616C0.686799 86.8437 0.351329 86.0886 0.771834 85.6064H0.772302Z" fill="#91B3FA"/>
<path d="M34.7131 62.5161L18.7344 62.6905C18.7344 62.6905 9.60943 70.3079 7.95405 81.9234C7.95405 81.9234 7.67932 82.7776 9.32863 82.9237C9.32863 82.9237 14.8457 79.2881 18.4428 72.8602C22.8535 64.9788 31.592 68.5263 31.592 68.5263C35.7901 69.4612 39.1317 69.1133 41.5767 65.3164L34.7126 62.5151L34.7131 62.5161Z" fill="#007CBA"/>
<path d="M34.3356 49.5283C34.3356 49.5283 32.6152 58.2266 24.1874 61.6676L21.1892 61.3112L20.4818 62.4492L27.5141 62.6755C27.5141 62.6755 33.5254 60.2731 36.71 53.7273C36.8152 53.511 38.5691 49.8574 34.3351 49.5288L34.3356 49.5283Z" fill="url(#paint4_linear_679_4994)"/>
<path d="M33.4138 62.3739C33.4138 62.3739 35.37 57.009 35.7901 51.796C35.7901 51.796 34.359 50.5552 33.4647 50.0196C33.175 49.8462 33.0657 49.4794 33.2119 49.1734C33.8698 47.7987 37.8464 42.4018 38.1444 42.3264C39.7639 41.9186 46.4046 38.7327 51.0815 45.188C53.0887 47.9581 50.6834 56.4858 41.5772 65.3175C38.6472 65.7988 35.9069 64.947 33.4138 62.3739Z" fill="#FF6E01"/>
<path d="M40.951 52.9712C40.951 52.9712 35.5162 59.4642 28.5681 60.4132C28.5681 60.4132 26.7726 58.7613 25.4372 59.351C24.1019 59.9408 22.2708 62.544 22.2708 62.544H31.1925C31.1925 62.544 39.6283 62.2442 43.8436 57.083C43.5044 55.2769 42.4887 54.1983 40.951 52.9717V52.9712Z" fill="url(#paint5_linear_679_4994)"/>
<path d="M44.1217 37.7727L45.3108 41.7734C45.3654 41.9568 45.2981 42.1552 45.1416 42.2636C44.5693 42.6591 43.0727 43.4457 41.0202 42.6812C40.7857 42.594 40.6245 42.3725 40.6044 42.1208L40.3226 38.6352L44.1221 37.7722L44.1217 37.7727Z" fill="url(#paint6_linear_679_4994)"/>
<path d="M37.1586 34.5316C37.1586 34.5316 37.7431 38.6797 39.3223 39.9554C40.9015 41.2311 43.9787 40.2703 45.0178 37.1433L42.9471 31.7964L37.1586 34.5316Z" fill="url(#paint7_linear_679_4994)"/>
<path d="M43.1807 35.2568C43.0606 35.2959 42.9349 35.2181 42.9162 35.0922C42.8592 34.7094 42.7167 33.9514 42.4289 33.4352C42.4289 33.4352 42.5798 32.8911 41.0655 33.7133C39.5517 34.5355 37.2777 35.7433 35.9391 35.0239C34.6342 34.3229 33.3119 30.7942 36.7614 31.4476C36.8927 31.4726 37.0133 31.367 37.0035 31.2327C36.961 30.6528 37.018 29.3187 38.357 28.8901C39.6101 28.4894 40.296 29.0603 40.5787 29.4045C40.6619 29.5058 40.816 29.5039 40.8955 29.3993C41.2707 28.9047 42.2901 27.8525 43.7909 28.5196C45.0272 29.0693 45.2192 29.8377 45.1986 30.3162C45.1921 30.4713 45.3482 30.5764 45.4879 30.5114C45.8663 30.3355 46.4756 30.2441 47.0587 30.9814C47.8651 32.0011 46.7129 32.885 46.3672 33.117C46.3106 33.1551 46.2751 33.2178 46.2747 33.2867C46.2714 33.817 46.1896 36.1294 45.0407 37.4343C44.9412 37.5474 44.7576 37.514 44.6996 37.3749L43.8152 35.2483C43.7741 35.1498 43.6652 35.0988 43.5638 35.1318L43.1797 35.2568H43.1807Z" fill="url(#paint8_linear_679_4994)"/>
<path d="M43.162 35.6883C43.162 35.6883 43.7021 33.4693 44.5226 34.1895C45.343 34.9097 44.3086 36.4957 43.369 36.7983L43.162 35.6883Z" fill="url(#paint9_linear_679_4994)"/>
<path d="M22.7203 63.0481L18.7148 49.569C18.5513 49.0193 18.0672 48.629 17.4995 48.5898L12.0914 48.2165C11.5415 48.1787 11.1326 48.7204 11.3153 49.2451L15.7932 62.1175C15.9376 62.5323 16.3062 62.8251 16.7398 62.8694L22.0658 63.4662L22.7208 63.0485L22.7203 63.0481Z" fill="url(#paint10_linear_679_4994)"/>
<path d="M15.3325 54.1372C15.6315 54.7462 16.1483 55.103 16.4861 54.9342C16.8239 54.7655 16.8557 54.1349 16.5567 53.5259C16.2576 52.9169 15.7413 52.5601 15.4031 52.7289C15.0653 52.8976 15.0335 53.5282 15.3325 54.1372Z" fill="#91B3FA"/>
<path d="M22.0652 63.4652C22.0741 63.4652 22.0825 63.4652 22.0914 63.4643L33.4394 62.8855C33.7198 62.8713 33.9361 62.6305 33.9216 62.3472C33.9076 62.0639 33.6674 61.8415 33.388 61.8608L22.04 62.4396C21.7597 62.4537 21.5438 62.6951 21.5578 62.9779C21.5714 63.2522 21.7961 63.4652 22.0652 63.4652Z" fill="url(#paint11_linear_679_4994)"/>
<path d="M35.7901 51.8751C35.7466 51.8751 35.7116 51.8398 35.7116 51.7959C35.7037 49.3789 36.6255 46.1798 36.6348 46.1478C36.647 46.1058 36.6904 46.0818 36.7325 46.094C36.7741 46.1063 36.7979 46.1506 36.7858 46.1925C36.7764 46.2241 35.8611 49.4016 35.8691 51.7955C35.8691 51.8393 35.834 51.8751 35.7906 51.8751H35.7901Z" fill="url(#paint12_linear_679_4994)"/>
<path d="M40.9511 53.0507C40.9342 53.0507 40.917 53.0451 40.9025 53.0338C40.8684 53.0064 40.8628 52.9569 40.8894 52.9225C40.9142 52.8909 43.3806 49.7267 44.2249 47.5685C44.2408 47.5279 44.2861 47.5067 44.3268 47.5237C44.367 47.5397 44.3871 47.5859 44.3712 47.6265C43.5185 49.8068 41.0375 52.989 41.0127 53.0206C40.9973 53.0404 40.974 53.0507 40.9511 53.0507Z" fill="url(#paint13_linear_679_4994)"/>
<path d="M44.4478 57.9156L43.9992 57.2754C43.974 57.2395 43.9824 57.19 44.0179 57.1646C44.0534 57.1391 44.1025 57.1476 44.1277 57.1834L44.5029 57.719C48.0029 56.1708 50.1699 51.9459 50.1914 51.9034C50.211 51.8643 50.2582 51.8487 50.297 51.869C50.3358 51.8888 50.3512 51.9369 50.3311 51.976C50.3091 52.0194 48.0936 56.341 44.5062 57.891L44.4478 57.9165V57.9156Z" fill="url(#paint14_linear_679_4994)"/>
<path d="M89.8223 100.322C71.6914 89.6364 71.7103 85.5451 71.7216 81.9349V60.2367C75.3657 58.8105 83.3242 56.0227 89.826 56.0227C96.3278 56.0227 104.283 58.8095 107.917 60.2367V81.9254C107.93 85.5451 107.944 89.6364 89.826 100.322" fill="url(#paint15_linear_679_4994)"/>
<path d="M109.954 81.2827V59.0948C109.954 59.0948 98.8315 53.9604 89.8222 53.9604C80.813 53.9604 69.6815 59.0948 69.6815 59.0948V81.2827C69.6815 85.9274 69.1151 90.8744 89.8222 102.985C110.519 90.8744 109.954 85.9283 109.954 81.2827ZM89.8213 99.6617C72.5118 89.336 72.5232 85.2628 72.5383 81.664V60.9888C75.8548 59.6301 83.5083 56.8176 89.8213 56.8176C96.1343 56.8176 103.786 59.6301 107.098 60.9888V72.8576C102.741 73.624 98.3334 74.0569 93.9119 74.1526C93.8969 70.7197 93.4786 67.3006 92.6658 63.9667H87.6622C88.4154 67.3042 88.787 70.7176 88.7696 74.1403C84.8987 73.9933 81.0451 73.5409 77.2444 72.7873V77.5518C81.0179 78.3955 84.8703 78.8287 88.7356 78.8439C88.6547 82.293 88.3371 85.7323 87.7849 89.1373H92.7885C93.4574 85.7431 93.827 82.296 93.8931 78.8363C98.3178 78.7254 102.73 78.3182 107.101 77.6174V81.6668C107.107 85.2656 107.128 89.3312 89.8251 99.6646" fill="#F1ECEC"/>
</g>
<defs>
<linearGradient id="paint0_linear_679_4994" x1="61.1797" y1="124.702" x2="44.1569" y2="74.0892" gradientUnits="userSpaceOnUse">
<stop stop-color="#09005D"/>
<stop offset="1" stop-color="#1A0F91"/>
</linearGradient>
<linearGradient id="paint1_linear_679_4994" x1="22.2055" y1="121.674" x2="96.8633" y2="139.676" gradientUnits="userSpaceOnUse">
<stop stop-color="#09005D"/>
<stop offset="1" stop-color="#1A0F91"/>
</linearGradient>
<linearGradient id="paint2_linear_679_4994" x1="14.9937" y1="67.1621" x2="9.07761" y2="73.2863" gradientUnits="userSpaceOnUse">
<stop stop-color="#09005D"/>
<stop offset="1" stop-color="#1A0F91"/>
</linearGradient>
<linearGradient id="paint3_linear_679_4994" x1="7.21819" y1="82.6668" x2="-3.93743" y2="90.7828" gradientUnits="userSpaceOnUse">
<stop stop-color="#09005D"/>
<stop offset="1" stop-color="#1A0F91"/>
</linearGradient>
<linearGradient id="paint4_linear_679_4994" x1="25.1317" y1="52.3211" x2="32.7378" y2="61.2861" gradientUnits="userSpaceOnUse">
<stop stop-color="#FEBBBA"/>
<stop offset="1" stop-color="#FF928E"/>
</linearGradient>
<linearGradient id="paint5_linear_679_4994" x1="33.9085" y1="60.539" x2="18.6864" y2="39.9001" gradientUnits="userSpaceOnUse">
<stop stop-color="#FEBBBA"/>
<stop offset="1" stop-color="#FF928E"/>
</linearGradient>
<linearGradient id="paint6_linear_679_4994" x1="43.1129" y1="43.3269" x2="42.5491" y2="38.296" gradientUnits="userSpaceOnUse">
<stop stop-color="#FEBBBA"/>
<stop offset="1" stop-color="#FF928E"/>
</linearGradient>
<linearGradient id="paint7_linear_679_4994" x1="40.1568" y1="38.9376" x2="42.6403" y2="30.8206" gradientUnits="userSpaceOnUse">
<stop stop-color="#FEBBBA"/>
<stop offset="1" stop-color="#FF928E"/>
</linearGradient>
<linearGradient id="paint8_linear_679_4994" x1="42.3612" y1="24.0108" x2="40.0502" y2="37.0742" gradientUnits="userSpaceOnUse">
<stop stop-color="#09005D"/>
<stop offset="1" stop-color="#1A0F91"/>
</linearGradient>
<linearGradient id="paint9_linear_679_4994" x1="42.6873" y1="39.7107" x2="45.1694" y2="31.595" gradientUnits="userSpaceOnUse">
<stop stop-color="#FEBBBA"/>
<stop offset="1" stop-color="#FF928E"/>
</linearGradient>
<linearGradient id="paint10_linear_679_4994" x1="22.7203" y1="55.8404" x2="11.2709" y2="55.8404" gradientUnits="userSpaceOnUse">
<stop stop-color="#09005D"/>
<stop offset="1" stop-color="#1A0F91"/>
</linearGradient>
<linearGradient id="paint11_linear_679_4994" x1="21.3308" y1="60.8903" x2="30.4967" y2="63.3804" gradientUnits="userSpaceOnUse">
<stop stop-color="#09005D"/>
<stop offset="1" stop-color="#1A0F91"/>
</linearGradient>
<linearGradient id="paint12_linear_679_4994" x1="38.2776" y1="17.2935" x2="34.6752" y2="72.2801" gradientUnits="userSpaceOnUse">
<stop stop-color="#E1473D"/>
<stop offset="1" stop-color="#E9605A"/>
</linearGradient>
<linearGradient id="paint13_linear_679_4994" x1="44.7207" y1="17.7158" x2="41.1182" y2="72.7018" gradientUnits="userSpaceOnUse">
<stop stop-color="#E1473D"/>
<stop offset="1" stop-color="#E9605A"/>
</linearGradient>
<linearGradient id="paint14_linear_679_4994" x1="49.5144" y1="18.0299" x2="45.912" y2="73.0164" gradientUnits="userSpaceOnUse">
<stop stop-color="#E1473D"/>
<stop offset="1" stop-color="#E9605A"/>
</linearGradient>
<linearGradient id="paint15_linear_679_4994" x1="89.8195" y1="56.7758" x2="89.8195" y2="93.2345" gradientUnits="userSpaceOnUse">
<stop stop-color="#E76B1F"/>
<stop offset="1" stop-color="#DB501A"/>
</linearGradient>
<clipPath id="clip0_679_4994">
<rect width="130" height="132" fill="white"/>
</clipPath>
</defs>
</svg>
