<svg width="152" height="153" viewBox="0 0 152 153" fill="none" xmlns="http://www.w3.org/2000/svg">
<g clip-path="url(#clip0_679_5082)">
<path d="M17.2409 67.4068L23.379 67.0837C25.0785 69.3984 27.1598 71.4692 29.579 73.1882C29.4011 79.0794 28.9716 79.4801 29.5839 79.7336L36.4308 82.5695C36.6309 82.652 36.8602 82.6015 37.0012 82.4435L41.0321 77.9315C43.955 78.4251 46.8849 78.43 49.7162 77.9918L53.8419 82.5662C53.9867 82.7264 54.2166 82.7802 54.4151 82.7004L61.2056 79.9638C61.4041 79.884 61.5272 79.6875 61.512 79.4752L61.0776 73.4136C63.3948 71.7771 65.4577 69.7594 67.1588 67.403L73.3002 67.8151C73.5155 67.8298 73.714 67.7076 73.7948 67.5121L76.5512 60.806C76.632 60.61 76.5767 60.383 76.4135 60.2408L71.7688 56.186C72.2184 53.3104 72.1728 50.4197 71.6788 47.6191C76.055 43.6278 76.6277 43.6648 76.3706 43.0653C73.4174 36.4971 73.6495 35.9721 72.977 36.0074L66.8389 36.3304C65.1394 34.0158 63.0581 31.9449 60.6389 30.2259C60.8168 24.3381 61.2468 23.9341 60.6341 23.6805C53.7828 20.9799 53.6494 20.4852 53.2161 20.9706L49.1853 25.4826C46.2624 24.9891 43.3324 24.9836 40.5012 25.4224C36.4286 21.089 36.415 20.4673 35.8028 20.7138C29.131 23.5405 28.6593 23.2842 28.7059 23.939L29.1403 30.0006C26.8231 31.6371 24.7602 33.6547 23.0591 36.0117C17.1883 35.7386 16.6742 35.2901 16.4226 35.9026C13.8153 42.5859 13.3017 42.7352 13.8039 43.1739L18.4486 47.2293C17.999 50.1043 18.0451 52.995 18.5386 55.7961C14.1775 59.7738 13.5886 59.7478 13.8467 60.3499C16.8 66.9181 16.5679 67.4432 17.2403 67.4079L17.2409 67.4068Z" fill="#9FCBE4"/>
<path d="M37.9779 50.6261C38.5137 46.7569 42.1486 44.0937 46.0807 44.6899C50.0123 45.2871 52.7758 48.9185 52.2406 52.7876C51.7048 56.6567 48.0698 59.3199 44.1377 58.7243C40.2045 58.1281 37.4427 54.4947 37.9779 50.6266V50.6261ZM44.2245 58.0967L44.2283 58.0983L44.2245 58.0967ZM45.9072 45.9436C42.7159 45.4598 39.6991 47.5936 39.2528 50.8188C38.8125 53.9968 41.082 56.9809 44.3113 57.4695C47.5406 57.9587 50.5259 55.7717 50.9662 52.5943C51.4071 49.412 49.1311 46.4317 45.9072 45.9441V45.9436Z" fill="#BDD0FB"/>
<path d="M37.6628 68.0991C36.6932 67.6517 35.7621 67.1245 34.8879 66.5256C34.6249 66.3459 34.5354 66.0109 34.6613 65.7367C34.6764 65.7041 34.6943 65.6721 34.7155 65.6417C34.9145 65.355 35.3153 65.2866 35.6086 65.4869C36.614 66.1754 37.7008 66.7629 38.8374 67.2342C47.4001 70.7808 57.1401 67.0295 60.8976 58.8666C60.9936 58.6581 61.0852 58.4469 61.1736 58.2325C64.7299 49.5793 60.4247 39.6724 51.6587 36.0389C42.904 32.413 32.8739 36.412 29.323 45.0407C27.2124 50.1776 28.4825 53.8155 28.2401 54.3427C27.9781 54.9122 27.1181 54.7825 27.0183 54.1613C26.4738 50.7673 26.9017 47.1789 28.4266 43.8652C35.0072 29.5685 55.9487 30.1532 62.2256 44.7947C64.1573 49.3007 64.2077 54.2482 62.3672 58.7271C62.2723 58.9589 62.1725 59.1881 62.0684 59.4145C60.1606 63.5605 56.7811 66.7727 52.4813 68.5058C47.9467 70.3334 42.9311 70.2965 38.3586 68.4026C38.1254 68.306 37.8933 68.2045 37.6644 68.0986L37.6628 68.0991Z" fill="#BDD0FB"/>
<path d="M95.6164 55.9407C95.6001 55.7404 95.3957 55.5672 95.0497 55.4276C95.4261 55.2197 95.6338 54.9976 95.6164 54.7788C95.5633 54.118 93.4738 53.7477 90.9495 53.9519C88.4252 54.1555 86.4219 54.8564 86.4751 55.5167C86.4914 55.717 86.6958 55.8902 87.0418 56.0298C86.6654 56.2377 86.4577 56.4598 86.4751 56.6781C86.4914 56.8784 86.6958 57.0516 87.0418 57.1912C86.6654 57.3986 86.4577 57.6212 86.4751 57.8395C86.4914 58.0398 86.6958 58.213 87.0418 58.3526C86.6654 58.5605 86.4577 58.7826 86.4751 59.0014C86.4984 59.2935 86.9209 59.5286 87.6025 59.6828C87.5938 59.8989 87.5987 60.1351 87.6199 60.3968C87.7186 61.6141 89.0862 62.5687 90.8947 62.5687C92.7032 62.5687 94.2688 61.2672 94.2867 60.0461C94.2911 59.7469 94.2786 59.4836 94.2515 59.2495C95.117 58.9601 95.6441 58.6067 95.6164 58.2641C95.6001 58.0637 95.3957 57.8905 95.0497 57.7515C95.4261 57.5441 95.6338 57.3215 95.6164 57.1027C95.6001 56.9023 95.3957 56.7291 95.0497 56.5901C95.4261 56.3827 95.6338 56.1601 95.6164 55.9413V55.9407Z" fill="url(#paint0_linear_679_5082)"/>
<path d="M89.7814 59.9453C89.0319 59.9453 88.3459 59.8899 87.7792 59.7814C87.7462 59.7749 87.725 59.7434 87.731 59.7103C87.7375 59.6771 87.7689 59.656 87.802 59.6619C88.6887 59.8319 89.8736 59.8693 91.1371 59.7673C92.1712 59.6837 93.1387 59.517 93.9342 59.2841C93.9662 59.2749 93.9998 59.2933 94.0096 59.3254C94.0188 59.3574 94.0003 59.3911 93.9684 59.4008C93.1647 59.6353 92.1891 59.8042 91.1468 59.8883C90.6772 59.9263 90.2184 59.9448 89.7814 59.9448V59.9453Z" fill="url(#paint1_linear_679_5082)"/>
<path d="M89.7944 58.7828C88.8204 58.7828 87.9501 58.691 87.3362 58.5162C87.3042 58.507 87.2852 58.4733 87.2944 58.4413C87.3037 58.4093 87.3373 58.3903 87.3693 58.3995C88.244 58.6487 89.6528 58.7263 91.1376 58.6063C92.6061 58.488 93.9759 58.1894 94.8018 57.8083C94.8322 57.7942 94.8686 57.8078 94.8821 57.8382C94.8962 57.8686 94.8827 57.9044 94.8523 57.9185C94.0145 58.3056 92.6295 58.608 91.1474 58.7274C90.6848 58.7648 90.2293 58.7828 89.7944 58.7828Z" fill="url(#paint2_linear_679_5082)"/>
<path d="M89.7819 57.6222C88.7304 57.6222 87.8102 57.5147 87.1903 57.31C87.1583 57.2997 87.1415 57.265 87.1518 57.2335C87.1621 57.2014 87.1963 57.1841 87.2283 57.1949C88.0905 57.4794 89.5514 57.5728 91.1371 57.4452C92.6056 57.3268 93.9754 57.0283 94.8013 56.6472C94.8317 56.6331 94.868 56.6466 94.8816 56.677C94.8957 56.7074 94.8821 56.7433 94.8517 56.7574C94.0139 57.1444 92.6284 57.4468 91.1468 57.5662C90.6772 57.6042 90.2179 57.6227 89.7814 57.6227L89.7819 57.6222Z" fill="url(#paint3_linear_679_5082)"/>
<path d="M89.7901 56.4606C88.956 56.4606 88.1974 56.3933 87.6074 56.2619C87.5748 56.2548 87.5542 56.2222 87.5613 56.1897C87.5683 56.1571 87.6008 56.1365 87.6334 56.1435C88.5206 56.3406 89.7976 56.3922 91.1376 56.2836C92.5931 56.1663 93.9559 55.871 94.7829 55.4943C94.8132 55.4802 94.849 55.4943 94.8631 55.5241C94.8772 55.5545 94.8631 55.5904 94.8333 55.6045C93.9944 55.9866 92.6164 56.2858 91.1474 56.4046C90.6832 56.4421 90.2266 56.4606 89.7901 56.4606Z" fill="url(#paint4_linear_679_5082)"/>
<path d="M84.7815 50.0777C84.4751 48.9907 83.954 47.9743 83.2528 47.0893C81.7501 45.1933 79.2985 41.3366 78.997 36.0737C78.5583 28.418 85.339 24.5852 91.527 25.1059C97.715 25.6261 103.821 30.2396 103.153 37.3616C102.741 41.7438 100.291 45.0679 98.4677 46.9769C97.3094 48.1888 96.4835 49.6738 96.0361 51.2902C95.489 53.2687 94.1864 55.7349 91.0899 55.8853C87.0835 56.0796 85.4198 52.3408 84.7815 50.0783V50.0777Z" fill="url(#paint5_linear_679_5082)"/>
<path d="M92.1132 54.3584L94.2786 40.2588C94.3231 39.9678 94.4668 39.7718 94.5985 39.8217C94.7303 39.8717 94.8008 40.1486 94.7563 40.4396C94.7553 40.4472 94.7536 40.457 94.752 40.4646L92.2857 54.4334C92.2673 54.5381 92.2141 54.6049 92.1669 54.5816C92.1214 54.5593 92.0981 54.46 92.1138 54.3584H92.1132Z" fill="url(#paint6_linear_679_5082)"/>
<path d="M89.8654 54.4702L87.7001 40.3706C87.6551 40.0796 87.5119 39.8836 87.3801 39.9336C87.2484 39.9835 87.1773 40.2604 87.2223 40.5514C87.2234 40.559 87.225 40.5688 87.2267 40.5764L89.693 54.5452C89.7114 54.65 89.7646 54.7167 89.8117 54.6934C89.8573 54.6711 89.8806 54.5718 89.8649 54.4702H89.8654Z" fill="url(#paint7_linear_679_5082)"/>
<path d="M94.2629 39.0476C94.2081 38.9591 94.0807 38.926 93.9787 38.9738L92.7732 39.5378L92.3546 38.3441C92.3323 38.2816 92.2813 38.2268 92.2081 38.1964C92.0693 38.1394 91.9034 38.1904 91.8378 38.311L91.8356 38.3148L90.8443 40.1246L89.924 37.5488L89.9224 37.5444C89.8996 37.4815 89.8525 37.425 89.783 37.387C89.629 37.3029 89.4251 37.343 89.3281 37.4766L87.942 39.3869C87.8856 39.4651 87.9051 39.5698 87.9908 39.6279C88.0824 39.6898 88.2142 39.6752 88.2858 39.5959L89.5065 38.2333L90.6051 40.6838L90.6062 40.6854C90.6241 40.7245 90.6572 40.7587 90.7033 40.7804C90.8063 40.8287 90.9349 40.7956 90.9907 40.706L92.0509 39.0026L92.45 39.8641L92.4533 39.8717C92.456 39.8776 92.4592 39.8842 92.463 39.8901C92.5178 39.9786 92.6452 40.0117 92.7472 39.964L94.1783 39.2946C94.2802 39.2468 94.3182 39.1366 94.2634 39.0482L94.2629 39.0476Z" fill="white"/>
<path d="M98.5143 45.1588C98.4574 45.1588 98.3999 45.1414 98.3505 45.1045C98.2285 45.0138 98.203 44.8417 98.2936 44.7196C98.6624 44.2223 99.0002 43.7088 99.2979 43.1925C99.3738 43.0612 99.5419 43.0161 99.6732 43.0921C99.8044 43.1681 99.85 43.3364 99.7735 43.4678C99.4655 44.0019 99.1157 44.5339 98.7345 45.048C98.6808 45.1208 98.5978 45.1593 98.5138 45.1593L98.5143 45.1588Z" fill="white"/>
<path d="M100.296 42.0985C100.259 42.0985 100.222 42.0909 100.186 42.0757C100.047 42.0149 99.9828 41.8531 100.044 41.7135C102.331 36.4381 100.358 32.0103 100.338 31.9658C100.275 31.8278 100.335 31.6644 100.473 31.6009C100.611 31.5379 100.775 31.5982 100.837 31.7361C100.924 31.925 102.932 36.4338 100.547 41.9323C100.502 42.036 100.401 42.0979 100.295 42.0979L100.296 42.0985Z" fill="white"/>
<path d="M54.5236 142.402C54.5236 142.402 54.1662 144.319 53.9824 146.219C53.9103 146.961 54.4764 147.612 55.2204 147.65C57.7486 147.78 63.1557 148.037 65.0976 147.969C65.3894 147.958 65.583 147.661 65.4778 147.388C65.3894 147.16 65.2169 146.974 64.9951 146.869L56.0989 142.672L54.5236 142.402Z" fill="url(#paint8_linear_679_5082)"/>
<path d="M54.2568 141.271L54.5074 143.57C54.5074 143.57 56.0659 144.314 57.1423 143.503L56.5187 140.937L54.2568 141.271Z" fill="url(#paint9_linear_679_5082)"/>
<path d="M54.8734 98.0786C54.7503 98.6775 53.9569 128.013 56.9639 141.192C57.0127 141.407 56.9021 141.627 56.6977 141.708C56.2156 141.9 55.2709 142.176 54.1419 142.203C53.7921 142.212 53.4808 141.981 53.3854 141.644C52.5188 138.585 48.3741 123.259 47.9538 108.653C47.4837 92.3314 47.9593 108.097 47.9593 108.097L48.4224 98.0156L54.874 98.0786H54.8734Z" fill="url(#paint10_linear_679_5082)"/>
<path d="M44.2354 143.306C44.2354 143.306 43.6866 144.27 43.14 146.841C43.0413 147.305 43.3618 147.754 43.833 147.805C44.667 147.895 45.9517 148.013 46.9815 148.016C47.456 148.017 47.8307 147.607 47.7781 147.135C47.6729 146.194 47.3324 144.648 46.2462 143.434L44.2354 143.306V143.306Z" fill="url(#paint11_linear_679_5082)"/>
<path d="M43.7902 140.346L44.3932 143.826C44.3932 143.826 45.0179 144.3 46.2652 143.972L45.9973 140.232L43.7902 140.346Z" fill="url(#paint12_linear_679_5082)"/>
<path d="M42.4665 98.8604C39.7572 114.316 42.6574 137.127 43.6665 141.595C43.7284 141.869 43.9464 142.08 44.2224 142.128C44.6909 142.211 45.4631 142.281 46.2272 142.068C46.4902 141.994 46.6773 141.759 46.6903 141.485C46.8655 137.881 46.8227 115.75 49.2933 107.027C49.4186 106.585 49.6924 106.201 50.0693 105.938L54.7341 102.684L55.1402 97.3569L42.4676 98.8598L42.4665 98.8604Z" fill="url(#paint13_linear_679_5082)"/>
<path d="M59.0702 69.684C51.3941 69.4837 42.9025 71.548 42.9025 71.548C40.4866 84.8962 42.2279 100.335 42.2279 100.335C48.1567 101.953 54.8853 99.5018 54.8853 99.5018C55.9265 93.9229 60.6856 78.2395 60.6856 78.2395C64.441 77.8094 67.5418 76.755 70.1003 75.3466C68.1806 73.0754 67.2928 70.1998 66.9116 68.5015C64.1893 69.3202 61.4378 69.7448 59.0702 69.6835V69.684Z" fill="#FF6E01"/>
<path d="M81.8559 58.5783C81.1103 57.6591 80.1515 58.0815 80.1515 58.0815C78.9764 62.8492 73.015 66.6668 66.9111 68.5026C67.2923 70.2009 68.18 73.0764 70.0997 75.3477C80.2546 69.7579 81.8554 58.5783 81.8554 58.5783H81.8559Z" fill="url(#paint14_linear_679_5082)"/>
<path d="M81.671 58.8084C81.7475 59.0604 80.8299 59.4339 80.3018 58.4017C80.2877 57.9093 80.0089 55.7972 80.3066 55.3986C81.8917 53.2773 84.9519 50.6282 84.9519 50.6282C85.46 51.1396 85.0327 51.6332 85.0327 51.6332L83.5463 53.1546C83.8488 53.7144 84.2198 54.1884 84.3895 54.8638C84.518 55.3753 84.4313 55.9199 84.1693 56.3819C83.9063 56.8456 83.5484 57.4478 83.2106 57.919C82.5712 58.8106 81.6716 58.8084 81.6716 58.8084H81.671Z" fill="url(#paint15_linear_679_5082)"/>
<path d="M82.8923 54.1443L81.5398 55.2697L81.1076 56.3988L82.2909 57.7386C82.2909 57.7386 82.7144 55.4939 83.0181 55.0097C83.3218 54.526 83.1688 54.2893 82.8917 54.1438L82.8923 54.1443Z" fill="url(#paint16_linear_679_5082)"/>
<path d="M45.776 79.0195L42.9025 71.5483C42.9025 71.5483 35.6846 76.3584 34.4466 82.5324C35.8007 82.6454 38.2627 83.0216 40.665 84.265C41.223 81.3493 45.7766 79.0195 45.7766 79.0195H45.776Z" fill="#FF6E01"/>
<path d="M51.9765 86.0834C51.9765 86.0834 43.8818 90.5623 41.2018 86.6465C40.6455 85.8331 40.5186 85.029 40.6644 84.2651C38.2626 83.0217 35.8001 82.6454 34.446 82.5325C34.0729 84.3937 34.2416 86.3788 35.3169 88.3937C39.9925 97.1549 53.0226 88.081 53.0226 88.081L51.976 86.0834H51.9765Z" fill="url(#paint17_linear_679_5082)"/>
<path d="M51.3534 63.3692L48.8432 70.419C48.8014 70.5357 48.8486 70.666 48.9565 70.7269C49.6186 71.102 52.0079 72.1901 54.9162 70.3826C55.2193 70.1942 55.427 69.8842 55.4764 69.5307L56.3256 63.4164L51.3534 63.3687V63.3692Z" fill="url(#paint18_linear_679_5082)"/>
<path d="M56.7307 56.8694C56.7307 56.8694 59.3652 61.951 59.0018 63.9898C58.6385 66.0286 55.3154 65.8505 52.4282 64.1641L50.4516 58.6856L56.7307 56.8694Z" fill="url(#paint19_linear_679_5082)"/>
<path d="M52.5822 61.4846C52.7004 61.4335 52.7454 61.2891 52.676 61.1805C52.464 60.8498 52.0676 60.1755 51.945 59.5869C51.945 59.5869 51.4656 59.2731 53.1793 58.8794C54.8929 58.4858 57.4481 57.8744 57.998 56.4225C58.5338 55.007 57.1954 51.4213 54.978 54.2469C54.8934 54.3544 54.7302 54.3555 54.6483 54.2458C54.2937 53.7745 53.3593 52.7945 52.0432 53.3706C50.8116 53.9097 50.6647 54.8083 50.6772 55.2617C50.681 55.3953 50.5606 55.4979 50.4299 55.4713C49.8111 55.3469 48.3242 55.2313 47.6149 56.7527C47.0308 58.0058 47.3958 58.722 47.7309 59.0738C47.8394 59.1878 47.7895 59.3735 47.6387 59.4181C47.2298 59.5391 46.7006 59.8801 46.744 60.8363C46.8042 62.1584 48.2808 62.0563 48.7016 61.9998C48.7705 61.9906 48.8399 62.015 48.886 62.0672C49.2423 62.4695 50.8496 64.1798 52.6039 64.4013C52.7557 64.4204 52.875 64.271 52.8268 64.1255L52.0876 61.9059C52.0535 61.8027 52.1034 61.6903 52.2032 61.6475L52.5817 61.484L52.5822 61.4846Z" fill="url(#paint20_linear_679_5082)"/>
<path d="M52.8848 61.8015C52.8848 61.8015 50.9874 60.4715 50.8372 61.5746C50.6869 62.6777 52.5416 63.1912 53.4667 62.7879L52.8848 61.801V61.8015Z" fill="url(#paint21_linear_679_5082)"/>
<path d="M50.322 93.162L54.7313 77.7436C54.7812 77.5688 54.9303 77.4412 55.1109 77.42C55.9097 77.3266 58.2247 77.0643 60.8976 76.8385C64.1172 76.5659 67.8562 76.3449 70.0905 76.5328C70.4082 76.5594 70.6002 76.896 70.4587 77.1822C69.1881 79.7558 63.9621 90.2252 61.345 93.6545C61.2582 93.768 61.1243 93.8348 60.9811 93.8331L50.7504 93.7376C50.4527 93.7349 50.2395 93.4487 50.3214 93.162H50.322Z" fill="url(#paint22_linear_679_5082)"/>
<path d="M51.3876 89.4368C51.3876 89.4368 50.7732 86.9077 51.021 86.0107C51.2688 85.1132 51.7487 83.96 53.349 84.2162C54.9493 84.4725 56.837 85.1474 56.837 85.1474C56.837 85.1474 56.7416 86.3159 55.5252 85.9391L56.2795 86.5233C56.2795 86.5233 56.1716 87.4588 55.1445 86.9593L55.8457 87.7341C55.8457 87.7341 55.4043 88.5024 54.6489 88.0099C53.8929 87.5169 53.5307 89.7414 51.3876 89.4368Z" fill="url(#paint23_linear_679_5082)"/>
<path d="M60.6042 81.4403C60.6042 82.1558 61.184 82.7361 61.8987 82.7361C62.6134 82.7361 63.1931 82.1558 63.1931 81.4403C63.1931 80.7248 62.6134 80.1445 61.8987 80.1445C61.184 80.1445 60.6042 80.7248 60.6042 81.4403Z" fill="#9FCBE4"/>
<path d="M55.2308 82.294L54.9005 82.1963L55.798 79.1476C55.9444 78.6509 56.3446 78.278 56.8424 78.1743C59.6884 77.5793 67.1833 77.4583 67.5005 77.4534L67.5059 77.7981C67.4284 77.7992 59.7263 77.924 56.9129 78.5114C56.5393 78.5896 56.2383 78.8702 56.1277 79.2448L55.2302 82.2935L55.2308 82.294Z" fill="#9FCBE4"/>
<path d="M3.04384 125.444C2.57368 126.141 0.705508 141.909 0.413216 147.732C0.393693 148.126 0.708219 148.454 1.10192 148.454C1.44139 148.454 1.73043 148.207 1.78303 147.871L5.19997 125.946L3.04384 125.444Z" fill="#7D97F4"/>
<path d="M18.0641 125.444C18.5342 126.141 20.4024 141.909 20.6947 147.732C20.7148 148.126 20.3997 148.454 20.006 148.454C19.6665 148.454 19.3775 148.207 19.3249 147.871L15.908 125.946L18.0641 125.444Z" fill="#7D97F4"/>
<path d="M0.217477 124.213L0.21585 124.386C0.204462 125.622 1.26897 126.637 2.60191 126.66L18.396 126.928C19.7094 126.951 20.8043 126.001 20.8683 124.783L20.8764 124.625C20.9431 123.356 19.8656 122.286 18.4958 122.261L2.69464 121.978C1.34218 121.954 0.228865 122.959 0.217477 124.214V124.213Z" fill="#7D97F4"/>
<path d="M33.4889 147.159C30.6815 147.159 29.4391 146.918 28.8832 146.698C28.9912 147.16 29.4017 147.524 29.9206 147.524H39.8531C40.1877 147.524 40.3987 147.204 40.319 146.913C39.1867 147.005 36.7822 147.159 33.4883 147.159H33.4889Z" fill="#9FCBE4"/>
<path d="M40.3195 146.913C40.3032 146.854 40.2799 146.797 40.2381 146.744C39.4817 145.777 37.9616 144.258 35.8939 144.287C32.8652 144.33 31.8089 144.659 29.4553 144.306L28.9 146.148C28.8436 146.336 28.8426 146.524 28.8832 146.698C29.4385 146.917 30.6809 147.158 33.4889 147.158C36.7822 147.158 39.1872 147.004 40.3195 146.913V146.913Z" fill="url(#paint24_linear_679_5082)"/>
<path d="M30.1375 142.32L29.4559 144.641C29.4559 144.641 30.9656 145.329 32.2937 144.776L32.5545 142.766L30.1375 142.321V142.32Z" fill="url(#paint25_linear_679_5082)"/>
<path d="M50.7238 145.698C48.5351 147.459 47.4164 148.051 46.8464 148.228C47.2179 148.519 47.7651 148.544 48.1696 148.218L55.9124 141.989C56.1732 141.78 56.138 141.399 55.895 141.223C55.0691 142.004 53.291 143.633 50.7232 145.698H50.7238Z" fill="#9FCBE4"/>
<path d="M55.8956 141.224C55.8468 141.189 55.792 141.159 55.7269 141.144C54.535 140.868 52.4044 140.642 50.8111 141.962C48.4766 143.894 47.8584 144.812 45.8036 146.014L46.5178 147.792C46.5905 147.973 46.7066 148.119 46.847 148.229C47.4169 148.052 48.5357 147.46 50.7244 145.699C53.2921 143.634 55.0702 142.005 55.8961 141.224L55.8956 141.224Z" fill="url(#paint26_linear_679_5082)"/>
<path d="M15.5571 115.877C15.5571 115.877 32.3669 117.251 35.8153 118.876C39.2637 120.501 33.0014 143.281 33.0014 143.281C33.0014 143.281 32.0627 143.734 29.9738 143.084C29.9738 143.084 32.1158 126.273 30.522 122.628L12.3218 119.647L15.5582 115.876L15.5571 115.877Z" fill="url(#paint27_linear_679_5082)"/>
<path d="M44.1329 142.813C44.2891 142.956 45.8031 146.012 45.8031 146.012C45.8031 146.012 47.4885 145.648 47.8323 144.579L46.3156 141.821L44.1329 142.813Z" fill="url(#paint28_linear_679_5082)"/>
<path d="M5.43263 115.736C5.43263 115.736 4.88492 117.056 4.90715 118.81C4.93806 121.235 6.88541 123.204 9.30509 123.325L29.1766 124.232C29.5963 124.251 29.9515 124.542 30.0567 124.949C30.5236 126.758 32.8061 132.311 43.9637 143.393C44.2603 143.688 44.7229 143.738 45.0764 143.515L46.6648 142.51C46.8313 142.405 46.885 142.186 46.7852 142.016L35.215 122.233C34.6071 121.229 33.6304 120.504 32.4943 120.213L15.5576 115.878L5.43317 115.737L5.43263 115.736Z" fill="url(#paint29_linear_679_5082)"/>
<path d="M25.0162 84.8342C25.0162 84.8342 22.8878 88.6029 20.717 90.4283L25.2033 92.9347C25.2033 92.9347 26.2141 88.945 28.5237 87.7771L25.0162 84.8348V84.8342Z" fill="url(#paint30_linear_679_5082)"/>
<path d="M5.07201 115.877C5.07201 115.877 10.4368 117.186 15.5571 115.877C15.5571 115.877 22.7223 106.233 25.494 103.608C25.494 103.608 29.9158 110.594 39.7572 111.584L40.306 110.356C40.306 110.356 32.471 106.74 30.0589 101.183C27.6468 95.6267 26.6783 93.2573 24.4837 91.807C23.1171 90.9041 22.2988 90.2873 21.8758 89.9506C21.6443 89.766 21.3249 89.7454 21.0722 89.8996C18.7436 91.3205 7.78561 98.8351 5.07147 115.877H5.07201Z" fill="#007CBA"/>
<path d="M25.2033 103.473C25.0997 103.473 24.9977 103.426 24.9299 103.338C23.2217 101.107 22.27 98.6488 22.2304 98.5457C22.1627 98.3681 22.2511 98.1689 22.4284 98.1004C22.6063 98.032 22.8047 98.1211 22.8731 98.2986C22.8823 98.3231 23.8307 100.77 25.476 102.919C25.5915 103.07 25.5633 103.286 25.4126 103.402C25.3502 103.45 25.2765 103.473 25.2033 103.473V103.473Z" fill="url(#paint31_linear_679_5082)"/>
<path d="M39.1661 109.715L40.274 109.419L43.6372 108.64C44.0423 108.546 44.4675 108.617 44.8194 108.839L47.7114 110.661L39.7252 110.647L39.1661 109.715V109.715Z" fill="url(#paint32_linear_679_5082)"/>
<path d="M28.3962 79.1836C28.3962 79.1836 30.4651 82.627 30.824 84.5301C31.183 86.4332 31.7595 87.6228 29.5958 88.301C27.4326 88.9791 25.4218 88.1207 24.1604 86.3442C24.1604 86.3442 22.1898 83.6104 22.3866 82.3583C22.5835 81.1062 28.3962 79.1836 28.3962 79.1836Z" fill="url(#paint33_linear_679_5082)"/>
<path d="M24.7364 84.8711L25.0162 84.8342C25.0162 84.8342 23.5515 82.6178 24.5097 82.0684C25.4685 81.5183 29.3745 80.1696 30.0529 78.6293C30.7069 77.1443 29.7287 75.4671 28.5492 75.1168C28.4744 75.0946 28.3957 75.1391 28.3686 75.2119L28.2992 75.3986C28.252 75.5268 28.0725 75.5317 28.0183 75.4068C27.9662 75.2879 27.7965 75.283 27.7433 75.4008C27.5346 75.8623 26.9077 76.6502 25.0292 77.2599C22.3639 78.1248 20.7034 79.4703 20.9078 81.3663C20.9209 81.4863 20.8015 81.5694 20.6915 81.5205C20.4735 81.4239 20.1432 81.4087 19.7598 81.8289C19.0928 82.5592 19.615 84.1571 21.4371 85.2876C21.5239 85.3413 21.5391 85.4635 21.4615 85.5297C21.1887 85.7632 20.8053 86.2845 22.038 86.7487C23.2988 87.2238 23.9869 87.0631 24.2413 86.961C24.3096 86.9333 24.3486 86.8627 24.3345 86.79L24.0108 85.1285C23.994 85.0427 24.0531 84.9602 24.1399 84.9488L24.7364 84.87V84.8711Z" fill="url(#paint34_linear_679_5082)"/>
<path d="M24.8514 85.2124C24.8514 85.2124 23.9387 82.9595 22.9799 83.7515C22.0212 84.5436 23.866 86.2937 24.7174 86.2704L24.8514 85.2124Z" fill="url(#paint35_linear_679_5082)"/>
<path d="M36.0804 112.229C36.0935 112.229 36.1065 112.23 36.1195 112.23L53.1814 112.213C53.6033 112.213 53.945 111.871 53.9444 111.449C53.9444 111.028 53.6006 110.68 53.1798 110.687L36.1179 110.704C35.696 110.704 35.3549 111.047 35.3549 111.468C35.3549 111.876 35.677 112.209 36.0804 112.229V112.229Z" fill="url(#paint36_linear_679_5082)"/>
<path d="M59.7887 95.4995C59.7827 95.5109 59.7767 95.5229 59.7713 95.5348L52.5925 111.032C52.4152 111.415 52.5806 111.869 52.9629 112.047C53.3452 112.224 53.8051 112.059 53.9759 111.674L61.1547 96.1771C61.332 95.7938 61.1666 95.3399 60.7843 95.1624C60.4145 94.9908 59.9768 95.1417 59.7887 95.4995Z" fill="url(#paint37_linear_679_5082)"/>
<path d="M104.466 127.803H102.666V147.302H104.466V127.803Z" fill="#7D97F4"/>
<path d="M111.452 147.678H95.6804C95.6804 147.03 96.2053 146.504 96.8528 146.504H110.28C110.928 146.504 111.453 147.03 111.453 147.678H111.452Z" fill="#7D97F4"/>
<path d="M111.856 123.435H95.8989C94.8294 123.435 93.9624 124.303 93.9624 125.374V127.127C93.9624 128.198 94.8294 129.066 95.8989 129.066H111.856C112.926 129.066 113.793 128.198 113.793 127.127V125.374C113.793 124.303 112.926 123.435 111.856 123.435Z" fill="#7D97F4"/>
<path d="M90.2721 114.803C90.2721 114.803 87.5965 115.218 84.5879 117.232C84.1145 117.549 83.8547 118.101 83.9258 118.667C84.2859 121.524 85.7674 130.772 90.6517 139.804C90.9093 140.28 90.9831 140.834 90.8697 141.364L90.0211 145.318L88.4474 146.795H92.5009L95.1999 139.483L94.0459 139.117C93.1511 138.834 92.5373 138.01 92.521 137.07L92.3854 129.226C92.5009 125.731 90.245 123.32 90.245 123.32L96.7183 123.004L90.2721 114.802V114.803Z" fill="url(#paint38_linear_679_5082)"/>
<path d="M86.8644 147.509C86.4951 147.992 90.8378 148.63 93.0313 147.573C93.0313 147.573 96.0724 142.275 96.0724 139.547C96.0724 139.547 95.8311 138.991 94.0454 139.117C94.0454 139.117 93.0243 145.39 91.9462 146.093C90.8681 146.795 88.9295 146.164 88.9295 146.164C88.9295 146.164 87.4089 146.795 86.8644 147.509Z" fill="url(#paint39_linear_679_5082)"/>
<path d="M95.8989 123.435C95.8642 123.375 88.9295 122.6 88.9295 122.6C88.9295 122.6 89.1567 124.711 88.4474 127.617C87.7381 130.524 77.5556 143.116 77.5556 143.116L78.6233 146.504C75.3224 147.655 72.0752 147.839 68.8801 147.091L75.4965 143.116C75.4965 143.116 81.6889 121.987 85.4816 118.218L92.4332 115.81L95.8989 123.435Z" fill="url(#paint40_linear_679_5082)"/>
<path d="M111.452 111.141C111.452 111.141 115.448 117.091 115.776 119.805C116.104 122.519 114.681 123.622 110.489 123.804C106.297 123.986 95.1044 123.983 95.1044 123.983L85.5521 115.81C85.5521 115.81 92.5134 113.322 94.3235 112.619C96.1337 111.916 111.453 111.141 111.453 111.141H111.452Z" fill="url(#paint41_linear_679_5082)"/>
<path d="M78.2198 145.364C78.2198 145.364 79.3695 146.478 78.5929 147.718C78.5929 147.718 69.4874 149.333 67.0151 148.601C67.0151 148.601 67.5287 147.427 70.3122 146.093L70.1067 146.251C69.847 146.45 69.9993 146.866 70.3263 146.848C72.1609 146.743 75.9569 146.406 78.2198 145.364Z" fill="url(#paint42_linear_679_5082)"/>
<path d="M94.1441 73.4044C102.312 72.0139 106.157 78.6841 105.876 80.0855C105.839 80.2712 106.014 80.4287 106.196 80.3792C107.134 80.1268 109.206 79.8081 110.49 81.419C111.624 82.8416 110.776 84.1838 110.085 84.9206C109.918 85.0987 110.059 85.3875 110.3 85.3571C112.024 85.1394 115.77 85.0873 116.383 88.6008C116.955 91.8775 114.677 92.8011 113.326 93.0617C113.098 93.1057 113.044 93.4065 113.241 93.5314C113.915 93.9592 114.696 94.8443 114.38 96.5899C113.886 99.3259 108.528 99.1022 107.902 99.0663C107.862 99.0641 107.825 99.0527 107.79 99.0327L99.2085 94.1324C99.1418 94.0944 99.0952 94.0282 99.0822 93.9522L97.3496 83.934C97.3355 83.8531 97.361 83.77 97.4179 83.7108L91.8232 75.8059C89.7923 75.5067 94.0471 73.4212 94.1431 73.4049L94.1441 73.4044Z" fill="url(#paint43_linear_679_5082)"/>
<path d="M100.646 110.353C100.646 110.353 95.9933 105.917 93.7027 102.979C92.4647 101.391 92.0758 99.2997 92.6485 97.3684C93.694 93.8413 95.5524 90.1877 95.7222 89.6192C95.9819 88.7478 101.199 88.7842 101.199 88.7842C101.199 88.7842 111.466 95.4555 115.499 106.756L110.969 108.168C110.969 108.168 108.289 103.666 105.64 100.803C105.64 100.803 110.223 106.865 110.385 109.347L100.647 110.354L100.646 110.353Z" fill="#007CBA"/>
<path d="M95.0915 84.7484C95.1457 84.9297 96.5074 89.4493 96.6142 89.5433C96.7205 89.6372 99.6006 89.7919 100.956 88.8646L97.5936 82.2795L95.0915 84.7484Z" fill="url(#paint44_linear_679_5082)"/>
<path d="M89.6323 78.9404C89.6323 78.9404 88.974 81.5298 90.7949 85.0123C92.6154 88.4949 94.6766 88.4911 95.8035 87.3764C96.9304 86.2617 98.3197 84.37 97.9894 81.0031C97.6592 77.6362 90.5824 75.6463 89.6323 78.9404Z" fill="url(#paint45_linear_679_5082)"/>
<path d="M95.4711 81.1859C95.4711 81.1859 92.4506 76.562 89.6177 80.201L89.5667 81.5247C89.5667 81.5247 86.249 81.1305 86.8298 78.0845C87.4106 75.0385 90.2776 73.1349 93.97 74.4543C97.6625 75.7737 99.7785 77.1267 100.017 79.7764C100.255 82.426 98.1494 81.8451 98.1494 81.8451C98.1494 81.8451 97.4629 79.9794 96.4863 79.7856C95.5101 79.5918 95.7639 81.0464 95.7639 81.0464L95.4711 81.1864V81.1859Z" fill="url(#paint46_linear_679_5082)"/>
<path d="M96.2444 81.1236C96.2444 81.1236 94.6777 78.7562 96.2829 78.4034C97.8881 78.0505 97.6392 80.7099 97.4656 81.6936L96.2439 81.1236H96.2444Z" fill="url(#paint47_linear_679_5082)"/>
<path d="M91.167 110.682L94.5856 107.383L99.3148 109.384C99.3148 109.384 104.022 110.114 106.716 109.384L109.411 108.653L115.499 106.756L116.455 109.461C116.698 110.148 116.454 110.911 115.861 111.333C115.334 111.707 114.716 112.12 114.323 112.292C113.521 112.643 94.5579 112.049 94.5579 112.049L91.1664 110.682H91.167Z" fill="url(#paint48_linear_679_5082)"/>
<path d="M104.104 112.238C104.089 112.238 104.074 112.239 104.059 112.239L84.2278 112.217C83.7376 112.217 83.3406 111.819 83.3412 111.328C83.3412 110.837 83.7409 110.432 84.23 110.44L104.061 110.462C104.551 110.462 104.948 110.86 104.947 111.351C104.947 111.827 104.573 112.214 104.104 112.238Z" fill="url(#paint49_linear_679_5082)"/>
<path d="M66.4007 94.2107H82.9161C84.1346 94.2107 85.2436 94.9149 85.7631 96.0182L93.3979 112.228H72.874C72.0888 112.228 71.3833 111.747 71.0948 111.016L65.1741 96.0166C64.8319 95.15 65.4696 94.2107 66.4007 94.2107Z" fill="url(#paint50_linear_679_5082)"/>
<path d="M78.036 102.522C78.394 103.634 78.1293 104.716 77.4455 104.936C76.7617 105.157 75.9168 104.433 75.5589 103.32C75.201 102.207 75.4656 101.126 76.1494 100.905C76.8333 100.685 77.6781 101.409 78.036 102.522Z" fill="#7D97F4"/>
<path d="M126.713 145.22C126.713 145.22 126.921 146.377 127.003 147.751C127.038 148.336 126.605 148.845 126.022 148.901C123.992 149.098 119.372 149.462 116.422 149.036C116.009 148.976 115.844 148.468 116.15 148.183C117.366 147.048 120.304 144.841 125.14 144.359L126.713 145.22V145.22Z" fill="url(#paint51_linear_679_5082)"/>
<path d="M127.722 142.612L126.696 145.13C126.555 145.475 126.206 145.69 125.835 145.651C125.584 145.625 125.287 145.576 124.997 145.488C124.418 145.313 124.091 144.698 124.264 144.117L125.039 141.523L127.722 142.612Z" fill="url(#paint52_linear_679_5082)"/>
<path d="M145.268 147.226C145.268 147.226 143.212 148.948 142.412 151.156C142.192 151.763 142.657 152.402 143.302 152.402H147.531C148.15 152.402 148.624 151.845 148.517 151.235C148.247 149.71 147.471 147.233 145.268 147.226Z" fill="url(#paint53_linear_679_5082)"/>
<path d="M147.813 144.986C147.813 144.986 147.398 146.825 147.079 148.041C147.021 148.261 146.786 148.382 146.571 148.305C145.931 148.076 145.411 147.975 145.032 148.026C144.856 148.049 144.704 147.904 144.701 147.727L144.662 144.672L147.813 144.986Z" fill="url(#paint54_linear_679_5082)"/>
<path d="M136.884 103.592L124.384 141.773C124.384 141.773 126.782 143.345 127.924 143.279L142.77 112.595C142.77 112.595 145.368 131.502 144.109 145.075L148.362 145.4C148.362 145.4 155.277 110.712 150.039 98.8311L136.883 103.591L136.884 103.592Z" fill="url(#paint55_linear_679_5082)"/>
<path d="M142.69 112.264C142.695 112.264 142.7 112.264 142.705 112.263C142.771 112.255 142.819 112.194 142.81 112.128L142.326 108.274C142.317 108.208 142.257 108.161 142.191 108.168C142.124 108.177 142.077 108.237 142.085 108.304L142.57 112.158C142.578 112.219 142.63 112.264 142.69 112.264V112.264Z" fill="url(#paint56_linear_679_5082)"/>
<path d="M134.54 69.9944C134.54 69.9944 144.667 70.8947 143.235 78.1198C143.235 78.1198 148.833 88.6679 151.45 101.094C151.535 101.498 151.264 101.892 150.857 101.962L133.992 104.853C133.527 104.933 133.079 104.642 132.96 104.185L128.931 88.5914L127.36 95.841L122.371 94.5395L126.571 73.2359C126.571 73.2359 127.157 70.1275 134.539 69.9939L134.54 69.9944Z" fill="#007CBA"/>
<path d="M128.845 87.8937C128.854 87.8937 128.863 87.8927 128.871 87.891C128.939 87.8764 128.982 87.809 128.967 87.7412L127.562 81.2778C127.547 81.2099 127.481 81.1675 127.412 81.1817C127.344 81.1963 127.302 81.2637 127.316 81.3315L128.722 87.7949C128.735 87.8536 128.787 87.8937 128.844 87.8937H128.845Z" fill="#9FCBE4"/>
<path d="M129.863 107.127C130.395 106.834 131.017 106.753 131.605 106.9L132.778 107.192C133.028 107.255 133.275 107.083 133.304 106.827L134.518 96.0051C136.036 96.7273 138.227 96.6409 138.949 96.5877L136.154 109.345H126.374L129.863 107.126L129.863 107.127Z" fill="url(#paint57_linear_679_5082)"/>
<path d="M103.878 83.6531L104.173 82.6693C104.343 82.103 104.761 81.6453 105.309 81.4248L110.656 79.272C110.656 79.272 110.736 78.5857 109.526 78.1187C108.316 77.6523 108.599 76.2949 108.599 76.2949C108.599 76.2949 110.252 77.0502 112.673 78.2479C114.057 78.9332 114.834 80.1423 115.246 81.0529L127.361 95.8404L125.938 96.8188C124.068 98.1056 121.495 97.4736 120.432 95.4658L113.87 82.8653C110.575 83.8562 107.24 84.0457 103.878 83.6526V83.6531Z" fill="url(#paint58_linear_679_5082)"/>
<path d="M131.259 63.0961L134.374 71.8247C134.374 71.8247 131.616 73.9836 129.603 73.2538L128.034 68.2504C128.034 68.2504 129.233 62.1351 131.259 63.0961Z" fill="url(#paint59_linear_679_5082)"/>
<path d="M121.963 59.9613C121.963 60.0959 124.963 68.4657 124.963 68.4657L129.7 66.6489L128.034 58.2928C128.034 58.2928 121.963 57.7096 121.963 59.9613H121.963Z" fill="url(#paint60_linear_679_5082)"/>
<path d="M127.203 60.3287L128.424 64.6588C128.44 64.7142 128.448 64.7702 128.448 64.8282C128.448 65.1812 128.361 66.3969 127.125 66.2313C126.003 66.0814 124.977 65.9609 124.324 66.2687C124.032 66.4066 123.891 66.7444 124.001 67.0495C124.273 67.8096 124.92 69.5118 125.707 70.9051C125.866 71.1879 126.216 71.2976 126.512 71.163C127.402 70.7579 129.254 69.8506 130.574 68.7712C130.753 68.6252 130.838 68.395 130.796 68.168C130.588 67.0604 129.97 63.6913 129.943 62.7259C129.918 61.8197 130.933 61.128 131.38 60.8679C131.527 60.7827 131.631 60.642 131.671 60.477C131.811 59.8938 131.931 58.5739 130.248 58.2829C129.896 58.2221 129.667 57.8849 129.739 57.5341C129.881 56.8364 129.835 55.8102 128.513 55.4318C127.168 55.0474 126.322 55.858 125.891 56.4791C125.717 56.7305 125.392 56.812 125.112 56.6871C124.953 56.616 124.762 56.6127 124.556 56.787C124.278 57.0216 123.855 56.9499 123.651 56.6491C123.259 56.0714 122.547 55.4942 121.341 55.8851C119.201 56.5785 119.303 59.049 120.088 60.3917C120.872 61.7345 123.149 60.8511 124.228 59.9611C125.048 59.2846 126.296 59.6891 126.847 59.9221C127.022 59.9959 127.152 60.1458 127.203 60.3282L127.203 60.3287Z" fill="url(#paint61_linear_679_5082)"/>
<path d="M130.371 64.3059C130.371 64.3059 129.105 61.9075 129.942 61.1546C130.78 60.4016 132.199 60.5249 132.161 62.4004C132.113 64.7331 130.371 64.3064 130.371 64.3064V64.3059Z" fill="url(#paint62_linear_679_5082)"/>
<path d="M137.966 96.7501C138.658 96.7501 139.151 96.6974 139.204 96.6914L139.294 96.6811L142.982 79.4665C142.996 79.3987 142.953 79.3319 142.885 79.3172C142.817 79.302 142.751 79.346 142.736 79.4139L139.087 96.4498C138.538 96.4981 135.607 96.693 134.06 95.5957L137.255 80.6399L136.588 79.3818C136.555 79.3205 136.479 79.2971 136.418 79.3297C136.357 79.3623 136.333 79.4383 136.366 79.4997L136.99 80.6768L133.781 95.7016L133.845 95.7499C134.963 96.591 136.763 96.7501 137.966 96.7501Z" fill="#9FCBE4"/>
<path d="M27.4147 149.235C27.3301 149.235 27.2439 149.216 27.1609 149.177C26.835 149.024 26.6843 148.611 26.8247 148.255L40.3 114.021C40.4399 113.665 40.8179 113.5 41.1443 113.653C41.4702 113.807 41.621 114.22 41.4805 114.576L28.0053 148.809C27.9006 149.075 27.6636 149.234 27.4147 149.234V149.235Z" fill="url(#paint63_linear_679_5082)"/>
<path d="M42.5955 149.235C42.3466 149.235 42.1096 149.076 42.0049 148.81L28.5297 114.576C28.3892 114.22 28.54 113.807 28.8659 113.654C29.1918 113.501 29.5698 113.665 29.7102 114.022L43.1855 148.255C43.3259 148.611 43.1752 149.025 42.8493 149.178C42.7668 149.217 42.6806 149.235 42.5955 149.235V149.235Z" fill="url(#paint64_linear_679_5082)"/>
<path d="M118.867 149.235C118.783 149.235 118.697 149.216 118.614 149.177C118.288 149.024 118.137 148.611 118.277 148.255L131.753 114.021C131.893 113.665 132.271 113.5 132.597 113.653C132.923 113.807 133.074 114.22 132.933 114.576L119.458 148.809C119.353 149.075 119.116 149.234 118.867 149.234V149.235Z" fill="url(#paint65_linear_679_5082)"/>
<path d="M134.048 149.235C133.799 149.235 133.562 149.076 133.457 148.81L119.982 114.576C119.841 114.22 119.992 113.807 120.318 113.654C120.644 113.501 121.022 113.665 121.162 114.022L134.638 148.255C134.778 148.611 134.627 149.025 134.301 149.178C134.219 149.217 134.133 149.235 134.048 149.235V149.235Z" fill="url(#paint66_linear_679_5082)"/>
<path d="M116.912 111.603H136.429V109.587H116.912C117.329 109.587 117.329 111.603 116.912 111.603Z" fill="#9FCBE4"/>
<path d="M136.245 111.603C136.346 111.603 136.429 111.521 136.429 111.42V109.771C136.429 109.67 136.346 109.587 136.245 109.587H116.5C116.399 109.587 116.316 109.505 116.316 109.404V109.315C116.316 109.214 116.399 109.131 116.5 109.131H137.546C138.011 109.131 138.389 109.509 138.389 109.975V111.263C138.389 111.703 138.033 112.059 137.594 112.059H116.499C116.398 112.059 116.316 111.976 116.316 111.875V111.786C116.316 111.685 116.398 111.603 116.499 111.603H136.245L136.245 111.603Z" fill="url(#paint67_linear_679_5082)"/>
<path d="M139.258 112.963C139.324 112.738 139.234 112.506 139.014 112.329C138.795 112.152 138.468 112.05 138.122 112.05H21.1795C20.7256 112.05 20.3027 112.203 20.0581 112.457C19.8135 112.711 19.7804 113.03 19.9713 113.304L21.2387 115.125C21.5288 115.542 22.1578 115.809 22.8498 115.809H137.32C137.964 115.809 138.517 115.506 138.639 115.087L139.257 112.964L139.258 112.963Z" fill="url(#paint68_linear_679_5082)"/>
</g>
<defs>
<linearGradient id="paint0_linear_679_5082" x1="91.3318" y1="55.0009" x2="89.4705" y2="67.2711" gradientUnits="userSpaceOnUse">
<stop stop-color="#09005D"/>
<stop offset="1" stop-color="#1A0F91"/>
</linearGradient>
<linearGradient id="paint1_linear_679_5082" x1="91.7423" y1="49.9149" x2="88.529" y2="85.3169" gradientUnits="userSpaceOnUse">
<stop stop-color="#53D8FF"/>
<stop offset="1" stop-color="#3840F7"/>
</linearGradient>
<linearGradient id="paint2_linear_679_5082" x1="91.8355" y1="49.9228" x2="88.6223" y2="85.3251" gradientUnits="userSpaceOnUse">
<stop stop-color="#53D8FF"/>
<stop offset="1" stop-color="#3840F7"/>
</linearGradient>
<linearGradient id="paint3_linear_679_5082" x1="91.6588" y1="49.9065" x2="88.445" y2="85.3083" gradientUnits="userSpaceOnUse">
<stop stop-color="#53D8FF"/>
<stop offset="1" stop-color="#3840F7"/>
</linearGradient>
<linearGradient id="paint4_linear_679_5082" x1="91.7537" y1="49.9153" x2="88.5404" y2="85.3171" gradientUnits="userSpaceOnUse">
<stop stop-color="#53D8FF"/>
<stop offset="1" stop-color="#3840F7"/>
</linearGradient>
<linearGradient id="paint5_linear_679_5082" x1="92.7276" y1="24.7329" x2="87.7683" y2="58.3045" gradientUnits="userSpaceOnUse">
<stop stop-color="#FF928E"/>
<stop offset="1" stop-color="#FE7062"/>
</linearGradient>
<linearGradient id="paint6_linear_679_5082" x1="138.326" y1="-15.6292" x2="116.027" y2="15.441" gradientUnits="userSpaceOnUse">
<stop stop-color="#E1473D"/>
<stop offset="1" stop-color="#E9605A"/>
</linearGradient>
<linearGradient id="paint7_linear_679_5082" x1="135.235" y1="-17.8478" x2="112.936" y2="13.2224" gradientUnits="userSpaceOnUse">
<stop stop-color="#E1473D"/>
<stop offset="1" stop-color="#E9605A"/>
</linearGradient>
<linearGradient id="paint8_linear_679_5082" x1="64.8878" y1="139.814" x2="31.7896" y2="175.098" gradientUnits="userSpaceOnUse">
<stop stop-color="#09005D"/>
<stop offset="1" stop-color="#1A0F91"/>
</linearGradient>
<linearGradient id="paint9_linear_679_5082" x1="54.2428" y1="142.36" x2="57.1487" y2="142.387" gradientUnits="userSpaceOnUse">
<stop stop-color="#FEBBBA"/>
<stop offset="1" stop-color="#FF928E"/>
</linearGradient>
<linearGradient id="paint10_linear_679_5082" x1="67.8451" y1="99.539" x2="39.6022" y2="137.026" gradientUnits="userSpaceOnUse">
<stop stop-color="#09005D"/>
<stop offset="1" stop-color="#1A0F91"/>
</linearGradient>
<linearGradient id="paint11_linear_679_5082" x1="57.6114" y1="132.989" x2="24.5188" y2="168.274" gradientUnits="userSpaceOnUse">
<stop stop-color="#09005D"/>
<stop offset="1" stop-color="#1A0F91"/>
</linearGradient>
<linearGradient id="paint12_linear_679_5082" x1="43.7698" y1="142.112" x2="46.2789" y2="142.135" gradientUnits="userSpaceOnUse">
<stop stop-color="#FEBBBA"/>
<stop offset="1" stop-color="#FF928E"/>
</linearGradient>
<linearGradient id="paint13_linear_679_5082" x1="62.9174" y1="95.8261" x2="34.6751" y2="133.313" gradientUnits="userSpaceOnUse">
<stop stop-color="#09005D"/>
<stop offset="1" stop-color="#1A0F91"/>
</linearGradient>
<linearGradient id="paint14_linear_679_5082" x1="66.9197" y1="66.557" x2="81.7684" y2="66.6968" gradientUnits="userSpaceOnUse">
<stop stop-color="#FEBBBA"/>
<stop offset="1" stop-color="#FF928E"/>
</linearGradient>
<linearGradient id="paint15_linear_679_5082" x1="78.5195" y1="64.2344" x2="68.3213" y2="86.8284" gradientUnits="userSpaceOnUse">
<stop stop-color="#FEBBBA"/>
<stop offset="1" stop-color="#FF928E"/>
</linearGradient>
<linearGradient id="paint16_linear_679_5082" x1="81.7915" y1="56.645" x2="86.0154" y2="50.2894" gradientUnits="userSpaceOnUse">
<stop stop-color="#FEBBBA"/>
<stop offset="1" stop-color="#FF928E"/>
</linearGradient>
<linearGradient id="paint17_linear_679_5082" x1="34.2308" y1="87.3064" x2="53.0207" y2="87.4833" gradientUnits="userSpaceOnUse">
<stop stop-color="#FEBBBA"/>
<stop offset="1" stop-color="#FF928E"/>
</linearGradient>
<linearGradient id="paint18_linear_679_5082" x1="48.8485" y1="67.33" x2="56.2781" y2="67.3999" gradientUnits="userSpaceOnUse">
<stop stop-color="#FEBBBA"/>
<stop offset="1" stop-color="#FF928E"/>
</linearGradient>
<linearGradient id="paint19_linear_679_5082" x1="58.1004" y1="62.713" x2="49.9732" y2="57.6562" gradientUnits="userSpaceOnUse">
<stop stop-color="#FEBBBA"/>
<stop offset="1" stop-color="#FF928E"/>
</linearGradient>
<linearGradient id="paint20_linear_679_5082" x1="45.7048" y1="52.3478" x2="56.189" y2="60.7802" gradientUnits="userSpaceOnUse">
<stop stop-color="#09005D"/>
<stop offset="1" stop-color="#1A0F91"/>
</linearGradient>
<linearGradient id="paint21_linear_679_5082" x1="55.9369" y1="64.5524" x2="48.6259" y2="60.0023" gradientUnits="userSpaceOnUse">
<stop stop-color="#FEBBBA"/>
<stop offset="1" stop-color="#FF928E"/>
</linearGradient>
<linearGradient id="paint22_linear_679_5082" x1="58.0669" y1="75.379" x2="68.4604" y2="118.63" gradientUnits="userSpaceOnUse">
<stop stop-color="#09005D"/>
<stop offset="1" stop-color="#1A0F91"/>
</linearGradient>
<linearGradient id="paint23_linear_679_5082" x1="50.9619" y1="86.823" x2="56.837" y2="86.823" gradientUnits="userSpaceOnUse">
<stop stop-color="#FEBBBA"/>
<stop offset="1" stop-color="#FF928E"/>
</linearGradient>
<linearGradient id="paint24_linear_679_5082" x1="33.3142" y1="115.468" x2="34.5386" y2="145.429" gradientUnits="userSpaceOnUse">
<stop stop-color="#4F52FF"/>
<stop offset="1" stop-color="#4042E2"/>
</linearGradient>
<linearGradient id="paint25_linear_679_5082" x1="29.4559" y1="143.655" x2="32.5545" y2="143.655" gradientUnits="userSpaceOnUse">
<stop stop-color="#FEBBBA"/>
<stop offset="1" stop-color="#FF928E"/>
</linearGradient>
<linearGradient id="paint26_linear_679_5082" x1="49.6745" y1="114.794" x2="50.8988" y2="144.761" gradientUnits="userSpaceOnUse">
<stop stop-color="#4F52FF"/>
<stop offset="1" stop-color="#4042E2"/>
</linearGradient>
<linearGradient id="paint27_linear_679_5082" x1="12.3208" y1="129.656" x2="36.8516" y2="129.656" gradientUnits="userSpaceOnUse">
<stop stop-color="#09005D"/>
<stop offset="1" stop-color="#1A0F91"/>
</linearGradient>
<linearGradient id="paint28_linear_679_5082" x1="44.1329" y1="143.917" x2="47.8323" y2="143.917" gradientUnits="userSpaceOnUse">
<stop stop-color="#FEBBBA"/>
<stop offset="1" stop-color="#FF928E"/>
</linearGradient>
<linearGradient id="paint29_linear_679_5082" x1="34.6033" y1="119.423" x2="7.63512" y2="149.961" gradientUnits="userSpaceOnUse">
<stop stop-color="#09005D"/>
<stop offset="1" stop-color="#1A0F91"/>
</linearGradient>
<linearGradient id="paint30_linear_679_5082" x1="23.5835" y1="91.7201" x2="25.4111" y2="87.1168" gradientUnits="userSpaceOnUse">
<stop stop-color="#FEBBBA"/>
<stop offset="1" stop-color="#FF928E"/>
</linearGradient>
<linearGradient id="paint31_linear_679_5082" x1="24.7667" y1="99.2912" x2="60.2868" y2="40.1648" gradientUnits="userSpaceOnUse">
<stop stop-color="#09005D"/>
<stop offset="1" stop-color="#1A0F91"/>
</linearGradient>
<linearGradient id="paint32_linear_679_5082" x1="39.1661" y1="109.63" x2="47.7114" y2="109.63" gradientUnits="userSpaceOnUse">
<stop stop-color="#FEBBBA"/>
<stop offset="1" stop-color="#FF928E"/>
</linearGradient>
<linearGradient id="paint33_linear_679_5082" x1="29.1517" y1="82.3685" x2="20.977" y2="90.5112" gradientUnits="userSpaceOnUse">
<stop stop-color="#FEBBBA"/>
<stop offset="1" stop-color="#FF928E"/>
</linearGradient>
<linearGradient id="paint34_linear_679_5082" x1="22.0511" y1="77.7185" x2="31.6783" y2="87.2216" gradientUnits="userSpaceOnUse">
<stop stop-color="#09005D"/>
<stop offset="1" stop-color="#1A0F91"/>
</linearGradient>
<linearGradient id="paint35_linear_679_5082" x1="27.8317" y1="81.0441" x2="19.6585" y2="89.1863" gradientUnits="userSpaceOnUse">
<stop stop-color="#FEBBBA"/>
<stop offset="1" stop-color="#FF928E"/>
</linearGradient>
<linearGradient id="paint36_linear_679_5082" x1="-1792.35" y1="-1850.87" x2="-1762.1" y2="-1818.63" gradientUnits="userSpaceOnUse">
<stop stop-color="#09005D"/>
<stop offset="1" stop-color="#1A0F91"/>
</linearGradient>
<linearGradient id="paint37_linear_679_5082" x1="2607.93" y1="-736.402" x2="2565.94" y2="-722.618" gradientUnits="userSpaceOnUse">
<stop stop-color="#09005D"/>
<stop offset="1" stop-color="#1A0F91"/>
</linearGradient>
<linearGradient id="paint38_linear_679_5082" x1="70.4744" y1="205.315" x2="93.3679" y2="113.854" gradientUnits="userSpaceOnUse">
<stop stop-color="#FEBBBA"/>
<stop offset="1" stop-color="#FF928E"/>
</linearGradient>
<linearGradient id="paint39_linear_679_5082" x1="122.156" y1="93.249" x2="100.403" y2="129.825" gradientUnits="userSpaceOnUse">
<stop stop-color="#09005D"/>
<stop offset="1" stop-color="#1A0F91"/>
</linearGradient>
<linearGradient id="paint40_linear_679_5082" x1="81.5728" y1="147.459" x2="86.1523" y2="79.2354" gradientUnits="userSpaceOnUse">
<stop stop-color="#FEBBBA"/>
<stop offset="1" stop-color="#FF928E"/>
</linearGradient>
<linearGradient id="paint41_linear_679_5082" x1="85.5515" y1="117.562" x2="115.821" y2="117.562" gradientUnits="userSpaceOnUse">
<stop stop-color="#09005D"/>
<stop offset="1" stop-color="#1A0F91"/>
</linearGradient>
<linearGradient id="paint42_linear_679_5082" x1="109.753" y1="85.8844" x2="88.0096" y2="122.453" gradientUnits="userSpaceOnUse">
<stop stop-color="#09005D"/>
<stop offset="1" stop-color="#1A0F91"/>
</linearGradient>
<linearGradient id="paint43_linear_679_5082" x1="106.873" y1="66.9426" x2="102.405" y2="90.3856" gradientUnits="userSpaceOnUse">
<stop stop-color="#09005D"/>
<stop offset="1" stop-color="#1A0F91"/>
</linearGradient>
<linearGradient id="paint44_linear_679_5082" x1="99.497" y1="96.2749" x2="97.6689" y2="84.558" gradientUnits="userSpaceOnUse">
<stop stop-color="#FEBBBA"/>
<stop offset="1" stop-color="#FF928E"/>
</linearGradient>
<linearGradient id="paint45_linear_679_5082" x1="89.5891" y1="83.8485" x2="103.267" y2="79.2392" gradientUnits="userSpaceOnUse">
<stop stop-color="#FEBBBA"/>
<stop offset="1" stop-color="#FF928E"/>
</linearGradient>
<linearGradient id="paint46_linear_679_5082" x1="86.6721" y1="71.6277" x2="102.66" y2="89.329" gradientUnits="userSpaceOnUse">
<stop stop-color="#09005D"/>
<stop offset="1" stop-color="#1A0F91"/>
</linearGradient>
<linearGradient id="paint47_linear_679_5082" x1="89.182" y1="82.6392" x2="102.86" y2="78.0299" gradientUnits="userSpaceOnUse">
<stop stop-color="#FEBBBA"/>
<stop offset="1" stop-color="#FF928E"/>
</linearGradient>
<linearGradient id="paint48_linear_679_5082" x1="106.987" y1="109.58" x2="132.368" y2="109.58" gradientUnits="userSpaceOnUse">
<stop stop-color="#FEBBBA"/>
<stop offset="1" stop-color="#FF928E"/>
</linearGradient>
<linearGradient id="paint49_linear_679_5082" x1="107.464" y1="106.963" x2="91.7186" y2="112.122" gradientUnits="userSpaceOnUse">
<stop stop-color="#09005D"/>
<stop offset="1" stop-color="#1A0F91"/>
</linearGradient>
<linearGradient id="paint50_linear_679_5082" x1="85.8439" y1="96.628" x2="74.492" y2="108.611" gradientUnits="userSpaceOnUse">
<stop stop-color="#09005D"/>
<stop offset="1" stop-color="#1A0F91"/>
</linearGradient>
<linearGradient id="paint51_linear_679_5082" x1="121.329" y1="166.17" x2="121.162" y2="183.933" gradientUnits="userSpaceOnUse">
<stop stop-color="#09005D"/>
<stop offset="1" stop-color="#1A0F91"/>
</linearGradient>
<linearGradient id="paint52_linear_679_5082" x1="125.606" y1="146.332" x2="126.529" y2="139.126" gradientUnits="userSpaceOnUse">
<stop stop-color="#FEBBBA"/>
<stop offset="1" stop-color="#FF928E"/>
</linearGradient>
<linearGradient id="paint53_linear_679_5082" x1="145.303" y1="166.397" x2="145.136" y2="184.16" gradientUnits="userSpaceOnUse">
<stop stop-color="#09005D"/>
<stop offset="1" stop-color="#1A0F91"/>
</linearGradient>
<linearGradient id="paint54_linear_679_5082" x1="145.73" y1="148.802" x2="146.629" y2="141.781" gradientUnits="userSpaceOnUse">
<stop stop-color="#FEBBBA"/>
<stop offset="1" stop-color="#FF928E"/>
</linearGradient>
<linearGradient id="paint55_linear_679_5082" x1="131.61" y1="92.1011" x2="139.937" y2="132.583" gradientUnits="userSpaceOnUse">
<stop stop-color="#09005D"/>
<stop offset="1" stop-color="#1A0F91"/>
</linearGradient>
<linearGradient id="paint56_linear_679_5082" x1="146.272" y1="117.872" x2="145.266" y2="115.862" gradientUnits="userSpaceOnUse">
<stop stop-color="#4F52FF"/>
<stop offset="1" stop-color="#4042E2"/>
</linearGradient>
<linearGradient id="paint57_linear_679_5082" x1="138.949" y1="102.675" x2="126.374" y2="102.675" gradientUnits="userSpaceOnUse">
<stop stop-color="#FEBBBA"/>
<stop offset="1" stop-color="#FF928E"/>
</linearGradient>
<linearGradient id="paint58_linear_679_5082" x1="127.361" y1="86.8924" x2="103.878" y2="86.8924" gradientUnits="userSpaceOnUse">
<stop stop-color="#FEBBBA"/>
<stop offset="1" stop-color="#FF928E"/>
</linearGradient>
<linearGradient id="paint59_linear_679_5082" x1="135.815" y1="73.705" x2="127.632" y2="65.3199" gradientUnits="userSpaceOnUse">
<stop stop-color="#FEBBBA"/>
<stop offset="1" stop-color="#FF928E"/>
</linearGradient>
<linearGradient id="paint60_linear_679_5082" x1="123.963" y1="60.0205" x2="134.168" y2="73.5046" gradientUnits="userSpaceOnUse">
<stop stop-color="#FEBBBA"/>
<stop offset="1" stop-color="#FF928E"/>
</linearGradient>
<linearGradient id="paint61_linear_679_5082" x1="139.495" y1="21.6368" x2="128.721" y2="52.8184" gradientUnits="userSpaceOnUse">
<stop stop-color="#E1473D"/>
<stop offset="1" stop-color="#E9605A"/>
</linearGradient>
<linearGradient id="paint62_linear_679_5082" x1="138.886" y1="70.7062" x2="130.704" y2="62.3211" gradientUnits="userSpaceOnUse">
<stop stop-color="#FEBBBA"/>
<stop offset="1" stop-color="#FF928E"/>
</linearGradient>
<linearGradient id="paint63_linear_679_5082" x1="7.7547" y1="225.671" x2="38.0906" y2="117.625" gradientUnits="userSpaceOnUse">
<stop stop-color="#4F52FF"/>
<stop offset="1" stop-color="#4042E2"/>
</linearGradient>
<linearGradient id="paint64_linear_679_5082" x1="9.33492" y1="226.114" x2="39.6708" y2="118.069" gradientUnits="userSpaceOnUse">
<stop stop-color="#4F52FF"/>
<stop offset="1" stop-color="#4042E2"/>
</linearGradient>
<linearGradient id="paint65_linear_679_5082" x1="92.5394" y1="249.476" x2="122.876" y2="141.431" gradientUnits="userSpaceOnUse">
<stop stop-color="#4F52FF"/>
<stop offset="1" stop-color="#4042E2"/>
</linearGradient>
<linearGradient id="paint66_linear_679_5082" x1="94.1197" y1="249.92" x2="124.456" y2="141.874" gradientUnits="userSpaceOnUse">
<stop stop-color="#4F52FF"/>
<stop offset="1" stop-color="#4042E2"/>
</linearGradient>
<linearGradient id="paint67_linear_679_5082" x1="135.238" y1="77.1731" x2="130.366" y2="97.617" gradientUnits="userSpaceOnUse">
<stop stop-color="#09005D"/>
<stop offset="1" stop-color="#1A0F91"/>
</linearGradient>
<linearGradient id="paint68_linear_679_5082" x1="45.0396" y1="236.115" x2="75.3648" y2="128.088" gradientUnits="userSpaceOnUse">
<stop stop-color="#4F52FF"/>
<stop offset="1" stop-color="#4042E2"/>
</linearGradient>
<clipPath id="clip0_679_5082">
<rect width="152" height="152.029" fill="white" transform="translate(0 0.374512)"/>
</clipPath>
</defs>
</svg>
