<svg width="150" height="150" viewBox="0 0 150 150" fill="none" xmlns="http://www.w3.org/2000/svg">
<g clip-path="url(#clip0_679_4903)">
<path d="M134.21 18.8203C134.186 18.7745 134.136 18.749 134.085 18.7564L132.629 18.9704C132.169 18.4344 131.63 17.9873 131.039 17.6366L131.002 16.1692C131.001 16.1175 130.967 16.0728 130.918 16.0574L129.234 15.5251C129.184 15.5097 129.131 15.5267 129.1 15.5683L128.222 16.7466C127.536 16.694 126.837 16.7498 126.151 16.9234L125.085 15.9121C125.048 15.8764 124.992 15.869 124.946 15.8924L123.378 16.703C123.332 16.7264 123.307 16.777 123.314 16.8275L123.529 18.279C122.991 18.7378 122.543 19.2753 122.191 19.8645L120.719 19.9013C120.667 19.9023 120.622 19.9364 120.607 19.9854L120.073 21.6641C120.058 21.713 120.075 21.7668 120.116 21.7971L121.298 22.6727C121.245 23.3561 121.302 24.0533 121.476 24.7367L120.461 25.7996C120.425 25.8368 120.418 25.8927 120.441 25.9385L121.255 27.5017C121.279 27.5475 121.329 27.573 121.379 27.5656L122.835 27.3516C123.296 27.8876 123.835 28.3347 124.426 28.6854L124.463 30.1528C124.464 30.2044 124.498 30.2492 124.547 30.2646L126.231 30.7968C126.28 30.8123 126.334 30.7952 126.364 30.7537L127.243 29.5753C127.928 29.628 128.628 29.5721 129.313 29.3986L130.379 30.4099C130.417 30.4456 130.473 30.453 130.519 30.4296L132.087 29.619C132.133 29.595 132.158 29.545 132.151 29.4944L131.936 28.043C132.474 27.5842 132.922 27.0466 133.274 26.4574L134.746 26.4207C134.798 26.4197 134.843 26.3856 134.858 26.3366L135.392 24.6579C135.408 24.609 135.39 24.5552 135.349 24.5249L134.167 23.6493C134.22 22.9659 134.164 22.2692 133.99 21.5853L135.004 20.5224C135.04 20.4851 135.047 20.4292 135.024 20.384L134.21 18.8203ZM128.772 24.3301C128.124 24.9033 127.133 24.8437 126.558 24.1981C125.983 23.5519 126.043 22.5641 126.691 21.9908C127.339 21.4176 128.33 21.4772 128.905 22.1228C129.48 22.769 129.42 23.7568 128.772 24.3301Z" fill="#9FCBE4"/>
<path d="M120.124 13.3332C120.111 13.3077 120.083 13.2938 120.055 13.2976L119.246 13.4162C118.99 13.1187 118.691 12.8702 118.363 12.6754L118.343 11.8605C118.342 11.8318 118.323 11.8067 118.296 11.7982L117.36 11.5028C117.333 11.4943 117.303 11.5039 117.286 11.5268L116.798 12.1814C116.417 12.1522 116.029 12.183 115.648 12.2794L115.056 11.7179C115.035 11.6982 115.004 11.6939 114.979 11.7067L114.108 12.157C114.082 12.1703 114.068 12.1979 114.072 12.2261L114.191 13.0325C113.893 13.2874 113.643 13.586 113.448 13.9128L112.631 13.9331C112.602 13.9336 112.577 13.9527 112.568 13.9799L112.272 14.9124C112.263 14.9395 112.273 14.9693 112.296 14.9864L112.952 15.4728C112.923 15.8523 112.954 16.2393 113.051 16.6193L112.487 17.2096C112.468 17.2303 112.463 17.2612 112.476 17.2867L112.928 18.1548C112.941 18.1804 112.969 18.1942 112.997 18.1905L113.806 18.0718C114.062 18.3693 114.361 18.6179 114.689 18.8127L114.71 19.6275C114.71 19.6563 114.729 19.6813 114.757 19.6898L115.692 19.9852C115.719 19.9937 115.749 19.9841 115.766 19.9613L116.254 19.3066C116.635 19.3359 117.023 19.305 117.404 19.2087L117.996 19.7702C118.017 19.7899 118.048 19.7941 118.074 19.7814L118.944 19.3311C118.97 19.3178 118.984 19.2901 118.98 19.2619L118.861 18.4555C119.16 18.2006 119.409 17.902 119.604 17.5752L120.422 17.555C120.451 17.5544 120.476 17.5353 120.484 17.5081L120.78 16.5756C120.789 16.5485 120.779 16.5187 120.756 16.5017L120.1 16.0152C120.13 15.6357 120.099 15.2488 120.002 14.8687L120.565 14.2785C120.585 14.2577 120.589 14.2269 120.576 14.2013L120.124 13.3332ZM117.104 16.3936C116.744 16.7119 116.194 16.6789 115.874 16.3202C115.555 15.9614 115.588 15.4127 115.948 15.0944C116.308 14.7761 116.858 14.8091 117.178 15.1679C117.497 15.5266 117.464 16.0753 117.104 16.3936Z" fill="#9FCBE4"/>
<g opacity="0.3">
<path d="M121.415 38.3475C121.221 38.2964 121.106 38.0989 121.157 37.9057C121.257 37.531 121.341 37.1462 121.408 36.7624C121.442 36.5682 121.626 36.4378 121.82 36.4676L121.827 36.4686C122.024 36.5032 122.156 36.6901 122.122 36.887C122.051 37.291 121.962 37.696 121.858 38.0904C121.81 38.2708 121.634 38.3831 121.453 38.3549C121.44 38.3528 121.427 38.3507 121.415 38.3469V38.3475ZM121.608 34.8719C121.622 34.4828 121.62 34.089 121.601 33.702C121.591 33.503 121.745 33.3332 121.945 33.3236C122.146 33.3146 122.315 33.4678 122.325 33.6669C122.345 34.0741 122.347 34.4887 122.332 34.898C122.325 35.0976 122.157 35.253 121.957 35.2461C121.943 35.2455 121.928 35.244 121.914 35.2418C121.736 35.2141 121.602 35.0566 121.608 34.8719H121.608ZM121.376 31.8152C121.303 31.4336 121.212 31.0504 121.107 30.6768C121.053 30.4846 121.165 30.285 121.358 30.2313C121.551 30.1775 121.75 30.2893 121.805 30.4814C121.916 30.8753 122.011 31.2787 122.088 31.6806C122.125 31.8764 121.996 32.0659 121.8 32.1032C121.758 32.1112 121.716 32.1117 121.676 32.1053C121.529 32.0824 121.406 31.9701 121.376 31.8158V31.8152ZM120.464 28.8868C120.307 28.5308 120.133 28.1773 119.946 27.8362C119.851 27.6611 119.915 27.4418 120.091 27.346C120.267 27.2507 120.487 27.3151 120.583 27.4902C120.779 27.8495 120.962 28.2215 121.127 28.5962C121.208 28.7788 121.125 28.9922 120.941 29.072C120.875 29.1008 120.806 29.1088 120.74 29.0981C120.622 29.08 120.516 29.0034 120.464 28.8863V28.8868ZM118.92 26.2341C118.689 25.9222 118.44 25.6162 118.182 25.324C118.05 25.1739 118.065 24.9461 118.215 24.8141C118.365 24.6821 118.594 24.6965 118.727 24.8466C118.998 25.1542 119.259 25.4762 119.503 25.8041C119.622 25.9643 119.589 26.1905 119.428 26.3092C119.347 26.3688 119.249 26.3901 119.157 26.3757C119.066 26.3619 118.98 26.3134 118.921 26.2336L118.92 26.2341ZM116.826 23.988C116.531 23.7347 116.221 23.4909 115.905 23.2631C115.743 23.1466 115.706 22.9204 115.823 22.7586C115.94 22.5968 116.167 22.56 116.329 22.6771C116.662 22.9166 116.988 23.1732 117.299 23.4398C117.451 23.5702 117.468 23.798 117.338 23.9492C117.253 24.0477 117.127 24.0892 117.007 24.0705C116.943 24.0604 116.88 24.0333 116.827 23.9875L116.826 23.988ZM103.724 20.9303C103.67 20.7382 103.783 20.5386 103.976 20.4853C104.371 20.3752 104.775 20.281 105.179 20.2054C105.376 20.1687 105.565 20.2975 105.603 20.4933C105.64 20.6892 105.51 20.8781 105.314 20.9154C104.931 20.9873 104.546 21.0772 104.171 21.1815C104.12 21.1959 104.067 21.1986 104.018 21.1906C103.882 21.1693 103.764 21.0713 103.725 20.9308L103.724 20.9303ZM114.287 22.262C113.942 22.0805 113.586 21.9118 113.227 21.7606C113.043 21.6829 112.956 21.4711 113.034 21.2869C113.112 21.1033 113.325 21.0181 113.509 21.0948C113.887 21.2539 114.263 21.4317 114.625 21.6228C114.802 21.7159 114.87 21.9346 114.776 22.1108C114.702 22.2508 114.549 22.3221 114.4 22.2992C114.362 22.2934 114.323 22.2806 114.287 22.2614V22.262ZM106.828 20.3507C106.819 20.1516 106.973 19.9824 107.173 19.9728C107.583 19.9536 107.998 19.952 108.408 19.9675C108.609 19.9744 108.765 20.1431 108.757 20.3422C108.749 20.5412 108.58 20.6972 108.381 20.6892C107.99 20.6743 107.595 20.6759 107.207 20.694C107.182 20.6951 107.158 20.694 107.134 20.6903C106.967 20.6642 106.836 20.5247 106.828 20.3502V20.3507ZM111.424 21.1448C111.047 21.0447 110.662 20.9596 110.278 20.892C110.081 20.8574 109.95 20.67 109.985 20.4731C110.019 20.2794 110.202 20.149 110.397 20.1793C110.399 20.1793 110.402 20.1798 110.404 20.1804C110.809 20.2517 111.215 20.3411 111.61 20.446C111.803 20.4976 111.919 20.6956 111.867 20.8883C111.819 21.0682 111.642 21.1805 111.462 21.1522C111.449 21.1501 111.436 21.1475 111.424 21.1443V21.1448Z" fill="#91B3FA"/>
<path d="M101.639 22.0902C101.709 22.1013 101.784 22.0912 101.853 22.0577C102.021 21.9763 102.193 21.8965 102.365 21.8214C102.548 21.7416 102.632 21.5282 102.552 21.3457C102.471 21.1632 102.257 21.0796 102.074 21.16C101.893 21.2393 101.712 21.3228 101.535 21.4085C101.355 21.4958 101.28 21.7123 101.368 21.8911C101.422 22.0018 101.525 22.0726 101.639 22.0902V22.0902Z" fill="#91B3FA"/>
</g>
<g opacity="0.3">
<path d="M94.3872 30.3992C94.5602 30.4258 94.7316 30.3247 94.7871 30.1534C94.8448 29.9762 94.9067 29.7974 94.9719 29.6218C95.0413 29.4345 94.9452 29.2269 94.7578 29.1577C94.5693 29.0886 94.3616 29.1844 94.2922 29.3711C94.2239 29.5563 94.1582 29.7447 94.0973 29.9309C94.0359 30.1209 94.14 30.3242 94.3306 30.3859C94.3493 30.3918 94.368 30.3966 94.3872 30.3992V30.3992Z" fill="#91B3FA"/>
<path d="M104.93 48.5154C104.734 48.475 104.608 48.2844 104.648 48.0886C104.689 47.8932 104.88 47.7676 105.076 47.8075C105.45 47.8842 105.832 47.9459 106.217 47.9928C106.414 48.0162 106.557 48.1966 106.533 48.3946C106.509 48.5926 106.328 48.7336 106.13 48.7097C105.963 48.6895 105.797 48.6666 105.632 48.641C105.397 48.6048 105.161 48.5623 104.93 48.5149V48.5154ZM107.734 48.4579C107.731 48.2583 107.891 48.0944 108.091 48.0912C108.475 48.0854 108.863 48.063 109.244 48.0252C109.443 48.005 109.62 48.1503 109.641 48.3488C109.66 48.5474 109.515 48.7241 109.316 48.7438C108.915 48.7837 108.506 48.8071 108.102 48.8129C108.081 48.8129 108.06 48.8119 108.041 48.8087C107.869 48.7821 107.737 48.6357 107.734 48.4574V48.4579ZM103.028 47.9874C102.648 47.8533 102.268 47.7011 101.9 47.535C101.717 47.4531 101.636 47.2386 101.719 47.0571C101.801 46.8756 102.016 46.7947 102.198 46.8766C102.548 47.0347 102.908 47.179 103.269 47.3062C103.458 47.3727 103.557 47.5792 103.49 47.7671C103.43 47.9337 103.262 48.0295 103.093 48.0034C103.071 48.0002 103.049 47.9944 103.027 47.9869L103.028 47.9874ZM110.826 48.1487C110.779 47.955 110.899 47.7596 111.094 47.7128C111.467 47.6234 111.84 47.5164 112.204 47.3956C112.394 47.3322 112.599 47.435 112.662 47.6244C112.725 47.8139 112.622 48.0183 112.432 48.0811C112.05 48.2083 111.656 48.3206 111.263 48.4148C111.216 48.426 111.168 48.4276 111.123 48.4207C110.982 48.3989 110.862 48.2951 110.826 48.1482L110.826 48.1487ZM100.162 46.6031C99.8212 46.3891 99.4849 46.1576 99.1619 45.9149C99.0022 45.7946 98.9702 45.5684 99.0908 45.4092C99.2115 45.2496 99.4384 45.2182 99.5986 45.3385C99.905 45.5689 100.225 45.7887 100.549 45.9921C100.718 46.0985 100.769 46.3215 100.663 46.4902C100.583 46.6158 100.439 46.676 100.3 46.6547C100.253 46.6472 100.206 46.6302 100.163 46.6031H100.162ZM97.6707 44.6258C97.384 44.3421 97.1064 44.043 96.8448 43.7364C96.715 43.5842 96.7337 43.3564 96.8859 43.227C97.0385 43.0977 97.2671 43.1158 97.3968 43.268C97.6451 43.5592 97.9093 43.8434 98.1816 44.1132C98.3236 44.2537 98.3242 44.4826 98.1832 44.6242C98.0983 44.7093 97.9809 44.7434 97.8704 44.7264C97.7972 44.7152 97.7273 44.6817 97.6707 44.6258V44.6258ZM95.6702 42.154C95.4524 41.8145 95.2468 41.4621 95.0583 41.1066C94.9649 40.9299 95.0327 40.7117 95.21 40.6185C95.3872 40.5254 95.6061 40.593 95.6995 40.7697C95.8784 41.1076 96.0738 41.4424 96.281 41.765C96.3888 41.9332 96.3397 42.1567 96.171 42.2637C96.0936 42.3132 96.0044 42.3297 95.92 42.3164C95.8207 42.3009 95.7284 42.2451 95.6702 42.154V42.154ZM94.2586 39.306C94.1203 38.9276 93.997 38.5385 93.8918 38.15C93.8395 37.9573 93.9537 37.7588 94.147 37.7071C94.3397 37.655 94.5389 37.7689 94.5912 37.9616C94.691 38.3304 94.8085 38.6998 94.9393 39.0596C95.0076 39.2469 94.9104 39.4545 94.7225 39.5226C94.6633 39.5439 94.6019 39.5492 94.5437 39.5402C94.4171 39.5205 94.305 39.4348 94.2586 39.3065V39.306ZM93.5084 36.2169C93.4577 35.8182 93.423 35.4121 93.4065 35.0097C93.3979 34.8101 93.5533 34.6419 93.7535 34.6334C93.9526 34.6249 94.1224 34.7798 94.131 34.9794C94.147 35.3615 94.1795 35.7474 94.2281 36.1264C94.2532 36.3244 94.1128 36.5053 93.9142 36.5303C93.8795 36.5346 93.8453 36.5341 93.8128 36.5293C93.6574 36.5053 93.5298 36.3813 93.509 36.2179L93.5084 36.2169ZM93.4572 33.042C93.4849 32.7472 93.5218 32.4496 93.5672 32.1574C93.5837 32.0515 93.6013 31.9461 93.62 31.8413C93.6553 31.6449 93.8416 31.5097 94.0402 31.5491C94.2372 31.5837 94.3685 31.7716 94.3338 31.9679C94.3162 32.0675 94.2991 32.1675 94.2837 32.2681C94.2404 32.546 94.2052 32.8286 94.179 33.1091C94.1603 33.3076 93.9836 33.454 93.7845 33.4353C93.777 33.4348 93.7695 33.4338 93.762 33.4327C93.5741 33.4034 93.439 33.2331 93.4572 33.042V33.042Z" fill="#91B3FA"/>
<path d="M114.052 47.3618C114.123 47.373 114.198 47.3629 114.268 47.3288C114.444 47.2421 114.621 47.1506 114.795 47.0559C114.971 46.9601 115.036 46.7408 114.939 46.5657C114.843 46.3907 114.623 46.3263 114.448 46.4221C114.282 46.512 114.114 46.5993 113.947 46.6818C113.768 46.7701 113.694 46.9867 113.783 47.1655C113.837 47.2751 113.94 47.3453 114.052 47.3624V47.3618Z" fill="#91B3FA"/>
</g>
<path d="M116.053 41.499C116.107 41.4505 116.124 41.3739 116.095 41.3074L115.292 39.4147C115.843 38.627 116.271 37.7466 116.548 36.7982L118.528 36.2329C118.597 36.2133 118.646 36.1515 118.65 36.0797L118.781 33.618C118.785 33.5462 118.743 33.4796 118.676 33.4525L116.766 32.6807C116.592 31.7083 116.26 30.7876 115.796 29.9466L116.796 28.1497C116.832 28.0869 116.823 28.0087 116.774 27.9549L115.121 26.1219C115.073 26.0681 114.996 26.0511 114.929 26.0793L113.03 26.8798C112.241 26.3311 111.357 25.9042 110.406 25.6285L109.839 23.6544C109.819 23.5852 109.757 23.5363 109.685 23.5325L107.216 23.4016C107.144 23.3979 107.077 23.4399 107.05 23.507L106.275 25.4103C105.3 25.5843 104.376 25.9154 103.533 26.3774L101.73 25.3805C101.667 25.3454 101.589 25.3544 101.535 25.4028L99.6963 27.0507C99.6423 27.0986 99.6252 27.1757 99.6535 27.2417L100.457 29.1344C99.9061 29.9216 99.4779 30.8025 99.2013 31.7509L97.2211 32.3162C97.1517 32.3358 97.1026 32.3976 97.0989 32.4694L96.9675 34.9311C96.9638 35.0029 97.006 35.0695 97.0732 35.0966L98.9824 35.8684C99.157 36.8408 99.4891 37.7615 99.9525 38.6025L98.9525 40.3993C98.9173 40.4622 98.9264 40.5404 98.975 40.5942L100.628 42.4272C100.676 42.481 100.753 42.498 100.82 42.4698L102.718 41.6693C103.508 42.218 104.391 42.6449 105.343 42.9206L105.91 44.8947C105.929 44.9639 105.991 45.0128 106.063 45.0166L108.533 45.1475C108.605 45.1512 108.672 45.1092 108.699 45.0421L109.473 43.1388C110.448 42.9648 111.372 42.6337 112.216 42.1717L114.018 43.1686C114.081 43.2037 114.159 43.1947 114.213 43.1463L116.053 41.499Z" fill="#9FCBE4"/>
<path d="M107.14 36.6407C105.831 36.2363 105.096 34.8464 105.501 33.5415C105.698 32.9094 106.129 32.3916 106.716 32.0829C107.304 31.7743 107.976 31.712 108.611 31.9084C109.92 32.3128 110.655 33.7028 110.249 35.0076C109.88 36.1948 108.692 36.9084 107.495 36.7227C107.377 36.7041 107.258 36.6769 107.14 36.6407V36.6407ZM106.987 32.5943C106.537 32.8311 106.206 33.2281 106.055 33.7129C105.744 34.7133 106.307 35.7792 107.311 36.0889C108.315 36.3991 109.384 35.8372 109.696 34.8368C110.006 33.8363 109.443 32.7705 108.439 32.4608C108.349 32.4326 108.256 32.4118 108.164 32.3974C107.762 32.3352 107.353 32.4028 106.987 32.5949L106.987 32.5943Z" fill="#BDD0FB"/>
<path d="M106.894 40.252C107.1 40.2839 107.308 40.3057 107.519 40.3169C107.585 40.3206 107.651 40.3228 107.718 40.3244C108.045 40.3313 108.373 40.3121 108.695 40.2674C108.699 40.2669 108.704 40.2663 108.708 40.2658C108.721 40.2642 108.733 40.2621 108.746 40.2605C108.77 40.2568 108.794 40.253 108.818 40.2493C108.882 40.2392 108.929 40.1892 108.939 40.129C108.941 40.1141 108.941 40.0992 108.939 40.0838C108.926 40.005 108.851 39.9518 108.772 39.964C108.366 40.029 107.949 40.0508 107.534 40.029C105.475 39.9204 103.719 38.7505 102.772 37.0803C102.246 36.1516 101.969 35.0679 102.03 33.9257C102.041 33.7256 102.061 33.5271 102.092 33.3317C102.297 32.016 102.944 30.8206 103.951 29.9185C105.107 28.8822 106.599 28.3563 108.152 28.4388C111.358 28.6091 113.826 31.3465 113.655 34.5421C113.645 34.739 113.625 34.9349 113.594 35.1286C113.463 35.9679 113.149 36.7695 112.673 37.4742C112.661 37.4923 112.653 37.5125 112.65 37.5327C112.642 37.5865 112.664 37.6424 112.713 37.6748C112.779 37.719 112.869 37.702 112.914 37.636C113.414 36.8962 113.744 36.0547 113.881 35.1733C113.913 34.97 113.935 34.7645 113.945 34.558C114.124 31.2033 111.531 28.3292 108.167 28.1509C106.537 28.0646 104.971 28.6161 103.757 29.704C102.7 30.6508 102.021 31.9058 101.805 33.2876C101.773 33.493 101.751 33.7011 101.74 33.9113C101.654 35.5363 102.207 37.0979 103.298 38.3082C104.248 39.3621 105.508 40.0396 106.893 40.2541L106.894 40.252Z" fill="#BDD0FB"/>
<path d="M7.00417 36.8L140.607 34.5492C145.986 34.4587 150.303 39.0578 149.984 44.5378L145.385 123.376C145.134 127.691 141.652 131.071 137.417 131.113L8.99186 132.379C5.81999 132.411 3.1991 129.861 3.07844 126.626L0.00533732 44.343C-0.146823 40.2708 3.01117 36.8671 7.00417 36.8Z" fill="url(#paint0_linear_679_4903)"/>
<path d="M9.05166 38.8082L139.167 36.667C144.406 36.5808 148.61 40.9564 148.299 46.1702L143.82 121.178C143.575 125.283 140.185 128.499 136.059 128.538L10.9865 129.743C7.89738 129.773 5.34483 127.347 5.22737 124.269L2.23595 45.985C2.08806 42.1108 5.16277 38.8721 9.05166 38.8082Z" fill="#95D7F3"/>
<path d="M4.98981 50.8261C4.75009 50.8261 4.55522 50.6324 4.55469 50.3934C4.55469 50.154 4.74849 49.9592 4.98874 49.9587L145.218 49.6543H145.219C145.459 49.6543 145.654 49.848 145.654 50.0869C145.654 50.3264 145.46 50.5212 145.22 50.5217L4.99035 50.8261H4.98928H4.98981Z" fill="white"/>
<path d="M39.7256 127.058C39.488 127.058 39.2936 126.868 39.2904 126.63L38.0982 42.8464C38.095 42.6069 38.2867 42.41 38.5275 42.4062C38.7726 42.4078 38.9653 42.5941 38.969 42.8342L40.1612 126.618C40.1644 126.857 39.9727 127.054 39.732 127.058H39.7256Z" fill="white"/>
<path d="M77.4047 127.058C77.1644 127.058 76.9695 126.864 76.9695 126.624V41.1352C76.9695 40.8957 77.1644 40.7014 77.4047 40.7014C77.6449 40.7014 77.8398 40.8957 77.8398 41.1352V126.624C77.8398 126.863 77.6449 127.058 77.4047 127.058V127.058Z" fill="white"/>
<path d="M115.006 127.058C114.769 127.058 114.574 126.867 114.571 126.63L113.512 41.141C113.509 40.9015 113.702 40.7045 113.942 40.7019C114.185 40.6944 114.38 40.8908 114.382 41.1303L115.441 126.619C115.444 126.858 115.252 127.055 115.012 127.058H115.006Z" fill="white"/>
<path d="M8.427 46.1284C8.427 47.2437 8.83917 48.1479 9.34744 48.1479H31.8164C32.3247 48.1479 32.7369 47.2437 32.7369 46.1284C32.7369 45.013 32.3247 44.1089 31.8164 44.1089H9.34744C8.83917 44.1089 8.427 45.013 8.427 46.1284Z" fill="#6CC7EE"/>
<path d="M42.9161 46.1284C42.9161 47.2437 43.4196 48.1479 44.041 48.1479H71.5003C72.1213 48.1479 72.6253 47.2437 72.6253 46.1284C72.6253 45.013 72.1218 44.1089 71.5003 44.1089H44.0405C43.4196 44.1089 42.9156 45.013 42.9156 46.1284H42.9161Z" fill="#6CC7EE"/>
<path d="M81.1312 45.8276C81.1312 46.943 81.6544 47.8471 82.2994 47.8471H110.822C111.467 47.8471 111.99 46.943 111.99 45.8276C111.99 44.7122 111.467 43.8081 110.822 43.8081H82.2994C81.6544 43.8081 81.1312 44.7122 81.1312 45.8276V45.8276Z" fill="#6CC7EE"/>
<path d="M118.534 45.8276C118.534 46.943 118.946 47.8471 119.455 47.8471H141.924C142.432 47.8471 142.844 46.943 142.844 45.8276C142.844 44.7122 142.432 43.8081 141.924 43.8081H119.455C118.946 43.8081 118.534 44.7122 118.534 45.8276Z" fill="#6CC7EE"/>
<path d="M143.754 54.3311H117.625C117.355 54.3311 117.137 54.5489 117.137 54.8175V69.6922C117.137 69.9608 117.355 70.1786 117.625 70.1786H143.754C144.023 70.1786 144.242 69.9608 144.242 69.6922V54.8175C144.242 54.5489 144.023 54.3311 143.754 54.3311Z" fill="#6CC7EE"/>
<path d="M108.87 75.2808H85.0671C84.1551 75.2808 83.4158 76.0178 83.4158 76.927V89.4821C83.4158 90.3913 84.1551 91.1283 85.0671 91.1283H108.87C109.782 91.1283 110.521 90.3913 110.521 89.4821V76.927C110.521 76.0178 109.782 75.2808 108.87 75.2808Z" fill="#6CC7EE"/>
<path d="M35.0235 53.7664H8.89417C8.62467 53.7664 8.40619 53.9842 8.40619 54.2528V69.1275C8.40619 69.3961 8.62467 69.6139 8.89417 69.6139H35.0235C35.293 69.6139 35.5115 69.3961 35.5115 69.1275V54.2528C35.5115 53.9842 35.293 53.7664 35.0235 53.7664Z" fill="url(#paint1_linear_679_4903)"/>
<path d="M72.1538 54.3311H46.0244C45.7549 54.3311 45.5364 54.5489 45.5364 54.8175V69.6922C45.5364 69.9608 45.7549 70.1786 46.0244 70.1786H72.1538C72.4233 70.1786 72.6418 69.9608 72.6418 69.6922V54.8175C72.6418 54.5489 72.4233 54.3311 72.1538 54.3311Z" fill="#6CC7EE"/>
<path d="M33.3182 72.4893H9.5156C8.60359 72.4893 7.86426 73.2263 7.86426 74.1355V86.6906C7.86426 87.5998 8.60359 88.3368 9.5156 88.3368H33.3182C34.2303 88.3368 34.9696 87.5998 34.9696 86.6906V74.1355C34.9696 73.2263 34.2303 72.4893 33.3182 72.4893Z" fill="#6CC7EE"/>
<path d="M35.1794 91.2751H9.05005C8.78055 91.2751 8.56207 91.4929 8.56207 91.7616V106.636C8.56207 106.905 8.78055 107.123 9.05005 107.123H35.1794C35.4489 107.123 35.6674 106.905 35.6674 106.636V91.7616C35.6674 91.4929 35.4489 91.2751 35.1794 91.2751Z" fill="#6CC7EE"/>
<path d="M102.808 72.1191C102.808 72.1191 96.3569 80.3535 103.717 88.7278L106.484 88.4708C106.484 88.4708 101.158 79.9442 103.53 73.1474L107.45 73.4327L109.618 72.0244L102.809 72.1191H102.808Z" fill="url(#paint2_linear_679_4903)"/>
<path d="M106.341 112.433C106.341 112.433 111.568 123.79 114.311 128.494C114.311 128.494 114.855 131.454 114.311 132.385L113.847 132.59L116.013 132.526C116.013 132.526 116.205 128.544 116.055 128.322C115.905 128.099 115.604 128.114 115.604 128.114C115.604 128.114 114.675 120.778 111.985 119.212L109.378 110.26L106.342 112.433H106.341Z" fill="url(#paint3_linear_679_4903)"/>
<path d="M112.921 133.147C112.918 133.199 114.612 133.175 115.533 133.159C115.873 133.152 116.163 132.914 116.235 132.583L116.93 128.943C116.997 128.597 116.776 128.26 116.432 128.182L116.044 128.094C116.044 128.094 115.49 128.85 115.664 129.564C115.838 130.276 115.994 132.122 115.553 132.338C115.113 132.553 113.846 132.59 113.846 132.59C113.846 132.59 112.949 132.679 112.92 133.148L112.921 133.147Z" fill="url(#paint4_linear_679_4903)"/>
<path d="M101.387 133.214C101.216 133.311 101.286 133.572 101.484 133.57C103.025 133.554 106.477 133.506 106.784 133.379C107.18 133.215 106.64 131.796 106.071 131.316L102.93 132.338L101.387 133.214V133.214Z" fill="url(#paint5_linear_679_4903)"/>
<path d="M100.412 111.709C100.412 111.709 103.79 127.999 104.745 131.176L102.485 132.591C102.485 132.591 103.618 132.398 104.458 132.338C105.297 132.277 106.07 131.316 106.07 131.316L105.799 130.885C105.799 130.885 104.952 114.684 105.159 112.845L100.412 111.709V111.709Z" fill="url(#paint6_linear_679_4903)"/>
<path d="M92.0275 73.7133C92.0275 73.7133 91.5614 82.1871 99.3002 86.5169L97.4369 90.7531C97.4369 90.7531 90.4306 86.5281 90.6896 75.0056C90.697 74.6751 90.5774 74.3536 90.3607 74.1034L88.8716 72.3811C88.3041 71.7248 88.0922 70.8349 88.303 69.9945L88.499 69.2137C88.5647 68.9524 88.8631 68.8262 89.097 68.9619L89.2528 69.0519C89.7488 69.3388 90.1412 69.7741 90.3751 70.2957L91.106 71.9249C91.3793 72.5338 92.0088 72.9032 92.6751 72.8457L93.1273 72.8069L92.0264 73.7128L92.0275 73.7133Z" fill="url(#paint7_linear_679_4903)"/>
<path d="M99.0311 85.8819C100.326 86.2401 104.712 87.3903 107.45 87.3429L105.769 96.8009L105.903 98.3433L100.421 98.3189C100.421 98.3189 98.8784 94.7464 97.6612 92.965C97.3093 92.4503 97.5715 91.8372 97.7706 91.2469L97.4967 91.0654C97.218 90.8807 97.0974 90.5332 97.2015 90.216L98.5362 86.1448C98.6056 85.9394 98.8224 85.8239 99.0317 85.8819H99.0311Z" fill="#FF6E01"/>
<path d="M99.9821 97.5119L100.09 98.4465C100.09 98.4465 98.5411 103.071 100.865 113.873C100.865 113.873 105.897 115.294 110.033 111.894C110.033 111.894 108.867 101.699 108.548 101.224C106.961 98.8585 105.903 98.3443 105.903 98.3443L105.855 97.3235C105.855 97.3235 101.432 98.1208 99.9826 97.513L99.9821 97.5119Z" fill="url(#paint8_linear_679_4903)"/>
<path d="M102.128 86.6433C102.109 86.6178 103.272 83.1418 103.272 83.1418L104.939 83.2924L105.59 87.2361C105.59 87.2361 102.978 87.7619 102.128 86.6433V86.6433Z" fill="url(#paint9_linear_679_4903)"/>
<path d="M104.54 77.6587C104.429 77.7279 100.978 79.1495 101.72 82.7203C101.764 82.9311 101.905 83.1105 102.102 83.1983C102.608 83.4234 103.698 83.8088 105.002 83.6768C106.81 83.4937 107.994 80.3492 107.944 79.4342C107.894 78.5193 105.641 76.9753 104.54 77.6592V77.6587Z" fill="url(#paint10_linear_679_4903)"/>
<path d="M105.59 76.2708C105.499 76.2825 103.596 76.9435 104.54 78.3183C105.484 79.6931 105.838 80.5026 105.391 81.1062C104.985 81.656 104.084 81.3425 104.162 82.4874C104.178 82.7163 104.079 82.9387 103.888 83.0675C103.039 83.6402 100.968 85.4041 103.02 87.9189C103.186 88.1233 103.221 88.4054 103.093 88.6359C102.491 89.7105 101.229 92.8592 105.8 94.6061C110.317 96.3321 111.948 93.3883 112.403 92.212C112.502 91.9576 112.753 91.8017 113.026 91.8144C113.523 91.8379 114.226 91.7554 114.193 91.0943C114.174 90.6925 113.922 90.3327 113.625 90.0442C113.331 89.7584 113.389 89.2586 113.746 89.0563C114.016 88.9036 114.255 88.6651 114.356 88.2931C114.629 87.2818 114.083 84.2582 111.176 83.7461C110.933 83.7036 110.679 83.4768 110.644 83.2336C110.644 83.2299 110.643 83.2261 110.642 83.2229C110.603 82.9877 110.683 82.7477 110.876 82.6066C111.34 82.267 111.935 81.5836 111.452 80.4877C111.023 79.5159 110.2 79.188 109.589 79.0832C109.231 79.0219 108.995 78.6834 109.071 78.329C109.277 77.3619 109.097 75.813 105.591 76.2713L105.59 76.2708Z" fill="url(#paint11_linear_679_4903)"/>
<path d="M81.4665 55.0075L112.844 54.8106C113.563 54.8063 114.146 55.3529 114.14 56.0257L114.009 72.2538C114.003 72.9303 113.404 73.47 112.682 73.4498L81.6449 72.5764C80.9556 72.5572 80.4046 72.0324 80.3961 71.3868L80.1884 56.2295C80.1793 55.5605 80.7533 55.0128 81.4676 55.008L81.4665 55.0075Z" fill="url(#paint12_linear_679_4903)"/>
<path opacity="0.68" d="M112.721 72.4575L81.6764 71.5841C81.5578 71.5809 81.4634 71.4883 81.4617 71.3738L81.2541 56.216C81.253 56.1564 81.276 56.1032 81.3197 56.0617C81.3614 56.0218 81.4148 56.0005 81.474 56L112.852 55.8025C112.912 55.8025 112.965 55.8238 113.007 55.8632C113.052 55.9047 113.075 55.9584 113.074 56.0175L112.942 72.2451C112.941 72.3622 112.843 72.4569 112.722 72.4569L112.721 72.4575ZM112.852 55.9042V56.0058L81.4746 56.2033L81.6652 71.3706L81.6817 71.3807L112.724 72.2542L112.87 56.0165L112.852 55.9042V55.9042Z" fill="white"/>
<path opacity="0.85" d="M86.1061 58.0405C86.1061 58.5636 86.3527 58.9877 86.6565 58.9877H106.865C107.169 58.9877 107.415 58.5636 107.415 58.0405C107.415 57.5174 107.169 57.0933 106.865 57.0933H86.6565C86.3522 57.0933 86.1061 57.5174 86.1061 58.0405Z" fill="white"/>
<g opacity="0.85">
<path d="M93.2235 70.7639L92.1525 70.1364C92.0024 70.0481 91.925 69.8746 91.9592 69.7042L92.1295 68.8649C91.8481 68.5764 91.6042 68.2549 91.4029 67.9047L90.5449 67.8377C90.3709 67.8228 90.2251 67.7014 90.1813 67.5332L89.869 66.3351C89.8252 66.167 89.8935 65.9892 90.0388 65.8928L90.7553 65.4191C90.7606 65.0152 90.8161 64.616 90.9218 64.2275L90.3639 63.577C90.2502 63.4451 90.2331 63.255 90.3217 63.1044L90.9507 62.0378C91.0393 61.8877 91.2144 61.81 91.3847 61.8441L92.2272 62.0138C92.5166 61.7328 92.8396 61.4901 93.1904 61.2895L93.2576 60.4347C93.2715 60.2612 93.3938 60.1153 93.563 60.0717L94.7643 59.7609C94.9335 59.7172 95.1118 59.7853 95.2085 59.9301L95.6842 60.6444C96.0889 60.6497 96.4898 60.7051 96.8796 60.8104L97.532 60.2543C97.6644 60.1409 97.855 60.1238 98.0061 60.2122L99.076 60.8392C99.2266 60.927 99.3045 61.1011 99.2704 61.2719L99.1 62.1113C99.3819 62.3997 99.6254 62.7217 99.8267 63.0714L100.683 63.1379C100.857 63.1491 101.004 63.2731 101.048 63.4424L101.36 64.6399C101.404 64.8081 101.335 64.9864 101.19 65.0828L100.474 65.557C100.468 65.9604 100.413 66.3602 100.307 66.7487L100.865 67.3996C100.979 67.5316 100.996 67.7216 100.907 67.8717L100.278 68.9389C100.19 69.0895 100.015 69.1645 99.8443 69.1321L99.0023 68.9623C98.713 69.2428 98.39 69.486 98.0392 69.6867L97.9725 70.5409C97.9586 70.7144 97.8363 70.8603 97.6671 70.9045L96.4658 71.2153C96.2971 71.2589 96.1188 71.1913 96.0216 71.046L95.5459 70.3318C95.1412 70.3264 94.7402 70.2711 94.3505 70.1657L93.6976 70.7224C93.6041 70.8023 93.4819 70.8337 93.3649 70.8145C93.3164 70.8065 93.2688 70.7895 93.2245 70.7639H93.2235ZM94.3687 69.4977C94.8033 69.6324 95.2549 69.6952 95.7114 69.684L95.8903 69.6798L96.4669 70.5463L97.3382 70.3211L97.4193 69.2843L97.5779 69.2013C97.9821 68.9894 98.3462 68.7153 98.6601 68.3875L98.7834 68.2581L99.8053 68.4641L100.261 67.6908L99.5837 66.9009L99.6371 66.7306C99.7722 66.2979 99.8352 65.8476 99.824 65.3925L99.8197 65.2142L100.689 64.6389L100.463 63.7708L99.423 63.6894L99.3398 63.5313C99.1273 63.1284 98.8528 62.7654 98.5234 62.4524L98.3937 62.3295L98.6003 61.3108L97.8246 60.8562L97.0323 61.5316L96.8614 61.4784C96.4274 61.3438 95.9757 61.2809 95.5192 61.2921L95.3403 61.2964L94.7632 60.4299L93.8924 60.6556L93.8113 61.6924L93.6527 61.7754C93.2485 61.9872 92.8844 62.2613 92.5705 62.5892L92.4472 62.7185L91.4253 62.5126L90.9693 63.2859L91.6469 64.0758L91.5935 64.2461C91.4584 64.6788 91.3954 65.1291 91.4066 65.5841L91.4109 65.7624L90.5417 66.3378L90.7681 67.2059L91.8081 67.2868L91.8914 67.4449C92.1039 67.8478 92.3788 68.2108 92.7077 68.5237L92.8374 68.6467L92.6308 69.6654L93.4066 70.1199L94.1989 69.4445L94.3697 69.4972L94.3687 69.4977ZM99.974 68.4976C99.974 68.4976 99.973 68.4976 99.9724 68.4976H99.974ZM100.632 63.7836C100.632 63.7836 100.632 63.7836 100.633 63.7836H100.632ZM93.9586 68.3364C93.4397 68.0325 93.0142 67.5944 92.7275 67.0707C92.6415 66.9137 92.6997 66.7173 92.8572 66.6316C93.0147 66.5459 93.2117 66.6039 93.2971 66.7604C93.5278 67.1819 93.87 67.5338 94.2875 67.7781C94.9026 68.1384 95.6212 68.2384 96.312 68.0596C97.0024 67.8808 97.5816 67.4449 97.9431 66.8317C98.3045 66.2186 98.4049 65.5022 98.2255 64.8134C98.0461 64.1253 97.6089 63.5478 96.9938 63.1874C96.3788 62.8271 95.6602 62.7271 94.9693 62.9059C94.279 63.0847 93.6997 63.5206 93.3382 64.1338C93.2416 64.2977 93.1626 64.4718 93.1033 64.6506C93.0473 64.8204 92.8636 64.913 92.6933 64.856C92.523 64.8001 92.4306 64.6171 92.4872 64.4473C92.5609 64.2253 92.6591 64.0092 92.7787 63.8059C93.2283 63.0437 93.948 62.5019 94.8065 62.28C95.665 62.0575 96.5582 62.182 97.3227 62.6302C98.0872 63.0783 98.6307 63.7958 98.8534 64.6517C99.076 65.507 98.9516 66.3979 98.5021 67.1601C98.0525 67.9223 97.3328 68.4641 96.4743 68.6861C96.0179 68.8042 95.5518 68.8244 95.1001 68.7499C94.7023 68.6845 94.3158 68.5455 93.9581 68.3358L93.9586 68.3364Z" fill="white"/>
<path d="M94.6127 66.4997C94.3414 66.2331 94.1909 65.8766 94.1882 65.4972C94.1855 65.1172 94.3318 64.7596 94.5993 64.4888C94.8668 64.2184 95.224 64.0684 95.6052 64.0657C95.9864 64.063 96.3451 64.2089 96.6169 64.4755C97.177 65.0262 97.1828 65.9282 96.6302 66.4864C96.2923 66.8281 95.8225 66.9627 95.3804 66.8898C95.0996 66.8435 94.8305 66.7137 94.6127 66.5003V66.4997ZM95.6094 64.7123C95.4018 64.7139 95.2069 64.7958 95.0611 64.9432C94.9154 65.0906 94.8358 65.2859 94.8369 65.4929C94.8385 65.6999 94.9207 65.8942 95.0686 66.0394C95.374 66.3401 95.8673 66.3364 96.1684 66.032C96.4695 65.7276 96.4663 65.2359 96.1609 64.9358C96.0451 64.8219 95.9004 64.7484 95.7429 64.7229C95.6991 64.7155 95.6543 64.7123 95.6094 64.7123V64.7123Z" fill="white"/>
<path d="M104.436 66.7961L104.33 66.4449C104.168 66.39 104.013 66.3187 103.867 66.2314L103.53 66.3783C103.419 66.4268 103.289 66.3996 103.207 66.3107L102.803 65.8727C102.721 65.7838 102.704 65.6529 102.761 65.547L102.936 65.2244C102.861 65.0722 102.802 64.9125 102.76 64.747L102.418 64.6134C102.305 64.5692 102.232 64.4585 102.238 64.3382L102.262 63.7432C102.267 63.6229 102.348 63.5191 102.465 63.4835L102.817 63.3781C102.872 63.2168 102.944 63.0625 103.031 62.9166L102.884 62.5813C102.835 62.4706 102.862 62.3413 102.952 62.2588L103.391 61.8548C103.481 61.7734 103.612 61.7574 103.718 61.8143L104.041 61.9884C104.194 61.9133 104.355 61.8548 104.52 61.8133L104.654 61.4716C104.698 61.3598 104.809 61.2874 104.93 61.2917L105.525 61.3156C105.647 61.3215 105.752 61.4008 105.787 61.5174L105.893 61.8686C106.055 61.9235 106.209 61.9948 106.356 62.0821L106.691 61.9357C106.801 61.8862 106.932 61.9128 107.016 62.0022L107.42 62.4403C107.502 62.5291 107.519 62.6601 107.461 62.7665L107.287 63.0891C107.362 63.2413 107.421 63.4015 107.462 63.5665L107.805 63.7001C107.918 63.7443 107.99 63.855 107.985 63.9753L107.961 64.5698C107.956 64.6911 107.874 64.7954 107.758 64.8295L107.406 64.9349C107.351 65.0962 107.279 65.2505 107.192 65.3963L107.339 65.7317C107.388 65.8429 107.36 65.9728 107.271 66.0542L106.832 66.4576C106.743 66.5396 106.611 66.5561 106.505 66.4986L106.182 66.3246C106.028 66.3996 105.868 66.4582 105.703 66.4997L105.569 66.8414C105.524 66.9542 105.413 67.0266 105.293 67.0213L104.695 66.9973C104.684 66.9973 104.673 66.9957 104.662 66.9941C104.555 66.9766 104.467 66.8999 104.436 66.7961V66.7961ZM105.346 66.0787L105.478 66.0537C105.684 66.0143 105.881 65.9424 106.064 65.8397L106.181 65.7737L106.61 66.0042L106.837 65.7961L106.641 65.3511L106.717 65.2404C106.834 65.068 106.922 64.8779 106.978 64.6762L107.014 64.5474L107.481 64.408L107.494 64.1009L107.04 63.9242L107.014 63.7927C106.975 63.5867 106.903 63.3903 106.8 63.2088L106.734 63.0923L106.965 62.6643L106.756 62.4381L106.309 62.6329L106.198 62.5579C106.025 62.4403 105.835 62.353 105.632 62.2971L105.502 62.2614L105.363 61.7957L105.055 61.7835L104.877 62.2364L104.745 62.2614C104.539 62.3008 104.342 62.3727 104.159 62.4754L104.042 62.5414L103.613 62.3109L103.386 62.519L103.582 62.964L103.506 63.0747C103.389 63.2471 103.301 63.4372 103.245 63.6389L103.209 63.7677L102.742 63.9071L102.729 64.2142L103.183 64.3909L103.208 64.5224C103.248 64.7278 103.32 64.9243 103.423 65.1057L103.489 65.2223L103.258 65.6502L103.467 65.8764L103.913 65.6816L104.024 65.7567C104.198 65.8738 104.388 65.9616 104.59 66.0175L104.719 66.0531L104.859 66.5189L105.167 66.5311L105.345 66.0782L105.346 66.0787ZM105.312 66.5375H105.314C105.314 66.5375 105.313 66.5375 105.312 66.5375ZM106.737 66.0723C106.737 66.0723 106.737 66.0723 106.736 66.0723H106.737ZM106.941 65.6992L106.943 65.6976C106.943 65.6976 106.942 65.6987 106.941 65.6992ZM107.618 64.3665H107.62C107.62 64.3665 107.619 64.3665 107.618 64.3665ZM106.885 62.3817C106.885 62.3817 106.887 62.3812 106.887 62.3807L106.885 62.3817ZM105.505 61.801C105.505 61.801 105.506 61.801 105.506 61.801H105.505ZM103.886 65.2968C103.679 65.0733 103.537 64.7981 103.475 64.5016C103.448 64.3702 103.532 64.2419 103.664 64.2148C103.796 64.1876 103.925 64.2722 103.952 64.4032C103.996 64.6134 104.097 64.8093 104.244 64.9684C104.461 65.2031 104.756 65.3394 105.076 65.3522C105.396 65.3649 105.701 65.2532 105.936 65.0371C106.421 64.5911 106.452 63.8347 106.005 63.3504C105.788 63.1162 105.493 62.98 105.173 62.9667C104.854 62.9539 104.548 63.0657 104.313 63.2817C104.25 63.3398 104.193 63.4042 104.145 63.4728C104.067 63.5825 103.916 63.6085 103.806 63.5314C103.696 63.4542 103.67 63.303 103.747 63.1934C103.815 63.0965 103.895 63.006 103.984 62.9246C104.314 62.6207 104.744 62.4637 105.193 62.4818C105.643 62.4993 106.058 62.6915 106.363 63.0215C106.993 63.7022 106.949 64.7662 106.266 65.3937C105.935 65.6976 105.506 65.8546 105.056 65.8365C104.986 65.8339 104.916 65.8264 104.847 65.8152C104.479 65.7545 104.143 65.5747 103.886 65.2968H103.886Z" fill="white"/>
</g>
<path d="M31.0993 17.8115C31.1015 17.7455 31.1031 17.6848 31.1047 17.6322C31.1084 17.4837 31.0476 17.3421 30.936 17.2437C30.2836 16.6663 27.8415 14.6868 24.4022 14.0844C24.2169 14.0519 24.0567 14.136 23.967 14.2685C24.2537 14.3015 24.6376 14.3723 25.156 14.5048C26.857 14.9401 29.3327 16.1102 31.0993 17.8115V17.8115Z" fill="url(#paint13_linear_679_4903)"/>
<path d="M25.1555 14.5044C24.6376 14.3719 24.2532 14.3011 23.9665 14.2681C23.8763 14.4011 23.8581 14.5826 23.958 14.7434C24.014 14.8338 24.0834 14.9312 24.1678 15.0361C24.7092 15.7046 29.0791 20.1259 29.0791 20.1259C29.0791 20.1259 30.4598 20.2862 30.8799 20.0403C31.0161 19.9604 31.0764 18.5324 31.0978 17.8123C29.3311 16.1107 26.8549 14.9403 25.1544 14.5049L25.1555 14.5044Z" fill="url(#paint14_linear_679_4903)"/>
<path d="M30.9589 22.4293L30.9445 19.7824C30.9435 19.5584 30.7993 19.3578 30.5847 19.2902C30.2547 19.1864 29.747 19.0906 29.2873 19.2652C29.0177 19.3674 28.8372 19.6244 28.8159 19.9112L28.6312 22.3846L30.9584 22.4293H30.9589Z" fill="url(#paint15_linear_679_4903)"/>
<path d="M20.4135 20.1424C20.3809 20.0381 20.3195 19.9514 20.2405 19.887C19.6836 19.9998 18.5246 20.3121 16.1503 21.162C13.3981 22.1475 12.5956 22.9989 12.3655 23.4534C13.5492 23.7918 16.2368 24.3043 20.0851 23.5332L20.8443 23.1735C20.8443 23.1735 20.7808 21.3243 20.414 20.1424H20.4135Z" fill="url(#paint16_linear_679_4903)"/>
<path d="M16.1503 21.1619C18.5245 20.3121 19.6836 19.9997 20.2405 19.8869C20.1171 19.7858 19.9516 19.74 19.7851 19.7757C18.4172 20.0673 14.2843 21.0603 12.1317 22.8195C11.9165 22.9951 11.9817 23.3389 12.2481 23.4193C12.2854 23.4304 12.3249 23.4421 12.3661 23.4538C12.5962 22.9994 13.3986 22.1474 16.1508 21.1624L16.1503 21.1619Z" fill="url(#paint17_linear_679_4903)"/>
<path d="M22.2778 24.7652L20.6468 22.8383C20.4877 22.6504 20.2309 22.5775 19.997 22.6552C19.7381 22.7414 19.3943 22.9186 19.0627 23.2821C18.9079 23.4513 18.8791 23.7014 18.9853 23.9042L20.177 26.1753L22.2778 24.7657V24.7652Z" fill="url(#paint18_linear_679_4903)"/>
<path d="M28.2719 21.5224C28.2719 21.5224 30.2473 21.1333 31.3471 21.5059C31.3471 21.5059 32.8404 30.1517 32.6071 32.9358L28.3386 33.8247C28.3386 33.8247 28.164 24.075 28.2719 21.5224V21.5224Z" fill="#007CBA"/>
<path d="M45.8915 36.5904C45.8915 36.5904 31.9226 37.4479 26.2489 37.0886C25.6932 37.0535 25.1988 36.7283 24.9473 36.2333C23.7183 33.8143 20.0339 26.5544 19.7103 25.8615C19.7103 25.8615 21.1844 24.6203 22.2768 24.4441C22.2768 24.4441 27.4833 30.1556 27.7156 33.083C27.7156 33.083 39.6817 29.5818 40.8659 29.6079C42.0496 29.634 45.6886 31.2291 45.6886 31.2291L45.892 36.591L45.8915 36.5904Z" fill="#007CBA"/>
<path d="M64.4593 25.6321C64.4593 25.6321 63.9409 24.5724 64.3824 24.0092C64.8239 23.4461 66.4176 21.702 66.4176 21.702L66.5975 20.5012L67.267 22.4514L65.8693 25.4064C65.8693 25.4064 65.0466 26.3032 64.4593 25.6321V25.6321Z" fill="url(#paint19_linear_679_4903)"/>
<path d="M68.0764 30.5557C67.5489 28.7445 66.8266 27.0221 65.8693 25.4062L64.4593 25.6319L65.1822 30.5046C65.7155 30.6622 67.1709 31.0204 68.0764 30.5557Z" fill="url(#paint20_linear_679_4903)"/>
<path d="M69.0155 35.299C68.826 33.6613 68.5195 32.0773 68.0759 30.5556C67.1698 31.0208 65.715 30.6626 65.1816 30.5045L65.3893 31.9038L64.8442 30.0207C64.1811 27.7305 62.7866 25.7186 60.872 24.2906L59.5383 23.2958C58.2282 22.3186 56.1433 22.6699 54.8171 23.6258C51.8727 25.7479 47.5043 29.3027 46.0132 30.5253C45.6923 30.7882 45.2518 30.8489 44.8712 30.6834L44.6208 30.5743C44.3837 30.471 44.1243 30.6631 44.1542 30.9192L44.8215 36.7126L54.9751 36.5407C56.193 36.5343 59.7188 36.3901 60.2741 35.3096L61.2004 33.0072C63.4107 34.861 66.2403 36.1272 67.7545 36.4923C68.4523 36.6605 69.1025 36.0505 69.0155 35.2985V35.299Z" fill="#FF6E01"/>
<path d="M61.8015 20.1748L58.6964 23.2145C58.4892 23.4172 58.4716 23.7462 58.6596 23.9665C59.6286 25.105 60.4582 25.7 61.1454 25.7415C61.4369 25.7591 61.7118 25.6042 61.8672 25.3578L63.5121 22.7408L61.8015 20.1748V20.1748Z" fill="url(#paint21_linear_679_4903)"/>
<path d="M68.1832 35.036L70.8628 33.9797L73.9978 36.4382L68.4079 36.4893L68.1832 35.036Z" fill="url(#paint22_linear_679_4903)"/>
<path d="M67.0321 19.4474C67.0321 19.4474 66.6226 22.4354 65.4769 23.3599C64.3311 24.2844 62.0856 23.6053 61.3162 21.3582L62.8042 17.501L67.0321 19.4469V19.4474Z" fill="url(#paint23_linear_679_4903)"/>
<path d="M62.6478 19.9927C62.7354 20.0204 62.8266 19.9639 62.84 19.8735C62.88 19.5978 62.9809 19.0517 63.1886 18.6791C63.1886 18.6791 63.0765 18.2879 64.1827 18.8739C65.289 19.4599 66.9505 20.32 67.9227 19.7974C68.8709 19.2875 69.8201 16.7423 67.3098 17.2266C67.2142 17.2452 67.1261 17.1697 67.1325 17.0728C67.1613 16.655 67.1144 15.6948 66.1368 15.392C65.2222 15.1083 64.7246 15.5218 64.5202 15.7709C64.4598 15.8444 64.3477 15.8433 64.2895 15.7683C64.014 15.4138 63.2671 14.6601 62.1764 15.1466C61.2778 15.5474 61.1406 16.1009 61.1577 16.4453C61.163 16.557 61.0498 16.6332 60.9479 16.5869C60.6713 16.4618 60.2271 16.3984 59.8053 16.9312C59.2218 17.6684 60.0648 18.3002 60.3179 18.4657C60.3595 18.4928 60.3851 18.5381 60.3857 18.5876C60.39 18.9692 60.4588 20.6335 61.3008 21.5681C61.3739 21.649 61.5074 21.6245 61.549 21.524L62.1849 19.99C62.2143 19.9187 62.2938 19.882 62.3675 19.9054L62.6478 19.9938V19.9927Z" fill="url(#paint24_linear_679_4903)"/>
<path d="M62.6632 20.3035C62.6632 20.3035 62.2612 18.7082 61.6659 19.2302C61.0712 19.7522 61.8309 20.8894 62.517 21.1033L62.6632 20.3035Z" fill="url(#paint25_linear_679_4903)"/>
<path d="M58.2042 27.0679C58.2042 27.0679 58.3046 23.3704 56.7808 23.3044C54.8887 23.2224 51.8556 24.6052 53.6949 30.0133C54.7109 33.0014 56.2304 35.2139 60.3723 36.1326C60.5656 34.6146 61.2495 33.5538 61.7557 32.9551C60.0637 31.7799 58.6254 29.9426 58.2037 27.0674L58.2042 27.0679Z" fill="#FF6E01"/>
<path d="M61.5661 32.9669C61.5367 32.9669 61.5068 32.9584 61.4807 32.9403C59.5325 31.5873 58.4444 29.7276 58.0574 27.0893C58.0563 27.0808 58.0557 27.0723 58.0557 27.0638C58.0824 26.0759 57.9036 23.5009 56.7739 23.4519C56.2277 23.4285 55.6554 23.5339 55.1626 23.75C55.0878 23.783 55.0003 23.7489 54.9672 23.6744C54.9341 23.5999 54.9682 23.5126 55.0435 23.4796C55.5774 23.246 56.1962 23.1326 56.7872 23.1571C58.406 23.2273 58.359 26.7742 58.3526 27.059C58.729 29.6047 59.777 31.3973 61.6505 32.6981C61.7177 32.7449 61.7343 32.837 61.6873 32.9041C61.6585 32.9451 61.6131 32.9669 61.5661 32.9674V32.9669Z" fill="url(#paint26_linear_679_4903)"/>
<path d="M59.0547 35.9166C59.0387 35.9166 59.0221 35.9139 59.0061 35.9086C55.5673 34.7462 54.3537 32.4112 53.5545 30.0614C53.3735 29.5291 53.2331 29.016 53.1375 28.5365C53.1215 28.4567 53.1738 28.379 53.2539 28.363C53.3345 28.347 53.4125 28.3992 53.428 28.479C53.5214 28.9458 53.6581 29.4461 53.8348 29.9666C54.6095 32.2452 55.784 34.5077 59.1006 35.6292C59.178 35.6553 59.2197 35.7394 59.1935 35.8165C59.1727 35.8777 59.1155 35.9166 59.0542 35.9166H59.0547Z" fill="url(#paint27_linear_679_4903)"/>
<path d="M68.951 36.465L68.9371 35.0315C68.9371 35.0315 64.9062 35.1421 61.7562 32.9556C61.2495 33.5542 60.5656 34.6148 60.3729 36.1325C62.4689 36.597 65.2361 36.7311 68.951 36.4656V36.465Z" fill="url(#paint28_linear_679_4903)"/>
<path d="M63.7861 36.9939C63.7957 36.9939 63.8058 36.9944 63.8154 36.9939L76.6374 36.9109C76.9546 36.9087 77.2098 36.6512 77.2076 36.3351C77.2055 36.019 76.946 35.7593 76.63 35.7668L63.8079 35.8498C63.4908 35.8519 63.2356 36.1095 63.2377 36.4256C63.2399 36.7315 63.4828 36.98 63.7861 36.9933V36.9939Z" fill="url(#paint29_linear_679_4903)"/>
<path d="M88.1007 25.2566L77.4223 25.3141C76.6348 25.3184 75.9199 25.7756 75.5878 26.4877L70.708 36.9495L83.9785 36.8777C84.4862 36.875 84.9406 36.5631 85.1248 36.0915L88.9005 26.4143C89.1188 25.8549 88.7029 25.2529 88.1012 25.2561L88.1007 25.2566Z" fill="url(#paint30_linear_679_4903)"/>
<path d="M80.607 30.6475C80.3795 31.3653 80.5541 32.0603 80.9972 32.1997C81.4404 32.3392 81.9839 31.8703 82.2113 31.1525C82.4388 30.4346 82.2642 29.7396 81.821 29.6002C81.3779 29.4608 80.8344 29.9296 80.607 30.6475Z" fill="#91B3FA"/>
</g>
<defs>
<linearGradient id="paint0_linear_679_4903" x1="134.316" y1="36.9475" x2="16.3846" y2="127.02" gradientUnits="userSpaceOnUse">
<stop stop-color="#09005D"/>
<stop offset="1" stop-color="#1A0F91"/>
</linearGradient>
<linearGradient id="paint1_linear_679_4903" x1="36.2285" y1="49.4967" x2="4.98499" y2="76.3599" gradientUnits="userSpaceOnUse">
<stop stop-color="#FEBBBA"/>
<stop offset="1" stop-color="#FF928E"/>
</linearGradient>
<linearGradient id="paint2_linear_679_4903" x1="107.323" y1="71.0712" x2="102.712" y2="85.2495" gradientUnits="userSpaceOnUse">
<stop stop-color="#FEBBBA"/>
<stop offset="1" stop-color="#FF928E"/>
</linearGradient>
<linearGradient id="paint3_linear_679_4903" x1="106.341" y1="121.425" x2="116.112" y2="121.425" gradientUnits="userSpaceOnUse">
<stop stop-color="#FEBBBA"/>
<stop offset="1" stop-color="#FF928E"/>
</linearGradient>
<linearGradient id="paint4_linear_679_4903" x1="119.771" y1="99.6475" x2="114.964" y2="131.001" gradientUnits="userSpaceOnUse">
<stop stop-color="#4F52FF"/>
<stop offset="1" stop-color="#4042E2"/>
</linearGradient>
<linearGradient id="paint5_linear_679_4903" x1="109.533" y1="98.0782" x2="104.725" y2="129.432" gradientUnits="userSpaceOnUse">
<stop stop-color="#4F52FF"/>
<stop offset="1" stop-color="#4042E2"/>
</linearGradient>
<linearGradient id="paint6_linear_679_4903" x1="100.412" y1="122.149" x2="106.07" y2="122.149" gradientUnits="userSpaceOnUse">
<stop stop-color="#FEBBBA"/>
<stop offset="1" stop-color="#FF928E"/>
</linearGradient>
<linearGradient id="paint7_linear_679_4903" x1="88.2235" y1="79.8298" x2="99.3002" y2="79.8298" gradientUnits="userSpaceOnUse">
<stop stop-color="#FEBBBA"/>
<stop offset="1" stop-color="#FF928E"/>
</linearGradient>
<linearGradient id="paint8_linear_679_4903" x1="95.4167" y1="96.6672" x2="113.499" y2="117.124" gradientUnits="userSpaceOnUse">
<stop stop-color="#09005D"/>
<stop offset="1" stop-color="#1A0F91"/>
</linearGradient>
<linearGradient id="paint9_linear_679_4903" x1="102.127" y1="85.2507" x2="105.59" y2="85.2507" gradientUnits="userSpaceOnUse">
<stop stop-color="#FEBBBA"/>
<stop offset="1" stop-color="#FF928E"/>
</linearGradient>
<linearGradient id="paint10_linear_679_4903" x1="107.631" y1="80.7904" x2="132.832" y2="82.5095" gradientUnits="userSpaceOnUse">
<stop stop-color="#FEBBBA"/>
<stop offset="1" stop-color="#FF928E"/>
</linearGradient>
<linearGradient id="paint11_linear_679_4903" x1="111.773" y1="79.2764" x2="102.945" y2="96.9858" gradientUnits="userSpaceOnUse">
<stop stop-color="#09005D"/>
<stop offset="1" stop-color="#1A0F91"/>
</linearGradient>
<linearGradient id="paint12_linear_679_4903" x1="116.798" y1="51.7118" x2="83.9814" y2="72.693" gradientUnits="userSpaceOnUse">
<stop stop-color="#FF928E"/>
<stop offset="1" stop-color="#FE7062"/>
</linearGradient>
<linearGradient id="paint13_linear_679_4903" x1="23.9761" y1="15.9639" x2="31.095" y2="15.9253" gradientUnits="userSpaceOnUse">
<stop stop-color="#4F52FF"/>
<stop offset="1" stop-color="#4042E2"/>
</linearGradient>
<linearGradient id="paint14_linear_679_4903" x1="23.9057" y1="17.2384" x2="31.0955" y2="17.1994" gradientUnits="userSpaceOnUse">
<stop stop-color="#09005D"/>
<stop offset="1" stop-color="#1A0F91"/>
</linearGradient>
<linearGradient id="paint15_linear_679_4903" x1="29.2234" y1="17.3569" x2="31.1581" y2="30.1523" gradientUnits="userSpaceOnUse">
<stop stop-color="#FEBBBA"/>
<stop offset="1" stop-color="#FF928E"/>
</linearGradient>
<linearGradient id="paint16_linear_679_4903" x1="12.3573" y1="21.9426" x2="20.837" y2="21.8966" gradientUnits="userSpaceOnUse">
<stop stop-color="#09005D"/>
<stop offset="1" stop-color="#1A0F91"/>
</linearGradient>
<linearGradient id="paint17_linear_679_4903" x1="11.9946" y1="21.63" x2="20.2496" y2="21.5852" gradientUnits="userSpaceOnUse">
<stop stop-color="#4F52FF"/>
<stop offset="1" stop-color="#4042E2"/>
</linearGradient>
<linearGradient id="paint18_linear_679_4903" x1="19.7721" y1="18.7869" x2="21.7068" y2="31.5824" gradientUnits="userSpaceOnUse">
<stop stop-color="#FEBBBA"/>
<stop offset="1" stop-color="#FF928E"/>
</linearGradient>
<linearGradient id="paint19_linear_679_4903" x1="64.1954" y1="23.199" x2="67.2695" y2="23.1823" gradientUnits="userSpaceOnUse">
<stop stop-color="#FEBBBA"/>
<stop offset="1" stop-color="#FF928E"/>
</linearGradient>
<linearGradient id="paint20_linear_679_4903" x1="64.4719" y1="28.1053" x2="68.0623" y2="28.0858" gradientUnits="userSpaceOnUse">
<stop stop-color="#FEBBBA"/>
<stop offset="1" stop-color="#FF928E"/>
</linearGradient>
<linearGradient id="paint21_linear_679_4903" x1="64.4059" y1="16.8362" x2="59.2968" y2="26.3544" gradientUnits="userSpaceOnUse">
<stop stop-color="#FEBBBA"/>
<stop offset="1" stop-color="#FF928E"/>
</linearGradient>
<linearGradient id="paint22_linear_679_4903" x1="74.577" y1="32.8153" x2="61.2968" y2="44.0105" gradientUnits="userSpaceOnUse">
<stop stop-color="#FEBBBA"/>
<stop offset="1" stop-color="#FF928E"/>
</linearGradient>
<linearGradient id="paint23_linear_679_4903" x1="64.8645" y1="22.6296" x2="63.0629" y2="16.7847" gradientUnits="userSpaceOnUse">
<stop stop-color="#FEBBBA"/>
<stop offset="1" stop-color="#FF928E"/>
</linearGradient>
<linearGradient id="paint24_linear_679_4903" x1="63.1997" y1="11.8938" x2="64.8956" y2="21.295" gradientUnits="userSpaceOnUse">
<stop stop-color="#09005D"/>
<stop offset="1" stop-color="#1A0F91"/>
</linearGradient>
<linearGradient id="paint25_linear_679_4903" x1="63.024" y1="23.196" x2="61.2231" y2="17.352" gradientUnits="userSpaceOnUse">
<stop stop-color="#FEBBBA"/>
<stop offset="1" stop-color="#FF928E"/>
</linearGradient>
<linearGradient id="paint26_linear_679_4903" x1="60.8669" y1="8.8179" x2="57.6857" y2="33.3309" gradientUnits="userSpaceOnUse">
<stop stop-color="#E1473D"/>
<stop offset="1" stop-color="#E9605A"/>
</linearGradient>
<linearGradient id="paint27_linear_679_4903" x1="56.6157" y1="17.508" x2="55.9901" y2="38.0661" gradientUnits="userSpaceOnUse">
<stop stop-color="#E1473D"/>
<stop offset="1" stop-color="#E9605A"/>
</linearGradient>
<linearGradient id="paint28_linear_679_4903" x1="71.6957" y1="29.397" x2="58.4155" y2="40.5923" gradientUnits="userSpaceOnUse">
<stop stop-color="#FEBBBA"/>
<stop offset="1" stop-color="#FF928E"/>
</linearGradient>
<linearGradient id="paint29_linear_679_4903" x1="61.5506" y1="33.589" x2="71.7407" y2="36.8805" gradientUnits="userSpaceOnUse">
<stop stop-color="#09005D"/>
<stop offset="1" stop-color="#1A0F91"/>
</linearGradient>
<linearGradient id="paint30_linear_679_4903" x1="75.5292" y1="26.8739" x2="82.8776" y2="34.5804" gradientUnits="userSpaceOnUse">
<stop stop-color="#09005D"/>
<stop offset="1" stop-color="#1A0F91"/>
</linearGradient>
<clipPath id="clip0_679_4903">
<rect width="150" height="149.028" fill="white" transform="translate(0 0.481689)"/>
</clipPath>
</defs>
</svg>
