<svg width="26" height="27" viewBox="0 0 26 27" fill="none" xmlns="http://www.w3.org/2000/svg">
<path d="M12.8389 19C15.6003 19 17.8389 16.7614 17.8389 14C17.8389 11.2386 15.6003 9 12.8389 9C10.0774 9 7.83887 11.2386 7.83887 14C7.83887 16.7614 10.0774 19 12.8389 19Z" fill="white"/>
<path d="M12.8389 18C15.048 18 16.8389 16.2091 16.8389 14C16.8389 11.7909 15.048 10 12.8389 10C10.6297 10 8.83887 11.7909 8.83887 14C8.83887 16.2091 10.6297 18 12.8389 18Z" stroke="#007CBA" stroke-width="2"/>
<path d="M14.3281 25V21.752L15.5908 21.2512C16.3241 20.9604 17.0106 20.5632 17.6313 20.0708L18.6966 19.2256L21.5134 20.8521L23.2274 17.8825L20.4139 16.2581L20.6102 14.9154C20.6669 14.5274 20.6956 14.1299 20.6956 13.734C20.6956 13.3384 20.6669 12.9411 20.6103 12.5531L20.4142 11.2105L23.2281 9.5861L21.5132 6.6163L18.6966 8.24255L17.6312 7.39762C17.0104 6.90526 16.324 6.50823 15.5909 6.21756L14.3281 5.71683L14.3283 2.46887L10.8995 2.46867V5.71681L9.63676 6.21754C8.90366 6.50824 8.21719 6.90527 7.59643 7.39761L6.53112 8.24254L3.71502 6.617L2.00021 9.5863L4.81349 11.2105L4.61741 12.5531C4.56076 12.941 4.53204 13.3383 4.53204 13.734C4.53204 14.1299 4.56079 14.5274 4.61749 14.9154L4.81373 16.2581L2.00078 17.8823L3.71487 20.8514L6.53103 19.2256L7.59635 20.0708C8.21704 20.5632 8.90356 20.9604 9.63684 21.2512L10.8995 21.752L10.8993 25H14.3281ZM14.3283 27H10.8993C9.79504 27 8.89954 26.1045 8.89954 25.0002V23.1103C7.97603 22.7441 7.11939 22.2454 6.35329 21.6376L4.71454 22.5837C3.75784 23.1363 2.53474 22.8087 1.98304 21.852L0.268537 18.882C-0.284063 17.9253 0.0435374 16.7022 1.00024 16.1505L2.63851 15.2046C2.56834 14.7245 2.53204 14.2336 2.53204 13.734C2.53204 13.2347 2.56833 12.7439 2.6384 12.2641L1.00024 11.3184C0.0435374 10.7658 -0.284063 9.54267 0.268537 8.58597L1.98304 5.61687C2.53474 4.66017 3.75784 4.33257 4.71454 4.88427L6.35362 5.83063C7.11954 5.22316 7.97633 4.72445 8.89954 4.35837V2.46867C8.89954 1.36347 9.79504 0.468872 10.8993 0.468872H14.3283C15.4326 0.468872 16.3281 1.36347 16.3281 2.46867V4.35838C17.2513 4.72445 18.1081 5.22317 18.874 5.83064L20.5131 4.88427C21.4698 4.33257 22.6929 4.66017 23.2455 5.61687L24.96 8.58597C25.5117 9.54267 25.1841 10.7658 24.2274 11.3184L22.5893 12.2641C22.6593 12.7439 22.6956 13.2347 22.6956 13.734C22.6956 14.2336 22.6593 14.7244 22.5892 15.2046L24.2274 16.1505C25.1841 16.7031 25.5117 17.9262 24.96 18.882L23.2455 21.852C22.6929 22.8087 21.4698 23.1363 20.5131 22.5837L18.8744 21.6376C18.1083 22.2454 17.2516 22.7441 16.3281 23.1103V25.0002C16.3281 26.1045 15.4326 27 14.3283 27Z" fill="#007CBA"/>
</svg>
