<svg width="38" height="55" viewBox="0 0 38 55" fill="none" xmlns="http://www.w3.org/2000/svg">
<path d="M15.2552 25.9202C9.56898 21.3345 5.16677 19.6837 4.43307 19.5003C2.96566 18.7666 1.1314 18.95 0.214266 20.9677C-0.519437 22.9854 0.764544 24.6362 2.04852 25.0031C3.33251 25.5533 7.73473 27.3876 12.6872 31.423C17.6397 35.6418 22.5922 42.7954 24.9768 51.0495C26.0773 50.4993 28.2784 49.0318 29.9292 47.381C27.1779 38.2097 21.1248 30.3224 15.2552 25.9202ZM12.1369 35.2749C9.01871 33.2572 5.71706 32.7069 4.6165 32.7069C3.1491 32.5235 1.86509 33.6241 1.49824 35.0915C1.13139 36.7423 2.41538 38.76 3.88278 38.76C4.61649 38.76 7.00104 38.9434 9.20215 40.5943C11.5867 42.2451 14.1546 44.8131 14.7049 49.5821C14.8883 50.4993 15.622 52.1501 17.2729 52.3335C19.1071 52.5169 20.758 50.8661 20.3911 48.8484C19.6574 42.4285 15.9889 37.8429 12.1369 35.2749ZM37.8166 22.6185C34.148 17.2992 29.7458 12.3467 25.527 8.49473C20.0243 3.54223 15.622 0.79084 15.4386 0.79084C14.5215 0.240562 13.2375 0.057137 12.1369 0.974266C10.6695 2.25825 11.0364 4.82621 12.3204 5.55991C12.3204 5.55991 12.3204 5.55991 12.5038 5.74334C13.4209 6.29362 18.19 9.41186 22.9591 13.8141C27.7282 18.2163 33.9646 26.287 37.4497 32.3401C37.8166 30.139 38 28.6716 38 26.1036C38 25.1865 38 23.5356 37.8166 22.6185ZM25.8939 5.74334C26.811 6.11019 31.3967 8.67815 33.9646 13.6307C34.5149 14.5478 35.432 14.9146 36.3491 15.0981C34.3315 8.49473 30.1127 2.99195 24.9768 0.79084C24.7933 0.974266 24.4265 1.34112 24.4265 1.70797C23.6928 3.17538 24.243 5.00964 25.8939 5.74334ZM20.3911 15.8318C15.8055 11.613 10.853 8.12788 8.65187 6.66047C6.26733 5.55991 4.24964 7.76103 4.43307 9.59528C4.61649 11.4295 5.3502 11.9798 6.26732 12.5301C9.01871 14.1809 13.2375 17.2992 17.6397 21.7014C23.1425 27.2042 28.8287 35.2749 32.4972 44.6296C33.9646 42.6119 35.0652 40.2274 35.9823 37.6594C31.5801 28.6716 25.8939 20.9677 20.3911 15.8318Z" fill="#E71F31"/>
<path d="M34.8824 52.5169C34.8824 53.0671 34.699 53.6174 34.1487 54.1677C33.7819 54.5345 33.2316 54.9014 32.4979 54.9014C31.9476 54.9014 31.3973 54.718 30.847 54.1677C30.4802 53.8008 30.1133 53.2506 30.1133 52.5169C30.1133 51.9666 30.2968 51.4163 30.847 50.866C31.2139 50.4992 31.7642 50.1323 32.4979 50.1323C33.0482 50.1323 33.5984 50.3158 34.1487 50.866C34.699 51.4163 34.8824 51.9666 34.8824 52.5169ZM34.5156 52.5169C34.5156 51.9666 34.3321 51.5997 33.9653 51.2329C33.5984 50.866 33.2316 50.6826 32.6813 50.6826C32.131 50.6826 31.7642 50.866 31.3973 51.2329C31.0305 51.5997 30.847 51.9666 30.847 52.5169C30.847 53.0671 31.0305 53.434 31.3973 53.8008C31.7642 54.1677 32.131 54.3511 32.6813 54.3511C33.2316 54.3511 33.5984 54.1677 33.9653 53.8008C34.3321 53.434 34.5156 53.0671 34.5156 52.5169ZM33.9653 53.6174H33.2316L32.4979 52.7003H32.3144V53.6174H31.7642V51.4163H32.6813C32.8647 51.4163 33.0482 51.4163 33.0482 51.4163C33.2316 51.4163 33.2316 51.4163 33.415 51.5997C33.5984 51.5997 33.5984 51.7832 33.5984 51.7832C33.5984 51.7832 33.5984 51.9666 33.5984 52.15C33.5984 52.3334 33.5984 52.5169 33.415 52.5169C33.415 52.7003 33.2316 52.7003 33.0482 52.7003L33.9653 53.6174ZM33.0482 51.9666C33.0482 51.7832 33.0482 51.7832 32.8647 51.7832C32.8647 51.7832 32.8647 51.7832 32.6813 51.7832H32.4979H32.3144V52.3334H32.4979H32.6813H32.8647C32.8647 52.3334 32.8647 52.15 33.0482 51.9666C33.0482 52.15 33.0482 52.15 33.0482 51.9666Z" fill="#E71F31"/>
</svg>
