<svg width="170" height="171" viewBox="0 0 170 171" fill="none" xmlns="http://www.w3.org/2000/svg">
<path d="M0.25 170.082V0.582031H169.75V170.082H0.25Z" fill="white" stroke="#B8B1B1" stroke-width="0.5"/>
<path d="M85.8054 51.7192C85.5291 51.7192 85.2602 51.7192 84.9838 51.7192C73.3398 51.7192 62.3755 55.1465 54.1074 61.3786C45.8692 67.5881 41.2609 75.8751 41.119 84.7169C41.007 92.1039 43.9871 99.1609 49.7456 105.116C53.7116 109.218 58.9249 112.645 64.8178 115.022C71.0021 117.52 77.7091 118.84 84.7448 118.93C85.0212 118.93 85.2901 118.93 85.5664 118.93C97.2104 118.93 108.182 115.502 116.443 109.27C124.681 103.061 129.289 94.7737 129.431 85.9319C129.551 78.5449 126.563 71.4879 120.805 65.5333C116.839 61.4311 111.625 58.0038 105.732 55.6265C99.5482 53.1291 92.8411 51.8092 85.8054 51.7192Z" fill="#B3282D"/>
<path d="M85.5733 119.897C85.2969 119.897 85.0206 119.897 84.7368 119.897C77.5816 119.799 70.7699 118.457 64.4662 115.915C58.4462 113.485 53.1209 109.983 49.0653 105.79C43.1275 99.6482 40.0504 92.3587 40.1699 84.7092C40.3118 75.5599 45.062 67.0105 53.5392 60.6209C61.9641 54.2689 73.1376 50.7666 84.9907 50.7666C85.267 50.7666 85.5434 50.7666 85.8272 50.7666C92.9749 50.8641 99.8015 52.2065 106.098 54.7488C112.11 57.1787 117.443 60.6809 121.499 64.8731C127.436 71.0152 130.514 78.3047 130.402 85.9542C130.26 95.1035 125.509 103.653 117.032 110.042C108.607 116.395 97.4339 119.889 85.5807 119.889M84.9982 51.7115C73.3542 51.7115 62.3898 55.1388 54.1218 61.3709C45.8836 67.5804 41.2753 75.8674 41.1333 84.7092C41.0213 92.0962 44.0014 99.1533 49.7599 105.108C53.7259 109.21 58.9392 112.637 64.8322 115.015C71.0239 117.512 77.7235 118.832 84.7592 118.922C85.0355 118.922 85.3044 118.922 85.5807 118.922C97.2248 118.922 108.189 115.495 116.457 109.263C124.695 103.053 129.304 94.766 129.446 85.9242C129.558 78.5372 126.577 71.4802 120.819 65.5256C116.853 61.4234 111.64 57.9961 105.747 55.6188C99.5625 53.1214 92.8554 51.809 85.8197 51.7115C85.5434 51.7115 85.2745 51.7115 84.9982 51.7115Z" fill="white"/>
<path d="M118.205 60.3361C109.601 53.5641 98.1062 49.7394 85.8423 49.5669C85.5585 49.5669 85.2747 49.5669 84.9908 49.5669C72.8987 49.5669 61.4937 53.1441 52.8671 59.6537C44.0837 66.2757 39.1692 75.1701 39.0198 84.6945C38.8704 94.3388 43.6057 103.443 52.3592 110.328C60.9634 117.1 72.458 120.924 84.7294 121.097C85.0132 121.097 85.2971 121.097 85.5734 121.097C97.6656 121.097 109.071 117.52 117.697 111.018C126.481 104.396 131.395 95.5012 131.544 85.9769C131.694 76.3325 126.959 67.2282 118.205 60.3437M117.017 110.058C108.593 116.41 97.4191 119.905 85.5659 119.905C85.2896 119.905 85.0132 119.905 84.7294 119.905C77.5742 119.807 70.7626 118.465 64.4588 115.922C58.4464 113.492 53.1211 109.99 49.058 105.798C43.1202 99.6559 40.043 92.3664 40.1625 84.717C40.3044 75.5751 45.0547 67.0182 53.5244 60.6211C61.9493 54.2691 73.1228 50.7743 84.9759 50.7743C85.2523 50.7743 85.5286 50.7743 85.8124 50.7743C92.9601 50.8718 99.7792 52.2142 106.083 54.7565C112.095 57.1864 117.421 60.6886 121.484 64.8883C127.422 71.0304 130.499 78.3199 130.387 85.9694C130.245 95.1112 125.495 103.668 117.017 110.058Z" fill="#513529"/>
<path d="M85.2748 105.1C69.3809 105.1 56.4448 96.2284 56.4448 85.3316C56.4448 74.4349 69.3809 65.563 85.2748 65.563C101.169 65.563 114.105 74.4349 114.105 85.3316C114.105 96.2284 101.169 105.1 85.2748 105.1Z" fill="#BE955B"/>
<path d="M85.2759 66.5229C69.9049 66.5229 57.4094 74.9599 57.4094 85.3242C57.4094 95.6884 69.9124 104.125 85.2759 104.125C100.639 104.125 113.142 95.6884 113.142 85.3242C113.142 74.9599 100.639 66.5229 85.2759 66.5229Z" fill="white"/>
<path d="M63.7348 104.635C63.5406 104.388 63.0775 103.796 62.4501 103.331C61.2551 102.446 59.8061 102.288 58.7754 103.683C57.6476 105.22 58.3871 106.54 59.4178 107.305C60.0526 107.778 60.7547 107.995 61.1655 108.123L60.9713 109.203C60.4858 109.038 59.597 108.738 58.4244 107.868C55.9597 106.038 55.631 103.766 56.7439 102.251C57.9539 100.616 60.314 100.458 62.7937 102.296C63.4659 102.791 64.1306 103.413 64.6684 104.103L63.7198 104.635H63.7348Z" fill="#BE955B"/>
<path d="M61.5018 110.088L60.7624 109.84L60.979 109.203L60.7549 109.833C60.2396 109.66 59.2836 109.33 58.0363 108.408C55.0711 106.203 54.989 103.526 56.2213 101.846C56.9607 100.848 58.0661 100.293 59.3508 100.293C60.6354 100.293 61.9126 100.803 63.1973 101.756C63.9591 102.318 64.6462 102.986 65.1989 103.683L65.6844 104.298L63.5558 105.491L63.2047 105.041C63.0031 104.778 62.5923 104.268 62.0471 103.863C61.5616 103.503 61.0686 103.316 60.628 103.316C60.1201 103.316 59.6794 103.571 59.306 104.073C58.8056 104.756 58.4844 105.768 59.8064 106.751C60.3666 107.17 61.0089 107.365 61.3525 107.463L61.9201 107.635L61.4944 110.065L61.5018 110.088ZM65.8637 108.198C66.5209 106.061 68.7691 105.371 71.316 106.166C73.3998 106.818 75.3865 108.325 74.6247 110.785C73.9824 112.878 71.8911 113.763 69.1201 112.9C66.0952 111.963 65.3408 109.9 65.8637 108.205V108.198ZM68.2238 108.94C67.7309 110.545 68.1118 111.558 69.4637 111.985C70.4496 112.293 71.6521 112.008 72.2496 110.065C72.7126 108.558 72.4214 107.515 71.0172 107.081C69.5533 106.623 68.7018 107.373 68.2238 108.933V108.94Z" fill="#BE955B"/>
<path d="M71.1064 113.897C70.4192 113.897 69.6873 113.777 68.918 113.537C67.3644 113.057 66.2142 112.24 65.5794 111.175C65.0117 110.215 64.8848 109.09 65.2134 108.003C65.7586 106.225 67.3047 105.168 69.3437 105.168C70.0308 105.168 70.7553 105.288 71.5022 105.513C74.5645 106.465 75.9985 108.558 75.2516 110.973C74.6914 112.795 73.1379 113.89 71.0989 113.89M70.225 107.613C69.9786 107.613 69.3288 107.613 68.8582 109.128C68.6566 109.795 68.6267 110.298 68.7611 110.658C68.8059 110.77 68.9479 111.123 69.6499 111.34C69.8142 111.393 69.9711 111.415 70.1205 111.415C70.7852 111.415 71.2856 110.89 71.5993 109.863C71.7935 109.233 71.8234 108.745 71.6964 108.408C71.6217 108.205 71.4499 107.92 70.8076 107.718C70.591 107.65 70.3894 107.62 70.2176 107.62M80.6292 109.15L80.4649 111.07L84.0425 111.385L83.9529 112.457L80.3753 112.15L80.1288 114.955L77.7836 114.752L78.3736 107.89L84.5653 108.423L84.4682 109.488L80.6217 109.15H80.6292Z" fill="#BE955B"/>
<path d="M77.7836 107.163L85.3123 107.815L85.1031 110.208L81.2567 109.87L81.2044 110.463L84.782 110.77L84.5728 113.178L80.9952 112.87L80.7562 115.675L77.0815 115.352L77.7836 107.148V107.163ZM90.4359 109.158L90.6226 111.078L94.1928 110.733L94.2973 111.805L90.7272 112.158L90.9961 114.962L88.6509 115.195L87.9861 108.333L94.1704 107.733L94.2749 108.79L90.4285 109.165L90.4359 109.158Z" fill="#BE955B"/>
<path d="M94.7758 106.99L95.0073 109.382L91.1609 109.757L91.2206 110.342L94.7907 109.99L95.0223 112.397L91.4522 112.742L91.721 115.547L88.0463 115.907L87.2546 107.71L94.7758 106.975V106.99ZM100.004 107.313L100.527 108.962L103.948 107.875L104.254 108.85L100.833 109.937L101.423 111.82L105.173 110.627L105.501 111.67L99.5111 113.575L97.4347 107.005L103.365 105.115L103.686 106.135L100.004 107.305V107.313Z" fill="#BE955B"/>
<path d="M103.805 104.283L104.53 106.578L100.848 107.748L100.967 108.123L104.388 107.035L105.097 109.293L101.677 110.38L101.871 110.98L105.613 109.788L106.345 112.113L99.0774 114.422L96.6052 106.578L103.805 104.291V104.283ZM109.056 103.151L110.034 104.576L112.992 102.528L113.567 103.368L110.609 105.415L111.722 107.043L114.956 104.801L115.576 105.7L110.408 109.285L106.509 103.616L111.625 100.068L112.23 100.946L109.048 103.151H109.056Z" fill="#BE955B"/>
<path d="M111.805 99.1383L113.165 101.118L109.983 103.323L110.207 103.646L113.165 101.598L114.502 103.548L111.544 105.595L111.902 106.113L115.136 103.871L116.518 105.88L110.252 110.223L105.599 103.443L111.813 99.1309L111.805 99.1383Z" fill="#BE955B"/>
<path d="M62.8013 102.296C60.3291 100.458 57.9614 100.608 56.7515 102.251C55.6311 103.773 55.9598 106.038 58.432 107.868C59.6046 108.738 60.4934 109.038 60.9789 109.195L61.1731 108.115C60.7548 107.988 60.0602 107.77 59.4253 107.298C58.3946 106.533 57.6552 105.221 58.783 103.676C59.8063 102.281 61.2627 102.438 62.4577 103.323C63.0851 103.788 63.5407 104.373 63.7424 104.628L64.6909 104.096C64.1457 103.406 63.4809 102.783 62.8162 102.288M71.3308 106.15C68.7839 105.355 66.5357 106.045 65.8785 108.183C65.3556 109.885 66.11 111.948 69.1349 112.885C71.9059 113.747 73.9972 112.862 74.6395 110.77C75.4013 108.31 73.422 106.795 71.3308 106.15ZM72.2644 110.058C71.6669 112 70.4718 112.285 69.4785 111.978C68.1266 111.558 67.7457 110.538 68.2386 108.933C68.7166 107.365 69.5681 106.615 71.032 107.073C72.4362 107.508 72.7274 108.55 72.2644 110.058ZM80.398 112.143L83.9756 112.45L84.0652 111.378L80.4876 111.07L80.6519 109.15L84.4984 109.48L84.5955 108.423L78.4038 107.883L77.8138 114.745L80.159 114.947L80.4055 112.143H80.398ZM90.4437 109.15L94.2901 108.775L94.1856 107.718L88.0013 108.318L88.6661 115.172L91.0113 114.947L90.7424 112.143L94.3126 111.79L94.208 110.718L90.6379 111.063L90.4511 109.143L90.4437 109.15ZM104.269 108.843L103.962 107.868L100.542 108.955L100.019 107.305L103.701 106.135L103.38 105.115L97.4495 107.005L99.5258 113.575L105.516 111.67L105.187 110.628L101.438 111.82L100.848 109.938L104.269 108.85V108.843ZM110.625 105.415L113.575 103.368L113 102.528L110.042 104.576L109.064 103.151L112.245 100.946L111.64 100.068L106.524 103.616L110.423 109.285L115.591 105.7L114.972 104.801L111.737 107.043L110.625 105.415Z" fill="white"/>
<path d="M50.9179 74.7127L48.4009 73.5428L49.2823 71.6304L55.5038 74.5327L54.6225 76.445L51.859 75.1551L50.5072 78.0724L53.2706 79.3623L52.3893 81.2747L46.1677 78.3799L47.0491 76.4675L49.5661 77.6375L50.9179 74.7127Z" fill="#BE955B"/>
<path d="M46.728 75.5676L49.245 76.7375L50.0293 75.0352L47.5123 73.8652L48.9612 70.7305L56.4002 74.1952L54.9513 77.33L52.1878 76.0476L51.4035 77.75L54.167 79.0399L52.7181 82.1747L45.2791 78.7099L46.728 75.5751V75.5676Z" fill="#BE955B"/>
<path d="M58.0142 72.1327L53.3611 67.0706L54.9071 65.6382L59.5603 70.7003L58.0142 72.1327Z" fill="#BE955B"/>
<path d="M54.9368 64.6934L60.5012 70.7454L57.9767 73.0853L52.4124 67.0332L54.9443 64.6934H54.9368Z" fill="#BE955B"/>
<path d="M64.8098 60.7412C64.3542 60.8312 63.7417 60.9887 63.1218 61.3262C61.6803 62.1061 61.1127 63.411 61.9044 64.8809C62.6812 66.3358 63.9061 66.5158 65.1758 65.9458C65.4745 65.7959 65.7957 65.6009 65.9376 65.4959L65.131 63.996L63.8762 64.6709L63.4056 63.786L66.4156 62.1586L67.9393 65.0009C67.3791 65.5784 66.692 66.2533 65.5641 66.8683C63.077 68.2107 60.8363 67.7157 59.8953 65.9608C58.9467 64.1835 59.6936 61.9936 62.3451 60.5612C63.0919 60.1563 63.8762 59.8563 64.6754 59.6763L64.8173 60.7412H64.8098Z" fill="#BE955B"/>
<path d="M62.8235 68.3081C61.2699 68.3081 59.9853 67.5731 59.2981 66.2832C58.2973 64.4158 58.7454 61.7385 62.0168 59.9686C62.8459 59.5187 63.6898 59.2037 64.5264 59.0237L65.2359 58.8737L65.5571 61.2735L64.9446 61.401C64.5338 61.4835 63.9886 61.6185 63.4359 61.9185C62.7488 62.2935 61.7181 63.1259 62.4874 64.5658C62.7786 65.1133 63.1371 65.4358 63.5778 65.5407L62.5023 63.5309L66.6923 61.266L68.7612 65.1283L68.4177 65.4808C67.7753 66.1332 67.0583 66.8307 65.8782 67.4681C64.855 68.0231 63.8019 68.3156 62.8309 68.3156M63.6674 65.5557C64.0259 65.6157 64.4367 65.5408 64.8849 65.3383C64.9371 65.3083 64.9894 65.2858 65.0417 65.2558L64.855 64.9108L63.66 65.5557H63.6674ZM75.3488 59.1287L74.7289 56.4139L76.7753 55.9414L78.3139 62.6534L76.26 63.1259L75.5803 60.1411L72.4509 60.8611L73.1305 63.8459L71.084 64.3183L69.5455 57.5988L71.5919 57.1263L72.2119 59.8411L75.3339 59.1212L75.3488 59.1287Z" fill="#BE955B"/>
<path d="M72.0926 56.3239L72.7125 59.0388L74.5349 58.6188L73.915 55.904L77.2685 55.1315L79.1058 63.156L75.7523 63.9284L75.0726 60.9436L73.2502 61.3636L73.9299 64.3409L70.5764 65.1133L68.739 57.0889L72.0926 56.3165V56.3239ZM84.6104 54.7341L84.7374 60.5237L88.0909 60.4487L88.1432 62.886L81.3465 63.0285L81.1673 54.8016L84.603 54.7266L84.6104 54.7341ZM96.0976 56.4664L98.2636 63.8909L96.0528 63.4709L95.5897 61.6486L92.6992 61.1011L91.5864 62.6235L90.1449 62.346L94.8801 56.234L96.0901 56.4664H96.0976ZM93.3117 60.2612L95.3432 60.6512L94.7308 58.3038L93.3117 60.2612Z" fill="#BE955B"/>
<path d="M95.0446 62.2334L92.9906 61.8434L91.8778 63.3658L88.95 62.8034L94.6114 55.5063L96.6205 55.8888L99.2122 64.7607L95.5076 64.0558L95.052 62.2334H95.0446ZM108.952 60.981L110.236 61.5884L107.308 67.8205L106.151 67.273L103.925 61.4834L102.11 65.3532L100.826 64.7457L103.753 58.5136L104.911 59.0611L107.137 64.8507L108.952 60.981Z" fill="#BE955B"/>
<path d="M103.866 63.1935L102.431 66.2533L99.9443 65.0759L103.44 57.6289L105.441 58.5738L107.204 63.1485L108.638 60.0887L111.125 61.2661L107.637 68.7131L105.636 67.7682L103.873 63.1935H103.866ZM117.011 66.8608C117.922 67.7907 118.758 68.6681 119.065 69.9056C119.408 71.3005 118.512 72.3279 118.161 72.6654C117.638 73.1753 116.324 74.1577 114.539 73.4828C113.65 73.1528 113.007 72.6054 111.977 71.5479L110.214 69.7406L115.114 64.9184L117.011 66.8608ZM115.875 67.1307L112.402 70.5505L112.858 71.0155C113.612 71.7879 114.621 73.0178 116.6 71.0755C118.198 69.5081 117.25 68.5407 116.466 67.7307L115.875 67.1307Z" fill="#BE955B"/>
<path d="M115.741 74.3899C115.263 74.3899 114.778 74.2999 114.307 74.1199C113.291 73.745 112.597 73.145 111.506 72.0201L109.273 69.7327L115.129 63.9731L117.489 66.3955C118.407 67.3404 119.363 68.3154 119.707 69.7478C120.125 71.4501 119.095 72.695 118.631 73.1525C118.161 73.6175 117.16 74.3899 115.748 74.3899M113.351 70.5652L113.441 70.6552C113.814 71.0452 114.202 71.4501 114.665 71.4501C115.061 71.4501 115.569 71.1576 116.137 70.6027C117.257 69.5003 116.809 69.0428 115.995 68.2028L115.883 68.0829L113.358 70.5652H113.351ZM123.494 79.3396C123.471 78.7921 123.397 78.1247 123.195 77.5622C122.971 76.9322 122.583 76.5648 122.224 76.6923C121.895 76.8122 121.813 77.2697 121.701 78.0197L121.582 78.8896C121.417 79.887 121.201 81.0795 120.155 81.4544C119.109 81.8294 117.773 81.1844 117.07 79.2196C116.757 78.3421 116.645 77.5247 116.697 76.6023L117.81 76.6848C117.795 77.3597 117.81 78.0122 118.079 78.7846C118.333 79.4971 118.766 79.8346 119.139 79.7071C119.49 79.5796 119.602 79.2271 119.759 78.2596L119.871 77.4272C119.998 76.6398 120.215 75.2974 121.261 74.9224C122.381 74.5174 123.583 75.4023 124.211 77.1572C124.457 77.8622 124.584 78.6121 124.599 79.3621L123.494 79.3396Z" fill="#BE955B"/>
<path d="M119.565 82.2348C118.228 82.2348 117.063 81.1924 116.443 79.445C116.099 78.4926 115.973 77.5777 116.032 76.5652L116.07 75.8828L118.49 76.0703L118.475 76.7077C118.46 77.3302 118.475 77.8926 118.706 78.5601C118.781 78.7701 118.863 78.9051 118.923 78.9801C118.975 78.8226 119.027 78.5451 119.095 78.1551L119.199 77.3377C119.334 76.4977 119.602 74.8028 121.029 74.2854C121.275 74.1954 121.537 74.1504 121.798 74.1504C123.061 74.1504 124.226 75.2153 124.838 76.9252C125.107 77.6826 125.249 78.5001 125.264 79.34L125.279 80.0375L122.844 79.985L122.822 79.355C122.799 78.7251 122.709 78.1776 122.568 77.7801C122.53 77.6826 122.5 77.6076 122.463 77.5401C122.426 77.7201 122.388 77.9451 122.358 78.1176L122.239 78.995C122.075 80.0225 121.813 81.5674 120.379 82.0848C120.118 82.1748 119.849 82.2273 119.573 82.2273" fill="#BE955B"/>
<path d="M49.5732 77.6301L47.0561 76.4602L46.1748 78.3726L52.3964 81.2674L53.2777 79.355L50.5142 78.0651L51.8661 75.1403L54.6296 76.4302L55.5109 74.5178L49.2893 71.623L48.4005 73.5354L50.9176 74.7053L49.5657 77.6301H49.5732Z" fill="white"/>
<path d="M58.0059 72.1327L53.3528 67.0706L54.8988 65.6382L59.552 70.7003L58.0059 72.1327Z" fill="white"/>
<path d="M63.3991 63.7934L63.8696 64.6783L65.1244 64.0034L65.9236 65.5033C65.7817 65.6083 65.4605 65.8032 65.1617 65.9532C63.892 66.5232 62.6746 66.3432 61.8904 64.8883C61.0987 63.4184 61.6663 62.1135 63.1078 61.3336C63.7277 60.9961 64.3402 60.8461 64.7958 60.7486L64.6539 59.6837C63.8547 59.8562 63.0705 60.1636 62.3236 60.5686C59.6721 62.001 58.9252 64.1984 59.8738 65.9682C60.8149 67.7231 63.063 68.2181 65.5427 66.8757C66.6705 66.2607 67.3576 65.5858 67.9178 65.0083L66.3941 62.166L63.3842 63.7934H63.3991ZM72.2124 59.8487L71.5925 57.1339L69.546 57.6063L71.0846 64.3259L73.1311 63.8534L72.4514 60.8686L75.5734 60.1486L76.2531 63.1334L78.2995 62.661L76.7609 55.9489L74.707 56.4214L75.3269 59.1362L72.2049 59.8562L72.2124 59.8487ZM81.8473 55.469L81.9892 62.361L87.4489 62.2485L87.4265 61.1536L84.073 61.2286L83.946 55.439L81.8473 55.484V55.469ZM94.8805 56.2414L90.1452 62.3535L91.5867 62.6235L92.6996 61.1011L95.59 61.6485L96.0531 63.4709L98.2639 63.8909L96.0979 56.4664L94.888 56.2339L94.8805 56.2414ZM93.3045 60.2686L94.7311 58.3113L95.3435 60.6586L93.312 60.2686H93.3045ZM104.904 59.0762L103.746 58.5287L100.818 64.7608L102.103 65.3683L103.918 61.4986L106.144 67.2882L107.301 67.8356L110.229 61.6035L108.944 60.9961L107.129 64.8658L104.904 59.0762ZM119.057 69.9055C118.751 68.6681 117.915 67.7981 117.003 66.8607L115.106 64.9183L110.207 69.7405L111.969 71.5479C113 72.6053 113.635 73.1527 114.531 73.4827C116.324 74.1577 117.631 73.1752 118.154 72.6653C118.505 72.3203 119.393 71.3004 119.057 69.9055ZM116.593 71.0754C114.613 73.0177 113.605 71.7878 112.851 71.0154L112.395 70.5504L115.868 67.1307L116.458 67.7306C117.242 68.5406 118.191 69.508 116.593 71.0754ZM124.203 77.15C123.576 75.3951 122.373 74.5101 121.253 74.9151C120.2 75.2901 119.983 76.6325 119.864 77.4199L119.752 78.2524C119.595 79.2273 119.476 79.5798 119.132 79.6998C118.759 79.8348 118.325 79.4973 118.071 78.7773C117.795 78.0049 117.788 77.3599 117.803 76.6775L116.69 76.595C116.637 77.5174 116.749 78.3349 117.063 79.2123C117.765 81.1772 119.095 81.8296 120.148 81.4472C121.193 81.0722 121.41 79.8798 121.574 78.8823L121.694 78.0124C121.813 77.2625 121.888 76.805 122.217 76.685C122.575 76.5575 122.964 76.925 123.188 77.5549C123.389 78.1174 123.464 78.7849 123.486 79.3323L124.592 79.3548C124.577 78.6049 124.45 77.8549 124.203 77.15Z" fill="white"/>
<path d="M85.3506 101.673C79.6742 101.673 74.1249 100.481 69.7033 98.3135C65.1771 96.1011 62.0477 92.9588 60.8825 89.4791L60.8228 89.3066V89.1266C60.8601 88.4592 61.129 86.7793 62.929 85.4969C64.5348 84.3569 66.9771 83.772 70.1962 83.772C73.7888 83.772 78.3373 84.4994 83.7299 85.9318H83.7523C84.768 86.2318 93.8577 88.7966 101.244 88.7966C104.374 88.7966 106.719 88.3242 108.213 87.4017C108.362 87.3042 108.512 87.2067 108.646 87.1017L110.61 85.5943L110.177 88.0392C108.795 95.8011 98.1224 101.658 85.3506 101.658" fill="#BE955B"/>
<path d="M61.8005 89.1719C64.0337 95.8615 73.9226 100.706 85.3574 100.706C97.6662 100.706 107.958 95.059 109.243 87.882C109.079 88.0095 108.907 88.122 108.728 88.2345C107.077 89.2544 104.56 89.7719 101.251 89.7719C93.7375 89.7719 84.5209 87.1696 83.4902 86.8696C78.1873 85.4597 73.7134 84.7397 70.203 84.7397C67.1856 84.7397 64.93 85.2572 63.4885 86.2846C62.0545 87.3046 61.8229 88.587 61.8005 89.1644" fill="#513529"/>
<path d="M63.8242 88.9615C63.8242 88.9615 64.713 84.1694 77.5147 87.4691C77.5147 87.4691 85.7081 89.5165 86.6641 89.4265C87.6276 89.3365 85.7006 89.5165 85.7006 89.5165C85.7006 89.5165 78.2915 90.4539 76.5587 90.6339L77.4251 89.2765L70.9869 91.0839L72.0325 89.5465C72.0325 89.5465 66.1694 90.2364 68.3802 94.6686C68.3802 94.6686 63.8167 91.0014 63.8167 88.9615M101.087 86.5317C98.9355 86.5317 96.3961 86.2992 93.528 85.8417C88.5238 85.0468 84.1695 83.8169 83.684 83.6819C78.2317 82.227 73.6159 81.492 69.9786 81.492C66.6699 81.492 64.1379 82.0995 62.4425 83.3069C62.2034 83.4794 61.9943 83.6294 61.8151 83.7719L59.918 85.2643L60.2615 82.872C60.8665 78.6948 64.1454 74.945 69.4856 72.3202L70.0383 72.0502L70.5163 72.4402C70.9421 72.7852 71.8682 73.3701 73.1977 73.3701C73.4815 73.3701 73.7802 73.3401 74.0715 73.2876C74.6989 72.9127 78.8217 70.6253 86.8433 69.0354L87.1271 68.9829L87.396 69.0954C88.2251 69.4404 92.7288 71.4352 100.19 76.7149C100.355 76.8049 101.833 77.6073 103.559 77.6073C104.47 77.6073 105.299 77.3823 106.016 76.9399L106.718 76.5049L107.256 77.1274C108.518 78.5973 109.377 80.1721 109.803 81.822L109.848 81.9945L109.833 82.1745C109.736 83.0294 109.295 84.2444 107.741 85.2118C106.315 86.0892 104.074 86.5392 101.079 86.5392" fill="#BE955B"/>
<path d="M69.9935 80.5251C73.713 80.5251 78.411 81.275 83.9604 82.7524C84.4459 82.8874 88.733 84.1023 93.6849 84.8897C96.5006 85.3397 98.9878 85.5647 101.094 85.5647C103.91 85.5647 105.979 85.1672 107.256 84.3798C108.242 83.7648 108.794 82.9849 108.899 82.0624C108.511 80.5626 107.719 79.1152 106.554 77.7578C105.68 78.2977 104.687 78.5752 103.596 78.5752C101.512 78.5752 99.8019 77.5853 99.7272 77.5403L99.6899 77.5178C92.2658 72.2681 87.777 70.2883 87.0525 69.9883C78.5454 71.6757 74.557 74.128 74.5197 74.158L74.3628 74.218C73.9819 74.3005 73.5935 74.338 73.2201 74.338C71.562 74.338 70.4193 73.588 69.9338 73.1906C64.8923 75.6654 61.7927 79.1901 61.24 83.0149C61.4342 82.8649 61.6583 82.6999 61.9047 82.5199C63.7645 81.2 66.4832 80.5325 69.9935 80.5325" fill="#513529"/>
<path d="M76.0363 75.0574C76.0363 75.0574 79.0163 73.3401 84.0205 72.4326L87.0977 73.745L84.8869 75.9649L89.6969 75.4249C89.6969 75.4249 93.4462 77.4198 94.4097 78.1397C94.4097 78.1397 89.3085 79.9471 83.5873 78.1397C83.5873 78.1397 77.7616 75.5449 76.0363 75.0574ZM69.6354 74.9299C69.6354 74.9299 66.5284 76.5948 64.8628 79.6846C64.8628 79.6846 72.1748 78.5447 78.2695 79.6846C78.2695 79.6846 76.2977 77.7873 74.3109 77.2923C73.2952 77.0373 70.6512 78.5597 70.6512 78.5597L72.4811 76.2948C72.4811 76.2948 70.8528 75.6049 69.6354 74.9299Z" fill="#BE955B"/>
<path d="M130.866 111.123C130.41 111.58 129.865 111.805 129.223 111.805C128.58 111.805 128.035 111.572 127.587 111.123C127.139 110.665 126.915 110.118 126.915 109.473C126.915 108.828 127.139 108.288 127.594 107.83C128.043 107.38 128.588 107.155 129.223 107.155C129.858 107.155 130.41 107.38 130.866 107.83C131.314 108.28 131.546 108.828 131.546 109.473C131.546 110.118 131.321 110.665 130.866 111.123ZM127.819 108.055C127.43 108.445 127.236 108.918 127.236 109.473C127.236 110.028 127.43 110.5 127.811 110.898C128.199 111.288 128.67 111.49 129.223 111.49C129.775 111.49 130.246 111.295 130.634 110.898C131.023 110.508 131.217 110.028 131.217 109.473C131.217 108.918 131.023 108.445 130.634 108.055C130.246 107.665 129.775 107.47 129.223 107.47C128.67 107.47 128.207 107.665 127.819 108.055ZM129.178 108.183C129.492 108.183 129.723 108.213 129.872 108.273C130.134 108.385 130.268 108.595 130.268 108.918C130.268 109.143 130.186 109.315 130.022 109.42C129.932 109.48 129.813 109.518 129.656 109.548C129.858 109.578 129.999 109.66 130.097 109.795C130.186 109.93 130.231 110.065 130.231 110.193V110.38C130.231 110.44 130.231 110.5 130.231 110.568C130.231 110.635 130.246 110.68 130.253 110.703L130.268 110.733H129.85C129.85 110.733 129.85 110.718 129.85 110.71C129.85 110.703 129.85 110.688 129.85 110.68V110.395C129.843 110.103 129.76 109.908 129.596 109.81C129.506 109.758 129.335 109.728 129.096 109.728H128.745V110.733H128.297V108.183H129.193H129.178ZM129.663 108.588C129.551 108.528 129.372 108.49 129.118 108.49H128.737V109.413H129.141C129.335 109.413 129.469 109.39 129.566 109.353C129.738 109.285 129.828 109.15 129.828 108.955C129.828 108.768 129.775 108.648 129.656 108.58" fill="#B3282D"/>
</svg>
