<svg width="49" height="49" viewBox="0 0 49 49" fill="none" xmlns="http://www.w3.org/2000/svg">
<path d="M46.0179 16.3709C43.3726 15.1364 40.1983 16.1945 39.1402 18.8398C38.2585 20.6033 36.495 22.0141 34.3788 22.3668C32.0862 22.8958 29.6173 21.3087 28.5592 20.6033C26.2666 18.4871 22.5633 18.6634 20.4471 20.956C18.3309 23.2485 18.5073 26.9519 20.7998 29.0681C23.0924 31.1843 26.7957 31.0079 28.9119 28.7154C29.2646 28.3627 29.6173 27.8336 29.7937 27.3046V27.1282C30.1464 26.5992 30.4991 26.2465 31.0281 25.7174C32.0862 25.012 33.1443 24.6593 34.3788 24.483C37.7294 23.7776 41.2564 25.7174 41.2564 25.7174C41.4328 25.7174 41.4328 25.8938 41.6091 25.8938C44.2544 27.1282 47.2523 26.0701 48.4868 23.4249C49.7212 20.6033 48.6631 17.6053 46.0179 16.3709Z" fill="#007CBA"/>
<path d="M40.7277 29.9499C38.6115 29.9499 36.848 31.3607 36.1426 33.3005V33.1242C34.9081 34.8877 33.321 36.2985 31.3811 37.3566C31.0284 37.5329 30.6757 37.7093 30.323 37.8856C22.9163 41.2363 14.2752 38.062 10.9245 30.6553C7.57387 23.2486 10.7482 14.6074 18.1549 11.2568C22.74 9.14059 28.2068 9.49329 32.4392 12.4912C32.6156 12.4912 32.6156 12.6676 32.7919 12.6676C35.2608 13.902 38.0824 12.8439 39.3169 10.5514C40.1986 8.61154 39.8459 6.31899 38.2588 4.90819L38.0824 4.73184C37.9061 4.55549 37.5534 4.37914 37.2007 4.20279C25.9143 -3.02756 11.1009 0.146739 3.87052 11.4331C-3.35984 22.7195 -0.185538 37.533 11.1009 44.7633C22.2109 51.8173 37.0243 48.8194 44.2547 37.8856C44.2547 37.8856 44.2547 37.8857 44.431 37.7093C44.6074 37.3566 44.7837 37.1802 44.9601 36.8275C45.3128 36.1222 45.4891 35.4167 45.4891 34.7113C45.4891 32.2424 43.1966 30.1262 40.7277 29.9499Z" fill="#007CBA"/>
</svg>
