<svg width="38" height="37" viewBox="0 0 38 37" fill="none" xmlns="http://www.w3.org/2000/svg">
<path d="M37.45 18.5C37.45 28.3998 29.2036 36.45 19 36.45C8.79643 36.45 0.55 28.3998 0.55 18.5C0.55 8.60022 8.79643 0.55 19 0.55C29.2036 0.55 37.45 8.60022 37.45 18.5Z" stroke="white" stroke-width="1.1"/>
<path d="M13.2386 25.7765C14.4362 26.6738 15.7995 27.2735 17.2963 27.5617V28.7592C17.2963 29.5108 17.9258 30.1224 18.699 30.1224H20.4344C21.2077 30.1224 21.8371 29.5108 21.8371 28.7592V27.5636C23.134 27.3319 24.2839 26.8998 25.2596 26.2769C27.0054 25.1529 27.9102 23.5825 27.9489 21.6095C27.9753 20.3606 27.6109 19.283 26.8648 18.4045C25.7607 17.1223 24.0704 16.2878 21.8364 15.9211V13.8866C21.9848 13.987 22.1312 14.0975 22.2743 14.2187C22.591 14.4743 22.9612 14.6049 23.3739 14.6062C23.7144 14.6162 24.1001 14.4266 24.1581 14.3971C24.1781 14.3883 24.1968 14.3789 24.2155 14.3676L26.1612 13.1783C26.6629 12.8693 26.7745 12.4681 26.7796 12.1855C26.7848 11.8634 26.6526 11.5689 26.3966 11.3328C25.2022 10.0172 23.6699 9.15823 21.8371 8.77582V7.34978C21.8371 6.59626 21.2083 5.9834 20.4344 5.9834H18.699C17.9258 5.9834 17.2963 6.59626 17.2963 7.34978V8.71553C16.5089 8.85054 15.7814 9.06529 15.1301 9.35603C12.6272 10.4656 11.38 12.1654 11.4232 14.4077C11.4432 15.5098 11.7888 16.5006 12.4486 17.3502C13.4714 18.6859 15.1017 19.5624 17.2963 19.9568V22.8842C16.6069 22.5451 15.9407 22.0396 15.3094 21.3753C15.0327 21.035 14.6477 20.8547 14.195 20.8547C13.9506 20.8547 13.623 20.9835 13.4933 21.0387C13.483 21.0431 13.4733 21.0475 13.4637 21.0525C13.4572 21.0557 13.4462 21.0613 13.4404 21.0645L11.6728 22.0742C11.1085 22.3919 10.9956 22.8296 11.0001 23.1423C11.0053 23.423 11.1085 23.6779 11.3058 23.9008C11.7908 24.5545 12.4415 25.1856 13.2386 25.7752V25.7765ZM12.1306 22.8409L13.8777 21.8431C13.9873 21.7979 14.1447 21.7464 14.1943 21.742C14.3736 21.742 14.4955 21.7991 14.6013 21.9335C14.6097 21.9436 14.618 21.9542 14.6277 21.9637C15.5473 22.9351 16.5476 23.6114 17.5994 23.9737C17.7387 24.0214 17.8929 24.0007 18.0141 23.9178C18.1347 23.8349 18.2063 23.6999 18.2063 23.5561V19.5838C18.2063 19.3653 18.0425 19.1794 17.8206 19.1461C15.6744 18.824 14.1124 18.0416 13.1754 16.8196C12.6246 16.1107 12.3486 15.317 12.3325 14.3933C12.2964 12.5101 13.3347 11.1262 15.5074 10.1629C16.1858 9.86088 16.9616 9.64927 17.8129 9.53436C18.038 9.50359 18.205 9.31647 18.205 9.09543V7.35104C18.205 7.08605 18.4256 6.87067 18.6977 6.87067H20.4331C20.7046 6.87067 20.9258 7.08605 20.9258 7.35104V9.1419C20.9258 9.35728 21.0851 9.54127 21.3031 9.57831C23.1024 9.88349 24.5908 10.6766 25.7278 11.9356C25.7388 11.9481 25.7504 11.9594 25.7633 11.9707C25.8587 12.0555 25.8703 12.1202 25.8697 12.1717C25.869 12.2175 25.8671 12.3123 25.6762 12.4298L23.7531 13.6052C23.6493 13.6555 23.4629 13.7214 23.3791 13.7214C23.1791 13.7208 23.0076 13.6605 22.8631 13.5443C22.4607 13.2046 22.028 12.9265 21.5766 12.7192C21.436 12.6546 21.2709 12.6646 21.1387 12.7456C21.0071 12.8266 20.9271 12.9679 20.9271 13.1199V16.3016C20.9271 16.5226 21.0942 16.7097 21.3192 16.7405C23.5177 17.04 25.1493 17.7917 26.1663 18.9728C26.7758 19.6905 27.0615 20.5477 27.0395 21.5932C27.006 23.2817 26.2598 24.5721 24.7598 25.5385C23.7995 26.1507 22.6406 26.5589 21.3154 26.7517C21.0922 26.7837 20.9271 26.9702 20.9271 27.1899V28.761C20.9271 29.0241 20.7066 29.2383 20.4344 29.2383H18.699C18.4268 29.2383 18.2063 29.0241 18.2063 28.761V27.1925C18.2063 26.9746 18.0438 26.7893 17.8226 26.7548C16.327 26.5231 14.9714 25.9586 13.7913 25.0744C13.0574 24.5313 12.4653 23.958 12.0326 23.3696C12.0229 23.3564 12.0126 23.3439 12.0017 23.3319C11.923 23.2459 11.9114 23.1806 11.9101 23.1297C11.9088 23.0732 11.9075 22.9677 12.1306 22.8415V22.8409Z" fill="white"/>
<path d="M18.2061 13.0325C18.2061 12.8862 18.1319 12.7493 18.0081 12.6671C17.8843 12.5848 17.7263 12.5666 17.5863 12.62L17.4528 12.6708C17.4419 12.6746 17.4315 12.679 17.4212 12.684C16.3662 13.1751 16.1482 13.8953 16.1514 14.4133V14.4146C16.1566 15.0162 16.4107 15.8256 17.5876 16.267C17.6405 16.2865 17.6959 16.2965 17.7508 16.2965C17.8411 16.2965 17.9313 16.2701 18.0081 16.2187C18.1313 16.1364 18.2054 15.9995 18.2054 15.8538V13.0332L18.2061 13.0325ZM17.2961 15.057C17.1007 14.8422 17.0627 14.6099 17.0614 14.4083C17.0607 14.2495 17.0917 14.0416 17.2961 13.8294V15.057Z" fill="white"/>
<path d="M21.1355 23.8673C21.2103 23.9138 21.2955 23.9376 21.3812 23.9376C21.4457 23.9376 21.5102 23.9244 21.5702 23.8974C21.7018 23.8384 21.8559 23.7668 21.9984 23.6795C22.8033 23.2017 23.2328 22.4871 23.2399 21.613C23.245 20.9311 22.9503 20.0262 21.5173 19.5861C21.3787 19.5434 21.2284 19.5678 21.1117 19.6514C20.9949 19.7349 20.9253 19.8674 20.9253 20.0087V23.4943C20.9253 23.645 21.004 23.7857 21.1349 23.8673H21.1355ZM21.8359 20.6937C22.2667 20.9732 22.3325 21.316 22.3305 21.6061C22.3267 22.0563 22.1687 22.4111 21.8359 22.7006V20.6937Z" fill="white"/>
</svg>
