<svg width="38" height="53" viewBox="0 0 38 53" fill="none" xmlns="http://www.w3.org/2000/svg">
<path d="M36.0643 8.28194V5.37353C36.0643 2.65901 33.7376 0.332275 31.0231 0.332275C30.6353 0.332275 30.2475 0.332276 29.8597 0.52617L6.01073 6.1491C2.71453 6.343 0 9.05752 0 12.3537V46.4791C0 49.9692 2.71451 52.6837 6.20461 52.6837H31.217C34.7071 52.6837 37.4216 49.9692 37.4216 46.4791V12.1598C37.6155 10.8026 37.0338 9.25141 36.0643 8.28194ZM30.4414 2.07732C32.1864 1.68954 33.9315 2.8529 34.3193 4.59795C34.3193 4.79184 34.3193 5.17963 34.3193 5.37353V6.92468C33.3498 6.343 32.3803 6.1491 31.217 6.1491H13.5726L30.4414 2.07732ZM14.736 35.621C13.5726 35.621 12.6031 34.6516 12.6031 33.4882C12.6031 32.3248 13.3787 31.3554 14.736 31.3554C15.8993 31.3554 16.8688 32.3248 16.8688 33.4882C16.8688 34.6516 15.8993 35.621 14.736 35.621ZM21.1345 38.3355C21.1345 38.1416 20.9406 37.9478 20.9406 37.9478L15.5115 25.5385C15.5115 25.3446 15.3176 25.3446 15.1238 25.1507C14.9299 24.9568 14.5421 24.9568 14.3482 25.1507C14.1543 25.1507 14.1543 25.3446 14.1543 25.5385L8.72524 37.9478C8.72524 38.1416 8.53133 38.1416 8.53133 38.3355H4.07179C4.07179 38.3355 4.07177 38.1416 4.26567 38.1416C4.26567 38.1416 4.26568 37.9478 4.45957 37.9478L10.6642 24.3752C11.4398 22.824 13.1848 21.8545 14.9298 22.0484C16.6749 21.8545 18.42 22.824 19.3894 24.3752L25.594 37.9478L25.7879 38.1416C25.7879 38.1416 25.7879 38.3355 25.9818 38.3355H21.1345ZM30.2475 38.5294C30.2475 38.7233 30.2475 38.7233 30.2475 38.5294C29.0841 38.5294 28.1147 37.7539 28.1147 36.7844V36.5905C28.1147 32.3248 28.1147 28.0591 28.1147 23.5996C28.1147 22.6301 28.8902 21.6606 30.0536 21.6606C31.0231 21.6606 31.7987 22.4362 31.7987 23.5996C31.7987 23.5996 31.7987 23.5996 31.7987 23.7935C31.7987 25.9263 31.7987 28.0591 31.7987 30.192C31.7987 32.3248 31.7987 34.4577 31.7987 36.5905C31.9926 37.56 31.4109 38.5294 30.2475 38.5294Z" fill="#EB5A43"/>
</svg>
