<svg width="38" height="38" viewBox="0 0 38 38" fill="none" xmlns="http://www.w3.org/2000/svg">
<path d="M37.45 18.5425C37.45 28.4669 29.2024 36.5349 19 36.5349C8.79763 36.5349 0.55 28.4669 0.55 18.5425C0.55 8.61806 8.79763 0.55 19 0.55C29.2024 0.55 37.45 8.61806 37.45 18.5425Z" stroke="white" stroke-width="1.1"/>
<path d="M22.1535 16.1187H16.9602V15.5465C16.9602 14.6518 17.7373 13.9252 18.6959 13.9252C19.4591 13.9252 20.1385 14.3975 20.3572 15.0833C20.3945 15.2059 20.4922 15.3058 20.6178 15.3512C20.7435 15.3966 20.8831 15.3875 20.9947 15.324L21.2228 15.1923C21.3996 15.0923 21.4834 14.8834 21.4182 14.6882C21.0227 13.571 19.9338 12.8217 18.6959 12.8217C17.1138 12.8217 15.8294 14.0433 15.8294 15.5465V16.1187H15.2896C14.9825 16.1187 14.7266 16.3685 14.7266 16.6727V22.0543C14.7266 22.3586 14.9825 22.6083 15.2896 22.6083H22.1581C22.4699 22.6083 22.7258 22.3586 22.7258 22.0543V16.6727C22.7258 16.3685 22.4699 16.1187 22.1581 16.1187H22.1535ZM19.2869 20.1832C19.2869 20.4875 19.031 20.7373 18.7192 20.7373C18.4074 20.7373 18.1561 20.4875 18.1561 20.1832V18.5438C18.1561 18.2395 18.4121 17.9897 18.7192 17.9897C19.0263 17.9897 19.2869 18.2395 19.2869 18.5438V20.1832Z" fill="white"/>
<path d="M27.1468 10.0832C27.0863 10.0287 27.0165 9.9878 26.9467 9.95601L26.6163 9.83339C21.5255 7.88968 15.9181 7.88968 10.8272 9.83339L10.7528 9.86064C10.1804 10.0832 9.80811 10.61 9.80811 11.214V23.1669C9.80811 23.6165 10.0408 24.0298 10.4224 24.2795L17.9935 29.1933C18.2169 29.3341 18.4682 29.4113 18.7241 29.4113C18.98 29.4113 19.2313 29.3386 19.4547 29.1933L27.0026 24.2977C27.4028 24.0388 27.6401 23.6074 27.6401 23.1396V10.7008C27.6401 10.4056 27.4307 10.1513 27.1468 10.0832ZM26.3325 23.1396C26.3325 23.1805 26.3092 23.2168 26.2766 23.2396L18.7939 28.0943C18.752 28.1215 18.6962 28.1215 18.6543 28.0943L11.1762 23.2396C11.139 23.2168 11.1157 23.1805 11.1157 23.1396V11.1822C11.1157 11.1277 11.1483 11.0823 11.1948 11.0686C13.6239 10.1422 16.174 9.67899 18.7241 9.67899C21.2742 9.67899 23.8289 10.1422 26.2534 11.0686L26.3325 11.1004V23.1442V23.1396Z" fill="white"/>
</svg>
