<svg width="170" height="171" viewBox="0 0 170 171" fill="none" xmlns="http://www.w3.org/2000/svg">
<path d="M0.25 170.082V0.582031H169.75V170.082H0.25Z" fill="white" stroke="#B8B1B1" stroke-width="0.5"/>
<path d="M90.0594 46.4515C92.413 45.0488 95.1158 44.0731 97.8794 44.2484C99.9672 44.3704 102.017 45.3843 103.308 47.0538C104.796 48.8986 105.517 51.4067 104.97 53.747C104.348 56.7125 102.055 58.9842 99.542 60.4936C99.9292 61.8963 100.324 63.3143 100.764 64.7017C101.349 64.7017 101.911 64.7169 102.495 64.7169C102.442 62.1098 103.331 59.4264 105.13 57.5053C105.646 56.9717 106.223 56.5143 106.914 56.2475C107.643 55.9806 108.615 56.2475 108.896 57.0098C109.199 58.1075 108.577 59.1596 108.03 60.0667C107.005 61.6295 105.464 62.9941 105.274 64.9685C109.943 65.5555 114.491 67.629 117.763 71.0595C121.18 74.49 123.298 79.2088 123.404 84.0801C125.158 84.1716 126.904 85.0025 127.823 86.5348C129.007 88.5093 129.288 90.903 129.045 93.1595C128.673 96.0334 127.368 98.7016 125.705 101.065C123.723 103.885 121.248 106.34 118.591 108.505C118.113 108.917 117.513 109.199 117.232 109.786C116.42 111.227 115.235 112.469 113.785 113.27C111.325 114.619 108.41 115.099 105.669 114.566C105.046 114.474 104.447 114.245 103.847 114.139C99.4965 113.727 95.1083 113.392 90.7959 112.629C87.6299 112.042 84.4639 111.12 81.6472 109.466C79.2936 108.078 77.2438 106.02 76.3403 103.39C75.7405 101.614 75.5051 99.5859 76.1277 97.7944C76.6212 96.3536 77.6689 95.2025 78.8533 94.2953C77.8283 91.8101 77.3501 89.1267 77.3121 86.4433C77.4184 82.2124 78.8001 78.0043 81.222 74.5586C80.7817 74.1165 80.3717 73.6514 79.9845 73.1712C78.2003 74.147 76.0594 74.4824 74.055 74.0555C71.8988 73.6438 69.7579 72.4393 68.6798 70.4497C67.6169 68.4752 67.5105 65.9595 68.5203 63.9317C69.401 62.1174 71.0181 60.7909 72.7112 59.7923C75.4899 58.1609 78.6407 57.2842 81.8066 56.7201C83.1656 52.3824 86.2633 48.7461 90.067 46.4363M90.3707 47.4273C86.0735 50.0345 83.2264 54.5322 81.7231 59.2739C81.5637 59.7008 81.4574 60.4098 80.8576 60.3945C80.8424 59.4721 81.2296 58.6183 81.4422 57.7492C78.6103 58.3515 75.7633 59.1519 73.2351 60.608C71.6939 61.4923 70.2665 62.7044 69.4693 64.3205C68.4292 66.4322 68.7404 69.1842 70.3196 70.9604C71.3825 72.1649 72.9162 72.8586 74.4953 73.1483C76.0897 73.3999 77.8359 73.3465 79.2557 72.4546C77.9498 71.3035 76.6591 70.1295 75.2546 69.0622C75.0572 68.9402 74.9357 68.7802 74.9205 68.5438C77.593 69.3824 79.6581 71.4026 81.5713 73.3541C81.6928 73.4456 81.8902 73.781 82.0496 73.5676C84.1906 70.9071 87.0377 68.8945 90.1126 67.4385C89.2319 65.7537 88.5713 63.8708 88.6472 61.9344C88.6852 60.73 88.8219 59.4492 89.4444 58.3972C89.9076 57.6501 90.8566 57.1699 91.7069 57.5129C92.2232 57.7111 92.5193 58.26 92.6635 58.7708C93.2633 61.2255 92.2231 63.764 92.9975 66.1959C95.1765 65.5174 97.3859 64.8999 99.6863 64.8313C99.0106 62.308 98.2742 59.7847 98.0085 57.1775C97.9553 56.3923 97.9173 55.5766 98.0768 54.8143C98.1451 54.7762 98.2742 54.7228 98.3425 54.7076C98.593 56.3084 98.9651 57.8865 99.3143 59.4645C101.653 58.1533 103.611 55.8739 104.105 53.1753C104.728 49.7295 102.23 46.017 98.7601 45.3919C95.8067 44.8735 92.8685 45.9255 90.3783 47.4197M106.99 57.025C106.231 57.2918 105.631 57.8788 105.153 58.5192C104.234 59.8533 103.475 61.3246 103.239 62.9407C102.959 64.4882 103.118 66.0663 103.042 67.6138C102.404 67.1869 102.655 66.2264 102.526 65.5707C99.3978 65.4259 96.285 66.0358 93.3089 67.0268C93.5214 67.8806 94.2427 68.5362 94.349 69.4281C94.1364 69.3367 93.9238 69.1994 93.7796 69.0012C92.8457 67.934 92.1548 66.638 91.9422 65.2353C91.6917 63.886 92.0106 62.5214 91.9954 61.1645C91.9802 60.2573 92.0865 59.2434 91.5171 58.4811C91.054 58.1609 90.3859 58.3896 90.105 58.8394C89.5583 59.6779 89.414 60.7071 89.414 61.6829C89.3609 64.1681 90.2643 66.6228 91.6613 68.6429C91.965 69.2147 92.542 69.6568 92.6331 70.3124C91.6613 69.9008 91.2362 68.803 90.4922 68.1627C89.2546 68.7497 88.0702 69.4434 86.939 70.2438C83.1884 72.851 80.3794 76.7999 79.1039 81.2061C77.8132 85.3075 78.1169 89.8357 79.6505 93.8151C82.0724 92.5725 85.0257 92.6258 87.4856 93.7465C87.5539 93.8684 87.6071 93.998 87.6603 94.12C86.3544 93.9218 85.0409 93.6931 83.7123 93.7083C81.9281 93.6702 80.1212 94.2801 78.7774 95.4464C77.6993 96.3841 76.9552 97.7182 76.7958 99.159C76.5453 101.789 77.555 104.488 79.3772 106.371C81.6776 108.772 84.8056 110.152 87.9943 110.937C92.4661 112.035 97.0519 112.515 101.615 112.911C101.174 112.591 100.711 112.271 100.415 111.814L100.483 111.562C101.349 111.76 102.131 112.241 102.981 112.523C105.737 113.75 108.979 114.101 111.826 113.003C114.339 112.096 116.404 110.037 117.293 107.514C117.49 107.179 117.467 106.607 117.892 106.485C117.908 106.897 117.908 107.324 117.908 107.728C120.314 105.86 122.524 103.733 124.361 101.278C126.009 99.0751 127.368 96.5899 127.899 93.8532C128.324 91.7949 128.165 89.607 127.367 87.6554C126.874 86.4662 125.917 85.4904 124.718 85.0483C123.215 84.4613 121.499 84.7281 120.087 85.4371V85.155C120.777 84.5833 121.643 84.2859 122.508 84.0877C122.402 78.477 119.54 73.0035 115.007 69.7026C112.092 67.5909 108.66 66.1349 105.069 65.8147C105.016 66.4932 105.016 67.1793 104.948 67.8577C104.614 67.6443 104.561 67.2174 104.538 66.8667C104.485 65.6775 104.523 64.4349 105.016 63.3295C105.745 61.6219 107.089 60.3107 107.931 58.6793C108.144 58.2143 108.372 57.6349 108.023 57.1699C107.795 56.8878 107.316 56.9717 106.982 57.0479L106.99 57.025Z" fill="#231F20"/>
<path d="M109.754 75.3893C111.189 74.9472 112.745 75.3741 113.967 76.1745C115.379 77.1351 116.336 78.6064 117.065 80.1158C117.877 81.8234 118.287 83.7216 118.318 85.6046C118.599 85.6046 118.993 85.6427 118.796 86.0467C116.655 87.2512 114.377 88.1965 112.213 89.3705C111.454 89.744 110.748 90.209 109.966 90.5063C108.607 88.8216 107.734 86.7938 107.157 84.7355C106.641 82.8144 106.276 80.7561 106.747 78.7817C107.081 77.2571 108.197 75.8315 109.754 75.3893ZM107.787 78.0499C107.058 79.7346 107.149 81.7091 107.613 83.4472C107.787 82.3647 108.235 81.2059 109.222 80.6265C110.498 79.788 112.282 79.9328 113.413 80.962C113.041 81.8996 112.578 82.8297 112.213 83.7826C113.011 83.3023 113.785 82.7687 114.552 82.2351C115.387 83.5691 115.88 85.1319 115.88 86.7099C116.465 86.4584 117.027 86.2144 117.596 85.9247C117.475 82.9974 116.556 80.0091 114.59 77.7907C113.633 76.7082 112.251 75.8544 110.771 75.9992C109.518 76.0373 108.296 76.853 107.802 78.0423L107.787 78.0499ZM93.8328 78.8122C95.9889 78.7055 97.9401 80.07 99.208 81.7243C100.871 83.8741 101.402 86.6413 101.6 89.3095C101.668 90.514 101.653 91.7413 101.493 92.9534C100.165 92.9534 98.8208 92.9534 97.4922 92.9915C94.926 93.0983 92.3978 93.4337 89.8696 93.8301C89.8164 93.7081 89.695 93.4718 89.6418 93.3498C89.8544 93.2431 90.067 93.1516 90.2796 93.0449C89.0952 90.7884 88.26 88.288 88.26 85.7265C88.26 83.7902 88.8598 81.7853 90.2948 80.436C91.2666 79.5288 92.4889 78.8046 93.8328 78.8198M92.8988 79.8642C91.5171 80.2378 90.4542 81.3584 89.824 82.601C89.0117 84.2324 88.8674 86.1916 89.3609 87.9449C89.5052 86.2068 90.7047 84.4992 92.4205 84.057C93.6732 83.6987 95.0171 84.2019 96.0268 84.9642C95.5637 86.0467 95.055 87.114 94.6982 88.2498C95.5789 87.701 96.4293 87.0987 97.3328 86.6185C98.3046 88.3261 98.426 90.3463 98.1451 92.2521C99.0106 92.2521 99.8989 92.2368 100.764 92.214C100.909 89.7974 100.711 87.3274 99.9672 85.0023C99.3295 83.0508 98.0767 81.2364 96.2318 80.2454C95.2221 79.6965 93.9997 79.5669 92.8912 79.8718L92.8988 79.8642ZM119.1 92.4198C119.578 92.3512 120.018 91.9929 120.534 92.0615C119.897 92.9153 118.712 93.0754 118.128 93.9826C116.45 96.1857 115.083 98.6328 114.058 101.209C113.367 102.81 112.434 104.48 110.824 105.296C109.177 106.027 107.218 105.921 105.608 105.174C104.09 104.495 102.761 103.466 101.243 102.772C99.2991 101.888 97.3175 101.087 95.2828 100.447C94.8197 100.325 94.3263 100.112 93.8328 100.287C92.9141 100.569 91.9195 100.645 90.9705 100.462C91.0084 100.409 91.0767 100.287 91.1147 100.234C92.2839 100.074 93.4683 99.6619 94.2655 98.7624C94.5312 98.5108 94.7058 98.0686 95.131 98.0686C95.1993 98.5489 94.9868 98.9911 94.7742 99.418C95.9965 99.9135 97.3251 100.074 98.6158 100.272C102.26 100.714 106.049 100.699 109.587 99.5781C112.289 98.709 114.894 97.2301 116.662 94.9812C117.035 94.4857 117.422 93.9673 117.634 93.3651C117.118 93.2736 116.488 93.0983 116.328 92.5113C117.285 92.5494 118.219 92.6866 119.122 92.4198M109.184 101.926C109.412 102.284 109.678 102.62 109.875 102.97C108.053 101.69 105.509 101.957 103.718 103.131C105.183 104.251 107.028 105.067 108.903 104.922C110.725 104.762 112.282 103.359 112.935 101.69C112.335 101.438 111.697 101.171 111.021 101.225C110.346 101.263 109.746 101.56 109.184 101.918V101.926Z" fill="#231F20"/>
<path d="M109.465 93.2051C109.906 93.5253 110.247 94.0436 110.225 94.6078C110.278 95.3549 109.731 95.9952 109.109 96.3459C108.175 96.8109 107.036 96.8261 106.034 96.5593C105.29 96.3078 104.386 95.8504 104.25 94.9813C105.328 95.6903 106.671 95.9723 107.947 95.6598C108.623 95.4997 109.291 95.1262 109.594 94.4705C109.792 94.0284 109.61 93.6015 109.473 93.2127L109.465 93.2051Z" fill="#231F20"/>
<path d="M90.3634 47.4499C92.8613 45.9558 95.8147 44.9114 98.7453 45.3688C102.215 45.9939 104.69 49.7064 104.09 53.1522C103.597 55.8508 101.63 58.1226 99.2995 59.4414C98.9427 57.8634 98.5706 56.2777 98.3277 54.6845C98.2593 54.7226 98.1303 54.7759 98.062 54.7912C97.9025 55.5764 97.9405 56.3692 97.9937 57.1544C98.2594 59.7616 99.0034 62.2849 99.6715 64.8082C97.3862 64.8997 95.1618 65.5172 92.9828 66.1728C92.2008 63.7409 93.2485 61.2024 92.6487 58.7477C92.5045 58.2293 92.2235 57.7033 91.6921 57.4898C90.8418 57.1544 89.8851 57.6118 89.4296 58.3741C88.8071 59.4414 88.6704 60.6992 88.6324 61.9113C88.5641 63.8477 89.217 65.7306 90.0977 67.4154C87.0381 68.8714 84.1682 70.8763 82.0348 73.5445C81.8754 73.7579 81.678 73.4225 81.5565 73.331C79.6433 71.3795 77.5782 69.3517 74.9057 68.5207C74.9057 68.7494 75.0499 68.9095 75.2397 69.0391C76.6215 70.1064 77.9274 71.2804 79.2408 72.4315C77.8287 73.3005 76.0901 73.3539 74.4805 73.1252C72.9241 72.8432 71.3829 72.1494 70.3048 70.9373C68.7332 69.1611 68.4143 66.4243 69.4545 64.2974C70.2517 62.6813 71.6866 61.4768 73.2203 60.5849C75.7485 59.1288 78.5803 58.3284 81.4274 57.7261C81.2148 58.6105 80.8276 59.4643 80.8428 60.3714C81.4426 60.3867 81.5337 59.6777 81.7083 59.2508C83.1964 54.5625 86.0587 50.0647 90.3558 47.4576L90.3634 47.4499ZM107.188 72.6754C108.691 71.997 110.445 71.7911 112.032 72.2638C113.854 72.7974 115.357 74.0781 116.557 75.4961C118.91 78.1261 120.026 81.709 120.095 85.2081V85.4902C121.507 84.7812 123.223 84.5144 124.726 85.1014C125.925 85.5436 126.882 86.5193 127.375 87.7086C128.157 89.6601 128.309 91.848 127.907 93.9063C127.376 96.6202 126.016 99.1283 124.369 101.331C122.532 103.786 120.315 105.913 117.916 107.781C117.916 107.369 117.916 106.942 117.9 106.538C117.475 106.66 117.49 107.232 117.301 107.567C116.42 110.106 114.347 112.149 111.834 113.056C108.987 114.154 105.753 113.803 102.989 112.576C102.139 112.294 101.365 111.813 100.491 111.615L100.423 111.867C100.742 112.332 101.205 112.652 101.623 112.965C97.0446 112.576 92.4589 112.096 88.0023 110.99C84.8363 110.205 81.6856 108.825 79.3851 106.424C77.563 104.541 76.5532 101.842 76.8038 99.2121C76.9632 97.7942 77.7072 96.4449 78.7853 95.4996C80.1291 94.3256 81.9361 93.7081 83.7203 93.7615C85.0489 93.7462 86.3548 93.9902 87.6683 94.1731C87.6151 94.0512 87.5467 93.9216 87.4936 93.7996C85.6563 90.2853 84.6845 86.1077 85.6335 82.1817C86.1802 79.8337 87.6303 77.6687 89.7409 76.4642C91.8971 75.2064 94.6227 74.8862 96.9611 75.8239C99.7019 76.9064 101.911 79.0943 103.331 81.6709C103.346 80.2682 103.225 78.8503 103.612 77.4781C104.143 75.5266 105.313 73.5902 107.188 72.6678M109.754 75.3817C108.198 75.8239 107.082 77.2494 106.732 78.7893C106.269 80.7638 106.641 82.822 107.142 84.7431C107.727 86.8014 108.592 88.8292 109.951 90.514C110.749 90.2319 111.455 89.7516 112.199 89.3781C114.355 88.2041 116.64 87.2664 118.781 86.0543C118.979 85.6655 118.584 85.6122 118.303 85.6122C118.25 83.7292 117.862 81.831 117.05 80.1234C116.344 78.5987 115.372 77.1198 113.952 76.1822C112.753 75.3665 111.174 74.9396 109.762 75.3817M93.8406 78.8122C92.4968 78.7969 91.2745 79.5212 90.3027 80.4131C88.8906 81.7624 88.268 83.7902 88.268 85.7037C88.268 88.2651 89.0804 90.7655 90.2875 93.022C90.075 93.1287 89.8624 93.2202 89.6498 93.327C89.703 93.4489 89.8244 93.6852 89.8775 93.8072C92.4057 93.3956 94.9567 93.0601 97.5001 92.9687C98.8288 92.9534 100.173 92.9305 101.501 92.9305C101.646 91.7261 101.676 90.4987 101.608 89.2866C101.41 86.6413 100.879 83.8512 99.216 81.7014C97.9633 80.07 95.9968 78.6978 93.8406 78.8046M119.1 92.4122C118.196 92.679 117.263 92.557 116.321 92.5189C116.481 93.1059 117.118 93.2812 117.627 93.3727C117.415 93.9749 117.027 94.4704 116.655 94.9888C114.871 97.2453 112.267 98.7166 109.579 99.5857C106.041 100.706 102.253 100.722 98.6086 100.279C97.3027 100.104 95.9893 99.9211 94.767 99.4256C94.9795 99.0139 95.1921 98.5718 95.1238 98.0763C94.6986 98.061 94.5392 98.5184 94.2583 98.77C93.4611 99.6772 92.2767 100.081 91.1075 100.241C91.0695 100.295 91.0012 100.417 90.9633 100.47C91.9199 100.645 92.8917 100.577 93.8255 100.295C94.3038 100.096 94.7973 100.333 95.2756 100.455C97.3103 101.095 99.3071 101.873 101.236 102.78C102.754 103.474 104.083 104.503 105.601 105.181C107.226 105.928 109.177 106.05 110.817 105.303C112.426 104.487 113.368 102.818 114.051 101.217C115.076 98.6404 116.42 96.1933 118.121 93.9902C118.705 93.083 119.89 92.9229 120.527 92.0691C119.996 91.9776 119.571 92.3207 119.077 92.4045M109.458 93.1897C109.602 93.6014 109.777 94.0054 109.602 94.4323C109.298 95.0879 108.63 95.4767 107.955 95.6216C106.702 95.9417 105.335 95.6597 104.257 94.9431C104.401 95.8121 105.282 96.2772 106.041 96.5211C107.028 96.7879 108.167 96.7727 109.116 96.3077C109.739 95.9494 110.285 95.3166 110.232 94.5695C110.232 93.9978 109.898 93.5023 109.45 93.1821M109.541 107.499C107.788 107.887 106.041 107.247 104.447 106.576C105.685 108.177 107.947 108.635 109.86 108.23C111.538 107.895 113.095 106.706 113.52 104.983C112.48 106.187 111.151 107.239 109.541 107.506V107.499Z" fill="white"/>
<path d="M107.788 78.0494C108.281 76.8601 109.503 76.0444 110.779 76.0216C112.267 75.8767 113.641 76.7534 114.598 77.813C116.564 80.0314 117.483 83.0198 117.604 85.9471C117.035 86.2292 116.473 86.4807 115.888 86.7323C115.904 85.1543 115.395 83.5915 114.56 82.2574C113.801 82.7911 113.019 83.3018 112.221 83.805C112.594 82.8673 113.034 81.9373 113.421 80.9843C112.29 79.9552 110.506 79.8104 109.23 80.6489C108.243 81.2359 107.78 82.3718 107.621 83.4695C107.142 81.7086 107.051 79.7417 107.78 78.0494H107.788ZM92.8917 79.8637C94.0077 79.5588 95.2301 79.6884 96.2551 80.2525C98.0924 81.2283 99.3527 83.0579 99.9905 85.0094C100.734 87.3193 100.924 89.7892 100.788 92.2211C99.9221 92.2363 99.0338 92.2363 98.1683 92.2592C98.4492 90.361 98.3277 88.318 97.3559 86.6256C96.4372 87.1211 95.5869 87.7081 94.7214 88.257C95.0934 87.1363 95.5869 86.0691 96.05 84.9713C95.0403 84.1861 93.7116 83.7135 92.4438 84.0642C90.7279 84.5292 89.5283 86.2139 89.3841 87.952C88.8678 86.1911 89.0273 84.2395 89.8473 82.6081C90.4698 81.3274 91.5251 80.2296 92.9069 79.8561L92.8917 79.8637Z" fill="white"/>
<path d="M106.975 57.0552C107.309 56.9866 107.787 56.8951 108.038 57.2153C108.394 57.6574 108.182 58.2597 107.947 58.7247C107.096 60.3561 105.752 61.6749 105.031 63.3749C104.553 64.4727 104.5 65.7229 104.553 66.9121C104.568 67.2704 104.606 67.6973 104.963 67.9032C105.031 67.2247 105.031 66.5386 105.084 65.8601C108.675 66.1803 112.122 67.6363 115.022 69.748C119.547 73.0489 122.402 78.5224 122.524 84.1332C121.658 84.3314 120.793 84.6134 120.102 85.2004C120.033 81.7013 118.917 78.1108 116.564 75.4883C115.341 74.0704 113.861 72.7897 112.039 72.2561C110.444 71.7758 108.698 71.9892 107.195 72.6677C105.32 73.5749 104.15 75.5112 103.619 77.478C103.232 78.8426 103.338 80.2682 103.338 81.6708C101.941 79.1094 99.709 76.9139 96.9682 75.8238C94.6298 74.8861 91.9118 75.1987 89.748 76.4641C87.645 77.6686 86.1949 79.8412 85.6406 82.1816C84.684 86.1076 85.6558 90.2775 87.5007 93.7995C85.0408 92.7017 82.0875 92.6255 79.6656 93.8681C78.1243 89.8735 77.8283 85.3605 79.1189 81.2592C80.3944 76.8529 83.2035 72.9117 86.9541 70.2969C88.0701 69.5117 89.2545 68.8027 90.5073 68.2157C91.2513 68.8561 91.6536 69.9538 92.6482 70.3655C92.5571 69.687 91.9725 69.2677 91.6764 68.696C90.2642 66.6682 89.376 64.2364 89.4291 61.7359C89.4291 60.7601 89.5734 59.731 90.12 58.8924C90.4237 58.4503 91.0766 58.2139 91.5322 58.5341C92.1016 59.2965 91.9953 60.3104 92.0105 61.2175C92.0257 62.5821 91.7068 63.9314 91.9573 65.2884C92.1699 66.6911 92.8608 67.987 93.7946 69.0543C93.9389 69.2525 94.1515 69.3745 94.3641 69.4812C94.2578 68.5969 93.5517 67.9337 93.3239 67.0798C96.2925 66.0888 99.4053 65.479 102.541 65.6238C102.685 66.3023 102.419 67.2399 103.057 67.6668C103.125 66.1041 102.951 64.5413 103.255 62.9938C103.482 61.3776 104.242 59.8835 105.168 58.5722C105.631 57.8938 106.231 57.3144 106.99 57.0476L106.975 57.0552ZM109.154 101.918C109.7 101.56 110.323 101.263 110.991 101.24C111.667 101.186 112.297 101.453 112.904 101.705C112.251 103.374 110.695 104.777 108.873 104.937C106.997 105.082 105.16 104.259 103.687 103.146C105.494 101.972 108.038 101.69 109.845 102.986C109.647 102.597 109.381 102.254 109.154 101.918ZM79.415 112.202C80.2957 112.042 81.2751 112.522 81.7002 113.323C82.2848 114.39 81.8445 115.915 80.6905 116.395C79.415 117.035 77.6992 116.128 77.5777 114.687C77.3803 113.513 78.2685 112.339 79.415 112.202ZM49.57 113.94C50.2078 113.262 51.339 113.178 52.083 113.712C52.6145 114.07 52.8954 114.741 52.8802 115.381C52.8802 118.042 52.8802 120.71 52.8954 123.37C52.9638 124.826 52.8954 126.389 52.0451 127.655C50.6633 129.842 47.6947 130.46 45.3563 129.682C43.6405 129.149 42.2436 127.708 41.8032 125.955V125.246C41.9627 124.041 43.4127 123.454 44.4377 123.95C45.3032 124.361 45.5537 125.421 46.2977 125.993C47.0038 126.526 48.173 126.435 48.6893 125.673C49.0461 125.207 49.0461 124.628 49.0461 124.072C49.0309 121.304 49.0462 118.514 49.031 115.724C49.0158 115.099 49.1221 114.413 49.5776 113.948L49.57 113.94ZM83.4085 115.183C83.4085 113.978 84.7371 113.086 85.8683 113.445C86.7338 113.643 87.3337 114.512 87.3337 115.381C87.3489 116.57 87.3337 117.782 87.3337 118.972C89.6721 118.087 92.5495 119.04 93.8933 121.16C95.1157 122.989 95.0777 125.543 93.8553 127.373C93.1493 128.493 92.0181 129.324 90.7426 129.72C89.4519 130.109 88.0169 130.025 86.7415 129.576C85.3824 129.095 84.2437 128.013 83.7502 126.648C83.4313 125.833 83.3402 124.941 83.363 124.087C83.4009 121.121 83.3781 118.156 83.4009 115.19M88.799 122.135C87.7741 122.28 86.9389 123.233 86.9921 124.27C86.9921 125.421 88.0701 126.435 89.2013 126.328C90.2111 126.313 91.0766 125.444 91.1829 124.445C91.3803 123.149 90.0897 121.907 88.7914 122.135H88.799ZM73.7133 114.443C74.351 114.299 75.0571 114.443 75.5202 114.924C75.9986 115.351 76.1428 116.021 76.1428 116.647C76.1276 120.321 76.1428 124.003 76.1428 127.677C76.1807 128.638 75.4898 129.599 74.4952 129.72C73.3792 129.934 72.2632 128.973 72.286 127.838V116.311C72.286 115.442 72.9084 114.626 73.7208 114.443H73.7133ZM67.7002 114.642C68.8467 113.933 70.5321 114.786 70.5625 116.151C70.5777 120.039 70.5777 123.934 70.5625 127.838C70.5777 128.851 69.6818 129.759 68.6721 129.72C67.6471 129.789 66.7056 128.851 66.7436 127.838C66.7436 125.299 66.6753 122.738 66.7436 120.199C66.7436 118.834 66.6753 117.462 66.7588 116.113C66.7968 115.473 67.1991 114.939 67.6926 114.642H67.7002ZM119.388 118.019C120.322 117.874 121.142 118.956 120.717 119.833C120.383 120.672 119.16 120.877 118.576 120.207C117.87 119.475 118.363 118.072 119.388 118.019ZM119.297 118.232C118.765 118.377 118.34 118.911 118.462 119.475C118.553 120.359 119.806 120.717 120.352 120.008C121.043 119.299 120.231 117.965 119.289 118.232H119.297ZM59.2425 118.43C62.1275 118.072 65.0125 120.26 65.4681 123.134C66.0906 126.061 64.018 129.225 61.1026 129.827C58.6806 130.429 55.9702 129.24 54.7707 127.037C53.7078 125.192 53.7989 122.753 54.9833 120.999C55.9171 119.543 57.5343 118.583 59.2501 118.423M59.5006 122.12C58.5668 122.265 57.7317 123.111 57.7469 124.11C57.6406 125.139 58.4757 126.115 59.4779 126.275C60.6623 126.488 61.8846 125.49 61.8846 124.27C61.9909 122.989 60.7381 121.891 59.493 122.12H59.5006ZM97.0213 120.222C98.6157 118.339 101.531 117.874 103.672 119.017C105.069 119.726 106.041 121.152 106.291 122.692C106.398 123.332 106.519 124.026 106.238 124.613C105.957 125.215 105.213 125.413 104.614 125.429C102.86 125.467 101.091 125.39 99.3445 125.467C100.104 126.907 101.994 126.923 103.346 126.481C103.983 126.267 104.796 126.092 105.365 126.534C105.935 126.999 105.912 127.868 105.54 128.455C105.077 129.149 104.287 129.484 103.52 129.736C101.448 130.307 99.0485 129.964 97.4389 128.455C95.1916 126.397 95.0322 122.524 97.0289 120.229M99.2914 122.966C100.544 122.981 101.804 122.981 103.057 122.966C102.936 122.341 102.564 121.724 101.941 121.51C100.863 121.015 99.3749 121.708 99.2914 122.966ZM79.0581 118.545C80.2046 118.064 81.6395 118.903 81.6926 120.176C81.7078 122.715 81.6926 125.276 81.6926 127.815C81.7078 128.806 80.8424 129.713 79.8554 129.713C78.8152 129.804 77.8738 128.874 77.8738 127.83C77.8586 125.345 77.8738 122.86 77.8738 120.367C77.8358 119.581 78.3141 118.819 79.0581 118.537V118.545ZM110.171 119.025C111.902 118.118 114.134 118.209 115.782 119.307C117.391 120.351 118.204 122.394 117.991 124.277C117.87 125.063 117.004 125.429 116.29 125.429C114.521 125.467 112.768 125.429 110.999 125.444C111.264 126.122 111.932 126.511 112.623 126.648C113.504 126.793 114.407 126.686 115.243 126.381C115.865 126.206 116.655 126.115 117.118 126.648C117.634 127.22 117.475 128.12 116.996 128.676C116.465 129.263 115.691 129.56 114.947 129.774C113.003 130.239 110.756 129.919 109.214 128.569C107.461 127.075 106.846 124.499 107.514 122.334C107.886 120.916 108.858 119.688 110.163 119.01M110.854 122.951H114.658C114.514 122.044 113.686 121.281 112.745 121.335C111.826 121.297 110.976 122.029 110.854 122.951Z" fill="#E5173F"/>
<path d="M119.023 118.659C119.357 118.674 119.714 118.621 120.01 118.75C120.079 119.193 120.048 119.673 120.01 120.115C119.904 119.902 119.813 119.673 119.729 119.437C119.608 119.437 119.372 119.421 119.251 119.398C119.251 119.543 119.236 119.825 119.236 119.947C119.183 119.947 119.076 119.932 119.023 119.932V118.651M119.289 118.903C119.076 119.185 119.593 119.368 119.767 119.155C119.98 118.888 119.464 118.689 119.289 118.903Z" fill="#E5173F"/>
<path d="M78.2914 43.7146C79.9009 43.4478 81.2295 42.4186 82.2697 41.2065C81.8445 42.9142 80.2881 44.1186 78.6103 44.4541C76.697 44.8429 74.4497 44.4007 73.197 42.7998C74.7914 43.4554 76.5376 44.0805 78.2914 43.707V43.7146Z" fill="#221E1F"/>
</svg>
