<svg width="170" height="171" viewBox="0 0 170 171" fill="none" xmlns="http://www.w3.org/2000/svg">
<path d="M0.25 170.082V0.582031H169.75V170.082H0.25Z" fill="white" stroke="#B8B1B1" stroke-width="0.5"/>
<path fill-rule="evenodd" clip-rule="evenodd" d="M92.2325 104.489C90.5751 105.254 89.9262 103.046 89.3476 102.011C88.558 102.845 86.3064 105.987 84 105.014C82.1237 104.219 83.6404 101.216 83.8984 100.244C84.2893 98.7767 83.914 99.7494 83.3199 98.8462C83.7655 97.997 85.3839 97.7809 86.0249 98.5683C86.752 99.4638 86.283 101.178 86.1344 102.266C87.7059 101.733 89.6604 99.4715 90.5673 98.0125C90.966 97.3717 91.8651 96.4839 92.1465 96.8004C92.8736 97.6265 92.3654 99.1087 92.1934 100.406C92.084 101.263 91.7791 104.273 92.2247 104.489H92.2325ZM74.1258 102.39L77.9567 101.471C78.3476 101.085 80.521 93.9595 82.0455 94.9554L82.3113 95.5884C82.4364 96.5457 81.3497 99.1704 81.3419 100.498C82.1472 100.259 82.452 99.9193 83.1166 100.274C82.882 101.131 82.2097 101.301 81.3966 101.872C79.7001 103.069 81.3497 109.422 77.2608 108.558C76.8387 108.465 76.8465 105.771 77.2608 104.111C76.5572 104.158 75.1577 104.814 74.3134 105.076C73.2501 105.408 73.0078 105.624 72.8671 106.142C72.7811 106.466 72.7341 106.914 72.5543 107.577C72.0618 109.438 71.538 113.267 69.1222 112.217C68.7235 111.939 68.5984 111.762 68.5124 110.997C68.4342 110.372 68.5124 109.731 68.6218 109.114C68.8095 108.01 69.1613 107.022 69.388 106.041C68.1371 106.057 67.1677 105.949 66.7768 104.636C66.8002 103.084 69.2394 103.277 70.506 102.961C71.4832 101.317 72.3823 98.0974 74.5245 95.8586C77.6752 92.5776 74.3212 101.749 74.1179 102.397L74.1258 102.39ZM99.4799 94.9631C100.942 94.8473 105.211 93.4886 105.57 94.083C105.938 94.6852 101.036 96.399 99.7145 96.839C98.487 97.2482 98.4792 97.032 98.0648 98.1051L95.7663 104.497C95.391 105.601 95.4614 106.196 94.4841 106.358C93.116 103.748 94.9376 100.259 95.3129 97.9275C93.9838 97.8581 92.858 97.8117 92.9127 96.538C92.9596 95.5035 94.8047 95.8895 96.3995 95.6733C97.2204 94.6003 97.8615 93.1257 98.6512 92.2997C99.2844 91.6358 100.301 91.574 100.262 92.8556C100.246 93.3959 99.6675 94.5076 99.4877 94.9554L99.4799 94.9631ZM74.4385 94.3532C72.2651 95.048 71.5536 91.9214 73.172 89.1114C74.0398 87.6137 75.4314 85.8845 75.7598 85.3055C76.1741 84.5721 75.9239 84.3791 76.9559 84.4486C78.3632 86.2859 76.2523 89.9451 75.3063 91.8056C74.8216 92.7552 74.2665 94.029 74.4385 94.3455V94.3532ZM81.8501 91.3424C86.5097 90.9873 88.6049 91.8906 91.0129 91.5277C91.3804 91.4737 94.5076 90.3697 93.5303 91.8674C93.4599 91.9755 92.9674 92.3383 92.7407 92.4618C89.4258 94.2683 85.7357 92.9791 80.865 93.836C79.2623 94.1216 77.253 94.9785 76.7214 94.3146C75.6268 92.9482 79.0355 90.362 80.3255 89.0651L83.273 86.0775C82.6631 86.1547 78.2459 87.0193 78.4335 85.1897C78.4961 84.5644 78.6368 84.7419 78.7775 84.6184C79.3405 84.1938 86.15 83.7229 86.9709 83.9699C87.1976 85.043 87.0648 85.4213 86.4628 86.2859C84.8522 88.6096 82.6475 89.9837 81.8422 91.3579L81.8501 91.3424ZM64.2906 91.3579C63.4541 92.4618 62.7973 94.8627 62.1953 96.3913C61.6324 97.8349 60.8037 100.877 59.0368 100.568C57.8172 99.0238 59.8812 93.4577 60.4988 91.8134C61.5621 88.957 62.813 86.7645 64.2202 84.657C63.5791 84.6802 63.0475 85.0739 62.5628 84.5875C60.6239 82.6421 68.9268 78.9057 72.2025 83.3523C75.1812 87.3899 69.2473 92.431 64.6346 91.8983L64.2984 91.3579H64.2906ZM105.633 85.3981C106.43 85.6992 107.017 85.676 107.791 86.1006C107.697 87.0579 106.915 87.3127 105.836 87.4825C104.116 87.7527 104.014 87.3513 102.881 86.9112C101.958 88.1001 99.4564 89.2195 97.197 88.7794C96.681 89.9915 94.4998 90.4238 92.7798 90.4778C91.8964 90.501 87.1742 90.7712 86.8146 90.6708C86.1657 89.0728 88.5346 87.3899 89.1522 86.8109C89.5118 86.4712 92.5218 84.0085 92.639 83.9545C91.5367 83.885 90.2702 84.3173 89.0662 84.1938C87.8935 84.0703 86.9709 83.1748 87.8857 82.0786C88.1358 81.955 91.7243 81.6154 92.5061 81.4918C93.8899 81.2602 96.423 80.7662 96.4465 82.48C96.4621 83.6303 94.7891 84.8191 94.1949 85.4367C93.3896 86.2627 92.4358 87.413 91.482 87.9611C92.0683 88.5324 93.0612 88.5092 94.015 88.571C94.9376 88.625 95.7741 88.4475 96.5716 88.3085C96.079 85.8073 97.111 84.3945 99.3548 82.8428C101.208 81.5613 104.507 80.7893 106.086 81.2602C106.587 83.059 105.242 83.7152 105.609 85.4136L105.633 85.3981ZM76.2054 83.2288C74.7981 80.4497 79.8643 77.6319 80.7868 78.1491C81.5295 78.566 79.5437 80.9129 79.2075 81.4069C78.5743 82.3333 77.8394 83.7152 76.2054 83.2288ZM93.0299 61.2425C94.0463 61.065 94.5936 61.5976 94.8047 62.4468L95.9305 66.8626C96.3917 67.4262 101.474 68.7771 102.576 69.1554C104.804 69.9274 106.751 70.8615 108.815 71.8574C109.683 72.2743 111.223 73.0077 110.636 74.2737C110.128 75.3545 108.307 75.0303 107.024 75.0303C91.6071 75.0303 80.5757 76.3658 65.8386 78.4425C64.5017 78.6278 58.857 79.8321 58.1455 79.1064C57.1136 78.0488 61.8279 75.7174 62.641 75.2542C64.5408 74.1734 66.3624 73.1543 68.4107 72.282C74.587 69.6572 72.5934 71.124 75.8927 66.3763C77.1905 64.5003 76.9169 64.4077 78.1209 64.1684L93.0299 61.2425ZM73.2658 53.3759C73.4222 54.009 72.4605 54.1479 70.8031 54.8118C67.9416 55.9621 65.4946 57.0352 62.8599 58.5251C56.5194 62.0994 51.3516 68.8698 49.0062 75.864C46.8249 82.3874 46.864 96.978 49.7646 103.193C52.1569 108.319 52.8058 108.596 56.4178 112.233C59.7874 115.629 66.3233 119.783 71.1315 120.995C72.7733 121.412 74.3994 121.628 76.0725 121.898C77.0575 122.06 77.8628 122.593 77.3703 122.809C73.8443 124.33 62.6332 119.914 59.201 117.567C54.6821 114.479 51.9849 110.897 48.8107 106.844C44.9017 101.849 44.198 111.491 55.8079 120.354C66.4562 128.483 83.9844 128.182 96.1259 122.77C105.015 118.81 111.582 113.174 116.093 104.729C117.641 101.826 118.775 99.3326 119.69 95.7737C121.332 89.3661 120.558 79.2067 118.908 72.8764C116.383 63.1802 108.565 57.1587 100.301 53.5072C94.4372 50.921 88.6205 51.6775 90.9425 50.2262C93.0378 48.9215 99.9646 51.4691 101.904 52.3183C105.117 53.7233 108.158 55.6533 110.66 57.344C123.098 65.7355 125.624 84.1938 122.145 97.9893C121.246 101.564 119.846 104.922 118.181 107.747C114.827 113.429 109.972 117.752 104.452 121.342C103.717 121.821 100.387 123.488 100.864 124.407C101.411 125.457 105.547 123.65 106.219 123.287C111.184 120.57 117.454 114.927 121.081 110.611C125.217 105.686 127.993 99.2476 128.774 90.9333C129.65 81.6076 128.985 75.092 125.678 67.1714C116.007 43.9962 91.4976 40.9546 69.6225 48.8212C64.8378 50.5427 60.0297 52.9204 56.1441 55.9312C54.1427 57.4829 52.4149 58.9265 50.7887 60.8565C46.5279 65.9208 44.2528 69.1245 42.6657 76.6978C42.1028 79.3843 41.6572 86.7414 42.8925 89.011C43.1192 89.4279 43.9557 90.5936 44.8 90.0146C45.4489 89.5669 45.2691 87.8453 45.3004 87.0347C45.3864 84.9118 45.6053 82.7811 45.9806 80.7585C47.2393 73.8955 50.2571 67.3258 55.2841 62.5935C56.8243 61.1499 56.7305 60.9646 58.8648 59.382C61.8514 57.1587 72.828 51.5309 73.2892 53.3836L73.2658 53.3759ZM45.8946 102.212C46.2386 101.903 46.0666 97.0861 45.0659 94.7547C43.9322 92.1067 39.257 93.1798 41.4539 99.8498C41.9621 101.633 44.4404 103.524 45.8946 102.22V102.212ZM64.2828 91.3656C66.3624 90.5087 68.3013 89.8371 69.388 88.2776C71.0611 85.8845 68.9658 84.3251 66.3155 84.2942C65.948 87.1042 64.6581 89.1268 64.2828 91.3656ZM99.6128 86.1856C100.442 86.1238 101.434 85.6992 102.083 85.3209C102.818 84.8886 102.943 84.1321 103.217 83.3446C101.458 83.5685 100.043 84.7882 99.6128 86.1856ZM116.68 119.79V118.277H116.132V117.968H117.594V118.277H117.047V119.79H116.672H116.68ZM117.829 119.79V117.976H118.384L118.72 119.219L119.049 117.976H119.604V119.79H119.26V118.362L118.892 119.79H118.533L118.165 118.362V119.79H117.821H117.829Z" fill="#FD4A5C"/>
</svg>
