<svg width="170" height="171" viewBox="0 0 170 171" fill="none" xmlns="http://www.w3.org/2000/svg">
<path d="M0.25 170.082V0.582031H169.75V170.082H0.25Z" fill="white" stroke="#B8B1B1" stroke-width="0.5"/>
<path d="M83.1378 99.6211L82.498 100.003C82.4256 99.8575 82.3109 99.7302 82.1781 99.6393C82.0393 99.5484 81.8824 99.4939 81.7134 99.4878C81.6168 99.4757 81.5263 99.4878 81.4358 99.5121C81.3452 99.5363 81.2607 99.5848 81.1883 99.6454C81.1159 99.706 81.0555 99.7787 81.0133 99.8635C80.971 99.9484 80.9469 100.039 80.9409 100.13C80.9409 100.609 81.4961 100.718 82.0393 100.96C82.5825 101.203 83.2766 101.548 83.2766 102.506C83.2766 102.73 83.2343 102.948 83.1498 103.154C83.0653 103.36 82.9386 103.548 82.7817 103.7C82.6248 103.857 82.4377 103.978 82.2264 104.057C82.0212 104.142 81.7979 104.178 81.5746 104.172C80.0174 104.172 79.8967 102.633 79.8967 102.633L80.6994 102.451C80.6994 102.451 80.7236 103.433 81.6048 103.433C81.7194 103.433 81.8341 103.415 81.9427 103.366C82.0514 103.324 82.148 103.257 82.2264 103.172C82.3049 103.088 82.3713 102.991 82.4135 102.888C82.4558 102.778 82.4739 102.663 82.4678 102.548C82.4678 102.015 81.9971 101.773 81.7134 101.669C80.8986 101.336 80.1261 101.021 80.1261 100.124C80.1261 99.4393 80.6813 98.7363 81.7074 98.7363C82.0031 98.7363 82.2868 98.8212 82.5403 98.9788C82.7877 99.1303 82.9929 99.3545 83.1317 99.6151L83.1378 99.6211Z" fill="#007CBA"/>
<path d="M132.29 99.6212L131.644 100.003C131.572 99.8576 131.463 99.7303 131.324 99.6394C131.185 99.5485 131.028 99.4939 130.859 99.4879C130.769 99.4758 130.672 99.4879 130.582 99.5182C130.491 99.5485 130.407 99.5909 130.334 99.6515C130.262 99.7121 130.201 99.7848 130.159 99.8697C130.117 99.9545 130.093 100.045 130.087 100.136C130.087 100.615 130.642 100.724 131.185 100.967C131.728 101.209 132.423 101.554 132.423 102.512C132.423 102.736 132.38 102.954 132.296 103.16C132.211 103.366 132.085 103.554 131.928 103.706C131.771 103.863 131.584 103.985 131.372 104.069C131.167 104.154 130.944 104.191 130.721 104.185C129.157 104.185 129.037 102.645 129.037 102.645L129.839 102.463C129.839 102.463 129.863 103.445 130.751 103.445C130.865 103.445 130.98 103.427 131.089 103.379C131.197 103.33 131.294 103.269 131.372 103.185C131.451 103.1 131.517 103.003 131.559 102.9C131.602 102.791 131.62 102.676 131.62 102.56C131.62 102.027 131.149 101.785 130.865 101.682C130.051 101.348 129.278 101.033 129.278 100.136C129.278 99.4515 129.833 98.7485 130.859 98.7485C131.155 98.7485 131.445 98.8334 131.692 98.9909C131.946 99.1424 132.145 99.3667 132.284 99.6273L132.29 99.6212Z" fill="#007CBA"/>
<path d="M88.8527 99.5848H86.7403V100.845H88.7863V101.609H86.7403V103.372H88.8527V104.118H85.9436V98.8394H88.8527V99.5848Z" fill="#007CBA"/>
<path d="M95.504 99.1244V100.064C95.1057 99.7183 94.6048 99.5123 94.0797 99.4881C93.5666 99.5062 93.0778 99.7244 92.7217 100.094C92.3656 100.464 92.1664 100.955 92.1664 101.47C92.1664 101.985 92.3656 102.476 92.7217 102.845C93.0778 103.215 93.5606 103.433 94.0797 103.451C94.6048 103.415 95.1057 103.209 95.504 102.864V103.821C95.0634 104.063 94.5746 104.197 94.0736 104.203C93.7175 104.215 93.3554 104.148 93.0235 104.015C92.6915 103.882 92.3837 103.688 92.1302 103.433C91.8767 103.179 91.6775 102.882 91.5387 102.548C91.406 102.215 91.3396 101.864 91.3456 101.506C91.3456 101.142 91.418 100.785 91.5568 100.446C91.6957 100.112 91.9009 99.8032 92.1604 99.5487C92.4199 99.2941 92.7277 99.0881 93.0657 98.9548C93.4037 98.8154 93.7658 98.7487 94.1279 98.7548C94.6108 98.7548 95.0876 98.882 95.504 99.1305V99.1244Z" fill="#007CBA"/>
<path d="M106.875 101.857L108.511 104.093H107.539L106.03 101.942H105.891V104.093H105.095V98.8452H106.097C107.412 98.8452 108.046 99.4694 108.046 100.384C108.052 100.73 107.943 101.063 107.726 101.33C107.515 101.597 107.213 101.784 106.875 101.857ZM105.885 101.257H106.133C106.887 101.257 107.268 100.966 107.268 100.397C107.268 99.827 106.899 99.5906 106.169 99.5906H105.873L105.885 101.257Z" fill="#007CBA"/>
<path d="M111.812 98.8394V104.087H111.015V98.8394H111.812Z" fill="#007CBA"/>
<path d="M116.242 99.5848V104.094H115.446V99.5848H114.239V98.8394H117.449V99.5848H116.242Z" fill="#007CBA"/>
<path d="M120.666 98.8394V104.087H119.875V98.8394H120.666Z" fill="#007CBA"/>
<path d="M126.551 99.5848H124.438V100.845H126.502V101.609H124.438V103.372H126.551V104.118H123.642V98.8394H126.551V99.5848Z" fill="#007CBA"/>
<path d="M101.322 98.8394V102.003C101.322 103.294 100.574 103.445 100.169 103.445C99.7648 103.445 99.0164 103.294 99.0164 102.003V98.8394H98.2197V102.215C98.2197 102.73 98.4249 103.221 98.7931 103.591C99.1613 103.954 99.6562 104.16 100.169 104.16C100.682 104.16 101.183 103.954 101.545 103.591C101.913 103.227 102.119 102.73 102.119 102.215V98.8394H101.322Z" fill="#007CBA"/>
<path d="M57.921 77.6467C58.3194 77.6225 58.6996 77.4831 59.0134 77.2528C59.3333 77.0165 59.5747 76.6953 59.7075 76.3195C59.8403 75.9499 59.8645 75.5438 59.7739 75.162C59.6834 74.7802 59.4782 74.4288 59.1885 74.156C58.8988 73.8833 58.5366 73.7015 58.1504 73.6349C57.7581 73.5682 57.3597 73.6106 56.9916 73.7682C56.6294 73.9258 56.3156 74.1864 56.0983 74.5136C55.881 74.8409 55.7664 75.2287 55.7664 75.6287C55.7845 76.1802 56.0198 76.7013 56.4242 77.0831C56.8286 77.4589 57.3658 77.6649 57.915 77.6528L57.921 77.6467Z" fill="#007CBA"/>
<path d="M61.2161 92.5612C60.2685 92.5612 59.7978 92.0097 59.7978 91.3431V78.7803H54.7883V79.5075H55.0841C56.0316 79.5075 56.5084 80.059 56.5084 80.7256V91.3431C56.5084 92.0157 56.0316 92.5612 55.0841 92.5612H54.7883V93.2884H61.5058V92.5612H61.2222H61.2161Z" fill="#007CBA"/>
<path d="M76.7882 92.5613C75.8407 92.5613 75.3638 92.0098 75.3638 91.3432V82.2711C75.3638 81.053 75.0379 80.1621 74.3257 79.5682C72.9738 78.4471 71.0183 78.3198 69.3284 78.7986C68.7308 78.9622 68.1937 79.2834 67.7531 79.7197V78.7743H62.7437V79.5015H63.0394C63.987 79.5015 64.4638 80.053 64.4638 80.7196V91.3371C64.4638 92.0098 63.987 92.5552 63.0394 92.5552H62.7437V93.2824H69.4732V92.5552H69.1775C68.2299 92.5552 67.7531 92.0037 67.7531 91.3371V81.1984C67.7531 80.3682 68.58 79.653 69.4672 79.5197C69.9319 79.4228 70.4147 79.4834 70.8372 79.7015C71.2597 79.9136 71.5977 80.2651 71.7969 80.6954C71.984 81.1439 72.0685 81.6226 72.0504 82.1074V91.3553C72.0504 92.028 71.5736 92.5734 70.626 92.5734H70.3303V93.3006H77.0538V92.5613H76.7882Z" fill="#007CBA"/>
<path d="M83.5358 78.5376C80.0353 78.5376 77.7056 81.8647 77.7056 86.028C77.7056 90.1914 80.325 93.4881 83.6747 93.4881C86.5053 93.4881 88.0383 91.67 88.8953 88.9672H87.6098C87.0968 90.9913 86.2639 92.6639 83.9221 92.6639C80.6992 92.6639 80.8742 87.2461 80.9768 85.7614H88.8772C88.9195 85.7614 88.9557 85.7614 88.9979 85.7432C89.0342 85.7311 89.0704 85.7068 89.1006 85.6826C89.1307 85.6523 89.1549 85.622 89.1669 85.5856C89.185 85.5492 89.1911 85.5068 89.1911 85.4705C89.1428 81.598 87.4408 78.5376 83.5419 78.5376H83.5358ZM85.4551 84.8281H81.0311C81.2122 81.5738 82.0813 79.1557 83.5298 79.1557C84.6765 79.1557 85.6181 79.9678 85.8293 84.5372C85.8354 84.6281 85.7931 84.8281 85.4551 84.8281Z" fill="#007CBA"/>
<path d="M38.4686 77.3499L44.9206 70.9201V67.2173L36.6158 75.4955C36.4951 75.6167 36.3985 75.7621 36.3321 75.9197C36.2657 76.0773 36.2295 76.247 36.2295 76.4227C36.2295 76.5985 36.2657 76.7621 36.3321 76.9257C36.3985 77.0833 36.4951 77.2287 36.6158 77.3499C36.8632 77.5984 37.1952 77.7317 37.5452 77.7317C37.7203 77.7317 37.8893 77.6954 38.0462 77.6348C38.2031 77.5681 38.3479 77.4711 38.4747 77.3499H38.4686Z" fill="#007CBA"/>
<path d="M47.4132 74.2712H44.9206V73.2773L36.6158 81.5556C36.3683 81.804 36.2295 82.1313 36.2295 82.4828C36.2295 82.8343 36.3683 83.1615 36.6158 83.41C36.8632 83.6524 37.1952 83.7918 37.5452 83.7918C37.8953 83.7918 38.2272 83.6524 38.4747 83.41L44.9266 76.9801V75.2772H46.8278C49.7369 75.2772 50.7327 77.2831 50.7327 79.9799C50.7327 82.6767 49.7369 84.6826 46.8278 84.6826H44.9266V79.3375L36.6218 87.6158C36.3864 87.8642 36.2597 88.1915 36.2597 88.5369C36.2597 88.8763 36.4045 89.2035 36.6459 89.4459C36.8874 89.6883 37.2133 89.8277 37.5573 89.8277C37.9013 89.8277 38.2333 89.7065 38.4807 89.4702L41.6131 86.3371V91.3307C41.6131 92.0033 41.1363 92.5487 40.1888 92.5487H39.6999V93.276H46.858V92.5487H46.351C45.4034 92.5487 44.9327 92.0033 44.9327 91.3307V85.6947H47.4253C51.7467 85.6947 53.9919 83.2161 53.9919 79.986C53.9919 76.7559 51.7467 74.2773 47.4253 74.2773L47.4132 74.2712Z" fill="#007CBA"/>
<path d="M115.518 78.5376C112.017 78.5376 109.7 81.8646 109.7 86.0401C109.7 90.2156 112.313 93.5002 115.663 93.5002C118.493 93.5002 120.026 91.6822 120.883 88.9793H119.598C119.085 91.0034 118.258 92.676 115.916 92.676C112.693 92.676 112.862 87.2582 112.971 85.7735H120.871C120.871 85.7735 121.191 85.7916 121.185 85.4826C121.125 81.598 119.435 78.5437 115.524 78.5437L115.518 78.5376ZM117.437 84.8281H113.031C113.212 81.5738 114.081 79.1557 115.53 79.1557C116.671 79.1557 117.618 79.9678 117.823 84.5372C117.823 84.6281 117.775 84.8281 117.437 84.8281Z" fill="#007CBA"/>
<path d="M128.355 78.5376C124.854 78.5376 122.525 81.8647 122.525 86.028C122.525 90.1914 125.144 93.4881 128.494 93.4881C131.324 93.4881 132.863 91.67 133.708 88.9672H132.423C131.91 90.9913 131.077 92.6639 128.741 92.6639C125.518 92.6639 125.687 87.2461 125.796 85.7614H133.696C133.739 85.7614 133.775 85.7614 133.817 85.7432C133.853 85.7311 133.889 85.7068 133.92 85.6826C133.95 85.6523 133.974 85.622 133.986 85.5856C134.004 85.5492 134.01 85.5068 134.01 85.4705C133.956 81.598 132.254 78.5376 128.355 78.5376ZM130.274 84.8281H125.85C126.031 81.5738 126.9 79.1557 128.349 79.1557C129.49 79.1557 130.437 79.9678 130.642 84.5372C130.654 84.6281 130.606 84.8281 130.268 84.8281H130.274Z" fill="#007CBA"/>
<path d="M107.846 78.5376C105.873 78.5376 104.78 80.7071 104.714 80.8223V78.7679H99.7046V79.4951H100C100.948 79.4951 101.425 80.0466 101.425 80.7132V91.3307C101.425 92.0034 100.948 92.5488 100 92.5488H99.7046V93.276H106.434V92.5669H106.138C105.191 92.5669 104.714 92.0155 104.714 91.3489V84.4826C104.732 82.7373 105.052 80.8829 106.187 80.4526C107.122 80.0951 107.364 81.2586 108.299 81.2586C108.601 81.2586 108.897 81.1798 109.144 81.0101C109.398 80.8405 109.585 80.6041 109.699 80.3254C109.977 79.6406 109.579 78.5437 107.846 78.5437V78.5376Z" fill="#007CBA"/>
<path d="M98.1838 91.5973C98.1838 91.5973 97.6648 92.5427 96.7414 92.5427C95.3653 92.5427 95.2204 91.2882 95.2204 90.5246V79.5011H98.3166V78.7739H95.2204V75.459H94.122C93.9651 76.3862 93.4822 77.2225 92.764 77.8285C92.0458 78.4345 91.1344 78.7678 90.1929 78.7678V79.4951H91.913V90.0034C91.913 91.8033 92.4863 93.482 95.4136 93.482C97.7131 93.482 98.2804 92.373 98.5943 91.8942L98.1778 91.5912L98.1838 91.5973Z" fill="#007CBA"/>
</svg>
