<svg width="29" height="21" viewBox="0 0 29 21" fill="none" xmlns="http://www.w3.org/2000/svg">
<path d="M25 0H4C1.79086 0 0 1.79086 0 4V17C0 19.2091 1.79086 21 4 21H25C27.2091 21 29 19.2091 29 17V4C29 1.79086 27.2091 0 25 0Z" fill="white"/>
<path d="M25 1H4C2.34315 1 1 2.34315 1 4V17C1 18.6569 2.34315 20 4 20H25C26.6569 20 28 18.6569 28 17V4C28 2.34315 26.6569 1 25 1Z" stroke="#007CBA" stroke-width="2"/>
<path d="M1.5 3.49097L14.7393 8.69897L27.9795 3.49097" stroke="#007CBA" stroke-width="2"/>
</svg>
