<svg width="86" height="86" viewBox="0 0 86 86" fill="none" xmlns="http://www.w3.org/2000/svg">
<circle cx="43" cy="43" r="43" fill="#FF6E01"/>
<g clip-path="url(#clip0_679_5641)">
<path d="M54.0972 62.9589H31.7099C31.4707 62.9589 31.2714 62.7437 31.2714 62.464V30.8574C31.2714 30.5777 31.4707 30.3625 31.7099 30.3625H54.0972C54.3364 30.3625 54.5357 30.5777 54.5357 30.8574V62.464C54.5158 62.7437 54.3364 62.9589 54.0972 62.9589ZM32.1286 61.9691H53.6386V31.3523H32.1286V61.9691Z" fill="white"/>
<path d="M54.0971 63.0664H31.7099C31.4109 63.0664 31.1716 62.8082 31.1716 62.4639V30.8573C31.1716 30.5346 31.4109 30.2549 31.7099 30.2549H54.0971C54.3961 30.2549 54.6353 30.5346 54.6353 30.8573V62.4639C54.6154 62.8082 54.3762 63.0664 54.0971 63.0664ZM31.7099 30.4916C31.5305 30.4916 31.371 30.6637 31.371 30.8788V62.4854C31.371 62.7006 31.5305 62.8727 31.7099 62.8727H54.0971C54.2765 62.8727 54.436 62.7006 54.436 62.4854V30.8573C54.436 30.6422 54.2765 30.47 54.0971 30.47H31.7099V30.4916ZM53.7582 62.0766H32.0288V31.2446H53.7383V62.0766H53.7582ZM32.2282 61.8615H53.5389V31.4598H32.2282V61.8615Z" fill="white"/>
<path d="M50.4092 31.3522H35.378C35.1388 31.3522 34.9395 31.1371 34.9395 30.8574V24.0154C34.9395 23.7357 35.1388 23.5205 35.378 23.5205H50.3892C50.6284 23.5205 50.8278 23.7357 50.8278 24.0154V30.8789C50.8278 31.1371 50.6484 31.3522 50.4092 31.3522ZM35.8166 30.384H49.9706V24.5102H35.8166V30.384Z" fill="white"/>
<path d="M50.4091 31.4597H35.378C35.0789 31.4597 34.8397 31.2015 34.8397 30.8573V24.0153C34.8397 23.6925 35.0789 23.4128 35.378 23.4128H50.3892C50.6882 23.4128 50.9274 23.6925 50.9274 24.0153V30.8788C50.9274 31.2015 50.6882 31.4597 50.4091 31.4597ZM35.378 23.628C35.1986 23.628 35.0391 23.8001 35.0391 24.0153V30.8788C35.0391 31.094 35.1986 31.2661 35.378 31.2661H50.3892C50.5686 31.2661 50.7281 31.094 50.7281 30.8788V24.0153C50.7281 23.8001 50.5686 23.628 50.3892 23.628H35.378ZM50.0702 30.4915H35.7169V24.4026H50.0702V30.4915ZM35.9162 30.2764H49.8709V24.6177H35.9162V30.2764Z" fill="white"/>
<path d="M48.1365 62.9588H37.6506C37.4114 62.9588 37.212 62.7436 37.212 62.4639V49.1672C37.212 48.8875 37.4114 48.6724 37.6506 48.6724H48.1365C48.3757 48.6724 48.5751 48.8875 48.5751 49.1672V62.4639C48.5751 62.7436 48.3757 62.9588 48.1365 62.9588ZM38.0892 61.9691H47.6979V49.6621H38.0892V61.9691Z" fill="white"/>
<path d="M48.1365 63.0663H37.6506C37.3515 63.0663 37.1123 62.8081 37.1123 62.4639V49.1671C37.1123 48.8444 37.3515 48.5647 37.6506 48.5647H48.1365C48.4355 48.5647 48.6747 48.8229 48.6747 49.1671V62.4639C48.6747 62.8081 48.4355 63.0663 48.1365 63.0663ZM37.6506 48.8014C37.4711 48.8014 37.3117 48.9735 37.3117 49.1887V62.4854C37.3117 62.7005 37.4711 62.8727 37.6506 62.8727H48.1365C48.3159 62.8727 48.4754 62.7005 48.4754 62.4854V49.1887C48.4754 48.9735 48.3159 48.8014 48.1365 48.8014H37.6506ZM47.7976 62.0766H37.9895V49.5544H47.7976V62.0766ZM38.1888 61.8614H47.5982V49.7696H38.1888V61.8614Z" fill="white"/>
<path d="M48.5551 36.1719H37.212C36.9728 36.1719 36.7734 35.9567 36.7734 35.677C36.7734 35.3973 36.9728 35.1821 37.212 35.1821H48.5551C48.7944 35.1821 48.9937 35.3973 48.9937 35.677C48.9937 35.9567 48.7944 36.1719 48.5551 36.1719Z" fill="white"/>
<path d="M48.5551 36.2793H37.212C36.9129 36.2793 36.6737 35.9996 36.6737 35.6769C36.6737 35.3542 36.9129 35.0745 37.212 35.0745H48.5551C48.8541 35.0745 49.0933 35.3327 49.0933 35.6769C49.0933 36.0212 48.8541 36.2793 48.5551 36.2793ZM37.2319 35.3111C37.0525 35.3111 36.893 35.4833 36.893 35.6984C36.893 35.9136 37.0525 36.0857 37.2319 36.0857H48.575C48.7544 36.0857 48.9139 35.9136 48.9139 35.6984C48.9139 35.4833 48.7544 35.3111 48.575 35.3111H37.2319Z" fill="white"/>
<path d="M48.5551 40.5825H37.212C36.9728 40.5825 36.7734 40.3673 36.7734 40.0876C36.7734 39.8079 36.9728 39.5928 37.212 39.5928H48.5551C48.7944 39.5928 48.9937 39.8079 48.9937 40.0876C48.9937 40.3458 48.7944 40.5825 48.5551 40.5825Z" fill="white"/>
<path d="M48.5551 40.69H37.212C36.9129 40.69 36.6737 40.4318 36.6737 40.0875C36.6737 39.7433 36.9129 39.4851 37.212 39.4851H48.5551C48.8541 39.4851 49.0933 39.7433 49.0933 40.0875C49.0933 40.4318 48.8541 40.69 48.5551 40.69ZM37.2319 39.7003C37.0525 39.7003 36.893 39.8724 36.893 40.0875C36.893 40.3027 37.0525 40.4748 37.2319 40.4748H48.575C48.7544 40.4748 48.9139 40.3027 48.9139 40.0875C48.9139 39.8724 48.7544 39.7003 48.575 39.7003H37.2319Z" fill="white"/>
<path d="M48.5551 44.9717H37.212C36.9728 44.9717 36.7734 44.7565 36.7734 44.4768C36.7734 44.1971 36.9728 43.9819 37.212 43.9819H48.5551C48.7944 43.9819 48.9937 44.1971 48.9937 44.4768C48.9937 44.735 48.7944 44.9717 48.5551 44.9717Z" fill="white"/>
<path d="M48.5551 45.0791H37.212C36.9129 45.0791 36.6737 44.821 36.6737 44.4767C36.6737 44.154 36.9129 43.8743 37.212 43.8743H48.5551C48.8541 43.8743 49.0933 44.154 49.0933 44.4767C49.0933 44.7994 48.8541 45.0791 48.5551 45.0791ZM37.2319 44.0894C37.0525 44.0894 36.893 44.2616 36.893 44.4767C36.893 44.6919 37.0525 44.864 37.2319 44.864H48.575C48.7544 44.864 48.9139 44.6919 48.9139 44.4767C48.9139 44.2616 48.7544 44.0894 48.575 44.0894H37.2319Z" fill="white"/>
<path d="M68.909 62.9589H54.0772C53.838 62.9589 53.6387 62.7437 53.6387 62.464V42.7556C53.6387 42.4759 53.838 42.2607 54.0772 42.2607H68.909C69.1482 42.2607 69.3476 42.4759 69.3476 42.7556V62.464C69.3476 62.7437 69.1482 62.9589 68.909 62.9589ZM54.5158 61.9691H68.4705V43.2505H54.5158V61.9691Z" fill="white"/>
<path d="M68.909 63.0664H54.0772C53.7782 63.0664 53.5389 62.8082 53.5389 62.4639V42.7555C53.5389 42.4328 53.7782 42.1531 54.0772 42.1531H68.909C69.208 42.1531 69.4472 42.4113 69.4472 42.7555V62.4639C69.4472 62.8082 69.208 63.0664 68.909 63.0664ZM54.0971 42.3682C53.9177 42.3682 53.7582 42.5404 53.7582 42.7555V62.4639C53.7582 62.6791 53.9177 62.8512 54.0971 62.8512H68.9289C69.1083 62.8512 69.2678 62.6791 69.2678 62.4639V42.7555C69.2678 42.5404 69.1083 42.3682 68.9289 42.3682H54.0971ZM68.59 62.0766H54.436V43.1428H68.59V62.0766ZM54.6154 61.8615H68.3707V43.358H54.6154V61.8615Z" fill="white"/>
<path d="M59.7786 50.6089H56.9079C56.6687 50.6089 56.4694 50.3938 56.4694 50.1141V46.3918C56.4694 46.1121 56.6687 45.897 56.9079 45.897H59.7786C60.0178 45.897 60.2172 46.1121 60.2172 46.3918V50.1141C60.2172 50.3938 60.0178 50.6089 59.7786 50.6089ZM57.3465 49.6192H59.36V46.8867H57.3465V49.6192Z" fill="white"/>
<path d="M59.7787 50.7164H56.908C56.609 50.7164 56.3698 50.4367 56.3698 50.114V46.3917C56.3698 46.069 56.609 45.7893 56.908 45.7893H59.7787C60.0777 45.7893 60.3169 46.069 60.3169 46.3917V50.114C60.3169 50.4367 60.0777 50.7164 59.7787 50.7164ZM56.908 46.0045C56.7286 46.0045 56.5691 46.1766 56.5691 46.3917V50.114C56.5691 50.3291 56.7286 50.5012 56.908 50.5012H59.7787C59.9581 50.5012 60.1176 50.3291 60.1176 50.114V46.3917C60.1176 46.1766 59.9581 46.0045 59.7787 46.0045H56.908ZM59.4398 49.7267H57.227V46.779H59.4398V49.7267ZM57.4462 49.5115H59.2604V46.9942H57.4462V49.5115Z" fill="white"/>
<path d="M66.0982 50.6089H63.2275C62.9883 50.6089 62.7889 50.3938 62.7889 50.1141V46.3918C62.7889 46.1121 62.9883 45.897 63.2275 45.897H66.0982C66.3374 45.897 66.5368 46.1121 66.5368 46.3918V50.1141C66.5368 50.3938 66.3374 50.6089 66.0982 50.6089ZM63.6661 49.6192H65.6795V46.8867H63.6661V49.6192Z" fill="white"/>
<path d="M66.0981 50.7164H63.2275C62.9284 50.7164 62.6892 50.4367 62.6892 50.114V46.3917C62.6892 46.069 62.9284 45.7893 63.2275 45.7893H66.0981C66.3972 45.7893 66.6364 46.069 66.6364 46.3917V50.114C66.6364 50.4367 66.3972 50.7164 66.0981 50.7164ZM63.2275 46.0045C63.048 46.0045 62.8886 46.1766 62.8886 46.3917V50.114C62.8886 50.3291 63.048 50.5012 63.2275 50.5012H66.0981C66.2775 50.5012 66.437 50.3291 66.437 50.114V46.3917C66.437 46.1766 66.2775 46.0045 66.0981 46.0045H63.2275ZM65.7592 49.7267H63.5464V46.779H65.7592V49.7267ZM63.7657 49.5115H65.5798V46.9942H63.7657V49.5115Z" fill="white"/>
<path d="M59.7786 58.376H56.9079C56.6687 58.376 56.4694 58.1608 56.4694 57.8811V54.1589C56.4694 53.8792 56.6687 53.6641 56.9079 53.6641H59.7786C60.0178 53.6641 60.2172 53.8792 60.2172 54.1589V57.8811C60.2172 58.1608 60.0178 58.376 59.7786 58.376ZM57.3465 57.3863H59.36V54.6323H57.3465V57.3863Z" fill="white"/>
<path d="M59.7787 58.4835H56.908C56.609 58.4835 56.3698 58.2253 56.3698 57.8811V54.1588C56.3698 53.8361 56.609 53.5564 56.908 53.5564H59.7787C60.0777 53.5564 60.3169 53.8361 60.3169 54.1588V57.8811C60.3169 58.2038 60.0777 58.4835 59.7787 58.4835ZM56.908 53.7716C56.7286 53.7716 56.5691 53.9437 56.5691 54.1588V57.8811C56.5691 58.0962 56.7286 58.2683 56.908 58.2683H59.7787C59.9581 58.2683 60.1176 58.0962 60.1176 57.8811V54.1588C60.1176 53.9437 59.9581 53.7716 59.7787 53.7716H56.908ZM59.4398 57.4938H57.227V54.5246H59.4398V57.4938ZM57.4462 57.2786H59.2604V54.7398H57.4462V57.2786Z" fill="white"/>
<path d="M66.0982 58.376H63.2275C62.9883 58.376 62.7889 58.1608 62.7889 57.8811V54.1589C62.7889 53.8792 62.9883 53.6641 63.2275 53.6641H66.0982C66.3374 53.6641 66.5368 53.8792 66.5368 54.1589V57.8811C66.5368 58.1608 66.3374 58.376 66.0982 58.376ZM63.6661 57.3863H65.6795V54.6323H63.6661V57.3863Z" fill="white"/>
<path d="M66.0981 58.4835H63.2275C62.9284 58.4835 62.6892 58.2253 62.6892 57.8811V54.1588C62.6892 53.8361 62.9284 53.5564 63.2275 53.5564H66.0981C66.3972 53.5564 66.6364 53.8361 66.6364 54.1588V57.8811C66.6364 58.2038 66.3972 58.4835 66.0981 58.4835ZM63.2275 53.7716C63.048 53.7716 62.8886 53.9437 62.8886 54.1588V57.8811C62.8886 58.0962 63.048 58.2683 63.2275 58.2683H66.0981C66.2775 58.2683 66.437 58.0962 66.437 57.8811V54.1588C66.437 53.9437 66.2775 53.7716 66.0981 53.7716H63.2275ZM65.7592 57.4938H63.5464V54.5246H65.7592V57.4938ZM63.7657 57.2786H65.5798V54.7398H63.7657V57.2786Z" fill="white"/>
<path d="M31.7099 62.9589H16.8781C16.6389 62.9589 16.4396 62.7437 16.4396 62.464V42.7556C16.4396 42.4759 16.6389 42.2607 16.8781 42.2607H31.7099C31.9492 42.2607 32.1485 42.4759 32.1485 42.7556V62.464C32.1286 62.7437 31.9492 62.9589 31.7099 62.9589ZM17.3167 61.9691H31.2714V43.2505H17.3167V61.9691Z" fill="white"/>
<path d="M31.7099 63.0664H16.8781C16.5791 63.0664 16.3398 62.8082 16.3398 62.4639V42.7555C16.3398 42.4328 16.5791 42.1531 16.8781 42.1531H31.7099C32.0089 42.1531 32.2481 42.4113 32.2481 42.7555V62.4639C32.2282 62.8082 31.989 63.0664 31.7099 63.0664ZM16.8781 42.3682C16.6987 42.3682 16.5392 42.5404 16.5392 42.7555V62.4639C16.5392 62.6791 16.6987 62.8512 16.8781 62.8512H31.7099C31.8893 62.8512 32.0488 62.6791 32.0488 62.4639V42.7555C32.0488 42.5404 31.8893 42.3682 31.7099 42.3682H16.8781ZM31.371 62.0766H17.217V43.1428H31.371V62.0766ZM17.4163 61.8615H31.1716V43.358H17.4163V61.8615Z" fill="white"/>
<path d="M22.5597 50.6089H19.6891C19.4498 50.6089 19.2505 50.3938 19.2505 50.1141V46.3918C19.2505 46.1121 19.4498 45.897 19.6891 45.897H22.5597C22.799 45.897 22.9983 46.1121 22.9983 46.3918V50.1141C22.9983 50.3938 22.799 50.6089 22.5597 50.6089ZM20.1276 49.6192H22.1411V46.8867H20.1276V49.6192Z" fill="white"/>
<path d="M22.5597 50.7164H19.689C19.39 50.7164 19.1508 50.4367 19.1508 50.114V46.3917C19.1508 46.069 19.39 45.7893 19.689 45.7893H22.5597C22.8587 45.7893 23.0979 46.069 23.0979 46.3917V50.114C23.0979 50.4367 22.8587 50.7164 22.5597 50.7164ZM19.689 46.0045C19.5096 46.0045 19.3501 46.1766 19.3501 46.3917V50.114C19.3501 50.3291 19.5096 50.5012 19.689 50.5012H22.5597C22.7391 50.5012 22.8986 50.3291 22.8986 50.114V46.3917C22.8986 46.1766 22.7391 46.0045 22.5597 46.0045H19.689ZM22.2407 49.7267H20.0279V46.779H22.2407V49.7267ZM20.2273 49.5115H22.0414V46.9942H20.2273V49.5115Z" fill="white"/>
<path d="M28.8792 50.6089H26.0085C25.7693 50.6089 25.5699 50.3938 25.5699 50.1141V46.3918C25.5699 46.1121 25.7693 45.897 26.0085 45.897H28.8792C29.1184 45.897 29.3178 46.1121 29.3178 46.3918V50.1141C29.3178 50.3938 29.1184 50.6089 28.8792 50.6089ZM26.4471 49.6192H28.4605V46.8867H26.4471V49.6192Z" fill="white"/>
<path d="M28.8791 50.7164H26.0085C25.7094 50.7164 25.4702 50.4367 25.4702 50.114V46.3917C25.4702 46.069 25.7094 45.7893 26.0085 45.7893H28.8791C29.1782 45.7893 29.4174 46.069 29.4174 46.3917V50.114C29.4174 50.4367 29.1782 50.7164 28.8791 50.7164ZM26.0085 46.0045C25.829 46.0045 25.6696 46.1766 25.6696 46.3917V50.114C25.6696 50.3291 25.829 50.5012 26.0085 50.5012H28.8791C29.0585 50.5012 29.218 50.3291 29.218 50.114V46.3917C29.218 46.1766 29.0585 46.0045 28.8791 46.0045H26.0085ZM28.5602 49.7267H26.3474V46.779H28.5602V49.7267ZM26.5467 49.5115H28.3608V46.9942H26.5467V49.5115Z" fill="white"/>
<path d="M22.5597 58.376H19.6891C19.4498 58.376 19.2505 58.1608 19.2505 57.8811V54.1589C19.2505 53.8792 19.4498 53.6641 19.6891 53.6641H22.5597C22.799 53.6641 22.9983 53.8792 22.9983 54.1589V57.8811C22.9983 58.1608 22.799 58.376 22.5597 58.376ZM20.1276 57.3863H22.1411V54.6323H20.1276V57.3863Z" fill="white"/>
<path d="M22.5597 58.4835H19.689C19.39 58.4835 19.1508 58.2253 19.1508 57.8811V54.1588C19.1508 53.8361 19.39 53.5564 19.689 53.5564H22.5597C22.8587 53.5564 23.0979 53.8361 23.0979 54.1588V57.8811C23.0979 58.2038 22.8587 58.4835 22.5597 58.4835ZM19.689 53.7716C19.5096 53.7716 19.3501 53.9437 19.3501 54.1588V57.8811C19.3501 58.0962 19.5096 58.2683 19.689 58.2683H22.5597C22.7391 58.2683 22.8986 58.0962 22.8986 57.8811V54.1588C22.8986 53.9437 22.7391 53.7716 22.5597 53.7716H19.689ZM22.2407 57.4938H20.0279V54.5246H22.2407V57.4938ZM20.2273 57.2786H22.0414V54.7398H20.2273V57.2786Z" fill="white"/>
<path d="M28.8792 58.376H26.0085C25.7693 58.376 25.5699 58.1608 25.5699 57.8811V54.1589C25.5699 53.8792 25.7693 53.6641 26.0085 53.6641H28.8792C29.1184 53.6641 29.3178 53.8792 29.3178 54.1589V57.8811C29.3178 58.1608 29.1184 58.376 28.8792 58.376ZM26.4471 57.3863H28.4605V54.6323H26.4471V57.3863Z" fill="white"/>
<path d="M28.8791 58.4835H26.0085C25.7094 58.4835 25.4702 58.2253 25.4702 57.8811V54.1588C25.4702 53.8361 25.7094 53.5564 26.0085 53.5564H28.8791C29.1782 53.5564 29.4174 53.8361 29.4174 54.1588V57.8811C29.4174 58.2038 29.1782 58.4835 28.8791 58.4835ZM26.0085 53.7716C25.829 53.7716 25.6696 53.9437 25.6696 54.1588V57.8811C25.6696 58.0962 25.829 58.2683 26.0085 58.2683H28.8791C29.0585 58.2683 29.218 58.0962 29.218 57.8811V54.1588C29.218 53.9437 29.0585 53.7716 28.8791 53.7716H26.0085ZM28.5602 57.4938H26.3474V54.5246H28.5602V57.4938ZM26.5467 57.2786H28.3608V54.7398H26.5467V57.2786Z" fill="white"/>
</g>
<defs>
<clipPath id="clip0_679_5641">
<rect width="53.1073" height="39.6535" fill="white" transform="translate(16.3398 23.4128)"/>
</clipPath>
</defs>
</svg>
