<svg width="31" height="29" viewBox="0 0 31 29" fill="none" xmlns="http://www.w3.org/2000/svg">
<path fill-rule="evenodd" clip-rule="evenodd" d="M22.6657 27.6671C21.6685 27.6734 20.6771 27.5163 19.7307 27.2021C13.2407 25.3471 8.3787 21.3021 4.4627 15.9541C2.87142 14.0326 1.74243 11.7716 1.1627 9.34505C0.870102 7.96374 0.95306 6.52926 1.40294 5.19088C1.85281 3.85251 2.65316 2.65917 3.7207 1.73505C4.27082 1.38251 4.89054 1.15283 5.53754 1.06171C6.18455 0.970589 6.8436 1.02016 7.4697 1.20705C7.77362 1.37166 8.00874 1.63941 8.1327 1.96205C8.9507 3.89538 9.76103 5.83505 10.5637 7.78105C10.6286 7.96118 10.6547 8.15298 10.6404 8.34391C10.6261 8.53483 10.5717 8.72059 10.4807 8.88905C10.0298 9.75573 9.43919 10.5423 8.7327 11.2171C8.49862 11.4142 8.35124 11.6952 8.32225 11.9999C8.29326 12.3045 8.38499 12.6083 8.5777 12.8461C10.7674 16.5875 14.1471 19.4878 18.1777 21.0841C18.4265 21.2253 18.7196 21.267 18.998 21.2008C19.2763 21.1345 19.5192 20.9653 19.6777 20.727C20.3647 19.869 21.1037 19.0271 21.7547 18.1371C21.8308 18.0045 21.9324 17.8883 22.0536 17.7952C22.1748 17.702 22.3132 17.6337 22.4608 17.5942C22.6085 17.5547 22.7625 17.5448 22.914 17.565C23.0655 17.5852 23.2116 17.6352 23.3437 17.712C24.7177 18.348 26.0847 18.9991 27.4547 19.642L28.3687 20.0831C29.7587 20.7741 29.7387 20.7901 29.6237 22.3191C29.3937 25.3141 27.1457 26.787 24.4877 27.519C23.8916 27.6621 23.277 27.712 22.6657 27.6671Z" fill="#FDFDFD" stroke="#007CBA" stroke-width="2"/>
</svg>
