<svg width="150" height="151" viewBox="0 0 150 151" fill="none" xmlns="http://www.w3.org/2000/svg">
<g filter="url(#filter0_d_679_4598)">
<ellipse cx="75" cy="73.1009" rx="65" ry="65.1009" fill="white"/>
</g>
<g style="mix-blend-mode:multiply">
<path d="M80.6064 65.4568H47.9188C47.5996 65.4568 47.3384 65.1952 47.3384 64.8755V51.5248C47.3384 51.2051 47.5996 50.9435 47.9188 50.9435L80.6064 50.8708C80.7612 50.8708 80.9063 50.9338 81.0175 51.0404C81.1287 51.147 81.1868 51.2971 81.1868 51.4522V64.8755C81.1868 65.1952 80.9256 65.4568 80.6064 65.4568V65.4568ZM48.4991 64.2942H80.0261V52.0335L48.4991 52.1061V64.2942Z" fill="#007CBA"/>
<path d="M80.6062 65.8348H47.9185C47.3914 65.8348 46.9609 65.4037 46.9609 64.8757V51.525C46.9609 50.997 47.3914 50.5658 47.9185 50.5658L80.6062 50.4932C80.8625 50.4932 81.1044 50.5949 81.2881 50.7741C81.4671 50.9534 81.5686 51.2004 81.5686 51.4523V64.8757C81.5686 65.4037 81.1382 65.8348 80.6111 65.8348H80.6062ZM80.6062 51.2489L47.9185 51.3215C47.8073 51.3215 47.7154 51.4136 47.7154 51.525V64.8757C47.7154 64.9871 47.8073 65.0791 47.9185 65.0791H80.6062C80.7175 65.0791 80.8093 64.9871 80.8093 64.8757V51.4523C80.8093 51.399 80.79 51.3457 80.7513 51.3118C80.7126 51.2731 80.6594 51.2537 80.6111 51.2537L80.6062 51.2489ZM80.4031 64.6722H48.1168V51.7236L80.4031 51.6509V64.6722V64.6722ZM48.8761 63.9117H79.6438V52.4115L48.8761 52.4793V63.9117Z" fill="#007CBA"/>
<path d="M80.6055 65.7088H47.9178C47.4584 65.7088 47.0859 65.3358 47.0859 64.8756V51.5249C47.0859 51.0647 47.4584 50.6917 47.9178 50.6917L80.6055 50.619C80.828 50.619 81.0359 50.7062 81.1955 50.8612C81.3502 51.0162 81.4421 51.2342 81.4421 51.4522V64.8756C81.4421 65.3358 81.0698 65.7088 80.6103 65.7088H80.6055ZM80.6055 51.1228L47.9178 51.1955C47.7389 51.1955 47.5889 51.3408 47.5889 51.5249V64.8756C47.5889 65.0548 47.734 65.205 47.9178 65.205H80.6055C80.7844 65.205 80.9343 65.0597 80.9343 64.8756V51.4522C80.9343 51.365 80.9005 51.2827 80.8376 51.2197C80.7747 51.1567 80.6925 51.1228 80.6055 51.1228ZM80.2766 64.5462H48.2466V51.8495L80.2766 51.7768V64.5462V64.5462ZM48.7496 64.0424H79.7737V52.2854L48.7496 52.3581V64.0424V64.0424Z" fill="#007CBA"/>
<path d="M80.6057 66.0915H47.918C47.2506 66.0915 46.7041 65.5489 46.7041 64.8756V51.5249C46.7041 50.8564 47.2458 50.3138 47.9131 50.309L80.6008 50.2363C80.9249 50.2363 81.2295 50.3623 81.4568 50.59C81.6841 50.8176 81.8147 51.1277 81.8147 51.4522V64.8756C81.8147 65.5441 81.2731 66.0915 80.6008 66.0915H80.6057ZM49.127 63.6645H79.3918V52.6681L49.127 52.736V63.6645Z" fill="#007CBA"/>
<path d="M80.6055 65.7088H47.9178C47.4584 65.7088 47.0859 65.3358 47.0859 64.8756V51.5249C47.0859 51.0647 47.4584 50.6917 47.9178 50.6917L80.6055 50.619C80.828 50.619 81.0359 50.7062 81.1955 50.8612C81.3551 51.0211 81.4421 51.2294 81.4421 51.4522V64.8756C81.4421 65.3358 81.0698 65.7088 80.6103 65.7088H80.6055ZM80.6055 51.1228L47.9178 51.1955C47.7389 51.1955 47.5889 51.3408 47.5889 51.5249V64.8756C47.5889 65.0548 47.734 65.205 47.9178 65.205H80.6055C80.7844 65.205 80.9343 65.0597 80.9343 64.8756V51.4522C80.9343 51.365 80.9005 51.2827 80.8376 51.2197C80.7747 51.1567 80.6925 51.1228 80.6055 51.1228ZM80.2766 64.5462H48.2466V51.8495L80.2766 51.7768V64.5462V64.5462ZM48.7496 64.0424H79.7688V52.2854L48.7496 52.3581V64.0424V64.0424Z" fill="#007CBA"/>
<path d="M80.6057 66.0866H47.918C47.2506 66.0866 46.7041 65.544 46.7041 64.8707V51.52C46.7041 50.8515 47.2458 50.309 47.9131 50.3041L80.6008 50.2314C80.9249 50.2314 81.2295 50.3574 81.4568 50.5851C81.689 50.8176 81.8147 51.1228 81.8147 51.4473V64.8707C81.8147 65.5392 81.2682 66.0866 80.6008 66.0866H80.6057ZM49.1318 63.6596H79.3966V52.6632L49.1318 52.7311V63.6596Z" fill="#007CBA"/>
<path d="M80.606 65.9608H47.9183C47.3186 65.9608 46.835 65.4715 46.835 64.8756V51.525C46.835 50.9243 47.3186 50.4398 47.9183 50.4398L80.606 50.3672C80.8962 50.3672 81.1718 50.4786 81.3749 50.6821C81.5829 50.8904 81.6941 51.1616 81.6941 51.4523V64.8756C81.6941 65.4763 81.2057 65.9608 80.606 65.9608V65.9608ZM47.3379 64.8756C47.3379 65.1954 47.5991 65.457 47.9183 65.457H80.606C80.9252 65.457 81.1863 65.1954 81.1863 64.8756C81.1863 65.1954 80.9252 65.457 80.606 65.457H47.9183C47.5991 65.457 47.3379 65.1954 47.3379 64.8756ZM80.606 51.3748L47.9183 51.4474C47.8796 51.4474 47.8458 51.4814 47.8458 51.525V64.8756C47.8458 64.9192 47.8796 64.9532 47.9231 64.9532H80.6108C80.6544 64.9532 80.6882 64.9192 80.6882 64.8756V51.4523C80.6882 51.4523 80.6785 51.4135 80.664 51.399C80.6495 51.3845 80.6302 51.3796 80.6108 51.3796L80.606 51.3748ZM80.606 50.871L47.9183 50.9436C47.5991 50.9436 47.3379 51.2052 47.3379 51.525C47.3379 51.2052 47.5991 50.9436 47.9183 50.9436L80.606 50.871ZM81.0654 51.0938C81.1476 51.1956 81.1863 51.3215 81.1912 51.4474C81.1912 51.3167 81.1476 51.1956 81.0654 51.0938ZM80.5334 64.803H47.9957V51.6025L80.5334 51.5298V64.803V64.803ZM48.5035 64.2992H80.0305H48.5035ZM49.0065 63.7954H79.5227V52.5471L49.0065 52.6149V63.7954ZM48.5035 52.1111L64.0131 52.0772L48.5035 52.1111Z" fill="#007CBA"/>
<path d="M80.6062 66.3436H47.9185C47.1109 66.3436 46.4531 65.6848 46.4531 64.8758V51.5251C46.4531 50.7161 47.1109 50.0573 47.9137 50.0573L80.6013 49.9846C80.9931 49.9846 81.3606 50.1348 81.6363 50.4109C81.9168 50.687 82.0667 51.0552 82.0667 51.4524V64.8758C82.0667 65.6848 81.409 66.3436 80.6013 66.3436H80.6062ZM47.2124 64.8758H47.4639V51.5251H47.2124V64.8758ZM48.3731 64.4204H48.4988V63.9166H48.6246V52.4842H48.4988V51.9804H48.3731V64.4253V64.4204ZM49.3838 63.408H79.1408V52.9202L49.3838 52.988V63.408ZM64.0084 51.9417V52.1936L79.6486 52.1597V52.0337H80.1516V51.9078L64.0084 51.9465V51.9417ZM80.6062 50.9971C80.7223 50.9971 80.8383 51.0407 80.9205 51.123C80.9351 51.1375 80.9495 51.1521 80.9641 51.1715L81.1624 51.0164C81.1624 51.0164 81.1237 50.9728 81.1043 50.9535C80.9737 50.8227 80.7948 50.75 80.6062 50.7452V50.9971V50.9971Z" fill="#007CBA"/>
<path d="M103.903 104.889H54.0567C53.7375 104.889 53.4764 104.627 53.4764 104.308V64.8755C53.4764 64.5558 53.7375 64.2942 54.0567 64.2942H80.0221V52.0286H54.0567C53.7375 52.0286 53.4764 51.767 53.4764 51.4473V42.3014C53.4764 41.9817 53.7375 41.7201 54.0567 41.7201H87.6633C87.818 41.7201 87.9679 41.7831 88.0743 41.8945L104.314 58.3213C104.421 58.4327 104.483 58.578 104.483 58.7282V104.303C104.483 104.622 104.222 104.884 103.903 104.884V104.889ZM54.6419 103.726H103.323V58.9752L87.4215 42.8876H54.637V50.8708H80.6025C80.9217 50.8708 81.1828 51.1324 81.1828 51.4521V64.8755C81.1828 65.1952 80.9217 65.4568 80.6025 65.4568H54.637V103.726H54.6419Z" fill="#007CBA"/>
<path d="M103.903 105.267H54.057C53.5298 105.267 53.0994 104.836 53.0994 104.308V64.8757C53.0994 64.3477 53.5298 63.9165 54.057 63.9165H79.6452V52.4115H54.057C53.5298 52.4115 53.0994 51.9804 53.0994 51.4523V42.3064C53.0994 41.7784 53.5298 41.3473 54.057 41.3473H87.6636C87.9199 41.3473 88.1617 41.449 88.3455 41.6331L104.585 58.0647C104.764 58.2488 104.861 58.4862 104.861 58.7429V104.317C104.861 104.845 104.431 105.277 103.903 105.277V105.267ZM54.057 64.6722C53.9457 64.6722 53.8538 64.7643 53.8538 64.8757V104.308C53.8538 104.419 53.9457 104.511 54.057 104.511H103.903C104.015 104.511 104.107 104.419 104.107 104.308V58.7332C104.107 58.6799 104.087 58.6315 104.049 58.5927L87.8135 42.166C87.7748 42.1272 87.7264 42.1078 87.6684 42.1078H54.0618C53.9506 42.1078 53.8587 42.1999 53.8587 42.3113V51.4572C53.8587 51.5686 53.9506 51.6607 54.0618 51.6607H80.4093V64.6819H54.0618L54.057 64.6722ZM103.7 104.104H54.2601V65.0792H80.6076C80.7188 65.0792 80.8107 64.9871 80.8107 64.8757V51.4523C80.8107 51.3409 80.7188 51.2489 80.6076 51.2489H54.2601V42.5099H87.5813L103.7 58.8204V104.109V104.104ZM55.0194 103.344H102.946V59.1304L87.267 43.2656H55.0194V50.4883H80.6076C81.1347 50.4883 81.5651 50.9195 81.5651 51.4475V64.8709C81.5651 65.3989 81.1347 65.83 80.6076 65.83H55.0194V103.344V103.344Z" fill="#007CBA"/>
<path d="M103.904 105.141H54.0572C53.5978 105.141 53.2254 104.768 53.2254 104.308V64.8756C53.2254 64.4154 53.5978 64.0424 54.0572 64.0424H79.7712V52.2855H54.0572C53.5978 52.2855 53.2254 51.9125 53.2254 51.4523V42.3064C53.2254 41.8462 53.5978 41.4731 54.0572 41.4731H87.6638C87.8862 41.4731 88.099 41.5603 88.2538 41.7202L104.494 58.147C104.648 58.3068 104.735 58.5151 104.735 58.7331V104.308C104.735 104.768 104.363 105.141 103.904 105.141ZM54.0572 64.5462C53.8783 64.5462 53.7283 64.6915 53.7283 64.8756V104.308C53.7283 104.487 53.8734 104.637 54.0572 104.637H103.904C104.083 104.637 104.233 104.492 104.233 104.308V58.7331C104.233 58.6459 104.199 58.5636 104.136 58.5006L87.9007 42.0738C87.8379 42.0109 87.7557 41.9769 87.6686 41.9769H54.0621C53.8831 41.9769 53.7332 42.1223 53.7332 42.3064V51.4523C53.7332 51.6315 53.8783 51.7817 54.0621 51.7817H80.2838V64.551H54.0621L54.0572 64.5462ZM103.575 103.978H54.3861V65.205H80.6078C80.7868 65.205 80.9366 65.0597 80.9366 64.8756V51.4523C80.9366 51.273 80.7916 51.1228 80.6078 51.1228H54.3861V42.6358H87.5284L87.6009 42.7133L103.575 58.8736V103.983V103.978ZM54.8939 103.474H103.072V59.0771L87.3204 43.1396H54.8939V50.6142H80.6078C81.0673 50.6142 81.4396 50.9872 81.4396 51.4474V64.8708C81.4396 65.331 81.0673 65.704 80.6078 65.704H54.8939V103.47V103.474Z" fill="#007CBA"/>
<path d="M103.903 105.524H54.057C53.3896 105.524 52.8431 104.981 52.8431 104.308V64.8758C52.8431 64.2073 53.3847 63.6599 54.057 63.6599H79.3937V52.6635H54.057C53.3896 52.6635 52.8431 52.121 52.8431 51.4476V42.3017C52.8431 41.6332 53.3847 41.0858 54.057 41.0858H87.6635C87.9876 41.0858 88.2971 41.2118 88.5244 41.4443L104.764 57.8711C104.992 58.1036 105.117 58.4039 105.117 58.7237V104.298C105.117 104.967 104.576 105.514 103.903 105.514V105.524ZM55.2708 103.097H102.69V59.2323L87.1558 43.5176H55.266V50.2366H80.6027C81.2701 50.2366 81.8166 50.7791 81.8166 51.4525V64.8758C81.8166 65.5443 81.275 66.0917 80.6027 66.0917H55.266V103.097H55.2708Z" fill="#007CBA"/>
<path d="M103.903 105.141H54.0611C53.6017 105.141 53.2293 104.768 53.2293 104.307V64.8754C53.2293 64.4152 53.6017 64.0422 54.0611 64.0422H79.7751V52.2852H54.0611C53.6017 52.2852 53.2293 51.9122 53.2293 51.452V42.3061C53.2293 41.8459 53.6017 41.4729 54.0611 41.4729H87.6677C87.8902 41.4729 88.1029 41.5649 88.2577 41.72L104.493 58.1467C104.648 58.3066 104.735 58.5149 104.735 58.7329V104.307C104.735 104.768 104.362 105.141 103.903 105.141ZM54.0611 64.546C53.8822 64.546 53.7322 64.6913 53.7322 64.8754V104.307C53.7322 104.487 53.8773 104.637 54.0611 104.637H103.903C104.082 104.637 104.232 104.491 104.232 104.307V58.7329C104.232 58.6457 104.198 58.5633 104.135 58.5004L87.8998 42.0736C87.8369 42.0106 87.7547 41.9767 87.6677 41.9767H54.0611C53.8822 41.9767 53.7322 42.122 53.7322 42.3061V51.452C53.7322 51.6312 53.8773 51.7814 54.0611 51.7814H80.2828V64.5508H54.0611V64.546ZM103.579 103.978H54.39V65.2048H80.6117C80.7907 65.2048 80.9406 65.0594 80.9406 64.8754V51.452C80.9406 51.2728 80.7955 51.1226 80.6117 51.1226H54.39V42.6355H87.5323L87.6048 42.713L103.579 58.8734V103.983V103.978ZM54.8978 103.474H103.076V59.0768L87.3243 43.1393H54.8978V50.614H80.6117C81.0712 50.614 81.4435 50.987 81.4435 51.4472V64.8705C81.4435 65.3307 81.0712 65.7037 80.6117 65.7037H54.8978V103.469V103.474Z" fill="#007CBA"/>
<path d="M103.903 105.523H54.0614C53.394 105.523 52.8475 104.981 52.8475 104.307V64.8753C52.8475 64.2068 53.3891 63.6594 54.0614 63.6594H79.3981V52.663H54.0614C53.394 52.663 52.8475 52.1205 52.8475 51.4471V42.3012C52.8475 41.6327 53.3891 41.0853 54.0614 41.0853H87.6679C87.9871 41.0853 88.3015 41.2161 88.5288 41.4438L104.764 57.8706C104.991 58.0983 105.117 58.4034 105.117 58.7232V104.298C105.117 104.966 104.57 105.514 103.903 105.514V105.523ZM55.2704 103.096H102.689V59.2318L87.1553 43.5171H55.2656V50.2361H80.6023C81.2697 50.2361 81.8162 50.7786 81.8162 51.452V64.8753C81.8162 65.5438 81.2697 66.0912 80.6023 66.0912H55.2656V103.096H55.2704Z" fill="#007CBA"/>
<path d="M103.902 105.397H54.0607C53.461 105.397 52.9774 104.908 52.9774 104.312V64.8754C52.9774 64.2747 53.4658 63.7903 54.0607 63.7903H79.5231V52.5372H54.0607C53.461 52.5372 52.9774 52.0479 52.9774 51.4521V42.3062C52.9774 41.7055 53.4658 41.2211 54.0607 41.2211H87.6672C87.9574 41.2211 88.2379 41.3373 88.441 41.5456L104.676 57.9724C104.879 58.1807 104.99 58.452 104.99 58.7378V104.312C104.99 104.913 104.502 105.397 103.902 105.397ZM53.4803 104.312C53.4803 104.632 53.7415 104.894 54.0607 104.894H103.902C104.221 104.894 104.483 104.632 104.483 104.312C104.483 104.632 104.221 104.894 103.902 104.894H54.0607C53.7415 104.894 53.4803 104.632 53.4803 104.312ZM54.0607 64.8028C54.0171 64.8028 53.9833 64.8367 53.9833 64.8803V104.312C53.9833 104.356 54.0171 104.39 54.0607 104.39H103.902C103.946 104.39 103.98 104.356 103.98 104.312V58.733C103.98 58.733 103.97 58.6942 103.955 58.6797L87.7156 42.2529C87.7156 42.2529 87.6817 42.2335 87.6624 42.2335H54.0558C54.0123 42.2335 53.9784 42.2674 53.9784 42.311V51.4569C53.9784 51.5005 54.0123 51.5344 54.0558 51.5344H80.529V64.8076H54.0558L54.0607 64.8028ZM53.4803 51.4521C53.4803 51.7718 53.7415 52.0334 54.0607 52.0334C53.7415 52.0334 53.4803 51.7718 53.4803 51.4521ZM103.83 104.24H54.138V64.9481H80.6113C80.6548 64.9481 80.6886 64.9142 80.6886 64.8706V51.4472C80.6886 51.4036 80.6548 51.3697 80.6113 51.3697H54.138V42.374H87.6382L87.7881 42.5242L103.835 58.7572V104.225L103.83 104.24ZM54.641 103.736H103.322V58.9752L87.4206 42.8875L87.4931 42.965L103.317 58.9752V103.731H54.6361L54.641 103.736ZM55.144 103.232H102.814V59.1835L87.2078 43.3961H55.1391V50.367H80.6016C81.2013 50.367 81.6897 50.8562 81.6897 51.4521V64.8754C81.6897 65.4761 81.2013 65.9605 80.6016 65.9605H55.1391V103.217L55.144 103.232ZM54.641 50.8805H80.6064C80.9256 50.8805 81.1867 51.142 81.1867 51.4618C81.1867 51.142 80.9256 50.8805 80.6064 50.8805H54.641Z" fill="#007CBA"/>
<path d="M103.902 105.775H54.0609C53.2533 105.775 52.5955 105.117 52.5955 104.308V64.8755C52.5955 64.0665 53.2533 63.4077 54.0609 63.4077H79.1461V52.9151H54.0609C53.2533 52.9151 52.5955 52.2563 52.5955 51.4473V42.3014C52.5955 41.4924 53.2533 40.8336 54.0609 40.8336H87.6675C88.0544 40.8336 88.4364 40.9935 88.7073 41.2696L104.942 57.6964C105.218 57.9725 105.368 58.3407 105.368 58.7282V104.303C105.368 105.112 104.71 105.77 103.902 105.77V105.775ZM53.35 104.308H53.6015V64.8755C53.6015 64.6236 53.8046 64.4202 54.0561 64.4202H80.1472V51.9027H80.0215V52.4065H79.8958V64.1634H54.0561C53.6643 64.1634 53.35 64.4783 53.35 64.8707V104.303V104.308ZM54.5107 103.852H54.6364V103.348H54.7621V65.5828H80.6018C80.9936 65.5828 81.3079 65.2679 81.3079 64.8755V51.4522H81.0564V64.8755C81.0564 65.1274 80.8533 65.3309 80.6018 65.3309H54.5107V103.857V103.852ZM55.5214 102.84H102.437V59.3386L87.0533 43.7741H55.5214V49.9844H80.6018C81.4095 49.9844 82.0672 50.6432 82.0672 51.4522V64.8755C82.0672 65.6845 81.4095 66.3433 80.6018 66.3433H55.5214V102.845V102.84ZM104.357 58.733H104.609C104.609 58.5441 104.536 58.3697 104.405 58.2341L88.1704 41.8073C88.0399 41.6765 87.8561 41.599 87.6723 41.599V41.8509C87.7932 41.8509 87.9093 41.8993 87.9915 41.9817L104.231 58.4133C104.314 58.4957 104.362 58.6119 104.362 58.733H104.357ZM53.35 51.4473H53.6015V42.3014C53.6015 42.0495 53.8046 41.8461 54.0561 41.8461H87.6626V41.5942H54.0561C53.6643 41.5942 53.35 41.909 53.35 42.3014V51.4473ZM54.5107 50.992H54.6364V50.4882H54.7621V43.0135H87.2902L87.5079 42.8004L87.4692 42.7616H54.5058V50.9968L54.5107 50.992Z" fill="#007CBA"/>
<path d="M103.902 59.3145H87.6623C87.3432 59.3145 87.082 59.0529 87.082 58.7332V42.3064C87.082 42.0691 87.2223 41.8608 87.4399 41.7687C87.6575 41.6767 87.9041 41.73 88.0734 41.8947L104.313 58.3215C104.478 58.4862 104.526 58.7381 104.434 58.9561C104.342 59.174 104.134 59.3145 103.897 59.3145H103.902ZM88.2475 58.1519H102.514L88.2475 43.7161V58.1519Z" fill="#007CBA"/>
<path d="M103.902 59.6972H87.6626C87.1355 59.6972 86.7051 59.2661 86.7051 58.7381V42.3113C86.7051 41.9189 86.9372 41.5701 87.2999 41.4248C87.6578 41.2795 88.0689 41.357 88.3445 41.6379L104.584 58.0696C104.86 58.3457 104.937 58.7574 104.788 59.1159C104.638 59.4744 104.289 59.7069 103.902 59.7069V59.6972ZM87.6675 42.1078C87.6433 42.1078 87.6143 42.1127 87.5901 42.1224C87.5127 42.1563 87.4643 42.2289 87.4643 42.3113V58.7381C87.4643 58.8495 87.5562 58.9415 87.6675 58.9415H103.907C103.99 58.9415 104.062 58.8931 104.091 58.8156C104.125 58.7381 104.106 58.6557 104.048 58.5976L87.8077 42.1708C87.7691 42.1321 87.7158 42.1127 87.6675 42.1127V42.1078ZM103.424 58.5346H87.8706V42.8006L103.424 58.5346ZM88.6299 57.7741H101.61L88.6299 44.6414V57.7741Z" fill="#007CBA"/>
<path d="M103.902 59.566H87.6619C87.2024 59.566 86.8301 59.193 86.8301 58.7328V42.306C86.8301 41.9669 87.0332 41.6617 87.3475 41.5358C87.657 41.405 88.0149 41.4777 88.2567 41.7199L104.497 58.1466C104.734 58.3889 104.801 58.7425 104.671 59.0574C104.54 59.3674 104.24 59.5709 103.902 59.5709V59.566ZM87.6619 41.9766C87.6184 41.9766 87.5797 41.9863 87.5361 42.0008C87.4104 42.0541 87.3331 42.1704 87.3331 42.306V58.7328C87.3331 58.912 87.4781 59.0622 87.6619 59.0622H103.902C104.032 59.0622 104.153 58.9847 104.202 58.8588C104.255 58.7376 104.226 58.5972 104.134 58.5003L87.894 42.0735C87.8311 42.0105 87.7489 41.9766 87.6619 41.9766V41.9766ZM103.113 58.4034H87.9908V43.1005L103.113 58.4034ZM88.4937 57.8996H101.9L88.4937 44.3358V57.8996Z" fill="#007CBA"/>
<path d="M103.902 59.9485H87.6621C86.9947 59.9485 86.4482 59.406 86.4482 58.7326V42.3059C86.4482 41.8118 86.7433 41.3709 87.2027 41.182C87.6573 40.9931 88.1748 41.0997 88.523 41.4484L104.763 57.8801C105.111 58.2288 105.208 58.752 105.019 59.2025C104.831 59.653 104.395 59.9485 103.902 59.9485V59.9485ZM88.876 57.5216H100.995L88.876 45.256V57.5216V57.5216Z" fill="#007CBA"/>
<path d="M103.903 59.5663H87.6677C87.2083 59.5663 86.8359 59.1932 86.8359 58.733V42.3063C86.8359 41.9672 87.039 41.662 87.3534 41.536C87.6629 41.4052 88.0208 41.4779 88.2626 41.7201L104.502 58.1469C104.739 58.3891 104.807 58.7427 104.681 59.0528C104.551 59.3628 104.251 59.5663 103.912 59.5663H103.903ZM87.6629 41.9769C87.6194 41.9769 87.5807 41.9866 87.5372 42.0011C87.4114 42.0544 87.3341 42.1706 87.3341 42.3063V58.733C87.3341 58.9123 87.4791 59.0625 87.6629 59.0625H103.898C104.033 59.0625 104.149 58.9849 104.203 58.859C104.256 58.7379 104.227 58.5974 104.135 58.5005L87.8999 42.0737C87.837 42.0108 87.7548 41.9769 87.6677 41.9769H87.6629ZM103.115 58.4036H87.9918V43.1007L103.115 58.4036ZM88.4947 57.8998H101.901L88.4947 44.336V57.8998Z" fill="#007CBA"/>
<path d="M103.903 59.949H87.668C87.0006 59.949 86.4541 59.4065 86.4541 58.7331V42.3064C86.4541 41.8123 86.7491 41.3714 87.2037 41.1825C87.6535 40.9936 88.1758 41.1001 88.524 41.4489L104.764 57.8805C105.107 58.2293 105.209 58.7477 105.02 59.203C104.832 59.6535 104.396 59.949 103.903 59.949V59.949ZM88.877 57.5221H100.997L88.877 45.2565V57.5221V57.5221Z" fill="#007CBA"/>
<path d="M103.902 59.823H87.6673C87.0676 59.823 86.584 59.3337 86.584 58.7379V42.3111C86.584 41.8703 86.85 41.4731 87.2562 41.3035C87.6576 41.134 88.1267 41.226 88.4362 41.5409L104.676 57.9725C104.986 58.2874 105.078 58.7524 104.908 59.1545C104.744 59.5614 104.347 59.823 103.907 59.823H103.902ZM87.087 58.7379C87.087 59.0576 87.3481 59.3192 87.6673 59.3192C87.3481 59.3192 87.087 59.0576 87.087 58.7379ZM104.386 59.0625C104.28 59.2223 104.101 59.3192 103.907 59.3192C104.105 59.3192 104.28 59.2223 104.386 59.0625ZM87.6673 42.2336C87.6673 42.2336 87.648 42.2336 87.6383 42.2384C87.6093 42.253 87.5899 42.2772 87.5899 42.3063V58.733C87.5899 58.7766 87.6238 58.8106 87.6673 58.8106H103.902C103.931 58.8106 103.96 58.7912 103.97 58.7621C103.98 58.733 103.975 58.704 103.956 58.6798L87.7205 42.253C87.7205 42.253 87.6866 42.2288 87.6673 42.2288V42.2336ZM87.6673 41.7443C87.7979 41.7443 87.9236 41.7879 88.0252 41.8703C87.8607 41.7395 87.6431 41.7104 87.4497 41.7879C87.44 41.7928 87.4255 41.7976 87.4158 41.8025C87.4255 41.7976 87.4352 41.7928 87.4497 41.7879C87.5174 41.7589 87.5947 41.7443 87.6673 41.7443ZM103.723 58.6798H87.7398V42.5097L103.723 58.6798ZM88.7506 57.6722H101.3L88.7506 44.9754V57.6722ZM88.2476 43.745L91.0188 46.5498L88.2476 43.745Z" fill="#007CBA"/>
<path d="M103.903 60.2011H87.6675C86.8599 60.2011 86.2021 59.5423 86.2021 58.7333V42.3066C86.2021 41.7107 86.56 41.1778 87.1114 40.9502C87.653 40.7225 88.2817 40.8484 88.7025 41.2747L104.942 57.7063C105.358 58.1278 105.479 58.7575 105.252 59.3049C105.025 59.8523 104.497 60.206 103.903 60.206V60.2011ZM103.903 59.4406V59.1887V59.4406ZM104.352 59.0385L104.488 59.1306C104.507 59.1015 104.526 59.0724 104.541 59.0385H104.352V59.0385ZM104.352 58.7624L104.56 58.9755C104.652 58.7188 104.589 58.433 104.396 58.2392L88.156 41.8076C88.156 41.8076 88.1125 41.7688 88.0931 41.7495L87.9384 41.9481C87.9384 41.9481 87.9674 41.9723 87.9819 41.9868L104.222 58.4184C104.314 58.5105 104.362 58.6364 104.352 58.7672V58.7624ZM86.9518 58.7333H87.2033V42.3501L87.1017 42.2969H86.9518V58.7285V58.7333ZM102.505 58.278H102.81L102.505 57.9728V58.278ZM88.1125 58.278H88.2382V57.7742H88.364V44.3847L88.1125 44.128V58.278ZM101.954 57.7742H102.307L91.1012 46.4338L90.9223 46.6131L101.954 57.7742V57.7742ZM89.1232 57.2704H100.387L89.1232 45.8767V57.2704ZM88.1125 43.4159V43.847L88.3301 43.6339L88.1125 43.4159ZM87.0727 42.3017H87.2033C87.2081 42.1758 87.2661 42.0643 87.3532 41.982V41.6816C87.1259 41.7882 86.9808 42.0014 86.9518 42.2436L86.7341 42.137L86.9518 42.2436L86.7341 42.137L86.9518 42.2436C86.9518 42.2436 86.9518 42.2823 86.9518 42.3017H87.0727Z" fill="#007CBA"/>
<path d="M85.3322 88.598H58.0803C57.7611 88.598 57.5 88.3364 57.5 88.0167C57.5 87.697 57.7611 87.4354 58.0803 87.4354H85.3322C85.6514 87.4354 85.9125 87.697 85.9125 88.0167C85.9125 88.3364 85.6514 88.598 85.3322 88.598Z" fill="#FF6E01"/>
<path d="M85.3325 88.9759H58.0806C57.5535 88.9759 57.123 88.5448 57.123 88.0168C57.123 87.4888 57.5535 87.0576 58.0806 87.0576H85.3325C85.8596 87.0576 86.29 87.4888 86.29 88.0168C86.29 88.5448 85.8596 88.9759 85.3325 88.9759ZM58.0806 87.8133C57.9694 87.8133 57.8775 87.9054 57.8775 88.0168C57.8775 88.1282 57.9694 88.2202 58.0806 88.2202H85.3325C85.4437 88.2202 85.5356 88.1282 85.5356 88.0168C85.5356 87.9054 85.4437 87.8133 85.3325 87.8133H58.0806Z" fill="#FF6E01"/>
<path d="M85.3322 88.85H58.0803C57.6209 88.85 57.2485 88.477 57.2485 88.0168C57.2485 87.5566 57.6209 87.1836 58.0803 87.1836H85.3322C85.7917 87.1836 86.164 87.5566 86.164 88.0168C86.164 88.477 85.7917 88.85 85.3322 88.85ZM58.0803 87.6874C57.9014 87.6874 57.7515 87.8327 57.7515 88.0168C57.7515 88.2009 57.8966 88.3462 58.0803 88.3462H85.3322C85.5112 88.3462 85.6611 88.2009 85.6611 88.0168C85.6611 87.8327 85.516 87.6874 85.3322 87.6874H58.0803Z" fill="#FF6E01"/>
<path d="M85.3324 89.2277H58.0805C57.4131 89.2277 56.8667 88.6851 56.8667 88.0118C56.8667 87.3384 57.4083 86.7959 58.0805 86.7959H85.3324C85.9998 86.7959 86.5463 87.3384 86.5463 88.0118C86.5463 88.6851 86.0046 89.2277 85.3324 89.2277Z" fill="#FF6E01"/>
<path d="M85.3318 88.85H58.0847C57.6253 88.85 57.2529 88.477 57.2529 88.0168C57.2529 87.5566 57.6253 87.1836 58.0847 87.1836H85.3318C85.7912 87.1836 86.1636 87.5566 86.1636 88.0168C86.1636 88.477 85.7912 88.85 85.3318 88.85ZM58.0847 87.6874C57.9058 87.6874 57.7559 87.8327 57.7559 88.0168C57.7559 88.2009 57.901 88.3462 58.0847 88.3462H85.3318C85.5107 88.3462 85.6606 88.2009 85.6606 88.0168C85.6606 87.8327 85.5156 87.6874 85.3318 87.6874H58.0847Z" fill="#FF6E01"/>
<path d="M85.332 89.2277H58.085C57.4176 89.2277 56.8711 88.6851 56.8711 88.0118C56.8711 87.3384 57.4127 86.7959 58.085 86.7959H85.332C85.9994 86.7959 86.5459 87.3384 86.5459 88.0118C86.5459 88.6851 86.0043 89.2277 85.332 89.2277Z" fill="#FF6E01"/>
<path d="M85.3323 89.1018H58.0804C57.4807 89.1018 56.9971 88.6126 56.9971 88.0119C56.9971 87.4112 57.4855 86.9268 58.0804 86.9268H85.3323C85.9319 86.9268 86.4156 87.416 86.4156 88.0119C86.4156 88.6077 85.9271 89.1018 85.3323 89.1018ZM57.5001 88.0119C57.5001 88.3316 57.7612 88.5932 58.0804 88.5932H85.3323C85.6514 88.5932 85.9126 88.3316 85.9126 88.0119C85.9126 88.3316 85.6514 88.5932 85.3323 88.5932H58.0804C57.7612 88.5932 57.5001 88.3316 57.5001 88.0119ZM58.0804 87.9344C58.0368 87.9344 58.003 87.9683 58.003 88.0119C58.003 88.0555 58.0368 88.0894 58.0804 88.0894H85.3323C85.3758 88.0894 85.4096 88.0555 85.4096 88.0119C85.4096 87.9683 85.3758 87.9344 85.3323 87.9344H58.0804Z" fill="#FF6E01"/>
<path d="M94.37 93.8386H58.0793C57.7602 93.8386 57.499 93.5771 57.499 93.2573C57.499 92.9376 57.7602 92.676 58.0793 92.676H94.37C94.6892 92.676 94.9504 92.9376 94.9504 93.2573C94.9504 93.5771 94.6892 93.8386 94.37 93.8386Z" fill="#FF6E01"/>
<path d="M94.3703 94.2214H58.0796C57.5525 94.2214 57.1221 93.7903 57.1221 93.2623C57.1221 92.7342 57.5525 92.3031 58.0796 92.3031H94.3703C94.8974 92.3031 95.3278 92.7342 95.3278 93.2623C95.3278 93.7903 94.8974 94.2214 94.3703 94.2214ZM58.0796 93.0588C57.9684 93.0588 57.8765 93.1508 57.8765 93.2623C57.8765 93.3737 57.9684 93.4657 58.0796 93.4657H94.3703C94.4815 93.4657 94.5734 93.3737 94.5734 93.2623C94.5734 93.1508 94.4815 93.0588 94.3703 93.0588H58.0796Z" fill="#FF6E01"/>
<path d="M94.3705 94.0954H58.0799C57.6204 94.0954 57.248 93.7224 57.248 93.2622C57.248 92.802 57.6204 92.429 58.0799 92.429H94.3705C94.83 92.429 95.2023 92.802 95.2023 93.2622C95.2023 93.7224 94.83 94.0954 94.3705 94.0954ZM58.0799 92.9328C57.9009 92.9328 57.751 93.0781 57.751 93.2622C57.751 93.4462 57.8961 93.5916 58.0799 93.5916H94.3705C94.5495 93.5916 94.6994 93.4462 94.6994 93.2622C94.6994 93.0781 94.5543 92.9328 94.3705 92.9328H58.0799Z" fill="#FF6E01"/>
<path d="M94.3707 94.4733H58.08C57.4126 94.4733 56.8662 93.9308 56.8662 93.2574C56.8662 92.5841 57.4078 92.0415 58.08 92.0415H94.3707C95.0381 92.0415 95.5846 92.5841 95.5846 93.2574C95.5846 93.9308 95.0429 94.4733 94.3707 94.4733Z" fill="#FF6E01"/>
<path d="M94.3697 94.0954H58.0839C57.6244 94.0954 57.2521 93.7224 57.2521 93.2622C57.2521 92.802 57.6244 92.429 58.0839 92.429H94.3697C94.8291 92.429 95.2015 92.802 95.2015 93.2622C95.2015 93.7224 94.8291 94.0954 94.3697 94.0954ZM58.0839 92.9328C57.9049 92.9328 57.7551 93.0781 57.7551 93.2622C57.7551 93.4462 57.9001 93.5916 58.0839 93.5916H94.3697C94.5486 93.5916 94.6986 93.4462 94.6986 93.2622C94.6986 93.0781 94.5535 92.9328 94.3697 92.9328H58.0839Z" fill="#FF6E01"/>
<path d="M94.37 94.4733H58.0841C57.4167 94.4733 56.8702 93.9308 56.8702 93.2574C56.8702 92.5841 57.4119 92.0415 58.0841 92.0415H94.37C95.0373 92.0415 95.5838 92.5841 95.5838 93.2574C95.5838 93.9308 95.0422 94.4733 94.37 94.4733Z" fill="#FF6E01"/>
<path d="M94.37 99.5844H58.0793C57.7602 99.5844 57.499 99.3228 57.499 99.0031C57.499 98.6833 57.7602 98.4218 58.0793 98.4218H94.37C94.6892 98.4218 94.9504 98.6833 94.9504 99.0031C94.9504 99.3228 94.6892 99.5844 94.37 99.5844Z" fill="#FF6E01"/>
<path d="M94.3703 99.9624H58.0796C57.5525 99.9624 57.1221 99.5313 57.1221 99.0032C57.1221 98.4752 57.5525 98.0441 58.0796 98.0441H94.3703C94.8974 98.0441 95.3278 98.4752 95.3278 99.0032C95.3278 99.5313 94.8974 99.9624 94.3703 99.9624ZM58.0796 98.7998C57.9684 98.7998 57.8765 98.8918 57.8765 99.0032C57.8765 99.1146 57.9684 99.2067 58.0796 99.2067H94.3703C94.4815 99.2067 94.5734 99.1146 94.5734 99.0032C94.5734 98.8918 94.4815 98.7998 94.3703 98.7998H58.0796Z" fill="#FF6E01"/>
<path d="M94.3705 99.8366H58.0799C57.6204 99.8366 57.248 99.4636 57.248 99.0034C57.248 98.5432 57.6204 98.1702 58.0799 98.1702H94.3705C94.83 98.1702 95.2023 98.5432 95.2023 99.0034C95.2023 99.4636 94.83 99.8366 94.3705 99.8366ZM58.0799 98.674C57.9009 98.674 57.751 98.8193 57.751 99.0034C57.751 99.1875 57.8961 99.3328 58.0799 99.3328H94.3705C94.5495 99.3328 94.6994 99.1875 94.6994 99.0034C94.6994 98.8193 94.5543 98.674 94.3705 98.674H58.0799Z" fill="#FF6E01"/>
<path d="M94.3707 100.219H58.08C57.4126 100.219 56.8662 99.6765 56.8662 99.0031C56.8662 98.3298 57.4078 97.7872 58.08 97.7872H94.3707C95.0381 97.7872 95.5846 98.3298 95.5846 99.0031C95.5846 99.6765 95.0429 100.219 94.3707 100.219Z" fill="#FF6E01"/>
<path d="M94.3696 99.8366H58.0838C57.6243 99.8366 57.252 99.4636 57.252 99.0034C57.252 98.5432 57.6243 98.1702 58.0838 98.1702H94.3696C94.829 98.1702 95.2014 98.5432 95.2014 99.0034C95.2014 99.4636 94.829 99.8366 94.3696 99.8366ZM58.0838 98.674C57.9048 98.674 57.7549 98.8193 57.7549 99.0034C57.7549 99.1875 57.9 99.3328 58.0838 99.3328H94.3696C94.5485 99.3328 94.6985 99.1875 94.6985 99.0034C94.6985 98.8193 94.5534 98.674 94.3696 98.674H58.0838Z" fill="#FF6E01"/>
<path d="M113.715 98.669H103.902C103.583 98.669 103.322 98.4074 103.322 98.0877V70.306C103.322 69.9863 103.583 69.7247 103.902 69.7247H113.715C114.034 69.7247 114.295 69.9863 114.295 70.306V98.0877C114.295 98.4074 114.034 98.669 113.715 98.669ZM104.483 97.5064H113.135V70.8873H104.483V97.5064ZM54.056 98.669H44.2434C43.9242 98.669 43.6631 98.4074 43.6631 98.0877V70.306C43.6631 69.9863 43.9242 69.7247 44.2434 69.7247H54.056C54.3752 69.7247 54.6363 69.9863 54.6363 70.306V98.0877C54.6363 98.4074 54.3752 98.669 54.056 98.669ZM44.8238 97.5064H53.4757V70.8873H44.8238V97.5064Z" fill="#007CBA"/>
<path d="M113.715 99.0472H103.902C103.375 99.0472 102.945 98.6161 102.945 98.0881V70.3064C102.945 69.7784 103.375 69.3473 103.902 69.3473H113.715C114.242 69.3473 114.672 69.7784 114.672 70.3064V98.0881C114.672 98.6161 114.242 99.0472 113.715 99.0472ZM103.902 70.103C103.791 70.103 103.699 70.195 103.699 70.3064V98.0881C103.699 98.1995 103.791 98.2916 103.902 98.2916H113.715C113.826 98.2916 113.918 98.1995 113.918 98.0881V70.3064C113.918 70.195 113.826 70.103 113.715 70.103H103.902V70.103ZM54.0558 99.0472H44.2432C43.7161 99.0472 43.2856 98.6161 43.2856 98.0881V70.3064C43.2856 69.7784 43.7161 69.3473 44.2432 69.3473H54.0558C54.583 69.3473 55.0134 69.7784 55.0134 70.3064V98.0881C55.0134 98.6161 54.583 99.0472 54.0558 99.0472ZM44.2432 70.103C44.132 70.103 44.0401 70.195 44.0401 70.3064V98.0881C44.0401 98.1995 44.132 98.2916 44.2432 98.2916H54.0558C54.167 98.2916 54.259 98.1995 54.259 98.0881V70.3064C54.259 70.195 54.167 70.103 54.0558 70.103H44.2432V70.103ZM113.512 97.8846H104.101V70.5099H113.512V97.8846ZM104.86 97.1241H112.752V71.2656H104.86V97.1241ZM53.8527 97.8846H44.4463V70.5099H53.8527V97.8846ZM45.2008 97.1241H53.0934V71.2656H45.2008V97.1241Z" fill="#007CBA"/>
<path d="M113.715 98.9211H103.902C103.443 98.9211 103.07 98.5481 103.07 98.0879V70.3062C103.07 69.846 103.443 69.473 103.902 69.473H113.715C114.174 69.473 114.546 69.846 114.546 70.3062V98.0879C114.546 98.5481 114.174 98.9211 113.715 98.9211ZM103.902 69.9768C103.723 69.9768 103.573 70.1221 103.573 70.3062V98.0879C103.573 98.2671 103.718 98.4173 103.902 98.4173H113.715C113.894 98.4173 114.043 98.272 114.043 98.0879V70.3062C114.043 70.127 113.898 69.9768 113.715 69.9768H103.902ZM54.0556 98.9211H44.2429C43.7835 98.9211 43.4111 98.5481 43.4111 98.0879V70.3062C43.4111 69.846 43.7835 69.473 44.2429 69.473H54.0556C54.515 69.473 54.8874 69.846 54.8874 70.3062V98.0879C54.8874 98.5481 54.515 98.9211 54.0556 98.9211ZM44.2429 69.9768C44.064 69.9768 43.9141 70.1221 43.9141 70.3062V98.0879C43.9141 98.2671 44.0592 98.4173 44.2429 98.4173H54.0556C54.2345 98.4173 54.3844 98.272 54.3844 98.0879V70.3062C54.3844 70.127 54.2393 69.9768 54.0556 69.9768H44.2429ZM113.381 97.7585H104.226V70.6356H113.381V97.7585ZM104.729 97.2547H112.873V71.1443H104.729V97.2547ZM53.7219 97.7585H44.567V70.6356H53.7219V97.7585ZM45.07 97.2547H53.2141V71.1443H45.07V97.2547Z" fill="#007CBA"/>
<path d="M113.715 99.3038H103.902C103.235 99.3038 102.688 98.7612 102.688 98.0879V70.3062C102.688 69.6377 103.23 69.0903 103.902 69.0903H113.715C114.382 69.0903 114.929 69.6329 114.929 70.3062V98.0879C114.929 98.7564 114.387 99.3038 113.715 99.3038ZM105.116 96.8768H112.506V71.5221H105.116V96.8768ZM54.0607 99.3038H44.2481C43.5807 99.3038 43.0342 98.7612 43.0342 98.0879V70.3062C43.0342 69.6377 43.5758 69.0903 44.2481 69.0903H54.0607C54.7281 69.0903 55.2746 69.6329 55.2746 70.3062V98.0879C55.2746 98.7564 54.7281 99.3038 54.0607 99.3038ZM45.4619 96.8768H52.8468V71.5221H45.4619V96.8768Z" fill="#007CBA"/>
<path d="M113.715 98.9211H103.902C103.443 98.9211 103.07 98.5481 103.07 98.0879V70.3062C103.07 69.846 103.443 69.473 103.902 69.473H113.715C114.174 69.473 114.546 69.846 114.546 70.3062V98.0879C114.546 98.5481 114.174 98.9211 113.715 98.9211ZM103.902 69.9768C103.723 69.9768 103.573 70.1221 103.573 70.3062V98.0879C103.573 98.2671 103.718 98.4173 103.902 98.4173H113.715C113.894 98.4173 114.044 98.272 114.044 98.0879V70.3062C114.044 70.127 113.898 69.9768 113.715 69.9768H103.902ZM54.0604 98.9211H44.2478C43.7884 98.9211 43.416 98.5481 43.416 98.0879V70.3062C43.416 69.846 43.7884 69.473 44.2478 69.473H54.0604C54.5199 69.473 54.8922 69.846 54.8922 70.3062V98.0879C54.8922 98.5481 54.5199 98.9211 54.0604 98.9211ZM44.2478 69.9768C44.0689 69.9768 43.919 70.1221 43.919 70.3062V98.0879C43.919 98.2671 44.064 98.4173 44.2478 98.4173H54.0604C54.2394 98.4173 54.3893 98.272 54.3893 98.0879V70.3062C54.3893 70.127 54.2442 69.9768 54.0604 69.9768H44.2478ZM113.386 97.7585H104.231V70.6356H113.386V97.7585ZM104.734 97.2547H112.878V71.1443H104.734V97.2547ZM53.7267 97.7585H44.5719V70.6356H53.7267V97.7585ZM45.0748 97.2547H53.219V71.1443H45.0748V97.2547Z" fill="#007CBA"/>
<path d="M113.715 99.2989H103.902C103.235 99.2989 102.688 98.7563 102.688 98.083V70.3013C102.688 69.6328 103.23 69.0854 103.902 69.0854H113.715C114.382 69.0854 114.929 69.628 114.929 70.3013V98.083C114.929 98.7515 114.387 99.2989 113.715 99.2989ZM105.116 96.8719H112.506V71.5172H105.116V96.8719ZM54.0607 99.2989H44.2481C43.5807 99.2989 43.0342 98.7563 43.0342 98.083V70.3013C43.0342 69.6328 43.5758 69.0854 44.2481 69.0854H54.0607C54.7281 69.0854 55.2746 69.628 55.2746 70.3013V98.083C55.2746 98.7515 54.7329 99.2989 54.0607 99.2989ZM45.4619 96.8719H52.8468V71.5172H45.4619V96.8719Z" fill="#007CBA"/>
<path d="M113.715 99.1729H103.902C103.302 99.1729 102.819 98.6837 102.819 98.0878V70.3062C102.819 69.7055 103.307 69.2211 103.902 69.2211H113.715C114.314 69.2211 114.798 69.7103 114.798 70.3062V98.0878C114.798 98.6885 114.309 99.1729 113.715 99.1729ZM103.322 98.0878C103.322 98.4075 103.583 98.6691 103.902 98.6691H113.715C114.034 98.6691 114.295 98.4075 114.295 98.0878C114.295 98.4075 114.034 98.6691 113.715 98.6691H103.902C103.583 98.6691 103.322 98.4075 103.322 98.0878ZM103.902 70.2335C103.858 70.2335 103.825 70.2674 103.825 70.311V98.0927C103.825 98.1363 103.858 98.1702 103.902 98.1702H113.715C113.758 98.1702 113.792 98.1363 113.792 98.0927V70.311C113.792 70.2674 113.758 70.2335 113.715 70.2335H103.902ZM54.0604 99.1778H44.2478C43.6481 99.1778 43.1597 98.6885 43.1597 98.0927V70.311C43.1597 69.7103 43.6481 69.2259 44.2478 69.2259H54.0604C54.6601 69.2259 55.1486 69.7152 55.1486 70.311V98.0927C55.1486 98.6934 54.6601 99.1778 54.0604 99.1778ZM43.6675 98.0927C43.6675 98.4124 43.9286 98.674 44.2478 98.674H54.0604C54.3796 98.674 54.6407 98.4124 54.6407 98.0927C54.6407 98.4124 54.3796 98.674 54.0604 98.674H44.2478C43.9286 98.674 43.6675 98.4124 43.6675 98.0927ZM44.2478 70.2384C44.2043 70.2384 44.1705 70.2723 44.1705 70.3159V98.0975C44.1705 98.1411 44.2043 98.175 44.2478 98.175H54.0604C54.1039 98.175 54.1378 98.1411 54.1378 98.0975V70.3159C54.1378 70.2723 54.1039 70.2384 54.0604 70.2384H44.2478ZM113.642 98.02H103.979V70.3885H113.642V98.02ZM104.487 97.5162H113.139H104.487ZM104.99 97.0124H112.631V71.4058H104.99V97.0124ZM53.983 98.0248H44.3204V70.3934H53.983V98.0248ZM44.8282 97.5211H53.4801H44.8282ZM45.3311 97.0172H52.9723V71.4107H45.3311V97.0172Z" fill="#007CBA"/>
<path d="M113.715 99.5556H103.902C103.095 99.5556 102.437 98.8968 102.437 98.0878V70.3061C102.437 69.4972 103.095 68.8383 103.902 68.8383H113.715C114.522 68.8383 115.18 69.4972 115.18 70.3061V98.0878C115.18 98.8968 114.522 99.5556 113.715 99.5556ZM103.196 98.0878H103.448V70.3061C103.448 70.0542 103.651 69.8508 103.902 69.8508H113.715C113.966 69.8508 114.169 70.0542 114.169 70.3061H114.421C114.421 69.9138 114.107 69.5989 113.715 69.5989H103.902C103.51 69.5989 103.196 69.9138 103.196 70.3061V98.0878ZM104.357 97.6324H104.483V97.1286H104.608V71.0182H112.752V70.8923H113.255V70.7663H104.352V97.6373L104.357 97.6324ZM105.368 96.62H112.249V71.7739H105.368V96.62ZM54.0606 99.5507H44.248C43.4404 99.5507 42.7827 98.8919 42.7827 98.0829V70.3013C42.7827 69.4923 43.4404 68.8335 44.248 68.8335H54.0606C54.8683 68.8335 55.526 69.4923 55.526 70.3013V98.0829C55.526 98.8919 54.8683 99.5507 54.0606 99.5507ZM43.542 98.0829H43.7935V70.3013C43.7935 70.0494 43.9965 69.8459 44.248 69.8459H54.0606C54.3121 69.8459 54.5152 70.0494 54.5152 70.3013H54.7667C54.7667 69.9089 54.4475 69.594 54.0606 69.594H44.248C43.8563 69.594 43.542 69.9089 43.542 70.3013V98.0829ZM44.7027 97.6276H44.8284V97.1238H44.9542V71.0134H53.0983V70.8875H53.6012V70.7615H44.6978V97.6324L44.7027 97.6276ZM45.7134 96.6151H52.5953V71.7691H45.7134V96.6151Z" fill="#007CBA"/>
</g>
<defs>
<filter id="filter0_d_679_4598" x="0" y="0" width="150" height="150.202" filterUnits="userSpaceOnUse" color-interpolation-filters="sRGB">
<feFlood flood-opacity="0" result="BackgroundImageFix"/>
<feColorMatrix in="SourceAlpha" type="matrix" values="0 0 0 0 0 0 0 0 0 0 0 0 0 0 0 0 0 0 127 0" result="hardAlpha"/>
<feOffset dy="2"/>
<feGaussianBlur stdDeviation="5"/>
<feComposite in2="hardAlpha" operator="out"/>
<feColorMatrix type="matrix" values="0 0 0 0 0 0 0 0 0 0 0 0 0 0 0 0 0 0 0.2 0"/>
<feBlend mode="normal" in2="BackgroundImageFix" result="effect1_dropShadow_679_4598"/>
<feBlend mode="normal" in="SourceGraphic" in2="effect1_dropShadow_679_4598" result="shape"/>
</filter>
</defs>
</svg>
