<svg width="86" height="86" viewBox="0 0 86 86" fill="none" xmlns="http://www.w3.org/2000/svg">
<path d="M86 43C86 66.7482 66.7482 86 43 86C19.2518 86 0 66.7482 0 43C0 19.2518 19.2518 0 43 0C66.7482 0 86 19.2518 86 43Z" fill="#FF6E01"/>
<g clip-path="url(#clip0_679_5562)">
<path d="M60.6636 64.2712H27.7706C27.5629 64.2712 27.3782 64.082 27.3782 63.8691V21.8106C27.3782 21.5977 27.5629 21.4084 27.7706 21.4084H49.6762C49.7916 21.4084 49.8839 21.4558 49.9532 21.5267L60.9406 32.9048C61.0098 32.9757 61.056 33.0703 61.056 33.1886V63.8691C61.056 64.082 60.8944 64.2712 60.6636 64.2712ZM28.163 63.467H60.2712V33.3542L49.5146 22.2127H28.163V63.467Z" fill="white"/>
<path d="M60.6636 64.4369H27.7707C27.4706 64.4369 27.2167 64.1767 27.2167 63.8692V21.8106C27.2398 21.5031 27.4706 21.2429 27.7707 21.2429H49.6762C49.8147 21.2429 49.9532 21.2902 50.0686 21.4085L61.056 32.7865C61.1483 32.8812 61.2176 33.0231 61.2176 33.1887V63.8692C61.2176 64.1767 60.9637 64.4369 60.6636 64.4369ZM27.7707 21.5504C27.6322 21.5504 27.5398 21.6687 27.5398 21.787V63.8455C27.5398 63.9874 27.6552 64.0821 27.7707 64.0821H60.6636C60.8021 64.0821 60.8944 63.9638 60.8944 63.8455V33.1887C60.8944 33.1177 60.8713 33.0704 60.8252 33.0231L49.8378 21.6214C49.7916 21.5741 49.7224 21.5504 49.6762 21.5504H27.7707ZM60.4328 63.6326H28.0246V22.0472H49.5839L49.63 22.0945L60.4328 33.2833V63.6326ZM28.3246 63.3014H60.1327V33.4016L49.4454 22.3547H28.3246V63.3014Z" fill="white"/>
<path d="M60.6866 33.5909H49.6762C49.4684 33.5909 49.2838 33.4017 49.2838 33.1888V21.8107C49.2838 21.6452 49.3761 21.5032 49.5377 21.4323C49.6762 21.3613 49.8608 21.4086 49.9762 21.5269L60.9175 32.8576C61.0329 32.9286 61.1021 33.0469 61.1021 33.1888C61.079 33.4017 60.8944 33.5909 60.6866 33.5909ZM50.0686 32.7867H59.7402L50.0686 22.7806V32.7867Z" fill="white"/>
<path d="M60.6867 33.7329H49.6762C49.3761 33.7329 49.1222 33.4727 49.1222 33.1652V21.8108C49.1222 21.5743 49.2607 21.385 49.4684 21.2904C49.6762 21.1958 49.907 21.2431 50.0686 21.4087L61.0098 32.7394C61.1483 32.8104 61.2406 32.9996 61.2406 33.1889C61.2176 33.4964 60.9867 33.7329 60.6867 33.7329ZM49.6762 21.5506C49.6531 21.5506 49.6069 21.5506 49.5838 21.5743C49.4915 21.6216 49.4454 21.6925 49.4454 21.8108V33.1889C49.4454 33.3308 49.5608 33.4254 49.6762 33.4254H60.6867C60.8252 33.4254 60.9175 33.3071 60.9175 33.1889C60.9175 33.0942 60.8713 33.0233 60.8021 32.976L49.8378 21.6216C49.7916 21.5743 49.7454 21.5506 49.6762 21.5506ZM60.0865 32.9287H49.907V22.4022L60.0865 32.9287ZM50.2071 32.6211H59.3479L50.2071 23.1592V32.6211Z" fill="white"/>
<path d="M54.9852 54.9276H33.4721C33.2643 54.9276 33.0797 54.7383 33.0797 54.5254C33.0797 54.3125 33.2643 54.1233 33.4721 54.1233H54.9852C55.1929 54.1233 55.3776 54.3125 55.3776 54.5254C55.3776 54.7383 55.1929 54.9276 54.9852 54.9276Z" fill="white"/>
<path d="M54.9852 55.0695H33.4721C33.172 55.0695 32.9181 54.8093 32.9181 54.5018C32.9181 54.1943 33.172 53.9341 33.4721 53.9341H54.9852C55.2853 53.9341 55.5392 54.1943 55.5392 54.5018C55.5161 54.833 55.2853 55.0695 54.9852 55.0695ZM33.4721 54.2653C33.3336 54.2653 33.2412 54.3835 33.2412 54.5018C33.2412 54.6437 33.3567 54.7384 33.4721 54.7384H54.9852C55.1237 54.7384 55.216 54.6201 55.216 54.5018C55.216 54.3599 55.1006 54.2653 54.9852 54.2653H33.4721Z" fill="white"/>
<path d="M54.9852 57.4351H33.4721C33.2643 57.4351 33.0797 57.2459 33.0797 57.033C33.0797 56.8201 33.2643 56.6309 33.4721 56.6309H54.9852C55.1929 56.6309 55.3776 56.8201 55.3776 57.033C55.3776 57.2695 55.1929 57.4351 54.9852 57.4351Z" fill="white"/>
<path d="M54.9852 57.6008H33.4721C33.172 57.6008 32.9181 57.3406 32.9181 57.0331C32.9181 56.7255 33.172 56.4653 33.4721 56.4653H54.9852C55.2853 56.4653 55.5392 56.7255 55.5392 57.0331C55.5161 57.3406 55.2853 57.6008 54.9852 57.6008ZM33.4721 56.7965C33.3336 56.7965 33.2412 56.9148 33.2412 57.0331C33.2412 57.1513 33.3567 57.2696 33.4721 57.2696H54.9852C55.1237 57.2696 55.216 57.1513 55.216 57.0331C55.216 56.9148 55.1006 56.7965 54.9852 56.7965H33.4721Z" fill="white"/>
<path d="M54.9852 59.9661H33.4721C33.2643 59.9661 33.0797 59.7769 33.0797 59.564C33.0797 59.3511 33.2643 59.1619 33.4721 59.1619H54.9852C55.1929 59.1619 55.3776 59.3511 55.3776 59.564C55.3776 59.7769 55.1929 59.9661 54.9852 59.9661Z" fill="white"/>
<path d="M54.9852 60.1081H33.4721C33.172 60.1081 32.9181 59.8479 32.9181 59.5404C32.9181 59.2329 33.172 58.9727 33.4721 58.9727H54.9852C55.2853 58.9727 55.5392 59.2329 55.5392 59.5404C55.5161 59.8715 55.2853 60.1081 54.9852 60.1081ZM33.4721 59.3038C33.3336 59.3038 33.2412 59.4221 33.2412 59.5404C33.2412 59.6586 33.3567 59.7769 33.4721 59.7769H54.9852C55.1237 59.7769 55.216 59.6586 55.216 59.5404C55.216 59.4221 55.1006 59.3038 54.9852 59.3038H33.4721Z" fill="white"/>
<path d="M67.75 56.3941H60.6636C60.4558 56.3941 60.2711 56.2049 60.2711 55.992V36.7369C60.2711 36.524 60.4558 36.3347 60.6636 36.3347H67.75C67.9577 36.3347 68.1424 36.524 68.1424 36.7369V55.992C68.1424 56.2285 67.9577 56.3941 67.75 56.3941ZM61.056 55.5899H67.3576V37.139H61.056V55.5899ZM27.7706 56.3941H20.7073C20.4995 56.3941 20.3149 56.2049 20.3149 55.992V36.7369C20.3149 36.524 20.4995 36.3347 20.7073 36.3347H27.7706C27.9784 36.3347 28.163 36.524 28.163 36.7369V55.992C28.163 56.2285 28.0014 56.3941 27.7706 56.3941ZM21.0997 55.5899H27.4013V37.139H21.0997V55.5899Z" fill="white"/>
<path d="M67.75 56.5598H60.6636C60.3635 56.5598 60.1096 56.2996 60.1096 55.992V36.7369C60.1096 36.4294 60.3635 36.1692 60.6636 36.1692H67.75C68.0501 36.1692 68.304 36.4294 68.304 36.7369V55.992C68.304 56.2996 68.0501 56.5598 67.75 56.5598ZM60.6636 36.5004C60.5251 36.5004 60.4327 36.6186 60.4327 36.7369V55.992C60.4327 56.134 60.5482 56.2286 60.6636 56.2286H67.75C67.8885 56.2286 67.9808 56.1103 67.9808 55.992V36.7369C67.9808 36.595 67.8654 36.5004 67.75 36.5004H60.6636ZM27.7706 56.5598H20.7073C20.4072 56.5598 20.1533 56.2996 20.1533 55.992V36.7369C20.1533 36.4294 20.4072 36.1692 20.7073 36.1692H27.7706C28.0707 36.1692 28.3246 36.4294 28.3246 36.7369V55.992C28.3246 56.2996 28.0707 56.5598 27.7706 56.5598ZM20.7073 36.5004C20.5688 36.5004 20.4765 36.6186 20.4765 36.7369V55.992C20.4765 56.134 20.5919 56.2286 20.7073 56.2286H27.7706C27.9091 56.2286 28.0015 56.1103 28.0015 55.992V36.7369C28.0015 36.595 27.886 36.5004 27.7706 36.5004H20.7073ZM67.5192 55.7555H60.9175V36.9971H67.5192V55.7555ZM61.2176 55.448H67.196V37.3046H61.2176V55.448ZM27.5398 55.7555H20.9381V36.9971H27.5398V55.7555ZM21.2382 55.448H27.2166V37.3046H21.2382V55.448Z" fill="white"/>
<path d="M44.2286 51.8526C39.6813 51.8526 35.9881 48.0205 35.9881 43.3368C35.9881 38.6295 39.6813 34.821 44.2286 34.821C48.776 34.821 52.4692 38.6531 52.4692 43.3368C52.4692 48.0205 48.776 51.8526 44.2286 51.8526ZM44.2286 35.6253C40.1199 35.6253 36.7729 39.0789 36.7729 43.3368C36.7729 47.5947 40.1199 51.0484 44.2286 51.0484C48.3374 51.0484 51.6844 47.5947 51.6844 43.3368C51.6844 39.0789 48.3374 35.6253 44.2286 35.6253Z" fill="white"/>
<path d="M44.2287 51.9946C39.6121 51.9946 35.8496 48.0915 35.8496 43.3132C35.8496 38.5349 39.6121 34.6318 44.2287 34.6318C48.8452 34.6318 52.6077 38.5113 52.6077 43.3132C52.6077 48.1152 48.8452 51.9946 44.2287 51.9946ZM44.2287 34.963C39.7737 34.963 36.1497 38.7241 36.1497 43.3369C36.1497 47.9496 39.7737 51.7107 44.2287 51.7107C48.6836 51.7107 52.3076 47.9496 52.3076 43.3369C52.3076 38.7241 48.6836 34.963 44.2287 34.963ZM44.2287 51.1903C40.0276 51.1903 36.6344 47.6657 36.6344 43.3132C36.6344 38.9844 40.0507 35.4361 44.2287 35.4361C48.4297 35.4361 51.8229 38.9607 51.8229 43.3132C51.8229 47.6657 48.4066 51.1903 44.2287 51.1903ZM44.2287 35.7673C40.2123 35.7673 36.9345 39.1499 36.9345 43.3369C36.9345 47.5001 40.2123 50.9065 44.2287 50.9065C48.2451 50.9065 51.5228 47.5238 51.5228 43.3369C51.5228 39.1499 48.2451 35.7673 44.2287 35.7673Z" fill="white"/>
<path d="M44.2286 51.8526C42.7052 51.8526 41.3664 50.4806 40.5585 48.0678C40.5354 47.9732 40.5354 47.8549 40.5816 47.7603C40.6277 47.6657 40.7201 47.5947 40.8124 47.5474C40.974 47.5001 41.1125 47.3582 41.1355 47.2162C41.1355 47.0979 41.0894 46.9324 40.997 46.8377C40.9278 46.7431 40.8124 46.6958 40.697 46.6958H40.5123C40.3276 46.6958 40.1661 46.5539 40.1199 46.3883C39.9352 45.4894 39.8198 44.4249 39.8198 43.3368C39.8198 42.0831 39.9352 40.9713 40.1661 40.0724C40.2122 39.9068 40.3738 39.7649 40.5354 39.7649H40.7201C40.9047 39.7649 41.0663 39.623 41.1355 39.4101V39.3155C41.1355 39.1499 40.997 38.9606 40.8355 38.9133C40.7201 38.8897 40.6508 38.8187 40.6046 38.7004C40.5585 38.6058 40.5585 38.4875 40.5816 38.3693C41.3664 36.122 42.7283 34.7974 44.2056 34.7974C45.7521 34.7974 47.1371 36.264 47.9219 38.7477L48.0604 39.1972V39.2208C48.4297 40.4982 48.6144 41.8939 48.6144 43.3368C48.6144 44.3776 48.522 45.4184 48.3143 46.3883C48.2681 46.5775 48.1065 46.7195 47.9219 46.7195H47.7372C47.5295 46.7195 47.3217 46.8614 47.3217 47.1689C47.3217 47.3345 47.4602 47.5237 47.6218 47.571C47.7141 47.5947 47.8065 47.6657 47.8526 47.7839C47.8988 47.8786 47.9219 47.9968 47.8757 48.0915C47.0909 50.4806 45.7521 51.8526 44.2286 51.8526ZM41.4125 48.1151C42.105 49.9602 43.1437 51.0483 44.2286 51.0483C45.3135 51.0483 46.3522 49.9602 47.0447 48.1388C46.7447 47.9022 46.56 47.5474 46.56 47.1453C46.56 46.5066 47.0216 45.9862 47.6218 45.9152C47.7603 45.0873 47.8526 44.212 47.8526 43.3368C47.8526 42.0831 47.7141 40.9003 47.4371 39.7886C46.3522 39.9778 45.2904 40.0724 44.2056 40.0724C44.2056 40.0724 44.2056 40.0724 44.1825 40.0724C43.3977 40.0724 42.5898 40.0251 41.7819 39.9305C41.5741 40.2853 41.2279 40.5455 40.8355 40.5692C40.6739 41.3498 40.5816 42.2723 40.5816 43.3368C40.5816 44.2593 40.6508 45.1346 40.7893 45.9152C41.0663 45.9389 41.3433 46.0808 41.5279 46.3173C41.7819 46.6012 41.8973 46.956 41.8511 47.3345C41.828 47.642 41.6664 47.9259 41.4125 48.1151ZM41.9204 39.1026C42.6821 39.1972 43.4438 39.2445 44.1825 39.2445C45.175 39.2445 46.1907 39.1499 47.1832 38.9843C46.5138 36.9027 45.3597 35.6016 44.2056 35.6016C43.1437 35.6016 42.1281 36.6188 41.4356 38.322C41.6895 38.5348 41.8742 38.8187 41.9204 39.1026Z" fill="white"/>
<path d="M44.2286 51.9945C42.6359 51.9945 41.251 50.5752 40.42 48.1151C40.3738 47.9732 40.3738 47.8076 40.4431 47.6893C40.5123 47.5474 40.6277 47.4528 40.7662 47.4055C40.8816 47.3582 40.974 47.2635 40.974 47.1926C40.974 47.1453 40.9509 47.027 40.8816 46.9324C40.8355 46.8851 40.7662 46.8377 40.697 46.8377H40.5123C40.2584 46.8377 40.0276 46.6485 39.9814 46.3883C39.7737 45.4658 39.6813 44.4013 39.6813 43.2895C39.6813 42.0121 39.7967 40.9003 40.0276 39.9778C40.0968 39.7413 40.3046 39.552 40.5585 39.552H40.7431C40.8586 39.552 40.974 39.4574 41.0201 39.3391V39.2682C41.0201 39.1735 40.9278 39.0316 40.8355 39.008C40.697 38.9606 40.5585 38.866 40.5123 38.7241C40.4431 38.5822 40.4431 38.4166 40.4892 38.2746C41.2971 35.9801 42.7052 34.5845 44.2517 34.5845C45.8444 34.5845 47.2986 36.0984 48.1065 38.6295L48.2681 39.1026C48.6374 40.3799 48.8221 41.7756 48.8221 43.2658C48.8221 44.3303 48.7298 45.3711 48.522 46.341C48.4759 46.6012 48.245 46.7904 47.9911 46.7904H47.8065C47.6911 46.7904 47.5295 46.8614 47.5295 47.0743C47.5295 47.1926 47.6218 47.3108 47.7141 47.3345C47.8526 47.3818 47.968 47.4764 48.0373 47.6184C48.1065 47.7603 48.1065 47.9259 48.0604 48.0678C47.2063 50.5989 45.8214 51.9945 44.2286 51.9945ZM40.5354 39.9068C40.42 39.9068 40.3277 39.9778 40.3046 40.0961C40.0737 40.995 39.9583 42.0831 39.9583 43.3132C39.9583 44.4013 40.0507 45.4421 40.2584 46.341C40.2815 46.4593 40.3738 46.5302 40.4892 46.5302H40.6739C40.8355 46.5302 40.974 46.6012 41.0894 46.7195C41.2048 46.8614 41.274 47.0506 41.251 47.2162C41.2048 47.4291 41.0432 47.6184 40.8355 47.6893C40.7662 47.713 40.7201 47.7603 40.697 47.8076C40.6739 47.8786 40.6739 47.9259 40.6739 47.9968C41.4587 50.3387 42.7513 51.687 44.2056 51.687C45.6598 51.687 46.9524 50.3387 47.7372 47.9968C47.7603 47.9259 47.7603 47.8549 47.7141 47.8076C47.6911 47.7366 47.6218 47.713 47.5756 47.6893C47.3448 47.6184 47.1832 47.3818 47.1832 47.1453C47.1832 46.7668 47.4833 46.5539 47.7603 46.5539H47.945C48.0604 46.5539 48.1527 46.4593 48.1758 46.3646C48.3605 45.3948 48.4759 44.3776 48.4759 43.3368C48.4759 41.8939 48.2912 40.5219 47.945 39.2682L47.8065 38.8187C47.0447 36.4296 45.7059 34.9866 44.2286 34.9866C42.8206 34.9866 41.528 36.2876 40.7431 38.4639C40.7201 38.5349 40.7201 38.6058 40.7662 38.6531C40.7893 38.7241 40.8586 38.7714 40.9047 38.7714C41.1356 38.8424 41.2971 39.0789 41.2971 39.3155V39.4574C41.2048 39.7176 40.974 39.9068 40.7431 39.9068H40.5354ZM44.2286 51.1903C43.0745 51.1903 41.9896 50.0785 41.274 48.1624L41.2279 48.0441L41.3202 47.9732C41.551 47.8076 41.6895 47.5474 41.7357 47.2635C41.7588 46.9324 41.6665 46.6012 41.4356 46.3646C41.251 46.1754 41.0432 46.0571 40.7893 46.0335L40.6739 46.0098L40.6508 45.8915C40.5123 45.1109 40.4431 44.212 40.4431 43.2895C40.4431 42.225 40.5354 41.2788 40.697 40.4982L40.7201 40.3799H40.8355C41.1817 40.3563 41.4818 40.1197 41.6665 39.8122L41.7126 39.7176L41.805 39.7413C43.6747 39.9778 45.5444 39.9305 47.391 39.623L47.5295 39.5993L47.5756 39.7413C47.8526 40.853 47.9911 42.0594 47.9911 43.3368C47.9911 44.2357 47.9219 45.1109 47.7603 45.9389L47.7372 46.0571L47.6218 46.0808C47.0678 46.1517 46.6754 46.6012 46.6754 47.1689C46.6754 47.5001 46.837 47.8313 47.0909 48.0205L47.1832 48.0915L47.1371 48.2097C46.4677 50.1021 45.3828 51.1903 44.2286 51.1903ZM41.5972 48.1624C42.2666 49.8656 43.2361 50.8827 44.2286 50.8827C45.2212 50.8827 46.1907 49.8656 46.8601 48.1624C46.5831 47.9022 46.3984 47.5237 46.3984 47.1216C46.3984 46.4356 46.8601 45.8679 47.4833 45.7496C47.6218 44.969 47.6911 44.1411 47.6911 43.3132C47.6911 42.1304 47.5526 40.995 47.2986 39.9305C45.4751 40.238 43.6516 40.2617 41.8511 40.0488C41.6434 40.3799 41.3202 40.5928 40.9509 40.6638C40.7893 41.4208 40.7201 42.296 40.7201 43.2895C40.7201 44.1411 40.7893 44.9927 40.9047 45.726C41.1817 45.7733 41.4356 45.9389 41.6203 46.1518C41.8973 46.4593 42.0358 46.8614 41.9896 47.2872C41.9896 47.6657 41.828 47.9495 41.5972 48.1624ZM44.1825 39.4101C43.4207 39.4101 42.659 39.3628 41.8973 39.2682L41.7819 39.2445L41.7588 39.1262C41.7126 38.866 41.5741 38.6058 41.3664 38.4402L41.274 38.3693L41.3202 38.251C42.0358 36.4532 43.0976 35.4361 44.2286 35.4361C45.452 35.4361 46.6523 36.7844 47.3448 38.937L47.391 39.1026L47.2063 39.1262C46.2138 39.3155 45.1981 39.4101 44.1825 39.4101ZM42.0358 38.9843C43.6977 39.1735 45.3366 39.1499 46.9986 38.8897C46.3523 36.9736 45.2904 35.7909 44.2286 35.7909C43.2592 35.7909 42.2897 36.7371 41.6434 38.322C41.828 38.4875 41.9896 38.7241 42.0358 38.9843Z" fill="white"/>
<path d="M52.0768 43.7388H36.3805C36.1728 43.7388 35.9881 43.5496 35.9881 43.3367C35.9881 43.1238 36.1728 42.9346 36.3805 42.9346H52.0537C52.2614 42.9346 52.4461 43.1238 52.4461 43.3367C52.4461 43.5496 52.2845 43.7388 52.0768 43.7388Z" fill="white"/>
<path d="M52.0768 43.8808H36.3805C36.0804 43.8808 35.8265 43.6206 35.8265 43.3131C35.8265 43.0056 36.0804 42.7454 36.3805 42.7454H52.0537C52.3538 42.7454 52.6077 43.0056 52.6077 43.3131C52.6077 43.6443 52.3769 43.8808 52.0768 43.8808ZM36.3805 43.0765C36.242 43.0765 36.1497 43.1948 36.1497 43.3131C36.1497 43.455 36.2651 43.5496 36.3805 43.5496H52.0537C52.1922 43.5496 52.2845 43.4314 52.2845 43.3131C52.2845 43.1712 52.1691 43.0765 52.0537 43.0765H36.3805Z" fill="white"/>
<path d="M44.2287 51.8524C44.0209 51.8524 43.8362 51.6631 43.8362 51.4502V35.2229C43.8362 35.01 44.0209 34.8208 44.2287 34.8208C44.4364 34.8208 44.6211 35.01 44.6211 35.2229V51.4502C44.6211 51.6631 44.4364 51.8524 44.2287 51.8524Z" fill="white"/>
<path d="M44.2287 51.9944C43.9286 51.9944 43.6747 51.7342 43.6747 51.4266V35.223C43.6747 34.9155 43.9286 34.6553 44.2287 34.6553C44.5287 34.6553 44.7827 34.9155 44.7827 35.223V51.4503C44.7596 51.7578 44.5287 51.9944 44.2287 51.9944ZM44.2287 34.9628C44.0902 34.9628 43.9978 35.0811 43.9978 35.1993V51.4266C43.9978 51.5686 44.1133 51.6632 44.2287 51.6632C44.3441 51.6632 44.4595 51.5449 44.4595 51.4266V35.223C44.4595 35.0811 44.3672 34.9628 44.2287 34.9628Z" fill="white"/>
<path d="M40.7432 40.5689C40.0969 40.5689 39.6121 40.1195 39.5429 39.4808C39.312 39.4099 39.0581 39.3389 38.8273 39.2679C38.4811 39.1733 38.1117 39.055 37.7655 38.9604C37.5577 38.8894 37.4423 38.6766 37.4885 38.4637C37.5577 38.2508 37.7655 38.1325 37.9732 38.1798C38.3195 38.2744 38.6657 38.369 39.012 38.4873C39.2428 38.5583 39.4736 38.6056 39.6814 38.6766C39.9122 38.2981 40.3046 38.0615 40.7201 38.0615C41.2972 38.0615 41.805 38.5346 41.8973 39.1023C44.7365 39.4808 47.5987 39.1733 50.4379 38.1798C50.6457 38.1088 50.8765 38.2271 50.9458 38.44C51.015 38.6529 50.8996 38.8894 50.6918 38.9604C47.7372 39.9776 44.7365 40.3087 41.7819 39.9066C41.5741 40.3087 41.1817 40.5689 40.7432 40.5689ZM40.3046 39.2206V39.3152C40.3046 39.5991 40.4662 39.7647 40.7201 39.7647C40.9047 39.7647 41.0663 39.6228 41.1356 39.4099V39.3152C41.1356 39.1023 40.9278 38.8894 40.7201 38.8894C40.5585 38.8894 40.3738 39.0314 40.3046 39.2206Z" fill="white"/>
<path d="M40.7432 40.711C40.0507 40.711 39.5198 40.2615 39.4044 39.5992L38.735 39.41C38.3887 39.3153 38.0425 39.2207 37.7193 39.1261C37.5808 39.0788 37.4654 38.9842 37.3962 38.8659C37.3269 38.724 37.3038 38.582 37.35 38.4401C37.3962 38.2982 37.4885 38.1799 37.6039 38.1089C37.7193 38.038 37.8809 38.0143 38.0194 38.0616C38.3656 38.1563 38.7119 38.2509 39.0581 38.3691L39.6352 38.5347C39.8891 38.1799 40.3046 37.9434 40.7432 37.9434C41.3433 37.9434 41.8973 38.3928 42.0589 38.9842C44.8288 39.339 47.6449 39.0078 50.4149 38.0616C50.5534 38.0143 50.6918 38.0143 50.8303 38.0853C50.9688 38.1563 51.0612 38.2745 51.1073 38.4165C51.1535 38.5584 51.1535 38.7003 51.0843 38.8422C51.015 38.9842 50.8996 39.0788 50.7611 39.1261C47.8065 40.1433 44.8288 40.4744 41.8742 40.096C41.6203 40.4744 41.1817 40.711 40.7432 40.711ZM37.8578 38.3218C37.8117 38.3218 37.7886 38.3218 37.7424 38.3455C37.6962 38.3691 37.6501 38.4401 37.627 38.4874C37.6039 38.5584 37.627 38.6294 37.6501 38.6767C37.6732 38.724 37.7424 38.7713 37.7886 38.7949C38.1117 38.8896 38.458 38.9842 38.8042 39.0788L39.6814 39.339V39.4336C39.7506 40.0013 40.1661 40.3798 40.7201 40.3798C41.0894 40.3798 41.4587 40.1669 41.6434 39.8121L41.6896 39.7175L41.7819 39.7411C44.7134 40.1196 47.6911 39.8121 50.6226 38.7949C50.6918 38.7713 50.738 38.724 50.7611 38.6767C50.7842 38.6057 50.7842 38.5584 50.7842 38.4874C50.7611 38.4165 50.7149 38.3691 50.6688 38.3455C50.6226 38.3218 50.5533 38.3218 50.4841 38.3218C47.6218 39.3153 44.7365 39.6229 41.8742 39.2444L41.7588 39.2207L41.7357 39.1025C41.6434 38.582 41.1817 38.1799 40.697 38.1799C40.3508 38.1799 40.0045 38.3928 39.7968 38.724L39.7737 38.8659L38.9889 38.6294C38.6426 38.5347 38.2733 38.4401 37.9502 38.3218C37.904 38.3455 37.8809 38.3218 37.8578 38.3218ZM40.7432 39.9067C40.3969 39.9067 40.1661 39.6702 40.1661 39.3153V39.1734C40.2584 38.9132 40.4893 38.724 40.7201 38.724C41.0202 38.724 41.2972 39.0078 41.2972 39.3153V39.4573C41.2048 39.7175 40.974 39.9067 40.7432 39.9067ZM40.4662 39.2444V39.3153C40.4662 39.5046 40.5585 39.5992 40.7432 39.5992C40.8586 39.5992 40.974 39.5046 41.0202 39.3863V39.3153C41.0202 39.1734 40.8817 39.0315 40.7432 39.0315C40.6278 39.0315 40.5123 39.1261 40.4662 39.2444Z" fill="white"/>
<path d="M37.8578 48.2806C37.6962 48.2806 37.5346 48.1623 37.4885 47.9967C37.4192 47.7838 37.5577 47.5709 37.7655 47.5L39.7737 46.9086C39.9814 46.8613 40.1892 46.9796 40.2584 47.1925C40.3277 47.4053 40.1892 47.6182 39.9814 47.6892L37.9732 48.2806C37.927 48.2806 37.904 48.2806 37.8578 48.2806ZM50.5764 48.2806C50.5302 48.2806 50.5072 48.2806 50.461 48.2569L48.4528 47.6656C48.245 47.5946 48.1296 47.3817 48.1758 47.1688C48.245 46.9559 48.4528 46.8376 48.6605 46.8849L50.6687 47.4763C50.8765 47.5473 50.9919 47.7602 50.9457 47.9731C50.9226 48.1623 50.7611 48.2806 50.5764 48.2806ZM46.9524 47.4053C46.9293 47.4053 46.9062 47.4053 46.8832 47.4053C45.2674 47.1451 43.5131 47.1451 41.551 47.4053C41.3433 47.429 41.1356 47.2871 41.1125 47.0505C41.0894 46.8376 41.2279 46.6247 41.4587 46.6011C43.49 46.3172 45.3135 46.3172 47.0217 46.6011C47.2294 46.6247 47.391 46.8376 47.3448 47.0505C47.2986 47.2634 47.1371 47.4053 46.9524 47.4053Z" fill="white"/>
<path d="M50.5764 48.4462C50.5302 48.4462 50.4841 48.4462 50.4148 48.4226L48.4066 47.8312C48.2681 47.7839 48.1527 47.6893 48.0834 47.571C48.0142 47.4291 47.9911 47.2871 48.0373 47.1452C48.0834 47.0033 48.1758 46.885 48.2912 46.814C48.4066 46.7431 48.5682 46.7194 48.7067 46.7667L50.7149 47.3581C50.8534 47.4054 50.9688 47.5 51.038 47.6183C51.1073 47.7602 51.1304 47.9022 51.0842 48.0441C51.038 48.2806 50.8303 48.4462 50.5764 48.4462ZM48.5682 47.0506C48.522 47.0506 48.4989 47.0506 48.4528 47.0742C48.4066 47.0979 48.3604 47.1689 48.3374 47.2162C48.3143 47.2871 48.3374 47.3344 48.3604 47.4054C48.3835 47.4527 48.4528 47.5 48.4989 47.5237L50.5071 48.1151C50.6456 48.1624 50.761 48.0677 50.8072 47.9495C50.8303 47.8785 50.8072 47.8075 50.7841 47.7602C50.761 47.7129 50.6918 47.6656 50.6456 47.642L48.6374 47.0506C48.6143 47.0506 48.5913 47.0506 48.5682 47.0506ZM37.8578 48.4462C37.6269 48.4462 37.3961 48.2806 37.3269 48.0441C37.2345 47.7602 37.4192 47.4291 37.6962 47.3581L39.7044 46.7667C40.0045 46.6958 40.3046 46.8613 40.3738 47.1452C40.4661 47.4527 40.2815 47.7602 40.0045 47.8312L37.9963 48.4226C37.9732 48.4226 37.9039 48.4462 37.8578 48.4462ZM39.866 47.0506C39.8429 47.0506 39.8198 47.0506 39.7967 47.0506L37.7885 47.642C37.65 47.6893 37.5808 47.8075 37.6269 47.9495C37.6731 48.0677 37.7885 48.1624 37.927 48.1151L39.9352 47.5237C40.0737 47.4764 40.143 47.3581 40.0968 47.2162C40.0737 47.1215 39.9814 47.0506 39.866 47.0506ZM41.5049 47.5473C41.3894 47.5473 41.274 47.5 41.1817 47.4291C41.0663 47.3344 40.997 47.2162 40.974 47.0506C40.9509 46.9086 40.997 46.7667 41.0894 46.6484C41.1817 46.5302 41.2971 46.4592 41.4587 46.4356C43.5131 46.1517 45.3597 46.1517 47.0678 46.4356C47.3679 46.4829 47.5756 46.7667 47.5295 47.0742C47.4833 47.3817 47.2063 47.5946 46.9062 47.5473C45.2904 47.2871 43.5592 47.2871 41.6203 47.5473C41.551 47.5473 41.5279 47.5473 41.5049 47.5473ZM44.344 46.5302C43.4207 46.5302 42.4743 46.6011 41.4587 46.7431C41.3894 46.7431 41.3433 46.7904 41.2971 46.8377C41.2509 46.885 41.2509 46.956 41.2509 47.0269C41.2509 47.0979 41.2971 47.1452 41.3433 47.1925C41.3894 47.2398 41.4587 47.2398 41.5279 47.2398C43.5131 46.9796 45.2673 46.9796 46.9062 47.2398C47.0447 47.2635 47.1601 47.1689 47.1832 47.0269C47.2063 46.885 47.114 46.7667 46.9755 46.7431C46.1445 46.6011 45.2673 46.5302 44.344 46.5302Z" fill="white"/>
<path d="M47.7603 48.3751C47.114 48.3751 46.56 47.8074 46.56 47.1214C46.56 46.4354 47.0909 45.8677 47.7603 45.8677C48.1296 45.8677 48.4759 46.0333 48.7067 46.3171C48.9375 46.601 49.0299 46.9558 48.9606 47.3343C48.8914 47.9493 48.3835 48.3751 47.7603 48.3751ZM47.7603 46.6956C47.5526 46.6956 47.3448 46.8375 47.3448 47.145C47.3448 47.3816 47.5526 47.5945 47.7603 47.5945C47.9911 47.5945 48.1527 47.4526 48.1758 47.2633C48.1989 47.0977 48.1758 46.9795 48.0835 46.8848C48.0142 46.7666 47.8988 46.6956 47.7603 46.6956Z" fill="white"/>
<path d="M47.7603 48.5408C47.0217 48.5408 46.3984 47.9021 46.3984 47.1452C46.3984 46.3645 46.9986 45.7495 47.7603 45.7495C48.1758 45.7495 48.5682 45.9388 48.8221 46.2463C49.076 46.5538 49.1915 46.9796 49.1222 47.4054C49.0299 48.044 48.4528 48.5408 47.7603 48.5408ZM47.7603 46.057C47.1602 46.057 46.6985 46.5301 46.6985 47.1452C46.6985 47.7365 47.1833 48.2333 47.7603 48.2333C48.3143 48.2333 48.7529 47.8548 48.799 47.3344C48.8683 47.0032 48.776 46.6721 48.5682 46.4355C48.3836 46.199 48.0835 46.057 47.7603 46.057ZM47.7603 47.7365C47.4602 47.7365 47.1833 47.4527 47.1833 47.1452C47.1833 46.7667 47.4833 46.5538 47.7603 46.5538C47.945 46.5538 48.1066 46.6247 48.222 46.7667C48.3374 46.9086 48.3605 47.0742 48.3374 47.2871C48.2912 47.5473 48.0604 47.7365 47.7603 47.7365ZM47.7603 46.8613C47.6449 46.8613 47.4833 46.9323 47.4833 47.1452C47.4833 47.2871 47.6218 47.429 47.7603 47.429C47.8988 47.429 48.0142 47.3344 48.0373 47.2161C48.0604 47.0978 48.0373 47.0269 47.9911 46.9559C47.945 46.8849 47.8527 46.8613 47.7603 46.8613Z" fill="white"/>
<path d="M40.6739 48.3751C40.0045 48.3751 39.4736 47.831 39.4736 47.1214C39.4736 46.4354 40.0045 45.8677 40.6739 45.8677C40.997 45.8677 41.3202 46.0096 41.551 46.2698C41.8049 46.5537 41.9203 46.9085 41.8742 47.287C41.8742 47.3106 41.8742 47.3343 41.8742 47.3579C41.7357 47.973 41.2509 48.3751 40.6739 48.3751ZM40.6739 46.6956C40.3969 46.6956 40.2584 46.9321 40.2584 47.145C40.2584 47.3579 40.3969 47.5945 40.6739 47.5945C40.8585 47.5945 41.0432 47.4526 41.0894 47.2397C41.0894 47.0977 41.0432 46.9558 40.9509 46.8612C40.9047 46.7429 40.7893 46.6956 40.6739 46.6956Z" fill="white"/>
<path d="M40.6739 48.5408C39.9122 48.5408 39.312 47.9258 39.312 47.1452C39.312 46.3645 39.9122 45.7495 40.6739 45.7495C41.0432 45.7495 41.3895 45.9151 41.6665 46.199C41.9434 46.5065 42.0819 46.9086 42.0358 47.3344C42.0358 47.3581 42.0358 47.4054 42.0127 47.429C41.8742 48.0914 41.3202 48.5408 40.6739 48.5408ZM40.6739 46.057C40.0737 46.057 39.6121 46.5301 39.6121 47.1452C39.6121 47.7602 40.0737 48.2333 40.6739 48.2333C41.1586 48.2333 41.5972 47.8785 41.7357 47.358V47.3107C41.7588 46.9796 41.6665 46.6484 41.4356 46.4119C41.251 46.1753 40.974 46.057 40.6739 46.057ZM40.6739 47.7365C40.3046 47.7365 40.0968 47.429 40.0968 47.1452C40.0968 46.8613 40.3046 46.5538 40.6739 46.5538C40.8355 46.5538 40.974 46.6247 41.0894 46.743C41.2048 46.885 41.274 47.0505 41.251 47.2398V47.2871C41.1817 47.5473 40.9278 47.7365 40.6739 47.7365ZM40.6739 46.8613C40.4892 46.8613 40.3969 47.0269 40.3969 47.1452C40.3969 47.2634 40.4662 47.429 40.6739 47.429C40.7893 47.429 40.9047 47.3344 40.9509 47.1925C40.9509 47.0978 40.9278 47.0032 40.8586 46.9323C40.8124 46.885 40.7431 46.8613 40.6739 46.8613Z" fill="white"/>
<path d="M45.4289 27.6062H30.8868C30.679 27.6062 30.4944 27.417 30.4944 27.2041V24.9805C30.4944 24.7676 30.679 24.5784 30.8868 24.5784H45.4289C45.6367 24.5784 45.8213 24.7676 45.8213 24.9805V27.2041C45.8213 27.417 45.6367 27.6062 45.4289 27.6062ZM31.2792 26.8019H45.0365V25.3826H31.2792V26.8019Z" fill="white"/>
<path d="M45.429 27.7482H30.8868C30.5867 27.7482 30.3328 27.488 30.3328 27.1804V24.9569C30.3328 24.6494 30.5867 24.3892 30.8868 24.3892H45.429C45.729 24.3892 45.9829 24.6494 45.9829 24.9569V27.1804C45.9599 27.5116 45.729 27.7482 45.429 27.7482ZM30.8868 24.7203C30.7483 24.7203 30.656 24.8386 30.656 24.9569V27.1804C30.656 27.3224 30.7714 27.417 30.8868 27.417H45.429C45.5675 27.417 45.6598 27.2987 45.6598 27.1804V24.9569C45.6598 24.8149 45.5444 24.7203 45.429 24.7203H30.8868ZM45.175 26.9439H31.1176V25.2171H45.175V26.9439ZM31.4177 26.6364H44.875V25.5246H31.4177V26.6364Z" fill="white"/>
<path d="M45.4289 29.4276H30.8868C30.679 29.4276 30.4944 29.2383 30.4944 29.0254C30.4944 28.8125 30.679 28.6233 30.8868 28.6233H45.4289C45.6367 28.6233 45.8213 28.8125 45.8213 29.0254C45.8213 29.2383 45.6367 29.4276 45.4289 29.4276Z" fill="white"/>
<path d="M45.429 29.5695H30.8868C30.5867 29.5695 30.3328 29.3093 30.3328 29.0018C30.3328 28.6943 30.5867 28.4341 30.8868 28.4341H45.429C45.729 28.4341 45.9829 28.6943 45.9829 29.0018C45.9599 29.333 45.729 29.5695 45.429 29.5695ZM30.8868 28.7653C30.7483 28.7653 30.656 28.8835 30.656 29.0018C30.656 29.1201 30.7714 29.2384 30.8868 29.2384H45.429C45.5675 29.2384 45.6598 29.1201 45.6598 29.0018C45.6598 28.8835 45.5444 28.7653 45.429 28.7653H30.8868Z" fill="white"/>
<path d="M45.4289 31.107H30.8868C30.679 31.107 30.4944 30.9178 30.4944 30.7049C30.4944 30.492 30.679 30.3027 30.8868 30.3027H45.4289C45.6367 30.3027 45.8213 30.492 45.8213 30.7049C45.8213 30.9178 45.6367 31.107 45.4289 31.107Z" fill="white"/>
<path d="M45.429 31.2726H30.8868C30.5867 31.2726 30.3328 31.0124 30.3328 30.7049C30.3328 30.3974 30.5867 30.1372 30.8868 30.1372H45.429C45.729 30.1372 45.9829 30.3974 45.9829 30.7049C45.9599 31.0124 45.729 31.2726 45.429 31.2726ZM30.8868 30.4684C30.7483 30.4684 30.656 30.5867 30.656 30.7049C30.656 30.8469 30.7714 30.9415 30.8868 30.9415H45.429C45.5675 30.9415 45.6598 30.8232 45.6598 30.7049C45.6598 30.563 45.5444 30.4684 45.429 30.4684H30.8868Z" fill="white"/>
</g>
<defs>
<clipPath id="clip0_679_5562">
<rect width="48.1507" height="43.194" fill="white" transform="translate(20.1533 21.2429)"/>
</clipPath>
</defs>
</svg>
