<svg width="78" height="42" viewBox="0 0 78 42" fill="none" xmlns="http://www.w3.org/2000/svg">
<path d="M44.3413 5.37109C44.1397 5.37109 44.1397 5.37109 43.9382 5.37109C43.7366 5.37109 43.7367 5.37109 43.7367 5.37109C41.7212 5.37109 39.9072 5.97575 38.0932 6.98351L39.5041 8.79747C40.9149 7.99126 42.3258 7.58816 43.9382 7.58816C43.9382 7.58816 43.9382 7.58816 44.1397 7.58816H44.3413C45.9537 7.58816 47.3646 7.99126 48.7754 8.79747L50.1863 6.98351C48.1708 5.97575 46.3568 5.57264 44.3413 5.37109Z" fill="#FA0024"/>
<path d="M31.2404 15.6502V31.1696H27.2094V15.6502C27.2094 12.6269 26.0001 9.60363 23.783 7.38656C21.5659 5.1695 18.7443 3.9602 15.5195 3.9602C12.2946 3.9602 9.47292 5.1695 7.25585 7.38656C5.03879 9.60363 3.82946 12.4253 3.82946 15.6502V31.1696H0V15.6502C0 11.6191 1.61238 7.58812 4.63565 4.7664C7.45737 1.94469 11.4884 0.332275 15.5195 0.332275C19.5505 0.332275 23.5815 1.94469 26.4032 4.7664C29.4265 7.58812 31.2404 11.6191 31.2404 15.6502Z" fill="#FA0024"/>
<path d="M54.4198 20.8906C54.4198 22.9061 53.8152 24.9216 52.6059 26.534C51.3966 28.1464 49.7841 29.5573 47.9702 30.3635C46.1562 31.1697 43.9391 31.3712 41.9236 30.9681C39.9081 30.565 38.0942 29.5573 36.6833 28.1464C35.2725 26.7356 34.2647 24.9216 33.8616 22.9061C33.4585 20.8906 33.6601 18.8751 34.4663 16.8596C35.2725 15.0456 36.4818 13.4332 38.2957 12.2239C39.9081 11.0146 41.9236 10.4099 43.9391 10.4099C46.7608 10.4099 49.381 11.4177 51.195 13.4332C53.2105 15.4487 54.4198 18.0689 54.4198 20.8906ZM50.3888 20.8906C50.3888 19.6813 49.9857 18.2704 49.381 17.2627C48.7764 16.2549 47.7686 15.4487 46.5593 14.844C45.35 14.4409 44.1407 14.2394 42.7299 14.4409C41.5206 14.6425 40.3112 15.2471 39.505 16.2549C38.4973 17.0611 37.8926 18.2704 37.6911 19.4797C37.4895 20.689 37.4895 22.0999 38.0942 23.3092C38.4973 24.5185 39.505 25.5263 40.5128 26.1309C41.5206 26.9371 42.7298 27.1387 44.1407 27.1387C45.7531 27.1387 47.5671 26.534 48.7764 25.3247C49.7842 24.1154 50.3888 22.503 50.3888 20.8906Z" fill="#FA0024"/>
<path d="M78 20.8904C78 22.906 77.3953 24.7199 76.3876 26.3323C75.3798 27.9447 73.9689 29.3556 72.155 30.1618C70.341 30.968 68.5271 31.3711 66.5116 31.1695C64.4961 30.968 62.6821 30.1618 61.2712 28.9525V41.4487H57.4418V20.8904C57.4418 18.0687 58.4495 15.4486 60.465 13.6346C62.4806 11.6191 65.1007 10.6113 67.7209 10.6113C70.5426 10.6113 73.1628 11.6191 74.9767 13.6346C76.9923 15.4486 78 18.0687 78 20.8904ZM74.1705 20.8904C74.1705 19.6811 73.7674 18.2703 73.1627 17.2625C72.3565 16.2548 71.3488 15.4486 70.341 14.8439C69.1317 14.4408 67.9224 14.2392 66.5116 14.4408C65.3023 14.6424 64.0929 15.247 63.2867 16.2548C62.4805 17.061 61.6743 18.2703 61.4728 19.4796C61.2712 20.6889 61.2713 22.0997 61.8759 23.3091C62.279 24.5184 63.2867 25.5261 64.2945 26.1308C65.3023 26.937 66.5116 27.1385 67.9225 27.1385C68.7287 27.1385 69.5348 26.937 70.341 26.7354C71.1472 26.3323 71.7519 25.9292 72.3565 25.3246C72.9612 24.7199 73.3643 23.9137 73.7674 23.3091C73.969 22.5028 74.1705 21.6966 74.1705 20.8904Z" fill="#FA0024"/>
<path d="M45.9534 33.1851V37.0145H42.124V33.1851H45.9534Z" fill="#FA0024"/>
</svg>
