<svg width="150" height="151" viewBox="0 0 150 151" fill="none" xmlns="http://www.w3.org/2000/svg">
<g filter="url(#filter0_d_679_4473)">
<ellipse cx="75" cy="73.1009" rx="65" ry="65.1009" fill="white"/>
</g>
<g style="mix-blend-mode:multiply">
<path d="M62.4426 88.0177C62.2486 88.0177 62.0597 87.9181 61.9552 87.7338C61.8011 87.4648 61.8906 87.1211 62.1591 86.9617L74.1987 79.9929V67.2858C74.1987 66.972 74.4523 66.7229 74.7606 66.7229C75.0689 66.7229 75.3226 66.9769 75.3226 67.2858V80.3167C75.3226 80.521 75.2132 80.7053 75.0391 80.8049L62.7161 87.9331C62.6266 87.9829 62.5321 88.0078 62.4326 88.0078L62.4426 88.0177Z" fill="#FF6E01"/>
<path d="M62.4429 88.3913C62.1097 88.3913 61.8014 88.212 61.6323 87.923C61.3737 87.4747 61.5279 86.9019 61.9754 86.6429L73.831 79.7837V67.2907C73.831 66.7727 74.2487 66.3542 74.7659 66.3542C75.2831 66.3542 75.7008 66.7727 75.7008 67.2907V80.3217C75.7008 80.6554 75.5218 80.9643 75.2333 81.1336L62.9103 88.2618C62.7711 88.3465 62.607 88.3863 62.4429 88.3863V88.3913ZM74.7659 67.1014C74.6614 67.1014 74.5769 67.1861 74.5769 67.2907V80.2121L62.3484 87.2855C62.2589 87.3402 62.2241 87.4548 62.2788 87.5445C62.3285 87.6341 62.4528 87.669 62.5374 87.6142L74.8604 80.4861C74.92 80.4512 74.9549 80.3864 74.9549 80.3217V67.2907C74.9549 67.1861 74.8703 67.1014 74.7659 67.1014V67.1014Z" fill="#FF6E01"/>
<path d="M62.4439 88.267C62.1554 88.267 61.8869 88.1126 61.7377 87.8585C61.5139 87.47 61.6482 86.9719 62.0361 86.7477L73.9513 79.8537V67.2909C73.9513 66.8426 74.3144 66.479 74.7619 66.479C75.2095 66.479 75.5725 66.8426 75.5725 67.2909V80.3219C75.5725 80.6108 75.4184 80.8798 75.1647 81.0243L62.8417 88.1524C62.7174 88.2222 62.5781 88.262 62.4339 88.262L62.4439 88.267ZM74.7669 66.9771C74.5928 66.9771 74.4536 67.1166 74.4536 67.2909V80.1426L74.3293 80.2123L62.2897 87.1811C62.1405 87.2658 62.0858 87.46 62.1753 87.6144C62.2599 87.7589 62.4588 87.8137 62.603 87.729L74.926 80.6008C75.0255 80.546 75.0852 80.4414 75.0852 80.3269V67.2959C75.0852 67.1216 74.9409 66.9821 74.7719 66.9821L74.7669 66.9771Z" fill="#FF6E01"/>
<path d="M62.4444 88.6404C62.0217 88.6404 61.6288 88.4112 61.42 88.0476C61.0917 87.4797 61.2857 86.7525 61.8526 86.4237L73.5838 79.6343V67.2858C73.5838 66.6332 74.1159 66.1002 74.7674 66.1002C75.4188 66.1002 75.951 66.6332 75.951 67.2858V80.3167C75.951 80.7401 75.7222 81.1336 75.3592 81.3428L63.0362 88.471C62.8571 88.5756 62.6533 88.6304 62.4444 88.6304V88.6404Z" fill="#FF6E01"/>
<path d="M62.4444 88.267C62.1559 88.267 61.8874 88.1126 61.7382 87.8585C61.5144 87.47 61.6487 86.9719 62.0366 86.7477L73.9518 79.8537V67.2909C73.9518 66.8426 74.3148 66.479 74.7624 66.479C75.21 66.479 75.573 66.8426 75.573 67.2909V80.3219C75.573 80.6108 75.4188 80.8798 75.1652 81.0243L62.8422 88.1524C62.7179 88.2222 62.5786 88.262 62.4344 88.262L62.4444 88.267ZM74.7674 66.9771C74.5933 66.9771 74.4541 67.1166 74.4541 67.2909V80.1426L74.3298 80.2123L62.2902 87.1811C62.141 87.2658 62.0863 87.46 62.1758 87.6144C62.2604 87.7589 62.4593 87.8137 62.6035 87.729L74.9265 80.6008C75.026 80.546 75.0856 80.4414 75.0856 80.3269V67.2959C75.0856 67.1216 74.9414 66.9821 74.7723 66.9821L74.7674 66.9771Z" fill="#FF6E01"/>
<path d="M62.4449 88.6404C62.0222 88.6404 61.6293 88.4112 61.4204 88.0476C61.0922 87.4797 61.2862 86.7525 61.8531 86.4237L73.5843 79.6343V67.2858C73.5843 66.6332 74.1164 66.1002 74.7679 66.1002C75.4193 66.1002 75.9514 66.6332 75.9514 67.2858V80.3167C75.9514 80.7401 75.7227 81.1336 75.3597 81.3428L63.0367 88.471C62.8576 88.5756 62.6537 88.6304 62.4449 88.6304V88.6404Z" fill="#FF6E01"/>
<path d="M62.4454 88.5155C62.0674 88.5155 61.7144 88.3112 61.5254 87.9875C61.232 87.4794 61.406 86.8268 61.9133 86.5329L73.7042 79.7086V67.2904C73.7042 66.7026 74.1816 66.2294 74.7634 66.2294C75.3453 66.2294 75.8227 66.7076 75.8227 67.2904V80.3213C75.8227 80.6999 75.6188 81.0536 75.2906 81.2428L62.9675 88.371C62.8084 88.4657 62.6244 88.5155 62.4354 88.5155H62.4454ZM61.9282 87.6786C61.9282 87.6786 61.9481 87.7185 61.958 87.7334C62.0973 87.9775 62.4255 88.0821 62.6791 87.9626C62.5647 88.0174 62.4255 88.0273 62.2962 87.9924C62.152 87.9526 62.0277 87.858 61.9531 87.7334C61.9431 87.7135 61.9332 87.6986 61.9232 87.6786H61.9282ZM74.7684 67.2206C74.7336 67.2206 74.7038 67.2505 74.7038 67.2854V80.2815L62.4155 87.3897C62.3857 87.4096 62.3758 87.4495 62.3907 87.4794L62.4802 87.5043L74.8032 80.3761C74.8032 80.3761 74.838 80.3412 74.838 80.3163V67.2854C74.838 67.2505 74.8082 67.2206 74.7734 67.2206H74.7684ZM75.3154 80.4608C75.2756 80.6053 75.1811 80.7298 75.0518 80.8045L72.2869 82.4035L75.0518 80.8045C75.1811 80.7298 75.2756 80.6003 75.3154 80.4558V80.4608ZM74.2065 79.9926L71.1381 81.7659L74.2065 79.9926Z" fill="#FF6E01"/>
<path d="M62.4456 88.8891C61.9384 88.8891 61.461 88.6152 61.2024 88.1718C60.8095 87.4844 61.0432 86.6077 61.7245 86.2092L73.3315 79.4945V67.2904C73.3315 66.4984 73.973 65.8558 74.7637 65.8558C75.5544 65.8558 76.1959 66.4984 76.1959 67.2904V80.3214C76.1959 80.8344 75.9224 81.3077 75.4798 81.5667L63.1568 88.6949C62.9429 88.8194 62.6943 88.8891 62.4406 88.8891H62.4456ZM62.6296 87.853L62.7341 88.0772C62.7341 88.0772 62.7738 88.0573 62.7888 88.0473L72.3468 82.5181L72.2225 82.3039L62.6346 87.853H62.6296ZM71.0737 81.6613L62.1025 86.8518C61.7991 87.0261 61.6798 87.4047 61.819 87.7235L62.0478 87.6239C61.9633 87.4246 62.0378 87.1855 62.2268 87.071L71.203 81.8805L71.0787 81.6663L71.0737 81.6613ZM75.1913 80.431L75.43 80.4957C75.445 80.4409 75.4549 80.3812 75.4549 80.3214H75.2062C75.2062 80.3612 75.2063 80.3961 75.1913 80.431ZM74.0774 79.7784L74.2664 80.1022L74.3261 80.0673V67.2855C74.3261 67.0414 74.525 66.8471 74.7637 66.8471C75.0024 66.8471 75.2013 67.0464 75.2013 67.2855H75.4499C75.4499 66.9069 75.1416 66.598 74.7637 66.598C74.3857 66.598 74.0774 66.9069 74.0774 67.2855V79.7784Z" fill="#FF6E01"/>
<path d="M87.0901 88.0178C86.9956 88.0178 86.8962 87.9929 86.8067 87.9431L74.4837 80.8149C74.3096 80.7153 74.2002 80.526 74.2002 80.3267V67.2958C74.2002 66.982 74.4538 66.7329 74.7621 66.7329C75.0705 66.7329 75.3241 66.987 75.3241 67.2958V80.003L87.3636 86.9717C87.6322 87.1261 87.7267 87.4748 87.5675 87.7438C87.4631 87.9231 87.2741 88.0277 87.0802 88.0277L87.0901 88.0178Z" fill="#FF6E01"/>
<path d="M87.0899 88.3915C86.9258 88.3915 86.7617 88.3467 86.6224 88.262L74.3044 81.1339C74.0159 80.9695 73.8369 80.6557 73.8369 80.3219V67.291C73.8369 66.7729 74.2546 66.3545 74.7718 66.3545C75.289 66.3545 75.7068 66.7729 75.7068 67.291V79.7839L87.5573 86.6431C87.7762 86.7676 87.9303 86.9719 87.995 87.211C88.0596 87.4551 88.0248 87.7041 87.9005 87.9233C87.7364 88.2122 87.4231 88.3915 87.0899 88.3915V88.3915ZM74.7669 67.1017C74.6624 67.1017 74.5779 67.1864 74.5779 67.291V80.3219C74.5779 80.3916 74.6127 80.4514 74.6724 80.4863L86.9954 87.6145C87.0899 87.6693 87.2043 87.6344 87.254 87.5447C87.2789 87.4999 87.2888 87.4501 87.2739 87.4003C87.259 87.3504 87.2291 87.3106 87.1844 87.2857L74.9608 80.2123V67.291C74.9608 67.1864 74.8763 67.1017 74.7718 67.1017H74.7669Z" fill="#FF6E01"/>
<path d="M87.0912 88.2666C86.947 88.2666 86.8077 88.2268 86.6834 88.1571L74.3604 81.0289C74.1118 80.8844 73.9526 80.6154 73.9526 80.3265V67.2956C73.9526 66.8473 74.3157 66.4836 74.7632 66.4836C75.2108 66.4836 75.5738 66.8473 75.5738 67.2956V79.8583L87.489 86.7523C87.8769 86.9765 88.0112 87.4746 87.7874 87.8632C87.6432 88.1122 87.3747 88.2716 87.0813 88.2716L87.0912 88.2666ZM74.7682 66.9768C74.5941 66.9768 74.4549 67.1163 74.4549 67.2906V80.3215C74.4549 80.4311 74.5146 80.5357 74.614 80.5955L86.937 87.7237C87.0862 87.8084 87.2851 87.7536 87.3647 87.6091C87.4542 87.4597 87.3995 87.2654 87.2503 87.1757L75.0865 80.1372V67.2856C75.0865 67.1113 74.9422 66.9718 74.7732 66.9718L74.7682 66.9768Z" fill="#FF6E01"/>
<path d="M87.0906 88.6404C86.8817 88.6404 86.6778 88.5856 86.4938 88.481L74.1758 81.3528C73.8078 81.1436 73.584 80.7501 73.584 80.3267V67.2958C73.584 66.6432 74.1161 66.1102 74.7675 66.1102C75.419 66.1102 75.9511 66.6432 75.9511 67.2958V79.6443L87.6774 86.4337C87.9509 86.5931 88.1498 86.8472 88.2293 87.156C88.3139 87.4648 88.2691 87.7836 88.11 88.0576C87.9011 88.4212 87.5083 88.6504 87.0856 88.6504L87.0906 88.6404Z" fill="#FF6E01"/>
<path d="M87.0897 88.2666C86.9455 88.2666 86.8063 88.2268 86.682 88.1571L74.359 81.0289C74.1103 80.8844 73.9512 80.6154 73.9512 80.3265V67.2956C73.9512 66.8473 74.3142 66.4836 74.7618 66.4836C75.2093 66.4836 75.5724 66.8473 75.5724 67.2956V79.8583L87.4876 86.7523C87.6765 86.8619 87.8108 87.0363 87.8655 87.2455C87.9202 87.4547 87.8904 87.6739 87.786 87.8632C87.6418 88.1122 87.3732 88.2716 87.0798 88.2716L87.0897 88.2666ZM74.7667 66.9768C74.5927 66.9768 74.4534 67.1163 74.4534 67.2906V80.3215C74.4534 80.4311 74.5131 80.5357 74.6126 80.5955L86.9356 87.7237C87.0848 87.8084 87.2837 87.7536 87.3632 87.6091C87.4528 87.4597 87.3981 87.2654 87.2489 87.1757L75.085 80.1372V67.2856C75.085 67.1113 74.9408 66.9718 74.7717 66.9718L74.7667 66.9768Z" fill="#FF6E01"/>
<path d="M87.0896 88.6404C86.8807 88.6404 86.6768 88.5856 86.4928 88.481L74.1748 81.3528C73.8068 81.1436 73.583 80.7501 73.583 80.3267V67.2958C73.583 66.6432 74.1151 66.1102 74.7665 66.1102C75.418 66.1102 75.9501 66.6432 75.9501 67.2958V79.6443L87.6764 86.4337C87.9499 86.5931 88.1488 86.8472 88.2284 87.156C88.3129 87.4599 88.2682 87.7836 88.109 88.0576C87.9002 88.4212 87.5073 88.6504 87.0846 88.6504L87.0896 88.6404Z" fill="#FF6E01"/>
<path d="M87.0898 88.5155C86.9058 88.5155 86.7218 88.4657 86.5576 88.371L74.2396 81.2428C73.9114 81.0536 73.7075 80.6999 73.7075 80.3213V67.2904C73.7075 66.7026 74.1849 66.2294 74.7667 66.2294C75.3486 66.2294 75.826 66.7076 75.826 67.2904V79.7086L87.6169 86.5329C87.8606 86.6724 88.0396 86.9015 88.1092 87.1755C88.1838 87.4495 88.144 87.7334 88.0048 87.9825C87.8158 88.3112 87.4627 88.5155 87.0848 88.5155H87.0898ZM86.9256 87.9924C87.1743 88.0672 87.4528 87.9576 87.5821 87.7384C87.6567 87.6089 87.6766 87.4545 87.6418 87.31C87.6169 87.2104 87.5622 87.1207 87.4926 87.051C87.5672 87.1207 87.6169 87.2104 87.6418 87.31C87.6815 87.4545 87.6617 87.6089 87.5871 87.7384C87.5125 87.8629 87.3881 87.9626 87.2439 87.9974C87.1395 88.0273 87.0351 88.0223 86.9356 87.9974L86.9256 87.9924ZM74.7717 67.2256C74.7369 67.2256 74.7071 67.2555 74.7071 67.2904V80.3213C74.7071 80.3213 74.722 80.3662 74.7419 80.3761L87.0649 87.5043C87.1196 87.4993 87.1494 87.4943 87.1544 87.4794C87.1644 87.4595 87.1644 87.4395 87.1594 87.4296C87.1594 87.4196 87.1494 87.3997 87.1296 87.3897L74.8413 80.2815V67.2854C74.8413 67.2505 74.8115 67.2206 74.7767 67.2206L74.7717 67.2256ZM75.3337 79.9975L81.9129 83.8082L75.3337 79.9975ZM74.4535 80.7896C74.4535 80.7896 74.4783 80.8045 74.4882 80.8095L77.2632 82.4134L74.4882 80.8095C74.4882 80.8095 74.4634 80.7945 74.4535 80.7896Z" fill="#FF6E01"/>
<path d="M87.0892 88.8891C86.8356 88.8891 86.5869 88.8194 86.3681 88.6949L74.0501 81.5667C73.6075 81.3126 73.334 80.8344 73.334 80.3214V67.2904C73.334 66.4984 73.9755 65.8558 74.7662 65.8558C75.5569 65.8558 76.1984 66.4984 76.1984 67.2904V79.4945L87.8003 86.2092C88.1335 86.3985 88.3673 86.7073 88.4667 87.0809C88.5662 87.4495 88.5164 87.8381 88.3225 88.1718C88.0689 88.6152 87.5915 88.8891 87.0792 88.8891H87.0892ZM77.198 82.5231L86.7461 88.0473C86.7908 88.0722 86.8406 88.0921 86.8853 88.1121L86.9549 87.8829L86.8704 87.8381L77.3223 82.3139L77.198 82.5281V82.5231ZM81.8526 83.9129L87.308 87.071C87.3378 87.0909 87.3677 87.1108 87.3925 87.1357L87.5666 86.9564C87.5268 86.9165 87.4821 86.8817 87.4323 86.8568L81.972 83.6987L81.8477 83.9129H81.8526ZM74.0799 80.3264C74.0799 80.5555 74.1943 80.7647 74.3783 80.8892L74.5971 80.5754L74.4529 80.7846L74.5225 80.68C74.4031 80.6003 74.3286 80.4658 74.3286 80.3214H74.0799V80.3264ZM74.7662 66.603C74.3882 66.603 74.0799 66.9119 74.0799 67.2904V80.3214H74.3286V67.2904C74.3286 67.0464 74.5275 66.8521 74.7662 66.8521C75.0049 66.8521 75.2038 67.0513 75.2038 67.2904H75.4524C75.4524 66.9119 75.1441 66.603 74.7662 66.603V66.603Z" fill="#FF6E01"/>
<path d="M55.333 95.1402C51.1011 95.1402 47.6548 91.6882 47.6548 87.4491C47.6548 83.2101 51.0961 79.7631 55.333 79.7631C59.57 79.7631 63.0063 83.2101 63.0063 87.4491C63.0063 91.6882 59.565 95.1402 55.333 95.1402ZM55.333 80.8938C51.7227 80.8938 48.7836 83.8327 48.7836 87.4541C48.7836 91.0755 51.7227 94.0144 55.333 94.0144C58.9434 94.0144 61.8824 91.0705 61.8824 87.4541C61.8824 83.8377 58.9434 80.8938 55.333 80.8938Z" fill="#007CBA"/>
<path d="M55.333 95.5139C50.8971 95.5139 47.2817 91.8976 47.2817 87.4493C47.2817 83.001 50.8921 79.3896 55.333 79.3896C59.7738 79.3896 63.3792 83.006 63.3792 87.4493C63.3792 91.8926 59.7689 95.5139 55.333 95.5139ZM55.333 80.1368C51.3049 80.1368 48.0277 83.4195 48.0277 87.4493C48.0277 91.4791 51.3049 94.7668 55.333 94.7668C59.3611 94.7668 62.6333 91.4841 62.6333 87.4493C62.6333 83.4145 59.3561 80.1368 55.333 80.1368ZM55.333 94.3832C51.5137 94.3832 48.4106 91.2699 48.4106 87.4493C48.4106 83.6287 51.5187 80.5154 55.333 80.5154C59.1472 80.5154 62.2553 83.6237 62.2553 87.4493C62.2553 91.2749 59.1522 94.3832 55.333 94.3832ZM55.333 81.2626C51.9265 81.2626 49.1565 84.0371 49.1565 87.4493C49.1565 90.8615 51.9265 93.636 55.333 93.636C58.7395 93.636 61.5094 90.8615 61.5094 87.4493C61.5094 84.0371 58.7395 81.2626 55.333 81.2626Z" fill="#007CBA"/>
<path d="M55.3336 95.3893C50.9624 95.3893 47.4067 91.8277 47.4067 87.4492C47.4067 83.0706 50.9624 79.514 55.3336 79.514C59.7049 79.514 63.2556 83.0756 63.2556 87.4492C63.2556 91.8227 59.6999 95.3893 55.3336 95.3893ZM55.3336 80.0122C51.2359 80.0122 47.904 83.3496 47.904 87.4492C47.904 91.5487 51.2359 94.8912 55.3336 94.8912C59.4314 94.8912 62.7583 91.5537 62.7583 87.4492C62.7583 83.3446 59.4264 80.0122 55.3336 80.0122ZM55.3336 94.2585C51.584 94.2585 48.5356 91.205 48.5356 87.4492C48.5356 83.6933 51.584 80.6398 55.3336 80.6398C59.0833 80.6398 62.1317 83.6933 62.1317 87.4492C62.1317 91.205 59.0833 94.2585 55.3336 94.2585ZM55.3336 81.1379C51.8575 81.1379 49.0329 83.9673 49.0329 87.4492C49.0329 90.9311 51.8575 93.7604 55.3336 93.7604C58.8098 93.7604 61.6344 90.9311 61.6344 87.4492C61.6344 83.9673 58.8098 81.1379 55.3336 81.1379Z" fill="#007CBA"/>
<path d="M55.3331 95.7629C50.758 95.7629 47.0332 92.032 47.0332 87.4492C47.0332 82.8665 50.758 79.1405 55.3331 79.1405C59.9082 79.1405 63.628 82.8665 63.628 87.4492C63.628 92.032 59.9082 95.7629 55.3331 95.7629ZM55.3331 81.5166C52.0658 81.5166 49.4053 84.1765 49.4053 87.4542C49.4053 90.7319 52.0658 93.3918 55.3331 93.3918C58.6003 93.3918 61.2609 90.7269 61.2609 87.4542C61.2609 84.1815 58.6003 81.5166 55.3331 81.5166Z" fill="#007CBA"/>
<path d="M55.3332 95.3895C50.9619 95.3895 47.4062 91.8279 47.4062 87.4494C47.4062 83.0709 50.9619 79.5143 55.3332 79.5143C59.7044 79.5143 63.2551 83.0759 63.2551 87.4494C63.2551 91.8229 59.6994 95.3895 55.3332 95.3895ZM55.3332 80.0124C51.2354 80.0124 47.9035 83.3498 47.9035 87.4494C47.9035 91.549 51.2354 94.8914 55.3332 94.8914C59.4309 94.8914 62.7578 91.554 62.7578 87.4494C62.7578 83.3449 59.4259 80.0124 55.3332 80.0124ZM55.3332 94.2588C51.5835 94.2588 48.5351 91.2053 48.5351 87.4494C48.5351 83.6935 51.5835 80.64 55.3332 80.64C59.0828 80.64 62.1312 83.6935 62.1312 87.4494C62.1312 91.2053 59.0828 94.2588 55.3332 94.2588ZM55.3332 81.1382C51.8571 81.1382 49.0324 83.9675 49.0324 87.4494C49.0324 90.9313 51.8571 93.7606 55.3332 93.7606C58.8093 93.7606 61.6339 90.9313 61.6339 87.4494C61.6339 83.9675 58.8093 81.1382 55.3332 81.1382Z" fill="#007CBA"/>
<path d="M55.3326 95.7634C50.7575 95.7634 47.0327 92.0325 47.0327 87.4497C47.0327 82.867 50.7575 79.141 55.3326 79.141C59.9077 79.141 63.6275 82.867 63.6275 87.4497C63.6275 92.0325 59.9077 95.7634 55.3326 95.7634ZM55.3326 81.517C52.0654 81.517 49.4048 84.177 49.4048 87.4547C49.4048 90.7324 52.0654 93.3923 55.3326 93.3923C58.5998 93.3923 61.2604 90.7274 61.2604 87.4547C61.2604 84.182 58.5998 81.517 55.3326 81.517Z" fill="#007CBA"/>
<path d="M55.3328 95.6389C50.8273 95.6389 47.1572 91.9677 47.1572 87.4497C47.1572 82.9317 50.8223 79.2655 55.3328 79.2655C59.8433 79.2655 63.5034 82.9367 63.5034 87.4497C63.5034 91.9627 59.8383 95.6389 55.3328 95.6389ZM47.6545 87.4497C47.6545 91.6887 51.0958 95.1407 55.3328 95.1407C59.5698 95.1407 63.0061 91.6887 63.0061 87.4497C63.0061 91.6887 59.5648 95.1407 55.3328 95.1407C51.1008 95.1407 47.6545 91.6887 47.6545 87.4497ZM55.3328 80.2618C51.3743 80.2618 48.1518 83.4846 48.1518 87.4497C48.1518 91.4148 51.3743 94.6426 55.3328 94.6426C59.2913 94.6426 62.5088 91.4148 62.5088 87.4497C62.5088 83.4846 59.2913 80.2618 55.3328 80.2618ZM55.3328 94.5081C51.4489 94.5081 48.2861 91.34 48.2861 87.4497C48.2861 83.5593 51.4489 80.3913 55.3328 80.3913C59.2167 80.3913 62.3795 83.5544 62.3795 87.4497C62.3795 91.345 59.2216 94.5081 55.3328 94.5081ZM48.7834 87.4497C48.7834 91.0661 51.7224 94.01 55.3328 94.01C58.9432 94.01 61.8822 91.0661 61.8822 87.4497C61.8822 91.0661 58.9432 94.01 55.3328 94.01C51.7224 94.01 48.7834 91.0661 48.7834 87.4497ZM55.3328 81.3875C51.9959 81.3875 49.2807 84.1073 49.2807 87.4497C49.2807 90.7921 51.9959 93.5119 55.3328 93.5119C58.6696 93.5119 61.3849 90.7921 61.3849 87.4497C61.3849 84.1073 58.6696 81.3875 55.3328 81.3875Z" fill="#007CBA"/>
<path d="M55.3327 96.0126C50.6183 96.0126 46.7842 92.1721 46.7842 87.4499C46.7842 82.7276 50.6183 78.8921 55.3327 78.8921C60.0471 78.8921 63.8763 82.7326 63.8763 87.4499C63.8763 92.1671 60.0421 96.0126 55.3327 96.0126ZM55.3327 81.7663C52.1997 81.7663 49.6536 84.3167 49.6536 87.4548C49.6536 90.593 52.1997 93.1434 55.3327 93.1434C58.4657 93.1434 61.0118 90.593 61.0118 87.4548C61.0118 84.3167 58.4657 81.7663 55.3327 81.7663ZM62.8817 87.4548H63.1303C63.1303 83.1461 59.6294 79.6443 55.3327 79.6443C51.0361 79.6443 47.5301 83.1511 47.5301 87.4548H47.7788C47.7788 83.2855 51.1654 79.8933 55.3327 79.8933C59.5001 79.8933 62.8817 83.2855 62.8817 87.4548ZM61.7528 87.4548H62.0014C62.0014 83.7687 59.0077 80.77 55.3277 80.77C51.6477 80.77 48.654 83.7687 48.654 87.4548H48.9027C48.9027 83.9082 51.787 81.0191 55.3277 81.0191C58.8685 81.0191 61.7528 83.9032 61.7528 87.4548Z" fill="#007CBA"/>
<path d="M64.1992 108.182H46.4755C46.1622 108.182 45.9136 107.928 45.9136 107.619V100.372C45.9136 97.8311 47.9774 95.7639 50.5086 95.7639H60.1661C62.7023 95.7639 64.7611 97.8311 64.7611 100.372V107.619C64.7611 107.933 64.5075 108.182 64.1992 108.182ZM47.0375 107.051H63.6323V100.367C63.6323 98.4488 62.0757 96.8897 60.1611 96.8897H50.5036C48.589 96.8897 47.0325 98.4488 47.0325 100.367V107.051H47.0375Z" fill="#007CBA"/>
<path d="M64.1986 108.556H46.475C45.9578 108.556 45.54 108.137 45.54 107.619V100.372C45.54 97.6268 47.7679 95.3903 50.508 95.3903H60.1655C62.9056 95.3903 65.1385 97.6219 65.1385 100.372V107.619C65.1385 108.137 64.7158 108.556 64.2036 108.556H64.1986ZM50.508 96.1374C48.1807 96.1374 46.286 98.0353 46.286 100.372V107.619C46.286 107.724 46.3705 107.809 46.475 107.809H64.1986C64.303 107.809 64.3876 107.724 64.3876 107.619V100.372C64.3876 98.0353 62.4929 96.1374 60.1605 96.1374H50.5031H50.508ZM64.0047 107.425H46.6639V100.367C46.6639 98.2445 48.3895 96.516 50.508 96.516H60.1655C62.284 96.516 64.0096 98.2445 64.0096 100.367V107.425H64.0047ZM47.4099 106.678H63.2587V100.367C63.2587 98.658 61.8712 97.2632 60.1605 97.2632H50.5031C48.7973 97.2632 47.4049 98.653 47.4049 100.367V106.678H47.4099Z" fill="#007CBA"/>
<path d="M64.1993 108.431H46.4756C46.0281 108.431 45.665 108.068 45.665 107.619V100.372C45.665 97.6917 47.8382 95.5149 50.5087 95.5149H60.1662C62.8367 95.5149 65.0099 97.6917 65.0099 100.372V107.619C65.0099 108.068 64.6468 108.431 64.1993 108.431ZM50.5087 96.013C48.1117 96.013 46.1623 97.9657 46.1623 100.372V107.619C46.1623 107.794 46.3016 107.933 46.4756 107.933H64.1993C64.3733 107.933 64.5126 107.794 64.5126 107.619V100.372C64.5126 97.9706 62.5632 96.013 60.1662 96.013H50.5087ZM63.881 107.301H46.7889V100.367C46.7889 98.3143 48.4549 96.6407 50.5087 96.6407H60.1662C62.2151 96.6407 63.886 98.3143 63.886 100.367V107.301H63.881ZM47.2862 106.802H63.3837V100.367C63.3837 98.5883 61.9366 97.1388 60.1612 97.1388H50.5037C48.7284 97.1388 47.2813 98.5883 47.2813 100.367V106.802H47.2862Z" fill="#007CBA"/>
<path d="M64.1982 108.805H46.4746C45.8231 108.805 45.291 108.272 45.291 107.619V100.372C45.291 97.4874 47.6333 95.1412 50.5077 95.1412H60.1651C63.0445 95.1412 65.3818 97.4874 65.3818 100.372V107.619C65.3818 108.272 64.8497 108.805 64.1982 108.805ZM47.6631 106.429H63.0147V100.367C63.0147 98.7925 61.7366 97.5123 60.1651 97.5123H50.5077C48.9362 97.5123 47.6582 98.7925 47.6582 100.367V106.429H47.6631Z" fill="#007CBA"/>
<path d="M64.1993 108.431H46.4756C46.0281 108.431 45.665 108.068 45.665 107.619V100.372C45.665 97.6917 47.8382 95.5149 50.5087 95.5149H60.1662C62.8367 95.5149 65.0099 97.6917 65.0099 100.372V107.619C65.0099 108.068 64.6468 108.431 64.1993 108.431ZM50.5087 96.013C48.1117 96.013 46.1623 97.9657 46.1623 100.372V107.619C46.1623 107.794 46.3016 107.933 46.4756 107.933H64.1993C64.3733 107.933 64.5126 107.794 64.5126 107.619V100.372C64.5126 97.9706 62.5632 96.013 60.1662 96.013H50.5087ZM63.881 107.301H46.7889V100.367C46.7889 98.3143 48.4549 96.6407 50.5087 96.6407H60.1662C62.2151 96.6407 63.886 98.3143 63.886 100.367V107.301H63.881ZM47.2862 106.802H63.3837V100.367C63.3837 98.5883 61.9366 97.1388 60.1612 97.1388H50.5037C48.7284 97.1388 47.2813 98.5883 47.2813 100.367V106.802H47.2862Z" fill="#007CBA"/>
<path d="M64.1982 108.805H46.4746C45.8231 108.805 45.291 108.272 45.291 107.619V100.372C45.291 97.4874 47.6333 95.1412 50.5077 95.1412H60.1651C63.0445 95.1412 65.3818 97.4874 65.3818 100.372V107.619C65.3818 108.272 64.8497 108.805 64.1982 108.805ZM47.6631 106.429H63.0147V100.367C63.0147 98.7925 61.7366 97.5123 60.1651 97.5123H50.5077C48.9362 97.5123 47.6582 98.7925 47.6582 100.367V106.429H47.6631Z" fill="#007CBA"/>
<path d="M64.1999 108.68H46.4762C45.8894 108.68 45.417 108.202 45.417 107.619V100.371C45.417 97.5568 47.7046 95.2654 50.5093 95.2654H60.1668C62.9765 95.2654 65.2591 97.5568 65.2591 100.371V107.619C65.2591 108.207 64.7817 108.68 64.1999 108.68ZM45.9143 107.619C45.9143 107.928 46.1679 108.182 46.4762 108.182H64.1999C64.5082 108.182 64.7618 107.928 64.7618 107.619C64.7618 107.928 64.5082 108.182 64.1999 108.182H46.4762C46.1679 108.182 45.9143 107.928 45.9143 107.619ZM50.5093 96.2616C48.2466 96.2616 46.4116 98.1047 46.4116 100.371V107.619C46.4116 107.654 46.4414 107.684 46.4762 107.684H64.1999C64.2347 107.684 64.2645 107.654 64.2645 107.619V100.371C64.2645 98.1047 62.4245 96.2616 60.1668 96.2616H50.5093ZM64.1303 107.549H46.5409V100.366C46.5409 98.1744 48.3212 96.3911 50.5093 96.3911H60.1668C62.3549 96.3911 64.1353 98.1744 64.1353 100.366V107.549H64.1303ZM47.0382 107.051H63.633H47.0382ZM47.5355 106.553H63.1357V100.366C63.1357 98.7224 61.8029 97.3874 60.1618 97.3874H50.5043C48.8632 97.3874 47.5305 98.7224 47.5305 100.366V106.553H47.5355Z" fill="#007CBA"/>
<path d="M64.1993 109.054H46.4757C45.685 109.054 45.0435 108.411 45.0435 107.619V100.371C45.0435 97.3528 47.4951 94.8921 50.5087 94.8921H60.1662C63.1799 94.8921 65.6315 97.3478 65.6315 100.371V107.619C65.6315 108.411 64.99 109.054 64.1993 109.054ZM45.7894 107.619H46.0381V100.371C46.0381 97.9008 48.0471 95.8883 50.5087 95.8883H60.1662C62.6328 95.8883 64.6369 97.9008 64.6369 100.371H64.8856C64.8856 97.7613 62.7671 95.6393 60.1662 95.6393H50.5087C47.9029 95.6393 45.7894 97.7613 45.7894 100.371V107.619ZM46.9182 107.181H47.0426V106.683H47.1669V100.371C47.1669 98.5234 48.6687 97.0191 50.5137 97.0191H60.1712C62.0162 97.0191 63.518 98.5234 63.518 100.371H63.7667C63.7667 98.3839 62.1554 96.77 60.1712 96.77H50.5137C48.5295 96.77 46.9182 98.3839 46.9182 100.371V107.181ZM47.9128 106.185H62.7671V100.371C62.7671 98.9369 61.6034 97.7663 60.1662 97.7663H50.5087C49.0765 97.7663 47.9079 98.9369 47.9079 100.371V106.185H47.9128Z" fill="#007CBA"/>
<path d="M94.2026 95.1404C89.9706 95.1404 86.5293 91.6884 86.5293 87.4494C86.5293 83.2103 89.9706 79.7633 94.2026 79.7633C98.4346 79.7633 101.876 83.2103 101.876 87.4494C101.876 91.6884 98.4346 95.1404 94.2026 95.1404ZM94.2026 80.894C90.5922 80.894 87.6532 83.833 87.6532 87.4543C87.6532 91.0757 90.5872 94.0146 94.2026 94.0146C97.8179 94.0146 100.752 91.0707 100.752 87.4543C100.752 83.838 97.813 80.894 94.2026 80.894Z" fill="#007CBA"/>
<path d="M94.2025 95.5142C89.7666 95.5142 86.1562 91.8978 86.1562 87.4495C86.1562 83.0013 89.7666 79.3899 94.2025 79.3899C98.6384 79.3899 102.249 83.0063 102.249 87.4495C102.249 91.8928 98.6384 95.5142 94.2025 95.5142ZM94.2025 80.1371C90.1744 80.1371 86.9022 83.4197 86.9022 87.4495C86.9022 91.4794 90.1794 94.767 94.2025 94.767C98.2256 94.767 101.503 91.4844 101.503 87.4495C101.503 83.4147 98.2256 80.1371 94.2025 80.1371ZM94.2025 94.3834C90.3882 94.3834 87.2801 91.2702 87.2801 87.4495C87.2801 83.6289 90.3833 80.5157 94.2025 80.5157C98.0217 80.5157 101.125 83.624 101.125 87.4495C101.125 91.2751 98.0217 94.3834 94.2025 94.3834ZM94.2025 81.2628C90.796 81.2628 88.0261 84.0374 88.0261 87.4495C88.0261 90.8617 90.796 93.6363 94.2025 93.6363C97.609 93.6363 100.379 90.8617 100.379 87.4495C100.379 84.0374 97.609 81.2628 94.2025 81.2628Z" fill="#007CBA"/>
<path d="M94.2022 95.3895C89.831 95.3895 86.2803 91.8279 86.2803 87.4494C86.2803 83.0709 89.8359 79.5143 94.2022 79.5143C98.5685 79.5143 102.124 83.0759 102.124 87.4494C102.124 91.8229 98.5685 95.3895 94.2022 95.3895ZM94.2022 80.0124C90.1095 80.0124 86.7776 83.3498 86.7776 87.4494C86.7776 91.549 90.1095 94.8914 94.2022 94.8914C98.295 94.8914 101.627 91.554 101.627 87.4494C101.627 83.3449 98.295 80.0124 94.2022 80.0124ZM94.2022 94.2588C90.4526 94.2588 87.4042 91.2053 87.4042 87.4494C87.4042 83.6935 90.4526 80.64 94.2022 80.64C97.9518 80.64 101 83.6935 101 87.4494C101 91.2053 97.9518 94.2588 94.2022 94.2588ZM94.2022 81.1382C90.7311 81.1382 87.9015 83.9675 87.9015 87.4494C87.9015 90.9313 90.7261 93.7606 94.2022 93.7606C97.6783 93.7606 100.503 90.9313 100.503 87.4494C100.503 83.9675 97.6783 81.1382 94.2022 81.1382Z" fill="#007CBA"/>
<path d="M94.2016 95.7634C89.6265 95.7634 85.9067 92.0325 85.9067 87.4497C85.9067 82.867 89.6265 79.141 94.2016 79.141C98.7768 79.141 102.497 82.867 102.497 87.4497C102.497 92.0325 98.7768 95.7634 94.2016 95.7634ZM94.2016 81.517C90.9344 81.517 88.2739 84.177 88.2739 87.4547C88.2739 90.7324 90.9294 93.3923 94.2016 93.3923C97.4739 93.3923 100.129 90.7274 100.129 87.4547C100.129 84.182 97.4739 81.517 94.2016 81.517Z" fill="#007CBA"/>
<path d="M94.2032 95.3895C89.8319 95.3895 86.2812 91.8279 86.2812 87.4494C86.2812 83.0709 89.8369 79.5143 94.2032 79.5143C98.5694 79.5143 102.125 83.0759 102.125 87.4494C102.125 91.8229 98.5694 95.3895 94.2032 95.3895ZM94.2032 80.0124C90.1104 80.0124 86.7785 83.3498 86.7785 87.4494C86.7785 91.549 90.1104 94.8914 94.2032 94.8914C98.2959 94.8914 101.628 91.554 101.628 87.4494C101.628 83.3449 98.2959 80.0124 94.2032 80.0124ZM94.2032 94.2588C90.4536 94.2588 87.4051 91.2053 87.4051 87.4494C87.4051 83.6935 90.4536 80.64 94.2032 80.64C97.9528 80.64 101.001 83.6935 101.001 87.4494C101.001 91.2053 97.9528 94.2588 94.2032 94.2588ZM94.2032 81.1382C90.7321 81.1382 87.9024 83.9675 87.9024 87.4494C87.9024 90.9313 90.7271 93.7606 94.2032 93.7606C97.6793 93.7606 100.504 90.9313 100.504 87.4494C100.504 83.9675 97.6793 81.1382 94.2032 81.1382Z" fill="#007CBA"/>
<path d="M94.2021 95.7634C89.627 95.7634 85.9072 92.0325 85.9072 87.4497C85.9072 82.867 89.627 79.141 94.2021 79.141C98.7773 79.141 102.497 82.867 102.497 87.4497C102.497 92.0325 98.7773 95.7634 94.2021 95.7634ZM94.2021 81.517C90.9349 81.517 88.2744 84.177 88.2744 87.4547C88.2744 90.7324 90.9299 93.3923 94.2021 93.3923C97.4743 93.3923 100.13 90.7274 100.13 87.4547C100.13 84.182 97.4743 81.517 94.2021 81.517Z" fill="#007CBA"/>
<path d="M94.2028 95.6386C89.6973 95.6386 86.0322 91.9674 86.0322 87.4494C86.0322 82.9315 89.6973 79.2653 94.2028 79.2653C98.7083 79.2653 102.373 82.9364 102.373 87.4494C102.373 91.9625 98.7083 95.6386 94.2028 95.6386ZM86.5295 87.4494C86.5295 91.6885 89.9708 95.1405 94.2028 95.1405C98.4348 95.1405 101.876 91.6885 101.876 87.4494C101.876 91.6885 98.4348 95.1405 94.2028 95.1405C89.9708 95.1405 86.5295 91.6885 86.5295 87.4494ZM94.2028 80.2615C90.2443 80.2615 87.0268 83.4844 87.0268 87.4494C87.0268 91.4145 90.2443 94.6424 94.2028 94.6424C98.1613 94.6424 101.379 91.4145 101.379 87.4494C101.379 83.4844 98.1613 80.2615 94.2028 80.2615ZM94.2028 94.5079C90.3189 94.5079 87.1561 91.3398 87.1561 87.4494C87.1561 83.5591 90.3139 80.391 94.2028 80.391C98.0917 80.391 101.249 83.5541 101.249 87.4494C101.249 91.3448 98.0917 94.5079 94.2028 94.5079ZM87.6534 87.4494C87.6534 91.0658 90.5924 94.0098 94.2028 94.0098C97.8132 94.0098 100.752 91.0658 100.752 87.4494C100.752 91.0658 97.8132 94.0098 94.2028 94.0098C90.5924 94.0098 87.6534 91.0658 87.6534 87.4494ZM94.2028 81.3873C90.8659 81.3873 88.1507 84.107 88.1507 87.4494C88.1507 90.7919 90.8659 93.5116 94.2028 93.5116C97.5397 93.5116 100.255 90.7919 100.255 87.4494C100.255 84.107 97.5397 81.3873 94.2028 81.3873Z" fill="#007CBA"/>
<path d="M94.2027 96.0124C89.4933 96.0124 85.6592 92.1719 85.6592 87.4496C85.6592 82.7274 89.4933 78.8918 94.2027 78.8918C98.9121 78.8918 102.746 82.7324 102.746 87.4496C102.746 92.1669 98.9121 96.0124 94.2027 96.0124ZM94.2027 81.766C91.0747 81.766 88.5236 84.3164 88.5236 87.4546C88.5236 90.5928 91.0698 93.1432 94.2027 93.1432C97.3357 93.1432 99.8819 90.5928 99.8819 87.4546C99.8819 84.3164 97.3357 81.766 94.2027 81.766ZM101.752 87.4546H102C102 83.1458 98.4994 79.644 94.2027 79.644C89.9061 79.644 86.4051 83.1508 86.4051 87.4546H86.6538C86.6538 83.2853 90.0404 79.8931 94.2027 79.8931C98.3651 79.8931 101.752 83.2853 101.752 87.4546ZM100.623 87.4546H100.872C100.872 83.7685 97.8778 80.7698 94.1978 80.7698C90.5178 80.7698 87.524 83.7685 87.524 87.4546H87.7727C87.7727 83.908 90.652 81.0188 94.1978 81.0188C97.7435 81.0188 100.623 83.903 100.623 87.4546Z" fill="#007CBA"/>
<path d="M103.059 108.182H85.3403C85.027 108.182 84.7783 107.928 84.7783 107.619V100.371C84.7783 97.8309 86.8372 95.7637 89.3734 95.7637H99.0259C101.562 95.7637 103.626 97.8309 103.626 100.371V107.619C103.626 107.933 103.372 108.182 103.064 108.182H103.059ZM85.9072 107.051H102.497V100.366C102.497 98.4486 100.94 96.8894 99.0259 96.8894H89.3734C87.4637 96.8894 85.9072 98.4486 85.9072 100.366V107.051Z" fill="#007CBA"/>
<path d="M103.058 108.556H85.3397C84.8225 108.556 84.4048 108.137 84.4048 107.619V100.372C84.4048 97.6268 86.6327 95.3903 89.3728 95.3903H99.0253C101.765 95.3903 103.998 97.6219 103.998 100.372V107.619C103.998 108.137 103.581 108.556 103.063 108.556H103.058ZM89.3678 96.1374C87.0405 96.1374 85.1458 98.0353 85.1458 100.372V107.619C85.1458 107.724 85.2303 107.809 85.3347 107.809H103.053C103.158 107.809 103.242 107.724 103.242 107.619V100.372C103.242 98.0353 101.348 96.1374 99.0154 96.1374H89.3628H89.3678ZM102.864 107.425H85.5287V100.367C85.5287 98.2445 87.2493 96.516 89.3678 96.516H99.0203C101.139 96.516 102.864 98.2445 102.864 100.367V107.425ZM86.2746 106.678H102.118V100.367C102.118 98.658 100.726 97.2632 99.0203 97.2632H89.3678C87.6621 97.2632 86.2746 98.653 86.2746 100.367V106.678Z" fill="#007CBA"/>
<path d="M103.06 108.431H85.3409C84.8933 108.431 84.5303 108.068 84.5303 107.619V100.372C84.5303 97.6917 86.7035 95.5149 89.374 95.5149H99.0265C101.702 95.5149 103.875 97.6917 103.875 100.372V107.619C103.875 108.068 103.512 108.431 103.065 108.431H103.06ZM89.369 96.013C86.972 96.013 85.0226 97.9657 85.0226 100.372V107.619C85.0226 107.794 85.1618 107.933 85.3359 107.933H103.055C103.229 107.933 103.368 107.794 103.368 107.619V100.372C103.368 97.9706 101.418 96.013 99.0165 96.013H89.364H89.369ZM102.741 107.301H85.6542V100.367C85.6542 98.3143 87.3201 96.6407 89.369 96.6407H99.0215C101.07 96.6407 102.741 98.3143 102.741 100.367V107.301ZM86.1515 106.802H102.244V100.367C102.244 98.5883 100.797 97.1388 99.0215 97.1388H89.369C87.5936 97.1388 86.1515 98.5883 86.1515 100.367V106.802Z" fill="#007CBA"/>
<path d="M103.059 108.804H85.3403C84.6888 108.804 84.1567 108.271 84.1567 107.619V100.371C84.1567 97.4869 86.4941 95.1407 89.3734 95.1407H99.0259C101.905 95.1407 104.248 97.4869 104.248 100.371V107.619C104.248 108.271 103.715 108.804 103.064 108.804H103.059ZM86.5239 106.428H101.87V100.366C101.87 98.792 100.592 97.5118 99.0209 97.5118H89.3684C87.8019 97.5118 86.5239 98.792 86.5239 100.366V106.428Z" fill="#007CBA"/>
<path d="M103.06 108.431H85.3409C84.8933 108.431 84.5303 108.068 84.5303 107.619V100.372C84.5303 97.6917 86.7035 95.5149 89.374 95.5149H99.0265C101.702 95.5149 103.875 97.6917 103.875 100.372V107.619C103.875 108.068 103.512 108.431 103.065 108.431H103.06ZM89.369 96.013C86.972 96.013 85.0226 97.9657 85.0226 100.372V107.619C85.0226 107.794 85.1618 107.933 85.3359 107.933H103.055C103.229 107.933 103.368 107.794 103.368 107.619V100.372C103.368 97.9706 101.418 96.013 99.0165 96.013H89.364H89.369ZM102.741 107.301H85.6542V100.367C85.6542 98.3143 87.3201 96.6407 89.369 96.6407H99.0215C101.07 96.6407 102.741 98.3143 102.741 100.367V107.301ZM86.1515 106.802H102.244V100.367C102.244 98.5883 100.797 97.1388 99.0215 97.1388H89.369C87.5936 97.1388 86.1515 98.5883 86.1515 100.367V106.802Z" fill="#007CBA"/>
<path d="M103.059 108.804H85.3408C84.6893 108.804 84.1572 108.271 84.1572 107.619V100.371C84.1572 97.4869 86.4945 95.1407 89.3739 95.1407H99.0264C101.906 95.1407 104.248 97.4869 104.248 100.371V107.619C104.248 108.271 103.716 108.804 103.064 108.804H103.059ZM86.5244 106.428H101.871V100.366C101.871 98.792 100.593 97.5118 99.0214 97.5118H89.3689C87.8024 97.5118 86.5244 98.792 86.5244 100.366V106.428Z" fill="#007CBA"/>
<path d="M103.061 108.68H85.342C84.7551 108.68 84.2827 108.202 84.2827 107.619V100.371C84.2827 97.5568 86.5653 95.2654 89.3751 95.2654H99.0276C101.837 95.2654 104.125 97.5568 104.125 100.371V107.619C104.125 108.207 103.647 108.68 103.066 108.68H103.061ZM84.78 107.619C84.78 107.928 85.0336 108.182 85.342 108.182H103.061C103.369 108.182 103.623 107.928 103.623 107.619C103.623 107.928 103.369 108.182 103.061 108.182H85.342C85.0336 108.182 84.78 107.928 84.78 107.619ZM89.3751 96.2616C87.1173 96.2616 85.2773 98.1047 85.2773 100.371V107.619C85.2773 107.654 85.3071 107.684 85.342 107.684H103.061C103.095 107.684 103.125 107.654 103.125 107.619V100.371C103.125 98.1047 101.285 96.2616 99.0226 96.2616H89.3701H89.3751ZM102.996 107.549H85.4116V100.366C85.4116 98.1744 87.187 96.3911 89.3751 96.3911H99.0276C101.216 96.3911 102.996 98.1744 102.996 100.366V107.549ZM85.9089 107.051H102.499H85.9089ZM86.4062 106.553H102.001V100.366C102.001 98.7224 100.669 97.3874 99.0276 97.3874H89.3751C87.739 97.3874 86.4062 98.7224 86.4062 100.366V106.553Z" fill="#007CBA"/>
<path d="M103.06 109.054H85.3414C84.5507 109.054 83.9092 108.411 83.9092 107.619V100.371C83.9092 97.3528 86.3609 94.8921 89.3745 94.8921H99.027C102.041 94.8921 104.497 97.3478 104.497 100.371V107.619C104.497 108.411 103.856 109.054 103.065 109.054H103.06ZM84.6551 107.619H84.9038V100.371C84.9038 97.9008 86.9079 95.8883 89.3745 95.8883H99.027C101.494 95.8883 103.503 97.9008 103.503 100.371H103.751C103.751 97.7613 101.633 95.6393 99.027 95.6393H89.3745C86.7736 95.6393 84.6551 97.7613 84.6551 100.371V107.619ZM85.784 107.181H85.9083V106.683H86.0326V100.371C86.0326 98.5234 87.5295 97.0191 89.3745 97.0191H99.027C100.872 97.0191 102.374 98.5234 102.374 100.371H102.622C102.622 98.3839 101.011 96.77 99.027 96.77H89.3745C87.3953 96.77 85.784 98.3839 85.784 100.371V107.181ZM86.7786 106.185H101.628V100.371C101.628 98.9369 100.459 97.7663 99.027 97.7663H89.3745C87.9423 97.7663 86.7786 98.9369 86.7786 100.371V106.185Z" fill="#007CBA"/>
<path d="M74.7678 54.8169C70.5358 54.8169 67.0995 51.3699 67.0995 47.1259C67.0995 42.8819 70.5408 39.4398 74.7678 39.4398C78.9948 39.4398 82.4411 42.8868 82.4411 47.1259C82.4411 51.3649 78.9998 54.8169 74.7678 54.8169ZM74.7678 40.5706C71.1574 40.5706 68.2234 43.5145 68.2234 47.1309C68.2234 50.7473 71.1574 53.6912 74.7678 53.6912C78.3782 53.6912 81.3172 50.7473 81.3172 47.1309C81.3172 43.5145 78.3782 40.5706 74.7678 40.5706V40.5706Z" fill="#007CBA"/>
<path d="M74.7667 55.1907C70.3309 55.1907 66.7255 51.5743 66.7255 47.1261C66.7255 42.6778 70.3358 39.0664 74.7667 39.0664C79.1977 39.0664 82.813 42.6828 82.813 47.1261C82.813 51.5693 79.2026 55.1907 74.7667 55.1907ZM74.7667 39.8136C70.7436 39.8136 67.4714 43.0962 67.4714 47.1261C67.4714 51.1559 70.7436 54.4435 74.7667 54.4435C78.7899 54.4435 82.0671 51.1609 82.0671 47.1261C82.0671 43.0913 78.7899 39.8136 74.7667 39.8136V39.8136ZM74.7667 54.06C70.9525 54.06 67.8494 50.9517 67.8494 47.1261C67.8494 43.3005 70.9525 40.1922 74.7667 40.1922C78.581 40.1922 81.6891 43.3005 81.6891 47.1261C81.6891 50.9517 78.586 54.06 74.7667 54.06ZM74.7667 40.9443C71.3652 40.9443 68.5953 43.7189 68.5953 47.131C68.5953 50.5432 71.3652 53.3178 74.7667 53.3178C78.1683 53.3178 80.9432 50.5432 80.9432 47.131C80.9432 43.7189 78.1732 40.9443 74.7667 40.9443Z" fill="#007CBA"/>
<path d="M74.7664 55.0665C70.4002 55.0665 66.8495 51.5049 66.8495 47.1264C66.8495 42.7479 70.4002 39.1913 74.7664 39.1913C79.1327 39.1913 82.6884 42.7529 82.6884 47.1264C82.6884 51.5 79.1327 55.0665 74.7664 55.0665ZM74.7664 39.6894C70.6737 39.6894 67.3468 43.0268 67.3468 47.1264C67.3468 51.226 70.6787 54.5684 74.7664 54.5684C78.8542 54.5684 82.1911 51.231 82.1911 47.1264C82.1911 43.0219 78.8592 39.6894 74.7664 39.6894V39.6894ZM74.7664 53.9358C71.0218 53.9358 67.9734 50.8823 67.9734 47.1264C67.9734 43.3706 71.0218 40.317 74.7664 40.317C78.5111 40.317 81.5645 43.3706 81.5645 47.1264C81.5645 50.8823 78.5161 53.9358 74.7664 53.9358ZM74.7664 40.8202C71.2953 40.8202 68.4707 43.6495 68.4707 47.1314C68.4707 50.6133 71.2953 53.4426 74.7664 53.4426C78.2376 53.4426 81.0672 50.6133 81.0672 47.1314C81.0672 43.6495 78.2425 40.8202 74.7664 40.8202Z" fill="#007CBA"/>
<path d="M74.7664 55.4402C70.1962 55.4402 66.4764 51.7092 66.4764 47.1265C66.4764 42.5437 70.1962 38.8177 74.7664 38.8177C79.3365 38.8177 83.0613 42.5437 83.0613 47.1265C83.0613 51.7092 79.3415 55.4402 74.7664 55.4402ZM74.7664 41.1938C71.4991 41.1938 68.8436 43.8588 68.8436 47.1315C68.8436 50.4041 71.4991 53.0691 74.7664 53.0691C78.0336 53.0691 80.6942 50.4041 80.6942 47.1315C80.6942 43.8588 78.0336 41.1938 74.7664 41.1938Z" fill="#007CBA"/>
<path d="M74.7674 55.0668C70.4012 55.0668 66.8505 51.5052 66.8505 47.1267C66.8505 42.7481 70.4012 39.1915 74.7674 39.1915C79.1337 39.1915 82.6894 42.7531 82.6894 47.1267C82.6894 51.5002 79.1337 55.0668 74.7674 55.0668ZM74.7674 39.6897C70.6747 39.6897 67.3478 43.0271 67.3478 47.1267C67.3478 51.2262 70.6796 54.5686 74.7674 54.5686C78.8552 54.5686 82.1921 51.2312 82.1921 47.1267C82.1921 43.0221 78.8602 39.6897 74.7674 39.6897V39.6897ZM74.7674 53.936C71.0228 53.936 67.9744 50.8825 67.9744 47.1267C67.9744 43.3708 71.0228 40.3173 74.7674 40.3173C78.5121 40.3173 81.5655 43.3708 81.5655 47.1267C81.5655 50.8825 78.517 53.936 74.7674 53.936ZM74.7674 40.8204C71.2963 40.8204 68.4717 43.6497 68.4717 47.1316C68.4717 50.6135 71.2963 53.4429 74.7674 53.4429C78.2386 53.4429 81.0682 50.6135 81.0682 47.1316C81.0682 43.6497 78.2435 40.8204 74.7674 40.8204Z" fill="#007CBA"/>
<path d="M74.7673 55.4407C70.1972 55.4407 66.4774 51.7097 66.4774 47.127C66.4774 42.5442 70.1972 38.8182 74.7673 38.8182C79.3375 38.8182 83.0623 42.5442 83.0623 47.127C83.0623 51.7097 79.3425 55.4407 74.7673 55.4407ZM74.7673 41.1943C71.5001 41.1943 68.8446 43.8593 68.8446 47.1319C68.8446 50.4046 71.5001 53.0696 74.7673 53.0696C78.0346 53.0696 80.6951 50.4046 80.6951 47.1319C80.6951 43.8593 78.0346 41.1943 74.7673 41.1943Z" fill="#007CBA"/>
<path d="M74.768 55.3159C70.2625 55.3159 66.6024 51.6447 66.6024 47.1267C66.6024 42.6087 70.2675 38.9425 74.768 38.9425C79.2686 38.9425 82.9386 42.6137 82.9386 47.1267C82.9386 51.6397 79.2735 55.3159 74.768 55.3159ZM67.0997 47.1267C67.0997 51.3657 70.541 54.8177 74.768 54.8177C78.995 54.8177 82.4413 51.3707 82.4413 47.1267C82.4413 51.3657 79 54.8177 74.768 54.8177C70.536 54.8177 67.0997 51.3707 67.0997 47.1267ZM74.768 39.9388C70.8145 39.9388 67.597 43.1616 67.597 47.1267C67.597 51.0918 70.8145 54.3196 74.768 54.3196C78.7215 54.3196 81.944 51.0918 81.944 47.1267C81.944 43.1616 78.7265 39.9388 74.768 39.9388ZM74.768 54.1851C70.8841 54.1851 67.7263 51.0171 67.7263 47.1267C67.7263 43.2363 70.8841 40.0683 74.768 40.0683C78.6519 40.0683 81.8147 43.2314 81.8147 47.1267C81.8147 51.022 78.6569 54.1851 74.768 54.1851ZM68.2236 47.1267C68.2236 50.7431 71.1576 53.687 74.768 53.687C78.3784 53.687 81.3174 50.7431 81.3174 47.1267C81.3174 50.7431 78.3784 53.687 74.768 53.687C71.1576 53.687 68.2236 50.7431 68.2236 47.1267ZM74.768 41.0645C71.4361 41.0645 68.7209 43.7843 68.7209 47.1267C68.7209 50.4691 71.4312 53.1889 74.768 53.1889C78.1049 53.1889 80.8201 50.4691 80.8201 47.1267C80.8201 43.7843 78.1049 41.0645 74.768 41.0645Z" fill="#007CBA"/>
<path d="M74.7675 55.6896C70.0581 55.6896 66.2289 51.8491 66.2289 47.1269C66.2289 42.4047 70.0581 38.5691 74.7675 38.5691C79.4769 38.5691 83.311 42.4096 83.311 47.1269C83.311 51.8441 79.4769 55.6896 74.7675 55.6896ZM74.7675 41.4433C71.6395 41.4433 69.0933 43.9937 69.0933 47.1319C69.0933 50.27 71.6395 52.8204 74.7675 52.8204C77.8955 52.8204 80.4466 50.27 80.4466 47.1319C80.4466 43.9937 77.9004 41.4433 74.7675 41.4433ZM82.3164 47.1319H82.5651C82.5651 42.8231 79.0641 39.3213 74.7675 39.3213C70.4708 39.3213 66.9748 42.8281 66.9748 47.1319H67.2235C67.2235 42.9626 70.6101 39.5703 74.7675 39.5703C78.9249 39.5703 82.3164 42.9626 82.3164 47.1319ZM81.1876 47.1319H81.4362C81.4362 43.4457 78.4425 40.447 74.7625 40.447C71.0825 40.447 68.0937 43.4457 68.0937 47.1319H68.3424C68.3424 43.5852 71.2218 40.6961 74.7625 40.6961C78.3033 40.6961 81.1876 43.5802 81.1876 47.1319Z" fill="#007CBA"/>
<path d="M83.6248 67.853H65.911C65.5977 67.853 65.3491 67.5989 65.3491 67.2901V60.0424C65.3491 57.5019 67.4129 55.4397 69.9441 55.4397H79.5917C82.1279 55.4397 84.1867 57.5069 84.1867 60.0424V67.2901C84.1867 67.6039 83.9331 67.853 83.6248 67.853ZM66.473 66.7222H83.0628V60.0374C83.0628 58.1196 81.5063 56.5605 79.5917 56.5605H69.9441C68.0295 56.5605 66.473 58.1196 66.473 60.0374V66.7222Z" fill="#007CBA"/>
<path d="M83.6242 68.2269H65.9105C65.3933 68.2269 64.9756 67.8084 64.9756 67.2904V60.0427C64.9756 57.298 67.2035 55.0664 69.9436 55.0664H79.5911C82.3312 55.0664 84.5591 57.298 84.5591 60.0427V67.2904C84.5591 67.8084 84.1414 68.2269 83.6242 68.2269ZM69.9436 55.8086C67.6162 55.8086 65.7215 57.7065 65.7215 60.0377V67.2854C65.7215 67.39 65.806 67.4747 65.9105 67.4747H83.6242C83.7286 67.4747 83.8132 67.39 83.8132 67.2854V60.0377C83.8132 57.7065 81.9185 55.8086 79.5911 55.8086H69.9436ZM83.4352 67.0961H66.0995V60.0377C66.0995 57.9157 67.8251 56.1872 69.9436 56.1872H79.5911C81.7096 56.1872 83.4352 57.9157 83.4352 60.0377V67.0961ZM66.8454 66.3489H82.6893V60.0377C82.6893 58.3291 81.3018 56.9344 79.5911 56.9344H69.9436C68.2378 56.9344 66.8454 58.3241 66.8454 60.0377V66.3489Z" fill="#007CBA"/>
<path d="M83.6239 68.102H65.9102C65.4626 68.102 65.0996 67.7383 65.0996 67.29V60.0423C65.0996 57.3674 67.2728 55.1906 69.9433 55.1906H79.5908C82.2613 55.1906 84.4345 57.3674 84.4345 60.0423V67.29C84.4345 67.7383 84.0715 68.102 83.6239 68.102ZM69.9433 55.6837C67.5463 55.6837 65.5969 57.6363 65.5969 60.0373V67.285C65.5969 67.4594 65.7361 67.5988 65.9102 67.5988H83.6239C83.798 67.5988 83.9372 67.4594 83.9372 67.285V60.0373C83.9372 57.6363 81.9878 55.6837 79.5908 55.6837H69.9433ZM83.3106 66.9712H66.2235V60.0373C66.2235 57.985 67.8894 56.3113 69.9433 56.3113H79.5908C81.6397 56.3113 83.3106 57.9801 83.3106 60.0373V66.9712ZM66.7208 66.4731H82.8133V60.0373C82.8133 58.259 81.3662 56.8095 79.5908 56.8095H69.9433C68.1679 56.8095 66.7208 58.259 66.7208 60.0373V66.4731Z" fill="#007CBA"/>
<path d="M83.6238 68.4757H65.9101C65.2586 68.4757 64.7266 67.9427 64.7266 67.2902V60.0425C64.7266 57.1583 67.0688 54.8171 69.9432 54.8171H79.5907C82.4701 54.8171 84.8074 57.1633 84.8074 60.0425V67.2902C84.8074 67.9427 84.2753 68.4757 83.6238 68.4757ZM67.0937 66.0997H82.4403V60.0375C82.4403 58.4634 81.1622 57.1832 79.5907 57.1832H69.9432C68.3717 57.1832 67.0937 58.4634 67.0937 60.0375V66.0997Z" fill="#007CBA"/>
<path d="M83.6249 68.102H65.9112C65.4636 68.102 65.1006 67.7383 65.1006 67.29V60.0423C65.1006 57.3674 67.2738 55.1906 69.9443 55.1906H79.5918C82.2623 55.1906 84.4355 57.3674 84.4355 60.0423V67.29C84.4355 67.7383 84.0725 68.102 83.6249 68.102ZM69.9443 55.6837C67.5473 55.6837 65.5979 57.6363 65.5979 60.0373V67.285C65.5979 67.4594 65.7371 67.5988 65.9112 67.5988H83.6249C83.7989 67.5988 83.9382 67.4594 83.9382 67.285V60.0373C83.9382 57.6363 81.9888 55.6837 79.5918 55.6837H69.9443ZM83.3116 66.9712H66.2245V60.0373C66.2245 57.985 67.8904 56.3113 69.9443 56.3113H79.5918C81.6407 56.3113 83.3116 57.9801 83.3116 60.0373V66.9712ZM66.7217 66.4731H82.8143V60.0373C82.8143 58.259 81.3671 56.8095 79.5918 56.8095H69.9443C68.1689 56.8095 66.7217 58.259 66.7217 60.0373V66.4731Z" fill="#007CBA"/>
<path d="M83.6243 68.4757H65.9106C65.2591 68.4757 64.7271 67.9427 64.7271 67.2902V60.0425C64.7271 57.1583 67.0693 54.8171 69.9437 54.8171H79.5912C82.4706 54.8171 84.8079 57.1633 84.8079 60.0425V67.2902C84.8079 67.9427 84.2758 68.4757 83.6243 68.4757ZM67.0942 66.0997H82.4408V60.0375C82.4408 58.4634 81.1627 57.1832 79.5912 57.1832H69.9437C68.3722 57.1832 67.0942 58.4634 67.0942 60.0375V66.0997Z" fill="#007CBA"/>
<path d="M83.6255 68.3513H65.9118C65.3249 68.3513 64.8525 67.8731 64.8525 67.2903V60.0426C64.8525 57.2282 67.1401 54.9418 69.9449 54.9418H79.5924C82.4021 54.9418 84.6847 57.2282 84.6847 60.0426V67.2903C84.6847 67.8781 84.2073 68.3513 83.6255 68.3513ZM65.3449 67.2903C65.3449 67.5991 65.5985 67.8532 65.9068 67.8532H83.6205C83.9288 67.8532 84.1825 67.5991 84.1825 67.2903C84.1825 67.5991 83.9288 67.8532 83.6205 67.8532H65.9068C65.5985 67.8532 65.3449 67.5991 65.3449 67.2903ZM69.9399 55.938C67.6772 55.938 65.8422 57.7811 65.8422 60.0426V67.2903C65.8422 67.3252 65.872 67.355 65.9068 67.355H83.6205C83.6553 67.355 83.6852 67.3252 83.6852 67.2903V60.0426C83.6852 57.7811 81.8451 55.938 79.5874 55.938H69.9399ZM83.5559 67.2255H65.9715V60.0426C65.9715 57.8508 67.7518 56.0675 69.9399 56.0675H79.5874C81.7755 56.0675 83.5559 57.8508 83.5559 60.0426V67.2255ZM66.4688 66.7274H83.0586H66.4688ZM66.9661 66.2293H82.5613V60.0426C82.5613 58.4037 81.2285 57.0638 79.5874 57.0638H69.9399C68.3038 57.0638 66.9661 58.3988 66.9661 60.0426V66.2293Z" fill="#007CBA"/>
<path d="M83.6249 68.7252H65.9112C65.1205 68.7252 64.479 68.0826 64.479 67.2906V60.0429C64.479 57.0242 66.9307 54.5685 69.9443 54.5685H79.5918C82.6054 54.5685 85.0571 57.0242 85.0571 60.0429V67.2906C85.0571 68.0826 84.4156 68.7252 83.6249 68.7252ZM65.22 67.2906H65.4686V60.0429C65.4686 57.5722 67.4777 55.5647 69.9393 55.5647H79.5869C82.0534 55.5647 84.0576 57.5722 84.0576 60.0429H84.3062C84.3062 57.4377 82.1877 55.3157 79.5869 55.3157H69.9393C67.3335 55.3157 65.22 57.4377 65.22 60.0429V67.2906ZM66.3488 66.8522H66.4731V66.3541H66.5975V60.0429C66.5975 58.1948 68.0993 56.6905 69.9443 56.6905H79.5918C81.4368 56.6905 82.9387 58.1948 82.9387 60.0429H83.1873C83.1873 58.0603 81.576 56.4414 79.5918 56.4414H69.9443C67.965 56.4414 66.3488 58.0554 66.3488 60.0429V66.8522ZM67.3434 65.856H82.1927V60.0429C82.1927 58.6083 81.029 57.4377 79.5918 57.4377H69.9443C68.5121 57.4377 67.3434 58.6033 67.3434 60.0429V65.856Z" fill="#007CBA"/>
</g>
<defs>
<filter id="filter0_d_679_4473" x="0" y="0" width="150" height="150.202" filterUnits="userSpaceOnUse" color-interpolation-filters="sRGB">
<feFlood flood-opacity="0" result="BackgroundImageFix"/>
<feColorMatrix in="SourceAlpha" type="matrix" values="0 0 0 0 0 0 0 0 0 0 0 0 0 0 0 0 0 0 127 0" result="hardAlpha"/>
<feOffset dy="2"/>
<feGaussianBlur stdDeviation="5"/>
<feComposite in2="hardAlpha" operator="out"/>
<feColorMatrix type="matrix" values="0 0 0 0 0 0 0 0 0 0 0 0 0 0 0 0 0 0 0.2 0"/>
<feBlend mode="normal" in2="BackgroundImageFix" result="effect1_dropShadow_679_4473"/>
<feBlend mode="normal" in="SourceGraphic" in2="effect1_dropShadow_679_4473" result="shape"/>
</filter>
</defs>
</svg>
