<svg width="48" height="38" viewBox="0 0 48 38" fill="none" xmlns="http://www.w3.org/2000/svg">
<path d="M46.8322 2.71554C45.3047 0.848607 42.08 0 37.3278 0H14.9246C14.2457 0 13.5669 0 12.888 0H16.2824H7.11745C7.11745 0 6.778 6.44941 4.40191 13.5777L1.00748 24.7793C-0.0108481 28.004 -0.180569 30.5498 0.158873 32.4168C0.668037 34.2837 1.68636 35.6415 3.5533 36.3204C5.25051 36.9992 8.47522 37.5084 11.6999 37.5084H37.3278L41.4011 28.6829C39.025 29.8709 36.1398 30.5498 32.7454 30.5498H20.0163C18.6585 30.5498 17.4704 30.3801 16.7916 30.2104C16.1127 30.0407 15.6035 29.5315 15.4338 28.8526C15.2641 28.1737 15.4338 26.9857 15.943 25.6279L16.9613 22.5729H43.947L47.0019 12.7291C48.3597 7.80718 48.3597 4.58248 46.8322 2.71554ZM33.2545 11.2016L32.0665 15.2749H19.1677L20.5254 10.6924C20.8649 9.33467 21.374 8.48607 21.8832 7.9769C22.3924 7.46774 23.241 7.1283 24.2593 7.1283H31.3876C32.5756 7.1283 33.2545 7.46774 33.4242 8.14662C33.7637 8.82551 33.594 9.84383 33.2545 11.2016Z" fill="#007CBA"/>
</svg>
