<svg width="170" height="171" viewBox="0 0 170 171" fill="none" xmlns="http://www.w3.org/2000/svg">
<path d="M0.25 170.082V0.582031H169.75V170.082H0.25Z" fill="white" stroke="#B8B1B1" stroke-width="0.5"/>
<path d="M60.3178 91.9901V89.5742H58.7072V86.9897H55.7776V89.5742H54.3152V91.9901H55.7776V96.4447C55.7776 97.8535 56.899 99.9518 59.3198 99.9518L60.3128 99.9122L60.3227 97.2185C60.214 97.2285 60.1498 97.2285 60.13 97.2285C59.2852 97.2285 58.7072 96.5042 58.7072 95.7502V91.9901H60.3178Z" fill="#005992"/>
<path d="M53.7713 95.7053H46.262C46.3114 96.8363 47.2747 97.9822 48.6333 97.9822C49.3447 97.9822 50.2291 97.5953 50.7182 96.6974H53.5095C53.1933 97.6449 52.4769 98.6221 51.6568 99.2571C50.7775 99.9268 49.7499 100.259 48.6729 100.259C47.2254 100.259 45.9952 99.7284 44.9676 98.6519C43.94 97.5903 43.4558 96.1369 43.4558 94.7578C43.4558 93.3788 43.9251 91.9948 44.933 90.9084C45.9507 89.8071 47.255 89.2466 48.6531 89.2466C50.0512 89.2466 51.3703 89.8071 52.3732 90.9084C53.3514 91.9948 53.8899 93.3689 53.8455 94.8918C53.8356 95.1249 53.8059 95.492 53.7713 95.7053ZM50.9603 93.6318C50.7577 92.4511 49.7647 91.6029 48.6333 91.6029C47.5662 91.6029 46.5189 92.3867 46.3114 93.6318H50.9603Z" fill="#005992"/>
<path d="M39.4053 92.317C39.4053 90.6751 40.6947 89.5688 42.0434 89.5688H42.3299V99.9415H39.4102V92.3121L39.4053 92.317Z" fill="#005992"/>
<path d="M61.5034 92.317C61.5034 90.6751 62.7879 89.5688 64.1366 89.5688H64.4232V99.9415H61.5084V92.3121L61.5034 92.317Z" fill="#005992"/>
<path d="M72.1542 99.9417V93.6714C72.1542 92.8529 71.5515 92.0047 70.5585 92.0047C69.3332 92.0047 68.8936 93.0315 68.8936 93.726V99.9466H65.9146V89.5938H68.691V90.6951H68.7355C69.274 89.9361 70.3065 89.2466 71.5367 89.2466C73.7549 89.2466 75.1333 91.1415 75.1333 92.9571V99.9466H72.1542V99.9417Z" fill="#005992"/>
<path d="M96.0165 89.5788V90.68H95.977C95.7003 90.1988 95.2853 89.8268 94.732 89.5688C94.2379 89.3456 93.6945 89.2266 93.1115 89.2266C91.6739 89.2266 90.4783 89.7673 89.5396 90.8586C88.6355 91.9053 88.1909 93.205 88.1909 94.7576C88.1909 96.3103 88.6306 97.6348 89.5149 98.6716C90.4338 99.7431 91.6344 100.284 93.1165 100.284C93.7093 100.284 94.2577 100.17 94.7518 99.9415C95.3248 99.6835 95.7349 99.3016 95.9819 98.8055H96.0214V99.9266H98.956V89.5788H96.0214H96.0165ZM95.3001 96.6328C94.8456 97.1338 94.2725 97.3868 93.5809 97.3868C92.8892 97.3868 92.3458 97.1338 91.8764 96.6278C91.4219 96.1169 91.1947 95.5117 91.1947 94.7874C91.1947 94.0632 91.4121 93.4034 91.8518 92.9024C92.3013 92.3766 92.8744 92.1186 93.5661 92.1186C94.2577 92.1186 94.8407 92.3716 95.2902 92.8677C95.7448 93.3637 95.972 93.9888 95.972 94.7527C95.972 95.5166 95.7497 96.1317 95.2952 96.6328" fill="#005992"/>
<path fill-rule="evenodd" clip-rule="evenodd" d="M128.213 78.5565H135.031V84.8019C137.565 85.2037 139.956 86.0421 142.145 87.2525C142.852 85.6948 143.252 83.9487 143.252 82.0984C143.252 75.4164 138.04 70.0044 131.617 70.0044C125.195 70.0044 119.997 75.4164 119.997 82.0984C119.997 83.9388 120.393 85.6849 121.094 87.2425C123.283 86.0371 125.674 85.1938 128.208 84.797V78.5565H128.213Z" fill="#005992"/>
<path fill-rule="evenodd" clip-rule="evenodd" d="M131.617 94.1674C135.678 94.1674 139.254 91.9997 141.339 88.7058C138.434 87.1085 135.124 86.2007 131.607 86.2007C128.089 86.2007 124.789 87.0986 121.894 88.7008C123.969 91.9897 127.546 94.1674 131.621 94.1674" fill="#D51D4B"/>
<path d="M106.673 99.9417V93.6714C106.673 92.8529 106.071 92.0047 105.078 92.0047C103.852 92.0047 103.413 93.0315 103.413 93.726V99.9466H100.434V89.5938H103.205V90.6951H103.25C103.793 89.9361 104.821 89.2466 106.051 89.2466C108.269 89.2466 109.647 91.1415 109.647 92.9571V99.9466H106.673V99.9417Z" fill="#005992"/>
<path d="M33.5057 99.9417C34.2616 99.9417 35.2942 99.5151 35.7734 98.2203C37.0184 94.8967 40.778 84.9507 40.778 84.9507H37.7643L34.1727 94.4651L30.5859 84.9507H26.9399L32.5967 99.9417H33.5008H33.5057Z" fill="#005992"/>
<path d="M85.0086 91.8955C86.9254 90.8091 86.8118 88.9539 86.6142 87.932C86.3672 86.6472 85.0679 84.9457 82.1185 84.9605H76.6248V99.9466H82.2173C85.8337 99.9466 87.4837 97.7589 87.4343 95.3977C87.4096 94.346 87.128 92.585 85.0086 91.8955ZM79.9694 87.7286H82.1382C83.0473 87.7286 83.7142 88.4429 83.7142 89.2862C83.7142 90.2386 82.8991 90.8438 82.1382 90.8389H79.9694V87.7286ZM82.7113 97.1736H79.9546V93.6119H82.6619C83.892 93.6119 84.4009 94.6883 84.4009 95.3282C84.4009 96.4493 83.571 97.1686 82.7113 97.1686" fill="#005992"/>
<path d="M116.889 94.1825L121.098 89.5741H117.368L114.172 93.2698L114.182 87.6593C114.182 86.0174 112.892 84.9111 111.544 84.9111H111.134V99.9269H114.172V95.2689L117.186 99.9269H121.098L116.889 94.1825Z" fill="#005992"/>
</svg>
