<svg width="150" height="151" viewBox="0 0 150 151" fill="none" xmlns="http://www.w3.org/2000/svg">
<g filter="url(#filter0_d_679_4404)">
<ellipse cx="75" cy="73.1009" rx="65" ry="65.1009" fill="white"/>
</g>
<path d="M41.7318 106.386C41.3795 106.386 41.0948 106.077 41.0997 105.7L41.4423 42.1096C41.4423 41.7374 41.727 41.4329 42.0793 41.4329H54.7704C54.9248 41.4329 55.0744 41.4957 55.1902 41.6069L63.5288 49.5484L106.732 48.9007C106.92 48.8717 107.065 48.9684 107.185 49.0989C107.306 49.2246 107.374 49.4034 107.374 49.5823V62.7586C107.374 63.1356 107.089 63.4401 106.737 63.4401C106.384 63.4401 106.1 63.1356 106.1 62.7586V50.2735L63.2923 50.9163C63.1234 50.9453 62.9786 50.8583 62.8628 50.7423L54.5243 42.8008H42.7066L42.3688 105.714C42.3688 106.087 42.0841 106.391 41.7318 106.391V106.386Z" fill="#007CBA"/>
<path d="M41.7321 106.725C41.1917 106.725 40.7622 106.261 40.7622 105.7L41.1048 42.1095C41.1048 41.5488 41.5439 41.0992 42.0748 41.0992H54.7659C55.0072 41.0992 55.2436 41.1959 55.4222 41.3651L63.6594 49.21L106.708 48.5623C106.969 48.5284 107.215 48.6299 107.432 48.862C107.615 49.0553 107.712 49.3066 107.712 49.5773V62.7536C107.712 63.3143 107.277 63.7735 106.742 63.7735C106.206 63.7735 105.772 63.3192 105.772 62.7536V50.6117L63.3312 51.2497C63.1575 51.2691 62.9066 51.2401 62.6412 50.9839L54.3992 43.1342H43.0495L42.7117 105.71C42.7117 106.265 42.2726 106.72 41.7418 106.72L41.7321 106.725ZM42.0748 41.7711C41.9107 41.7711 41.7756 41.9258 41.7756 42.1143L41.4329 105.705C41.4329 105.893 41.5681 106.053 41.7321 106.053C41.8962 106.053 42.0313 105.898 42.0313 105.71L42.3739 42.4623H54.6597L63.0996 50.4957C63.1623 50.5537 63.2106 50.5875 63.2444 50.5827H63.2974L106.443 49.9302V62.7536C106.443 62.9421 106.578 63.0968 106.742 63.0968C106.906 63.0968 107.041 62.9421 107.041 62.7536V49.5773C107.041 49.4807 107.007 49.3888 106.944 49.326C106.843 49.2196 106.804 49.2293 106.785 49.2293H106.737L63.394 49.8867L54.9589 41.8533C54.9058 41.8001 54.8383 41.7711 54.7659 41.7711H42.0748V41.7711Z" fill="#007CBA"/>
<path d="M41.7327 106.647C41.2453 106.647 40.8545 106.217 40.8545 105.7L41.1971 42.1096C41.1971 41.5924 41.5928 41.1719 42.0754 41.1719H54.7665C54.9836 41.1719 55.1911 41.2589 55.3504 41.4136L63.6165 49.2874L106.728 48.6397C106.931 48.6059 107.152 48.6977 107.355 48.9104C107.519 49.0844 107.616 49.3309 107.616 49.5775V62.7489C107.616 63.2661 107.22 63.6915 106.737 63.6915C106.255 63.6915 105.859 63.271 105.859 62.7489V50.5297L63.298 51.1677C63.1098 51.2015 62.9023 51.1242 62.6997 50.9309L54.4287 43.0521H42.9439L42.6061 105.705C42.6061 106.222 42.2105 106.643 41.7279 106.643L41.7327 106.647ZM42.0754 41.6939C41.8582 41.6939 41.6845 41.8824 41.6797 42.1144L41.337 105.705C41.337 105.937 41.5108 106.125 41.7279 106.13C41.9451 106.13 42.1188 105.942 42.1236 105.71L42.4662 42.5398H54.6169L63.0278 50.549C63.1484 50.665 63.216 50.665 63.2594 50.6602L106.347 50.0125V62.7586C106.347 62.9906 106.525 63.1791 106.742 63.1791C106.959 63.1791 107.138 62.9906 107.138 62.7586V49.5871C107.138 49.4759 107.095 49.3648 107.022 49.2874C106.906 49.1618 106.834 49.1521 106.771 49.1618L63.4428 49.8143L55.0367 41.8099C54.9643 41.7422 54.8727 41.7036 54.7761 41.7036H42.085L42.0754 41.6939Z" fill="#007CBA"/>
<path d="M41.7327 106.981C41.062 106.976 40.5167 106.396 40.5215 105.695L40.8641 42.1048C40.8641 41.404 41.4142 40.8336 42.0802 40.8336H54.7713C55.0753 40.8336 55.3649 40.9496 55.5868 41.1671L63.7516 48.9443L106.704 48.3015C107.013 48.2628 107.336 48.3933 107.601 48.6785C107.823 48.9153 107.954 49.244 107.954 49.5775V62.749C107.954 63.4547 107.408 64.0251 106.737 64.0251C106.067 64.0251 105.521 63.4499 105.521 62.749V50.8729L63.327 51.5061C63.0374 51.5496 62.7334 51.4288 62.468 51.1726L54.2984 43.3906H43.2817L42.9439 105.71C42.9391 106.411 42.3938 106.981 41.7279 106.981H41.7327ZM42.0753 42.0323C42.0753 42.0323 42.0174 42.0662 42.0174 42.1193L41.6748 105.705C41.6748 105.753 41.7038 105.792 41.7327 105.792C41.7568 105.792 41.7906 105.758 41.7906 105.705L42.1332 42.2015H54.752L63.2594 50.3026C63.2594 50.3026 63.2739 50.3171 63.2787 50.3219L106.684 49.6694V62.7587C106.684 62.8554 106.8 62.8554 106.8 62.7587V49.5872C106.8 49.563 106.791 49.534 106.776 49.5195C106.766 49.5099 106.762 49.505 106.757 49.5002L63.3077 50.1576L54.8003 42.0565L42.0802 42.042L42.0753 42.0323Z" fill="#007CBA"/>
<path d="M101.628 63.7109H60.3118C59.9595 63.7109 59.6748 63.4015 59.6748 63.0197V59.3897C59.6748 56.8569 61.4892 54.8751 63.8055 54.8751H98.1439C100.417 54.8751 102.265 56.9004 102.265 59.3897V63.0197C102.265 63.4015 101.98 63.7109 101.628 63.7109V63.7109ZM60.9487 62.3333H100.991V59.3897C100.991 57.6593 99.7122 56.2575 98.1391 56.2575H63.8006C62.1986 56.2575 60.9439 57.6351 60.9439 59.3897V62.3333H60.9487Z" fill="#007CBA"/>
<path d="M101.628 64.0443H60.3117C59.7761 64.0443 59.3418 63.5851 59.3418 63.0196V59.3896C59.3418 56.6683 61.301 54.5415 63.8054 54.5415H98.1439C100.605 54.5415 102.603 56.7166 102.603 59.3896V63.0196C102.603 63.5851 102.168 64.0443 101.633 64.0443H101.628ZM63.8054 55.2085C61.6774 55.2085 60.0125 57.0453 60.0125 59.3847V63.0147C60.0125 63.2081 60.1477 63.3676 60.3117 63.3676H101.628C101.792 63.3676 101.927 63.2081 101.927 63.0147V59.3847C101.927 57.0791 100.229 55.2085 98.1391 55.2085H63.8006H63.8054ZM101.329 62.6667H60.6109V59.3896C60.6109 57.4416 62.0151 55.9191 63.8054 55.9191H98.1439C99.9004 55.9191 101.329 57.4755 101.329 59.3896V62.6667ZM61.2865 61.9949H100.658V59.3896C100.658 57.8477 99.5288 56.5909 98.1439 56.5909H63.8054C62.3915 56.5909 61.2865 57.8187 61.2865 59.3896V61.9949Z" fill="#007CBA"/>
<path d="M101.628 63.9719H60.3118C59.8293 63.9719 59.4336 63.5466 59.4336 63.0197V59.3897C59.4336 56.7119 61.3542 54.6141 63.8055 54.6141H98.144C100.552 54.6141 102.511 56.7554 102.511 59.3897V63.0197C102.511 63.5466 102.115 63.9719 101.633 63.9719H101.628ZM63.8055 55.1362C61.6244 55.1362 59.921 57.0019 59.921 59.3849V63.0149C59.921 63.2517 60.0995 63.4402 60.3167 63.4402H101.633C101.85 63.4402 102.029 63.2469 102.029 63.0149V59.3849C102.029 57.0406 100.287 55.1362 98.1488 55.1362H63.8103H63.8055ZM101.237 62.5895H60.7075V59.3849C60.7075 57.4804 62.0683 55.9869 63.8055 55.9869H98.144C99.8474 55.9869 101.237 57.5094 101.237 59.3849V62.5895ZM61.1949 62.0627H100.755V59.3849C100.755 57.7995 99.5868 56.5137 98.1488 56.5137H63.8103C62.3434 56.5137 61.1949 57.7753 61.1949 59.3849V62.0627V62.0627Z" fill="#007CBA"/>
<path d="M101.628 64.3105H60.3117C59.641 64.3105 59.0957 63.7305 59.0957 63.0199V59.3899C59.0957 56.5236 61.161 54.276 63.8006 54.276H98.1391C100.73 54.276 102.839 56.5719 102.839 59.3899V63.0199C102.839 63.7305 102.294 64.3105 101.623 64.3105H101.628ZM63.8054 55.4747C61.8125 55.4747 60.2538 57.1955 60.2538 59.3899V63.0199C60.2538 63.0731 60.2876 63.1118 60.3117 63.1118H101.628C101.628 63.1118 101.686 63.0779 101.686 63.0199V59.3899C101.686 57.2293 100.093 55.4747 98.1391 55.4747H63.8006H63.8054ZM101.57 62.9329H60.3696V59.3899C60.3696 57.297 61.88 55.6584 63.8054 55.6584H98.1439C100.036 55.6584 101.575 57.3308 101.575 59.3899V62.9329H101.57ZM61.5278 61.7342H100.417V59.3899C100.417 57.993 99.3985 56.8571 98.1439 56.8571H63.8054C62.5267 56.8571 61.5278 57.9688 61.5278 59.3899V61.7342Z" fill="#007CBA"/>
<path d="M106.654 106.348H42.0788C41.881 106.348 41.6928 106.247 41.5721 106.073C41.4515 105.899 41.4129 105.676 41.4708 105.468L52.7963 62.7444C52.8735 62.4496 53.1245 62.2466 53.4092 62.2466H117.907C118.105 62.2466 118.293 62.3481 118.414 62.5221C118.535 62.6961 118.573 62.9184 118.52 63.1263L107.272 105.85C107.195 106.145 106.944 106.348 106.659 106.348H106.654ZM42.9233 104.97H106.176L117.063 63.6241H53.8869L42.9233 104.97V104.97Z" fill="#007CBA"/>
<path d="M106.655 106.681H42.0795C41.7706 106.681 41.4763 106.527 41.2977 106.261C41.1192 106.005 41.0661 105.681 41.1433 105.376L52.4737 62.6524C52.5895 62.2125 52.9755 61.9032 53.4098 61.9032H117.908C118.217 61.9032 118.511 62.0579 118.69 62.3237C118.868 62.5799 118.921 62.8989 118.844 63.2034L107.596 105.927C107.48 106.372 107.094 106.677 106.66 106.677L106.655 106.681ZM53.405 62.5751C53.2747 62.5751 53.1589 62.6766 53.1203 62.8264L41.7948 105.55C41.7658 105.661 41.7851 105.787 41.8479 105.879C41.9058 105.961 41.9878 106.01 42.0795 106.01H106.655C106.785 106.01 106.901 105.908 106.939 105.758L118.188 63.0343C118.217 62.9231 118.197 62.8022 118.135 62.7104C118.077 62.6282 117.995 62.5799 117.903 62.5799H53.405V62.5751ZM106.433 105.299H42.4848L42.5958 104.878L53.6222 63.2808H117.493L106.428 105.299H106.433ZM43.3582 104.627H105.916L116.624 63.9526H54.1433L43.3582 104.627Z" fill="#007CBA"/>
<path d="M106.656 106.609H42.0802C41.8052 106.609 41.5446 106.468 41.3806 106.227C41.2165 105.99 41.1634 105.676 41.2358 105.391L52.5661 62.6667C52.6723 62.2606 53.0197 61.9755 53.4106 61.9755H117.909C118.184 61.9755 118.444 62.1156 118.608 62.3573C118.772 62.5942 118.826 62.9035 118.753 63.1935L107.505 105.917C107.399 106.323 107.051 106.609 106.66 106.609H106.656ZM53.4058 62.5023C53.2321 62.5023 53.0776 62.628 53.0294 62.8117L41.7039 105.536C41.6701 105.661 41.6942 105.801 41.7666 105.913C41.839 106.019 41.9596 106.082 42.0802 106.082H106.656C106.829 106.082 106.984 105.956 107.032 105.772L118.28 63.0485C118.314 62.918 118.29 62.7827 118.218 62.6763C118.145 62.57 118.029 62.5072 117.904 62.5072H53.4058V62.5023ZM106.356 105.226H42.6014L53.7001 63.353H117.378L117.291 63.6865L106.356 105.221V105.226ZM43.2432 104.699H105.99L116.736 63.8799H54.0669L43.2432 104.699V104.699Z" fill="#007CBA"/>
<path d="M106.655 106.947H42.0797C41.6937 106.947 41.3318 106.749 41.105 106.425C40.883 106.106 40.8155 105.69 40.912 105.313L52.2423 62.5893C52.3871 62.0383 52.8696 61.6516 53.4101 61.6516H117.908C118.294 61.6516 118.661 61.8498 118.888 62.1785C119.105 62.4927 119.177 62.9083 119.081 63.2902L107.832 106.014C107.683 106.57 107.205 106.957 106.665 106.957L106.655 106.947ZM53.4053 62.8407C53.4053 62.8407 53.3618 62.86 53.3522 62.8987L42.0267 105.623C42.017 105.656 42.0267 105.695 42.0411 105.719C42.0508 105.734 42.0701 105.743 42.0797 105.743H106.655C106.655 105.743 106.698 105.724 106.708 105.685L117.956 62.9615C117.966 62.9277 117.956 62.8938 117.942 62.8648L117.903 62.8407H53.4053V62.8407ZM106.616 105.565H42.1618L42.2728 105.144L53.439 63.0243H117.812L117.609 63.7832L106.607 105.569L106.616 105.565ZM43.6818 104.366H105.733L116.301 64.2182H54.3269L43.6818 104.366Z" fill="#007CBA"/>
<path d="M78.8466 81.8555C75.5896 81.8555 72.9409 78.9952 72.9409 75.4727C72.9409 71.9502 75.5896 69.094 78.8466 69.094C82.1037 69.094 84.6794 71.9543 84.6794 75.4727C84.6794 78.9912 82.0632 81.8555 78.8466 81.8555ZM78.8466 70.256C76.1818 70.256 74.0117 72.5962 74.0117 75.4768C74.0117 78.3574 76.1818 80.6976 78.8466 80.6976C81.5115 80.6976 83.6126 78.3574 83.6126 75.4768C83.6126 72.5962 81.475 70.256 78.8466 70.256V70.256Z" fill="#FF6E01"/>
<path d="M78.8469 82.1358C75.4357 82.1358 72.6572 79.1455 72.6572 75.4727C72.6572 71.7999 75.4316 68.8096 78.8469 68.8096C82.2621 68.8096 84.9635 71.7999 84.9635 75.4727C84.9635 79.1455 82.2216 82.1358 78.8469 82.1358ZM78.8469 69.3743C75.748 69.3743 73.2251 72.1086 73.2251 75.4686C73.2251 78.8286 75.748 81.567 78.8469 81.567C81.9458 81.567 84.3997 78.8327 84.3997 75.4686C84.3997 72.1046 81.9093 69.3743 78.8469 69.3743ZM78.8469 80.9738C76.0238 80.9738 73.7281 78.5036 73.7281 75.4686C73.7281 72.4337 76.0238 69.9675 78.8469 69.9675C81.6699 69.9675 83.8927 72.4377 83.8927 75.4686C83.8927 78.4995 81.6294 80.9738 78.8469 80.9738ZM78.8469 70.5322C76.3361 70.5322 74.2918 72.7465 74.2918 75.4686C74.2918 78.1908 76.3361 80.4091 78.8469 80.4091C81.3576 80.4091 83.3289 78.1948 83.3289 75.4686C83.3289 72.7424 81.3171 70.5322 78.8469 70.5322V70.5322Z" fill="#FF6E01"/>
<path d="M78.8453 82.0751C75.4747 82.0751 72.7368 79.1133 72.7368 75.4729C72.7368 71.8326 75.4788 68.8707 78.8453 68.8707C82.2119 68.8707 84.8809 71.8326 84.8809 75.4729C84.8809 79.1133 82.1714 82.0751 78.8453 82.0751ZM78.8453 69.3136C75.7018 69.3136 73.1424 72.0763 73.1424 75.4729C73.1424 78.8695 75.7018 81.6322 78.8453 81.6322C81.9888 81.6322 84.4753 78.8695 84.4753 75.4729C84.4753 72.0763 81.9483 69.3136 78.8453 69.3136ZM78.8453 80.9131C76.0669 80.9131 73.8036 78.4713 73.8036 75.4689C73.8036 72.4664 76.0628 70.0286 78.8453 70.0286C81.6279 70.0286 83.8141 72.4704 83.8141 75.4689C83.8141 78.4673 81.5873 80.9131 78.8453 80.9131ZM78.8453 70.4715C76.29 70.4715 74.2133 72.7142 74.2133 75.4689C74.2133 78.2235 76.29 80.4703 78.8453 80.4703C81.4007 80.4703 83.4044 78.2275 83.4044 75.4689C83.4044 72.7102 81.3601 70.4715 78.8453 70.4715Z" fill="#FF6E01"/>
<path d="M78.8456 82.3592C75.3208 82.3592 72.4531 79.2714 72.4531 75.4726C72.4531 71.6738 75.3208 68.5901 78.8456 68.5901C82.3704 68.5901 85.165 71.6779 85.165 75.4726C85.165 79.2673 82.3298 82.3592 78.8456 82.3592ZM78.8456 69.5977C75.8562 69.5977 73.4266 72.2345 73.4266 75.4726C73.4266 78.7107 75.8562 81.3516 78.8456 81.3516C81.835 81.3516 84.1916 78.7148 84.1916 75.4726C84.1916 72.2304 81.7944 69.5977 78.8456 69.5977ZM78.8456 81.1972C75.909 81.1972 73.5239 78.6295 73.5239 75.4726C73.5239 72.3158 75.913 69.748 78.8456 69.748C81.7782 69.748 84.0942 72.3158 84.0942 75.4726C84.0942 78.6295 81.7376 81.1972 78.8456 81.1972ZM78.8456 70.7556C76.4484 70.7556 74.4974 72.8724 74.4974 75.4726C74.4974 78.0729 76.4484 80.1896 78.8456 80.1896C81.2428 80.1896 83.1248 78.0729 83.1248 75.4726C83.1248 72.8724 81.2063 70.7556 78.8456 70.7556V70.7556Z" fill="#FF6E01"/>
<path d="M93.0267 81.3069C90.6782 81.3069 88.7637 79.182 88.7637 76.5736C88.7637 73.9653 90.6741 71.8363 93.0267 71.8363C95.3792 71.8363 97.3545 73.9612 97.3545 76.5736C97.3545 79.1861 95.4117 81.3069 93.0267 81.3069ZM93.0267 72.9942C91.2663 72.9942 89.8345 74.5991 89.8345 76.5736C89.8345 78.5482 91.2663 80.1449 93.0267 80.1449C94.787 80.1449 96.2878 78.5076 96.2878 76.5736C96.2878 74.6397 94.8276 72.9942 93.0267 72.9942Z" fill="#FF6E01"/>
<path d="M93.0272 81.5915C90.5205 81.5915 88.4844 79.3406 88.4844 76.5779C88.4844 73.8151 90.5246 71.5562 93.0272 71.5562C95.5299 71.5562 97.6391 73.807 97.6391 76.5779C97.6391 79.3488 95.5704 81.5915 93.0272 81.5915ZM93.0272 72.1209C90.8329 72.1209 89.0482 74.1198 89.0482 76.5779C89.0482 79.0359 90.8329 81.0267 93.0272 81.0267C95.2216 81.0267 97.0753 79.0319 97.0753 76.5779C97.0753 74.1239 95.2581 72.1209 93.0272 72.1209ZM93.0272 80.4336C91.1127 80.4336 89.5552 78.7028 89.5552 76.5779C89.5552 74.453 91.1127 72.7181 93.0272 72.7181C94.9417 72.7181 96.5683 74.4489 96.5683 76.5779C96.5683 78.7068 94.9458 80.4336 93.0272 80.4336ZM93.0272 73.2829C91.421 73.2829 90.119 74.7618 90.119 76.5779C90.119 78.394 91.4251 79.8688 93.0272 79.8688C94.6294 79.8688 96.0044 78.3615 96.0044 76.5779C96.0044 74.7943 94.67 73.2829 93.0272 73.2829V73.2829Z" fill="#FF6E01"/>
<path d="M93.0268 81.5305C90.5648 81.5305 88.561 79.3081 88.561 76.5778C88.561 73.8476 90.5648 71.6171 93.0268 71.6171C95.4889 71.6171 97.5616 73.8395 97.5616 76.5778C97.5616 79.3162 95.5295 81.5305 93.0268 81.5305ZM93.0268 72.0599C90.7878 72.0599 88.9707 74.0873 88.9707 76.5778C88.9707 79.0684 90.7919 81.0876 93.0268 81.0876C95.2618 81.0876 97.1519 79.0643 97.1519 76.5778C97.1519 74.0914 95.3023 72.0599 93.0268 72.0599ZM93.0268 80.3726C91.1529 80.3726 89.6318 78.6702 89.6318 76.5778C89.6318 74.4855 91.1569 72.7791 93.0268 72.7791C94.8967 72.7791 96.4908 74.4855 96.4908 76.5778C96.4908 78.6702 94.9048 80.3726 93.0268 80.3726ZM93.0268 73.2219C91.38 73.2219 90.0375 74.7292 90.0375 76.5778C90.0375 78.4265 91.376 79.9297 93.0268 79.9297C94.6777 79.9297 96.0811 78.394 96.0811 76.5778C96.0811 74.7617 94.7101 73.2219 93.0268 73.2219V73.2219Z" fill="#FF6E01"/>
<path d="M93.0269 81.8111C90.4107 81.8111 88.2812 79.4627 88.2812 76.574C88.2812 73.6853 90.4107 71.3329 93.0269 71.3329C95.6431 71.3329 97.8415 73.6853 97.8415 76.574C97.8415 79.4627 95.6796 81.8111 93.0269 81.8111ZM93.0269 72.3405C90.9461 72.3405 89.2507 74.2378 89.2507 76.574C89.2507 78.9102 90.9461 80.8035 93.0269 80.8035C95.1077 80.8035 96.8721 78.9061 96.8721 76.574C96.8721 74.2419 95.1483 72.3405 93.0269 72.3405V72.3405ZM93.0269 80.6531C90.9988 80.6531 89.348 78.8248 89.348 76.5781C89.348 74.3313 90.9988 72.4949 93.0269 72.4949C95.055 72.4949 96.7748 74.3272 96.7748 76.5781C96.7748 78.8289 95.059 80.6531 93.0269 80.6531ZM93.0269 73.5025C91.5343 73.5025 90.3215 74.8838 90.3215 76.5781C90.3215 78.2723 91.5343 79.6455 93.0269 79.6455C94.5196 79.6455 95.8013 78.2398 95.8013 76.5781C95.8013 74.9163 94.5561 73.5025 93.0269 73.5025Z" fill="#FF6E01"/>
<path d="M100.543 92.6183H89.6562C89.3601 92.6183 89.1208 92.3583 89.1208 92.0373C89.1208 91.7164 89.3601 91.4563 89.6562 91.4563H100.007V86.3127L95.428 84.3178L93.2418 86.5077C93.0349 86.7149 92.7064 86.7109 92.5036 86.4956L90.4633 84.3219L85.5595 86.459C85.2877 86.5768 84.9754 86.4346 84.8659 86.138C84.7564 85.8414 84.8902 85.5042 85.162 85.3823L90.3903 83.103C90.585 83.0177 90.8122 83.0665 90.9623 83.229L92.8889 85.2808L94.9535 83.2168C95.1036 83.0665 95.3267 83.0218 95.5132 83.103L100.742 85.3823C100.944 85.4717 101.078 85.683 101.078 85.9186V92.0333C101.078 92.3542 100.839 92.6143 100.543 92.6143V92.6183Z" fill="#FF6E01"/>
<path d="M100.543 92.8986H89.6561C89.2059 92.8986 88.8408 92.5126 88.8408 92.0372C88.8408 91.5619 89.2059 91.1759 89.6561 91.1759H99.7234V86.4995L95.4929 84.655L93.4405 86.7067C93.2863 86.8611 93.0754 86.9464 92.8645 86.9424C92.6495 86.9424 92.4467 86.8489 92.2966 86.6864L90.3902 84.659L85.6689 86.7149C85.4702 86.8002 85.2511 86.8002 85.0483 86.7149C84.8374 86.6255 84.6792 86.4548 84.594 86.2314C84.4318 85.7966 84.6346 85.2969 85.0443 85.1181L90.2726 82.8389C90.5768 82.7048 90.9338 82.782 91.165 83.0298L92.8929 84.8703L94.7506 83.0136C94.9818 82.782 95.3266 82.7129 95.6227 82.8429L100.851 85.1222C101.159 85.2563 101.358 85.5691 101.358 85.9185V92.0332C101.358 92.5085 100.993 92.8945 100.543 92.8945V92.8986ZM89.6561 91.7406C89.5182 91.7406 89.4046 91.8747 89.4046 92.0372C89.4046 92.1997 89.5182 92.3338 89.6561 92.3338H100.543C100.681 92.3338 100.794 92.1997 100.794 92.0372V85.9226C100.794 85.8007 100.729 85.6869 100.628 85.6423L95.3996 83.367C95.3144 83.3305 95.217 83.3508 95.1521 83.4199L92.8848 85.691L90.7594 83.428C90.6904 83.3548 90.589 83.3305 90.5038 83.367L85.2755 85.6423C85.1376 85.7032 85.0727 85.882 85.1294 86.0364C85.1578 86.1095 85.2106 86.1704 85.2755 86.1989C85.316 86.2151 85.3769 86.2314 85.4499 86.1989L90.5363 83.9846L92.7144 86.3045C92.759 86.3533 92.8199 86.3776 92.8807 86.3817C92.9497 86.3898 93.0024 86.3573 93.047 86.3126L95.3712 83.9887L100.295 86.1339V91.7447H89.6642L89.6561 91.7406Z" fill="#FF6E01"/>
<path d="M100.543 92.8375H89.6559C89.2503 92.8375 88.9177 92.4799 88.9177 92.0371C88.9177 91.5942 89.2503 91.2367 89.6559 91.2367H99.8003V86.4628L95.4684 84.5776L93.3754 86.6741C93.0874 86.9666 92.6372 86.9544 92.3573 86.6578L90.4104 84.5857L85.6323 86.67C85.251 86.8325 84.8251 86.6334 84.671 86.2271C84.598 86.0281 84.5979 85.8127 84.675 85.6136C84.7521 85.4146 84.894 85.2642 85.0806 85.183L90.309 82.9078C90.5807 82.7899 90.8931 82.8549 91.0999 83.0784L92.8887 84.9839L94.8072 83.0622C95.0141 82.855 95.3223 82.794 95.5819 82.9078L100.81 85.183C101.09 85.3049 101.273 85.5974 101.273 85.9265V92.0452C101.273 92.488 100.94 92.8456 100.534 92.8456L100.543 92.8375ZM89.6559 91.6795C89.4734 91.6795 89.3233 91.842 89.3233 92.0371C89.3233 92.2321 89.4734 92.3946 89.6559 92.3946H100.543C100.725 92.3946 100.875 92.2321 100.875 92.0371V85.9184C100.875 85.7721 100.794 85.6421 100.668 85.5852L95.44 83.31C95.3224 83.2572 95.1845 83.2856 95.0952 83.3791L92.8887 85.5852L90.8241 83.3872C90.7308 83.2897 90.5889 83.2572 90.4712 83.31L85.2429 85.5852C85.1617 85.6218 85.0969 85.6908 85.0603 85.7762C85.0238 85.8656 85.0238 85.9631 85.0603 86.0484C85.1293 86.2312 85.3199 86.3206 85.4903 86.2475L90.5158 84.0576L92.6534 86.3328C92.7792 86.4669 92.9779 86.4709 93.1077 86.3409L95.3913 84.0576L100.218 86.1581V91.6714H89.6641L89.6559 91.6795Z" fill="#FF6E01"/>
<path d="M100.543 93.1219H89.6562C89.0924 93.1219 88.6341 92.6343 88.6341 92.0371C88.6341 91.4398 89.0924 90.9523 89.6562 90.9523H99.5207V86.6456L95.5336 84.9108L93.5745 86.8691C93.3798 87.0641 93.1405 87.1738 92.8606 87.1657C92.5929 87.1657 92.3414 87.0478 92.1508 86.8488L90.3417 84.923L85.7421 86.926C85.4946 87.0316 85.2188 87.0316 84.9714 86.926C84.7118 86.8163 84.505 86.5928 84.4036 86.3206C84.3062 86.0565 84.3103 85.768 84.4117 85.5039C84.5171 85.2358 84.7118 85.0286 84.9674 84.9189L90.1957 82.6437C90.581 82.4771 91.015 82.5705 91.3071 82.8834L92.8971 84.5735L94.6128 82.859C94.9049 82.5665 95.3308 82.4812 95.6999 82.6437L100.928 84.9189C101.314 85.0895 101.561 85.4796 101.561 85.9224V92.0371C101.561 92.6343 101.103 93.1219 100.539 93.1219H100.543ZM89.6562 91.9639C89.6562 91.9639 89.6076 91.9924 89.6076 92.0411C89.6076 92.0899 89.636 92.1183 89.6562 92.1183H100.543C100.543 92.1183 100.592 92.0899 100.592 92.0411V85.9265C100.592 85.894 100.575 85.8615 100.551 85.8534L95.3267 83.5781L92.8809 85.9996L90.6175 83.5863C90.6175 83.5863 90.5932 83.57 90.581 83.5741L85.3527 85.8493C85.3527 85.8493 85.3283 85.8737 85.3202 85.8859C85.3121 85.9102 85.3081 85.9346 85.3202 85.959C85.3283 85.9834 85.3446 85.9956 85.3527 85.9956L90.581 83.7285L92.8525 86.15L93.1039 86.349L92.9052 86.15L95.3227 83.7285L100.494 85.9834V91.968H89.6562V91.9639Z" fill="#FF6E01"/>
<path d="M64.5286 81.3069C62.1801 81.3069 60.2656 79.182 60.2656 76.5736C60.2656 73.9653 62.1761 71.8363 64.5286 71.8363C66.8812 71.8363 68.8565 73.9612 68.8565 76.5736C68.8565 79.1861 66.9136 81.3069 64.5286 81.3069ZM64.5286 72.9942C62.7683 72.9942 61.3364 74.5991 61.3364 76.5736C61.3364 78.5482 62.7683 80.1449 64.5286 80.1449C66.289 80.1449 67.7857 78.5076 67.7857 76.5736C67.7857 74.6397 66.3255 72.9942 64.5286 72.9942Z" fill="#FF6E01"/>
<path d="M64.5287 81.5915C62.022 81.5915 59.9858 79.3406 59.9858 76.5779C59.9858 73.8151 62.0261 71.5562 64.5287 71.5562C67.0313 71.5562 69.1405 73.807 69.1405 76.5779C69.1405 79.3488 67.0719 81.5915 64.5287 81.5915ZM64.5287 72.1209C62.3343 72.1209 60.5496 74.1198 60.5496 76.5779C60.5496 79.0359 62.3343 81.0267 64.5287 81.0267C66.7231 81.0267 68.5727 79.0319 68.5727 76.5779C68.5727 74.1239 66.7596 72.1209 64.5287 72.1209ZM64.5287 80.4336C62.6142 80.4336 61.0567 78.7028 61.0567 76.5779C61.0567 74.453 62.6142 72.7181 64.5287 72.7181C66.4432 72.7181 68.0697 74.4489 68.0697 76.5779C68.0697 78.7068 66.4473 80.4336 64.5287 80.4336ZM64.5287 73.2829C62.9225 73.2829 61.6205 74.7618 61.6205 76.5779C61.6205 78.394 62.9265 79.8688 64.5287 79.8688C66.1309 79.8688 67.5059 78.3615 67.5059 76.5779C67.5059 74.7943 66.1714 73.2829 64.5287 73.2829V73.2829Z" fill="#FF6E01"/>
<path d="M64.5283 81.5305C62.0662 81.5305 60.0625 79.3081 60.0625 76.5778C60.0625 73.8476 62.0662 71.6171 64.5283 71.6171C66.9904 71.6171 69.059 73.8395 69.059 76.5778C69.059 79.3162 67.0269 81.5305 64.5283 81.5305ZM64.5283 72.0599C62.2893 72.0599 60.4722 74.0873 60.4722 76.5778C60.4722 79.0684 62.2934 81.0876 64.5283 81.0876C66.7632 81.0876 68.6534 79.0643 68.6534 76.5778C68.6534 74.0914 66.8038 72.0599 64.5283 72.0599ZM64.5283 80.3726C62.6544 80.3726 61.1333 78.6702 61.1333 76.5778C61.1333 74.4855 62.6584 72.7791 64.5283 72.7791C66.3982 72.7791 67.9922 74.4855 67.9922 76.5778C67.9922 78.6702 66.4063 80.3726 64.5283 80.3726ZM64.5283 73.2219C62.8815 73.2219 61.5389 74.7292 61.5389 76.5778C61.5389 78.4265 62.8775 79.9297 64.5283 79.9297C66.1791 79.9297 67.5826 78.394 67.5826 76.5778C67.5826 74.7617 66.2116 73.2219 64.5283 73.2219V73.2219Z" fill="#FF6E01"/>
<path d="M64.5289 81.8111C61.9127 81.8111 59.7832 79.4627 59.7832 76.574C59.7832 73.6853 61.9127 71.3329 64.5289 71.3329C67.1451 71.3329 69.3435 73.6853 69.3435 76.574C69.3435 79.4627 67.1856 81.8111 64.5289 81.8111ZM64.5289 72.3405C62.4481 72.3405 60.7526 74.2378 60.7526 76.574C60.7526 78.9102 62.4481 80.8035 64.5289 80.8035C66.6097 80.8035 68.37 78.9061 68.37 76.574C68.37 74.2419 66.6462 72.3405 64.5289 72.3405V72.3405ZM64.5289 80.6531C62.5008 80.6531 60.85 78.8248 60.85 76.5781C60.85 74.3313 62.5008 72.4949 64.5289 72.4949C66.5569 72.4949 68.2727 74.3272 68.2727 76.5781C68.2727 78.8289 66.5569 80.6531 64.5289 80.6531ZM64.5289 73.5025C63.0362 73.5025 61.8234 74.8838 61.8234 76.5781C61.8234 78.2723 63.0362 79.6455 64.5289 79.6455C66.0215 79.6455 67.2992 78.2398 67.2992 76.5781C67.2992 74.9163 66.054 73.5025 64.5289 73.5025Z" fill="#FF6E01"/>
<path d="M67.9638 92.618H57.0041C56.7081 92.618 56.4688 92.358 56.4688 92.037V85.9224C56.4688 85.6867 56.6026 85.4714 56.8054 85.3861L62.0338 83.1068C62.2203 83.0256 62.4394 83.0662 62.5894 83.2125L64.7149 85.2805L66.5766 83.2328C66.7267 83.0662 66.9579 83.0134 67.1566 83.1028L72.385 85.382C72.6608 85.4999 72.7906 85.8371 72.6811 86.1377C72.5716 86.4343 72.2593 86.5765 71.9875 86.4587L67.0917 84.3257L65.1205 86.4912C64.9217 86.7106 64.5932 86.7228 64.3822 86.5156L62.127 84.3176L57.5396 86.3165V91.4601H67.9638C68.2599 91.4601 68.4992 91.7201 68.4992 92.0411C68.4992 92.3621 68.2599 92.6221 67.9638 92.6221V92.618Z" fill="#FF6E01"/>
<path d="M67.9634 92.8986H57.0038C56.5535 92.8986 56.1885 92.5127 56.1885 92.0373V85.9227C56.1885 85.5733 56.3872 85.2604 56.6914 85.1263L61.9198 82.8471C62.2159 82.7171 62.5525 82.7861 62.7878 83.0096L64.7023 84.8744L66.3653 83.0462C66.5965 82.7902 66.9575 82.713 67.2658 82.8471L72.4901 85.1263C72.8997 85.3051 73.1025 85.8048 72.9403 86.2396C72.8592 86.463 72.6969 86.6337 72.486 86.7231C72.2873 86.8084 72.0682 86.8084 71.8695 86.7231L67.1562 84.6713L65.3229 86.6865C65.1728 86.849 64.97 86.9425 64.755 86.9506C64.536 86.9587 64.3372 86.8774 64.179 86.7231L62.0577 84.6591L57.815 86.5077V91.1841H67.9553C68.4055 91.1841 68.7706 91.5701 68.7706 92.0454C68.7706 92.5208 68.4055 92.9068 67.9553 92.9068L67.9634 92.8986ZM62.2362 83.3468C62.2078 83.3468 62.1794 83.3549 62.151 83.3631L56.9226 85.6383C56.8253 85.683 56.7563 85.7927 56.7563 85.9186V92.0332C56.7563 92.1958 56.8699 92.3298 57.0078 92.3298H67.9675C68.1054 92.3298 68.219 92.1958 68.219 92.0332C68.219 91.8707 68.1054 91.7367 67.9675 91.7367H57.2633V86.1217L62.1915 83.9765L64.5847 86.3046C64.6455 86.3615 64.7145 86.3696 64.751 86.3736C64.8118 86.3736 64.8726 86.3452 64.9173 86.2924L67.0224 83.9806L72.1047 86.1949C72.1737 86.2233 72.2386 86.2111 72.2791 86.1949C72.344 86.1664 72.3968 86.1096 72.4252 86.0324C72.4819 85.878 72.417 85.6951 72.2791 85.6383L67.0508 83.359C66.9616 83.3184 66.8601 83.3427 66.7912 83.4199L64.7347 85.683L62.3984 83.4118C62.3538 83.3671 62.297 83.3427 62.2362 83.3427V83.3468Z" fill="#FF6E01"/>
<path d="M67.9635 92.8376H57.0038C56.5982 92.8376 56.2656 92.4801 56.2656 92.0372V85.9185C56.2656 85.5894 56.4481 85.301 56.728 85.175L61.9564 82.8998C62.216 82.786 62.5202 82.847 62.727 83.0461L64.7064 84.9719L66.4303 83.0745C66.6412 82.8429 66.9535 82.7738 67.2334 82.8957L72.4617 85.171C72.6443 85.2522 72.7862 85.4025 72.8674 85.6016C72.9444 85.7966 72.9485 86.016 72.8755 86.2151C72.7254 86.6214 72.2954 86.8205 71.9182 86.662L67.1442 84.5818L65.2702 86.6417C64.9904 86.9464 64.5442 86.9586 64.2521 86.6742L62.0902 84.5696L57.7502 86.4589V91.2328H67.9675C68.3732 91.2328 68.7058 91.5944 68.7058 92.0332C68.7058 92.472 68.3732 92.8336 67.9675 92.8336L67.9635 92.8376ZM62.2362 83.2858C62.1957 83.2858 62.1511 83.2939 62.1146 83.3102L56.8862 85.5854C56.7605 85.6422 56.6793 85.7723 56.6793 85.9185V92.0372C56.6793 92.2363 56.8294 92.3948 57.012 92.3948H67.9716C68.1541 92.3948 68.3042 92.2322 68.3042 92.0372C68.3042 91.8422 68.1541 91.6797 67.9716 91.6797H57.3445V86.1664L62.1754 84.0618L64.528 86.3492C64.6578 86.4792 64.8606 86.4711 64.9863 86.3329L67.0509 84.0658L72.0724 86.2557C72.2427 86.3289 72.4334 86.2395 72.5023 86.0567C72.5348 85.9673 72.5348 85.8698 72.5023 85.7844C72.4658 85.6951 72.405 85.6301 72.3198 85.5935L67.0914 83.3183C66.9697 83.2655 66.8237 83.298 66.7345 83.3995L64.7389 85.5935L62.4674 83.3833C62.4066 83.3223 62.3255 83.2898 62.2444 83.2898L62.2362 83.2858Z" fill="#FF6E01"/>
<path d="M67.9637 93.1222H57.0041C56.4403 93.1222 55.9819 92.6346 55.9819 92.0374V85.9227C55.9819 85.4839 56.2294 85.0898 56.6147 84.9192L61.843 82.644C62.2081 82.4855 62.6299 82.5668 62.922 82.8471L64.6945 84.5698L66.2237 82.8918C66.5198 82.5708 66.9578 82.4733 67.3472 82.644L72.5715 84.9192C72.823 85.0289 73.0217 85.2361 73.1272 85.5042C73.2286 85.7643 73.2327 86.0568 73.1353 86.3209C73.0339 86.5972 72.827 86.8166 72.5674 86.9263C72.32 87.0319 72.0483 87.0319 71.8008 86.9263L67.2134 84.9273L65.4733 86.8369C65.2867 87.04 65.0352 87.1578 64.7675 87.166C64.4836 87.17 64.2483 87.0725 64.0496 86.8816L62.0215 84.907L58.0262 86.6459V90.9526H67.9637C68.5275 90.9526 68.9859 91.4401 68.9859 92.0374C68.9859 92.6346 68.5275 93.1222 67.9637 93.1222V93.1222ZM62.2365 83.5703C62.2365 83.5703 62.2284 83.5703 62.2243 83.5703L56.996 85.8455C56.9757 85.8537 56.9595 85.8862 56.9595 85.9187V92.0333C56.9595 92.078 56.9879 92.1105 57.0081 92.1105H67.9678C67.9678 92.1105 68.0165 92.0821 68.0165 92.0333C68.0165 91.9845 67.9881 91.9561 67.9678 91.9561H57.0568V85.9715L62.2324 83.7166L64.7188 86.1381L64.9784 86.3249L64.7716 86.134L66.974 83.7166L72.1821 85.9877C72.2105 85.9837 72.2267 85.9715 72.2348 85.9471C72.243 85.9227 72.243 85.8983 72.2348 85.874C72.2308 85.8618 72.2186 85.8455 72.2024 85.8374L66.974 83.5622L66.9375 83.5744L64.7432 85.9837L62.2405 83.5581L62.2365 83.5703Z" fill="#FF6E01"/>
<path d="M89.4454 97.1687H67.9641C67.668 97.1687 67.4287 96.9087 67.4287 96.5877V87.9622C67.4287 87.7225 67.5626 87.5112 67.7694 87.4218L75.1475 84.2812C75.3422 84.2 75.5653 84.2447 75.7154 84.4031L78.579 87.4056L81.7144 84.3869C81.8645 84.2406 82.0754 84.2 82.266 84.2812L89.6401 87.4218C89.8429 87.5072 89.9808 87.7225 89.9808 87.9622V96.5877C89.9808 96.9087 89.7415 97.1687 89.4454 97.1687V97.1687ZM68.4995 96.0108H88.914V88.3604L82.1808 85.496L78.9197 88.6326C78.7088 88.8317 78.3924 88.8276 78.1937 88.6163L75.2205 85.5001L68.4995 88.3604V96.0108V96.0108Z" fill="#FF6E01"/>
<path d="M89.446 97.4491H67.9647C67.5145 97.4491 67.1494 97.0631 67.1494 96.5878V87.9623C67.1494 87.6088 67.3482 87.296 67.6605 87.1619L75.0386 84.0213C75.3428 83.8913 75.6876 83.9644 75.9188 84.2082L78.5877 87.0034L81.5203 84.1838C81.7555 83.9603 82.08 83.8953 82.3761 84.0213L89.7542 87.1619C90.0665 87.296 90.2653 87.6088 90.2653 87.9623V96.5878C90.2653 97.0631 89.9002 97.4491 89.45 97.4491H89.446ZM75.3428 84.5251C75.3144 84.5251 75.286 84.5291 75.2576 84.5413L67.8795 87.6819C67.7781 87.7266 67.7132 87.8363 67.7132 87.9623V96.5878C67.7132 96.7503 67.8268 96.8844 67.9647 96.8844H89.446C89.5839 96.8844 89.6974 96.7503 89.6974 96.5878V87.9623C89.6974 87.8363 89.6285 87.7266 89.5311 87.6819L82.1571 84.5413C82.076 84.5048 81.9827 84.5251 81.9137 84.5901L78.5715 87.8038L75.5091 84.5982C75.4604 84.5495 75.4036 84.5251 75.3428 84.5251V84.5251ZM89.1945 96.2871H68.2162V88.1695L75.286 85.1589L78.393 88.4133C78.4863 88.5108 78.6242 88.5148 78.7216 88.4214L82.1165 85.1548L89.1904 88.1654V96.2831L89.1945 96.2871ZM68.78 95.7224H88.6266V88.5433L82.2382 85.8252L79.1109 88.8317C78.7864 89.1405 78.2916 89.1283 77.9833 88.8074L75.144 85.8333L68.7759 88.5433V95.7224H68.78Z" fill="#FF6E01"/>
<path d="M89.4455 97.388H67.9643C67.5587 97.388 67.2261 97.0304 67.2261 96.5876V87.9621C67.2261 87.6289 67.4086 87.3364 67.6966 87.2145L75.0747 84.0739C75.3424 83.9601 75.6507 84.0252 75.8575 84.2445L78.5873 87.1048L81.5848 84.2242C81.7957 84.0251 82.0877 83.9683 82.3433 84.078L89.7214 87.2186C90.0053 87.3405 90.1919 87.633 90.1919 87.9661V96.5916C90.1919 97.0345 89.8593 97.392 89.4537 97.392L89.4455 97.388ZM75.3424 84.4639C75.3018 84.4639 75.2613 84.4721 75.2207 84.4883L67.8426 87.6289C67.7128 87.6817 67.6317 87.8158 67.6317 87.9621V96.5876C67.6317 96.7867 67.7818 96.9451 67.9643 96.9451H89.4455C89.6281 96.9451 89.7781 96.7826 89.7781 96.5876V87.9621C89.7781 87.8118 89.697 87.6817 89.5672 87.6289L82.1932 84.4883C82.0756 84.4355 81.9458 84.4639 81.8525 84.5533L78.5751 87.7061L75.5736 84.5615C75.5127 84.4964 75.4276 84.4599 75.3424 84.4599V84.4639ZM89.117 96.2301H68.2969V88.2099L75.2694 85.244L78.3358 88.4578C78.4615 88.5878 78.6522 88.5918 78.786 88.4659L82.1405 85.24L89.117 88.2099V96.2301ZM68.7025 95.7872H88.7073V88.5106L82.2216 85.7478L79.0537 88.795C78.7658 89.0713 78.3236 89.0591 78.0519 88.7706L75.172 85.7559L68.7025 88.5106V95.7872V95.7872Z" fill="#FF6E01"/>
<path d="M89.4458 97.6725H67.9645C67.4007 97.6725 66.9424 97.1849 66.9424 96.5877V87.9622C66.9424 87.5153 67.1939 87.1212 67.5833 86.9546L74.9614 83.814C75.3386 83.6555 75.7685 83.7449 76.0565 84.0496L78.5916 86.7027L81.3822 84.0171C81.6742 83.7368 82.0839 83.6596 82.449 83.814L89.8271 86.9546C90.2164 87.1212 90.4679 87.5153 90.4679 87.9622V96.5877C90.4679 97.1849 90.0096 97.6725 89.4458 97.6725V97.6725ZM75.3426 84.7485C75.3426 84.7485 75.3345 84.7485 75.3305 84.7485L67.9524 87.8891C67.928 87.8972 67.9159 87.9297 67.9159 87.9622V96.5877C67.9159 96.6324 67.9443 96.6649 67.9645 96.6649H89.4458C89.4458 96.6649 89.4945 96.6365 89.4945 96.5877V87.9622C89.4945 87.9256 89.4782 87.8972 89.4539 87.8891L82.0799 84.7485L78.5632 88.1085L75.3426 84.7485ZM89.3971 96.5146H68.0132V88.0231L75.3345 84.9069L78.5389 88.2629C78.5389 88.2629 78.5673 88.2832 78.5916 88.2629L82.0799 84.9069L89.4012 88.0231V96.5146H89.3971ZM68.9826 95.507H88.4237V88.6976L82.2786 86.0811L79.2446 88.9982C78.839 89.3801 78.2265 89.368 77.8412 88.9657L75.0952 86.0892L68.9786 88.6935V95.5029L68.9826 95.507Z" fill="#FF6E01"/>
<defs>
<filter id="filter0_d_679_4404" x="0" y="0" width="150" height="150.202" filterUnits="userSpaceOnUse" color-interpolation-filters="sRGB">
<feFlood flood-opacity="0" result="BackgroundImageFix"/>
<feColorMatrix in="SourceAlpha" type="matrix" values="0 0 0 0 0 0 0 0 0 0 0 0 0 0 0 0 0 0 127 0" result="hardAlpha"/>
<feOffset dy="2"/>
<feGaussianBlur stdDeviation="5"/>
<feComposite in2="hardAlpha" operator="out"/>
<feColorMatrix type="matrix" values="0 0 0 0 0 0 0 0 0 0 0 0 0 0 0 0 0 0 0.2 0"/>
<feBlend mode="normal" in2="BackgroundImageFix" result="effect1_dropShadow_679_4404"/>
<feBlend mode="normal" in="SourceGraphic" in2="effect1_dropShadow_679_4404" result="shape"/>
</filter>
</defs>
</svg>
