<svg width="170" height="171" viewBox="0 0 170 171" fill="none" xmlns="http://www.w3.org/2000/svg">
<path d="M0.25 170.082V0.582031H169.75V170.082H0.25Z" fill="white" stroke="#B8B1B1" stroke-width="0.5"/>
<path d="M74.9114 76.2106H80.581C85.2559 76.2106 89.3673 80.3289 89.3673 85.1755C89.3673 90.022 85.2657 94.1453 80.581 94.1453H74.9114V76.2106ZM80.581 90.8683C83.4134 90.8683 85.9665 88.2802 85.9665 85.1804C85.9665 82.0806 83.4232 79.4875 80.581 79.4875H78.3122V90.8782L80.581 90.8683ZM91.7733 76.2155H94.7478L102.681 87.8866V76.2155H106.082V94.1502H103.108L95.1741 82.484V94.1502H91.7733V76.2204V76.2155ZM112.036 88.4475C112.036 90.0417 113.168 91.1488 115.011 91.1488C117.025 91.1488 117.985 90.1549 117.985 89.0134C117.985 85.7413 108.777 87.4487 108.777 81.2195C108.777 78.4838 111.193 76.0679 115.011 76.0679C118.553 76.0679 120.964 78.4936 120.964 81.7607H117.696C117.696 80.1665 116.706 79.2021 115.006 79.2021C113.305 79.2021 112.315 80.1961 112.315 81.1949C112.315 84.2997 121.523 82.6464 121.523 89.161C121.523 91.7245 118.941 94.2831 115.006 94.2831C111.071 94.2831 108.63 91.8573 108.63 88.4524H112.036V88.4475ZM123.939 76.2155H136.263V79.4875H127.349V83.3303H135.553V86.6024H127.349V90.8683H136.557V94.1404H123.939V76.2155Z" fill="#333333"/>
<path d="M65.9393 77.2635V93.1267C65.9393 93.4957 65.8413 93.8549 65.66 94.1797C65.6796 94.1255 66.1549 92.9988 64.3467 91.9311L64.3124 91.9114L54.0071 85.9381C53.6004 85.697 53.4632 85.1705 53.6984 84.7621C53.7719 84.6342 53.8797 84.5308 54.0071 84.4521L64.3124 78.4788C66.1598 77.4111 65.6845 76.2646 65.66 76.2105C65.8413 76.5303 65.9393 76.8944 65.9393 77.2635ZM46.2989 84.4521C46.7056 84.6883 46.8478 85.2148 46.6125 85.6232C46.539 85.756 46.4312 85.8642 46.2989 85.9381L35.9936 91.9114L35.8858 91.9754C34.2491 92.9791 34.5921 94.0271 34.646 94.16C34.4647 93.8402 34.3716 93.4859 34.3716 93.1169V77.2684C34.3716 76.8993 34.4696 76.5352 34.6509 76.2154C34.6313 76.2646 34.1707 77.3668 35.8858 78.4197L35.9936 78.4837L46.294 84.4619L46.2989 84.4521ZM64.7191 75.7824C64.7191 75.7824 64.7191 75.8218 64.7191 75.8365C64.6799 76.2843 64.3957 76.9387 63.3078 77.5685L58.0988 80.5847L50.1554 75.9792L42.2121 80.5847L37.003 77.5685C35.9201 76.9387 35.6359 76.2843 35.5918 75.8365C35.5722 75.5315 35.7339 75.2412 36.0034 75.0985L48.8765 67.6343L49.1166 67.5014C49.7683 67.1226 50.572 67.1226 51.2237 67.5014L51.4638 67.6343L64.3369 75.0985C64.5819 75.2363 64.7289 75.497 64.724 75.7775L64.7191 75.7824ZM64.7191 94.6028C64.7191 94.8784 64.5721 95.1342 64.332 95.272L64.3075 95.2868L51.4344 102.751L51.1943 102.884C50.5426 103.263 49.7389 103.263 49.0872 102.884L48.8471 102.751L35.9887 95.2868L35.9642 95.272C35.7094 95.1244 35.5575 94.8439 35.5771 94.5487C35.6212 94.1009 35.9005 93.4465 36.9883 92.8167L42.1974 89.8005L50.1407 94.406L58.0841 89.8005L63.2931 92.8167C64.3761 93.4465 64.6603 94.1009 64.7044 94.5487C64.7093 94.5684 64.7142 94.5831 64.7093 94.6028H64.7191Z" fill="#91131C"/>
</svg>
