<svg width="14" height="14" viewBox="0 0 14 14" fill="none" xmlns="http://www.w3.org/2000/svg">
<path fill-rule="evenodd" clip-rule="evenodd" d="M0.229859 0.229859C0.536337 -0.0766196 1.03324 -0.0766196 1.33972 0.229859L13.7701 12.6603C14.0766 12.9668 14.0766 13.4637 13.7701 13.7701C13.4637 14.0766 12.9668 14.0766 12.6603 13.7701L0.229859 1.33972C-0.0766196 1.03324 -0.0766196 0.536337 0.229859 0.229859Z" fill="white"/>
<path fill-rule="evenodd" clip-rule="evenodd" d="M13.7701 0.229859C14.0766 0.536337 14.0766 1.03324 13.7701 1.33972L1.33972 13.7701C1.03324 14.0766 0.536337 14.0766 0.229859 13.7701C-0.0766196 13.4637 -0.0766196 12.9668 0.229859 12.6603L12.6603 0.229859C12.9668 -0.0766196 13.4637 -0.0766196 13.7701 0.229859Z" fill="white"/>
</svg>
