<svg width="16" height="16" viewBox="0 0 16 16" fill="none" xmlns="http://www.w3.org/2000/svg">
<path d="M10.5344 1H13.5098C13.905 1 14.284 1.15695 14.5634 1.43633C14.8429 1.7157 14.9998 2.09462 14.9998 2.48971V12.9201C15 13.1158 14.9616 13.3097 14.8868 13.4905C14.8119 13.6714 14.7022 13.8358 14.5638 13.9742C14.4255 14.1127 14.2611 14.2225 14.0803 14.2975C13.8994 14.3724 13.7056 14.411 13.5098 14.411H10.5344" stroke="white" stroke-width="1.5" stroke-linecap="round" stroke-linejoin="round"/>
<path fill-rule="evenodd" clip-rule="evenodd" d="M0 7.7002C0 7.28598 0.334672 6.9502 0.747512 6.9502H9.69021C10.1031 6.9502 10.4377 7.28598 10.4377 7.7002C10.4377 8.11441 10.1031 8.4502 9.69021 8.4502H0.747512C0.334672 8.4502 0 8.11441 0 7.7002Z" fill="white"/>
<path fill-rule="evenodd" clip-rule="evenodd" d="M5.43443 3.44522C5.72584 3.15181 6.19913 3.15097 6.49157 3.44334L10.2179 7.16881C10.3587 7.30954 10.4378 7.50071 10.4378 7.70008C10.4378 7.89946 10.3587 8.09062 10.2179 8.23135L6.49157 11.9568C6.19913 12.2492 5.72584 12.2484 5.43443 11.9549C5.14303 11.6615 5.14387 11.1867 5.43631 10.8943L8.63124 7.70008L5.43631 4.50588C5.14387 4.21351 5.14303 3.73863 5.43443 3.44522Z" fill="white"/>
</svg>
