<svg width="28" height="30" viewBox="0 0 28 30" fill="none" xmlns="http://www.w3.org/2000/svg">
<path d="M14.2496 20.6198C17.3144 20.6198 19.799 18.1352 19.799 15.0704C19.799 12.0055 17.3144 9.521 14.2496 9.521C11.1847 9.521 8.7002 12.0055 8.7002 15.0704C8.7002 18.1352 11.1847 20.6198 14.2496 20.6198Z" fill="white"/>
<path d="M14.2501 19.5099C16.7019 19.5099 18.6896 17.5223 18.6896 15.0704C18.6896 12.6185 16.7019 10.6309 14.2501 10.6309C11.7982 10.6309 9.81055 12.6185 9.81055 15.0704C9.81055 17.5223 11.7982 19.5099 14.2501 19.5099Z" stroke="#007CBA" stroke-width="2"/>
<path d="M15.9025 27.279V23.674L17.304 23.1183C18.1178 22.7955 18.8798 22.3547 19.5686 21.8082L20.751 20.8701L23.8773 22.6753L25.7796 19.3794L22.657 17.5765L22.8748 16.0862C22.9378 15.6556 22.9697 15.2145 22.9697 14.775C22.9697 14.336 22.9378 13.895 22.8749 13.4645L22.6573 11.9743L25.7804 10.1714L23.877 6.87528L20.7509 8.68022L19.5686 7.74245C18.8796 7.19599 18.1177 6.75533 17.3041 6.43273L15.9025 5.87698L15.9027 2.27213L12.0972 2.27191V5.87695L10.6956 6.4327C9.88199 6.75535 9.12009 7.196 8.43112 7.74244L7.24876 8.68021L4.12322 6.87606L2.21999 10.1716L5.34239 11.9743L5.12477 13.4644C5.06189 13.895 5.03002 14.3359 5.03002 14.775C5.03002 15.2145 5.06193 15.6557 5.12486 16.0862L5.34266 17.5765L2.22063 19.3792L4.12306 22.6746L7.24866 20.8701L8.43104 21.8082C9.11993 22.3547 9.88188 22.7955 10.6957 23.1183L12.0972 23.674L12.097 27.279H15.9025ZM15.9027 29.4987H12.097C10.8713 29.4987 9.87742 28.5048 9.87742 27.2792V25.1817C8.85243 24.7752 7.90167 24.2217 7.05139 23.5471L5.23257 24.5971C4.17075 25.2105 2.81325 24.8469 2.20093 23.785L0.298044 20.4887C-0.315275 19.4269 0.0483213 18.0694 1.11014 17.4571L2.92843 16.4072C2.85055 15.8744 2.81026 15.3295 2.81026 14.775C2.81026 14.2209 2.85054 13.6762 2.9283 13.1437L1.11014 12.094C0.0483213 11.4807 -0.315275 10.1232 0.298044 9.06138L2.20093 5.76603C2.81325 4.70421 4.17075 4.34061 5.23257 4.95293L7.05175 6.00328C7.90183 5.32906 8.85277 4.77555 9.87742 4.36925V2.27191C9.87742 1.04527 10.8713 0.0523682 12.097 0.0523682H15.9027C17.1284 0.0523682 18.1223 1.04527 18.1223 2.27191V4.36926C19.1469 4.77555 20.0979 5.32907 20.9479 6.00329L22.7671 4.95293C23.8289 4.34061 25.1864 4.70421 25.7998 5.76603L27.7027 9.06138C28.315 10.1232 27.9514 11.4807 26.8896 12.094L25.0714 13.1437C25.1492 13.6762 25.1894 14.2209 25.1894 14.775C25.1894 15.3295 25.1491 15.8743 25.0713 16.4072L26.8896 17.4571C27.9514 18.0704 28.315 19.4279 27.7027 20.4887L25.7998 23.785C25.1864 24.8469 23.8289 25.2105 22.7671 24.5971L20.9483 23.5471C20.098 24.2217 19.1473 24.7752 18.1223 25.1817V27.2792C18.1223 28.5048 17.1284 29.4987 15.9027 29.4987Z" fill="#007CBA"/>
</svg>
