<svg width="38" height="39" viewBox="0 0 38 39" fill="none" xmlns="http://www.w3.org/2000/svg">
<path d="M37.45 19.9888C37.45 30.1849 29.1893 38.45 19 38.45C8.81065 38.45 0.55 30.1849 0.55 19.9888C0.55 9.79261 8.81065 1.52754 19 1.52754C29.1893 1.52754 37.45 9.79261 37.45 19.9888Z" stroke="white" stroke-width="1.1"/>
<path d="M15.858 31.1548L15.1478 29.9758L16.7818 28.9483C18.1791 29.062 20.1752 28.3944 20.2634 28.366C20.3006 28.3518 20.3377 28.3376 20.3702 28.3139L26.1496 24.6776C27.1152 24.0715 27.3752 23.0157 26.7949 22.0545C26.586 21.7042 26.2657 21.5432 25.9129 21.4911C25.9825 21.439 26.0429 21.3964 26.0939 21.3633C27.157 20.6957 27.4819 19.6635 26.9202 18.7355C26.6742 18.3235 26.3725 18.0821 26.0707 17.9495C26.4607 17.5092 26.7392 16.7658 26.2657 15.9798C26.0057 15.549 25.6761 15.2933 25.3651 15.1465C26.9342 14.1427 28.6796 13.0301 28.7817 12.9685C29.2227 12.6939 29.7473 11.6238 29.1531 10.639C28.6425 9.79622 27.5794 9.81043 27.0316 9.95247C26.9899 9.96668 26.9481 9.98088 26.9063 10.0046L17.9934 15.2412C17.9934 15.066 17.9934 14.8719 17.9934 14.6588C17.9934 14.1238 17.9981 13.5556 18.012 13.1484C18.0445 12.2204 18.0677 11.4913 17.5896 10.7006C16.7168 9.25646 15.9091 8.5131 15.1896 8.47996C14.9203 8.47049 14.535 8.55098 14.2101 8.99605C13.7227 9.66839 13.8434 10.5491 13.9733 11.4865C14.0987 12.4098 14.2287 13.3615 13.7505 14.0528C12.7246 15.5395 11.8983 20.1275 11.7126 21.2212L10.3618 22.0687L9.58653 20.7903C9.44263 20.5536 9.13624 20.4779 8.90414 20.6246L6.3649 22.2202C6.13279 22.367 6.05852 22.6795 6.20242 22.9163L12.4646 33.2759C12.6086 33.5127 12.9149 33.5884 13.147 33.4416L15.6863 31.846C15.9184 31.6992 15.9927 31.3868 15.8488 31.15L15.858 31.1548ZM12.6643 21.6189C12.9103 20.0896 13.7319 15.8567 14.5722 14.6399C15.2731 13.6219 15.1107 12.4145 14.9668 11.3492C14.8693 10.6248 14.7764 9.93827 15.0178 9.59736C15.0967 9.48847 15.1385 9.4932 15.1571 9.4932C15.4263 9.50267 16.0391 10.0519 16.7493 11.2309C17.0557 11.7375 17.0557 12.1968 17.0232 13.1106C17.0093 13.5225 17.0046 14.1049 17.0046 14.6494C17.0046 15.2365 16.9954 15.8993 16.9768 16.0698C16.9536 16.2592 17.0371 16.4486 17.195 16.5527C17.3528 16.6569 17.5524 16.6664 17.7149 16.5669L27.3334 10.9184C27.5144 10.8852 28.0947 10.8142 28.3036 11.1646C28.596 11.6523 28.2479 12.0926 28.2525 12.0973C28.0529 12.2252 22.3245 15.8804 22.3245 15.8804C22.1017 16.0224 22.0274 16.316 22.1528 16.5527C22.2642 16.7989 22.5613 16.8842 22.798 16.7705L24.5156 15.9562C24.6874 15.9562 25.1144 16.0177 25.4115 16.5054C25.6761 16.941 25.3698 17.244 25.198 17.3766L23.6429 18.726C23.4433 18.9012 23.4015 19.1995 23.5686 19.4173C23.7264 19.6303 24.0189 19.6871 24.2371 19.5404L25.3187 18.8207C25.458 18.797 25.7875 18.8017 26.0661 19.261C26.3957 19.8103 25.9779 20.2316 25.5647 20.4921C25.0541 20.814 23.8796 21.8983 23.7497 22.0167C23.5686 22.1871 23.5361 22.4759 23.6707 22.6748C23.81 22.8831 24.0792 22.9589 24.3021 22.8452C24.9288 22.5327 25.8061 22.3481 25.9454 22.5754C26.3167 23.1909 25.9779 23.5839 25.6251 23.8064L19.8967 27.4096C19.5671 27.5137 17.7938 28.0582 16.7261 27.9114C16.6101 27.8972 16.4987 27.9209 16.4012 27.9825L14.6232 29.0999L10.891 22.9257L12.4322 21.9551C12.5575 21.8793 12.641 21.7515 12.6596 21.6047L12.6643 21.6189ZM13.0588 32.3195L7.32117 22.8263L9.01555 21.761L9.79078 23.0394L14.043 30.0752L14.7532 31.2542L13.0588 32.3195Z" fill="white"/>
</svg>
