<svg width="170" height="171" viewBox="0 0 170 171" fill="none" xmlns="http://www.w3.org/2000/svg">
<path d="M0.25 170.082V0.582031H169.75V170.082H0.25Z" fill="white" stroke="#B8B1B1" stroke-width="0.5"/>
<path d="M52.7201 74.7627H26.011V100.978L52.7201 74.7627Z" fill="#44C8F5"/>
<path d="M39.3683 74.7627H26.0168V87.8738L39.3683 74.7627Z" fill="#231F20"/>
<path d="M90.0134 80.4552L86.5241 95.2859H92.6825L96.1658 80.4552H90.0073H90.0134ZM75.9457 89.0527H74.5316L76.8089 84.7735L77.5496 89.0527H75.9457ZM75.0703 80.4552L67.1488 95.2859H71.2197L72.5359 92.8173H78.1924L78.6148 95.2859H84.6263L82.0736 80.4552H75.0703ZM118.143 80.4552L114.666 95.2859H120.824L124.301 80.4552H118.143ZM115.388 80.4552H109.077L103.793 85.3076L104.944 80.4552H99.043L95.5659 95.2859H101.449L102.649 90.1665L105.795 95.2859H112.921L107.644 87.5221L115.382 80.4552H115.388ZM62.3126 87.1964C62.3126 87.1964 61.9147 92.0162 58.058 92.0162H55.8726L57.7948 84.018H59.7782C60.4884 84.018 62.5391 84.2199 62.3126 87.2029V87.1964ZM62.0004 80.4618H52.7015L49.2244 95.2793H59.9068C64.1675 95.2793 68.367 91.9055 68.367 86.734C68.367 80.6506 62.0065 80.4552 62.0065 80.4552M139.018 80.4487L136.961 89.183L134.225 80.4487H127.374L123.897 95.2793H128.158L130.233 86.4735L132.976 95.2793H139.795L143.279 80.4487H139.018Z" fill="#00A0E4"/>
</svg>
