<svg width="354" height="399" viewBox="0 0 354 399" fill="none" xmlns="http://www.w3.org/2000/svg">
  <g clip-path="url(#clip0_679_5712)">
    <path d="M51.0778 159.281C58.0105 156.217 59.1625 144.23 53.6508 132.507C48.1391 120.783 38.051 113.764 31.1182 116.828C24.1855 119.892 23.0335 131.879 28.5452 143.602C34.0569 155.326 44.145 162.345 51.0778 159.281Z" fill="white"/>
    <path d="M46.4711 160.519C44.0048 160.269 41.4257 159.217 38.8231 157.383C29.8833 151.1 23.4953 137.364 24.5709 126.78C25.3253 119.356 29.7038 114.96 35.7224 115.572C38.1887 115.823 40.7678 116.875 43.3704 118.708C52.309 125.003 58.6981 138.727 57.6226 149.312C56.8682 156.735 52.4896 161.131 46.4711 160.519V160.519ZM35.6038 116.74C30.2414 116.195 26.4742 120.085 25.7825 126.892C24.745 137.102 30.9198 150.348 39.5381 156.421C41.9596 158.125 44.3395 159.112 46.5908 159.341C51.9532 159.886 55.7204 155.995 56.4121 149.189C57.4496 138.979 51.2748 125.732 42.6565 119.66C40.235 117.956 37.8551 116.968 35.6038 116.74V116.74Z" fill="url(#paint0_linear_679_5712)"/>
    <g opacity="0.2">
      <path opacity="0.05" d="M114.136 163.31C116.788 162.149 120.292 161.606 123.492 161.834C126.374 162.041 128.953 162.886 130.946 164.218C131.037 164.227 135.723 167.45 135.787 167.49L213.596 221.483L219.509 225.584L296.217 278.813C298.728 280.574 300.253 283.284 300.061 285.924C299.847 288.895 297.779 291.539 294.231 293.101L286.497 296.084C286.413 296.121 280.004 298.534 279.901 298.535C277.135 299.697 273.812 300.135 270.546 299.768C267.773 299.493 265.041 298.466 263.171 297.157L186.572 243.183L181.509 239.611L109.973 189.198C107.462 187.436 105.891 184.722 106.151 182.1C106.436 179.224 108.204 176.485 111.573 175.005L111.895 173.246C111.757 173.143 113.969 163.383 114.148 163.3L114.136 163.31Z" fill="#ABB2E2"/>
      <path opacity="0.1" d="M114.114 164.109C116.635 163.001 120.269 162.416 123.319 162.54C126.152 162.664 128.746 163.477 130.756 164.755C130.937 164.773 135.488 167.86 135.616 167.951L213.081 221.722L218.973 225.809L295.336 278.826C297.718 280.497 299.429 283.303 299.307 285.805C299.166 288.728 297.256 291.398 293.685 292.958L286.018 295.959C285.851 296.032 279.657 298.344 279.452 298.335C276.704 299.432 273.432 299.82 270.249 299.416C267.613 299.155 264.746 297.981 262.961 296.736L186.873 243.135L181.842 239.589L110.786 189.534C108.403 187.863 106.6 185.07 106.846 182.58C107.117 179.848 108.449 177.01 111.651 175.602L111.889 173.89C111.611 173.696 113.745 164.262 114.114 164.109V164.109Z" fill="#A7ADDF"/>
      <path opacity="0.14" d="M114.102 164.92C116.491 163.877 120.259 163.216 123.146 163.257C126.032 163.298 128.526 164.078 130.565 165.304C130.848 165.332 135.24 168.292 135.432 168.422L212.554 221.97L218.413 226.043L294.432 278.836C296.686 280.417 298.583 283.308 298.53 285.684C298.473 288.57 296.712 291.244 293.127 292.825L285.538 295.845C285.287 295.954 279.309 298.165 279.013 298.147C276.282 299.19 273.062 299.516 269.963 299.076C267.462 298.828 264.461 297.519 262.761 296.338L187.183 243.121L182.184 239.6L111.606 189.904C109.351 188.324 107.316 185.453 107.549 183.095C107.806 180.506 108.692 177.556 111.738 176.223L111.903 174.548C111.476 174.25 113.541 165.165 114.079 164.918L114.102 164.92Z" fill="#A3A9DC"/>
      <path opacity="0.19" d="M114.079 165.73C116.337 164.741 120.248 164.015 122.972 163.974C125.695 163.932 128.318 164.681 130.373 165.852C130.747 165.889 135.003 168.714 135.248 168.894L212.026 222.218L217.864 226.278L293.551 278.849C295.677 280.339 297.771 283.317 297.777 285.564C297.792 288.414 296.177 291.102 292.581 292.682L285.07 295.721C284.736 295.866 278.974 297.965 278.575 297.959C275.861 298.937 272.692 299.212 269.676 298.736C267.323 298.503 264.165 297.044 262.572 295.93L187.506 243.098L182.549 239.603L112.461 190.267C110.335 188.777 108.067 185.827 108.289 183.591C108.531 181.145 108.982 178.086 111.848 176.834L111.93 175.207C111.374 174.818 113.361 166.059 114.078 165.741L114.079 165.73Z" fill="#9FA4D8"/>
      <path opacity="0.24" d="M114.068 166.53C116.194 165.606 120.238 164.804 122.81 164.681C125.52 164.549 128.121 165.284 130.194 166.391C130.658 166.437 134.769 169.124 135.09 169.345L211.524 222.446L217.341 226.482L292.684 278.83C294.694 280.231 296.972 283.304 297.037 285.413C297.135 288.238 295.669 290.929 292.061 292.508L284.617 295.565C284.199 295.746 278.653 297.744 278.163 297.729C275.468 298.642 272.348 298.878 269.417 298.354C267.199 298.135 263.906 296.54 262.4 295.479L187.845 243.02L182.92 239.551L113.311 190.574C111.301 189.173 108.824 186.147 109.032 184.043C109.26 181.74 109.277 178.571 111.976 177.392L111.974 175.801C111.268 175.308 113.187 166.888 114.094 166.499L114.068 166.53Z" fill="#9BA0D5"/>
      <path opacity="0.29" d="M114.057 167.341C116.04 166.469 120.241 165.583 122.638 165.387C125.31 165.173 127.903 165.875 130.004 166.928C130.558 166.983 134.533 169.546 134.907 169.805L210.998 222.684L216.782 226.705L291.781 278.83C293.662 280.151 296.148 283.312 296.273 285.282C296.452 288.092 295.125 290.764 291.517 292.354L284.15 295.429C283.649 295.647 278.319 297.544 277.726 297.53C275.059 298.39 271.979 298.563 269.132 298.003C267.05 297.797 263.611 296.055 262.201 295.07L188.167 242.996L183.274 239.553L114.144 190.934C112.263 189.614 109.553 186.519 109.748 184.547C109.962 182.388 109.531 179.119 112.064 178.002L111.977 176.458C111.132 175.873 112.972 167.79 114.06 167.308L114.057 167.341Z" fill="#979BD2"/>
      <path opacity="0.33" d="M114.034 168.151C115.886 167.333 120.233 166.361 122.464 166.104C125.087 165.807 127.695 166.477 129.812 167.477C130.457 167.54 134.285 169.966 134.723 170.277L210.47 222.932L216.233 226.94L290.899 278.854C292.651 280.084 295.701 283.334 295.518 285.174C296.302 287.877 294.601 290.634 290.97 292.222L283.681 295.327C283.096 295.581 277.981 297.377 277.298 297.354C274.648 298.149 271.619 298.272 268.855 297.687C266.908 297.494 263.336 295.605 262.022 294.685L188.498 242.996L183.638 239.577L114.997 191.319C113.245 190.089 110.302 186.916 110.484 185.076C110.684 183.06 109.818 179.682 112.183 178.647L112.013 177.14C111.029 176.453 112.79 168.706 114.056 168.153L114.034 168.151Z" fill="#9397CF"/>
      <path opacity="0.38" d="M114.022 168.962C115.742 168.208 120.237 167.129 122.29 166.821C124.865 166.431 127.486 167.079 129.621 168.025C130.368 168.099 134.048 170.399 134.551 170.749L209.954 223.181L215.695 227.176L290.018 278.867C291.653 280.008 294.934 283.347 294.765 285.055C295.702 287.706 294.067 290.482 290.435 292.08L283.213 295.203C282.544 295.493 277.634 297.187 276.86 297.166C274.228 297.896 271.249 297.968 268.569 297.347C266.769 297.169 263.039 295.142 261.821 294.287L188.808 242.982L183.979 239.589L115.817 191.69C114.182 190.549 111.031 187.289 111.2 185.581C111.385 183.708 110.085 180.22 112.271 179.257L112.016 177.797C110.894 177.007 112.575 169.608 114.021 168.973L114.022 168.962Z" fill="#8F92CC"/>
      <path opacity="0.43" d="M114 169.76C115.589 169.061 120.232 167.874 122.117 167.527C124.644 167.054 127.279 167.671 129.431 168.562C130.268 168.645 133.802 170.808 134.368 171.209L209.417 223.417L215.126 227.386L289.105 278.854C290.612 279.904 294.135 283.335 293.979 284.91C295.069 287.521 293.513 290.315 289.858 291.912L282.714 295.054C281.961 295.38 277.268 296.962 276.39 296.942C273.775 297.617 270.848 297.639 268.252 296.97C266.588 296.806 262.724 294.632 261.602 293.842L189.101 242.911L184.304 239.543L116.62 192.003C115.113 190.952 111.73 187.614 111.886 186.038C112.057 184.309 110.311 180.709 112.34 179.831L112.001 178.407C110.74 177.526 112.343 170.453 113.979 169.747L114 169.76Z" fill="#8B8EC9"/>
      <path opacity="0.48" d="M113.988 170.571C115.445 169.937 120.237 168.631 121.943 168.244C124.421 167.688 127.06 168.272 129.239 169.111C130.167 169.203 133.565 171.241 134.197 171.671L208.901 223.666L214.588 227.623L288.235 278.868C289.613 279.839 293.379 283.349 293.237 284.792C294.48 287.352 292.99 290.164 289.335 291.771L282.269 294.932C281.433 295.294 276.955 296.775 275.986 296.757C273.389 297.368 270.512 297.339 268.01 296.635C266.483 296.484 262.483 294.175 261.447 293.449L189.456 242.901L184.691 239.559L117.497 192.379C116.119 191.408 112.503 188.002 112.646 186.559C112.803 184.972 110.621 181.274 112.473 180.456L112.06 179.08C110.661 178.096 112.195 171.373 114 170.573L113.988 170.571Z" fill="#8789C6"/>
      <path opacity="0.52" d="M113.965 171.381C115.291 170.801 120.221 169.364 121.77 168.961C124.198 168.323 126.852 168.874 129.048 169.659C130.066 169.76 133.318 171.662 134.013 172.142L208.373 223.915L214.028 227.856L287.33 278.89C288.58 279.77 292.589 283.371 292.459 284.682C293.855 287.201 292.444 290.032 288.764 291.648L281.765 294.826C280.845 295.225 276.584 296.605 275.512 296.577C272.933 297.122 270.107 297.043 267.689 296.303C266.297 296.165 262.153 293.708 261.212 293.047L189.732 242.884L184.998 239.567L118.284 192.746C117.034 191.866 113.185 188.381 113.326 187.071C113.469 185.628 110.852 181.82 112.537 181.074L112.041 179.735C110.502 178.659 111.958 172.262 113.942 171.39L113.965 171.381Z" fill="#8385C2"/>
      <path opacity="0.57" d="M113.955 172.181C115.15 171.654 120.231 170.077 121.608 169.668C123.976 168.946 126.656 169.467 128.869 170.198C129.978 170.307 133.094 172.073 133.841 172.603L207.858 224.153L213.492 228.081L286.45 278.892C287.583 279.682 291.834 283.374 291.718 284.553C293.267 287.02 291.934 289.87 288.242 291.496L281.321 294.693C280.318 295.128 276.272 296.407 275.109 296.381C272.546 296.873 269.772 296.732 267.438 295.955C266.193 295.832 261.903 293.227 261.058 292.643L190.088 242.864L185.386 239.572L119.15 193.11C118.017 192.319 113.959 188.758 114.076 187.579C114.205 186.279 111.142 182.36 112.658 181.698L112.079 180.395C110.401 179.216 111.777 173.167 113.94 172.213L113.955 172.181Z" fill="#7F80BF"/>
      <path opacity="0.62" d="M113.932 172.991C114.994 172.529 120.216 170.799 121.424 170.373C123.731 169.578 126.426 170.056 128.667 170.734C129.878 170.854 132.835 172.493 133.659 173.064L207.332 224.39L212.945 228.294L285.571 278.883C286.576 279.583 291.07 283.365 290.965 284.423C292.667 286.85 291.401 289.717 287.697 291.342L280.854 294.558C279.768 295.029 275.937 296.207 274.673 296.171C272.128 296.598 269.416 296.407 267.154 295.594C266.045 295.484 261.608 292.742 260.861 292.212L190.403 242.806L185.744 239.541L119.998 193.439C118.993 192.738 114.702 189.099 114.807 188.041C114.921 186.895 111.424 182.855 112.773 182.266L112.109 181.01C110.293 179.74 111.59 174.016 113.943 172.992L113.932 172.991Z" fill="#7B7CBC"/>
      <path opacity="0.67" d="M113.92 173.802C114.852 173.394 120.215 171.499 121.261 171.091C123.508 170.212 126.229 170.66 128.498 171.285C129.8 171.414 132.622 172.917 133.498 173.537L206.827 224.64L212.407 228.53L284.69 278.895C285.567 279.505 290.303 283.378 290.211 284.304C292.067 286.679 290.879 289.565 287.163 291.2L280.387 294.434C279.217 294.941 275.602 296.018 274.245 295.984C271.719 296.346 269.056 296.116 266.879 295.255C265.905 295.158 261.335 292.27 260.672 291.815L190.735 242.794L186.109 239.544L120.842 193.8C119.965 193.191 115.443 189.461 115.534 188.547C115.633 187.544 111.701 183.406 112.883 182.889L112.135 181.669C110.18 180.296 111.398 174.921 113.931 173.803L113.92 173.802Z" fill="#7777B9"/>
      <path opacity="0.71" d="M113.908 174.613C114.708 174.269 120.216 172.189 121.088 171.808C123.274 170.845 126.021 171.262 128.307 171.833C129.699 171.971 132.374 173.348 133.315 173.998L206.301 224.878L211.859 228.754L283.799 278.896C284.546 279.426 289.526 283.379 289.447 284.172C291.467 286.508 290.334 289.411 286.618 291.046L279.92 294.299C278.666 294.842 275.269 295.807 273.809 295.774C271.299 296.082 268.688 295.79 266.594 294.904C265.756 294.821 261.039 291.795 260.485 291.396L191.059 242.759L186.464 239.535L121.676 194.15C120.928 193.62 116.185 189.824 116.262 189.042C116.347 188.182 111.969 183.933 112.984 183.488L112.151 182.316C110.045 180.85 111.197 175.802 113.908 174.613V174.613Z" fill="#7373B6"/>
      <path opacity="0.76" d="M113.886 175.412C114.543 175.121 120.123 172.436 120.915 172.514C123.206 171.884 125.803 171.852 128.117 172.37C129.599 172.517 132.139 173.759 133.144 174.459L205.786 225.116L211.324 228.968L282.93 278.899C283.561 279.34 288.771 283.382 288.706 284.043C290.879 286.328 289.823 289.26 286.085 290.893L279.465 294.165C278.128 294.744 274.945 295.608 273.383 295.576C270.902 295.82 268.331 295.476 266.32 294.554C265.629 294.486 260.767 291.312 260.296 290.988L191.381 242.736L186.818 239.536L122.508 194.51C121.878 194.07 116.913 190.196 116.978 189.546C117.049 188.83 112.235 184.471 113.083 184.099L112.167 182.962C109.923 181.394 111.006 176.684 113.896 175.424L113.886 175.412Z" fill="#6F6EB3"/>
      <path opacity="0.81" d="M113.874 176.223C114.401 175.986 120.107 173.169 120.752 173.232C123.003 172.543 125.606 172.456 127.937 172.92C129.51 173.076 131.903 174.181 132.971 174.932L205.27 225.365L210.775 229.203L282.038 278.911C282.54 279.261 287.993 283.394 287.94 283.923C290.267 286.167 289.279 289.106 285.539 290.75L278.985 294.05C277.564 294.666 274.597 295.429 272.945 295.388C270.482 295.567 267.961 295.173 266.033 294.214C265.479 294.16 260.482 290.839 260.097 290.579L191.693 242.7L187.162 239.526L123.342 194.86C122.84 194.51 117.643 190.558 117.696 190.029C117.752 189.456 112.504 184.987 113.173 184.697L112.183 183.609C109.801 181.938 110.804 177.576 113.874 176.223V176.223Z" fill="#6B6AB0"/>
      <path opacity="0.86" d="M113.851 177.033C114.246 176.86 120.092 173.901 120.567 173.948C122.778 173.199 125.386 173.057 127.734 173.467C129.409 173.633 131.654 174.612 132.776 175.402L204.732 225.612L210.215 229.437L281.134 278.922C281.508 279.181 287.203 283.405 287.164 283.802C289.644 285.994 288.733 288.963 284.971 290.605L278.495 293.924C276.989 294.587 274.239 295.238 272.484 295.198C270.037 295.323 267.568 294.867 265.736 293.873C265.317 293.832 260.174 290.375 259.896 290.18L192.003 242.686L187.504 239.537L124.163 195.23C123.788 194.971 118.371 190.941 118.41 190.545C118.453 190.115 112.757 185.546 113.271 185.319L112.198 184.267C109.676 182.504 110.601 178.469 113.85 177.044L113.851 177.033Z" fill="#6765AC"/>
      <path opacity="0.9" d="M113.841 177.833C114.104 177.714 120.09 174.613 120.407 174.644C122.578 173.836 125.192 173.638 127.556 173.995C129.321 174.17 131.42 175.012 132.617 175.853L204.229 225.841L209.679 229.651L280.266 278.914C280.511 279.094 286.461 283.398 286.435 283.663C289.067 285.815 288.236 288.792 284.46 290.454L278.062 293.792C276.473 294.491 273.939 295.042 272.093 294.992C269.664 295.052 267.245 294.557 265.497 293.516C265.214 293.488 259.937 289.884 259.744 289.754L192.361 242.644L187.894 239.52L125.031 195.572C124.786 195.392 119.136 191.295 119.162 191.031C119.19 190.744 113.06 186.066 113.394 185.921L112.237 184.916C109.576 183.051 110.421 179.363 113.85 177.856L113.841 177.833Z" fill="#6361A9"/>
      <path opacity="0.95" d="M113.818 178.642C113.949 178.589 120.063 175.345 120.222 175.36C122.364 174.493 124.961 174.239 127.353 174.542C129.209 174.726 131.172 175.443 132.423 176.312L203.691 226.077L209.121 229.863L279.363 278.913C279.492 279.004 285.673 283.398 285.66 283.53C288.446 285.631 287.68 288.637 283.893 290.298L277.561 293.654C275.889 294.389 273.57 294.838 271.622 294.779C269.212 294.774 266.843 294.228 265.179 293.151C265.043 293.137 259.608 289.395 259.524 289.32L192.652 242.595L188.216 239.497L125.844 195.909C125.716 195.818 119.844 191.643 119.857 191.511C119.871 191.368 113.306 186.58 113.473 186.507L112.232 185.539C109.432 183.582 110.199 180.22 113.818 178.642V178.642Z" fill="#5F5CA6"/>
      <path d="M264.904 292.812L188.582 239.499L112.26 186.187C109.321 184.127 110.008 181.113 113.807 179.442L120.06 176.068C123.858 174.408 129.312 174.725 132.25 176.785L208.573 230.098L284.895 283.41C287.833 285.47 287.146 288.484 283.347 290.155L277.094 293.529C273.296 295.189 267.842 294.872 264.904 292.812Z" fill="#5B58A3"/>
    </g>
    <path d="M265.527 291.706L116.776 187.891C108.312 181.969 102.385 167.732 103.537 156.098L116.46 25.5568C117.612 13.9229 125.406 9.29878 133.87 15.2208L282.621 119.036C291.085 124.958 297.012 139.195 295.86 150.829L282.938 281.359C281.786 292.993 273.992 297.617 265.529 291.695L265.527 291.706Z" fill="url(#paint1_linear_679_5712)"/>
    <path d="M270.767 287.029L119.342 181.359C112.363 176.028 108.679 166.374 109.609 156.977L123.016 21.5445C123.237 19.319 125.864 18.1774 127.733 19.4971C127.946 19.6517 128.117 19.7688 128.224 19.8461L279.815 125.678C288.173 131.522 290.479 140.662 289.547 150.07L276.184 285.062C275.947 287.453 273.139 288.688 271.13 287.287C270.969 287.182 270.841 287.092 270.756 287.028L270.767 287.029Z" fill="url(#paint2_linear_679_5712)"/>
    <path d="M279.815 125.678L128.213 19.845C128.106 19.7677 127.935 19.6507 127.722 19.4961C125.852 18.1763 123.227 19.3069 123.005 21.5434L109.599 156.965C108.668 166.373 112.352 176.016 119.332 181.347L270.756 287.028C270.841 287.092 270.97 287.171 271.13 287.287C273.141 288.677 275.948 287.442 276.184 285.062L289.548 150.059C290.48 140.651 288.174 131.511 279.816 125.667L279.815 125.678ZM274.305 284.876C274.227 285.669 273.487 286.097 272.854 286.034C272.627 286.012 272.418 285.935 272.226 285.794L120.439 179.865C114.139 175.047 110.602 166.109 111.489 157.152L124.895 21.7305C124.959 21.0805 125.565 20.7289 126.097 20.7815C126.29 20.8006 126.465 20.8736 126.625 20.9895L278.72 127.16C287.377 133.212 288.365 142.856 287.67 149.873L274.306 284.865L274.305 284.876Z" fill="#AFB6E5"/>
    <path d="M287.451 117.111L138.711 13.2971C135.366 10.9524 132.121 10.2639 129.351 11.0021C128.998 11.1007 124.241 12.9882 123.906 13.1331L123.884 13.1309C126.785 12.1053 130.269 12.695 133.881 15.2219L282.621 119.036C291.085 124.958 297.012 139.195 295.86 150.829L282.938 281.359C282.219 288.619 278.914 293.153 274.467 294.093C274.816 294.149 275.27 294.061 275.94 293.76C276.154 293.67 281.333 291.457 281.538 291.344C284.824 289.544 287.176 285.416 287.768 279.434L300.69 148.904C301.842 137.27 295.915 123.033 287.451 117.111V117.111Z" fill="url(#paint3_linear_679_5712)"/>
    <path d="M283.439 118.738L134.688 14.9235C131.215 12.4882 127.871 11.868 125.03 12.7438C127.386 12.6098 130.002 13.4251 132.684 15.3037L281.426 119.106C289.89 125.028 295.816 139.266 294.665 150.9L281.743 281.429C281.063 288.293 278.068 292.691 273.989 293.956C279.067 293.68 282.958 289.003 283.745 281.06L296.667 150.53C297.818 138.896 291.892 124.659 283.428 118.737L283.439 118.738Z" fill="white"/>
    <g opacity="0.2">
      <path opacity="0.05" d="M73.3778 275.579C75.5182 274.65 78.3502 274.226 80.9261 274.409C83.2407 274.578 85.3307 275.269 86.9246 276.343C87.0038 276.351 90.7735 278.96 90.8278 278.988L153.447 322.685L158.207 326.006L219.939 369.091C221.956 370.508 223.184 372.703 223.025 374.834C222.838 377.23 221.181 379.365 218.312 380.609L212.068 383.002C211.997 383.028 206.828 384.962 206.748 384.965C204.516 385.895 201.83 386.234 199.197 385.934C196.957 385.706 194.767 384.871 193.253 383.805L131.604 340.117L127.51 337.22L69.9549 296.441C67.9387 295.023 66.6649 292.823 66.8798 290.709C67.1159 288.385 68.5388 286.193 71.266 285.001L71.5359 283.582C71.4182 283.503 73.2354 275.631 73.379 275.568L73.3778 275.579Z" fill="#ABB2E2"/>
      <path opacity="0.1" d="M73.3571 276.233C75.39 275.349 78.3294 274.88 80.7763 274.984C83.0636 275.083 85.1446 275.751 86.7656 276.783C86.9127 276.798 90.568 279.295 90.6744 279.373L153.025 322.898L157.764 326.206L219.218 369.106C221.138 370.459 222.508 372.723 222.406 374.738C222.292 377.097 220.737 379.242 217.866 380.497L211.678 382.906C211.546 382.96 206.535 384.81 206.387 384.806C204.172 385.682 201.523 385.992 198.963 385.654C196.836 385.438 194.532 384.491 193.092 383.477L131.858 340.098L127.796 337.215L70.635 296.721C68.7151 295.369 67.2636 293.118 67.4684 291.102C67.6922 288.9 68.7712 286.606 71.3536 285.488L71.5512 284.106C71.327 283.95 73.071 276.349 73.3582 276.222L73.3571 276.233Z" fill="#A7ADDF"/>
      <path opacity="0.14" d="M73.3475 276.889C75.273 276.049 78.3199 275.536 80.6479 275.572C82.9759 275.608 84.9912 276.247 86.628 277.237C86.8543 277.26 90.3941 279.656 90.5435 279.76L152.616 323.101L157.333 326.396L218.519 369.124C220.332 370.399 221.855 372.735 221.809 374.655C221.754 376.987 220.325 379.134 217.43 380.397L211.31 382.813C211.106 382.904 206.276 384.661 206.047 384.66C203.848 385.494 201.239 385.751 198.75 385.387C196.736 385.183 194.317 384.125 192.952 383.162L132.121 340.092L128.08 337.233L71.3004 297.034C69.4869 295.759 67.8487 293.433 68.0423 291.528C68.255 289.435 68.9764 287.06 71.4276 285.996L71.5642 284.653C71.2223 284.418 72.9043 277.088 73.3464 276.9L73.3475 276.889Z" fill="#A3A9DC"/>
      <path opacity="0.19" d="M73.3278 277.532C75.1459 276.737 78.3013 276.168 80.4992 276.135C82.697 276.103 84.8062 276.718 86.4588 277.665C86.7529 277.694 90.1897 279.98 90.381 280.122L152.175 323.279L156.87 326.56L217.778 369.104C219.495 370.314 221.171 372.721 221.17 374.524C221.176 376.828 219.871 378.987 216.965 380.25L210.9 382.683C210.625 382.799 205.974 384.485 205.666 384.476C203.483 385.256 200.924 385.475 198.483 385.082C196.583 384.889 194.051 383.708 192.759 382.809L132.343 340.048L128.334 337.203L71.9375 297.287C70.2202 296.078 68.4044 293.701 68.5879 291.895C68.7883 289.923 69.1532 287.457 71.4733 286.446L71.5386 285.129C71.0903 284.816 72.7104 277.759 73.2961 277.507L73.3278 277.532Z" fill="#9FA4D8"/>
      <path opacity="0.24" d="M73.3184 278.188C75.0291 277.438 78.3054 276.803 80.372 276.712C82.5653 276.612 84.6541 277.203 86.3224 278.107C86.6957 278.145 90.0057 280.328 90.2627 280.499L151.777 323.483L156.451 326.751L217.09 369.124C218.701 370.255 220.541 372.735 220.596 374.443C220.673 376.721 219.482 378.881 216.564 380.154L210.554 382.603C210.219 382.747 205.736 384.35 205.348 384.344C203.181 385.081 200.66 385.259 198.292 384.829C196.505 384.647 193.858 383.355 192.653 382.509L132.651 340.057L128.662 337.237L72.6585 297.617C71.0476 296.485 69.045 294.033 69.2174 292.337C69.4065 290.476 69.4252 287.93 71.6017 286.982L71.606 285.703C71.04 285.312 72.5982 278.526 73.3275 278.211L73.3184 278.188Z" fill="#9BA0D5"/>
      <path opacity="0.29" d="M73.2977 278.842C74.8998 278.148 78.2858 277.446 80.2222 277.287C82.3769 277.116 84.468 277.685 86.1634 278.547C86.6159 278.593 89.8115 280.665 90.1104 280.873L151.346 323.673L155.999 326.928L216.359 369.116C217.874 370.183 219.866 372.733 219.968 374.323C220.104 376.585 219.027 378.746 216.109 380.018L210.166 382.486C209.76 382.656 205.456 384.177 204.989 384.163C202.828 384.845 200.357 384.983 198.06 384.527C196.386 384.357 193.625 382.953 192.494 382.159L132.906 340.016L128.95 337.221L73.3285 297.885C71.8138 296.819 69.6336 294.316 69.7947 292.73C69.9716 290.99 69.6339 288.351 71.6792 287.458L71.6123 286.204C70.9409 285.724 72.4361 279.222 73.3101 278.832L73.2977 278.842Z" fill="#979BD2"/>
      <path opacity="0.33" d="M73.2893 279.487C74.784 278.837 78.2921 278.059 80.0848 277.851C82.201 277.61 84.3056 278.158 86.0055 278.976C86.5259 279.029 89.606 281 89.9581 281.247L150.915 323.863L155.558 327.106L215.651 369.111C217.059 370.1 219.512 372.73 219.361 374.217C219.986 376.395 218.606 378.614 215.676 379.885L209.789 382.369C209.322 382.578 205.188 384.005 204.629 383.993C202.484 384.632 200.052 384.718 197.827 384.236C196.265 384.078 193.39 382.561 192.335 381.809L133.15 339.974L129.215 337.193L73.9871 298.152C72.5789 297.163 70.2119 294.586 70.3619 293.11C70.5264 291.491 69.8323 288.761 71.7453 287.932L71.606 286.716C70.817 286.157 72.2502 279.926 73.2678 279.473L73.2893 279.487Z" fill="#9397CF"/>
      <path opacity="0.38" d="M73.2685 280.141C74.6558 279.537 78.286 278.681 79.9451 278.438C82.0217 278.137 84.1296 278.652 85.8567 279.428C86.4562 279.489 89.422 281.349 89.8272 281.635L150.506 324.066L155.127 327.296L214.941 369.128C216.253 370.051 218.893 372.756 218.753 374.133C219.506 376.28 218.183 378.504 215.241 379.785L209.409 382.286C208.871 382.521 204.915 383.877 204.277 383.857C202.149 384.442 199.754 384.499 197.601 383.98C196.142 383.831 193.165 382.194 192.183 381.504L133.413 339.978L129.51 337.223L74.6639 298.466C73.3518 297.542 70.8072 294.914 70.9471 293.537C71.1004 292.028 70.0488 289.217 71.8307 288.441L71.6303 287.263C70.7235 286.626 72.1062 280.668 73.2673 280.152L73.2685 280.141Z" fill="#8F92CC"/>
      <path opacity="0.43" d="M73.2601 280.786C74.54 280.226 78.2821 279.282 79.8077 279.003C81.8457 278.631 83.9672 279.125 85.6987 279.857C86.3775 279.926 89.2164 281.684 89.676 281.997L150.086 324.257L154.686 327.473L214.233 369.123C215.448 369.981 218.276 372.749 218.147 374.016C219.019 376.119 217.762 378.372 214.808 379.652L209.043 382.171C208.434 382.432 204.647 383.705 203.941 383.678C201.83 384.209 199.473 384.226 197.38 383.679C196.034 383.542 192.943 381.793 192.036 381.155L133.68 339.939L129.798 337.196L75.3451 298.735C74.1293 297.877 71.4081 295.186 71.5369 293.919C71.6779 292.532 70.2822 289.619 71.9092 288.905L71.6376 287.754C70.6244 287.039 71.935 281.341 73.2499 280.773L73.2601 280.786Z" fill="#8B8EC9"/>
      <path opacity="0.48" d="M73.2393 281.44C74.4118 280.925 78.2782 279.882 79.6579 279.577C81.6574 279.135 83.7811 279.607 85.5397 280.297C86.2864 280.373 89.0222 282.02 89.5237 282.372L149.656 324.447L154.234 327.65L213.501 369.126C214.61 369.907 217.636 372.751 217.517 373.919C218.518 375.99 217.317 378.249 214.351 379.539L208.642 382.075C207.972 382.363 204.354 383.553 203.568 383.529C201.472 384.017 199.155 383.982 197.133 383.409C195.9 383.284 192.695 381.422 191.863 380.837L133.921 339.93L130.071 337.213L76.0004 299.036C74.891 298.255 71.982 295.5 72.1006 294.333C72.2305 293.055 70.4773 290.062 71.972 289.412L71.6394 288.299C70.5084 287.505 71.757 282.079 73.2156 281.449L73.2393 281.44Z" fill="#8789C6"/>
      <path opacity="0.52" d="M73.2299 282.096C74.295 281.625 78.2857 280.484 79.5308 280.154C81.4906 279.652 83.629 280.092 85.4045 280.729C86.2304 280.813 88.8519 282.348 89.4066 282.738L149.26 324.63L153.817 327.819L212.816 369.112C213.83 369.827 217.054 372.737 216.947 373.794C218.067 375.822 216.92 378.109 213.954 379.399L208.311 381.952C207.57 382.278 204.132 383.375 203.265 383.354C201.187 383.788 198.907 383.723 196.958 383.113C195.838 382.999 192.518 381.026 191.76 380.493L134.222 339.894L130.393 337.19L76.7157 299.309C75.7025 298.594 72.617 295.776 72.7244 294.719C72.8419 293.562 70.7323 290.477 72.0959 289.881L71.692 288.794C70.4547 287.923 71.6414 282.769 73.2435 282.075L73.2299 282.096Z" fill="#8385C2"/>
      <path opacity="0.57" d="M73.2102 282.739C74.178 282.326 78.2727 281.061 79.3809 280.729C81.2908 280.155 83.4428 280.574 85.2341 281.168C86.1279 281.259 88.6339 282.693 89.2418 283.122L148.816 324.841L153.351 328.017L212.071 369.137C212.978 369.774 216.4 372.759 216.303 373.717C217.552 375.714 216.462 378.007 213.483 379.306L207.897 381.866C207.084 382.217 203.826 383.232 202.879 383.214C200.817 383.605 198.577 383.489 196.698 382.853C195.691 382.751 192.258 380.655 191.576 380.174L134.451 339.884L130.654 337.205L77.3596 299.608C76.4528 298.97 73.1794 296.089 73.2768 295.131C73.3831 294.085 70.9273 290.92 72.1473 290.387L71.6823 289.338C70.3273 288.388 71.452 283.506 73.2091 282.75L73.2102 282.739Z" fill="#7F80BF"/>
      <path opacity="0.62" d="M73.2008 283.395C74.0612 283.026 78.2711 281.64 79.2538 281.306C81.1252 280.661 83.2907 281.059 85.0978 281.61C86.0707 281.709 88.4623 283.031 89.1122 283.498L148.408 325.033L152.921 328.195L211.374 369.133C212.185 369.704 215.794 372.764 215.709 373.601C217.076 375.565 216.052 377.876 213.063 379.175L207.532 381.751C206.659 382.129 203.568 383.073 202.543 383.035C200.497 383.373 198.296 383.216 196.477 382.552C195.584 382.462 192.036 380.254 191.428 379.825L134.718 339.844L130.943 337.179L78.0409 299.877C77.2304 299.305 73.7805 296.362 73.8666 295.514C73.9606 294.589 71.1484 291.332 72.2372 290.853L71.6999 289.841C70.2384 288.813 71.3013 284.203 73.1917 283.371L73.2008 283.395Z" fill="#7B7CBC"/>
      <path opacity="0.67" d="M73.18 284.049C73.933 283.725 78.2593 282.206 79.104 281.88C80.9244 281.175 83.1159 281.542 84.9388 282.05C85.9909 282.157 88.2557 283.378 88.9599 283.872L147.977 325.223L152.469 328.372L210.642 369.136C211.346 369.63 215.154 372.766 215.079 373.504C216.575 375.425 215.607 377.753 212.606 379.061L207.141 381.655C206.197 382.06 203.286 382.922 202.181 382.887C200.151 383.182 197.989 382.973 196.242 382.284C195.461 382.204 191.799 379.885 191.266 379.508L134.97 339.836L131.227 337.197L78.7075 300.179C78.0034 299.684 74.3656 296.677 74.4417 295.928C74.5246 295.113 71.3548 291.775 72.3113 291.361L71.7141 290.377C70.1349 289.27 71.1358 284.932 73.1811 284.038L73.18 284.049Z" fill="#7777B9"/>
      <path opacity="0.71" d="M73.1604 284.692C73.806 284.413 78.2497 282.75 78.9552 282.444C80.7247 281.678 82.9309 282.013 84.7696 282.478C85.8896 282.592 88.0513 283.702 88.8087 284.235L147.546 325.413L152.016 328.549L209.923 369.13C210.531 369.559 214.526 372.758 214.461 373.397C216.075 375.286 215.164 377.619 212.162 378.927L206.753 381.538C205.748 381.981 203.007 382.749 201.821 382.717C199.797 382.957 197.695 382.721 196.009 381.993C195.341 381.925 191.566 379.483 191.106 379.169L135.214 339.805L131.49 337.19L79.3526 300.467C78.7447 300.038 74.9304 296.968 74.9953 296.33C75.0658 295.636 71.5407 292.195 72.365 291.845L71.6954 290.898C70.0098 289.714 70.9375 285.646 73.1264 284.689L73.1604 284.692Z" fill="#7373B6"/>
      <path opacity="0.76" d="M73.1509 285.348C73.689 285.113 78.1832 282.955 78.828 283.021C80.6736 282.518 82.7787 282.498 84.6331 282.921C85.8323 283.042 87.8673 284.05 88.679 284.611L147.138 325.605L151.587 328.728L209.214 369.136C209.715 369.487 213.92 372.763 213.866 373.292C215.61 375.138 214.753 377.499 211.74 378.806L206.387 381.434C205.31 381.903 202.749 382.589 201.483 382.56C199.474 382.757 197.412 382.469 195.797 381.715C195.242 381.659 191.353 379.105 190.968 378.843L135.49 339.789L131.799 337.188L80.0554 300.75C79.5539 300.398 75.5517 297.265 75.6054 296.737C75.6648 296.153 71.7934 292.632 72.4752 292.334L71.7457 291.415C69.9435 290.141 70.8194 286.357 73.152 285.337L73.1509 285.348Z" fill="#6F6EB3"/>
      <path opacity="0.81" d="M73.13 286.002C73.5608 285.813 78.1679 283.554 78.677 283.606C80.4931 283.056 82.5914 282.991 84.4616 283.37C85.7287 283.499 87.6606 284.397 88.513 285.006L146.705 325.817L151.132 328.926L208.481 369.15C208.886 369.436 213.278 372.776 213.235 373.205C215.108 375.02 214.307 377.387 211.282 378.704L205.995 381.35C204.847 381.845 202.453 382.459 201.121 382.412C199.129 382.555 197.105 382.227 195.549 381.457C195.096 381.411 191.104 378.746 190.805 378.537L135.742 339.781L132.072 337.205L80.7094 301.061C80.3042 300.775 76.1255 297.579 76.168 297.161C76.215 296.698 71.9873 293.086 72.5368 292.853L71.7349 291.97C69.815 290.617 70.629 287.106 73.1165 286.023L73.13 286.002Z" fill="#6B6AB0"/>
      <path opacity="0.86" d="M73.1217 286.647C73.444 286.513 78.155 284.132 78.5397 284.171C80.3263 283.573 82.4291 283.464 84.3151 283.801C85.6614 283.938 87.4778 284.734 88.3846 285.372L146.298 325.998L150.704 329.094L207.784 369.146C208.083 369.354 212.673 372.77 212.641 373.089C214.633 374.861 213.898 377.256 210.861 378.572L205.63 381.235C204.422 381.757 202.196 382.288 200.784 382.244C198.809 382.333 196.822 381.975 195.338 381.168C194.999 381.134 190.892 378.357 190.669 378.19L136.02 339.742L132.383 337.181L81.4134 301.333C81.1146 301.124 76.748 297.865 76.7805 297.546C76.8163 297.193 72.231 293.5 72.6493 293.32L71.7865 292.476C69.7601 291.046 70.5133 287.795 73.1319 286.659L73.1217 286.647Z" fill="#6765AC"/>
      <path opacity="0.9" d="M73.1009 287.302C73.3157 287.212 78.1409 284.72 78.4011 284.747C80.1583 284.102 82.2542 283.947 84.1673 284.242C85.5928 284.387 87.2835 285.071 88.2435 285.747L145.877 326.2L150.262 329.283L207.063 369.151C207.266 369.294 212.043 372.784 212.022 372.993C214.143 374.733 213.453 377.133 210.415 378.46L205.25 381.14C203.971 381.7 201.926 382.138 200.433 382.098C198.473 382.143 196.526 381.734 195.114 380.9C194.887 380.877 190.667 377.978 190.518 377.874L136.272 339.735L132.655 337.197L82.0686 301.633C81.866 301.49 77.3229 298.168 77.3442 297.959C77.3677 297.728 72.4373 293.944 72.7007 293.826L71.7666 293.008C69.6225 291.499 70.3138 288.521 73.0873 287.322L73.1009 287.302Z" fill="#6361A9"/>
      <path opacity="0.95" d="M73.0926 287.946C73.2 287.901 78.1393 285.299 78.2637 285.311C79.9914 284.619 82.0918 284.421 84.0095 284.671C85.5028 284.823 87.0894 285.407 88.0923 286.11L145.448 326.379L149.822 329.45L206.355 369.146C206.451 369.211 211.427 372.777 211.417 372.876C213.655 374.583 213.033 376.991 209.983 378.327L204.875 381.013C203.524 381.599 201.659 381.955 200.085 381.918C198.143 381.909 196.234 381.459 194.893 380.6C194.78 380.588 190.445 377.577 190.37 377.525L136.539 339.695L132.955 337.172L82.7612 301.904C82.665 301.838 77.9352 298.442 77.9453 298.343C77.9576 298.222 72.6697 294.357 72.802 294.293L71.8068 293.513C69.5563 291.927 70.1857 289.22 73.1039 287.947L73.0926 287.946Z" fill="#5F5CA6"/>
      <path d="M194.67 380.321L133.24 337.179L71.8108 294.036C69.4425 292.371 70.01 289.936 73.0718 288.601L78.1241 285.898C81.1859 284.562 85.5933 284.832 87.9616 286.497L149.391 329.639L210.82 372.782C213.189 374.447 212.621 376.882 209.559 378.218L204.507 380.92C201.445 382.256 197.038 381.986 194.67 380.321V380.321Z" fill="#5B58A3"/>
    </g>
    <path d="M128.124 28.9391C128 30.1616 110.932 197.449 109.282 213.573C108.391 222.34 106.884 237.176 106.872 237.286C106.274 243.179 101.678 249.822 96.2451 253.009C104.416 258.758 212.49 333.859 226.442 343.679L239.43 344.998C238.861 350.594 238.392 355.209 238.385 355.275C237.973 359.328 240.588 362.164 243.328 362.988L243.373 362.992C243.594 363.07 243.841 363.118 244.077 363.153C244.235 363.169 244.394 363.185 244.563 363.202C244.677 363.214 244.79 363.225 244.903 363.237C246.201 363.28 247.673 362.973 249.263 362.289C250.948 361.559 252.581 360.456 254.088 359.118C255.926 357.792 257.322 356.086 258.421 354.05C260.132 351.386 261.298 348.456 261.579 345.691C261.585 345.636 261.743 344.64 262.027 341.842C262.096 341.17 282.856 137.325 282.924 136.653L128.124 28.9391Z" fill="url(#paint4_linear_679_5712)"/>
    <path d="M124.481 64.7902L279.272 172.481C282.523 140.484 283.31 132.741 283 135.792L128.21 28.091C128.413 26.0974 117.688 130.967 116.039 147.08C115.613 151.276 115.046 156.85 114.569 161.542C117.186 135.902 126.418 45.6134 124.471 64.778L124.481 64.7902Z" fill="#2EC0E3"/>
    <path d="M222.869 282.335C222.854 282.478 223.726 283.234 225.111 284.343L225.154 283.913C223.756 282.937 222.87 282.324 222.869 282.335Z" fill="#E6E7E8"/>
    <g style="mix-blend-mode:multiply" opacity="0.5">
      <path opacity="0.03" d="M101.583 36.1483L102.013 36.5061C113.362 45.7394 125.327 48.7358 136.388 45.1766C144.098 63.753 154.332 78.5463 165.696 87.5252L166.128 87.872C166.128 87.872 165.525 91.6494 165.547 91.6629L161.672 114.422C153.581 153.778 140.926 155.051 119.068 166.719L118.624 166.382C118.25 165.395 117.877 164.409 117.512 163.445C116.759 161.316 116.011 159.242 115.291 157.227C102.801 122.582 94.8129 103.185 98.2706 63.7558C98.2754 63.7117 98.978 57.8404 98.9827 57.7964L101.571 36.1581L101.583 36.1483Z" fill="#FDFEFF"/>
      <path opacity="0.06" d="M101.785 37.1386L102.216 37.4855C113.455 46.5734 125.298 49.5345 136.249 46.0414C143.882 64.3758 153.986 78.9991 165.207 87.9293C165.207 87.9293 165.628 88.2639 165.639 88.2651C165.681 88.303 165.103 91.9605 165.133 91.9972L161.309 114.494C153.308 153.448 140.806 154.793 119.189 166.331L118.756 166.006C118.379 165.052 117.988 164.12 117.619 163.2C116.874 161.094 116.136 159.044 115.415 157.04C103.031 122.673 95.1371 103.465 98.5359 64.4746C98.5454 64.3865 99.2213 58.6571 99.2308 58.569L101.796 37.1399L101.785 37.1386Z" fill="#FCFCFE"/>
      <path opacity="0.09" d="M101.986 38.14C101.986 38.14 102.407 38.4747 102.417 38.4869C113.544 47.4404 125.266 50.3551 136.106 46.9392C143.662 65.0425 153.635 79.496 164.714 88.3664C164.714 88.3664 165.124 88.6998 165.135 88.701C165.186 88.7621 164.653 92.3132 164.705 92.3633L160.921 114.597C152.999 153.137 140.67 154.567 119.275 165.961C119.275 165.961 118.852 165.649 118.839 165.659C118.446 164.748 118.062 163.86 117.665 162.983C116.918 160.898 116.2 158.873 115.476 156.891C103.199 122.814 95.3989 103.794 98.7412 65.2203C98.7555 65.0882 99.4147 59.5129 99.4189 59.3686L101.952 38.1364L101.986 38.14Z" fill="#FAFBFE"/>
      <path opacity="0.12" d="M102.187 39.1304C102.187 39.1304 102.597 39.4639 102.619 39.4773C113.647 48.2866 125.225 51.1635 135.954 47.8138C143.433 65.675 153.288 79.9599 164.223 88.7815C164.235 88.7827 164.634 89.104 164.644 89.1162C164.716 89.1907 164.218 92.6451 164.29 92.7196L160.555 114.703C152.711 152.838 140.556 154.354 119.394 165.607C119.382 165.605 118.98 165.306 118.956 165.315C118.558 164.448 118.158 163.603 117.758 162.759C117.02 160.698 116.3 158.683 115.597 156.725C103.414 122.937 95.7195 104.106 99.0167 65.9514C99.0345 65.7862 99.6682 60.3418 99.6872 60.1657L102.197 39.1426L102.187 39.1304Z" fill="#F9FAFE"/>
      <path opacity="0.16" d="M102.378 40.1196C102.378 40.1196 102.789 40.442 102.799 40.4542C113.716 49.1291 125.173 51.9597 135.792 48.6871C143.193 66.3173 152.917 80.4323 163.71 89.1942C163.72 89.2064 164.11 89.5154 164.12 89.5276C164.212 89.6266 163.748 92.9733 163.841 93.0613L160.147 114.782C152.391 152.515 140.4 154.103 119.459 165.213C119.448 165.211 119.043 164.934 119.031 164.944C118.617 164.12 118.212 163.319 117.807 162.519C117.079 160.47 116.367 158.489 115.663 156.543C103.587 123.033 95.9861 104.391 99.2256 66.6641C99.2482 66.4549 99.8664 61.1536 99.8789 60.9322L102.367 40.1183L102.378 40.1196Z" fill="#F7F8FD"/>
      <path opacity="0.19" d="M102.58 41.1099C102.58 41.1099 102.979 41.4311 103.001 41.4446C113.808 49.974 125.143 52.7693 135.651 49.5629C142.976 66.9511 152.569 80.8962 163.22 89.6093C163.241 89.6227 163.609 89.9183 163.618 89.9415C163.732 90.0539 163.312 93.3052 163.426 93.4176L159.771 114.875C152.095 152.193 140.277 153.867 119.567 164.846C119.544 164.854 119.162 164.579 119.138 164.588C118.719 163.808 118.299 163.039 117.877 162.292C117.158 160.267 116.445 158.297 115.761 156.375C103.791 123.156 96.2955 104.702 99.4672 67.3915C99.4945 67.1383 100.085 61.9899 100.115 61.7147L102.581 41.0989L102.58 41.1099Z" fill="#F6F7FD"/>
      <path opacity="0.22" d="M102.781 42.1003C102.781 42.1003 103.182 42.4105 103.204 42.4239C113.9 50.819 125.101 53.5777 135.511 50.4387C142.758 67.5958 152.222 81.3601 162.729 90.0244C162.749 90.0489 163.107 90.3322 163.128 90.3566C163.261 90.4935 162.876 93.6371 163.01 93.7739L159.407 114.969C151.819 151.885 140.165 153.633 119.677 164.467C119.653 164.476 119.281 164.213 119.256 164.233C118.833 163.497 118.397 162.771 117.971 162.058C117.261 160.055 116.557 158.109 115.87 156.209C103.995 123.278 96.606 105.003 99.7201 68.12C99.7409 67.8216 100.327 62.8175 100.349 62.5081L102.793 42.1015L102.781 42.1003Z" fill="#F4F5FD"/>
      <path opacity="0.25" d="M102.983 43.0907C102.983 43.0907 103.373 43.3997 103.405 43.4143C113.991 51.6639 125.071 54.3874 135.371 51.3145C142.541 68.2295 151.874 81.835 162.237 90.4505C162.257 90.475 162.604 90.7571 162.626 90.7705C162.768 90.9306 162.429 93.9677 162.584 94.118L159.019 115.062C151.51 151.574 140.031 153.396 119.774 164.099C119.749 164.119 119.388 163.857 119.352 163.876C118.913 163.183 118.472 162.501 118.041 161.831C117.34 159.852 116.646 157.918 115.969 156.041C104.199 123.4 96.904 105.313 99.9616 68.8474C99.9872 68.5049 100.546 63.6428 100.585 63.2905L102.994 43.0919L102.983 43.0907Z" fill="#F3F4FC"/>
      <path opacity="0.28" d="M103.185 44.081C103.185 44.081 103.564 44.3778 103.596 44.4034C114.072 52.5077 125.03 55.1958 135.218 52.2001C142.31 68.884 151.514 82.3086 161.734 90.8754C161.754 90.8999 162.102 91.171 162.123 91.1954C162.287 91.3689 161.981 94.3094 162.156 94.4841L158.643 115.166C151.212 151.263 139.907 153.171 119.87 163.742C119.833 163.76 119.482 163.522 119.458 163.531C119.014 162.882 118.557 162.243 118.11 161.616C117.407 159.658 116.722 157.748 116.054 155.883C104.38 123.519 97.1908 105.622 100.191 69.5846C100.221 69.1981 100.764 64.49 100.796 64.0815L103.185 44.081V44.081Z" fill="#F1F3FC"/>
      <path opacity="0.31" d="M103.387 45.0714C103.387 45.0714 103.766 45.3682 103.799 45.3828C114.163 53.3527 124.989 55.9932 135.079 53.0649C142.094 69.5067 151.178 82.7737 161.245 91.2796C161.276 91.3052 161.602 91.5739 161.622 91.5983C161.806 91.7963 161.546 94.6303 161.732 94.8172L158.258 115.236C150.917 150.931 139.764 152.91 119.97 163.341C119.934 163.359 119.593 163.133 119.556 163.151C119.096 162.545 118.646 161.951 118.183 161.367C117.489 159.433 116.813 157.535 116.144 155.692C104.575 123.618 97.48 105.909 100.435 70.29C100.457 69.8692 100.986 65.2933 101.023 64.8407L103.389 45.0494L103.387 45.0714Z" fill="#F0F1FC"/>
      <path opacity="0.34" d="M103.576 46.0716C103.576 46.0716 103.945 46.3562 103.988 46.383C114.243 54.2074 124.947 56.8126 134.925 53.9615C141.862 70.1723 150.817 83.2584 160.741 91.7155C160.772 91.7411 161.087 91.9976 161.118 92.0343C161.323 92.2456 161.095 94.994 161.302 95.1944L157.867 115.361C150.605 150.641 139.626 152.706 120.052 163.004C120.016 163.022 119.685 162.809 119.637 162.826C119.172 162.264 118.706 161.713 118.239 161.162C117.555 159.24 116.888 157.376 116.228 155.545C104.766 123.761 97.7643 106.24 100.663 71.0382C100.69 70.5734 101.192 66.1393 101.244 65.655L103.587 46.0728L103.576 46.0716Z" fill="#EEF0FB"/>
      <path opacity="0.38" d="M103.778 47.062C103.778 47.062 104.147 47.3465 104.19 47.3734C114.333 55.0634 124.915 57.6333 134.774 54.8361C141.634 70.8048 150.457 83.7321 160.239 92.1294C160.269 92.166 160.574 92.4103 160.605 92.447C160.831 92.6828 160.637 95.3235 160.865 95.5373L157.481 115.442C150.297 150.319 139.492 152.458 120.152 162.614C120.104 162.631 119.783 162.43 119.745 162.459C119.264 161.94 118.794 161.422 118.311 160.924C117.636 159.026 116.967 157.172 116.315 155.377C104.947 123.88 98.0523 106.538 100.892 71.7753C100.924 71.2665 101.409 66.9866 101.467 66.4472L103.788 47.0742L103.778 47.062Z" fill="#EDEFFB"/>
      <path opacity="0.41" d="M103.979 48.0523C103.979 48.0523 104.339 48.3246 104.393 48.3527C114.437 55.8985 124.886 58.4318 134.633 55.7118C141.416 71.4495 150.11 84.1959 159.748 92.5445C159.778 92.5811 160.072 92.8242 160.115 92.851C160.351 93.099 160.213 95.6455 160.451 95.8825L157.107 115.525C150.012 149.999 139.37 152.211 120.25 162.234C120.201 162.263 119.89 162.073 119.842 162.091C119.356 161.615 118.87 161.14 118.382 160.687C117.716 158.812 117.056 156.981 116.414 155.198C105.154 123.98 98.3514 106.838 101.134 72.4917C101.171 71.9388 101.641 67.802 101.693 67.2173L103.98 48.0413L103.979 48.0523Z" fill="#EBEDFB"/>
      <path opacity="0.44" d="M104.181 49.0427C104.181 49.0427 104.529 49.3138 104.583 49.3419C114.517 56.7533 124.833 59.2391 134.481 56.5975C141.186 72.093 149.751 84.6696 159.245 92.9694C159.287 93.0072 159.559 93.2369 159.601 93.2747C159.857 93.5472 159.754 95.986 160.011 96.2475L156.717 115.639C149.701 149.698 139.233 152.007 120.346 161.877C120.297 161.905 119.996 161.728 119.947 161.757C119.456 161.325 118.954 160.893 118.451 160.472C117.783 158.618 117.132 156.811 116.5 155.04C105.334 124.111 98.6383 107.147 101.364 73.2289C101.405 72.632 101.859 68.6383 101.904 68.0084L104.17 49.0415L104.181 49.0427Z" fill="#EAECFA"/>
      <path opacity="0.47" d="M104.383 50.033C104.436 50.0721 104.732 50.2932 104.785 50.3322C114.608 57.5982 124.803 60.0487 134.341 57.4732C140.968 72.7377 149.402 85.1444 158.755 93.3845C158.796 93.4223 159.069 93.652 159.099 93.6886C159.376 93.9855 159.307 96.3167 159.586 96.5915L156.331 115.72C149.405 149.377 139.099 151.759 120.433 161.497C120.384 161.525 120.093 161.36 120.033 161.387C119.527 160.988 119.019 160.61 118.511 160.233C117.852 158.403 117.211 156.608 116.577 154.859C105.517 124.22 98.9149 107.443 101.584 73.9428C101.63 73.3019 102.068 69.4623 102.117 68.7883L104.36 50.0306L104.383 50.033Z" fill="#E8EAFA"/>
      <path opacity="0.5" d="M104.573 51.0223C104.638 51.0625 104.911 51.2812 104.977 51.3104C114.69 58.431 124.763 60.8461 134.189 58.3479C140.74 73.3703 149.044 85.6072 158.252 93.8094C158.292 93.8583 158.556 94.0647 158.596 94.1136C158.894 94.4239 158.858 96.6584 159.158 96.9577L155.943 115.823C149.094 149.076 138.964 151.533 120.53 161.128C120.469 161.155 120.189 161.003 120.127 161.041C119.617 160.686 119.093 160.351 118.58 160.018C117.931 158.2 117.298 156.439 116.674 154.702C105.719 124.353 99.213 107.754 101.824 74.6812C101.863 74.0061 102.286 70.2986 102.341 69.5806L104.562 51.021L104.573 51.0223Z" fill="#E7E9FA"/>
      <path opacity="0.53" d="M104.775 52.0126C104.839 52.0529 105.114 52.2605 105.178 52.3008C114.78 59.2869 124.721 61.6545 134.049 59.2236C140.522 74.015 148.706 86.0832 157.761 94.2245C157.801 94.2734 158.054 94.4786 158.094 94.5275C158.412 94.8622 158.423 96.9903 158.732 97.3018L155.568 115.905C148.799 148.744 138.842 151.286 120.628 160.749C120.568 160.776 120.296 160.647 120.236 160.674C119.709 160.361 119.193 160.061 118.652 159.78C118.011 157.986 117.377 156.236 116.761 154.533C105.902 124.461 99.4997 108.063 102.066 75.4086C102.109 74.6894 102.506 71.1238 102.576 70.363L104.775 52.0126V52.0126Z" fill="#E5E8F9"/>
      <path opacity="0.56" d="M104.977 53.003C105.041 53.0433 105.304 53.2497 105.369 53.29C114.861 60.1307 124.679 62.474 133.896 60.1092C140.292 74.6585 148.347 86.5569 157.258 94.6494C157.31 94.6995 157.539 94.9023 157.591 94.9524C157.919 95.2993 157.974 97.332 158.315 97.6691L155.19 116.021C148.51 148.457 138.705 151.07 120.735 160.393C120.674 160.431 120.413 160.303 120.34 160.34C119.809 160.071 119.277 159.814 118.732 159.566C118.1 157.795 117.475 156.068 116.869 154.378C106.116 124.595 99.8078 108.385 102.317 76.1482C102.365 75.385 102.745 71.9735 102.809 71.1674L104.974 53.025L104.977 53.003Z" fill="#E3E6F9"/>
      <path opacity="0.59" d="M105.177 54.0044C105.253 54.0459 105.495 54.2388 105.571 54.2803C114.951 60.9866 124.648 63.2836 133.756 60.985C140.074 75.3033 147.998 87.0318 156.767 95.0645C156.819 95.1146 157.039 95.3052 157.09 95.3553C157.439 95.7267 157.528 97.6516 157.89 98.0022L154.817 116.092C148.215 148.113 138.585 150.812 120.834 160.003C120.762 160.04 120.511 159.924 120.45 159.962C119.914 159.737 119.366 159.523 118.816 159.319C118.193 157.571 117.578 155.857 116.97 154.188C106.323 124.696 100.11 108.662 102.561 76.8535C102.614 76.0463 102.967 72.7767 103.048 71.9278L105.19 53.9946L105.177 54.0044Z" fill="#E2E5F8"/>
      <path opacity="0.62" d="M105.379 54.9947C105.453 55.0472 105.698 55.2182 105.772 55.2707C115.043 61.8316 124.607 64.092 133.603 61.8706C139.845 75.9468 147.639 87.5054 156.264 95.4894C156.316 95.5395 156.536 95.7301 156.587 95.7801C156.956 96.176 157.08 97.9933 157.462 98.3683L154.429 116.195C147.916 147.814 138.449 150.586 120.931 159.634C120.859 159.671 120.617 159.579 120.545 159.615C119.993 159.434 119.44 159.263 118.874 159.102C118.249 157.376 117.643 155.685 117.055 154.03C106.504 124.815 100.395 108.982 102.79 77.5907C102.848 76.7394 103.186 73.6129 103.259 72.7188L105.38 54.9837L105.379 54.9947Z" fill="#E0E3F8"/>
      <path opacity="0.66" d="M105.57 55.9839C105.644 56.0364 105.877 56.2062 105.963 56.2599C115.122 62.6864 124.565 64.9004 133.452 62.7452C139.615 76.5903 147.28 87.9681 155.774 95.9046C155.824 95.9657 156.035 96.133 156.085 96.1941C156.476 96.6034 156.644 98.3252 157.035 98.7235L154.051 116.299C147.617 147.515 138.325 150.361 121.027 159.277C120.954 159.314 120.723 159.234 120.65 159.27C120.094 159.133 119.525 159.005 118.955 158.877C118.34 157.163 117.743 155.496 117.154 153.862C106.708 124.937 100.694 109.282 103.032 78.3181C103.094 77.4228 103.405 74.4382 103.495 73.5013L105.593 55.9753L105.57 55.9839Z" fill="#DFE2F8"/>
      <path opacity="0.69" d="M105.771 56.9742C105.857 57.028 106.08 57.1855 106.154 57.238C115.215 63.5203 124.525 65.6978 133.3 63.6198C139.387 77.2228 146.92 88.4417 155.272 96.3184C155.334 96.3808 155.522 96.5457 155.584 96.608C155.994 97.0417 156.197 98.6558 156.61 99.0675L153.666 116.38C147.31 147.181 138.192 150.113 121.125 158.898C121.041 158.933 120.831 158.866 120.748 158.902C120.175 158.807 119.601 158.723 119.027 158.64C118.421 156.949 117.832 155.305 117.241 153.693C106.89 125.057 100.981 109.591 103.261 79.0552C103.327 78.1269 103.623 75.2855 103.706 74.3033L105.77 56.9853L105.771 56.9742Z" fill="#DDE1F7"/>
      <path opacity="0.72" d="M105.973 57.9647C106.059 58.0184 106.27 58.1747 106.356 58.2284C115.307 64.3653 124.482 66.5173 133.16 64.4956C139.169 77.8676 146.573 88.9056 154.781 96.7336C154.843 96.7959 155.02 96.9596 155.082 97.0219C155.502 97.4678 155.749 98.9976 156.183 99.4227L153.279 116.473C147.012 146.871 138.057 149.876 121.212 158.517C121.127 158.564 120.917 158.497 120.832 158.544C120.256 158.482 119.666 158.441 119.075 158.411C118.477 156.743 117.888 155.11 117.316 153.523C107.071 125.176 101.257 109.899 103.491 79.7815C103.551 78.8079 103.831 76.1095 103.919 75.0833L105.962 57.9634L105.973 57.9647Z" fill="#DCDFF7"/>
      <path opacity="0.75" d="M106.175 58.955C106.26 59.0088 106.462 59.1528 106.559 59.2078C115.399 65.2102 124.453 67.3159 133.02 65.3714C138.952 78.5013 146.236 89.3817 154.29 97.1597C154.351 97.222 154.518 97.3735 154.579 97.4468C155.019 97.9172 155.3 99.3392 155.756 99.7778L152.903 116.566C146.714 146.56 137.933 149.651 121.32 158.15C121.235 158.197 121.034 158.153 120.95 158.189C120.368 158.182 119.775 158.174 119.167 158.187C118.579 156.543 117.998 154.933 117.426 153.357C107.288 125.289 101.567 110.199 103.744 80.51C103.808 79.4924 104.073 76.9372 104.166 75.8669L106.186 58.9562L106.175 58.955Z" fill="#DADEF7"/>
      <path opacity="0.78" d="M106.377 59.9454C106.474 60.0003 106.664 60.1432 106.761 60.1981C115.49 66.0552 124.423 68.1255 132.879 66.2472C138.734 79.146 145.889 89.8456 153.799 97.5748C153.86 97.6481 154.027 97.7886 154.089 97.8509C154.551 98.3347 154.877 99.6613 155.341 100.123L152.527 116.659C146.429 146.24 137.81 149.415 121.419 157.771C121.333 157.818 121.143 157.786 121.046 157.831C120.448 157.867 119.85 157.904 119.239 157.95C118.659 156.328 118.078 154.729 117.525 153.178C107.482 125.398 101.866 110.498 103.987 81.2264C104.056 80.1647 104.293 77.7624 104.39 76.6481L106.388 59.9466L106.377 59.9454Z" fill="#D9DDF6"/>
      <path opacity="0.81" d="M106.578 60.9357C106.674 61.0017 106.856 61.1213 106.951 61.1873C115.57 66.9099 124.382 68.9339 132.727 67.1327C138.504 79.7895 145.528 90.3302 153.296 97.9997C153.368 98.0742 153.513 98.2122 153.575 98.2745C154.057 98.7828 154.417 100.002 154.903 100.477L152.14 116.751C146.12 145.929 137.664 149.177 121.516 157.403C121.419 157.448 121.238 157.429 121.153 157.475C120.55 157.555 119.936 157.634 119.309 157.723C118.727 156.124 118.166 154.549 117.612 153.009C107.675 125.519 102.166 110.798 104.217 81.9525C104.291 80.8468 104.512 78.5876 104.614 77.4293L106.59 60.937L106.578 60.9357Z" fill="#D7DBF6"/>
      <path opacity="0.84" d="M106.769 61.9249C106.876 61.9921 107.046 62.1105 107.143 62.1655C115.651 67.7427 124.33 69.7301 132.565 67.9951C138.265 80.4208 145.159 90.7807 152.784 98.4014C152.856 98.4759 152.991 98.6017 153.063 98.6762C153.566 99.2089 153.96 100.32 154.466 100.82L151.743 116.831C145.802 145.594 137.52 148.927 121.592 157.01C121.496 157.055 121.325 157.048 121.228 157.105C120.609 157.228 119.989 157.351 119.358 157.483C118.786 155.896 118.232 154.356 117.676 152.838C107.834 125.636 102.43 111.104 104.425 82.6763C104.504 81.5266 104.698 79.4093 104.805 78.2069L106.747 61.9115L106.769 61.9249Z" fill="#D6DAF6"/>
      <path opacity="0.88" d="M106.969 62.9263C107.077 62.9934 107.237 63.0996 107.344 63.1668C115.741 68.6096 124.299 70.5507 132.422 68.8929C138.045 81.0765 144.808 91.2775 152.291 98.8384C152.363 98.913 152.487 99.0376 152.559 99.1121C153.071 99.657 153.51 100.673 154.037 101.197L151.352 116.956C145.5 145.316 137.382 148.723 121.686 156.675C121.588 156.731 121.428 156.736 121.32 156.78C120.697 156.936 120.062 157.102 119.426 157.279C118.863 155.715 118.308 154.186 117.772 152.692C108.036 125.769 102.727 111.425 104.664 83.4257C104.746 82.2429 104.925 80.2687 105.038 79.0113L106.958 62.9251L106.969 62.9263Z" fill="#D4D9F5"/>
      <path opacity="0.91" d="M107.171 63.9167C107.278 63.9838 107.427 64.0889 107.545 64.1572C115.833 69.4546 124.267 71.3714 132.282 69.7687C137.829 81.7103 144.461 91.7414 151.801 99.2536C151.873 99.3281 151.986 99.4405 152.068 99.5272C152.601 100.097 153.086 101.006 153.622 101.542L150.989 117.04C145.215 144.996 137.272 148.477 121.797 156.286C121.688 156.341 121.549 156.359 121.44 156.414C120.801 156.613 120.161 156.823 119.509 157.043C118.955 155.502 118.409 153.996 117.872 152.513C108.242 125.88 103.026 111.725 104.907 84.1421C104.983 82.9141 105.157 81.0842 105.263 79.7926L107.16 63.9155L107.171 63.9167Z" fill="#D3D7F5"/>
      <path opacity="0.94" d="M107.373 64.9071C107.492 64.9754 107.63 65.0682 107.737 65.1354C115.925 70.2886 124.216 72.1676 132.131 70.6433C137.599 82.3538 144.103 92.2041 151.299 99.6675C151.381 99.7542 151.484 99.8544 151.555 99.9399C152.109 100.523 152.627 101.335 153.196 101.897L150.602 117.132C144.918 144.675 137.137 148.24 121.894 155.917C121.785 155.972 121.644 156.002 121.536 156.057C120.892 156.3 120.236 156.553 119.579 156.816C119.034 155.299 118.498 153.805 117.97 152.346C108.435 126.001 103.324 112.035 105.16 84.8707C105.24 83.5986 105.388 81.9107 105.51 80.5762L107.386 64.8973L107.373 64.9071Z" fill="#D1D6F5"/>
      <path opacity="0.97" d="M107.575 65.8975C107.693 65.9658 107.821 66.0574 107.939 66.1258C116.016 71.1445 124.186 72.9772 131.991 71.5191C137.382 82.9875 143.766 92.6802 150.807 100.094C150.889 100.18 150.981 100.279 151.064 100.355C151.639 100.962 152.192 101.667 152.781 102.243L150.238 117.215C144.633 144.355 137.027 147.994 122.004 155.528C121.895 155.583 121.765 155.625 121.655 155.691C121.007 155.978 120.346 156.275 119.673 156.581C119.126 155.086 118.599 153.615 118.079 152.179C108.65 126.124 103.635 112.335 105.413 85.5993C105.498 84.2832 105.629 82.7494 105.745 81.3586L107.599 65.8889L107.575 65.8975Z" fill="#D0D4F4"/>
      <path d="M105.946 82.1484C103.408 111.264 108.337 124.899 118.155 152.009C118.664 153.433 119.193 154.882 119.721 156.352C120.519 155.948 121.316 155.555 122.089 155.17C136.88 147.767 144.322 144.054 149.839 117.317L152.343 102.597C144.625 94.9882 137.662 84.7324 131.839 72.3937C124.029 73.7955 115.851 71.9286 107.767 66.8756L105.947 82.1374L105.946 82.1484Z" fill="#CED3F4"/>
    </g>
    <path d="M158.573 95.4288C146.378 86.894 135.008 73.3477 126.068 56.6878L125.929 56.595C114.917 59.0332 102.468 55.6047 90.3036 46.7836L89.837 46.4441L83.7638 50.8038L84.103 51.0518C96.2665 59.8838 108.728 63.3025 119.728 60.8631L119.867 60.9559C128.819 77.6171 140.177 91.1622 152.373 99.697L152.84 100.026L149.68 122.759C145.696 144.648 138.786 152.314 128.404 157.392C141.298 151.715 151.409 143.1 155.879 118.502L159.04 95.7684L158.572 95.4398L158.573 95.4288Z" fill="url(#paint5_linear_679_5712)"/>
    <path d="M159.041 95.7636L158.574 95.435C146.377 86.8998 135.007 73.3529 126.066 56.6922L125.927 56.5994L119.726 60.8677L119.865 60.9605C128.818 77.6224 140.176 91.1681 152.373 99.7033L152.84 100.032L159.041 95.7636V95.7636Z" fill="url(#paint6_linear_679_5712)"/>
    <path d="M152.849 100.018L149.689 122.751C145.705 144.638 138.796 152.305 128.417 157.382C141.308 151.705 151.417 143.091 155.887 118.494L159.047 95.7615L152.848 100.029L152.849 100.018Z" fill="url(#paint7_linear_679_5712)"/>
    <path d="M107.7 148.979C94.4809 121.415 87.8356 107.541 88.9503 78.9641L90.1155 64.0228C99.9029 69.6491 109.593 72.147 118.663 71.3825C126.275 84.0358 135.082 94.7237 144.599 102.86L142.605 117.211C137.837 143.191 129.361 146.291 112.509 152.423C111.628 152.741 110.735 153.068 109.818 153.415C109.099 151.913 108.389 150.434 107.699 148.99L107.7 148.979Z" fill="url(#paint8_linear_679_5712)"/>
    <path d="M83.6278 50.6996L81.7848 74.3652C80.3058 111.199 91.3967 128.49 108.348 164.705L108.815 165.044C130.6 156.435 143.57 156.3 149.68 122.758L152.84 100.024L152.372 99.6959C140.177 91.1612 128.808 77.6151 119.867 60.9553L119.729 60.8625C108.717 63.3007 96.2688 59.8723 84.1044 51.0514L83.6379 50.7118L83.6278 50.6996ZM90.1153 64.0229C99.9028 69.6491 109.593 72.147 118.663 71.3826C126.275 84.0358 135.082 94.7238 144.599 102.86L142.605 117.211C137.837 143.191 129.362 146.28 112.509 152.423C111.628 152.741 110.735 153.068 109.817 153.415C109.099 151.913 108.389 150.434 107.699 148.99C94.4796 121.426 87.8343 107.552 88.949 78.9752L90.1142 64.0339L90.1153 64.0229Z" fill="url(#paint9_linear_679_5712)"/>
    <path d="M126.955 110.041L126.679 109.845L127.582 101.478C128.161 96.117 124.979 89.1726 120.477 85.9733L114.852 81.9632C110.352 78.7529 106.231 80.4943 105.652 85.8555L104.749 94.2221L104.473 94.0255C102.382 92.5321 100.466 93.3402 100.196 95.8392L98.0598 115.622C97.7899 118.121 99.2699 121.353 101.361 122.846L123.841 138.873C125.932 140.366 127.848 139.558 128.118 137.059L130.254 117.277C130.524 114.778 129.044 111.546 126.954 110.052L126.955 110.041ZM115.414 118.783L114.714 125.267L111.901 123.262L112.601 116.778C111.544 115.351 110.915 113.446 111.085 111.872C111.319 109.703 112.985 108.991 114.81 110.3C116.636 111.598 117.921 114.408 117.686 116.588C117.516 118.162 116.596 118.954 115.403 118.782L115.414 118.783ZM121.944 106.476L109.472 97.5899L110.195 90.8966C110.524 87.8472 112.871 86.8625 115.429 88.6843L118.624 90.9641C121.182 92.786 122.995 96.7442 122.666 99.7936L121.943 106.487L121.944 106.476Z" fill="url(#paint10_linear_679_5712)"/>
    <g style="mix-blend-mode:color-dodge">
      <path d="M111.509 88.2321C110.456 88.5649 109.691 89.6081 109.515 91.2376L108.791 97.9318L121.261 106.817L121.346 106.035L109.482 97.5713L110.205 90.8771C110.341 89.6219 110.815 88.7259 111.51 88.2211L111.509 88.2321Z" fill="url(#paint11_radial_679_5712)"/>
      <path d="M114.034 125.615L114.118 124.845L111.912 123.273L112.613 116.789C111.557 115.362 110.929 113.457 111.099 111.883C111.187 111.068 111.481 110.465 111.899 110.087C111.11 110.303 110.54 111.033 110.41 112.233C110.24 113.807 110.868 115.711 111.924 117.138L111.223 123.622L114.033 125.627L114.034 125.615Z" fill="url(#paint12_radial_679_5712)"/>
      <path d="M126.952 110.041L126.676 109.844L127.581 101.478C128.161 96.1164 124.981 89.1725 120.483 85.9741L114.86 81.965C112.325 80.157 109.905 79.9204 108.175 81.0271C109.824 80.3572 111.953 80.7409 114.171 82.3145L119.794 86.3235C124.291 89.533 127.471 96.4769 126.892 101.827L125.987 110.194L126.263 110.39C128.353 111.883 129.831 115.115 129.561 117.614L127.422 137.397C127.315 138.388 126.939 139.116 126.403 139.526C127.31 139.278 127.951 138.422 128.1 137.046L130.239 117.263C130.509 114.764 129.03 111.533 126.941 110.04L126.952 110.041Z" fill="url(#paint13_radial_679_5712)"/>
      <path d="M103.775 94.3502L104.051 94.5469L104.133 93.7867C102.995 93.0965 101.932 93.0943 101.195 93.673C101.925 93.4725 102.83 93.6696 103.776 94.3392L103.775 94.3502Z" fill="url(#paint14_radial_679_5712)"/>
    </g>
    <path style="mix-blend-mode:color-dodge" d="M152.92 99.3878C140.725 90.853 129.355 77.3067 120.415 60.6467L120.276 60.5539C109.264 62.9921 96.8152 59.5636 84.6505 50.7426L84.184 50.403L84.0909 51.5845C96.1591 60.2393 108.49 63.5994 119.397 61.1724L119.536 61.2652C128.488 77.9264 139.846 91.4715 152.042 100.006L152.509 100.335L149.349 123.069C146.175 140.523 141.129 148.924 133.964 154.191C141.605 148.964 146.921 140.603 150.228 122.45L153.388 99.7164L152.92 99.3878V99.3878Z" fill="url(#paint15_radial_679_5712)"/>
    <g style="mix-blend-mode:multiply" opacity="0.95">
      <path d="M90.6126 64.2877L90.1815 69.8757C90.0822 72.2814 89.7683 75.5103 89.7772 77.7605L89.6408 79.4495C88.5259 108.025 95.4391 120.992 108.656 148.555C109.346 149.998 110.055 151.477 110.774 152.98C111.5 152.712 112.214 152.455 112.928 152.186L112.956 152.245C112.814 152.296 112.66 152.347 112.516 152.409C111.635 152.727 110.743 153.054 109.825 153.401C109.107 151.899 108.397 150.42 107.707 148.976C94.4905 121.414 87.8465 107.54 88.9614 78.9647L90.1266 64.024C90.2878 64.1192 90.4502 64.2034 90.6114 64.2987L90.6126 64.2877Z" fill="#CED3F4"/>
    </g>
    <path style="mix-blend-mode:screen" d="M118.67 71.3759C126.28 84.0284 135.086 94.7157 144.6 102.851L142.607 117.202C137.839 143.181 129.365 146.281 112.516 152.413C111.636 152.731 110.743 153.058 109.825 153.405L118.67 71.3759V71.3759Z" fill="url(#paint16_radial_679_5712)"/>
    <path style="mix-blend-mode:screen" opacity="0.5" d="M107.7 148.979C94.4809 121.415 87.8356 107.541 88.9503 78.9641L90.1155 64.0228C99.9029 69.6491 109.593 72.147 118.663 71.3825C126.275 84.0358 135.082 94.7237 144.599 102.86L142.605 117.211C137.837 143.191 129.361 146.291 112.509 152.423C111.628 152.741 110.735 153.068 109.818 153.415C109.099 151.913 108.389 150.434 107.699 148.99L107.7 148.979Z" fill="url(#paint17_radial_679_5712)"/>
    <g style="mix-blend-mode:multiply" opacity="0.3">
      <path opacity="0.09" d="M108.13 146.51C100.386 141.06 93.3475 144.073 92.4141 153.259L84.6018 230.138C83.6684 239.324 88.5332 257.7 96.2764 263.161L239.898 361.081C247.643 366.531 245.27 356.809 246.204 347.623L254.016 270.744C254.949 261.558 247.04 243.339 239.296 237.879L108.13 146.51Z" fill="#A7ADDF"/>
      <path opacity="0.18" d="M108.606 147.794C100.861 142.344 93.8342 145.358 92.9019 154.533L85.8764 223.668C84.9441 232.843 89.1361 257.728 96.8805 263.178L238.275 359.848C246.019 365.298 244.573 356.248 245.505 347.074L252.531 277.938C253.463 268.763 246.525 244.021 238.791 238.573L108.606 147.794Z" fill="#A0A5D9"/>
      <path opacity="0.27" d="M109.082 149.066C101.348 143.629 94.3322 146.644 93.4021 155.796L87.1623 217.2C86.2323 226.353 89.7515 257.746 97.4845 263.195L236.664 358.605C244.398 364.042 243.889 355.667 244.819 346.514L251.059 285.11C251.989 275.957 246.034 244.684 238.3 239.246L109.082 149.066Z" fill="#989CD3"/>
      <path opacity="0.36" d="M109.557 150.35C101.835 144.913 94.8302 147.929 93.9012 157.071L88.4472 210.743C87.5182 219.885 90.376 257.788 98.0875 263.223L235.051 357.384C242.773 362.82 243.19 355.117 244.121 345.965L249.575 292.293C250.504 283.151 245.52 245.355 237.796 239.93L109.557 150.35Z" fill="#9094CD"/>
      <path opacity="0.45" d="M110.034 151.622C102.321 146.198 95.3179 149.203 94.3901 158.334L89.7218 204.274C88.7939 213.405 90.98 257.805 98.6916 263.24L233.438 356.152C241.151 361.576 242.505 354.547 243.433 345.416L248.102 299.476C249.029 290.346 245.017 246.038 237.305 240.603L110.034 151.622V151.622Z" fill="#898BC7"/>
      <path opacity="0.55" d="M110.509 152.906C102.808 147.483 95.816 150.489 94.8892 159.609L91.0077 197.806C90.081 206.925 91.5943 257.834 99.2957 263.256L231.815 354.919C239.516 360.341 241.808 353.987 242.736 344.856L246.617 306.659C247.544 297.539 244.503 246.709 236.801 241.286L110.51 152.895L110.509 152.906Z" fill="#8183C1"/>
      <path opacity="0.64" d="M110.986 154.178C103.295 148.767 96.3151 151.764 95.3895 160.872L92.2937 191.337C91.3681 200.446 92.2086 257.863 99.8998 263.273L230.203 353.686C237.894 359.097 241.112 353.415 242.037 344.306L245.133 313.841C246.059 304.732 244 247.381 236.309 241.971L110.986 154.178Z" fill="#7A7ABB"/>
      <path opacity="0.73" d="M111.461 155.461C103.781 150.052 96.8018 153.048 95.8773 162.146L93.5672 184.879C92.6427 193.977 92.8229 257.892 100.503 263.301L228.59 352.465C236.269 357.875 240.425 352.867 241.349 343.769L243.659 321.036C244.584 311.938 243.495 248.076 235.815 242.666L111.471 155.474L111.461 155.461Z" fill="#7272B5"/>
      <path opacity="0.82" d="M111.938 156.734C104.268 151.336 97.3009 154.323 96.3775 163.41L94.8531 178.411C93.9297 187.498 93.4372 257.921 101.107 263.318L226.966 351.232C234.636 356.63 239.717 352.294 240.64 343.207L242.165 328.206C243.088 319.119 242.971 248.735 235.301 243.337L111.926 156.733L111.938 156.734Z" fill="#6A69AF"/>
      <path opacity="0.91" d="M112.413 158.017C104.755 152.621 97.7988 155.609 96.8765 164.684L96.1389 171.943C95.2167 181.018 94.0525 257.939 101.711 263.335L225.354 350C233.012 355.396 239.031 351.735 239.953 342.659L240.691 335.401C241.613 326.325 242.467 249.418 234.809 244.022L112.413 158.017V158.017Z" fill="#6361A9"/>
      <path d="M112.888 159.301C105.24 153.917 98.2854 156.894 97.3643 165.958L97.4124 165.485C96.4913 174.549 94.6543 257.978 102.314 263.363L223.741 348.779C231.389 354.163 238.344 351.187 239.265 342.122L239.217 342.595C240.138 333.531 241.975 250.102 234.315 244.717L112.888 159.301V159.301Z" fill="#5B58A3"/>
    </g>
    <path d="M239.439 355.371C239.452 355.238 248.488 266.321 249.331 258.016C249.29 256.621 249.262 255.773 249.265 255.751C249.662 249.593 245.28 246.71 239.3 249.319C233.32 251.927 227.922 259.046 227.045 265.422C227.039 265.477 219.35 341.144 218.823 346.332C224.481 350.267 242.274 362.669 242.279 362.625C242.282 362.592 242.287 362.548 242.29 362.515C240.224 361.359 239.095 358.863 239.45 355.372L239.439 355.371Z" fill="#AFB6E5"/>
    <g style="mix-blend-mode:multiply" opacity="0.3">
      <path opacity="0.05" d="M208.137 224.285C200.382 218.824 86.9093 162.325 85.9758 171.511L78.7008 243.103C77.7674 252.289 70.2787 282.341 78.0333 287.803L201.872 374.91C209.626 380.372 232.11 366.522 233.044 357.336L241.083 278.221C242.017 269.035 253.128 255.075 245.373 249.613L208.148 224.287L208.137 224.285Z" fill="#ABB2E2"/>
      <path opacity="0.1" d="M202.32 221.013C194.576 215.563 86.4248 162.031 85.4925 171.206L78.251 242.468C77.3176 251.653 70.4829 280.782 78.2261 286.242L201.935 373.27C209.68 378.72 231.387 365.424 232.321 356.238L240.29 277.818C241.223 268.632 251.5 254.787 243.755 249.337L202.321 221.002L202.32 221.013Z" fill="#A7ADDF"/>
      <path opacity="0.14" d="M196.504 217.729C188.76 212.279 85.9426 161.715 85.0103 170.89L77.8013 241.832C76.869 251.007 70.6747 279.232 78.419 284.682L202.012 371.62C209.756 377.069 230.677 364.317 231.609 355.142L239.507 277.426C240.439 268.252 249.893 254.512 242.149 249.063L196.504 217.729Z" fill="#A3A9DC"/>
      <path opacity="0.19" d="M190.7 214.446C182.967 208.998 85.4706 161.411 84.5383 170.586L77.3617 241.209C76.4305 250.373 70.8891 277.685 78.6221 283.133L202.097 369.993C209.83 375.441 229.988 363.223 230.919 354.06L238.746 277.038C239.677 267.874 248.297 254.25 240.564 248.802L190.71 214.458L190.7 214.446Z" fill="#9FA4D8"/>
      <path opacity="0.24" d="M184.883 211.173C177.15 205.725 84.9748 161.116 84.0436 170.28L76.8995 240.583C75.9683 249.747 71.0695 276.134 78.8036 281.572L202.162 368.341C209.895 373.79 229.266 362.115 230.197 352.951L237.954 276.623C238.885 267.459 246.681 253.952 238.948 248.504L184.884 211.162L184.883 211.173Z" fill="#9BA0D5"/>
      <path opacity="0.29" d="M179.068 207.889C171.345 202.453 84.4915 160.811 83.5603 169.975L76.4487 239.959C75.5186 249.111 71.2726 274.586 78.9955 280.022L202.225 366.712C209.947 372.148 228.555 361.019 229.485 351.866L237.171 276.232C238.101 267.079 245.063 253.677 237.34 248.24L179.068 207.889V207.889Z" fill="#979BD2"/>
      <path opacity="0.33" d="M173.262 204.617C165.54 199.181 84.0183 160.518 83.0883 169.671L76.0091 239.335C75.079 248.488 71.4757 273.037 79.1985 278.474L202.311 365.074C210.034 370.51 227.854 359.924 228.785 350.771L236.399 275.842C237.329 266.689 243.468 253.403 235.745 247.967L173.262 204.617V204.617Z" fill="#9397CF"/>
      <path opacity="0.38" d="M167.447 201.333C159.724 195.897 83.535 160.213 82.606 169.355L75.5593 238.7C74.6303 247.842 71.6798 271.478 79.3914 276.913L202.386 363.434C210.109 368.87 227.143 358.828 228.073 349.675L235.617 275.44C236.546 266.298 241.863 253.118 234.139 247.692L167.447 201.333V201.333Z" fill="#8F92CC"/>
      <path opacity="0.43" d="M161.631 198.05C153.918 192.625 83.0516 159.908 82.1226 169.05L75.1084 238.075C74.1794 247.217 71.8715 269.928 79.5831 275.363L202.45 361.794C210.163 367.218 226.432 357.721 227.36 348.59L234.833 275.049C235.762 265.907 240.243 252.853 232.532 247.418L161.63 198.061L161.631 198.05Z" fill="#8B8EC9"/>
      <path opacity="0.48" d="M155.815 194.777C148.102 189.353 82.5672 159.614 81.6394 168.745L74.6576 237.451C73.7297 246.582 72.0623 268.39 79.7749 273.814L202.524 360.166C210.237 365.59 225.72 356.636 226.648 347.505L234.05 274.658C234.978 265.527 238.637 252.578 230.924 247.154L155.813 194.788L155.815 194.777Z" fill="#8789C6"/>
      <path opacity="0.52" d="M150.01 191.494C142.309 186.071 82.0951 159.31 81.1672 168.441L74.2179 236.828C73.2901 245.958 72.2766 266.843 79.9779 272.266L202.611 358.527C210.312 363.95 225.032 355.531 225.959 346.412L233.29 274.269C234.217 265.138 237.042 252.305 229.34 246.882L150.019 191.517L150.01 191.494Z" fill="#8385C2"/>
      <path opacity="0.57" d="M144.195 188.21C136.493 182.787 81.6118 159.005 80.6851 168.125L73.7694 236.181C72.8426 245.301 72.4706 265.271 80.1731 270.683L202.678 356.854C210.379 362.277 224.312 354.401 225.239 345.281L232.5 273.832C233.426 264.713 235.428 251.985 227.726 246.573L144.196 188.199L144.195 188.21Z" fill="#7F80BF"/>
      <path opacity="0.62" d="M138.378 184.937C130.687 179.526 81.1273 158.711 80.2017 167.82L73.3184 235.557C72.3928 244.665 72.6736 263.723 80.3648 269.133L202.752 355.226C210.443 360.636 223.6 353.316 224.526 344.196L231.716 273.441C232.642 264.332 233.81 251.71 226.119 246.299L138.379 184.926L138.378 184.937Z" fill="#7B7CBC"/>
      <path opacity="0.67" d="M132.574 181.654C124.882 176.243 80.6552 158.407 79.7296 167.516L72.8788 234.933C71.9532 244.042 72.8767 262.174 80.5678 267.585L202.838 353.587C210.529 358.998 222.912 352.211 223.837 343.102L230.956 273.052C231.881 263.943 232.225 251.448 224.534 246.038L132.585 181.655L132.574 181.654Z" fill="#7777B9"/>
      <path opacity="0.71" d="M126.757 178.381C119.077 172.972 80.1708 158.113 79.2463 167.211L72.428 234.309C71.5035 243.407 73.0798 260.626 80.7596 266.035L202.901 351.958C210.581 357.368 222.188 351.125 223.112 342.027L230.16 272.671C231.085 263.573 230.595 251.183 222.915 245.773L126.756 178.392L126.757 178.381Z" fill="#7373B6"/>
      <path opacity="0.76" d="M120.941 175.097C113.262 169.688 79.6875 157.808 78.763 166.905L71.9771 233.684C71.0526 242.782 73.2716 259.076 80.9514 264.486L202.976 350.319C210.656 355.728 221.488 350.03 222.412 340.932L229.389 272.27C230.314 263.172 229.001 250.898 221.321 245.489L120.941 175.097V175.097Z" fill="#6F6EB3"/>
      <path opacity="0.81" d="M115.137 171.815C107.467 166.417 79.2154 157.504 78.2921 166.591L71.5386 233.05C70.6152 242.137 73.487 257.518 81.1556 262.926L203.063 348.681C210.732 354.078 220.788 348.924 221.712 339.837L228.619 271.869C229.542 262.782 227.395 250.613 219.726 245.215L115.136 171.826L115.137 171.815Z" fill="#6B6AB0"/>
      <path opacity="0.86" d="M109.32 168.542C101.651 163.144 78.7197 157.209 77.7974 166.284L71.0764 232.424C70.1531 241.511 73.6664 255.978 81.336 261.376L203.126 347.04C210.796 352.438 220.077 347.828 221 338.741L227.835 271.478C228.759 262.391 225.789 250.338 218.119 244.941L109.32 168.542V168.542Z" fill="#6765AC"/>
      <path opacity="0.9" d="M103.505 165.258C95.8464 159.862 78.2363 156.904 77.314 165.979L70.6255 231.8C69.7032 240.876 73.8694 254.43 81.5288 259.815L203.19 345.4C210.848 350.796 219.355 346.72 220.277 337.644L227.042 271.074C227.964 261.999 224.16 250.061 216.501 244.665L103.492 165.268L103.505 165.258Z" fill="#6361A9"/>
      <path opacity="0.95" d="M97.6892 161.974C90.0297 156.589 77.7541 156.587 76.8319 165.663L70.1758 231.164C69.2535 240.24 74.0623 252.869 81.7218 258.255L203.266 343.749C210.926 349.135 218.645 345.613 219.567 336.537L226.261 270.661C227.183 261.585 222.555 249.765 214.897 244.368L97.679 161.962L97.6892 161.974Z" fill="#5F5CA6"/>
      <path d="M91.8837 158.702C84.2356 153.318 77.2809 156.295 76.3598 165.359L69.7373 230.53C68.8162 239.595 74.2665 251.31 81.9259 256.695L203.353 342.111C211.001 347.495 217.956 344.519 218.877 335.454L225.499 270.283C226.42 261.219 220.97 249.503 213.311 244.118L91.8837 158.702Z" fill="#5B58A3"/>
    </g>
    <path d="M92.9431 142.541C91.2159 140.529 88.1555 140.051 84.4832 141.659C78.5032 144.267 73.105 151.386 72.2284 157.762C72.2262 157.784 71.9262 160.736 71.8468 161.518L71.8241 161.516C71.701 162.727 62.0682 256.847 62.057 256.957C61.4582 262.85 56.8626 269.494 51.4296 272.681C59.6007 278.429 167.674 353.531 181.627 363.35C181.627 363.35 183.758 365.77 184.885 366.152C184.937 366.201 191.227 369.99 194.901 372.199C194.725 373.928 194.614 375.019 194.611 375.052C194.199 379.105 195.773 381.835 198.512 382.659L198.558 382.664C198.778 382.742 199.025 382.789 199.261 382.824C199.42 382.84 199.578 382.856 199.748 382.874C199.861 382.885 199.974 382.897 200.087 382.908C201.386 382.951 202.857 382.644 204.447 381.96C206.133 381.23 207.765 380.127 209.273 378.79C211.11 377.463 212.507 375.758 213.605 373.721C215.316 371.058 216.483 368.127 216.763 365.363C216.769 365.308 216.953 364.28 217.08 363.036C217.14 362.441 224.2 293.308 226.866 267.184C226.869 267.151 226.874 267.107 226.888 267.075C226.99 266.073 227.052 265.467 227.054 265.445C227.941 259.081 233.329 251.95 239.309 249.342C241.76 248.278 243.934 248.143 245.62 248.759L92.9431 142.541Z" fill="url(#paint18_linear_679_5712)"/>
    <path d="M135.331 232.132L135.611 229.379L115.096 215.187L114.815 217.952L135.331 232.132Z" fill="#8D97D6"/>
    <path d="M83.2933 163.716L83.0135 166.469L145.1 209.668L145.38 206.914L83.2933 163.716Z" fill="#8D97D6"/>
    <path d="M122.656 213.229L81.2172 184.147L80.9362 186.912L122.375 215.994L122.656 213.229Z" fill="#8D97D6"/>
    <path d="M112.864 199.025L81.9111 177.318L81.6302 180.083L112.584 201.779L112.864 199.025Z" fill="#8D97D6"/>
    <path d="M115.488 200.872L115.208 203.625L175.34 245.356L175.62 242.603L115.488 200.872Z" fill="#8D97D6"/>
    <path d="M125.29 215.088L125.01 217.842L155.404 239.08L155.684 236.326L125.29 215.088Z" fill="#8D97D6"/>
    <path d="M158.039 240.939L196.694 267.601L196.974 264.847L158.32 238.174L158.039 240.939Z" fill="#8D97D6"/>
    <path d="M112.46 213.339L80.5266 190.943L80.2457 193.708L112.181 216.093L112.46 213.339Z" fill="#8D97D6"/>
    <path d="M137.954 233.99L158.952 248.598L159.232 245.845L138.235 231.226L137.954 233.99Z" fill="#8D97D6"/>
    <path d="M219.031 173.314L219.311 170.56L198.796 156.369L198.515 159.133L219.031 173.314Z" fill="#8D97D6"/>
    <path d="M166.284 111.88L166.004 114.634L228.091 157.832L228.372 155.068L166.284 111.88Z" fill="#8D97D6"/>
    <path d="M206.356 154.411L164.918 125.329L164.637 128.093L206.075 157.175L206.356 154.411Z" fill="#8D97D6"/>
    <path d="M196.564 140.207L165.612 118.5L165.331 121.265L196.284 142.96L196.564 140.207Z" fill="#8D97D6"/>
    <path d="M199.188 142.053L198.908 144.807L259.041 186.538L259.321 183.784L199.188 142.053Z" fill="#8D97D6"/>
    <path d="M208.99 156.27L208.711 159.023L239.105 180.261L239.385 177.508L208.99 156.27Z" fill="#8D97D6"/>
    <path d="M241.739 182.12L258.131 193.467L258.411 190.714L242.02 179.356L241.739 182.12Z" fill="#8D97D6"/>
    <path d="M196.161 154.521L164.227 132.125L163.946 134.889L195.881 157.274L196.161 154.521Z" fill="#8D97D6"/>
    <path d="M221.654 175.172L242.652 189.78L242.932 187.027L221.935 172.407L221.654 175.172Z" fill="#8D97D6"/>
    <path d="M215.394 209.11L215.674 206.357L195.159 192.165L194.878 194.929L215.394 209.11Z" fill="#8D97D6"/>
    <path d="M202.719 190.207L161.28 161.125L160.999 163.889L202.438 192.971L202.719 190.207Z" fill="#8D97D6"/>
    <path d="M192.926 176.003L161.974 154.296L161.693 157.061L192.647 178.756L192.926 176.003Z" fill="#8D97D6"/>
    <path d="M195.551 177.85L195.271 180.603L255.403 222.334L255.683 219.581L195.551 177.85Z" fill="#8D97D6"/>
    <path d="M205.353 192.066L205.073 194.819L235.467 216.057L235.747 213.304L205.353 192.066Z" fill="#8D97D6"/>
    <path d="M238.102 217.916L254.494 229.263L254.773 226.51L238.383 215.152L238.102 217.916Z" fill="#8D97D6"/>
    <path d="M192.523 190.317L160.589 167.921L160.309 170.685L192.244 193.07L192.523 190.317Z" fill="#8D97D6"/>
    <path d="M218.017 210.968L239.015 225.576L239.295 222.823L218.298 208.203L218.017 210.968Z" fill="#8D97D6"/>
    <path d="M195.214 375.414C195.419 373.398 196.113 371.287 197.154 369.257L40.6054 260.308L39.1734 259.328C38.1473 261.327 37.4664 263.417 37.2627 265.421C36.9146 268.847 38.6447 271.393 40.3268 272.498L197.383 381.966L197.196 381.78C195.69 380.514 194.918 378.321 195.214 375.414V375.414Z" fill="url(#paint19_linear_679_5712)"/>
    <path d="M143.718 313.929L128.843 303.515L128.563 306.269L143.438 316.683L143.718 313.929Z" fill="#8D97D6"/>
    <path d="M160.378 319.484L129.425 297.788L129.145 300.542L160.099 322.237L160.378 319.484Z" fill="#8D97D6"/>
    <path d="M114.362 293.943L72.9238 264.861L72.644 267.615L114.083 296.696L114.362 293.943Z" fill="#8D97D6"/>
    <path d="M104.459 280.829L73.5059 259.134L73.2261 261.887L104.18 283.583L104.459 280.829Z" fill="#8D97D6"/>
    <path d="M146.342 315.776L146.062 318.53L176.467 339.78L176.746 337.026L146.342 315.776Z" fill="#8D97D6"/>
    <path d="M107.111 243.264C106.76 241.314 105.763 239.544 104.329 238.129L103.554 239.119C104.866 240.498 105.605 242.109 105.844 243.469C106.279 245.939 105.64 248.4 104.849 250.79C104.194 249.243 104.006 247.611 104.312 246.062C104.635 245.583 104.815 245.045 104.765 244.416C104.737 244.124 104.51 243.89 104.217 243.849C103.869 243.78 103.633 243.967 103.526 244.235C103.357 244.663 103.21 245.093 103.108 245.539C102.571 246.208 101.516 246.801 100.498 247.377C100.159 247.565 99.8185 247.764 99.502 247.954C98.0652 248.821 96.8775 249.935 95.9785 251.246C95.5208 250.577 95.0721 249.93 94.6314 249.318C93.7104 248.033 92.7543 246.757 91.7868 245.479C89.784 242.805 87.7404 240.082 86.0338 237.305C85.9589 236.018 85.7991 234.666 85.5577 233.217C85.3812 232.142 84.8448 228.872 81.6865 227.783C81.4772 227.706 81.2318 227.759 81.0577 227.897C80.8825 228.046 80.8025 228.272 80.8604 228.489C81.5437 231.663 82.9825 234.714 84.7854 237.668C84.9357 240.688 84.6263 243.282 83.8495 245.64C83.0253 248.127 81.6013 250.331 79.7481 252.145L80.3331 253.362C82.5028 251.357 84.129 248.851 85.0671 246.031C85.7086 244.105 86.057 242.026 86.0964 239.726C87.5648 241.923 89.1746 244.078 90.7764 246.2C91.7325 247.476 92.6897 248.742 93.6005 250.014C94.1522 250.771 94.7097 251.585 95.275 252.432C94.381 254.144 93.9193 256.1 93.9454 258.206C93.9914 262.028 95.4875 265.752 96.9393 269.349C97.6516 271.113 98.8246 272.167 100.205 272.307C100.341 272.321 100.488 272.336 100.627 272.316C100.89 272.31 101.113 272.143 101.205 271.908C103.639 265.167 100.357 257.99 96.7648 252.394C97.6004 251.033 98.7586 249.871 100.207 249.005C100.511 248.825 100.839 248.635 101.165 248.457C101.748 248.127 102.353 247.788 102.906 247.41C102.882 249.221 103.393 251.054 104.446 252.73C104.574 252.932 104.814 253.045 105.067 253.027C105.31 252.996 105.521 252.839 105.601 252.613C106.587 249.765 107.703 246.551 107.121 243.276L107.111 243.264ZM82.4633 229.587C83.4155 230.34 84.0198 231.592 84.3158 233.403C84.3785 233.798 84.4434 234.172 84.4845 234.555C83.6445 232.923 82.9437 231.271 82.452 229.586L82.4633 229.587ZM100.15 271.044C99.0641 270.822 98.4294 269.645 98.1277 268.902C96.7223 265.41 95.2614 261.789 95.2259 258.203C95.2072 256.587 95.5109 255.06 96.0954 253.695C99.2898 258.816 102.028 265.159 100.15 271.044V271.044Z" fill="#8D97D6"/>
    <path d="M137.231 293.295C137.582 295.245 138.579 297.016 140.012 298.43L140.787 297.44C139.476 296.061 138.737 294.45 138.498 293.09C138.063 290.62 138.702 288.159 139.493 285.769C140.147 287.316 140.336 288.948 140.03 290.497C139.707 290.976 139.526 291.514 139.577 292.143C139.604 292.435 139.832 292.669 140.125 292.71C140.472 292.779 140.709 292.592 140.816 292.324C140.985 291.896 141.132 291.466 141.234 291.02C141.771 290.352 142.825 289.758 143.844 289.182C144.183 288.994 144.523 288.795 144.84 288.605C146.277 287.738 147.464 286.624 148.363 285.313C148.821 285.983 149.27 286.629 149.71 287.241C150.631 288.526 151.588 289.802 152.555 291.08C154.558 293.754 156.601 296.477 158.308 299.254C158.383 300.541 158.543 301.893 158.784 303.342C158.961 304.417 159.497 307.687 162.655 308.776C162.865 308.853 163.11 308.8 163.284 308.662C163.459 308.513 163.539 308.287 163.481 308.07C162.798 304.896 161.359 301.845 159.556 298.891C159.406 295.871 159.716 293.277 160.492 290.919C161.317 288.432 162.741 286.229 164.594 284.414L164.009 283.197C161.839 285.202 160.213 287.708 159.275 290.528C158.633 292.455 158.285 294.533 158.245 296.833C156.777 294.636 155.167 292.481 153.566 290.359C152.609 289.083 151.652 287.817 150.741 286.545C150.19 285.788 149.632 284.974 149.067 284.127C149.961 282.415 150.423 280.459 150.396 278.353C150.35 274.532 148.854 270.807 147.403 267.21C146.69 265.446 145.517 264.393 144.137 264.252C144.001 264.238 143.854 264.224 143.715 264.243C143.452 264.249 143.229 264.416 143.136 264.651C140.703 271.392 143.985 278.57 147.577 284.165C146.741 285.526 145.583 286.688 144.135 287.554C143.831 287.734 143.503 287.924 143.177 288.102C142.594 288.432 141.988 288.771 141.436 289.149C141.46 287.338 140.949 285.505 139.896 283.829C139.768 283.627 139.528 283.514 139.275 283.532C139.031 283.563 138.821 283.72 138.741 283.946C137.754 286.794 136.639 290.008 137.221 293.283L137.231 293.295ZM161.879 306.972C160.926 306.219 160.322 304.967 160.026 303.156C159.963 302.761 159.898 302.387 159.857 302.004C160.697 303.636 161.398 305.288 161.89 306.974L161.879 306.972ZM144.192 265.515C145.278 265.737 145.912 266.914 146.214 267.657C147.62 271.149 149.08 274.77 149.116 278.357C149.135 279.972 148.831 281.499 148.246 282.864C145.052 277.743 142.313 271.4 144.192 265.515V265.515Z" fill="#8D97D6"/>
    <path d="M30.2539 134.067L36.6534 152.188L53.3878 138.232C53.9743 137.746 53.7409 136.332 52.9379 135.46L48.7068 130.868C48.1406 130.254 47.4889 130.143 47.1579 130.588L37.5611 143.256L34.8437 134.567C34.5939 133.763 34.0118 133.08 33.446 132.912L31.1161 132.219C30.2731 131.966 29.8465 132.902 30.2539 134.067V134.067Z" fill="url(#paint20_linear_679_5712)"/>
  </g>
  <defs>
    <linearGradient id="paint0_linear_679_5712" x1="32.0188" y1="83.1807" x2="48.019" y2="188.572" gradientUnits="userSpaceOnUse">
      <stop stop-color="#B4F759"/>
      <stop offset="0.05" stop-color="#90ED6E"/>
      <stop offset="0.15" stop-color="#35D5A4"/>
      <stop offset="0.2" stop-color="#00C7C5"/>
      <stop offset="0.41" stop-color="#2D9BE0"/>
      <stop offset="0.6" stop-color="#5277F7"/>
      <stop offset="0.66" stop-color="#5A76F6"/>
      <stop offset="0.77" stop-color="#7273F5"/>
      <stop offset="0.9" stop-color="#9970F4"/>
      <stop offset="1" stop-color="#BB6DF3"/>
    </linearGradient>
    <linearGradient id="paint1_linear_679_5712" x1="-23.4024" y1="82.1991" x2="382.995" y2="217.051" gradientUnits="userSpaceOnUse">
      <stop stop-color="#AFB6E5"/>
      <stop offset="0.14" stop-color="#B5BCE8"/>
      <stop offset="0.35" stop-color="#C7CDF0"/>
      <stop offset="0.58" stop-color="#E5E9FF"/>
      <stop offset="0.86" stop-color="#F4F6FF"/>
      <stop offset="1" stop-color="white"/>
    </linearGradient>
    <linearGradient id="paint2_linear_679_5712" x1="128.086" y1="22.3912" x2="274.484" y2="306.437" gradientUnits="userSpaceOnUse">
      <stop stop-color="#273B98"/>
      <stop offset="0.23" stop-color="#2E2BA2"/>
      <stop offset="0.4" stop-color="#361CAC"/>
      <stop offset="0.77" stop-color="#440B88"/>
      <stop offset="1" stop-color="#4E0070"/>
    </linearGradient>
    <linearGradient id="paint3_linear_679_5712" x1="179.191" y1="-8.2275" x2="290.655" y2="293.692" gradientUnits="userSpaceOnUse">
      <stop stop-color="#CDD2F3"/>
      <stop offset="0.43" stop-color="#E5E9FF"/>
      <stop offset="0.48" stop-color="#EFF1FF"/>
      <stop offset="0.54" stop-color="white"/>
      <stop offset="0.59" stop-color="#EBEDF8"/>
      <stop offset="0.7" stop-color="#B8BEE8"/>
      <stop offset="0.72" stop-color="#AFB6E5"/>
      <stop offset="0.91" stop-color="#AFB6E5"/>
      <stop offset="0.95" stop-color="#B9C0EA"/>
      <stop offset="1" stop-color="#CDD2F3"/>
    </linearGradient>
    <linearGradient id="paint4_linear_679_5712" x1="134.908" y1="270.603" x2="240.08" y2="121.187" gradientUnits="userSpaceOnUse">
      <stop stop-color="#CED3F4"/>
      <stop offset="0.01" stop-color="#D3D8F6"/>
      <stop offset="0.06" stop-color="#E0E4FC"/>
      <stop offset="0.1" stop-color="#E5E9FF"/>
      <stop offset="0.25" stop-color="#EAEDFF"/>
      <stop offset="1" stop-color="white"/>
    </linearGradient>
    <linearGradient id="paint5_linear_679_5712" x1="47.5928" y1="84.4406" x2="124.052" y2="106.89" gradientUnits="userSpaceOnUse">
      <stop stop-color="#7481CF"/>
      <stop offset="1" stop-color="#AFB6E5"/>
    </linearGradient>
    <linearGradient id="paint6_linear_679_5712" x1="107.865" y1="41.5887" x2="171.207" y2="123.655" gradientUnits="userSpaceOnUse">
      <stop stop-color="#7481CF"/>
      <stop offset="1" stop-color="#AFB6E5"/>
    </linearGradient>
    <linearGradient id="paint7_linear_679_5712" x1="139.428" y1="123.544" x2="199.523" y2="167.84" gradientUnits="userSpaceOnUse">
      <stop stop-color="#7481CF"/>
      <stop offset="1" stop-color="#AFB6E5"/>
    </linearGradient>
    <linearGradient id="paint8_linear_679_5712" x1="72.3634" y1="50.1819" x2="142.898" y2="156.167" gradientUnits="userSpaceOnUse">
      <stop stop-color="#273B98"/>
      <stop offset="0.23" stop-color="#2E2BA2"/>
      <stop offset="0.4" stop-color="#361CAC"/>
      <stop offset="0.77" stop-color="#440B88"/>
      <stop offset="1" stop-color="#4E0070"/>
    </linearGradient>
    <linearGradient id="paint9_linear_679_5712" x1="58.0638" y1="162.219" x2="128.596" y2="75.7689" gradientUnits="userSpaceOnUse">
      <stop stop-color="#8C97E5"/>
      <stop offset="0.29" stop-color="#A1AAEB"/>
      <stop offset="0.88" stop-color="#D8DDFB"/>
      <stop offset="1" stop-color="#E5E9FF"/>
    </linearGradient>
    <linearGradient id="paint10_linear_679_5712" x1="152.629" y1="82.8354" x2="65.2248" y2="154.651" gradientUnits="userSpaceOnUse">
      <stop stop-color="#B4F759"/>
      <stop offset="0.05" stop-color="#90ED6E"/>
      <stop offset="0.15" stop-color="#35D5A4"/>
      <stop offset="0.2" stop-color="#00C7C5"/>
      <stop offset="0.41" stop-color="#2D9BE0"/>
      <stop offset="0.6" stop-color="#5277F7"/>
      <stop offset="0.66" stop-color="#5A76F6"/>
      <stop offset="0.77" stop-color="#7273F5"/>
      <stop offset="0.9" stop-color="#9970F4"/>
      <stop offset="1" stop-color="#BB6DF3"/>
    </linearGradient>
    <radialGradient id="paint11_radial_679_5712" cx="0" cy="0" r="1" gradientUnits="userSpaceOnUse" gradientTransform="translate(117.347 96.9313) rotate(6.10571) scale(7.89831 7.6967)">
      <stop stop-color="white"/>
      <stop offset="1"/>
    </radialGradient>
    <radialGradient id="paint12_radial_679_5712" cx="0" cy="0" r="1" gradientUnits="userSpaceOnUse" gradientTransform="translate(107.912 117.589) rotate(6.10589) scale(7.13137 6.95348)">
      <stop stop-color="white"/>
      <stop offset="1"/>
    </radialGradient>
    <radialGradient id="paint13_radial_679_5712" cx="0" cy="0" r="1" gradientUnits="userSpaceOnUse" gradientTransform="translate(133.964 94.5433) rotate(6.10579) scale(22.6628 22.0906)">
      <stop stop-color="white"/>
      <stop offset="1"/>
    </radialGradient>
    <radialGradient id="paint14_radial_679_5712" cx="0" cy="0" r="1" gradientUnits="userSpaceOnUse" gradientTransform="translate(101.963 96.2964) rotate(6.1058) scale(3.77461 3.67942)">
      <stop stop-color="white"/>
      <stop offset="1"/>
    </radialGradient>
    <radialGradient id="paint15_radial_679_5712" cx="0" cy="0" r="1" gradientUnits="userSpaceOnUse" gradientTransform="translate(115.766 103.009) rotate(6.12089) scale(44.146 42.9929)">
      <stop stop-color="white"/>
      <stop offset="1"/>
    </radialGradient>
    <radialGradient id="paint16_radial_679_5712" cx="0" cy="0" r="1" gradientUnits="userSpaceOnUse" gradientTransform="translate(152.235 80.1864) rotate(-173.879) scale(61.9133 60.3063)">
      <stop stop-color="#836DF3"/>
      <stop offset="0.11" stop-color="#6554BC"/>
      <stop offset="0.23" stop-color="#4A3E8B"/>
      <stop offset="0.36" stop-color="#332B60"/>
      <stop offset="0.48" stop-color="#211B3D"/>
      <stop offset="0.61" stop-color="#120F22"/>
      <stop offset="0.73" stop-color="#08060F"/>
      <stop offset="0.86" stop-color="#020103"/>
      <stop offset="1"/>
    </radialGradient>
    <radialGradient id="paint17_radial_679_5712" cx="0" cy="0" r="1" gradientUnits="userSpaceOnUse" gradientTransform="translate(132.388 71.3511) rotate(6.1209) scale(42.5419 41.4313)">
      <stop stop-color="white"/>
      <stop offset="1"/>
    </radialGradient>
    <linearGradient id="paint18_linear_679_5712" x1="110.862" y1="307.352" x2="182.5" y2="205.57" gradientUnits="userSpaceOnUse">
      <stop stop-color="#CED3F4"/>
      <stop offset="0.01" stop-color="#D3D8F6"/>
      <stop offset="0.06" stop-color="#E0E4FC"/>
      <stop offset="0.1" stop-color="#E5E9FF"/>
      <stop offset="0.45" stop-color="#E8EBFF"/>
      <stop offset="0.72" stop-color="#F1F3FF"/>
      <stop offset="0.92" stop-color="white"/>
      <stop offset="1" stop-color="#F5F7FF"/>
    </linearGradient>
    <linearGradient id="paint19_linear_679_5712" x1="96.4258" y1="349.762" x2="120.671" y2="315.83" gradientUnits="userSpaceOnUse">
      <stop stop-color="#CED3F4"/>
      <stop offset="0.02" stop-color="#D3D8F6"/>
      <stop offset="0.1" stop-color="#E0E4FC"/>
      <stop offset="0.17" stop-color="#E5E9FF"/>
      <stop offset="0.52" stop-color="#E8EBFF"/>
      <stop offset="0.79" stop-color="#F1F3FF"/>
      <stop offset="1" stop-color="white"/>
    </linearGradient>
    <linearGradient id="paint20_linear_679_5712" x1="61.4923" y1="102.456" x2="10.4957" y2="191.972" gradientUnits="userSpaceOnUse">
      <stop stop-color="#B4F759"/>
      <stop offset="0.05" stop-color="#90ED6E"/>
      <stop offset="0.15" stop-color="#35D5A4"/>
      <stop offset="0.2" stop-color="#00C7C5"/>
      <stop offset="0.41" stop-color="#2D9BE0"/>
      <stop offset="0.6" stop-color="#5277F7"/>
      <stop offset="0.66" stop-color="#5A76F6"/>
      <stop offset="0.77" stop-color="#7273F5"/>
      <stop offset="0.9" stop-color="#9970F4"/>
      <stop offset="1" stop-color="#BB6DF3"/>
    </linearGradient>
    <clipPath id="clip0_679_5712">
      <rect width="318" height="367" fill="white" transform="translate(37.366 0.865723) rotate(5.80235)"/>
    </clipPath>
  </defs>
</svg>
