<svg width="65" height="28" viewBox="0 0 65 28" fill="none" xmlns="http://www.w3.org/2000/svg">
<g clip-path="url(#clip0_1151_52)">
<path d="M65 26H5.02656C2.25103 26 0 23.6849 0 20.8349V9.1696C0 6.31508 2.25103 4 5.02656 4H65V26Z" fill="#1877F2"/>
<path d="M12.243 19.684C12.4484 20.2055 13.327 20.8034 13.9258 20.8213L19.5118 21.0011C20.1762 21.0236 20.7313 20.4842 20.7532 19.8009L20.7707 19.2075C20.775 19.0906 20.845 18.9828 20.9542 18.9423C21.4001 18.767 21.6973 18.3354 21.7104 17.8454C21.7192 17.6162 21.6623 17.3914 21.5487 17.1936C21.505 17.1217 21.4962 17.0318 21.5225 16.9509C21.5487 16.87 21.6055 16.807 21.6842 16.7711C22.1038 16.5868 22.3879 16.1687 22.401 15.6967C22.4141 15.3101 22.248 14.9505 21.9552 14.7122C21.8853 14.6583 21.8459 14.5729 21.8459 14.483C21.8459 14.3931 21.8853 14.3076 21.9552 14.2537C22.2131 14.0469 22.3661 13.7367 22.3748 13.3996C22.3923 12.7747 21.9159 12.2533 21.3083 12.2353L17.5799 12.1139C17.4968 12.1094 17.4138 12.069 17.3614 12.0016C17.3089 11.9341 17.2914 11.8442 17.3089 11.7588C17.3133 11.7408 17.6892 9.96069 17.3919 8.71549C17.2259 8.02322 16.5702 6.65215 15.7966 6.62518C15.6698 6.62068 15.543 6.65215 15.4119 6.71958C15.0579 6.8949 15.1759 7.70405 15.2677 8.35587C15.3376 8.84136 15.3988 9.25942 15.2983 9.54263C14.9836 10.4417 13.8034 12.8557 13.0167 13.7997C12.8593 13.9885 12.4266 14.3391 12.2124 14.5054L12.243 19.684Z" fill="white"/>
<path d="M11.6966 20.9068C11.6966 21.1405 11.5654 21.3338 11.4037 21.3338H9.05652C8.8948 21.3338 8.76367 21.145 8.76367 20.9068V14.3841C8.76367 14.1503 8.8948 13.957 9.05652 13.957H11.4037C11.5654 13.957 11.6966 14.1458 11.6966 14.3841V20.9068Z" fill="white"/>
</g>
<path d="M32.3828 19H30.5664V11.9453H28.2402V10.4336H34.709V11.9453H32.3828V19ZM41.9336 19H40.1465V15.1738C40.1465 14.2285 39.7949 13.7559 39.0918 13.7559C38.5918 13.7559 38.2305 13.9258 38.0078 14.2656C37.7852 14.6055 37.6738 15.1562 37.6738 15.918V19H35.8867V9.88281H37.6738V11.7402C37.6738 11.8848 37.6602 12.2246 37.6328 12.7598L37.5918 13.2871H37.6855C38.084 12.6465 38.7168 12.3262 39.584 12.3262C40.3535 12.3262 40.9375 12.5332 41.3359 12.9473C41.7344 13.3613 41.9336 13.9551 41.9336 14.7285V19ZM45.5605 19H43.7734V12.4492H45.5605V19ZM43.6855 11.7285V11.5703C44.3574 10.7891 44.8164 10.2012 45.0625 9.80664H47.0664V9.92969C46.8633 10.1328 46.5156 10.4355 46.0234 10.8379C45.5352 11.2363 45.1523 11.5332 44.875 11.7285H43.6855ZM50.1016 19.1172C48.0625 19.1172 47.043 17.998 47.043 15.7598C47.043 14.6465 47.3203 13.7969 47.875 13.2109C48.4297 12.6211 49.2246 12.3262 50.2598 12.3262C51.0176 12.3262 51.6973 12.4746 52.2988 12.7715L51.7715 14.1543C51.4902 14.041 51.2285 13.9492 50.9863 13.8789C50.7441 13.8047 50.502 13.7676 50.2598 13.7676C49.3301 13.7676 48.8652 14.4277 48.8652 15.748C48.8652 17.0293 49.3301 17.6699 50.2598 17.6699C50.6035 17.6699 50.9219 17.625 51.2148 17.5352C51.5078 17.4414 51.8008 17.2969 52.0938 17.1016V18.6309C51.8047 18.8145 51.5117 18.9414 51.2148 19.0117C50.9219 19.082 50.5508 19.1172 50.1016 19.1172ZM59.6641 19H57.877V15.1738C57.877 14.2285 57.5254 13.7559 56.8223 13.7559C56.3223 13.7559 55.9609 13.9258 55.7383 14.2656C55.5156 14.6055 55.4043 15.1562 55.4043 15.918V19H53.6172V9.88281H55.4043V11.7402C55.4043 11.8848 55.3906 12.2246 55.3633 12.7598L55.3223 13.2871H55.416C55.8145 12.6465 56.4473 12.3262 57.3145 12.3262C58.084 12.3262 58.668 12.5332 59.0664 12.9473C59.4648 13.3613 59.6641 13.9551 59.6641 14.7285V19Z" fill="white"/>
<defs>
<clipPath id="clip0_1151_52">
<rect width="65" height="22" fill="white" transform="translate(0 4)"/>
</clipPath>
</defs>
</svg>
