<svg width="22" height="31" viewBox="0 0 22 31" fill="none" xmlns="http://www.w3.org/2000/svg">
<path d="M11.0254 28.5556L3.51367 17.6398L3.48145 17.5936L3.44434 17.5512C1.86719 15.7347 0.999023 13.4079 0.999023 10.9992C0.999023 5.48534 5.48633 0.999512 11.001 0.999512C16.5146 0.999512 21.001 5.48534 21.001 10.9992C21.001 13.2866 20.25 15.4391 18.8281 17.2242L18.8066 17.2514L18.7871 17.2801L11.0254 28.5556Z" fill="white"/>
<path d="M11.0254 26.7918L18.002 16.6557L18.0459 16.6012C19.3252 14.995 20.001 13.0579 20.001 10.9992C20.001 6.03675 15.9639 1.99951 11.001 1.99951C6.03711 1.99951 1.99902 6.03675 1.99902 10.9992C1.99902 13.167 2.78027 15.261 4.19922 16.8955L4.27344 16.9804L4.33691 17.0729L11.0254 26.7918ZM11.0254 30.3194L2.68945 18.2067C1.01367 16.2766 -0.000976562 13.7568 -0.000976562 10.9992C-0.000976562 4.92488 4.9248 -0.000488281 11.001 -0.000488281C17.0752 -0.000488281 22.001 4.92488 22.001 10.9992C22.001 13.5884 21.1064 15.9684 19.6104 17.8471L11.0254 30.3194Z" fill="#007CBA"/>
<path d="M11 15C13.2091 15 15 13.2091 15 11C15 8.79086 13.2091 7 11 7C8.79086 7 7 8.79086 7 11C7 13.2091 8.79086 15 11 15Z" fill="white"/>
<path d="M11 14C12.6569 14 14 12.6569 14 11C14 9.34315 12.6569 8 11 8C9.34315 8 8 9.34315 8 11C8 12.6569 9.34315 14 11 14Z" stroke="#007CBA" stroke-width="2"/>
</svg>
