<svg width="245" height="28" viewBox="0 0 245 28" fill="none" xmlns="http://www.w3.org/2000/svg">
<g clip-path="url(#clip0_1352_17)">
<path d="M79.009 20.8619L74.821 8.95389H67.313L74.597 26.9539H83.166L90.503 8.95389H83.14L79.009 20.8619ZM17.226 12.1259C17.2083 12.1204 17.191 12.1141 17.174 12.1069C17.5801 11.949 17.9722 11.7569 18.346 11.5329C19.4592 10.7833 20.3036 9.6975 20.7562 8.43405C21.2087 7.1706 21.2456 5.79559 20.8615 4.50969C20.4774 3.22379 19.6923 2.0943 18.6209 1.28606C17.5496 0.477816 16.2479 0.033128 14.906 0.0168915H15.301L0.000976562 0.00688171V26.9529H12.555C12.792 26.9529 13.026 26.9469 13.255 26.9429H16.255L16.648 26.9339C20.739 26.7899 23.42 23.4339 23.42 19.3079C23.427 15.7179 20.56 12.9479 17.226 12.1259ZM7.31898 4.97189H10.919C11.3316 4.98174 11.7413 5.04458 12.138 5.15889C12.5328 5.3207 12.8858 5.56973 13.1707 5.88734C13.4556 6.20495 13.6649 6.5829 13.783 6.99289C13.8354 7.19878 13.862 7.41041 13.862 7.62288C13.8683 8.091 13.7876 8.55624 13.624 8.99489C13.4398 9.39025 13.1659 9.73714 12.824 10.0079C12.7004 10.0915 12.5699 10.1644 12.434 10.2259C11.9837 10.4448 11.4955 10.5749 10.996 10.6089C10.528 10.6329 10.308 10.6459 9.14998 10.6459H7.31699L7.31898 4.97189ZM14.208 21.2799C13.5222 21.7229 12.7244 21.9616 11.908 21.9679H7.31798V15.2799H11.202C11.481 15.2799 11.712 15.2799 11.85 15.2799C12.4237 15.2759 12.9942 15.364 13.54 15.5409L13.863 15.6669C14.369 15.9241 14.7991 16.3091 15.1106 16.7836C15.4221 17.2582 15.6042 17.8059 15.639 18.3725C15.6737 18.9391 15.5599 19.5049 15.3087 20.014C15.0575 20.5231 14.6778 20.9577 14.207 21.2749L14.208 21.2799ZM38.878 8.99889L32.552 17.0879V0.00488281H25.438V26.9549H32.551L35.61 23.0689L38.455 26.9549H46.561L39.723 17.7739L46.58 9.00389L38.878 8.99889ZM64.962 9.70389C63.513 8.64789 59.987 8.11888 56.817 8.11888C55.5293 8.1321 54.2444 8.24443 52.974 8.45488C51.4389 8.68849 49.933 9.08506 48.482 9.63788L50.517 13.7589C51.8559 12.9484 53.3541 12.4367 54.909 12.2589C55.8475 12.1136 56.8015 12.0991 57.744 12.2159C58.3298 12.2728 58.8911 12.4794 59.374 12.8159C59.6728 13.0407 59.9095 13.3378 60.0618 13.6793C60.2142 14.0208 60.2772 14.3954 60.245 14.7679V14.9029C57.5575 14.8737 54.8767 15.1777 52.264 15.8079C49.85 16.5169 47.336 18.6599 47.336 21.4959C47.3806 23.0492 48.0309 24.5235 49.1479 25.6039C50.2648 26.6843 51.76 27.2851 53.314 27.2779C53.402 27.2779 54.188 27.2919 54.188 27.2919C56.3251 27.178 58.3979 26.5205 60.21 25.3819L61.401 26.9749H67.139V14.4409C67.2044 13.532 67.0392 12.6213 66.6586 11.7934C66.278 10.9654 65.6944 10.247 64.962 9.70488V9.70389ZM60.21 22.0419C59.3204 22.9562 58.1271 23.5135 56.855 23.6089C56.748 23.6084 56.6412 23.6021 56.535 23.5899C56.486 23.5899 56.435 23.5759 56.393 23.5739C56.365 23.5739 56.331 23.5599 56.302 23.5569C55.7561 23.4483 55.2647 23.1542 54.9111 22.7245C54.5575 22.2947 54.3635 21.7558 54.3621 21.1993C54.3606 20.6428 54.5519 20.1029 54.9033 19.6714C55.2547 19.2398 55.7447 18.9432 56.29 18.8319C56.311 18.8259 56.331 18.8209 56.352 18.8129C57.333 18.5959 60.21 18.3259 60.21 18.3259V22.0419Z" fill="white"/>
<path d="M176.5 9.18506H114.5V27.1851H176.5V9.18506Z" stroke="white"/>
<path d="M244.5 9.18506H182.5V27.1851H244.5V9.18506Z" stroke="white"/>
<path d="M123.938 14.6851V22.6851H122.969V14.6851H123.938ZM130.255 16.6851C130.208 16.2892 130.018 15.9819 129.685 15.7632C129.351 15.5444 128.942 15.4351 128.458 15.4351C128.104 15.4351 127.794 15.4923 127.528 15.6069C127.265 15.7215 127.06 15.8791 126.911 16.0796C126.765 16.2801 126.692 16.508 126.692 16.7632C126.692 16.9767 126.743 17.1603 126.845 17.314C126.949 17.465 127.082 17.5913 127.243 17.6929C127.405 17.7918 127.574 17.8739 127.751 17.939C127.928 18.0015 128.091 18.0522 128.239 18.0913L129.052 18.3101C129.26 18.3647 129.492 18.4403 129.747 18.5366C130.005 18.633 130.251 18.7645 130.485 18.9312C130.722 19.0952 130.918 19.3062 131.071 19.564C131.225 19.8218 131.302 20.1382 131.302 20.5132C131.302 20.9455 131.188 21.3361 130.962 21.6851C130.738 22.034 130.41 22.3114 129.978 22.5171C129.548 22.7228 129.026 22.8257 128.411 22.8257C127.838 22.8257 127.342 22.7332 126.923 22.5483C126.506 22.3634 126.178 22.1056 125.938 21.7749C125.701 21.4442 125.567 21.0601 125.536 20.6226H126.536C126.562 20.9246 126.664 21.1746 126.841 21.3726C127.021 21.5679 127.247 21.7137 127.521 21.8101C127.797 21.9038 128.093 21.9507 128.411 21.9507C128.781 21.9507 129.113 21.8908 129.407 21.771C129.701 21.6486 129.935 21.4793 130.106 21.2632C130.278 21.0444 130.364 20.7892 130.364 20.4976C130.364 20.2319 130.29 20.0158 130.142 19.8491C129.993 19.6825 129.798 19.547 129.556 19.4429C129.313 19.3387 129.052 19.2476 128.771 19.1694L127.786 18.8882C127.161 18.7085 126.666 18.452 126.302 18.1187C125.937 17.7853 125.755 17.3491 125.755 16.8101C125.755 16.3621 125.876 15.9715 126.118 15.6382C126.363 15.3022 126.691 15.0418 127.103 14.8569C127.517 14.6694 127.979 14.5757 128.489 14.5757C129.005 14.5757 129.463 14.6681 129.864 14.853C130.265 15.0353 130.583 15.2853 130.817 15.603C131.054 15.9207 131.179 16.2814 131.192 16.6851H130.255ZM139.645 18.6851C139.645 19.5288 139.492 20.258 139.188 20.8726C138.883 21.4871 138.465 21.9611 137.934 22.2944C137.402 22.6278 136.796 22.7944 136.113 22.7944C135.431 22.7944 134.824 22.6278 134.293 22.2944C133.762 21.9611 133.344 21.4871 133.039 20.8726C132.734 20.258 132.582 19.5288 132.582 18.6851C132.582 17.8413 132.734 17.1121 133.039 16.4976C133.344 15.883 133.762 15.409 134.293 15.0757C134.824 14.7424 135.431 14.5757 136.113 14.5757C136.796 14.5757 137.402 14.7424 137.934 15.0757C138.465 15.409 138.883 15.883 139.188 16.4976C139.492 17.1121 139.645 17.8413 139.645 18.6851ZM138.707 18.6851C138.707 17.9924 138.591 17.4077 138.359 16.9312C138.13 16.4546 137.819 16.0939 137.426 15.8491C137.035 15.6043 136.598 15.4819 136.113 15.4819C135.629 15.4819 135.19 15.6043 134.797 15.8491C134.406 16.0939 134.095 16.4546 133.863 16.9312C133.634 17.4077 133.52 17.9924 133.52 18.6851C133.52 19.3778 133.634 19.9624 133.863 20.439C134.095 20.9155 134.406 21.2762 134.797 21.521C135.19 21.7658 135.629 21.8882 136.113 21.8882C136.598 21.8882 137.035 21.7658 137.426 21.521C137.819 21.2762 138.13 20.9155 138.359 20.439C138.591 19.9624 138.707 19.3778 138.707 18.6851ZM141.133 22.6851V21.9819L143.773 19.0913C144.083 18.7528 144.339 18.4585 144.539 18.2085C144.74 17.9559 144.888 17.7189 144.984 17.4976C145.083 17.2736 145.133 17.0392 145.133 16.7944C145.133 16.5132 145.065 16.2697 144.93 16.064C144.797 15.8582 144.615 15.6994 144.383 15.5874C144.151 15.4754 143.891 15.4194 143.602 15.4194C143.294 15.4194 143.026 15.4832 142.797 15.6108C142.57 15.7358 142.395 15.9116 142.27 16.1382C142.147 16.3647 142.086 16.6304 142.086 16.9351H141.164C141.164 16.4663 141.272 16.0549 141.488 15.7007C141.704 15.3465 141.999 15.0705 142.371 14.8726C142.746 14.6746 143.167 14.5757 143.633 14.5757C144.102 14.5757 144.517 14.6746 144.879 14.8726C145.241 15.0705 145.525 15.3374 145.73 15.6733C145.936 16.0093 146.039 16.383 146.039 16.7944C146.039 17.0887 145.986 17.3765 145.879 17.6577C145.775 17.9364 145.592 18.2476 145.332 18.5913C145.074 18.9325 144.716 19.3491 144.258 19.8413L142.461 21.7632V21.8257H146.18V22.6851H141.133ZM148.043 22.6851L151.621 15.6069V15.5444H147.496V14.6851H152.621V15.5913L149.059 22.6851H148.043ZM156.515 22.7944C155.926 22.7944 155.425 22.6343 155.011 22.314C154.597 21.991 154.28 21.5236 154.062 20.9116C153.843 20.297 153.733 19.5549 153.733 18.6851C153.733 17.8205 153.843 17.0822 154.062 16.4702C154.283 15.8556 154.601 15.3869 155.015 15.064C155.431 14.7384 155.931 14.5757 156.515 14.5757C157.098 14.5757 157.597 14.7384 158.011 15.064C158.427 15.3869 158.745 15.8556 158.964 16.4702C159.185 17.0822 159.296 17.8205 159.296 18.6851C159.296 19.5549 159.187 20.297 158.968 20.9116C158.749 21.5236 158.433 21.991 158.019 22.314C157.604 22.6343 157.103 22.7944 156.515 22.7944ZM156.515 21.9351C157.098 21.9351 157.551 21.6538 157.874 21.0913C158.197 20.5288 158.358 19.7267 158.358 18.6851C158.358 17.9924 158.284 17.4025 158.136 16.9155C157.99 16.4285 157.779 16.0575 157.503 15.8022C157.229 15.547 156.9 15.4194 156.515 15.4194C155.937 15.4194 155.485 15.7046 155.159 16.2749C154.834 16.8426 154.671 17.646 154.671 18.6851C154.671 19.3778 154.744 19.9663 154.89 20.4507C155.035 20.9351 155.245 21.3035 155.519 21.5562C155.795 21.8088 156.127 21.9351 156.515 21.9351ZM163.39 22.7944C162.801 22.7944 162.3 22.6343 161.886 22.314C161.472 21.991 161.155 21.5236 160.937 20.9116C160.718 20.297 160.608 19.5549 160.608 18.6851C160.608 17.8205 160.718 17.0822 160.937 16.4702C161.158 15.8556 161.476 15.3869 161.89 15.064C162.306 14.7384 162.806 14.5757 163.39 14.5757C163.973 14.5757 164.472 14.7384 164.886 15.064C165.302 15.3869 165.62 15.8556 165.839 16.4702C166.06 17.0822 166.171 17.8205 166.171 18.6851C166.171 19.5549 166.062 20.297 165.843 20.9116C165.624 21.5236 165.308 21.991 164.894 22.314C164.479 22.6343 163.978 22.7944 163.39 22.7944ZM163.39 21.9351C163.973 21.9351 164.426 21.6538 164.749 21.0913C165.072 20.5288 165.233 19.7267 165.233 18.6851C165.233 17.9924 165.159 17.4025 165.011 16.9155C164.865 16.4285 164.654 16.0575 164.378 15.8022C164.104 15.547 163.775 15.4194 163.39 15.4194C162.812 15.4194 162.36 15.7046 162.034 16.2749C161.709 16.8426 161.546 17.646 161.546 18.6851C161.546 19.3778 161.619 19.9663 161.765 20.4507C161.91 20.9351 162.12 21.3035 162.394 21.5562C162.67 21.8088 163.002 21.9351 163.39 21.9351ZM170.468 14.6851V22.6851H169.499V15.7007H169.452L167.499 16.9976V16.0132L169.499 14.6851H170.468Z" fill="white"/>
<path d="M194.938 14.6851V22.6851H193.969V14.6851H194.938ZM201.255 16.6851C201.208 16.2892 201.018 15.9819 200.685 15.7632C200.351 15.5444 199.942 15.4351 199.458 15.4351C199.104 15.4351 198.794 15.4923 198.528 15.6069C198.265 15.7215 198.06 15.8791 197.911 16.0796C197.765 16.2801 197.692 16.508 197.692 16.7632C197.692 16.9767 197.743 17.1603 197.845 17.314C197.949 17.465 198.082 17.5913 198.243 17.6929C198.405 17.7918 198.574 17.8739 198.751 17.939C198.928 18.0015 199.091 18.0522 199.239 18.0913L200.052 18.3101C200.26 18.3647 200.492 18.4403 200.747 18.5366C201.005 18.633 201.251 18.7645 201.485 18.9312C201.722 19.0952 201.918 19.3062 202.071 19.564C202.225 19.8218 202.302 20.1382 202.302 20.5132C202.302 20.9455 202.188 21.3361 201.962 21.6851C201.738 22.034 201.41 22.3114 200.978 22.5171C200.548 22.7228 200.026 22.8257 199.411 22.8257C198.838 22.8257 198.342 22.7332 197.923 22.5483C197.506 22.3634 197.178 22.1056 196.938 21.7749C196.701 21.4442 196.567 21.0601 196.536 20.6226H197.536C197.562 20.9246 197.664 21.1746 197.841 21.3726C198.021 21.5679 198.247 21.7137 198.521 21.8101C198.797 21.9038 199.093 21.9507 199.411 21.9507C199.781 21.9507 200.113 21.8908 200.407 21.771C200.701 21.6486 200.935 21.4793 201.106 21.2632C201.278 21.0444 201.364 20.7892 201.364 20.4976C201.364 20.2319 201.29 20.0158 201.142 19.8491C200.993 19.6825 200.798 19.547 200.556 19.4429C200.313 19.3387 200.052 19.2476 199.771 19.1694L198.786 18.8882C198.161 18.7085 197.666 18.452 197.302 18.1187C196.937 17.7853 196.755 17.3491 196.755 16.8101C196.755 16.3621 196.876 15.9715 197.118 15.6382C197.363 15.3022 197.691 15.0418 198.103 14.8569C198.517 14.6694 198.979 14.5757 199.489 14.5757C200.005 14.5757 200.463 14.6681 200.864 14.853C201.265 15.0353 201.583 15.2853 201.817 15.603C202.054 15.9207 202.179 16.2814 202.192 16.6851H201.255ZM210.645 18.6851C210.645 19.5288 210.492 20.258 210.188 20.8726C209.883 21.4871 209.465 21.9611 208.934 22.2944C208.402 22.6278 207.796 22.7944 207.113 22.7944C206.431 22.7944 205.824 22.6278 205.293 22.2944C204.762 21.9611 204.344 21.4871 204.039 20.8726C203.734 20.258 203.582 19.5288 203.582 18.6851C203.582 17.8413 203.734 17.1121 204.039 16.4976C204.344 15.883 204.762 15.409 205.293 15.0757C205.824 14.7424 206.431 14.5757 207.113 14.5757C207.796 14.5757 208.402 14.7424 208.934 15.0757C209.465 15.409 209.883 15.883 210.188 16.4976C210.492 17.1121 210.645 17.8413 210.645 18.6851ZM209.707 18.6851C209.707 17.9924 209.591 17.4077 209.359 16.9312C209.13 16.4546 208.819 16.0939 208.426 15.8491C208.035 15.6043 207.598 15.4819 207.113 15.4819C206.629 15.4819 206.19 15.6043 205.797 15.8491C205.406 16.0939 205.095 16.4546 204.863 16.9312C204.634 17.4077 204.52 17.9924 204.52 18.6851C204.52 19.3778 204.634 19.9624 204.863 20.439C205.095 20.9155 205.406 21.2762 205.797 21.521C206.19 21.7658 206.629 21.8882 207.113 21.8882C207.598 21.8882 208.035 21.7658 208.426 21.521C208.819 21.2762 209.13 20.9155 209.359 20.439C209.591 19.9624 209.707 19.3778 209.707 18.6851ZM214.68 14.5757C215.008 14.5783 215.336 14.6408 215.664 14.7632C215.992 14.8856 216.292 15.0887 216.563 15.3726C216.833 15.6538 217.051 16.0379 217.215 16.5249C217.379 17.0119 217.461 17.6226 217.461 18.3569C217.461 19.0679 217.393 19.6994 217.258 20.2515C217.125 20.8009 216.932 21.2645 216.68 21.6421C216.43 22.0197 216.125 22.3062 215.766 22.5015C215.409 22.6968 215.005 22.7944 214.555 22.7944C214.107 22.7944 213.707 22.7059 213.355 22.5288C213.007 22.3491 212.72 22.1004 212.496 21.7827C212.275 21.4624 212.133 21.0913 212.07 20.6694H213.023C213.109 21.0366 213.28 21.34 213.535 21.5796C213.793 21.8166 214.133 21.9351 214.555 21.9351C215.172 21.9351 215.659 21.6655 216.016 21.1265C216.375 20.5874 216.555 19.8257 216.555 18.8413H216.492C216.346 19.0601 216.173 19.2489 215.973 19.4077C215.772 19.5666 215.549 19.689 215.305 19.7749C215.06 19.8608 214.799 19.9038 214.523 19.9038C214.065 19.9038 213.645 19.7905 213.262 19.564C212.882 19.3348 212.577 19.021 212.348 18.6226C212.121 18.2215 212.008 17.7632 212.008 17.2476C212.008 16.758 212.117 16.3101 212.336 15.9038C212.557 15.495 212.867 15.1694 213.266 14.9272C213.667 14.6851 214.138 14.5679 214.68 14.5757ZM214.68 15.4351C214.352 15.4351 214.056 15.5171 213.793 15.6812C213.533 15.8426 213.326 16.0614 213.172 16.3374C213.021 16.6108 212.945 16.9142 212.945 17.2476C212.945 17.5809 213.018 17.8843 213.164 18.1577C213.313 18.4285 213.514 18.6447 213.77 18.8062C214.027 18.965 214.32 19.0444 214.648 19.0444C214.896 19.0444 215.126 18.9963 215.34 18.8999C215.553 18.8009 215.74 18.6668 215.898 18.4976C216.06 18.3257 216.186 18.1317 216.277 17.9155C216.368 17.6968 216.414 17.4689 216.414 17.2319C216.414 16.9194 216.339 16.6265 216.188 16.353C216.039 16.0796 215.833 15.8582 215.57 15.689C215.31 15.5197 215.013 15.4351 214.68 15.4351ZM221.606 22.7944C221.018 22.7944 220.517 22.6343 220.103 22.314C219.688 21.991 219.372 21.5236 219.153 20.9116C218.935 20.297 218.825 19.5549 218.825 18.6851C218.825 17.8205 218.935 17.0822 219.153 16.4702C219.375 15.8556 219.692 15.3869 220.106 15.064C220.523 14.7384 221.023 14.5757 221.606 14.5757C222.19 14.5757 222.688 14.7384 223.103 15.064C223.519 15.3869 223.837 15.8556 224.056 16.4702C224.277 17.0822 224.388 17.8205 224.388 18.6851C224.388 19.5549 224.278 20.297 224.06 20.9116C223.841 21.5236 223.524 21.991 223.11 22.314C222.696 22.6343 222.195 22.7944 221.606 22.7944ZM221.606 21.9351C222.19 21.9351 222.643 21.6538 222.966 21.0913C223.289 20.5288 223.45 19.7267 223.45 18.6851C223.45 17.9924 223.376 17.4025 223.228 16.9155C223.082 16.4285 222.871 16.0575 222.595 15.8022C222.321 15.547 221.992 15.4194 221.606 15.4194C221.028 15.4194 220.576 15.7046 220.251 16.2749C219.925 16.8426 219.763 17.646 219.763 18.6851C219.763 19.3778 219.836 19.9663 219.981 20.4507C220.127 20.9351 220.337 21.3035 220.61 21.5562C220.886 21.8088 221.218 21.9351 221.606 21.9351ZM228.481 22.7944C227.893 22.7944 227.392 22.6343 226.978 22.314C226.563 21.991 226.247 21.5236 226.028 20.9116C225.81 20.297 225.7 19.5549 225.7 18.6851C225.7 17.8205 225.81 17.0822 226.028 16.4702C226.25 15.8556 226.567 15.3869 226.981 15.064C227.398 14.7384 227.898 14.5757 228.481 14.5757C229.065 14.5757 229.563 14.7384 229.978 15.064C230.394 15.3869 230.712 15.8556 230.931 16.4702C231.152 17.0822 231.263 17.8205 231.263 18.6851C231.263 19.5549 231.153 20.297 230.935 20.9116C230.716 21.5236 230.399 21.991 229.985 22.314C229.571 22.6343 229.07 22.7944 228.481 22.7944ZM228.481 21.9351C229.065 21.9351 229.518 21.6538 229.841 21.0913C230.164 20.5288 230.325 19.7267 230.325 18.6851C230.325 17.9924 230.251 17.4025 230.103 16.9155C229.957 16.4285 229.746 16.0575 229.47 15.8022C229.196 15.547 228.867 15.4194 228.481 15.4194C227.903 15.4194 227.451 15.7046 227.126 16.2749C226.8 16.8426 226.638 17.646 226.638 18.6851C226.638 19.3778 226.711 19.9663 226.856 20.4507C227.002 20.9351 227.212 21.3035 227.485 21.5562C227.761 21.8088 228.093 21.9351 228.481 21.9351ZM235.56 14.6851V22.6851H234.591V15.7007H234.544L232.591 16.9976V16.0132L234.591 14.6851H235.56Z" fill="white"/>
</g>
<defs>
<clipPath id="clip0_1352_17">
<rect width="245" height="27.685" fill="white"/>
</clipPath>
</defs>
</svg>
