<svg width="259" height="31" viewBox="0 0 259 31" fill="none" xmlns="http://www.w3.org/2000/svg">
<path d="M87.0377 7.98923C87.0997 7.93006 87.1618 7.75253 87.1618 7.63418C87.1618 7.51582 87.1618 7.45665 87.0997 7.3383C87.0377 7.27912 86.9756 7.16077 86.9135 7.16077C86.8514 7.10159 86.7273 7.10159 86.6652 7.10159C86.6031 7.10159 86.4789 7.04242 86.3548 7.04242H85.6098V8.99522H86.1064V8.28511H86.2927L86.9135 8.99522H87.5343L86.7893 8.16676C86.9135 8.10758 86.9756 8.04841 87.0377 7.98923ZM86.6031 7.75253C86.6031 7.8117 86.541 7.8117 86.541 7.8117C86.4789 7.87088 86.4789 7.87088 86.3548 7.87088C86.2927 7.87088 86.2306 7.87088 86.1685 7.87088H86.0444V7.27912H86.2306C86.2927 7.27912 86.3548 7.27912 86.4168 7.27912C86.4789 7.27912 86.4789 7.3383 86.541 7.3383C86.6031 7.39747 86.6031 7.39747 86.6031 7.39747C86.6031 7.39747 86.6652 7.45665 86.6652 7.51582C86.6652 7.69335 86.6652 7.75253 86.6031 7.75253ZM87.8447 6.68736C87.4722 6.33231 86.9135 6.0956 86.3548 6.0956C85.796 6.0956 85.2994 6.27313 84.8648 6.68736C84.4923 7.04242 84.244 7.51582 84.244 8.10758C84.244 8.64017 84.4303 9.11357 84.8648 9.52781C85.2373 9.88286 85.796 10.1196 86.3548 10.1196C86.9135 10.1196 87.4101 9.94204 87.8447 9.52781C88.2172 9.17275 88.4655 8.64017 88.4655 8.10758C88.4655 7.575 88.2793 7.10159 87.8447 6.68736ZM87.5343 9.17275C87.2239 9.46863 86.7893 9.64616 86.3548 9.64616C85.9202 9.64616 85.4856 9.46863 85.1752 9.17275C84.8648 8.87687 84.6786 8.46264 84.6786 8.04841C84.6786 7.63418 84.8648 7.21995 85.1752 6.92407C85.4856 6.62819 85.9202 6.45066 86.3548 6.45066C86.7893 6.45066 87.2239 6.62819 87.5343 6.92407C87.8447 7.21995 88.031 7.63418 88.031 8.04841C88.031 8.52182 87.8447 8.87687 87.5343 9.17275ZM71.8278 18.0491L68.0408 7.69335H61.2119L67.8546 23.2566H75.6147L82.3195 7.69335H75.6147L71.8278 18.0491ZM15.6444 10.5338C16.0169 10.3563 16.3894 10.1787 16.6998 10.0604C18.1898 9.0544 19.2451 7.45665 19.2451 5.50385C19.1831 2.48588 16.6998 0.0596642 13.5958 0.000488281H13.9682H0V23.3158H11.4229C11.6092 23.3158 11.8575 23.3158 12.0437 23.3158H14.7753H15.1478C18.8726 23.1974 21.2938 20.2386 21.2938 16.7473C21.2938 13.6109 18.6864 11.1847 15.6444 10.5338ZM6.64267 4.32033H9.93297C10.3055 4.32033 10.6779 4.3795 11.0504 4.49786C11.7954 4.79373 12.3541 5.38549 12.5404 6.0956C12.6025 6.27313 12.6025 6.45066 12.6025 6.62819C12.6025 7.10159 12.5404 7.45665 12.4162 7.8117C12.23 8.16676 12.0437 8.46264 11.6712 8.69934C11.5471 8.75852 11.4229 8.81769 11.2988 8.87687C10.8642 9.0544 10.4296 9.17275 9.99505 9.23193C9.56048 9.2911 9.37424 9.2911 8.31886 9.2911H6.64267V4.32033ZM12.9129 18.4634C12.2921 18.8184 11.6092 19.0551 10.8642 19.0551H6.64267V13.1967H10.1813C10.4296 13.1967 10.6779 13.1967 10.8021 13.1967C11.4229 13.1967 11.9816 13.2559 12.2921 13.4334C12.3541 13.4926 12.4783 13.4926 12.6025 13.5518C13.5337 14.0252 14.2166 14.972 14.2166 16.0963C14.2166 17.1023 13.7199 17.9308 12.9129 18.4634ZM35.3241 7.8117L29.6127 14.7945V0.000488281H23.0942V23.375H29.5506L32.3442 20.0019L34.9516 23.375H42.3393L36.1312 15.3862L42.3393 7.8117H35.3241ZM59.0391 8.40346C57.7354 7.51582 54.5072 7.04242 51.6514 7.04242C50.4719 7.04242 49.3545 7.16077 48.1749 7.3383C46.747 7.575 45.0709 7.93006 44.0776 8.34429L45.94 11.954C47.1816 11.2439 48.3612 10.8889 49.9132 10.6521C50.7823 10.5338 51.7135 10.4746 52.4585 10.593C53.0172 10.6521 53.5139 10.8297 53.9484 11.1256C54.4451 11.4806 54.7555 12.0132 54.7555 12.7825V12.9008C52.2102 12.96 49.6649 13.0784 47.492 13.7293C45.3192 14.3211 43.0222 16.2147 43.0222 18.6409C43.0222 21.4222 45.5675 23.6117 48.4853 23.6117C48.5474 23.6117 49.2924 23.6117 49.2924 23.6117C51.1548 23.4933 53.2656 22.9016 54.7555 21.9547L55.8109 23.3158H61.0257V12.4866C61.0257 10.6521 60.3428 9.35028 59.0391 8.40346ZM54.7555 19.1143C54.7555 19.1143 53.4518 20.4753 51.7135 20.4753C51.5894 20.4753 51.5273 20.4753 51.4031 20.4753C51.341 20.4753 51.341 20.4753 51.279 20.4753C51.2169 20.4753 51.2169 20.4753 51.2169 20.4753C50.2236 20.2978 49.4786 19.4694 49.4786 18.4042C49.4786 17.3982 50.2236 16.5106 51.2169 16.333H51.279C52.1481 16.1555 54.8176 15.9188 54.8176 15.9188L54.7555 19.1143Z" fill="white"/>
<path fill-rule="evenodd" clip-rule="evenodd" d="M148.069 23.6577C147.159 23.6577 146.613 23.2409 146.613 22.3238V3.23234C146.613 2.39865 147.068 1.89844 148.069 1.89844C148.979 1.89844 149.525 2.31528 149.525 3.23234V9.81849C150.708 8.65132 152.437 7.98437 154.804 7.98437H155.714C157.989 7.98437 159.627 8.48458 160.719 9.48501C161.811 10.4854 162.357 11.9861 162.357 14.0703V22.4072C162.357 23.2409 161.902 23.7411 160.901 23.7411C159.9 23.7411 159.445 23.3243 159.445 22.4072V14.0703C159.445 12.7364 159.172 11.8193 158.626 11.3191C158.08 10.8189 157.079 10.5688 155.623 10.5688H154.713C153.348 10.5688 152.164 10.7355 151.163 10.9857C150.162 11.2358 149.616 11.736 149.434 12.3196V22.3238C149.434 23.2409 148.979 23.6577 148.069 23.6577ZM129.592 23.4938C129.649 23.4922 129.692 23.491 129.719 23.491H133.712C135.847 23.491 137.518 23.0748 138.632 22.3257C139.746 21.5765 140.396 20.3279 140.582 18.5799C140.675 18.1637 140.582 17.8308 140.303 17.5811C140.025 17.3313 139.653 17.2481 139.189 17.2481C138.354 17.2481 137.797 17.7475 137.704 18.5799C137.611 19.4955 137.239 20.1615 136.59 20.4944C136.033 20.8274 135.011 20.9938 133.712 20.9938H129.627C128.42 20.9938 127.491 20.8274 126.749 20.5777C126.099 20.3279 125.542 19.9117 125.263 19.2458C124.985 18.6632 124.799 17.7475 124.799 16.6654V9.59011C124.799 8.50801 124.985 7.67562 125.263 7.00971C125.542 6.34379 126.099 5.9276 126.749 5.67788C127.491 5.42816 128.42 5.34493 129.627 5.34493H133.804C135.104 5.34493 136.033 5.5114 136.682 5.84436C137.332 6.17732 137.704 6.84323 137.797 7.75886C137.889 8.67448 138.446 9.09068 139.282 9.09068C139.746 9.09068 140.118 9.00744 140.396 8.75772C140.675 8.50801 140.767 8.17505 140.675 7.75886C140.489 6.09408 139.839 4.76225 138.725 4.0131C137.611 3.26395 135.94 2.84776 133.804 2.84776H129.627C127.027 2.84776 125.077 3.34719 123.87 4.51254C122.664 5.67788 122.014 7.4259 122.014 9.75659V16.8319C122.014 19.2458 122.664 20.9106 123.87 22.076C125.799 23.5978 128.86 23.5138 129.592 23.4938ZM105.185 17.8953V17.3269H117.541C118.586 17.3269 119.062 16.8396 119.062 16.0275V14.4845C119.062 12.4543 118.491 10.9925 117.351 10.018C116.21 9.04351 114.5 8.55625 112.123 8.55625H109.272C106.896 8.47504 105.185 8.9623 104.045 9.93681C102.904 10.9113 102.334 12.3731 102.334 14.4033V17.8953C102.334 19.8444 102.904 21.3061 104.045 22.2806C105.185 23.2552 106.896 23.7424 109.272 23.7424H112.123C114.119 23.7424 115.64 23.4988 116.781 22.8491C117.921 22.2806 118.586 21.3061 118.872 20.088C118.967 19.6819 118.872 19.3571 118.586 19.1135C118.301 18.8698 117.921 18.7886 117.446 18.7886C116.971 18.7886 116.591 18.9511 116.4 19.1135C116.115 19.3571 115.925 19.6007 115.83 20.0068C115.64 20.494 115.26 20.8189 114.69 20.9813C114.119 21.2249 113.264 21.3061 112.028 21.3061H109.177C107.656 21.3061 106.611 21.0625 106.041 20.5752C105.47 20.088 105.185 19.1947 105.185 17.8953ZM105.946 11.6422C106.516 11.2362 107.561 10.9925 109.082 10.9925V10.9113H111.838C113.359 10.9113 114.405 11.155 114.975 11.6422C115.545 12.1295 115.83 13.0228 115.83 14.3221V14.5657H105.09V14.3221C105.09 13.0228 105.375 12.1295 105.946 11.6422ZM183.021 9.83386C183.021 8.9495 182.441 8.54752 181.474 8.54752C180.41 8.54752 179.927 9.02989 180.023 9.91425V19.5618C179.83 20.1246 179.25 20.607 178.186 20.8481C177.122 21.0893 175.865 21.2501 174.415 21.2501H173.448C171.901 21.2501 170.837 21.0089 170.257 20.5266C169.677 20.0442 169.387 19.1598 169.387 17.8735V9.83386C169.387 8.9495 168.807 8.54752 167.84 8.54752C166.776 8.54752 166.293 9.02989 166.293 9.83386V17.8735C166.293 19.8834 166.873 21.3305 168.033 22.2953C169.194 23.26 170.934 23.7424 173.351 23.7424H174.318C176.832 23.7424 178.67 23.0992 179.927 21.9737V22.4561C179.927 23.3404 180.507 23.7424 181.474 23.7424C182.537 23.7424 183.021 23.26 183.021 22.4561V9.83386ZM190.381 23.662C189.471 23.662 188.925 23.26 188.925 22.3757V9.83386C188.925 9.02989 189.38 8.54752 190.381 8.54752C191.291 8.54752 191.837 8.9495 191.837 9.83386V10.3162C193.02 9.19069 194.749 8.54752 197.115 8.54752H198.025C200.3 8.54752 201.938 9.02989 203.03 9.99465C204.123 10.9594 204.669 12.4065 204.669 14.4164V22.4561C204.669 23.26 204.214 23.7424 203.212 23.7424C202.302 23.7424 201.756 23.3404 201.756 22.4561V14.4164C201.756 13.1301 201.483 12.2457 200.937 11.7634C200.391 11.281 199.39 11.0398 197.934 11.0398H197.024C195.659 11.0398 194.476 11.2006 193.475 11.4418C192.474 11.683 191.928 12.1653 191.746 12.7281V22.3757C191.746 23.26 191.291 23.662 190.381 23.662ZM210.215 29.5565C210.93 30.0567 212.004 30.3068 213.345 30.3068V30.3902H219.607C221.217 30.3902 222.38 30.0567 223.185 29.3064C223.99 28.6394 224.348 27.4723 224.348 25.9716V9.88142C224.348 8.96436 223.812 8.54752 222.917 8.54752C221.933 8.54752 221.486 9.04773 221.486 9.88142C221.038 9.46458 220.502 9.1311 219.876 8.88099C219.339 8.63089 218.623 8.54752 217.818 8.54752H215.135C212.898 8.54752 211.288 9.04773 210.215 10.0482C209.141 11.0486 208.604 12.5492 208.604 14.6335V18.2183C208.604 20.2192 209.141 21.7198 210.215 22.7202C211.288 23.7207 212.898 24.2209 215.135 24.2209H216.387C217.46 24.2209 218.444 24.0541 219.339 23.7207C220.233 23.3872 220.949 22.887 221.575 22.3034V25.8883C221.575 26.6386 221.486 27.1388 221.217 27.3889C220.949 27.639 220.412 27.7224 219.607 27.7224H213.435C212.898 27.7224 212.451 27.7224 212.183 27.639C211.914 27.5556 211.646 27.3889 211.556 27.1388C211.378 26.7219 211.199 26.4718 211.02 26.2217C210.841 25.9716 210.572 25.8883 210.125 25.8883C209.678 25.8883 209.32 25.9716 209.052 26.2217C208.783 26.4718 208.694 26.8053 208.783 27.2222C208.962 28.306 209.41 29.0563 210.215 29.5565ZM216.387 21.5531H215.135C213.703 21.5531 212.719 21.303 212.183 20.8861C211.646 20.3859 211.378 19.5522 211.378 18.2183V14.6335C211.378 13.2995 211.646 12.3825 212.183 11.8823C212.719 11.3821 213.703 11.132 215.135 11.132H217.818C219.07 11.132 219.965 11.2987 220.591 11.6322C221.217 11.8823 221.575 12.4659 221.575 13.2995V19.4689C221.575 20.1358 221.038 20.7194 220.054 21.0529C219.07 21.3863 217.818 21.5531 216.387 21.5531ZM238.361 23.7418C236.282 23.7418 234.724 23.2485 233.685 22.344C232.646 21.3573 232.213 19.9595 232.213 17.9039V10.9149H230.654C229.788 10.9149 229.269 10.5038 229.269 9.59936C229.269 8.69491 229.702 8.28379 230.654 8.28379H232.213V6.06376C232.213 5.24152 232.646 4.74818 233.598 4.74818C234.464 4.74818 234.984 5.1593 234.984 6.06376V8.28379H238.707C239.573 8.28379 240.092 8.69491 240.092 9.59936C240.092 10.5038 239.659 10.9149 238.707 10.9149H234.984V17.9039C234.984 19.2195 235.243 20.0417 235.763 20.5351C236.282 20.9462 237.148 21.1929 238.534 21.1929C238.967 21.1929 239.313 21.2751 239.486 21.5218C239.746 21.6862 239.833 22.0151 239.833 22.5084C239.746 23.3307 239.226 23.7418 238.361 23.7418ZM258.788 9.83386C258.788 8.9495 258.242 8.54752 257.332 8.54752C256.422 8.54752 255.967 9.02989 255.967 9.91425V19.5618C255.785 20.1246 255.239 20.607 254.237 20.8481C253.236 21.0893 252.053 21.2501 250.688 21.2501H249.778C248.322 21.2501 247.321 21.0089 246.775 20.5266C246.229 20.0442 245.956 19.1598 245.956 17.8735V9.83386C245.956 8.9495 245.41 8.54752 244.5 8.54752C243.499 8.54752 243.044 9.02989 243.044 9.83386V17.8735C243.044 19.8834 243.59 21.3305 244.682 22.2953C245.774 23.26 247.412 23.7424 249.687 23.7424H250.597C252.963 23.7424 254.692 23.0992 255.876 21.9737V22.4561C255.876 23.3404 256.331 23.7424 257.332 23.7424C258.333 23.7424 258.788 23.26 258.788 22.4561V9.83386Z" fill="white"/>
<rect x="93.2197" width="0.957534" height="25.0695" fill="white"/>
</svg>
