<svg width="177" height="20" viewBox="0 0 177 20" fill="none" xmlns="http://www.w3.org/2000/svg">
<path d="M59.5631 5.25778C59.6056 5.21883 59.648 5.10201 59.648 5.02412C59.648 4.94623 59.648 4.90729 59.6056 4.82941C59.5631 4.79046 59.5207 4.71258 59.4782 4.71258C59.4358 4.67363 59.3509 4.67363 59.3084 4.67363C59.266 4.67363 59.1811 4.63469 59.0962 4.63469H58.5868V5.91981H58.9264V5.45249H59.0537L59.4782 5.91981H59.9027L59.3933 5.37461C59.4782 5.33566 59.5207 5.29672 59.5631 5.25778ZM59.266 5.10201C59.266 5.14095 59.2235 5.14095 59.2235 5.14095C59.1811 5.17989 59.1811 5.17989 59.0962 5.17989C59.0537 5.17989 59.0113 5.17989 58.9688 5.17989H58.8839V4.79046H59.0113C59.0537 4.79046 59.0962 4.79046 59.1386 4.79046C59.1811 4.79046 59.1811 4.82941 59.2235 4.82941C59.266 4.86835 59.266 4.86835 59.266 4.86835C59.266 4.86835 59.3084 4.90729 59.3084 4.94623C59.3084 5.06306 59.3084 5.10201 59.266 5.10201ZM60.1149 4.40103C59.8602 4.16738 59.4782 4.0116 59.0962 4.0116C58.7141 4.0116 58.3745 4.12843 58.0774 4.40103C57.8227 4.63469 57.6529 4.94623 57.6529 5.33566C57.6529 5.68615 57.7803 5.99769 58.0774 6.27029C58.3321 6.50395 58.7141 6.65972 59.0962 6.65972C59.4782 6.65972 59.8178 6.54289 60.1149 6.27029C60.3696 6.03663 60.5394 5.68615 60.5394 5.33566C60.5394 4.98518 60.4121 4.67363 60.1149 4.40103ZM59.9027 6.03663C59.6905 6.23135 59.3933 6.34818 59.0962 6.34818C58.799 6.34818 58.5019 6.23135 58.2896 6.03663C58.0774 5.84192 57.95 5.56932 57.95 5.29672C57.95 5.02412 58.0774 4.75152 58.2896 4.55681C58.5019 4.36209 58.799 4.24526 59.0962 4.24526C59.3933 4.24526 59.6905 4.36209 59.9027 4.55681C60.1149 4.75152 60.2423 5.02412 60.2423 5.29672C60.2423 5.60826 60.1149 5.84192 59.9027 6.03663ZM49.1631 11.8781L46.5738 5.06306H41.9044L46.4464 15.305H51.7525L56.337 5.06306H51.7525L49.1631 11.8781ZM10.7469 6.93232C11.0016 6.81549 11.2563 6.69866 11.4685 6.62078C12.4873 5.95875 13.209 4.90729 13.209 3.62218C13.1665 1.63609 11.4685 0.0394312 9.3461 0.000488281H9.6008H0.0498047V15.344H7.86039C7.98774 15.344 8.15754 15.344 8.28488 15.344H10.1526H10.4073C12.9543 15.2661 14.6098 13.319 14.6098 11.0213C14.6098 8.95735 12.8269 7.36069 10.7469 6.93232ZM4.59183 2.84332H6.84162C7.09632 2.84332 7.35101 2.88226 7.6057 2.96015C8.11509 3.15486 8.49713 3.54429 8.62447 4.0116C8.66692 4.12843 8.66692 4.24526 8.66692 4.36209C8.66692 4.67363 8.62447 4.90729 8.53958 5.14095C8.41223 5.37461 8.28488 5.56932 8.03019 5.72509C7.94529 5.76403 7.8604 5.80298 7.7755 5.84192C7.47836 5.95875 7.18121 6.03663 6.88407 6.07558C6.58693 6.11452 6.45958 6.11452 5.73795 6.11452H4.59183V2.84332ZM8.87917 12.1507C8.45468 12.3843 7.98774 12.5401 7.47836 12.5401H4.59183V8.68475H7.01142C7.18121 8.68475 7.35101 8.68475 7.43591 8.68475C7.86039 8.68475 8.24243 8.72369 8.45468 8.84052C8.49713 8.87947 8.58203 8.87947 8.66692 8.91841C9.30366 9.22995 9.77059 9.85304 9.77059 10.593C9.77059 11.255 9.431 11.8002 8.87917 12.1507ZM24.2032 5.14095L20.2979 9.73621V0.000488281H15.8408V15.3829H20.2555L22.1657 13.1632L23.9485 15.3829H28.9999L24.755 10.1256L28.9999 5.14095H24.2032ZM40.4187 5.53038C39.5272 4.94623 37.3199 4.63469 35.3673 4.63469C34.5607 4.63469 33.7966 4.71258 32.9901 4.82941C32.0138 4.98518 30.8677 5.21883 30.1885 5.49143L31.462 7.86695C32.3109 7.39964 33.1175 7.16598 34.1787 7.01021C34.773 6.93232 35.4097 6.89338 35.9191 6.97126C36.3011 7.01021 36.6407 7.12704 36.9379 7.32175C37.2775 7.55541 37.4897 7.90589 37.4897 8.41215V8.49004C35.7493 8.52898 34.0089 8.60686 32.5232 9.03524C31.0375 9.42467 29.4669 10.6708 29.4669 12.2675C29.4669 14.0978 31.2073 15.5387 33.2024 15.5387C33.2448 15.5387 33.7542 15.5387 33.7542 15.5387C35.0277 15.4608 36.4709 15.0714 37.4897 14.4483L38.2113 15.344H41.777V8.21744C41.777 7.01021 41.3101 6.15346 40.4187 5.53038ZM37.4897 12.579C37.4897 12.579 36.5983 13.4747 35.4097 13.4747C35.3248 13.4747 35.2824 13.4747 35.1975 13.4747C35.155 13.4747 35.155 13.4747 35.1126 13.4747C35.0701 13.4747 35.0701 13.4747 35.0701 13.4747C34.3909 13.3579 33.8815 12.8127 33.8815 12.1117C33.8815 11.4497 34.3909 10.8656 35.0701 10.7487H35.1126C35.7068 10.6319 37.5322 10.4761 37.5322 10.4761L37.4897 12.579Z" fill="white"/>
<path fill-rule="evenodd" clip-rule="evenodd" d="M101.295 15.57C100.672 15.57 100.299 15.2957 100.299 14.6922V2.12831C100.299 1.57967 100.61 1.25049 101.295 1.25049C101.917 1.25049 102.29 1.52481 102.29 2.12831V6.46257C103.099 5.69447 104.282 5.25556 105.899 5.25556H106.522C108.077 5.25556 109.197 5.58474 109.944 6.24311C110.691 6.90148 111.064 7.88903 111.064 9.26063V14.747C111.064 15.2957 110.753 15.6249 110.069 15.6249C109.384 15.6249 109.073 15.3505 109.073 14.747V9.26063C109.073 8.38281 108.886 7.7793 108.513 7.45012C108.14 7.12094 107.455 6.95634 106.459 6.95634H105.837C104.904 6.95634 104.095 7.06607 103.41 7.23066C102.726 7.39526 102.353 7.72444 102.228 8.10849V14.6922C102.228 15.2957 101.917 15.57 101.295 15.57ZM88.6608 15.4624L88.7156 15.461C88.7285 15.4607 88.7392 15.4606 88.7478 15.4606H91.4774C92.9375 15.4606 94.0801 15.1867 94.8419 14.6937C95.6037 14.2007 96.0481 13.379 96.175 12.2286C96.2385 11.9548 96.175 11.7356 95.9846 11.5713C95.7941 11.407 95.5402 11.3522 95.2228 11.3522C94.6515 11.3522 94.2706 11.6809 94.2071 12.2286C94.1436 12.8312 93.8897 13.2694 93.4453 13.4885C93.0644 13.7077 92.3662 13.8172 91.4774 13.8172H88.6843C87.859 13.8172 87.2242 13.7077 86.7164 13.5433C86.272 13.379 85.8911 13.1051 85.7007 12.6669C85.5102 12.2834 85.3833 11.6809 85.3833 10.9687V6.31257C85.3833 5.60045 85.5102 5.05266 85.7007 4.61444C85.8911 4.17621 86.272 3.90232 86.7164 3.73798C87.2242 3.57365 87.859 3.51887 88.6843 3.51887H91.5409C92.4296 3.51887 93.0645 3.62842 93.5088 3.84754C93.9532 4.06665 94.2071 4.50488 94.2706 5.10744C94.3341 5.71001 94.7149 5.9839 95.2863 5.9839C95.6037 5.9839 95.8576 5.92912 96.0481 5.76478C96.2385 5.60045 96.302 5.38134 96.2385 5.10744C96.1115 4.01187 95.6672 3.13542 94.9054 2.64241C94.1436 2.14941 93.001 1.87551 91.5409 1.87551H88.6843C86.9068 1.87551 85.5737 2.20418 84.7485 2.97108C83.9232 3.73798 83.4788 4.88833 83.4788 6.42213V11.0783C83.4788 12.6669 83.9232 13.7624 84.7485 14.5293C86.0673 15.5308 88.1599 15.4756 88.6608 15.4624ZM71.9721 11.7777V11.4036H80.4205C81.1354 11.4036 81.4603 11.0829 81.4603 10.5485V9.5331C81.4603 8.19703 81.0704 7.23506 80.2905 6.59374C79.5107 5.95243 78.3409 5.63177 76.7162 5.63177H74.7666C73.1419 5.57833 71.9721 5.89899 71.1923 6.5403C70.4124 7.18161 70.0225 8.14359 70.0225 9.47966V11.7777C70.0225 13.0603 70.4124 14.0223 71.1923 14.6636C71.9721 15.3049 73.1419 15.6256 74.7666 15.6256H76.7162C78.081 15.6256 79.1208 15.4653 79.9006 15.0377C80.6805 14.6636 81.1354 14.0223 81.3303 13.2207C81.3953 12.9534 81.3303 12.7397 81.1354 12.5793C80.9404 12.419 80.6805 12.3656 80.3555 12.3656C80.0306 12.3656 79.7706 12.4725 79.6407 12.5793C79.4457 12.7397 79.3157 12.9 79.2507 13.1672C79.1208 13.4879 78.8608 13.7016 78.4709 13.8085C78.081 13.9689 77.4961 14.0223 76.6512 14.0223H74.7016C73.6618 14.0223 72.9469 13.862 72.557 13.5413C72.1671 13.2207 71.9721 12.6328 71.9721 11.7777ZM72.492 7.6626C72.8819 7.39539 73.5968 7.23506 74.6366 7.23506V7.18161H76.5213C77.5611 7.18161 78.2759 7.34194 78.6658 7.6626C79.0558 7.98326 79.2507 8.57113 79.2507 9.42621V9.58654H71.9071V9.42621C71.9071 8.57113 72.1021 7.98326 72.492 7.6626ZM125.193 6.47255C125.193 5.89056 124.797 5.62603 124.135 5.62603C123.408 5.62603 123.078 5.94347 123.144 6.52546V12.8744C123.011 13.2447 122.615 13.5622 121.888 13.7209C121.16 13.8796 120.301 13.9854 119.309 13.9854H118.648C117.59 13.9854 116.863 13.8267 116.466 13.5093C116.069 13.1918 115.871 12.6098 115.871 11.7633V6.47255C115.871 5.89056 115.474 5.62603 114.813 5.62603C114.086 5.62603 113.755 5.94347 113.755 6.47255V11.7633C113.755 13.086 114.152 14.0384 114.945 14.6732C115.739 15.3081 116.929 15.6256 118.582 15.6256H119.243C120.962 15.6256 122.218 15.2023 123.078 14.4616V14.7791C123.078 15.361 123.474 15.6256 124.135 15.6256C124.863 15.6256 125.193 15.3081 125.193 14.7791V6.47255ZM130.226 15.5727C129.604 15.5727 129.23 15.3081 129.23 14.7262V6.47255C129.23 5.94347 129.542 5.62603 130.226 5.62603C130.848 5.62603 131.222 5.89056 131.222 6.47255V6.79C132.031 6.04929 133.213 5.62603 134.831 5.62603H135.453C137.009 5.62603 138.129 5.94347 138.875 6.57836C139.622 7.21326 139.995 8.1656 139.995 9.48829V14.7791C139.995 15.3081 139.684 15.6256 139 15.6256C138.378 15.6256 138.004 15.361 138.004 14.7791V9.48829C138.004 8.64177 137.818 8.05978 137.444 7.74234C137.071 7.42489 136.386 7.26616 135.391 7.26616H134.769C133.835 7.26616 133.026 7.37198 132.342 7.5307C131.657 7.68943 131.284 8.00687 131.159 8.37723V14.7262C131.159 15.3081 130.848 15.5727 130.226 15.5727ZM143.788 19.4518C144.277 19.7809 145.011 19.9455 145.928 19.9455V20.0004H150.21C151.311 20.0004 152.106 19.7809 152.656 19.2872C153.207 18.8482 153.452 18.0802 153.452 17.0926V6.50385C153.452 5.90035 153.085 5.62603 152.473 5.62603C151.8 5.62603 151.494 5.95521 151.494 6.50385C151.189 6.22953 150.822 6.01007 150.393 5.84548C150.026 5.68089 149.537 5.62603 148.987 5.62603H147.152C145.623 5.62603 144.522 5.95521 143.788 6.61358C143.054 7.27195 142.687 8.2595 142.687 9.6311V11.9902C142.687 13.307 143.054 14.2945 143.788 14.9529C144.522 15.6113 145.623 15.9405 147.152 15.9405H148.008C148.742 15.9405 149.415 15.8307 150.026 15.6113C150.638 15.3918 151.127 15.0626 151.556 14.6786V17.0377C151.556 17.5315 151.494 17.8607 151.311 18.0253C151.127 18.1899 150.76 18.2447 150.21 18.2447H145.99C145.623 18.2447 145.317 18.2447 145.133 18.1899C144.95 18.135 144.766 18.0253 144.705 17.8607C144.583 17.5864 144.46 17.4218 144.338 17.2572C144.216 17.0926 144.032 17.0377 143.726 17.0377C143.421 17.0377 143.176 17.0926 142.992 17.2572C142.809 17.4218 142.748 17.6412 142.809 17.9156C142.931 18.6288 143.237 19.1226 143.788 19.4518ZM148.008 14.1848H147.152C146.173 14.1848 145.5 14.0202 145.133 13.7459C144.766 13.4167 144.583 12.8681 144.583 11.9902V9.6311C144.583 8.75327 144.766 8.14977 145.133 7.82059C145.5 7.4914 146.173 7.32681 147.152 7.32681H148.987C149.843 7.32681 150.455 7.43654 150.883 7.65599C151.311 7.82059 151.556 8.20463 151.556 8.75327V12.8132C151.556 13.2521 151.189 13.6362 150.516 13.8556C149.843 14.0751 148.987 14.1848 148.008 14.1848ZM163.033 15.6255C161.612 15.6255 160.546 15.3008 159.835 14.7056C159.125 14.0563 158.829 13.1364 158.829 11.7837V7.18429H157.763C157.171 7.18429 156.816 6.91374 156.816 6.31853C156.816 5.72331 157.112 5.45276 157.763 5.45276H158.829V3.99179C158.829 3.45069 159.125 3.12603 159.776 3.12603C160.368 3.12603 160.723 3.39658 160.723 3.99179V5.45276H163.269C163.861 5.45276 164.217 5.72331 164.217 6.31853C164.217 6.91374 163.921 7.18429 163.269 7.18429H160.723V11.7837C160.723 12.6494 160.901 13.1905 161.256 13.5152C161.612 13.7857 162.204 13.9481 163.151 13.9481C163.447 13.9481 163.684 14.0022 163.802 14.1645C163.98 14.2727 164.039 14.4892 164.039 14.8138C163.98 15.3549 163.625 15.6255 163.033 15.6255ZM177 6.47255C177 5.89056 176.627 5.62603 176.005 5.62603C175.382 5.62603 175.071 5.94347 175.071 6.52546V12.8744C174.947 13.2447 174.573 13.5622 173.889 13.7209C173.204 13.8796 172.395 13.9854 171.462 13.9854H170.84C169.844 13.9854 169.16 13.8267 168.786 13.5093C168.413 13.1918 168.226 12.6098 168.226 11.7633V6.47255C168.226 5.89056 167.853 5.62603 167.231 5.62603C166.546 5.62603 166.235 5.94347 166.235 6.47255V11.7633C166.235 13.086 166.608 14.0384 167.355 14.6732C168.102 15.3081 169.222 15.6256 170.778 15.6256H171.4C173.018 15.6256 174.2 15.2023 175.009 14.4616V14.7791C175.009 15.361 175.32 15.6256 176.005 15.6256C176.689 15.6256 177 15.3081 177 14.7791V6.47255Z" fill="white"/>
<rect x="63.7899" width="0.654728" height="16.4979" fill="white"/>
</svg>
