<svg width="70" height="71" viewBox="0 0 70 71" fill="none" xmlns="http://www.w3.org/2000/svg">
<path d="M70 35.4603C70 54.7939 54.33 70.467 35 70.467C15.67 70.467 0 54.7939 0 35.4603C0 16.1266 15.67 0.453613 35 0.453613C54.33 0.453613 70 16.1266 70 35.4603Z" fill="#007CBA"/>
<path d="M22.7715 39.7785C22.7715 32.6569 24.2727 27.3566 27.275 23.8779C30.2937 20.3991 34.8055 18.6597 40.8102 18.6597C42.8609 18.6597 44.4687 18.7827 45.6336 19.0289V25.1086C44.1734 24.7804 42.7297 24.6163 41.3023 24.6163C38.6937 24.6163 36.5609 25.0101 34.9039 25.7977C33.2633 26.5854 32.0328 27.7505 31.2125 29.2929C30.3922 30.8354 29.9082 33.0261 29.7605 35.8649H30.0805C31.7047 33.0753 34.3051 31.6805 37.8816 31.6805C41.0973 31.6805 43.6156 32.6897 45.4367 34.708C47.2578 36.7264 48.1684 39.516 48.1684 43.0768C48.1684 46.9166 47.0855 49.9606 44.9199 52.2086C42.7543 54.4403 39.752 55.5562 35.9129 55.5562C33.2551 55.5562 30.9336 54.9408 28.9484 53.7101C26.9797 52.4794 25.4539 50.6826 24.3711 48.3196C23.3047 45.9567 22.7715 43.1096 22.7715 39.7785ZM35.7652 49.4765C37.3895 49.4765 38.6363 48.935 39.5059 47.852C40.3754 46.7525 40.8102 45.1936 40.8102 43.1753C40.8102 41.4195 40.4 40.0411 39.5797 39.0401C38.7758 38.0227 37.5535 37.514 35.9129 37.514C34.3707 37.514 33.05 38.0145 31.9508 39.0155C30.868 40.0165 30.3266 41.1815 30.3266 42.5107C30.3266 44.4634 30.8352 46.1126 31.8523 47.4581C32.8859 48.8037 34.1902 49.4765 35.7652 49.4765Z" fill="white"/>
</svg>
