<svg width="70" height="71" viewBox="0 0 70 71" fill="none" xmlns="http://www.w3.org/2000/svg">
<path d="M70 35.0264C70 54.3601 54.33 70.0331 35 70.0331C15.67 70.0331 0 54.3601 0 35.0264C0 15.6928 15.67 0.0197754 35 0.0197754C54.33 0.0197754 70 15.6928 70 35.0264Z" fill="#007CBA"/>
<path d="M48.1691 53.23H23.0184V47.9379L32.05 38.8061C34.7242 36.0657 36.4715 34.1705 37.2918 33.1203C38.1121 32.0537 38.7027 31.0691 39.0637 30.1666C39.4246 29.2641 39.6051 28.3287 39.6051 27.3606C39.6051 25.9165 39.2031 24.8417 38.3992 24.1361C37.6117 23.4305 36.5535 23.0777 35.2246 23.0777C33.8301 23.0777 32.4766 23.3977 31.1641 24.0377C29.8516 24.6776 28.4816 25.5884 27.0543 26.7698L22.9199 21.8716C24.6918 20.362 26.1602 19.2954 27.325 18.6718C28.4898 18.0482 29.7613 17.5724 31.1395 17.2442C32.5176 16.8996 34.0598 16.7273 35.766 16.7273C38.0137 16.7273 39.9988 17.1375 41.7215 17.958C43.4441 18.7785 44.7812 19.9271 45.7328 21.404C46.6844 22.8808 47.1602 24.571 47.1602 26.4745C47.1602 28.1318 46.8648 29.6907 46.2742 31.1511C45.7 32.5952 44.7977 34.0802 43.5672 35.6063C42.3531 37.1324 40.2039 39.3066 37.1195 42.129L32.493 46.4857V46.8303H48.1691V53.23Z" fill="white"/>
</svg>
