<svg width="70" height="71" viewBox="0 0 70 71" fill="none" xmlns="http://www.w3.org/2000/svg">
<path d="M70 35.4603C70 54.7939 54.33 70.467 35 70.467C15.67 70.467 0 54.7939 0 35.4603C0 16.1266 15.67 0.453613 35 0.453613C54.33 0.453613 70 16.1266 70 35.4603Z" fill="#007CBA"/>
<path d="M36.1102 32.0744C39.5883 32.0744 42.3527 33.0507 44.4035 35.0034C46.4707 36.9561 47.5043 39.6309 47.5043 43.0276C47.5043 47.0479 46.2656 50.1411 43.7883 52.3071C41.3109 54.4732 37.7672 55.5562 33.157 55.5562C29.1539 55.5562 25.9219 54.908 23.4609 53.6117V47.0397C24.757 47.7289 26.2664 48.295 27.9891 48.7381C29.7117 49.1647 31.3441 49.378 32.8863 49.378C37.5293 49.378 39.8508 47.4746 39.8508 43.6676C39.8508 40.0411 37.4473 38.2279 32.6402 38.2279C31.7707 38.2279 30.8109 38.3181 29.7609 38.4986C28.7109 38.6627 27.8578 38.8432 27.2016 39.0401L24.1746 37.4156L25.5281 19.0781H45.0434V25.527H32.1973L31.5328 32.5912L32.3941 32.4189C33.3949 32.1892 34.6336 32.0744 36.1102 32.0744Z" fill="white"/>
</svg>
