<svg width="70" height="71" viewBox="0 0 70 71" fill="none" xmlns="http://www.w3.org/2000/svg">
<path d="M70 35.0264C70 54.3601 54.33 70.0331 35 70.0331C15.67 70.0331 0 54.3601 0 35.0264C0 15.6928 15.67 0.0197754 35 0.0197754C54.33 0.0197754 70 15.6928 70 35.0264Z" fill="#007CBA"/>
<path d="M46.7664 26.6933C46.7664 28.9413 46.0855 30.853 44.7238 32.4283C43.3621 34.0036 41.4508 35.0867 38.9898 35.6774V35.8251C41.8937 36.1861 44.0922 37.0722 45.5852 38.4834C47.0781 39.8782 47.8246 41.7653 47.8246 44.1446C47.8246 47.607 46.5695 50.3064 44.0594 52.2427C41.5492 54.1626 37.9645 55.1225 33.3051 55.1225C29.4004 55.1225 25.9387 54.4743 22.9199 53.178V46.7045C24.3145 47.4101 25.8484 47.9844 27.5219 48.4275C29.1953 48.8705 30.8523 49.0921 32.493 49.0921C35.0031 49.0921 36.857 48.6654 38.0547 47.8121C39.2523 46.9588 39.8512 45.5887 39.8512 43.7016C39.8512 42.0114 39.1621 40.8135 37.784 40.1079C36.4059 39.4023 34.2074 39.0495 31.1887 39.0495H28.457V33.216H31.2379C34.027 33.216 36.0613 32.855 37.341 32.133C38.6371 31.3945 39.2852 30.1392 39.2852 28.367C39.2852 25.6431 37.5789 24.2811 34.1664 24.2811C32.9852 24.2811 31.7793 24.478 30.5488 24.8718C29.3348 25.2656 27.9812 25.9466 26.4883 26.9148L22.9691 21.672C26.2504 19.309 30.1633 18.1276 34.7078 18.1276C38.432 18.1276 41.3687 18.8824 43.518 20.3921C45.6836 21.9017 46.7664 24.0021 46.7664 26.6933Z" fill="white"/>
</svg>
