<svg width="70" height="71" viewBox="0 0 70 71" fill="none" xmlns="http://www.w3.org/2000/svg">
<path d="M70 35.4603C70 54.7939 54.33 70.467 35 70.467C15.67 70.467 0 54.7939 0 35.4603C0 16.1266 15.67 0.453613 35 0.453613C54.33 0.453613 70 16.1266 70 35.4603Z" fill="#007CBA"/>
<path d="M48.9809 47.6058H44.6496V55.0639H37.2176V47.6058H21.8613V42.3138L37.6359 19.0781H44.6496V41.6985H48.9809V47.6058ZM37.2176 41.6985V35.5942C37.2176 34.5768 37.2586 33.0999 37.3406 31.1636C37.4227 29.2273 37.4883 28.1033 37.5375 27.7915H37.3406C36.7336 29.1371 36.0035 30.4498 35.1504 31.7298L28.5551 41.6985H37.2176Z" fill="white"/>
</svg>
