<svg width="138" height="139" viewBox="0 0 138 139" fill="none" xmlns="http://www.w3.org/2000/svg">
<g clip-path="url(#clip0_679_5208)">
<path d="M127.701 86.6656C128.947 58.1858 105.082 34.0058 74.397 32.6582C43.7118 31.3107 17.8264 53.3058 16.5802 81.7856C15.3341 110.266 39.1991 134.445 69.8843 135.793C100.57 137.141 126.455 115.146 127.701 86.6656Z" fill="#6DC7EE"/>
<path opacity="0.28" d="M69.1353 121.808C93.2366 121.808 112.775 103.317 112.775 80.5067C112.775 57.6969 93.2366 39.2058 69.1353 39.2058C45.034 39.2058 25.496 57.6969 25.496 80.5067C25.496 103.317 45.034 121.808 69.1353 121.808Z" fill="white"/>
<g opacity="0.68">
<g style="mix-blend-mode:soft-light">
<path d="M86.3526 84.4803C86.3393 93.5841 85.7159 102.707 84.1147 111.681C83.7093 113.923 83.2394 116.154 82.6794 118.364C82.1175 120.573 81.469 122.763 80.6753 124.904C79.8748 127.04 78.9453 129.145 77.6851 131.068C77.0499 132.023 76.33 132.938 75.4409 133.691C74.9966 134.064 74.5085 134.396 73.9721 134.639C73.4363 134.881 72.8513 135.033 72.2569 135.044C71.6634 135.061 71.0695 134.945 70.5234 134.724C69.9752 134.506 69.4753 134.189 69.0202 133.828C68.1099 133.099 67.3738 132.194 66.7277 131.247C65.4449 129.336 64.5031 127.236 63.6942 125.104C62.8902 122.966 62.2353 120.778 61.6685 118.57C61.1031 116.362 60.6283 114.132 60.2194 111.89C59.4036 107.407 58.847 102.881 58.4716 98.3416C58.0986 93.802 57.9122 89.2481 57.889 84.6932C57.8777 82.4163 57.9397 80.1394 58.0209 77.8644C58.106 75.5889 58.231 73.3154 58.3983 71.0444C58.7344 66.5033 59.2368 61.9726 59.9832 57.4794C60.3576 55.233 60.7946 52.9965 61.3196 50.7792C61.8461 48.5629 62.4582 46.3643 63.2174 44.2136C63.5988 43.1389 64.016 42.0761 64.4918 41.038C64.9672 40.0003 65.4986 38.9848 66.1235 38.0251C66.7498 37.0697 67.4697 36.1573 68.3662 35.4272C68.8145 35.0654 69.308 34.7504 69.8493 34.5369C70.3881 34.321 70.9726 34.2116 71.5542 34.2338C72.1363 34.2505 72.7095 34.3955 73.239 34.6291C73.7689 34.8638 74.256 35.1827 74.7028 35.5445C75.5969 36.2726 76.3374 37.1629 76.9938 38.0975C78.2992 39.9801 79.2833 42.0559 80.136 44.1682C80.9824 46.2864 81.6811 48.4594 82.2897 50.6545C82.8959 52.8511 83.4096 55.0718 83.854 57.3059C85.6125 66.2495 86.327 75.373 86.3531 84.4788L86.3526 84.4803ZM85.6799 84.4803C85.6883 79.9441 85.5161 75.4065 85.1397 70.8862C84.7687 66.3658 84.2068 61.8588 83.3693 57.401C82.951 55.1724 82.4644 52.957 81.8848 50.7654C81.3032 48.5752 80.632 46.4077 79.8152 44.2959C78.992 42.19 78.0379 40.1216 76.7714 38.2523C76.1347 37.3246 75.4168 36.4432 74.5552 35.7259C74.1247 35.3695 73.6567 35.0565 73.1509 34.8258C72.6456 34.5981 72.1009 34.4487 71.5473 34.4339C70.9938 34.4162 70.4412 34.5281 69.9295 34.7391C69.4158 34.9481 68.9444 35.2552 68.5143 35.6106C67.6542 36.3264 66.9575 37.227 66.3518 38.1739C65.7471 39.1248 65.2324 40.1339 64.7733 41.1661C64.3137 42.1989 63.9112 43.2577 63.5442 44.3284C62.814 46.4718 62.2289 48.6644 61.729 50.8753C61.2305 53.0867 60.8197 55.3183 60.4713 57.5592C59.7765 62.0421 59.3258 66.5615 59.0399 71.0893C58.7516 75.6175 58.6517 80.1566 58.6601 84.6932C58.6483 89.2294 58.7993 93.7665 59.1359 98.2903C59.4749 102.813 59.9945 107.325 60.7719 111.792C61.1616 114.025 61.6168 116.247 62.162 118.446C62.7082 120.644 63.3419 122.822 64.1218 124.944C64.9061 127.061 65.8233 129.144 67.0628 131.02C67.6867 131.95 68.3962 132.833 69.2563 133.532C69.6864 133.879 70.1538 134.18 70.6597 134.385C71.164 134.591 71.7048 134.706 72.2465 134.687C72.7883 134.674 73.3221 134.53 73.8176 134.302C74.3141 134.073 74.7717 133.758 75.1924 133.398C76.0338 132.674 76.7286 131.781 77.3412 130.843C78.559 128.952 79.4629 126.864 80.2384 124.744C81.0079 122.617 81.6348 120.438 82.1751 118.238C82.7144 116.038 83.1636 113.815 83.5494 111.581C84.3214 107.113 84.8346 102.601 85.1761 98.0783C85.522 93.555 85.6814 89.0174 85.6795 84.4803H85.6799Z" fill="white"/>
</g>
<g style="mix-blend-mode:soft-light">
<path d="M109.277 84.4804C109.245 90.343 108.493 96.2081 106.927 101.862C105.333 107.503 102.93 112.929 99.6679 117.801C98.0368 120.234 96.1886 122.524 94.124 124.603C92.0598 126.68 89.7772 128.544 87.2993 130.107C84.8194 131.663 82.1406 132.909 79.3365 133.754C76.5342 134.602 73.6085 135.043 70.6803 135.046C67.7521 135.046 64.8259 134.607 62.0217 133.762C59.2161 132.919 56.5354 131.675 54.0525 130.12C51.5721 128.559 49.2861 126.696 47.2185 124.62C45.1499 122.543 43.2983 120.253 41.6637 117.82C38.395 112.947 35.9875 107.518 34.3858 101.875C33.5976 99.048 33.012 96.1658 32.6238 93.2573C32.238 90.3484 32.0437 87.4149 32.0304 84.4808C32.0456 81.5463 32.2415 78.6132 32.6292 75.7048C33.0189 72.7969 33.6069 69.9151 34.3971 67.0895C36.0027 61.4482 38.4137 56.0233 41.6849 51.1559C43.3205 48.7246 45.1725 46.4373 47.2406 44.363C49.3082 42.2897 51.5923 40.4288 54.0722 38.873C56.5541 37.3222 59.2343 36.0873 62.035 35.2449C64.8338 34.399 67.7556 33.9573 70.6798 33.9543C73.6041 33.9598 76.5249 34.4034 79.3227 35.2518C82.1219 36.0967 84.7997 37.334 87.2791 38.8863C89.7566 40.444 92.0377 42.3064 94.1014 44.3808C96.166 46.4561 98.0141 48.7439 99.6463 51.1751C102.911 56.042 105.317 61.4645 106.915 67.1028C108.485 72.7545 109.241 78.6187 109.276 84.4813L109.277 84.4804ZM108.506 84.4804C108.497 78.6842 107.776 72.8822 106.25 67.2872C104.715 61.7006 102.404 56.3077 99.2221 51.4576C97.6318 49.0352 95.826 46.7514 93.8032 44.676C91.7799 42.6037 89.5445 40.7285 87.1 39.1703C84.6525 37.6204 82.0098 36.3733 79.2385 35.5293C76.4688 34.6849 73.577 34.2412 70.6798 34.2314C67.7827 34.2437 64.8914 34.6898 62.1231 35.5362C59.3534 36.3821 56.7125 37.6323 54.268 39.1836C51.8265 40.7438 49.5946 42.6204 47.5747 44.6938C45.5553 46.7706 43.753 49.0544 42.1666 51.4768C38.9914 56.3264 36.6852 61.7169 35.1579 67.3005C34.3971 70.0955 33.8461 72.9453 33.4726 75.8167C33.0981 78.6882 32.9136 81.5843 32.9072 84.4808C32.9156 87.3774 33.1021 90.273 33.478 93.144C33.8534 96.0144 34.4065 98.8637 35.1692 101.658C36.7004 107.239 39.0106 112.626 42.1878 117.471C43.7746 119.891 45.5775 122.172 47.5964 124.246C49.6162 126.317 51.8467 128.191 54.2877 129.747C56.7317 131.294 59.3716 132.535 62.1364 133.38C64.8997 134.228 67.7861 134.676 70.6794 134.691C73.5726 134.679 76.4599 134.233 79.2248 133.388C81.9911 132.545 84.6334 131.306 87.0798 129.76C89.5238 128.207 91.7572 126.333 93.7805 124.264C95.8029 122.192 97.6092 119.911 99.2 117.49C102.384 112.645 104.699 107.256 106.238 101.672C107.768 96.0785 108.492 90.2775 108.505 84.4813L108.506 84.4804Z" fill="white"/>
</g>
<g style="mix-blend-mode:soft-light">
<path d="M25.6411 64.471L37.2323 64.3774L48.8235 64.3241L72.0054 64.2812L95.1873 64.3286L106.779 64.3867L118.37 64.4878C118.388 64.4878 118.404 64.5035 118.404 64.5223C118.404 64.541 118.388 64.5558 118.37 64.5563L106.779 64.6573L95.1873 64.7155L72.0054 64.7628L48.8235 64.7199L37.2323 64.6667L25.6411 64.573C25.6131 64.573 25.5905 64.5499 25.591 64.5218C25.591 64.4942 25.6136 64.4715 25.6411 64.4715V64.471Z" fill="white"/>
</g>
<g style="mix-blend-mode:soft-light">
<path d="M39.0878 45.0215C41.831 44.9782 44.5741 44.9594 47.3173 44.9279L55.5468 44.8747C58.29 44.852 61.0332 44.8545 63.7763 44.8476L72.0059 44.8318L88.4644 44.8791L96.6939 44.9373C99.4371 44.9718 102.18 44.992 104.923 45.0383C104.942 45.0383 104.957 45.0541 104.957 45.0728C104.957 45.091 104.942 45.1058 104.923 45.1063C102.18 45.1531 99.4371 45.1733 96.6939 45.2073L88.4644 45.2655L72.0059 45.3128L63.7763 45.297C61.0332 45.2901 58.29 45.2926 55.5468 45.2699L47.3173 45.2167C44.5741 45.1852 41.831 45.1664 39.0878 45.1231C39.0597 45.1231 39.0376 45.0994 39.0381 45.0713C39.0381 45.0437 39.0607 45.022 39.0878 45.0215Z" fill="white"/>
</g>
<g style="mix-blend-mode:soft-light">
<path d="M21.6132 83.9207L34.2111 83.8271L46.809 83.7738L72.0049 83.731L97.2007 83.7783L109.799 83.8364L122.397 83.9375C122.415 83.9375 122.431 83.9532 122.431 83.972C122.431 83.9907 122.415 84.0055 122.397 84.006L109.799 84.107L97.2007 84.1652L72.0049 84.2125L46.809 84.1696L34.2111 84.1164L21.6132 84.0227C21.5851 84.0227 21.5625 83.9996 21.563 83.9715C21.563 83.9439 21.5856 83.9212 21.6132 83.9212V83.9207Z" fill="white"/>
</g>
<g style="mix-blend-mode:soft-light">
<path d="M25.6411 103.37L37.2323 103.277L48.8235 103.223L72.0054 103.18L95.1873 103.228L106.779 103.286L118.37 103.387C118.388 103.387 118.404 103.403 118.404 103.421C118.404 103.44 118.388 103.455 118.37 103.455L106.779 103.556L95.1873 103.615L72.0054 103.662L48.8235 103.619L37.2323 103.566L25.6411 103.472C25.6131 103.472 25.5905 103.449 25.591 103.421C25.591 103.393 25.6136 103.371 25.6411 103.371V103.37Z" fill="white"/>
</g>
<g style="mix-blend-mode:soft-light">
<path d="M106.581 123.049H40.7465C40.6481 123.049 40.5688 122.969 40.5688 122.871C40.5688 122.773 40.6481 122.693 40.7465 122.693H106.581C106.679 122.693 106.758 122.773 106.758 122.871C106.758 122.969 106.679 123.049 106.581 123.049H106.581Z" fill="white"/>
</g>
</g>
<path d="M30.878 37.3721L27.323 40.6202C27.0464 40.873 26.9116 41.2457 26.9628 41.6169L27.6182 46.3921C27.7466 47.3273 26.7488 48.0041 25.93 47.5372L21.7481 45.1538C21.4228 44.9685 21.0272 44.9552 20.6907 45.1188L16.3596 47.2193C15.5113 47.6304 14.5607 46.889 14.7506 45.9642L15.721 41.2428C15.7962 40.8755 15.6865 40.495 15.4277 40.2243L12.0955 36.747C11.4431 36.0663 11.853 34.931 12.7893 34.8265L17.5711 34.2921C17.9431 34.2507 18.2708 34.0284 18.4474 33.6981L20.7187 29.4489C21.1635 28.6168 22.3676 28.6567 22.7563 29.5169L24.7412 33.9081C24.8957 34.2498 25.2077 34.4933 25.5762 34.5593L30.3122 35.4107C31.2397 35.5773 31.5738 36.7372 30.8775 37.3731L30.878 37.3721Z" fill="#FBB03B"/>
<path opacity="0.77" d="M20.9292 43.9186C20.6793 43.9477 20.4377 44.0177 20.2113 44.1276L17.383 45.499C17.0859 45.6429 16.7394 45.6064 16.4787 45.4028C16.2184 45.1997 16.0978 44.8724 16.1642 44.5481L16.798 41.4647C16.9466 40.7425 16.7306 39.9932 16.2208 39.4613L14.0445 37.1903C13.8157 36.9517 13.7439 36.6101 13.856 36.299C13.9687 35.988 14.2423 35.7721 14.5705 35.7351L16.1662 35.5566L16.1933 35.7997L14.5976 35.9781C14.3589 36.0047 14.168 36.1571 14.0858 36.3823C14.0041 36.6086 14.0548 36.8472 14.2211 37.0207L16.3975 39.2917C16.9628 39.8823 17.2025 40.7129 17.0376 41.514L16.4039 44.5974C16.3557 44.833 16.4393 45.0617 16.6292 45.2096C16.8187 45.3575 17.0608 45.3831 17.2768 45.2781L20.1051 43.9067C20.356 43.785 20.6242 43.7066 20.9017 43.6746L20.9297 43.9176L20.9292 43.9186Z" fill="white"/>
<path opacity="0.77" d="M26.2345 45.3583C26.1705 45.5008 26.0672 45.6255 25.9314 45.7177C25.6578 45.903 25.3099 45.9168 25.0226 45.7532L22.9329 44.5622L23.0539 44.3493L25.1436 45.5402C25.3523 45.659 25.5953 45.6497 25.7946 45.5151C25.9934 45.38 26.0928 45.1572 26.0598 44.9191L25.6317 41.8007C25.5215 41.0002 25.8207 40.171 26.4175 39.6258L28.739 37.5046C28.9162 37.3425 28.9821 37.1073 28.9162 36.8766C28.8497 36.6454 28.6687 36.4823 28.4325 36.4399L25.3395 35.8838C24.5355 35.7394 23.855 35.208 23.5184 34.4631L22.2214 31.5956C22.1225 31.3763 21.9197 31.2407 21.6801 31.2328C21.44 31.2249 21.2289 31.3467 21.1157 31.5587L19.6322 34.3345C19.4787 34.6214 19.274 34.8718 19.0225 35.0788L18.8676 34.89C19.0939 34.7032 19.2784 34.4774 19.4167 34.2186L20.9002 31.4433C21.0562 31.1515 21.3578 30.977 21.688 30.9883C22.0181 30.9992 22.308 31.1934 22.4438 31.4946L23.7403 34.3626C24.0439 35.0345 24.658 35.5131 25.3823 35.6433L28.4753 36.1993C28.8 36.2575 29.0594 36.4911 29.1509 36.8091C29.2424 37.127 29.1474 37.4627 28.9039 37.686L26.5819 39.8072C26.0436 40.2987 25.774 41.046 25.8738 41.7682L26.3019 44.8866C26.3246 45.0517 26.2999 45.2144 26.2345 45.3593V45.3583Z" fill="white"/>
<path opacity="0.77" d="M17.1121 35.4513L16.1664 35.5569L16.1934 35.7998L17.1392 35.6942L17.1121 35.4513Z" fill="white"/>
<path d="M45.4171 22.2513L41.7774 25.4042C41.4945 25.6492 41.3498 26.0184 41.3912 26.3911L41.9206 31.1821C42.0244 32.1202 41.0089 32.7704 40.2024 32.2819L36.0849 29.7885C35.7646 29.5948 35.3695 29.5711 35.0285 29.7254L30.6439 31.71C29.7852 32.099 28.8543 31.3324 29.0688 30.4131L30.1636 25.7192C30.2487 25.3544 30.1488 24.9704 29.8969 24.6934L26.6578 21.1288C26.0235 20.4308 26.4634 19.3069 27.4022 19.227L32.1963 18.8194C32.5692 18.7878 32.9024 18.5744 33.0879 18.2485L35.4708 14.0609C35.9378 13.2406 37.1404 13.3126 37.506 14.1827L39.3743 18.6247C39.5194 18.9702 39.8255 19.2216 40.1916 19.2975L44.9034 20.2741C45.826 20.4653 46.1296 21.6336 45.4166 22.2508L45.4171 22.2513Z" fill="#FBB03B"/>
<path opacity="0.77" d="M35.2991 28.5315C35.0482 28.5537 34.8051 28.6178 34.5758 28.7218L31.7121 30.0178C31.411 30.1538 31.0656 30.108 30.8107 29.898C30.5558 29.688 30.4441 29.3572 30.5189 29.0353L31.2338 25.9697C31.4011 25.2514 31.2053 24.4972 30.7098 23.9515L28.5945 21.6238C28.3721 21.3793 28.3091 21.0362 28.4297 20.7281C28.5507 20.42 28.8297 20.2115 29.1589 20.1834L30.7585 20.0474L30.7792 20.2914L29.1795 20.4274C28.9399 20.4476 28.7456 20.595 28.657 20.8178C28.5694 21.0416 28.6137 21.2817 28.7751 21.4597L30.8904 23.7874C31.44 24.3927 31.6575 25.2293 31.4715 26.0259L30.7566 29.0915C30.7019 29.3257 30.7802 29.5569 30.9657 29.7097C31.1512 29.8625 31.3923 29.8946 31.6112 29.7955L34.475 28.4995C34.7294 28.3842 34.9995 28.3132 35.277 28.2885L35.2987 28.5325L35.2991 28.5315Z" fill="white"/>
<path opacity="0.77" d="M40.5645 30.1115C40.4966 30.2524 40.3898 30.3742 40.2521 30.4629C39.9736 30.6414 39.6252 30.6453 39.3428 30.4743L37.2855 29.2286L37.412 29.0191L39.4692 30.2648C39.6749 30.3895 39.918 30.386 40.1207 30.2569C40.3229 30.1272 40.4282 29.9074 40.4017 29.6678L40.0562 26.539C39.9672 25.7355 40.288 24.9148 40.8991 24.3858L43.2762 22.3268C43.4578 22.169 43.5296 21.9364 43.4696 21.7037C43.4091 21.471 43.2324 21.3029 42.9972 21.2541L39.9199 20.6162C39.1204 20.4506 38.4536 19.9015 38.1368 19.1477L36.916 16.2467C36.8225 16.0249 36.6242 15.8839 36.3841 15.8696C36.1445 15.8553 35.9304 15.9716 35.8113 16.1807L34.255 18.916C34.0941 19.199 33.8825 19.444 33.6261 19.6441L33.4761 19.4514C33.7068 19.271 33.8978 19.0496 34.0429 18.7948L35.5993 16.0599C35.7626 15.7725 36.0692 15.6059 36.3988 15.6256C36.7285 15.6453 37.0129 15.8469 37.1413 16.1521L38.3621 19.0531C38.648 19.7324 39.2488 20.2278 39.9696 20.3772L43.0469 21.015C43.3702 21.0821 43.6226 21.3226 43.7063 21.6426C43.7894 21.963 43.6856 22.2962 43.4361 22.5126L41.059 24.5717C40.5079 25.0489 40.2186 25.7888 40.2993 26.5129L40.6447 29.6417C40.6629 29.8073 40.6339 29.9695 40.565 30.1124L40.5645 30.1115Z" fill="white"/>
<path opacity="0.77" d="M31.7056 19.9689L30.7573 20.0493L30.7779 20.2929L31.7261 20.2125L31.7056 19.9689Z" fill="white"/>
<path d="M64.4948 14.0115L60.9388 17.2586C60.6623 17.511 60.5275 17.8837 60.5781 18.2554L61.2326 23.0311C61.3605 23.9662 60.3626 24.6425 59.5439 24.1757L55.3624 21.7913C55.0372 21.6059 54.6416 21.5926 54.305 21.7558L49.9735 23.8548C49.1252 24.2659 48.1746 23.524 48.365 22.5997L49.3368 17.8787C49.4121 17.5115 49.3028 17.1309 49.0435 16.8603L45.7124 13.382C45.0599 12.7008 45.4703 11.566 46.4066 11.4615L51.1884 10.9281C51.5604 10.8867 51.8881 10.6644 52.0647 10.3341L54.337 6.08539C54.7823 5.25328 55.9863 5.29371 56.3746 6.15391L58.3585 10.5456C58.513 10.8872 58.825 11.1307 59.193 11.1968L63.9285 12.0491C64.856 12.2157 65.1896 13.3756 64.4934 14.012L64.4948 14.0115Z" fill="#FBB03B"/>
<path opacity="0.77" d="M54.5441 20.5555C54.2941 20.5841 54.0526 20.6546 53.8257 20.7645L50.9969 22.1354C50.6997 22.2794 50.3533 22.2429 50.0925 22.0393C49.8322 21.8362 49.7117 21.5084 49.7781 21.1845L50.4124 18.1011C50.561 17.379 50.3455 16.6297 49.8357 16.0978L47.6599 13.8263C47.431 13.5877 47.3592 13.2461 47.4714 12.935C47.5841 12.624 47.8581 12.408 48.1859 12.3716L49.7816 12.1936L49.8086 12.4366L48.2129 12.6146C47.9743 12.6412 47.7834 12.7935 47.7012 13.0183C47.6195 13.2446 47.6697 13.4832 47.836 13.6567L50.0118 15.9282C50.5772 16.5188 50.8163 17.3494 50.6515 18.1504L50.0173 21.2338C49.9685 21.4695 50.0527 21.6982 50.2421 21.8461C50.4316 21.994 50.6737 22.0196 50.8897 21.9146L53.7184 20.5437C53.9699 20.4219 54.2376 20.3441 54.5151 20.312L54.5431 20.555L54.5441 20.5555Z" fill="white"/>
<path opacity="0.77" d="M59.8494 21.9963C59.7854 22.1387 59.6821 22.2634 59.5463 22.3556C59.2727 22.541 58.9248 22.5543 58.6374 22.3911L56.5482 21.1996L56.6692 20.9867L58.7585 22.1781C58.9671 22.2974 59.2102 22.2876 59.4095 22.153C59.6083 22.0179 59.7076 21.7956 59.6747 21.557L59.2476 18.4386C59.1374 17.6381 59.437 16.8089 60.0339 16.2637L62.3559 14.143C62.533 13.9809 62.5989 13.7457 62.533 13.515C62.4666 13.2838 62.2855 13.1202 62.0493 13.0778L58.9563 12.5207C58.1523 12.3758 57.4718 11.8449 57.1352 11.0996L55.8392 8.23157C55.7403 8.01221 55.538 7.87665 55.2979 7.86876C55.0578 7.86088 54.8467 7.98263 54.7335 8.1946L53.2495 10.9699C53.096 11.2568 52.8908 11.5072 52.6399 11.7143L52.4849 11.5255C52.7112 11.3386 52.8962 11.1129 53.034 10.8541L54.518 8.07925C54.674 7.78743 54.9756 7.61341 55.3058 7.62426C55.6359 7.6351 55.9258 7.82933 56.0616 8.13101L57.3576 10.999C57.6612 11.6709 58.2748 12.15 58.9991 12.2802L62.0921 12.8367C62.4169 12.8954 62.6757 13.129 62.7677 13.447C62.8592 13.765 62.7643 14.1007 62.5202 14.324L60.1977 16.4446C59.6594 16.9361 59.3893 17.6829 59.4892 18.4051L59.9163 21.5235C59.9389 21.6886 59.9143 21.8513 59.8489 21.9963H59.8494Z" fill="white"/>
<path opacity="0.77" d="M50.7289 12.0917L49.7831 12.197L49.81 12.44L50.7558 12.3347L50.7289 12.0917Z" fill="white"/>
<path d="M87.6753 14.0115L84.1192 17.2586C83.8427 17.511 83.7079 17.8837 83.7586 18.2554L84.413 23.0311C84.5409 23.9662 83.543 24.6425 82.7243 24.1757L78.5428 21.7913C78.2176 21.6059 77.822 21.5926 77.4854 21.7558L73.1539 23.8548C72.3056 24.2659 71.355 23.524 71.5454 22.5997L72.5172 17.8787C72.5925 17.5115 72.4833 17.1309 72.2239 16.8603L68.8928 13.382C68.2403 12.7008 68.6507 11.566 69.5871 11.4615L74.3688 10.9281C74.7408 10.8867 75.0685 10.6644 75.2451 10.3341L77.5174 6.08539C77.9627 5.25328 79.1668 5.29371 79.555 6.15391L81.5389 10.5456C81.6934 10.8872 82.0054 11.1307 82.3734 11.1968L87.1089 12.0491C88.0364 12.2157 88.37 13.3756 87.6738 14.012L87.6753 14.0115Z" fill="#FBB03B"/>
<path opacity="0.77" d="M77.725 20.5555C77.4751 20.5841 77.2335 20.6546 77.0066 20.7645L74.1778 22.1354C73.8806 22.2794 73.5342 22.2429 73.2735 22.0393C73.0132 21.8362 72.8926 21.5084 72.959 21.1845L73.5933 18.1011C73.7419 17.379 73.5264 16.6297 73.0166 16.0978L70.8408 13.8263C70.612 13.5877 70.5401 13.2461 70.6523 12.935C70.765 12.624 71.0391 12.408 71.3668 12.3716L72.9625 12.1936L72.9895 12.4366L71.3938 12.6146C71.1552 12.6412 70.9643 12.7935 70.8821 13.0183C70.8004 13.2446 70.8506 13.4832 71.0169 13.6567L73.1928 15.9282C73.7581 16.5188 73.9973 17.3494 73.8324 18.1504L73.1982 21.2338C73.1495 21.4695 73.2336 21.6982 73.423 21.8461C73.6125 21.994 73.8546 22.0196 74.0706 21.9146L76.8994 20.5437C77.1508 20.4219 77.4185 20.3441 77.696 20.312L77.724 20.555L77.725 20.5555Z" fill="white"/>
<path opacity="0.77" d="M83.0298 21.9963C82.9658 22.1387 82.8625 22.2634 82.7267 22.3556C82.4531 22.541 82.1052 22.5543 81.8179 22.3911L79.7286 21.1996L79.8497 20.9867L81.9389 22.1781C82.1475 22.2974 82.3906 22.2876 82.5899 22.153C82.7887 22.0179 82.8881 21.7956 82.8551 21.557L82.428 18.4386C82.3178 17.6381 82.6174 16.8089 83.2143 16.2637L85.5363 14.143C85.7134 13.9809 85.7793 13.7457 85.7134 13.515C85.647 13.2838 85.4659 13.1202 85.2297 13.0778L82.1367 12.5207C81.3327 12.3758 80.6522 11.8449 80.3156 11.0996L79.0196 8.23157C78.9207 8.01221 78.7184 7.87665 78.4783 7.86876C78.2382 7.86088 78.0271 7.98263 77.9139 8.1946L76.4299 10.9699C76.2764 11.2568 76.0712 11.5072 75.8203 11.7143L75.6653 11.5255C75.8916 11.3386 76.0766 11.1129 76.2144 10.8541L77.6984 8.07925C77.8544 7.78743 78.156 7.61341 78.4862 7.62426C78.8164 7.6351 79.1062 7.82933 79.242 8.13101L80.538 10.999C80.8416 11.6709 81.4552 12.15 82.1795 12.2802L85.2725 12.8367C85.5973 12.8954 85.8561 13.129 85.9481 13.447C86.0396 13.765 85.9447 14.1007 85.7006 14.324L83.3781 16.4446C82.8398 16.9361 82.5697 17.6829 82.6696 18.4051L83.0967 21.5235C83.1193 21.6886 83.0947 21.8513 83.0293 21.9963H83.0298Z" fill="white"/>
<path opacity="0.77" d="M73.9092 12.0937L72.9634 12.199L72.9903 12.4419L73.9361 12.3367L73.9092 12.0937Z" fill="white"/>
<path d="M108.852 21.6109L105.296 24.858C105.019 25.1104 104.885 25.483 104.935 25.8547L105.59 30.6304C105.718 31.5656 104.72 32.2419 103.901 31.7751L99.7196 29.3907C99.3944 29.2053 98.9987 29.192 98.6622 29.3552L94.3307 31.4542C93.4824 31.8653 92.5318 31.1234 92.7222 30.1991L93.694 25.4781C93.7693 25.1109 93.66 24.7303 93.4007 24.4597L90.0695 20.9814C89.4171 20.3002 89.8275 19.1654 90.7638 19.0609L95.5456 18.5275C95.9175 18.4861 96.2452 18.2638 96.4219 17.9335L98.6942 13.6848C99.1395 12.8526 100.344 12.8931 100.732 13.7533L102.716 18.145C102.87 18.4866 103.182 18.7301 103.55 18.7962L108.286 19.6485C109.213 19.8151 109.547 20.975 108.851 21.6114L108.852 21.6109Z" fill="#FBB03B"/>
<path opacity="0.77" d="M98.9013 28.1549C98.6513 28.1835 98.4097 28.254 98.1829 28.3639L95.3541 29.7348C95.0569 29.8787 94.7105 29.8423 94.4497 29.6387C94.1894 29.4356 94.0689 29.1078 94.1353 28.7839L94.7696 25.7005C94.9182 24.9783 94.7026 24.229 94.1929 23.6971L92.017 21.4256C91.7882 21.187 91.7164 20.8454 91.8286 20.5344C91.9413 20.2233 92.2153 20.0074 92.543 19.9709L94.1387 19.793L94.1658 20.036L92.5701 20.2139C92.3314 20.2406 92.1405 20.3929 92.0584 20.6177C91.9767 20.8439 92.0269 21.0825 92.1932 21.256L94.369 23.5276C94.9344 24.1181 95.1735 24.9487 95.0087 25.7498L94.3744 28.8332C94.3257 29.0688 94.4099 29.2976 94.5993 29.4454C94.7887 29.5933 95.0308 29.619 95.2468 29.514L98.0756 28.1431C98.3271 28.0213 98.5947 27.9434 98.8723 27.9114L98.9003 28.1544L98.9013 28.1549Z" fill="white"/>
<path opacity="0.77" d="M104.207 29.5963C104.143 29.7388 104.039 29.8635 103.903 29.9557C103.63 30.1411 103.282 30.1544 102.995 29.9912L100.905 28.7997L101.026 28.5868L103.116 29.7782C103.324 29.8975 103.567 29.8877 103.767 29.7531C103.965 29.618 104.065 29.3957 104.032 29.1571L103.605 26.0387C103.495 25.2382 103.794 24.409 104.391 23.8638L106.713 21.7431C106.89 21.581 106.956 21.3458 106.89 21.1151C106.824 20.8839 106.643 20.7203 106.406 20.6779L103.313 20.1208C102.509 19.9759 101.829 19.445 101.492 18.6997L100.196 15.8317C100.097 15.6123 99.8952 15.4767 99.6551 15.4689C99.415 15.461 99.2039 15.5827 99.0907 15.7947L97.6067 18.57C97.4532 18.8569 97.248 19.1073 96.997 19.3144L96.842 19.1256C97.0684 18.9387 97.2534 18.713 97.3912 18.4542L98.8752 15.6794C99.0312 15.3875 99.3328 15.2135 99.663 15.2244C99.9931 15.2352 100.283 15.4294 100.419 15.7311L101.715 18.5991C102.018 19.271 102.632 19.7501 103.356 19.8803L106.449 20.4368C106.774 20.4955 107.033 20.7291 107.125 21.0471C107.216 21.365 107.121 21.7007 106.877 21.9241L104.555 24.0447C104.017 24.5362 103.746 25.283 103.846 26.0052L104.273 29.1236C104.296 29.2887 104.271 29.4514 104.206 29.5963H104.207Z" fill="white"/>
<path opacity="0.77" d="M95.0856 19.6945L94.1398 19.7998L94.1667 20.0428L95.1125 19.9375L95.0856 19.6945Z" fill="white"/>
<path d="M87.1571 127.452L113.102 77.6549H107.787C106.807 77.6549 106.267 76.5132 106.889 75.7541L134.542 41.9894C135.741 40.5258 138.108 41.454 137.997 43.3435L136.053 76.3609C135.942 78.2509 134.269 79.6597 132.391 79.4443L128.685 79.0194L102.942 134.871C102.272 136.325 100.819 137.256 99.2207 137.256H90.2983L87.1576 127.451L87.1571 127.452Z" fill="url(#paint0_linear_679_5208)"/>
<path d="M65.7062 92.5271L84.0232 133.29C85.1082 135.705 87.5054 137.257 90.1482 137.257H99.5911C100.844 137.257 101.998 136.577 102.606 135.479L102.942 134.873C101.927 134.873 100.998 134.303 100.537 133.397L76.1322 85.4917L65.7062 92.5271Z" fill="url(#paint1_linear_679_5208)"/>
<path d="M78.5969 90.3307C76.7601 88.8775 74.0764 89.3048 72.7799 91.2564L45.8491 131.792C43.6919 135.039 40.0572 136.989 36.1646 136.989H32.3753L29.2911 128.089C29.2911 128.089 54.3276 89.6302 60.7803 83.8124C60.7803 83.8124 67.2064 78.0099 73.5426 82.3971C75.2165 83.556 76.4875 85.2104 77.2639 87.0949L78.5969 90.3312V90.3307Z" fill="url(#paint2_linear_679_5208)"/>
<path d="M0 104.152C0 104.152 4.50815 98.5066 13.2435 97.6287C13.2435 97.6287 17.3924 99.0449 25.6584 113.883C33.9243 128.722 39.4106 135.488 45.8491 131.792L45.3162 132.679C43.5596 135.601 40.4036 137.388 36.9986 137.388H33.4377C29.517 137.388 26.1125 131.338 23.8235 128.15C17.39 119.19 3.95214 105.542 0 104.152Z" fill="url(#paint3_linear_679_5208)"/>
<path opacity="0.79" d="M134.876 53.7764C134.867 53.7764 134.858 53.7764 134.848 53.7749C134.711 53.7596 134.613 53.6359 134.628 53.4984L134.811 51.8868C134.827 51.7497 134.95 51.6512 135.087 51.6669C135.224 51.6822 135.322 51.8059 135.307 51.9434L135.124 53.5551C135.11 53.6827 135.002 53.7769 134.876 53.7769V53.7764Z" fill="white"/>
<path opacity="0.79" d="M111.793 74.1273C111.74 74.1273 111.686 74.1106 111.641 74.0756C111.532 73.9913 111.512 73.8345 111.596 73.7251L134.43 44.0011C134.697 43.6531 135.133 43.5343 135.539 43.6994C135.945 43.8641 136.176 44.2525 136.127 44.6888L135.724 48.2518C135.708 48.3889 135.585 48.487 135.448 48.4717C135.311 48.4564 135.213 48.3327 135.228 48.1951L135.631 44.6321C135.66 44.3807 135.506 44.2244 135.352 44.1618C135.198 44.0997 134.979 44.1046 134.825 44.3053L111.991 74.0292C111.942 74.0933 111.868 74.1268 111.793 74.1268V74.1273Z" fill="white"/>
<path opacity="0.79" d="M59.9911 105.288C59.9429 105.288 59.8947 105.274 59.8519 105.245C59.7377 105.168 59.7077 105.013 59.7844 104.899L71.5936 87.3619C72.0158 86.7349 72.7135 86.3943 73.4698 86.4525C74.2226 86.5096 74.8648 86.9518 75.1875 87.6355C75.2466 87.7603 75.1934 87.9091 75.069 87.9683C74.945 88.0274 74.7959 87.9742 74.7368 87.8495C74.4913 87.3304 74.0037 86.9942 73.4319 86.9508C72.8606 86.9094 72.3278 87.1658 72.0069 87.6419L60.1978 105.179C60.1495 105.25 60.0708 105.289 59.9911 105.289V105.288Z" fill="white"/>
<path opacity="0.79" d="M56.9226 109.845C56.8744 109.845 56.8262 109.832 56.7834 109.802C56.6692 109.726 56.6392 109.57 56.716 109.456L57.4732 108.332C57.55 108.217 57.7055 108.187 57.8191 108.264C57.9333 108.341 57.9633 108.496 57.8865 108.611L57.1293 109.735C57.0811 109.806 57.0023 109.845 56.9226 109.845V109.845Z" fill="white"/>
<path d="M127.242 87.7939L124.765 92.0146C124.765 92.0146 126.854 93.4126 128.463 93.4668L129.761 89.7761L127.242 87.7939Z" fill="url(#paint4_linear_679_5208)"/>
<path d="M110.88 96.1897L111.638 96.801C113.149 95.0727 114.604 94.3826 115.912 94.2776C115.518 93.197 115.003 92.15 114.364 91.1365C111.826 92.8613 110.88 96.1897 110.88 96.1897Z" fill="url(#paint5_linear_679_5208)"/>
<path d="M111.008 95.8044C111.008 95.8044 109.817 97.1194 109.466 97.5344C109.115 97.9494 108.524 100.53 108.934 100.538C109.344 100.546 109.797 101.022 110.022 100.625C110.246 100.227 110.504 99.1357 110.504 99.1357C110.504 99.1357 110.607 100.192 110.898 99.9612C111.189 99.7301 111.346 98.9977 111.305 98.5507C111.265 98.1036 111.638 96.8005 111.638 96.8005L111.008 95.804V95.8044Z" fill="url(#paint6_linear_679_5208)"/>
<path d="M115.912 94.2778C119.184 94.015 121.685 96.3763 121.685 96.3763C122.042 96.6075 122.282 97.8443 122.69 98.0139C121.495 96.6134 124.281 93 124.765 91.7953C120.743 89.1314 116.284 89.8323 114.365 91.1362C115.003 92.1497 115.518 93.1972 115.912 94.2773V94.2778Z" fill="#007CBA"/>
<path d="M119.042 134.504C119.042 134.504 118.414 135.48 118.425 136.821C118.428 137.137 118.692 137.389 119.007 137.389L124.098 137.395C124.336 137.395 124.433 137.088 124.238 136.951C123.276 136.272 121.384 135.004 120.015 134.505L119.042 134.504V134.504Z" fill="url(#paint7_linear_679_5208)"/>
<path d="M118.519 132.821L118.912 134.745C118.956 134.96 119.166 135.105 119.38 135.057C119.51 135.028 119.664 134.973 119.828 134.871C119.984 134.773 120.063 134.588 120.032 134.406L119.625 132.076L118.519 132.822V132.821Z" fill="url(#paint8_linear_679_5208)"/>
<path d="M110.927 134.736C110.927 134.736 110.342 135.76 110.28 137.204C110.265 137.544 110.475 137.827 110.741 137.841L115.049 138.062C115.251 138.072 115.349 137.746 115.192 137.59C114.414 136.818 112.882 135.373 111.751 134.778L110.927 134.736H110.927Z" fill="url(#paint9_linear_679_5208)"/>
<path d="M110.571 133.259L110.868 135.2C110.901 135.417 111.104 135.572 111.32 135.536C111.451 135.513 111.607 135.466 111.776 135.371C111.937 135.282 112.025 135.1 112.003 134.918L111.713 132.571L110.571 133.26V133.259Z" fill="url(#paint10_linear_679_5208)"/>
<path d="M114.757 105.285C114.757 105.285 113.251 106.333 112.827 107.755C112.403 109.177 110.279 134.386 110.279 134.386C110.279 134.386 111.661 134.732 112.414 134.386C112.414 134.386 115.361 117.708 116.404 114.243C116.404 114.243 117.903 130.488 118.495 133.46C118.495 133.46 119.792 133.773 120.245 133.571C120.245 133.571 121.745 112.912 121.071 109.131L114.757 105.285H114.757Z" fill="url(#paint11_linear_679_5208)"/>
<path d="M116.688 113.927L116.456 113.873L116.981 111.567L118.256 110.691L118.39 110.888L117.192 111.711L116.688 113.927Z" fill="url(#paint12_linear_679_5208)"/>
<path d="M130.543 94.997C128.603 93.1578 125.584 92.0211 123.709 91.4512C122.751 91.1604 121.725 91.5937 121.27 92.4869C119.954 95.0759 116.41 101.798 115.741 102.946C115.192 103.888 114.626 104.805 114.268 105.377C114.054 105.719 114.154 106.17 114.495 106.386C116.268 107.51 119.529 108.927 120.853 109.486C121.144 109.609 121.471 109.417 121.507 109.103C121.538 108.836 121.64 108.583 121.804 108.37L127.992 100.308C128.003 100.323 128.013 100.338 128.025 100.353C128.906 99.4 131.161 96.7322 130.543 94.996L130.543 94.997Z" fill="#007CBA"/>
<path d="M130.486 85.2572C130.519 85.3178 131.222 89.8284 131.222 89.8284L128.643 90.1759L127.342 85.9999C127.342 85.9999 129.933 84.2424 130.486 85.2572Z" fill="url(#paint13_linear_679_5208)"/>
<path d="M128.216 86.7134L128.729 88.9656C128.735 88.9947 128.746 89.0218 128.76 89.048C128.846 89.2072 129.184 89.7337 129.7 89.3546C130.169 89.0105 130.601 88.7039 130.971 88.6817C131.136 88.6718 131.283 88.7897 131.308 88.9538C131.372 89.3639 131.499 90.2902 131.486 91.112C131.484 91.2786 131.353 91.4146 131.187 91.4265C130.687 91.4629 129.63 91.5103 128.77 91.3486C128.654 91.3269 128.559 91.2441 128.522 91.1312C128.344 90.581 127.795 88.9099 127.57 88.4683C127.359 88.0537 126.732 87.9921 126.467 87.9847C126.38 87.9822 126.299 87.9447 126.24 87.8802C126.033 87.6519 125.656 87.086 126.342 86.5408C126.486 86.4269 126.506 86.2179 126.388 86.0779C126.152 85.7984 125.921 85.3247 126.424 84.8283C126.935 84.324 127.515 84.4808 127.862 84.6548C128.002 84.7253 128.168 84.6819 128.263 84.5567C128.317 84.4857 128.403 84.4369 128.538 84.4645C128.721 84.502 128.894 84.3654 128.912 84.1796C128.947 83.8227 129.126 83.3869 129.765 83.2661C130.899 83.0517 131.46 84.1904 131.436 84.9885C131.412 85.7871 130.169 85.9498 129.465 85.8142C128.93 85.7112 128.467 86.2012 128.276 86.4417C128.216 86.5181 128.194 86.6177 128.216 86.7124L128.216 86.7134Z" fill="url(#paint14_linear_679_5208)"/>
<path d="M127.765 89.2861C127.765 89.2861 127.747 87.8933 127.185 87.7603C126.622 87.6272 126.014 88.0318 126.491 88.8677C127.086 89.9076 127.765 89.2861 127.765 89.2861Z" fill="url(#paint15_linear_679_5208)"/>
<path d="M41.5747 97.7609C41.5958 97.753 52.8682 77.9763 54.3911 76.1149C54.6474 75.8019 55.044 75.6427 55.445 75.6905L58.5912 76.0661L62.2875 84.0771L56.1295 80.4844C56.7386 84.7061 48.8285 90.9804 46.1153 93.2696C45.8398 93.5018 45.8176 93.9183 46.0661 94.1791L47.1491 95.3149C45.3708 97.1206 43.319 98.28 41.0034 98.8163L41.5742 97.7609H41.5747Z" fill="url(#paint16_linear_679_5208)"/>
<path d="M46.5232 94.7017C46.5232 94.7017 47.2146 94.9255 47.4488 95.5421C47.561 95.8374 47.4399 96.1716 47.1841 96.3555C46.046 97.1723 42.2911 99.8101 40.5586 100.327C40.4164 100.369 40.2816 100.24 40.3136 100.096C40.4026 99.6923 40.69 98.8868 41.6165 97.7082L41.5334 97.8768C41.4281 98.0897 41.6598 98.312 41.8665 98.1952C43.0253 97.5396 45.3856 96.1056 46.5237 94.7022L46.5232 94.7017Z" fill="url(#paint17_linear_679_5208)"/>
<path d="M45.9658 102.615C45.9845 102.602 47.6761 98.5201 47.6948 98.5083C49.2453 89.05 53.0287 80.9499 54.1446 78.8183C54.3326 78.46 54.6883 78.2233 55.0913 78.1888L58.2483 77.9187L63.4862 85.0147L56.7298 82.7447C58.1794 86.7558 51.7001 94.5035 49.5056 97.2956C49.2827 97.5791 49.3447 97.9912 49.6409 98.1962L50.931 99.089C49.5543 101.218 47.7795 102.769 45.6199 103.764L45.9658 102.615V102.615Z" fill="url(#paint18_linear_679_5208)"/>
<path d="M50.1939 98.6152C50.1939 98.6152 50.9162 98.6941 51.27 99.2507C51.4393 99.5168 51.3886 99.8688 51.175 100.101C50.2254 101.132 47.0812 104.476 45.4889 105.333C45.3585 105.404 45.2001 105.305 45.202 105.156C45.2075 104.743 45.3265 103.896 45.9957 102.554L45.9485 102.736C45.8885 102.966 46.1601 103.136 46.3392 102.98C47.3415 102.103 49.3633 100.22 50.1944 98.6147L50.1939 98.6152Z" fill="url(#paint19_linear_679_5208)"/>
<path d="M73.026 76.4242C73.026 76.4242 75.8819 80.6798 76.1166 82.6211C76.3508 84.5623 75.3269 85.2337 72.3377 85.4812C63.4424 86.2181 59.0573 83.5468 59.0573 83.5468C58.4486 79.6599 58.0156 78.671 52.9337 76.5578C52.9337 76.5578 59.3618 77.0689 60.6554 76.5661C61.949 76.0633 73.0265 76.4242 73.0265 76.4242H73.026Z" fill="url(#paint20_linear_679_5208)"/>
<path d="M65.3022 75.8606C65.3022 75.8606 61.9764 72.688 60.3394 70.5866C59.4542 69.4508 59.1767 67.9552 59.5856 66.5739C60.333 64.051 61.661 61.4384 61.7826 61.0317C61.9681 60.4081 65.6973 60.4342 65.6973 60.4342C65.6973 60.4342 73.0352 65.2055 75.9186 73.2874L72.6805 74.2975C72.6805 74.2975 70.7644 71.0771 68.8715 69.0298C68.8715 69.0298 72.1471 73.3653 72.2627 75.14L65.3022 75.8606Z" fill="#007CBA"/>
<path d="M61.3314 57.5478C61.3703 57.6774 62.3436 60.9091 62.4198 60.9766C62.4961 61.0436 64.5543 61.1545 65.5232 60.4911L63.5456 56.1091L61.3314 57.5478Z" fill="url(#paint21_linear_679_5208)"/>
<path d="M58.6547 53.917C58.6547 53.917 57.9619 55.5206 58.7758 57.9587C59.5901 60.3968 60.9206 60.6083 61.763 60.0059C62.6054 59.403 63.6982 58.3264 63.834 56.118C63.9698 53.9096 59.6093 51.8895 58.6547 53.9175V53.917Z" fill="url(#paint22_linear_679_5208)"/>
<path d="M62.1896 55.9739C62.1896 55.9739 60.7193 52.6746 58.5139 54.7297L58.3437 55.5791C58.3437 55.5791 56.2436 54.9796 56.934 53.0734C57.6243 51.1667 60.1338 49.8736 62.38 51.1095C64.6262 52.3453 65.3893 53.801 65.2688 55.5362C65.1482 57.2719 63.8497 56.6778 63.8497 56.6778C63.8497 56.6778 63.5998 55.4021 62.9896 55.1753C62.3795 54.9486 62.3928 55.9143 62.3928 55.9143L62.1896 55.9744V55.9739Z" fill="url(#paint23_linear_679_5208)"/>
<path d="M62.6954 56.014C62.6954 56.014 61.9298 54.3225 63.0025 54.2614C64.0751 54.2003 63.6387 55.8917 63.4251 56.5088L62.6959 56.0135L62.6954 56.014Z" fill="url(#paint24_linear_679_5208)"/>
<path d="M58.9651 77.1119L61.4642 74.3884L64.3501 75.1666C64.3501 75.1666 67.7147 75.6885 69.6406 75.1666L71.5665 74.6447L75.9181 73.2878L76.6016 75.2228C76.7753 75.7142 76.6006 76.2593 76.1765 76.5614C75.8001 76.8295 75.3587 77.1237 75.0772 77.247C74.504 77.4978 61.8756 77.3263 61.8756 77.3263L58.9646 77.1124L58.9651 77.1119Z" fill="url(#paint25_linear_679_5208)"/>
<path d="M63.3045 52.3321C62.7037 52.2586 62.4616 51.5148 62.8705 51.0677C64.1897 49.6233 66.68 48.0212 70.2281 50.4801C74.2246 53.25 76.3871 54.503 77.3687 54.2403C78.0133 54.0678 78.5743 54.7066 78.2697 55.3016C78.0443 55.7413 77.5862 56.2008 76.7394 56.6198C70.2065 59.8491 66.8295 52.7629 63.3045 52.3331V52.3321Z" fill="url(#paint26_linear_679_5208)"/>
<path d="M67.2375 78.1907C67.2287 78.1907 67.2198 78.1912 67.211 78.1912L55.7167 78.1784C55.4328 78.1784 55.2025 77.9472 55.2025 77.6623C55.2025 77.3775 55.4343 77.1424 55.7177 77.1473L67.2119 77.1596C67.4959 77.1596 67.7261 77.3908 67.7256 77.6756C67.7256 77.9516 67.5087 78.1764 67.237 78.1897L67.2375 78.1907Z" fill="url(#paint27_linear_679_5208)"/>
<path d="M45.3837 67.7358H54.9565C55.6626 67.7358 56.3052 68.144 56.6068 68.7838L61.0323 78.1849H49.1361C48.6809 78.1849 48.272 77.9064 48.1047 77.4825L44.6732 68.7834C44.4749 68.2806 44.8444 67.7358 45.3842 67.7358H45.3837Z" fill="url(#paint28_linear_679_5208)"/>
<path d="M52.1277 72.5558C52.3354 73.2014 52.1818 73.8283 51.7853 73.956C51.3887 74.0836 50.8991 73.6642 50.6919 73.0185C50.4843 72.3729 50.6378 71.746 51.0344 71.6183C51.431 71.4907 51.9206 71.9101 52.1277 72.5558Z" fill="#91B3FA"/>
<path d="M33.662 55.3845H51.7871C51.883 55.3845 51.9613 55.4629 51.9613 55.559V64.8581H33.662C33.566 64.8581 33.4878 64.7797 33.4878 64.6836V55.5585C33.4878 55.4624 33.566 55.384 33.662 55.384V55.3845Z" fill="url(#paint29_linear_679_5208)"/>
<path d="M49.067 64.8584L51.8889 66.4799C51.9918 66.5854 52.1699 66.5036 52.1576 66.3567L51.9617 64.0664L49.0675 64.8584H49.067Z" fill="url(#paint30_linear_679_5208)"/>
<path d="M34.1649 55.9514H51.052C51.148 55.9514 51.2262 56.0298 51.2262 56.1259V64.0181C51.2262 64.1305 51.1352 64.2222 51.0225 64.2222H34.1649C34.069 64.2222 33.9907 64.1438 33.9907 64.0476V56.1259C33.9907 56.0298 34.069 55.9514 34.1649 55.9514Z" fill="#91B3FA"/>
<path opacity="0.59" d="M35.4225 61.6362H49.7943C49.8942 61.6362 49.9749 61.7176 49.9749 61.8171V62.7107C49.9749 62.8107 49.8937 62.8915 49.7943 62.8915H35.4225C35.3226 62.8915 35.2419 62.8102 35.2419 62.7107V61.8171C35.2419 61.7171 35.3231 61.6362 35.4225 61.6362Z" fill="white"/>
<path opacity="0.59" d="M45.6935 57.281H35.487C35.3872 57.281 35.3064 57.362 35.3064 57.4619V58.3559C35.3064 58.4558 35.3872 58.5368 35.487 58.5368H45.6935C45.7933 58.5368 45.8741 58.4558 45.8741 58.3559V57.4619C45.8741 57.362 45.7933 57.281 45.6935 57.281Z" fill="white"/>
<path opacity="0.59" d="M43.6801 59.478H35.4225C35.3228 59.478 35.2419 59.559 35.2419 59.6589V60.5529C35.2419 60.6528 35.3228 60.7338 35.4225 60.7338H43.6801C43.7798 60.7338 43.8607 60.6528 43.8607 60.5529V59.6589C43.8607 59.559 43.7798 59.478 43.6801 59.478Z" fill="white"/>
</g>
<defs>
<linearGradient id="paint0_linear_679_5208" x1="141.527" y1="35.4016" x2="95.5074" y2="128.936" gradientUnits="userSpaceOnUse">
<stop stop-color="#FF928E"/>
<stop offset="1" stop-color="#FE7062"/>
</linearGradient>
<linearGradient id="paint1_linear_679_5208" x1="111.148" y1="152.642" x2="74.1538" y2="101.472" gradientUnits="userSpaceOnUse">
<stop stop-color="#FF928E"/>
<stop offset="1" stop-color="#FE7062"/>
</linearGradient>
<linearGradient id="paint2_linear_679_5208" x1="75.4921" y1="75.5895" x2="34.8227" y2="138.811" gradientUnits="userSpaceOnUse">
<stop stop-color="#FF928E"/>
<stop offset="1" stop-color="#FE7062"/>
</linearGradient>
<linearGradient id="paint3_linear_679_5208" x1="42.9441" y1="138.567" x2="-3.81645" y2="90.3984" gradientUnits="userSpaceOnUse">
<stop stop-color="#FF928E"/>
<stop offset="1" stop-color="#FE7062"/>
</linearGradient>
<linearGradient id="paint4_linear_679_5208" x1="134.063" y1="81.7944" x2="118.892" y2="103.303" gradientUnits="userSpaceOnUse">
<stop stop-color="#FEBBBA"/>
<stop offset="1" stop-color="#FF928E"/>
</linearGradient>
<linearGradient id="paint5_linear_679_5208" x1="118.094" y1="90.5405" x2="131.078" y2="81.0699" gradientUnits="userSpaceOnUse">
<stop stop-color="#FEBBBA"/>
<stop offset="1" stop-color="#FF928E"/>
</linearGradient>
<linearGradient id="paint6_linear_679_5208" x1="119.115" y1="91.9404" x2="132.097" y2="82.4693" gradientUnits="userSpaceOnUse">
<stop stop-color="#FEBBBA"/>
<stop offset="1" stop-color="#FF928E"/>
</linearGradient>
<linearGradient id="paint7_linear_679_5208" x1="118.423" y1="135.946" x2="124.341" y2="135.953" gradientUnits="userSpaceOnUse">
<stop stop-color="#09005D"/>
<stop offset="1" stop-color="#1A0F91"/>
</linearGradient>
<linearGradient id="paint8_linear_679_5208" x1="118.516" y1="133.57" x2="120.037" y2="133.572" gradientUnits="userSpaceOnUse">
<stop stop-color="#FEBBBA"/>
<stop offset="1" stop-color="#FF928E"/>
</linearGradient>
<linearGradient id="paint9_linear_679_5208" x1="110.395" y1="136.512" x2="115.418" y2="136.769" gradientUnits="userSpaceOnUse">
<stop stop-color="#09005D"/>
<stop offset="1" stop-color="#1A0F91"/>
</linearGradient>
<linearGradient id="paint10_linear_679_5208" x1="110.544" y1="134.004" x2="112.063" y2="134.082" gradientUnits="userSpaceOnUse">
<stop stop-color="#FEBBBA"/>
<stop offset="1" stop-color="#FF928E"/>
</linearGradient>
<linearGradient id="paint11_linear_679_5208" x1="111.397" y1="119.725" x2="121.708" y2="120.914" gradientUnits="userSpaceOnUse">
<stop stop-color="#09005D"/>
<stop offset="1" stop-color="#1A0F91"/>
</linearGradient>
<linearGradient id="paint12_linear_679_5208" x1="141.171" y1="75.256" x2="114.844" y2="115.681" gradientUnits="userSpaceOnUse">
<stop stop-color="#4F52FF"/>
<stop offset="1" stop-color="#4042E2"/>
</linearGradient>
<linearGradient id="paint13_linear_679_5208" x1="129.609" y1="85.7623" x2="128.33" y2="94.3521" gradientUnits="userSpaceOnUse">
<stop stop-color="#FEBBBA"/>
<stop offset="1" stop-color="#FF928E"/>
</linearGradient>
<linearGradient id="paint14_linear_679_5208" x1="303.916" y1="-244.832" x2="296.967" y2="-231.663" gradientUnits="userSpaceOnUse">
<stop stop-color="#8D55D1"/>
<stop offset="1" stop-color="#1C2873"/>
</linearGradient>
<linearGradient id="paint15_linear_679_5208" x1="125.512" y1="94.2536" x2="127.136" y2="88.4596" gradientUnits="userSpaceOnUse">
<stop stop-color="#FEBBBA"/>
<stop offset="1" stop-color="#FF928E"/>
</linearGradient>
<linearGradient id="paint16_linear_679_5208" x1="38.1751" y1="80.7945" x2="55.9624" y2="90.9286" gradientUnits="userSpaceOnUse">
<stop stop-color="#FEBBBA"/>
<stop offset="1" stop-color="#FF928E"/>
</linearGradient>
<linearGradient id="paint17_linear_679_5208" x1="50.9765" y1="111.042" x2="61.5076" y2="130.538" gradientUnits="userSpaceOnUse">
<stop stop-color="#09005D"/>
<stop offset="1" stop-color="#1A0F91"/>
</linearGradient>
<linearGradient id="paint18_linear_679_5208" x1="40.5921" y1="83.7281" x2="-20.276" y2="45.6933" gradientUnits="userSpaceOnUse">
<stop stop-color="#FEBBBA"/>
<stop offset="1" stop-color="#FF928E"/>
</linearGradient>
<linearGradient id="paint19_linear_679_5208" x1="89.5613" y1="151.549" x2="103.818" y2="168.5" gradientUnits="userSpaceOnUse">
<stop stop-color="#09005D"/>
<stop offset="1" stop-color="#1A0F91"/>
</linearGradient>
<linearGradient id="paint20_linear_679_5208" x1="59.5257" y1="70.0996" x2="81.4769" y2="109.708" gradientUnits="userSpaceOnUse">
<stop stop-color="#09005D"/>
<stop offset="1" stop-color="#1A0F91"/>
</linearGradient>
<linearGradient id="paint21_linear_679_5208" x1="64.4259" y1="65.4379" x2="63.2146" y2="57.678" gradientUnits="userSpaceOnUse">
<stop stop-color="#FEBBBA"/>
<stop offset="1" stop-color="#FF928E"/>
</linearGradient>
<linearGradient id="paint22_linear_679_5208" x1="58.1107" y1="57.0877" x2="67.4141" y2="55.5314" gradientUnits="userSpaceOnUse">
<stop stop-color="#FEBBBA"/>
<stop offset="1" stop-color="#FF928E"/>
</linearGradient>
<linearGradient id="paint23_linear_679_5208" x1="61.0764" y1="40.4511" x2="61.0218" y2="59.3712" gradientUnits="userSpaceOnUse">
<stop stop-color="#09005D"/>
<stop offset="1" stop-color="#1A0F91"/>
</linearGradient>
<linearGradient id="paint24_linear_679_5208" x1="57.9731" y1="56.265" x2="67.2764" y2="54.7085" gradientUnits="userSpaceOnUse">
<stop stop-color="#FEBBBA"/>
<stop offset="1" stop-color="#FF928E"/>
</linearGradient>
<linearGradient id="paint25_linear_679_5208" x1="69.9993" y1="75.3357" x2="87.7027" y2="75.3357" gradientUnits="userSpaceOnUse">
<stop stop-color="#FEBBBA"/>
<stop offset="1" stop-color="#FF928E"/>
</linearGradient>
<linearGradient id="paint26_linear_679_5208" x1="71.6282" y1="40.9035" x2="69.7516" y2="61.5074" gradientUnits="userSpaceOnUse">
<stop stop-color="#09005D"/>
<stop offset="1" stop-color="#1A0F91"/>
</linearGradient>
<linearGradient id="paint27_linear_679_5208" x1="62.6644" y1="50.0218" x2="62.1639" y2="61.5118" gradientUnits="userSpaceOnUse">
<stop stop-color="#09005D"/>
<stop offset="1" stop-color="#1A0F91"/>
</linearGradient>
<linearGradient id="paint28_linear_679_5208" x1="40.6979" y1="63.597" x2="56.8474" y2="76.7254" gradientUnits="userSpaceOnUse">
<stop stop-color="#09005D"/>
<stop offset="1" stop-color="#1A0F91"/>
</linearGradient>
<linearGradient id="paint29_linear_679_5208" x1="34.1673" y1="50.3328" x2="54.5626" y2="73.5793" gradientUnits="userSpaceOnUse">
<stop stop-color="#4F52FF"/>
<stop offset="1" stop-color="#4042E2"/>
</linearGradient>
<linearGradient id="paint30_linear_679_5208" x1="36.6182" y1="48.5685" x2="56.6133" y2="71.3636" gradientUnits="userSpaceOnUse">
<stop stop-color="#4F52FF"/>
<stop offset="1" stop-color="#4042E2"/>
</linearGradient>
<clipPath id="clip0_679_5208">
<rect width="138" height="138.026" fill="white" transform="translate(0 0.377441)"/>
</clipPath>
</defs>
</svg>
