<svg width="122" height="132" viewBox="0 0 122 132" fill="none" xmlns="http://www.w3.org/2000/svg">
<g clip-path="url(#clip0_679_5432)">
<path d="M107.86 108.115C105.356 110.822 102.986 112.568 101.113 113.947C79.1025 130.161 53.0577 125.435 47.5227 124.28C39.349 122.576 23.5492 119.281 12.1261 105.491C-5.1558 84.6274 -2.46453 51.7567 10.9406 30.0585C13.3922 26.0894 26.3447 4.06061 52.6695 0.528196C68.6011 -1.60996 87.1723 2.70234 100.621 14.2693C128.851 38.55 126.842 87.6008 107.86 108.115Z" fill="url(#paint0_linear_679_5432)"/>
<path d="M20.133 0.985048C20.1177 0.332447 20.9356 0.0499977 21.3155 0.573068C25.1751 5.88698 33.9902 21.2994 27.1624 44.1719C18.5961 72.8688 22.6929 84.6593 28.97 92.5418C28.97 92.5418 19.3278 87.6128 14.8087 75.5827C3.71465 46.0456 20.4046 12.5884 20.133 0.985048Z" fill="#91B3FA"/>
<g style="mix-blend-mode:soft-light">
<path d="M22.0712 10.7911C22.0847 14.1625 22.0339 17.5326 21.8626 20.8954C21.7088 24.2587 21.4556 27.6162 21.1012 30.9601C20.7341 34.3028 20.306 37.6377 19.7404 40.9489C19.1893 44.2627 18.5006 47.5482 17.7975 50.8449C17.1127 54.1435 16.4047 57.4627 16.0258 60.866C15.6442 64.2622 15.6516 67.7595 16.2812 71.1516C16.4389 71.9971 16.6124 72.8431 16.8328 73.6702C17.0382 74.5018 17.2796 75.3245 17.535 76.1421C18.0542 77.7752 18.6798 79.3759 19.4184 80.9213C20.9032 84.0089 22.8453 86.8621 25.0914 89.3871C25.328 89.6529 25.7293 89.6713 25.9882 89.4289C26.2423 89.1906 26.2647 88.7889 26.0412 88.5227L26.0395 88.5209C25.5103 87.8907 24.9885 87.2552 24.4961 86.5981C24.2446 86.2734 24.008 85.9383 23.7649 85.6078C23.5344 85.2682 23.2913 84.9376 23.0713 84.5909C22.1693 83.22 21.3619 81.7857 20.6622 80.2974C19.2498 77.3308 18.2614 74.1326 17.6546 70.893C17.369 69.2693 17.1999 67.6264 17.1552 65.9762C17.1114 64.3256 17.1911 62.6691 17.3629 61.0162C17.7063 57.7083 18.3806 54.4174 19.0421 51.1139C19.6997 47.8086 20.338 44.4831 20.8423 41.1351C21.0986 39.462 21.3259 37.7848 21.524 36.1041C21.6278 35.2643 21.7154 34.4224 21.8044 33.5813C21.8858 32.7389 21.9625 31.8965 22.0326 31.0532C22.3069 27.68 22.4808 24.3001 22.5509 20.9193C22.6048 17.538 22.5715 14.1562 22.4111 10.7817C22.4063 10.685 22.3266 10.6108 22.2328 10.6157C22.1417 10.6202 22.0707 10.698 22.0707 10.7911H22.0712Z" fill="white"/>
</g>
<path d="M17.6279 93.5248C17.1951 94.6425 15.7914 94.9434 14.9485 94.1082C10.298 89.4981 -1.70208 75.2434 0.203234 52.4168C1.81195 33.1405 0.900257 22.5311 0.161177 17.7443C0.00477354 16.7319 1.19817 16.1036 1.90965 16.8223C9.7574 24.7561 33.3055 53.0222 17.6284 93.5244L17.6279 93.5248Z" fill="#BDD0FB"/>
<g style="mix-blend-mode:soft-light">
<path d="M16.0425 93.4844C16.0179 93.5002 15.9912 93.5136 15.9632 93.5244C15.727 93.6162 15.4629 93.4943 15.3735 93.2519C15.2719 92.9771 5.23754 65.4518 6.29512 38.5458C6.30519 38.2867 6.51811 38.0853 6.7709 38.0956C7.02325 38.1059 7.21952 38.3245 7.20944 38.584C6.1593 65.2944 16.1279 92.6465 16.2287 92.9195C16.3075 93.1331 16.2247 93.3688 16.0425 93.4849V93.4844Z" fill="white"/>
</g>
<path d="M119.355 67.4393C120.63 37.5838 96.2158 12.2359 64.8248 10.8232C33.4338 9.41055 6.95297 32.4681 5.67815 62.3236C4.40332 92.1791 28.8173 117.527 60.2083 118.94C91.5993 120.352 118.08 97.2948 119.355 67.4393Z" fill="#6CC7EE"/>
<path d="M19.6015 29.0365C18.3529 31.0946 17.39 33.4118 17.5705 35.8292C17.7799 38.6285 19.1599 41.2502 19.2309 44.0567C19.3509 48.8165 15.7716 52.8009 14.6549 57.4227C13.4067 62.5881 18.1124 68.4742 19.9871 71.3576C21.8617 74.241 21.056 69.0184 22.1929 66.9818C23.3298 64.9453 25.781 75.5511 29.61 77.8786C31.6643 79.1276 34.0747 79.9588 35.552 81.8842C37.707 84.692 37.1099 88.6882 36.7861 92.2476C36.4628 95.807 36.9474 100.145 40.0697 101.727C41.9084 102.659 44.2453 102.343 45.9044 103.58C48.8182 105.752 47.4264 110.487 48.5808 113.988C49.8364 117.796 52.3261 117.846 56.1779 118.653C60.0297 119.461 55.6925 110.773 57.497 107.737C58.4455 106.141 59.8935 104.871 60.6413 103.166C61.6787 100.802 61.3865 97.6442 63.3992 96.0777C64.9076 94.9034 67.007 95.2214 68.9 95.2043C70.793 95.1872 73.0953 94.3439 73.31 92.4131C73.5005 90.6999 71.8296 89.3336 70.195 88.9364C68.5605 88.5393 66.8186 88.7286 65.2134 88.2213C60.6216 86.7699 58.4801 80.1733 53.6847 79.8648C49.5858 79.6008 46.1528 84.3241 42.1253 83.4993C39.88 83.0392 38.3432 80.9982 36.6766 79.3867C34.5356 77.3164 31.8785 75.763 30.1787 73.2987C28.4788 70.8345 28.1897 66.8959 30.608 65.1774C32.4042 63.9005 34.9566 64.4191 36.7309 65.7275C38.5057 67.0358 39.714 68.977 41.0173 70.7774C41.42 71.3333 41.8756 71.9094 42.5192 72.1163C44.2519 72.6731 45.5167 70.1702 45.1018 68.3554C44.6873 66.5406 43.4383 64.9444 43.3796 63.0811C43.2762 59.7974 46.7206 57.7141 49.7422 56.632C52.7638 55.5499 56.3251 54.2599 57.2136 51.104C57.5273 49.989 57.4449 48.7625 57.9238 47.711C59.511 44.2272 67.8858 42.4884 65.8837 40.4681C63.882 38.4482 57.5281 38.0088 56.2905 33.9407C55.8476 32.4844 55.3915 30.559 53.9116 30.4182C51.5012 30.1888 50.1255 33.2517 48.1037 33.7774C47.1438 34.027 47.0513 35.7006 47.089 37.7587C47.1162 39.2528 45.9587 40.4865 44.5038 40.5144C43.0484 40.5427 41.8462 39.3549 41.8186 37.8608C41.8081 37.3062 41.9028 36.7458 42.1249 36.1868C42.5143 35.2072 43.2534 34.4237 43.9986 33.6933C47.1083 30.6449 56.3878 27.2955 54.4448 25.9979C52.5018 24.7004 43.1754 21.1194 41.7845 23.0956C40.3935 25.0719 42.694 23.3983 43.2552 25.742C43.8164 28.0857 36.3564 27.7713 32.9067 28.7864C32.3372 28.9542 31.7055 29.117 31.1723 28.8521C30.576 28.5557 30.3254 27.8438 30.0017 27.2505C28.2694 24.073 22.507 26.1356 22.507 26.1356C22.507 26.1356 20.7148 27.197 19.5989 29.0361L19.6015 29.0365Z" fill="#007CBA"/>
<path d="M45.6644 14.6173C44.8267 16.2203 47.3178 16.1942 47.5653 17.9955C49.8075 18.2464 50.7284 14.6173 52.9456 14.1937C54.1969 13.9548 55.4104 14.875 56.0904 15.9797C56.7703 17.0843 57.0875 18.3814 57.664 19.5463C58.9555 22.1567 61.6218 23.9939 64.4647 24.2319C65.0833 24.2836 65.7646 24.2431 66.2303 23.8217C67.5818 22.5992 65.6485 20.3023 66.1505 18.5266C66.7244 16.4973 69.5747 16.8054 71.5011 16.0611C72.0325 15.856 76.1191 14.7365 76.1848 14.1572C76.3014 13.1309 74.4053 12.4774 72.2844 11.9179C68.6911 10.9693 62.3684 11.0089 59.278 11.2959C55.1664 11.6777 48.3162 11.3692 45.6644 14.6173Z" fill="#007CBA"/>
<path d="M114.232 83.5523C115.164 77.5646 115.087 71.4133 114.004 65.4526C113.715 63.8627 113.039 61.967 111.48 61.738C109.676 61.4731 107.467 63.601 106.338 62.1325C105.839 61.4844 106.038 60.5408 106.321 59.7672C107.065 57.7275 108.231 55.8516 109.719 54.2986C110.643 53.3338 111.701 52.4788 112.413 51.3401C113.935 48.9042 112.866 45.3448 110.712 43.4783C108.558 41.6117 105.778 44.9589 103.514 43.6303C101.249 42.3017 101.179 39.0783 100.753 36.4364C100.438 34.4795 99.0337 29.1781 97.4824 31.7598C95.9311 34.3418 99.552 44.6197 103.627 49.5469C104.118 50.141 104.661 50.8066 104.62 51.5852C104.521 53.444 101.882 53.3613 100.107 53.7422C97.9091 54.2136 94.5414 53.0051 96.3999 56.936C97.3799 59.0089 102.062 61.8464 100.804 63.2339C99.5459 64.6215 95.6783 68.6401 93.8632 71.89C92.0482 75.14 91.1689 79.1869 92.5375 82.6595C93.9062 86.1321 98.0213 88.5302 101.381 87.0672C102.953 86.3826 104.667 84.9587 106.128 85.8659C107.452 86.6871 107.257 88.6593 107.191 90.2456C107.126 91.8319 108.017 93.9377 109.52 93.5653C110.014 93.4425 110.403 93.0575 110.738 92.6635C112.853 90.1678 113.724 86.8189 114.232 83.5523Z" fill="#007CBA"/>
<path opacity="0.24" d="M59.4414 104.277C84.0972 104.277 104.085 84.8933 104.085 60.9817C104.085 37.0702 84.0972 17.686 59.4414 17.686C34.7857 17.686 14.7982 37.0702 14.7982 60.9817C14.7982 84.8933 34.7857 104.277 59.4414 104.277Z" fill="#95D7F3"/>
<g opacity="0.68">
<g style="mix-blend-mode:soft-light">
<path d="M78.3955 65.8142C78.3819 75.3545 77.7471 84.9141 76.1169 94.319C75.7042 96.6686 75.2254 99.0064 74.6545 101.322C74.0819 103.637 73.4208 105.932 72.6108 108.175C72.2046 109.296 71.7608 110.403 71.261 111.486C70.7611 112.568 70.2056 113.626 69.5611 114.63C68.9136 115.63 68.1793 116.586 67.2747 117.372C66.8225 117.763 66.3262 118.109 65.7812 118.362C65.237 118.614 64.6434 118.773 64.041 118.785C63.4391 118.803 62.8362 118.681 62.282 118.451C61.7252 118.224 61.217 117.894 60.7544 117.516C59.8282 116.754 59.0777 115.808 58.4188 114.817C57.7612 113.821 57.1996 112.766 56.6914 111.688C56.1854 110.608 55.735 109.503 55.3245 108.384C54.5044 106.145 53.8363 103.852 53.2589 101.539C52.6823 99.2246 52.1986 96.8872 51.7824 94.539C50.9518 89.8408 50.3862 85.0972 50.0055 80.341C49.6278 75.5838 49.4399 70.8114 49.4198 66.0386C49.4101 63.6526 49.4679 61.2666 49.549 58.882C49.6335 56.4974 49.7593 54.1146 49.9275 51.7349C50.2662 46.976 50.7748 42.2274 51.5336 37.518C51.9143 35.1639 52.3585 32.8193 52.893 30.4959C53.4293 28.1733 54.0527 25.8692 54.8264 23.615C55.2154 22.4888 55.6408 21.3752 56.1258 20.2877C56.6103 19.2002 57.1527 18.1369 57.7897 17.1317C58.4285 16.131 59.1627 15.1757 60.0762 14.412C60.5327 14.0333 61.0356 13.7041 61.5863 13.481C62.1348 13.2552 62.7298 13.1401 63.3221 13.163C63.9144 13.1801 64.4984 13.333 65.0373 13.5773C65.577 13.8228 66.0734 14.1565 66.5294 14.5352C67.4411 15.2971 68.196 16.2295 68.8659 17.2086C69.5331 18.1922 70.1153 19.2325 70.6411 20.2994C71.1681 21.3662 71.6373 22.4614 72.0701 23.57C72.9332 25.7896 73.6451 28.0672 74.265 30.3681C74.8828 32.67 75.4054 34.998 75.8575 37.339C77.6459 46.7124 78.3714 56.2734 78.3955 65.8146V65.8142ZM77.8404 65.8142C77.847 61.0571 77.6691 56.2986 77.2823 51.5581C76.8994 46.8181 76.3193 42.0916 75.4584 37.4177C75.0282 35.0812 74.5275 32.7577 73.9321 30.4603C73.3345 28.1639 72.6449 25.8908 71.8064 23.6766C71.3854 22.5707 70.9284 21.4786 70.415 20.4154C69.9024 19.3522 69.3346 18.3159 68.6832 17.3386C68.0299 16.3653 67.2931 15.4402 66.4081 14.6877C65.966 14.3135 65.4854 13.9847 64.9659 13.7428C64.4463 13.5035 63.8864 13.347 63.3173 13.3317C62.7486 13.3128 62.18 13.4293 61.6538 13.651C61.1254 13.8705 60.6409 14.1934 60.1993 14.5663C59.3156 15.3183 58.6006 16.2632 57.979 17.2572C57.3586 18.2552 56.8303 19.313 56.3593 20.3961C55.8875 21.4791 55.4743 22.5895 55.0976 23.7121C54.3475 25.96 53.7465 28.2592 53.2326 30.5768C52.72 32.8958 52.2972 35.2354 51.9384 37.585C51.2225 42.2854 50.756 47.0245 50.4589 51.7722C50.1597 56.5208 50.0497 61.2801 50.0576 66.0377C50.0489 70.7948 50.207 75.5528 50.5549 80.2964C50.9054 85.0396 51.4407 89.7706 52.2398 94.4549C52.6402 96.7968 53.1077 99.1265 53.6676 101.432C54.2284 103.737 54.879 106.021 55.6789 108.248C56.0794 109.361 56.5188 110.459 57.013 111.53C57.5089 112.599 58.057 113.643 58.6966 114.624C59.3367 115.601 60.0657 116.528 60.9502 117.264C61.3922 117.63 61.8742 117.946 62.3955 118.163C62.9155 118.381 63.4741 118.501 64.0336 118.482C64.593 118.468 65.1442 118.316 65.655 118.076C66.1667 117.834 66.6381 117.502 67.0705 117.124C67.9362 116.362 68.649 115.424 69.2781 114.438C69.905 113.448 70.447 112.4 70.9346 111.327C71.4222 110.253 71.855 109.153 72.2511 108.038C73.0405 105.807 73.6841 103.522 74.2392 101.215C74.793 98.907 75.2547 96.5764 75.6512 94.2336C76.4442 89.548 76.973 84.8165 77.3239 80.0733C77.6783 75.3297 77.8422 70.5713 77.8408 65.8133L77.8404 65.8142Z" fill="#007CBA"/>
</g>
<g style="mix-blend-mode:soft-light">
<path d="M101.838 65.8142C101.826 68.8843 101.637 71.9552 101.238 74.9983C100.838 78.0409 100.244 81.0579 99.4415 84.0165C97.8219 89.9254 95.375 95.6131 92.045 100.719C90.3798 103.269 88.4924 105.669 86.3825 107.846C84.2739 110.023 81.9397 111.974 79.4084 113.611C76.8766 115.244 74.1419 116.556 71.2772 117.446C68.4115 118.33 65.421 118.787 62.4288 118.787C59.4365 118.79 56.4456 118.334 53.5787 117.453C50.7126 116.565 47.9762 115.255 45.4422 113.622C42.9086 111.987 40.5718 110.037 38.4601 107.861C36.3476 105.685 34.4572 103.286 32.7889 100.735C29.4536 95.6293 27.0024 89.9398 25.3766 84.0282C24.5714 81.0683 23.9707 78.0508 23.5712 75.0055C23.1734 71.9597 22.9859 68.887 22.9767 65.8147C22.9876 62.7424 23.1765 59.6701 23.5756 56.6243C23.9769 53.5794 24.5793 50.5624 25.3863 47.6039C27.0151 41.6945 29.4694 36.0082 32.8064 30.9061C34.4751 28.3582 36.3656 25.9606 38.4781 23.7864C40.5898 21.6132 42.9249 19.6648 45.4584 18.0335C47.992 16.4045 50.7275 15.1025 53.5896 14.2142C56.4526 13.3318 59.44 12.8743 62.4288 12.8752C65.4175 12.8766 68.4041 13.3358 71.2662 14.22C74.127 15.1101 76.8608 16.4144 79.3922 18.0443C81.9235 19.677 84.256 21.6267 86.3646 23.8008C88.474 25.9754 90.3618 28.3735 92.0275 30.9214C95.3593 36.0226 97.8092 41.7071 99.4319 47.6143C100.235 50.5719 100.831 53.588 101.232 56.6301C101.633 59.6732 101.824 62.7437 101.837 65.8138L101.838 65.8142ZM101.201 65.8142C101.2 62.772 101.022 59.729 100.635 56.712C100.248 53.6959 99.6689 50.705 98.8834 47.7712C97.3123 41.9081 94.9409 36.2484 91.677 31.1611C90.046 28.62 88.1932 26.2259 86.1184 24.0509C84.0431 21.8781 81.7487 19.9185 79.2445 18.285C76.7394 16.6568 74.0346 15.344 71.197 14.4553C68.3581 13.5742 65.3956 13.115 62.4292 13.11C59.4628 13.1172 56.5008 13.5787 53.6632 14.4611C50.8269 15.3521 48.1238 16.6672 45.6209 18.2962C43.1189 19.9311 40.8272 21.8925 38.755 24.0657C36.6828 26.2417 34.8331 28.6362 33.2051 31.1773C29.9469 36.2641 27.5794 41.9216 26.0149 47.7825C24.4557 53.65 23.7 59.7344 23.7013 65.8142C23.7031 71.8941 24.4614 77.9775 26.0241 83.8438C27.5921 89.7028 29.9627 95.3571 33.2226 100.439C34.851 102.979 36.7012 105.371 38.7729 107.545C40.8452 109.715 43.136 111.675 45.6376 113.306C48.1396 114.932 50.8423 116.239 53.6746 117.13C56.5083 118.014 59.4663 118.477 62.4297 118.486C65.393 118.479 68.3515 118.018 71.1865 117.136C74.0201 116.248 76.7245 114.942 79.2287 113.317C81.7325 111.688 84.0255 109.73 86.1008 107.56C88.1757 105.387 90.0284 102.995 91.6604 100.456C94.926 95.3724 97.3005 89.7163 98.8746 83.855C99.6614 80.9221 100.242 77.9317 100.631 74.916C101.019 71.8995 101.198 68.8564 101.202 65.8147L101.201 65.8142Z" fill="#007CBA"/>
</g>
<g style="mix-blend-mode:soft-light">
<path d="M16.3539 44.849L28.2116 44.7698L40.0693 44.7244L63.7847 44.688L87.5001 44.728L99.3578 44.777L111.216 44.8625C111.231 44.8625 111.244 44.8755 111.243 44.8917C111.243 44.9075 111.231 44.9201 111.216 44.9205L99.3578 45.006L87.5001 45.055L63.7847 45.095L40.0693 45.0586L28.2116 45.0132L16.3539 44.934C16.3307 44.934 16.3123 44.9147 16.3123 44.8908C16.3123 44.8674 16.3311 44.8481 16.3539 44.8481V44.849Z" fill="#007CBA"/>
</g>
<g style="mix-blend-mode:soft-light">
<path d="M30.1103 24.4596L38.5289 24.3805L46.9475 24.3355C49.7535 24.3166 52.56 24.3184 55.3661 24.3126L63.7847 24.2991L80.6219 24.3391L89.0405 24.3881L97.4591 24.4736C97.4744 24.4736 97.4871 24.4866 97.4866 24.5028C97.4866 24.5186 97.4744 24.5311 97.4591 24.5316L89.0405 24.6171L80.6219 24.6661L63.7847 24.7061L55.3661 24.6926C52.56 24.6868 49.7535 24.689 46.9475 24.6697L38.5289 24.6247L30.1103 24.5455C30.0871 24.5455 30.0687 24.5257 30.0691 24.5024C30.0691 24.479 30.0875 24.4601 30.1103 24.4596Z" fill="#007CBA"/>
</g>
<g style="mix-blend-mode:soft-light">
<path d="M12.2335 65.2382L25.1212 65.159L38.0089 65.1136L63.7847 65.0771L89.5605 65.1172L102.448 65.1662L115.336 65.2517C115.352 65.2517 115.364 65.2647 115.364 65.2809C115.364 65.2966 115.352 65.3092 115.336 65.3097L102.448 65.3951L89.5605 65.4441L63.7847 65.4842L38.0089 65.4478L25.1212 65.4023L12.2335 65.3232C12.2103 65.3232 12.1919 65.3038 12.1919 65.28C12.1919 65.2566 12.2107 65.2373 12.2335 65.2373V65.2382Z" fill="#007CBA"/>
</g>
<g style="mix-blend-mode:soft-light">
<path d="M16.3539 85.6271L28.2116 85.5479L40.0693 85.5025L63.7847 85.4661L87.5001 85.5061L99.3578 85.5551L111.216 85.6406C111.231 85.6406 111.244 85.6536 111.243 85.6698C111.243 85.6855 111.231 85.6981 111.216 85.6986L99.3578 85.784L87.5001 85.8331L63.7847 85.8731L40.0693 85.8367L28.2116 85.7912L16.3539 85.7121C16.3307 85.7121 16.3123 85.6927 16.3123 85.6689C16.3123 85.6455 16.3311 85.6262 16.3539 85.6262V85.6271Z" fill="#007CBA"/>
</g>
<g style="mix-blend-mode:soft-light">
<path d="M99.1558 106.209H31.807C31.726 106.209 31.6603 106.142 31.6603 106.059C31.6603 105.975 31.726 105.908 31.807 105.908H99.1558C99.2369 105.908 99.3026 105.975 99.3026 106.059C99.3026 106.142 99.2369 106.209 99.1558 106.209Z" fill="#007CBA"/>
</g>
</g>
<path d="M103.589 131.467C103.588 131.434 103.591 131.4 103.599 131.366C104.091 129.361 106.536 128.112 106.536 128.112L107.505 128.19C108.062 129.957 107.99 131.041 107.901 131.523C107.898 131.537 107.894 131.55 107.891 131.563C107.092 131.636 105.447 131.684 103.589 131.467Z" fill="url(#paint1_linear_679_5432)"/>
<path d="M107.891 131.563C107.848 131.724 107.732 131.85 107.583 131.882C106.447 132.128 104.64 131.93 103.881 131.828C103.714 131.806 103.591 131.647 103.588 131.468C105.446 131.685 107.091 131.637 107.891 131.563H107.891Z" fill="#7D97F4"/>
<path d="M107.895 126.709L107.484 128.737C107.454 128.885 107.343 128.997 107.208 129.01C107.043 129.025 106.808 129.035 106.572 128.999C106.361 128.967 106.213 128.747 106.251 128.51L106.536 126.709H107.894H107.895Z" fill="url(#paint2_linear_679_5432)"/>
<path d="M99.3931 131.538C100.463 131.507 101.016 131.378 101.302 131.258C101.303 131.367 101.302 131.478 101.299 131.593C101.295 131.716 101.206 131.814 101.097 131.813L95.2228 131.774C95.0353 131.773 94.9257 131.55 95.0068 131.374C95.777 131.439 97.7388 131.585 99.3926 131.538H99.3931Z" fill="#7D97F4"/>
<path d="M95.0072 131.374C95.0142 131.358 95.0203 131.343 95.0304 131.328C95.5491 130.584 96.8705 129.102 99.4815 128.459L100.734 128.419C100.734 128.419 101.292 129.414 101.302 131.258C101.016 131.378 100.463 131.507 99.3931 131.538C97.7392 131.585 95.7774 131.439 95.0072 131.374Z" fill="url(#paint3_linear_679_5432)"/>
<path d="M101.022 126.53C101.003 126.624 100.742 128.067 100.641 128.627C100.617 128.76 100.516 128.857 100.396 128.864C100.182 128.876 99.836 128.878 99.5386 128.795C99.3782 128.75 99.2704 128.582 99.2818 128.396L99.422 126.114L101.023 126.53L101.022 126.53Z" fill="url(#paint4_linear_679_5432)"/>
<path d="M101.971 99.8891C101.971 99.8891 100.248 112.044 99.0049 126.509C98.9817 126.778 99.1907 127.013 99.4487 127.069C99.8286 127.151 100.387 127.248 100.849 127.235C101.096 127.228 101.302 127.04 101.344 126.79C101.768 124.24 104.791 110.552 105.584 107.54C105.584 107.54 106.495 120.336 106.204 126.975C106.196 127.14 106.314 127.283 106.474 127.302C106.717 127.331 107.105 127.353 107.598 127.299C107.786 127.279 107.937 127.133 107.964 126.941C108.266 124.783 110.002 111.935 109.928 102.68C109.924 102.159 109.331 97.8701 109.331 97.8701L101.971 99.8891Z" fill="url(#paint5_linear_679_5432)"/>
<path d="M87.2015 88.2677C87.2015 88.2677 87.6838 86.9643 88.2472 87.0835C88.8106 87.2027 89.427 87.647 89.427 87.647L90.3322 88.9037C90.3322 88.9037 87.7912 89.9314 86.8974 89.3422C86.8974 89.3422 84.3021 89.8027 81.0247 89.2504C81.4991 88.2223 81.7817 87.1928 81.9477 86.3936C83.6077 87.3583 85.3956 88.0788 87.201 88.2673L87.2015 88.2677Z" fill="url(#paint6_linear_679_5432)"/>
<path d="M73.4538 78.8127C73.4538 78.8127 77.1698 83.6175 81.9482 86.3943C81.7821 87.1936 81.4995 88.2231 81.0251 89.2512C78.5463 88.8338 75.6772 87.8372 73.2452 85.6226L73.4542 78.8127H73.4538Z" fill="#FF6E01"/>
<path d="M101.304 79.448L101.073 85.8085C100.417 86.0401 99.7935 86.22 99.1998 86.3545C98.8283 85.1262 98.0099 83.6191 97.3401 82.4983C99.8018 81.605 101.304 79.448 101.304 79.448Z" fill="#BDD0FB"/>
<path d="M89.0143 79.3398C92.3908 83.0823 95.1241 83.3027 97.3405 82.4985C98.0103 83.6193 98.8287 85.1265 99.2002 86.3547C90.1832 88.3958 88.0597 79.8854 88.0597 79.8854L89.0148 79.3398H89.0143Z" fill="url(#paint7_linear_679_5432)"/>
<path d="M88.3296 78.9424C88.3296 78.9424 87.9406 78.5138 87.2208 78.6483C86.501 78.7832 85.86 79.0396 85.4114 78.6483C84.9628 78.257 84.8051 78.7823 84.8051 78.7823L86.1483 79.8307L88.3292 78.9429L88.3296 78.9424Z" fill="url(#paint8_linear_679_5432)"/>
<path d="M89.1327 79.6754C89.1327 79.6754 88.8663 78.5312 88.0628 78.6881C87.2598 78.8451 85.4364 79.8629 84.9663 79.6754C84.4962 79.4878 83.8956 79.0389 83.5872 79.1977L84.13 79.8908C84.13 79.8908 82.7342 79.0641 82.4937 79.5719L84.8165 80.914C84.8165 80.914 88.2148 80.5645 89.1322 79.6754H89.1327Z" fill="url(#paint9_linear_679_5432)"/>
<path d="M109.591 100.59C109.768 100.525 109.891 100.36 109.911 100.168C110.14 97.8862 111.249 83.7359 104.245 77.9147C104.245 77.9147 103.843 76.8357 100.542 79.4879C97.2402 82.1402 99.0079 84.9197 99.7983 88.7539C100.755 93.3936 102.433 97.186 101.69 100.041C101.639 100.238 101.74 100.445 101.927 100.516C104.491 101.486 107.046 101.518 109.591 100.59Z" fill="white"/>
<path d="M101.513 73.6748C101.515 73.8763 104.312 77.9542 104.312 77.9542C104.312 77.9542 103.81 78.9693 101.414 79.7933L99.3448 75.4266L101.513 73.6743V73.6748Z" fill="url(#paint10_linear_679_5432)"/>
<path d="M102.613 87.6771C102.613 87.6771 97.3063 92.2394 91.5763 90.2488C91.221 90.1251 90.8324 90.1521 90.5008 90.332L88.8535 91.2252C88.1622 91.5999 87.3057 91.3538 86.9049 90.6648C86.6762 90.2717 86.4808 89.8229 86.4418 89.3929L89.6649 88.0531L89.4274 87.6474C89.4274 87.6474 91.0011 87.5106 91.4129 88.6683C91.4129 88.6683 94.4104 89.9483 99.4657 84.24C99.4657 84.24 101.76 86.2423 102.613 87.6771Z" fill="url(#paint11_linear_679_5432)"/>
<path d="M102.898 87.6299C102.916 87.6299 102.933 87.625 102.949 87.6137C105.183 86.0639 106.234 83.5627 106.245 83.5376C106.265 83.4899 106.243 83.4355 106.197 83.4152C106.15 83.395 106.097 83.417 106.078 83.4647C106.068 83.4894 105.036 85.9411 102.847 87.4595C102.806 87.4882 102.795 87.5463 102.823 87.589C102.84 87.6155 102.869 87.6299 102.898 87.6299Z" fill="#BDD0FB"/>
<path d="M99.5704 84.1628C99.6002 84.1628 99.6296 84.1475 99.6471 84.12C99.6537 84.1092 100.336 83.0186 101.637 80.6285C102.037 79.8936 102.562 79.4281 103.198 79.2455C104.252 78.9433 105.268 79.5235 105.278 79.5293C105.322 79.5541 105.377 79.5392 105.402 79.4942C105.427 79.4493 105.412 79.3926 105.368 79.367C105.324 79.3413 104.279 78.7413 103.151 79.0656C102.465 79.2617 101.902 79.7574 101.478 80.5377C100.181 82.9214 99.5012 84.0085 99.4942 84.0193C99.467 84.0625 99.4793 84.12 99.5213 84.1479C99.5367 84.1583 99.5538 84.1628 99.5704 84.1628Z" fill="#BDD0FB"/>
<path d="M99.3107 71.3379C99.3107 71.3379 98.3153 73.6847 98.2487 74.9166C98.1817 76.1485 97.9232 76.9477 99.3107 77.196C100.698 77.4443 101.867 76.7346 102.5 75.5076C102.5 75.5076 103.492 73.6168 103.269 72.8428C103.047 72.0683 99.3107 71.3383 99.3107 71.3383V71.3379Z" fill="url(#paint12_linear_679_5432)"/>
<path d="M102.026 74.6251L101.947 74.5896C101.846 74.5441 101.804 74.4214 101.854 74.3211C102.05 73.9329 102.431 73.0437 101.939 72.8364C101.304 72.5692 98.7889 72.0426 98.2461 71.1264C97.7248 70.2458 98.1865 69.1092 98.8814 68.7859C98.9278 68.7643 98.9826 68.7814 99.0067 68.8277L99.0645 68.9401C99.1039 69.017 99.2148 69.0053 99.2384 68.9217C99.2612 68.8416 99.365 68.8259 99.408 68.8965C99.5749 69.1704 100.025 69.6152 101.23 69.8433C102.941 70.1675 104.073 70.8786 104.101 72.093C104.103 72.1699 104.183 72.213 104.247 72.173C104.373 72.0938 104.575 72.057 104.846 72.2899C105.316 72.6956 105.123 73.7481 104.093 74.6139C104.044 74.6548 104.044 74.7335 104.097 74.769C104.284 74.8941 104.563 75.1909 103.841 75.5867C103.095 75.9964 102.537 75.9627 102.323 75.9263C102.269 75.9173 102.235 75.8642 102.246 75.8098L102.476 74.7425C102.489 74.6822 102.444 74.6251 102.384 74.6251H102.027H102.026Z" fill="url(#paint13_linear_679_5432)"/>
<path d="M101.983 74.8505C101.983 74.8505 102.363 73.3515 103.018 73.7715C103.672 74.1921 102.678 75.4514 102.151 75.5076L101.983 74.8505Z" fill="url(#paint14_linear_679_5432)"/>
<path d="M90.5008 90.3317C90.5008 90.3317 89.1524 91.6859 88.8921 91.4885C88.7997 91.4183 88.5657 91.1638 88.3392 90.88C88.1793 90.6798 88.1627 90.3969 88.2998 90.1797L88.6179 89.6759C88.921 89.1961 89.5699 89.0953 89.99 89.4709C90.2021 89.6602 90.3944 89.9346 90.5004 90.3317H90.5008Z" fill="url(#paint15_linear_679_5432)"/>
<path d="M68.82 100.108C69.5468 96.5643 70.2732 94.5129 72.7064 87.7962C73.4722 85.6823 74.1675 83.5437 73.8314 81.3152L73.4538 78.8122C73.4538 78.8122 68.7254 77.1697 63.4834 78.743C63.4834 78.743 56.3323 81.9322 61.1895 97.6833C63.3787 100.198 65.9412 100.915 68.8195 100.108H68.82Z" fill="#FF6E01"/>
<path d="M72.649 75.6182L71.4228 78.6424C71.3452 78.8335 71.1779 78.9694 70.9794 79.0045C70.2723 79.129 68.5628 79.3233 67.44 78.5655C67.3063 78.4751 67.2722 78.2884 67.3637 78.1535L69.6292 74.8149L72.6495 75.6187L72.649 75.6182Z" fill="url(#paint16_linear_679_5432)"/>
<path d="M69.6248 89.83C69.7935 89.8759 69.8776 90.0706 69.797 90.2294L66.2496 97.2119C66.1896 97.3297 66.0573 97.3882 65.9329 97.3513L54.3297 93.912C54.1852 93.8693 54.1019 93.7141 54.1435 93.5657L56.1422 86.4622C56.1833 86.3165 56.3301 86.2306 56.4729 86.2697L69.6248 89.8296V89.83Z" fill="#91B3FA"/>
<path d="M68.8765 89.0092C69.0425 89.0497 69.1367 89.2305 69.078 89.3951L66.2386 97.3136C66.1869 97.4575 66.0358 97.5362 65.8921 97.4935L54.324 94.0645C54.1798 94.0218 54.0927 93.872 54.1246 93.7218L55.7277 86.1006C55.7614 85.9405 55.9169 85.8398 56.0724 85.878L68.8769 89.0097L68.8765 89.0092Z" fill="#BDD0FB"/>
<path d="M67.8688 88.21C68.0716 88.2415 68.2053 88.4439 68.1588 88.649L66.2303 97.1971C66.1847 97.3991 65.9836 97.5205 65.7895 97.4629L54.3967 94.0861C54.2135 94.0317 54.1058 93.8379 54.1535 93.6485L55.9055 86.671C55.9506 86.4915 56.121 86.3759 56.2993 86.4038L67.8688 88.21Z" fill="url(#paint17_linear_679_5432)"/>
<path d="M58.6463 91.4699C57.7622 84.6124 62.9095 79.3398 62.9095 79.3398L65.9723 83.0054C63.6473 85.981 62.5419 88.7074 62.0368 90.8487C61.3674 90.6486 59.7551 90.3324 58.6463 91.4703V91.4699Z" fill="#FF6E01"/>
<path d="M62.1083 90.8664L61.9655 90.8313C62.5972 88.153 63.926 85.5039 65.915 82.9587L66.0293 83.0527C64.0539 85.5808 62.7343 88.2101 62.1083 90.8669V90.8664Z" fill="url(#paint18_linear_679_5432)"/>
<path d="M62.0368 90.8485C61.5676 92.8387 61.6167 94.3238 61.6881 95.0326C61.7148 95.2997 61.9243 95.5084 62.1854 95.5273C62.482 95.5485 62.8855 95.5768 63.2464 95.5979C63.6429 95.6213 64.0832 95.3641 64.3776 95.1491C64.5279 95.0393 64.7224 95.2102 64.6383 95.3789C64.4188 95.8201 63.8611 96.2128 63.4769 96.4439C63.3371 96.528 63.3634 96.7426 63.5189 96.788L65.1623 97.2661C62.4622 99.8774 60.6796 96.9558 60.6796 96.9558C59.4875 95.065 58.8715 93.216 58.6464 91.47C59.7552 90.3321 61.3674 90.6483 62.0368 90.8485Z" fill="url(#paint19_linear_679_5432)"/>
<path d="M71.3812 70.9915C71.4328 71.0414 73.5546 75.3186 73.5546 75.3186L71.1498 76.5105L68.5519 72.7631C68.5519 72.7631 70.519 70.1585 71.3812 70.9915Z" fill="url(#paint20_linear_679_5432)"/>
<path d="M69.6445 73.2129L70.844 75.2656C70.8624 75.2966 70.8839 75.3249 70.9097 75.3497C71.0526 75.486 71.541 75.8831 71.9187 75.3425C72.2407 74.8819 72.5425 74.4632 72.8663 74.2905C73.0551 74.1898 73.2878 74.2703 73.3837 74.4655C73.5813 74.8675 73.9642 75.687 74.2047 76.4646C74.2652 76.6594 74.167 76.8685 73.9826 76.9454C73.4954 77.1478 72.5333 77.5144 71.679 77.6354C71.5388 77.6552 71.4 77.5944 71.3163 77.477C70.9487 76.9603 69.913 75.5161 69.5599 75.1545C69.2314 74.8185 68.6255 74.9453 68.3525 75.0259C68.2487 75.0564 68.1383 75.0416 68.0463 74.9845C67.7694 74.8131 67.2857 74.3863 67.7282 73.664C67.8382 73.4845 67.7821 73.2453 67.6095 73.1288C67.3002 72.9201 66.9646 72.5279 67.2844 71.8928C67.6082 71.2501 68.1865 71.1921 68.5799 71.2416C68.7543 71.2636 68.9308 71.1696 68.9979 71.0032C69.0276 70.929 69.0863 70.866 69.1959 70.8431C69.4022 70.7999 69.5376 70.6065 69.4973 70.3942C69.4276 70.0304 69.4802 69.5581 70.0458 69.2388C71.0832 68.6532 71.9923 69.6076 72.2236 70.4131C72.4549 71.2186 71.2944 71.788 70.5649 71.8829C70.0287 71.9526 69.7352 72.5535 69.6169 72.8675C69.574 72.9812 69.5845 73.1085 69.6458 73.2133L69.6445 73.2129Z" fill="url(#paint21_linear_679_5432)"/>
<path d="M70.0103 75.9083C70.0103 75.9083 69.549 74.5221 68.9584 74.5734C68.3679 74.6242 67.903 75.2283 68.6351 75.9074C69.5455 76.752 70.0107 75.9087 70.0107 75.9087L70.0103 75.9083Z" fill="url(#paint22_linear_679_5432)"/>
<path d="M69.2852 131.338C68.1431 131.439 66.1611 131.604 64.5984 131.675C63.6591 131.717 63.1185 131.622 62.807 131.495C62.8074 131.531 62.8083 131.565 62.8101 131.596C62.8175 131.765 62.9511 131.9 63.1172 131.91C66.07 132.079 68.4178 131.968 69.2541 131.916C69.4272 131.905 69.5301 131.712 69.4416 131.561C69.3974 131.486 69.344 131.411 69.2857 131.338H69.2852Z" fill="#7D97F4"/>
<path d="M64.5989 131.674C66.1616 131.604 68.1435 131.439 69.2857 131.338C68.1628 129.924 64.5989 128.97 64.5989 128.97H63.5921C62.8999 129.995 62.7996 130.971 62.807 131.495C63.1185 131.623 63.6591 131.717 64.5984 131.674H64.5989Z" fill="url(#paint23_linear_679_5432)"/>
<path d="M63.4226 127.283L63.5168 129.197C63.5269 129.405 63.678 129.579 63.8804 129.608C64.0815 129.638 64.3509 129.642 64.6366 129.544C64.8123 129.484 64.9428 129.332 64.9752 129.146L65.3008 127.283H63.423H63.4226Z" fill="url(#paint24_linear_679_5432)"/>
<path d="M50.3486 131.66C49.8536 131.589 49.6293 131.325 49.5355 131.042L49.5338 131.05C49.4611 131.348 49.6297 131.657 49.9675 131.803C50.3758 131.981 50.8218 132.011 51.1683 131.996C51.5399 131.981 51.8811 131.823 52.0686 131.57L52.0713 131.566C51.698 131.755 51.1745 131.778 50.3486 131.66V131.66Z" fill="#7D97F4"/>
<path d="M52.6836 127.271H51.8534C50.589 127.245 49.7951 129.982 49.5349 131.043C49.6287 131.325 49.853 131.589 50.348 131.66C51.1739 131.779 51.6978 131.756 52.0707 131.567C52.7537 130.644 53.0923 129.292 53.2553 128.504C53.4406 127.606 52.6831 127.271 52.6831 127.271H52.6836Z" fill="url(#paint25_linear_679_5432)"/>
<path d="M51.9604 125.495L51.4995 127.377C51.443 127.608 51.5508 127.847 51.7585 127.956C52.0165 128.092 52.3793 128.235 52.7131 128.194C52.8699 128.174 53.0005 128.061 53.0522 127.909L53.7291 125.929L51.9609 125.495H51.9604Z" fill="url(#paint26_linear_679_5432)"/>
<path d="M51.4106 126.039C51.9841 126.561 53.8496 126.63 53.8496 126.63C60.5688 110.074 63.37 105.516 63.37 105.516C62.3996 111.765 63.161 127.805 63.161 127.805C64.2699 128.308 65.6994 127.805 65.6994 127.805C65.7896 117.575 67.1925 106.582 69.0018 99.5481C64.4604 99.4433 61.9926 98.4269 61.204 97.7869C57.4184 104.052 51.4111 126.039 51.4111 126.039L51.4106 126.039Z" fill="url(#paint27_linear_679_5432)"/>
<path d="M20.1666 45.6499C22.2878 43.4723 22.2878 39.9417 20.1666 37.7641C18.0454 35.5865 14.6063 35.5865 12.4851 37.7641C10.364 39.9417 10.364 43.4723 12.4851 45.6499C14.6063 47.8276 18.0454 47.8276 20.1666 45.6499Z" fill="url(#paint28_linear_679_5432)"/>
<path d="M21.7479 41.2327H10.8943C10.8943 41.2327 10.4619 44.4156 15.3095 52.8927C15.5211 53.2624 15.9075 53.5273 16.3255 53.5278C16.7434 53.5278 17.1303 53.2449 17.3419 52.8751C22.1891 44.3972 21.7479 41.2327 21.7479 41.2327Z" fill="url(#paint29_linear_679_5432)"/>
<path d="M16.4206 53.753V53.7273H16.3251C15.8524 53.7273 15.4112 53.4885 15.1733 53.0734C12.3397 48.1179 11.3014 44.9988 10.9294 43.2457C10.8234 42.8422 10.7625 42.4541 10.7432 42.0489C10.7104 41.6342 10.7353 41.4633 10.7384 41.4448L10.7529 41.3576C10.9719 38.3622 13.3999 36.032 16.326 36.032C19.2521 36.032 21.7405 38.3964 21.9061 41.4156C21.91 41.4552 21.9184 41.5555 21.9153 41.7232V41.7439C21.9153 42.2917 21.84 42.8341 21.6914 43.3563C21.3068 45.1081 20.3105 48.2106 17.5251 53.0819C17.2859 53.5002 16.8605 53.753 16.4206 53.753ZM11.0425 41.5339C11.0425 41.5339 11.0438 41.7997 11.0578 41.9792V42.0097C11.0762 42.3938 11.134 42.7793 11.2348 43.162L11.2365 43.1764C11.6028 44.9057 12.6306 48.0037 15.445 52.9259C15.6263 53.2429 16.0105 53.4413 16.372 53.4413L16.4197 53.6045V53.4426C16.5665 53.4426 17.0778 53.2443 17.2605 52.9245C20.028 48.0837 21.1123 45.0078 21.4054 43.2794V43.2695C21.5521 42.7752 21.585 42.2616 21.585 41.743L21.5517 41.7201V41.7183C21.5517 41.5568 21.5701 41.4696 21.5675 41.4466L21.5784 41.4372C21.4242 38.5875 19.1171 36.3549 16.319 36.3549C13.5208 36.3549 11.2164 38.556 11.0569 41.4309L11.0512 41.533H11.0411L11.0425 41.5339Z" fill="url(#paint30_linear_679_5432)"/>
<path opacity="0.8" d="M19.3954 42.4268C19.7933 40.6961 18.7492 38.962 17.0634 38.5535C15.3775 38.145 13.6883 39.2169 13.2904 40.9476C12.8925 42.6783 13.9366 44.4124 15.6225 44.8209C17.3083 45.2294 18.9975 44.1575 19.3954 42.4268Z" fill="white"/>
<path d="M16.3435 45.0888C14.5175 45.0888 13.0319 43.5636 13.0319 41.689C13.0319 39.8144 14.5175 38.2893 16.3435 38.2893C18.1695 38.2893 19.6551 39.8144 19.6551 41.689C19.6551 43.5636 18.1695 45.0888 16.3435 45.0888ZM16.3435 38.6491C14.7107 38.6491 13.3823 40.0128 13.3823 41.689C13.3823 43.3653 14.7107 44.729 16.3435 44.729C17.9763 44.729 19.3046 43.3653 19.3046 41.689C19.3046 40.0128 17.9763 38.6491 16.3435 38.6491Z" fill="url(#paint31_linear_679_5432)"/>
<path opacity="0.7" d="M13.3684 38.337C13.3535 38.337 13.339 38.3307 13.3285 38.3181C13.3097 38.2956 13.3123 38.2614 13.3342 38.2421C14.2152 37.4653 15.3412 37.0376 16.5039 37.0376C16.5328 37.0376 16.5565 37.0619 16.5565 37.0916C16.5565 37.1213 16.5328 37.1455 16.5039 37.1455C15.3661 37.1455 14.2647 37.5643 13.4025 38.3239C13.3925 38.3325 13.3806 38.337 13.3684 38.337Z" fill="white"/>
<path opacity="0.7" d="M11.689 42.0884C11.6601 42.0884 11.6365 42.0641 11.6365 42.0345C11.6365 41.1021 11.8884 40.1927 12.3646 39.4043C12.3799 39.3791 12.4124 39.371 12.4369 39.3867C12.4614 39.4025 12.4693 39.4357 12.454 39.4609C11.9878 40.2323 11.7416 41.1223 11.7416 42.0345C11.7416 42.0641 11.718 42.0884 11.689 42.0884Z" fill="white"/>
<path d="M44.4422 20.981C46.5634 18.8034 46.5634 15.2728 44.4422 13.0952C42.321 10.9176 38.8819 10.9176 36.7608 13.0952C34.6396 15.2728 34.6396 18.8034 36.7608 20.981C38.8819 23.1586 42.321 23.1586 44.4422 20.981Z" fill="url(#paint32_linear_679_5432)"/>
<path d="M46.0238 16.5449H35.1702C35.1702 16.5449 34.7378 19.7373 39.5854 28.2144C39.797 28.5841 40.1834 28.8539 40.6014 28.8539C41.0193 28.8539 41.4062 28.5639 41.6178 28.1942C46.4649 19.7162 46.0238 16.5449 46.0238 16.5449Z" fill="url(#paint33_linear_679_5432)"/>
<path d="M40.7626 29.0836V29.1898H40.6013C40.1286 29.1898 39.6875 28.8853 39.4496 28.4697C36.6159 23.5142 35.5776 20.3623 35.2057 18.6092C35.0996 18.2057 35.0387 17.8009 35.0195 17.3957C34.9866 16.981 35.0116 16.8016 35.0147 16.7831L35.0291 16.6914C35.2482 13.696 37.6761 11.3635 40.6022 11.3635C43.5283 11.3635 46.0167 13.727 46.1823 16.7463C46.1863 16.7858 46.1946 16.8857 46.1915 17.0534V17.0737C46.1915 17.6215 46.1162 18.1639 45.9677 18.6861C45.583 20.4379 44.6196 23.5399 41.8342 28.4117C41.595 28.8299 41.2024 29.0827 40.7626 29.0827V29.0836ZM35.3187 16.8461C35.3187 16.8461 35.32 17.1214 35.334 17.3008V17.3363C35.3524 17.7204 35.4103 18.1081 35.511 18.4909L35.5128 18.5062C35.879 20.2355 36.9068 23.3343 39.7212 28.2561C39.9026 28.5731 40.3196 28.7719 40.6811 28.7719L40.7617 28.9356V28.7737C40.9085 28.7737 41.4197 28.5754 41.6024 28.2556C44.3699 23.4148 45.4542 20.3389 45.7473 18.6105V18.6006C45.7473 18.1063 45.8538 17.5927 45.8538 17.0741L45.7473 17.0512V17.0494C45.7473 16.8879 45.806 16.8007 45.8038 16.7777L45.8349 16.7683C45.6807 13.9186 43.3837 11.686 40.5856 11.686C37.7874 11.686 35.4878 13.8777 35.3288 16.7525V16.8452H35.3183L35.3187 16.8461Z" fill="url(#paint34_linear_679_5432)"/>
<path opacity="0.8" d="M43.67 17.7586C44.0679 16.0279 43.0238 14.2937 41.3379 13.8853C39.6521 13.4768 37.9628 14.5486 37.5649 16.2794C37.167 18.0101 38.2111 19.7442 39.897 20.1527C41.5829 20.5612 43.2721 19.4893 43.67 17.7586Z" fill="white"/>
<path d="M40.6192 20.4196C38.7932 20.4196 37.3076 18.8945 37.3076 17.0199C37.3076 15.1453 38.7932 13.6201 40.6192 13.6201C42.4453 13.6201 43.9309 15.1453 43.9309 17.0199C43.9309 18.8945 42.4453 20.4196 40.6192 20.4196ZM40.6192 13.9799C38.9864 13.9799 37.6581 15.3436 37.6581 17.0199C37.6581 18.6961 38.9864 20.0598 40.6192 20.0598C42.2521 20.0598 43.5804 18.6961 43.5804 17.0199C43.5804 15.3436 42.2521 13.9799 40.6192 13.9799Z" fill="url(#paint35_linear_679_5432)"/>
<path opacity="0.7" d="M37.6441 13.6678C37.6292 13.6678 37.6148 13.6615 37.6043 13.6489C37.5854 13.6264 37.5881 13.5922 37.61 13.5729C38.491 12.7961 39.6169 12.3684 40.7796 12.3684C40.8086 12.3684 40.8322 12.3927 40.8322 12.4224C40.8322 12.4521 40.8086 12.4764 40.7796 12.4764C39.6419 12.4764 38.5405 12.8951 37.6783 13.6547C37.6682 13.6633 37.6564 13.6678 37.6441 13.6678Z" fill="white"/>
<path opacity="0.7" d="M35.9648 17.4192C35.9359 17.4192 35.9122 17.395 35.9122 17.3653C35.9122 16.4329 36.1641 15.5235 36.6404 14.7351C36.6557 14.7099 36.6881 14.7018 36.7126 14.7175C36.7372 14.7333 36.7451 14.7666 36.7297 14.7917C36.2636 15.5631 36.0174 16.4532 36.0174 17.3653C36.0174 17.395 35.9937 17.4192 35.9648 17.4192Z" fill="white"/>
<path d="M32.2622 52.4083C35.262 52.4083 37.6938 49.8977 37.6938 46.8007C37.6938 43.7037 35.262 41.1931 32.2622 41.1931C29.2624 41.1931 26.8306 43.7037 26.8306 46.8007C26.8306 49.8977 29.2624 52.4083 32.2622 52.4083Z" fill="url(#paint36_linear_679_5432)"/>
<path d="M37.6839 46.351H26.8303C26.8303 46.351 26.3979 49.538 31.2456 58.0628C31.4572 58.4347 31.8436 58.6942 32.2615 58.6942C32.6795 58.6942 33.0663 58.4199 33.2779 58.0479C38.1251 49.5223 37.6839 46.3506 37.6839 46.3506V46.351Z" fill="url(#paint37_linear_679_5432)"/>
<path d="M32.4038 58.9142V58.9965H32.261C31.7883 58.9965 31.3471 58.7024 31.1092 58.2845C28.2756 53.3012 27.2373 50.1376 26.8653 48.3745C26.7593 47.9689 26.6984 47.565 26.6791 47.1575C26.6463 46.7406 26.6713 46.5616 26.6743 46.5431L26.6888 46.4518C26.9078 43.4398 29.3358 41.0947 32.2619 41.0947C35.188 41.0947 37.6764 43.4717 37.842 46.508C37.846 46.5476 37.8543 46.6484 37.8512 46.817V46.8377C37.8512 47.3887 37.7759 47.9338 37.6273 48.4591C37.2427 50.2208 36.2701 53.3403 33.4846 58.2396C33.2454 58.6601 32.8437 58.9142 32.4038 58.9142ZM26.9784 46.6524C26.9784 46.6524 26.9797 46.9065 26.9937 47.0873V47.1116C27.0121 47.498 27.0699 47.8821 27.1707 48.267L27.1724 48.2796C27.5387 50.0189 28.5665 53.1335 31.3809 58.0831C31.5622 58.4019 31.9701 58.6007 32.3316 58.6012L32.403 58.7653V58.6025C32.5497 58.6025 33.061 58.4028 33.2437 58.0817C36.0112 53.214 37.0955 50.1205 37.3886 48.3822V48.3723C37.5353 47.8753 37.5682 47.359 37.5682 46.8373L37.5349 46.8143V46.8125C37.5349 46.6502 37.5297 46.5625 37.527 46.5395L37.5261 46.5301C37.3719 43.6642 35.0592 41.4195 32.2606 41.4195C29.462 41.4195 27.1549 43.6462 26.9955 46.5368L26.9871 46.6524H26.9771H26.9784Z" fill="url(#paint38_linear_679_5432)"/>
<path opacity="0.8" d="M32.2794 50.0206C34.0116 50.0206 35.4158 48.5709 35.4158 46.7827C35.4158 44.9945 34.0116 43.5449 32.2794 43.5449C30.5473 43.5449 29.1431 44.9945 29.1431 46.7827C29.1431 48.5709 30.5473 50.0206 32.2794 50.0206Z" fill="white"/>
<path d="M32.2794 50.2015C30.4534 50.2015 28.9678 48.6678 28.9678 46.7829C28.9678 44.8979 30.4534 43.3643 32.2794 43.3643C34.1054 43.3643 35.591 44.8979 35.591 46.7829C35.591 48.6678 34.1054 50.2015 32.2794 50.2015ZM32.2794 43.7259C30.6466 43.7259 29.3183 45.0972 29.3183 46.7829C29.3183 48.4686 30.6466 49.8399 32.2794 49.8399C33.9122 49.8399 35.2405 48.4686 35.2405 46.7829C35.2405 45.0972 33.9122 43.7259 32.2794 43.7259Z" fill="url(#paint39_linear_679_5432)"/>
<path opacity="0.7" d="M29.3043 43.4115C29.2894 43.4115 29.2749 43.4052 29.2644 43.3926C29.2456 43.3697 29.2482 43.3355 29.2701 43.3162C30.1511 42.535 31.2771 42.105 32.4398 42.105C32.4687 42.105 32.4924 42.1293 32.4924 42.1594C32.4924 42.1895 32.4687 42.2138 32.4398 42.2138C31.302 42.2138 30.2006 42.6348 29.3385 43.3989C29.3284 43.4079 29.3166 43.412 29.3043 43.412V43.4115Z" fill="white"/>
<path opacity="0.7" d="M27.625 47.1839C27.596 47.1839 27.5724 47.1596 27.5724 47.1295C27.5724 46.1917 27.8243 45.2769 28.3005 44.4844C28.3158 44.4588 28.3483 44.4512 28.3728 44.4669C28.3973 44.4826 28.4052 44.5164 28.3899 44.5416C27.9237 45.3174 27.6775 46.212 27.6775 47.1295C27.6775 47.1596 27.6539 47.1839 27.625 47.1839Z" fill="white"/>
<path d="M109.727 43.1167C111.848 40.9391 111.848 37.4085 109.727 35.2309C107.606 33.0533 104.167 33.0533 102.046 35.2309C99.9246 37.4085 99.9246 40.9391 102.046 43.1167C104.167 45.2944 107.606 45.2944 109.727 43.1167Z" fill="url(#paint40_linear_679_5432)"/>
<path d="M111.308 38.6736H100.455C100.455 38.6736 100.022 41.8691 104.87 50.3467C105.082 50.7164 105.468 50.988 105.886 50.988C106.304 50.988 106.691 50.6957 106.902 50.3255C111.75 41.8475 111.308 38.6736 111.308 38.6736Z" fill="url(#paint41_linear_679_5432)"/>
<path d="M106.015 51.2192V51.3191H105.886C105.413 51.3191 104.972 51.0177 104.734 50.6026C101.901 45.6472 100.862 42.497 100.49 40.7439C100.384 40.3404 100.323 39.9366 100.304 39.5313C100.271 39.1166 100.296 38.9376 100.299 38.9192L100.314 38.8279C100.533 35.8325 102.961 33.5005 105.887 33.5005C108.813 33.5005 111.301 35.864 111.467 38.8832C111.471 38.9228 111.479 39.0226 111.476 39.1904V39.2106C111.476 39.7584 111.401 40.3009 111.252 40.823C110.868 42.5748 109.889 45.6768 107.103 50.5486C106.864 50.9669 106.456 51.2197 106.016 51.2197L106.015 51.2192ZM100.603 38.975C100.603 38.975 100.605 39.2534 100.619 39.4333V39.4706C100.637 39.8547 100.695 40.2433 100.796 40.626L100.797 40.6418C101.164 42.3711 102.191 45.4699 105.006 50.3921C105.187 50.7092 105.589 50.908 105.95 50.908L106.015 51.0717V50.9098C106.162 50.9098 106.673 50.7114 106.856 50.3917C109.623 45.5509 110.707 42.475 111 40.7466V40.7367C111.147 40.2424 111.18 39.7288 111.18 39.2102L111.147 39.1873V39.1855C111.147 39.024 111.149 38.9367 111.146 38.9138L111.149 38.9044C110.994 36.0547 108.683 33.8221 105.885 33.8221C103.087 33.8221 100.78 36.0106 100.62 38.8855L100.613 38.9745H100.603L100.603 38.975Z" fill="url(#paint42_linear_679_5432)"/>
<path opacity="0.8" d="M108.122 41.4325C109.347 40.1751 109.347 38.1364 108.122 36.879C106.897 35.6216 104.911 35.6216 103.686 36.879C102.461 38.1364 102.461 40.1751 103.686 41.4325C104.911 42.6899 106.897 42.6899 108.122 41.4325Z" fill="white"/>
<path d="M105.904 42.5553C104.078 42.5553 102.592 41.0302 102.592 39.1556C102.592 37.281 104.078 35.7559 105.904 35.7559C107.73 35.7559 109.216 37.281 109.216 39.1556C109.216 41.0302 107.73 42.5553 105.904 42.5553ZM105.904 36.1157C104.271 36.1157 102.943 37.4793 102.943 39.1556C102.943 40.8319 104.271 42.1955 105.904 42.1955C107.537 42.1955 108.865 40.8319 108.865 39.1556C108.865 37.4793 107.537 36.1157 105.904 36.1157Z" fill="url(#paint43_linear_679_5432)"/>
<path opacity="0.7" d="M102.929 35.8033C102.914 35.8033 102.9 35.797 102.889 35.7844C102.87 35.7619 102.873 35.7277 102.895 35.7084C103.776 34.9316 104.902 34.5039 106.064 34.5039C106.093 34.5039 106.117 34.5282 106.117 34.5579C106.117 34.5876 106.093 34.6118 106.064 34.6118C104.927 34.6118 103.825 35.0306 102.963 35.7902C102.953 35.7988 102.941 35.8033 102.929 35.8033Z" fill="white"/>
<path opacity="0.7" d="M101.25 39.5547C101.221 39.5547 101.197 39.5304 101.197 39.5008C101.197 38.5684 101.449 37.659 101.925 36.8706C101.94 36.8454 101.973 36.8373 101.997 36.853C102.022 36.8688 102.03 36.9021 102.015 36.9272C101.548 37.6986 101.302 38.5887 101.302 39.5008C101.302 39.5304 101.279 39.5547 101.25 39.5547Z" fill="white"/>
<path d="M67.7177 33.9292C69.8389 31.7516 69.8389 28.221 67.7177 26.0434C65.5966 23.8658 62.1575 23.8658 60.0363 26.0434C57.9151 28.221 57.9151 31.7516 60.0363 33.9292C62.1575 36.1069 65.5966 36.1069 67.7177 33.9292Z" fill="url(#paint44_linear_679_5432)"/>
<path d="M69.2983 29.4907H58.4447C58.4447 29.4907 58.0123 32.684 62.8599 41.1615C63.0715 41.5312 63.4579 41.8015 63.8759 41.8015C64.2938 41.8015 64.6807 41.511 64.8923 41.1409C69.7395 32.6629 69.2983 29.4907 69.2983 29.4907Z" fill="url(#paint45_linear_679_5432)"/>
<path d="M64.0774 42.032V42.1363H63.8759C63.4032 42.1363 62.962 41.8327 62.7241 41.4176C59.8905 36.4621 58.8522 33.3107 58.4802 31.5575C58.3742 31.1541 58.3133 30.7497 58.294 30.3445C58.2611 29.9298 58.2861 29.7508 58.2892 29.7319L58.3036 29.6406C58.5227 26.6452 60.9507 24.3132 63.8768 24.3132C66.8029 24.3132 69.2913 26.6767 69.4569 29.696C69.4608 29.7355 69.4692 29.8354 69.4661 30.0031V30.0234C69.4661 30.5712 69.3907 31.1136 69.2422 31.6358C68.8576 33.3876 67.9143 36.4896 65.1289 41.3614C64.8897 41.7797 64.3705 42.0324 64.0774 42.0324V42.032ZM58.5932 29.7922C58.5932 29.7922 58.5945 30.0684 58.6086 30.2483V30.2842C58.627 30.6683 58.6848 31.0565 58.7856 31.4392L58.7873 31.455C59.1536 33.1843 60.1814 36.2831 62.9957 41.2049C63.1771 41.5219 63.6143 41.7207 63.9758 41.7207L64.0765 41.8844V41.7225C64.0765 41.7225 64.661 41.5242 64.8437 41.2044C67.6112 36.3636 68.6219 33.2877 68.9154 31.5593V31.5494C69.0622 31.0551 69.095 30.5415 69.095 30.0229L69.0617 30V29.9982C69.0617 29.8367 69.1007 29.7495 69.0981 29.7265L69.1191 29.7171C68.9649 26.8674 66.6631 24.6348 63.8645 24.6348C61.0659 24.6348 58.7641 26.8256 58.6051 29.7005L58.602 29.7922H58.5919H58.5932Z" fill="url(#paint46_linear_679_5432)"/>
<path opacity="0.8" d="M66.9445 30.7059C67.3424 28.9752 66.2983 27.241 64.6125 26.8325C62.9266 26.424 61.2374 27.4959 60.8395 29.2266C60.4416 30.9573 61.4857 32.6915 63.1715 33.1C64.8574 33.5085 66.5466 32.4366 66.9445 30.7059Z" fill="white"/>
<path d="M63.8943 33.3681C62.0683 33.3681 60.5826 31.8429 60.5826 29.9683C60.5826 28.0937 62.0683 26.5686 63.8943 26.5686C65.7203 26.5686 67.2059 28.0937 67.2059 29.9683C67.2059 31.8429 65.7203 33.3681 63.8943 33.3681ZM63.8943 26.9284C62.2615 26.9284 60.9331 28.2921 60.9331 29.9683C60.9331 31.6446 62.2615 33.0083 63.8943 33.0083C65.5271 33.0083 66.8554 31.6446 66.8554 29.9683C66.8554 28.2921 65.5271 26.9284 63.8943 26.9284Z" fill="url(#paint47_linear_679_5432)"/>
<path opacity="0.7" d="M60.9192 26.616C60.9043 26.616 60.8898 26.6097 60.8793 26.5971C60.8605 26.5746 60.8631 26.5404 60.885 26.5211C61.766 25.7444 62.8919 25.3167 64.0547 25.3167C64.0836 25.3167 64.1072 25.3409 64.1072 25.3706C64.1072 25.4003 64.0836 25.4246 64.0547 25.4246C62.9169 25.4246 61.8155 25.8433 60.9533 26.603C60.9433 26.6115 60.9314 26.616 60.9192 26.616Z" fill="white"/>
<path opacity="0.7" d="M59.2395 30.3675C59.2106 30.3675 59.1869 30.3432 59.1869 30.3135C59.1869 29.3812 59.4388 28.4717 59.915 27.6833C59.9304 27.6581 59.9628 27.65 59.9873 27.6658C60.0118 27.6815 60.0197 27.7148 60.0044 27.74C59.5383 28.5113 59.292 29.4014 59.292 30.3135C59.292 30.3432 59.2684 30.3675 59.2395 30.3675Z" fill="white"/>
</g>
<defs>
<linearGradient id="paint0_linear_679_5432" x1="137.86" y1="162.945" x2="25.3195" y2="26.7991" gradientUnits="userSpaceOnUse">
<stop stop-color="#DAE3FE"/>
<stop offset="1" stop-color="#E9EFFD"/>
</linearGradient>
<linearGradient id="paint1_linear_679_5432" x1="107.962" y1="129.869" x2="103.588" y2="129.869" gradientUnits="userSpaceOnUse">
<stop stop-color="#09005D"/>
<stop offset="1" stop-color="#1A0F91"/>
</linearGradient>
<linearGradient id="paint2_linear_679_5432" x1="106.746" y1="124.757" x2="107.626" y2="132.237" gradientUnits="userSpaceOnUse">
<stop stop-color="#FEBBBA"/>
<stop offset="1" stop-color="#FF928E"/>
</linearGradient>
<linearGradient id="paint3_linear_679_5432" x1="101.302" y1="129.983" x2="95.0072" y2="129.983" gradientUnits="userSpaceOnUse">
<stop stop-color="#09005D"/>
<stop offset="1" stop-color="#1A0F91"/>
</linearGradient>
<linearGradient id="paint4_linear_679_5432" x1="100.049" y1="125.555" x2="100.443" y2="133.078" gradientUnits="userSpaceOnUse">
<stop stop-color="#FEBBBA"/>
<stop offset="1" stop-color="#FF928E"/>
</linearGradient>
<linearGradient id="paint5_linear_679_5432" x1="148.298" y1="88.2138" x2="133.152" y2="96.6031" gradientUnits="userSpaceOnUse">
<stop stop-color="#09005D"/>
<stop offset="1" stop-color="#1A0F91"/>
</linearGradient>
<linearGradient id="paint6_linear_679_5432" x1="90.3322" y1="87.9596" x2="81.0251" y2="87.9596" gradientUnits="userSpaceOnUse">
<stop stop-color="#FEBBBA"/>
<stop offset="1" stop-color="#FF928E"/>
</linearGradient>
<linearGradient id="paint7_linear_679_5432" x1="89.6627" y1="76.3773" x2="96.3653" y2="87.135" gradientUnits="userSpaceOnUse">
<stop stop-color="#FEBBBA"/>
<stop offset="1" stop-color="#FF928E"/>
</linearGradient>
<linearGradient id="paint8_linear_679_5432" x1="84.77" y1="76.9352" x2="86.9823" y2="79.1862" gradientUnits="userSpaceOnUse">
<stop stop-color="#FEBBBA"/>
<stop offset="1" stop-color="#FF928E"/>
</linearGradient>
<linearGradient id="paint9_linear_679_5432" x1="85.4815" y1="78.9823" x2="92.1841" y2="89.7405" gradientUnits="userSpaceOnUse">
<stop stop-color="#FEBBBA"/>
<stop offset="1" stop-color="#FF928E"/>
</linearGradient>
<linearGradient id="paint10_linear_679_5432" x1="103.413" y1="81.1336" x2="101.381" y2="75.7291" gradientUnits="userSpaceOnUse">
<stop stop-color="#FEBBBA"/>
<stop offset="1" stop-color="#FF928E"/>
</linearGradient>
<linearGradient id="paint11_linear_679_5432" x1="93.7984" y1="87.4589" x2="108.799" y2="112.849" gradientUnits="userSpaceOnUse">
<stop stop-color="#FEBBBA"/>
<stop offset="1" stop-color="#FF928E"/>
</linearGradient>
<linearGradient id="paint12_linear_679_5432" x1="98.6444" y1="72.975" x2="110.438" y2="82.1253" gradientUnits="userSpaceOnUse">
<stop stop-color="#FEBBBA"/>
<stop offset="1" stop-color="#FF928E"/>
</linearGradient>
<linearGradient id="paint13_linear_679_5432" x1="103.107" y1="69.8653" x2="97.6338" y2="76.7292" gradientUnits="userSpaceOnUse">
<stop stop-color="#09005D"/>
<stop offset="1" stop-color="#1A0F91"/>
</linearGradient>
<linearGradient id="paint14_linear_679_5432" x1="99.8075" y1="72.4569" x2="105.606" y2="76.7787" gradientUnits="userSpaceOnUse">
<stop stop-color="#FEBBBA"/>
<stop offset="1" stop-color="#FF928E"/>
</linearGradient>
<linearGradient id="paint15_linear_679_5432" x1="90.5004" y1="90.3753" x2="88.2069" y2="90.3753" gradientUnits="userSpaceOnUse">
<stop stop-color="#FEBBBA"/>
<stop offset="1" stop-color="#FF928E"/>
</linearGradient>
<linearGradient id="paint16_linear_679_5432" x1="69.5074" y1="78.4027" x2="71.0716" y2="73.8308" gradientUnits="userSpaceOnUse">
<stop stop-color="#FEBBBA"/>
<stop offset="1" stop-color="#FF928E"/>
</linearGradient>
<linearGradient id="paint17_linear_679_5432" x1="72.1451" y1="74.2769" x2="67.8347" y2="80.7975" gradientUnits="userSpaceOnUse">
<stop stop-color="#09005D"/>
<stop offset="1" stop-color="#1A0F91"/>
</linearGradient>
<linearGradient id="paint18_linear_679_5432" x1="63.9474" y1="82.9844" x2="64.0522" y2="90.8403" gradientUnits="userSpaceOnUse">
<stop stop-color="#E1473D"/>
<stop offset="1" stop-color="#E9605A"/>
</linearGradient>
<linearGradient id="paint19_linear_679_5432" x1="60.4461" y1="91.7916" x2="65.4999" y2="101.259" gradientUnits="userSpaceOnUse">
<stop stop-color="#FEBBBA"/>
<stop offset="1" stop-color="#FF928E"/>
</linearGradient>
<linearGradient id="paint20_linear_679_5432" x1="70.6999" y1="71.804" x2="72.2685" y2="80.794" gradientUnits="userSpaceOnUse">
<stop stop-color="#FEBBBA"/>
<stop offset="1" stop-color="#FF928E"/>
</linearGradient>
<linearGradient id="paint21_linear_679_5432" x1="69.1327" y1="76.0656" x2="73.6472" y2="71.3942" gradientUnits="userSpaceOnUse">
<stop stop-color="#09005D"/>
<stop offset="1" stop-color="#1A0F91"/>
</linearGradient>
<linearGradient id="paint22_linear_679_5432" x1="69.4068" y1="81.6315" x2="69.1275" y2="75.3097" gradientUnits="userSpaceOnUse">
<stop stop-color="#FEBBBA"/>
<stop offset="1" stop-color="#FF928E"/>
</linearGradient>
<linearGradient id="paint23_linear_679_5432" x1="62.807" y1="130.327" x2="69.2857" y2="130.327" gradientUnits="userSpaceOnUse">
<stop stop-color="#09005D"/>
<stop offset="1" stop-color="#1A0F91"/>
</linearGradient>
<linearGradient id="paint24_linear_679_5432" x1="63.4226" y1="128.455" x2="65.3008" y2="128.455" gradientUnits="userSpaceOnUse">
<stop stop-color="#FEBBBA"/>
<stop offset="1" stop-color="#FF928E"/>
</linearGradient>
<linearGradient id="paint25_linear_679_5432" x1="49.5354" y1="129.502" x2="53.2851" y2="129.502" gradientUnits="userSpaceOnUse">
<stop stop-color="#09005D"/>
<stop offset="1" stop-color="#1A0F91"/>
</linearGradient>
<linearGradient id="paint26_linear_679_5432" x1="51.4847" y1="126.848" x2="53.7286" y2="126.848" gradientUnits="userSpaceOnUse">
<stop stop-color="#FEBBBA"/>
<stop offset="1" stop-color="#FF928E"/>
</linearGradient>
<linearGradient id="paint27_linear_679_5432" x1="52.2768" y1="128.657" x2="87.7113" y2="80.9366" gradientUnits="userSpaceOnUse">
<stop stop-color="#09005D"/>
<stop offset="1" stop-color="#1A0F91"/>
</linearGradient>
<linearGradient id="paint28_linear_679_5432" x1="15.9201" y1="36.6171" x2="18.3543" y2="65.5829" gradientUnits="userSpaceOnUse">
<stop stop-color="#FF928E"/>
<stop offset="1" stop-color="#FE7062"/>
</linearGradient>
<linearGradient id="paint29_linear_679_5432" x1="15.9229" y1="36.4958" x2="18.371" y2="65.6262" gradientUnits="userSpaceOnUse">
<stop stop-color="#FF928E"/>
<stop offset="1" stop-color="#FE7062"/>
</linearGradient>
<linearGradient id="paint30_linear_679_5432" x1="17.4983" y1="16.5898" x2="15.5889" y2="55.3088" gradientUnits="userSpaceOnUse">
<stop stop-color="#E1473D"/>
<stop offset="1" stop-color="#E9605A"/>
</linearGradient>
<linearGradient id="paint31_linear_679_5432" x1="17.9548" y1="19.3589" x2="17.1821" y2="29.5173" gradientUnits="userSpaceOnUse">
<stop stop-color="#FF928E"/>
<stop offset="1" stop-color="#FE7062"/>
</linearGradient>
<linearGradient id="paint32_linear_679_5432" x1="40.1957" y1="11.9479" x2="42.63" y2="40.9137" gradientUnits="userSpaceOnUse">
<stop stop-color="#FF928E"/>
<stop offset="1" stop-color="#FE7062"/>
</linearGradient>
<linearGradient id="paint33_linear_679_5432" x1="40.1983" y1="11.8031" x2="42.6492" y2="40.9654" gradientUnits="userSpaceOnUse">
<stop stop-color="#FF928E"/>
<stop offset="1" stop-color="#FE7062"/>
</linearGradient>
<linearGradient id="paint34_linear_679_5432" x1="41.7798" y1="-8.19833" x2="39.8588" y2="30.7613" gradientUnits="userSpaceOnUse">
<stop stop-color="#E1473D"/>
<stop offset="1" stop-color="#E9605A"/>
</linearGradient>
<linearGradient id="paint35_linear_679_5432" x1="43.569" y1="4.18191" x2="41.6426" y2="12.1376" gradientUnits="userSpaceOnUse">
<stop stop-color="#FF928E"/>
<stop offset="1" stop-color="#FE7062"/>
</linearGradient>
<linearGradient id="paint36_linear_679_5432" x1="31.8543" y1="41.6825" x2="34.3024" y2="70.8097" gradientUnits="userSpaceOnUse">
<stop stop-color="#FF928E"/>
<stop offset="1" stop-color="#FE7062"/>
</linearGradient>
<linearGradient id="paint37_linear_679_5432" x1="31.8576" y1="41.598" x2="34.3149" y2="70.839" gradientUnits="userSpaceOnUse">
<stop stop-color="#FF928E"/>
<stop offset="1" stop-color="#FE7062"/>
</linearGradient>
<linearGradient id="paint38_linear_679_5432" x1="33.4456" y1="21.4488" x2="31.5159" y2="60.5748" gradientUnits="userSpaceOnUse">
<stop stop-color="#E1473D"/>
<stop offset="1" stop-color="#E9605A"/>
</linearGradient>
<linearGradient id="paint39_linear_679_5432" x1="31.875" y1="33.4947" x2="32.6622" y2="58.0314" gradientUnits="userSpaceOnUse">
<stop stop-color="#FF928E"/>
<stop offset="1" stop-color="#FE7062"/>
</linearGradient>
<linearGradient id="paint40_linear_679_5432" x1="105.481" y1="34.0838" x2="107.915" y2="63.0496" gradientUnits="userSpaceOnUse">
<stop stop-color="#FF928E"/>
<stop offset="1" stop-color="#FE7062"/>
</linearGradient>
<linearGradient id="paint41_linear_679_5432" x1="105.483" y1="33.9304" x2="107.935" y2="63.1044" gradientUnits="userSpaceOnUse">
<stop stop-color="#FF928E"/>
<stop offset="1" stop-color="#FE7062"/>
</linearGradient>
<linearGradient id="paint42_linear_679_5432" x1="107.064" y1="13.9445" x2="105.144" y2="52.8897" gradientUnits="userSpaceOnUse">
<stop stop-color="#E1473D"/>
<stop offset="1" stop-color="#E9605A"/>
</linearGradient>
<linearGradient id="paint43_linear_679_5432" x1="111.633" y1="23.2764" x2="110.097" y2="27.315" gradientUnits="userSpaceOnUse">
<stop stop-color="#FF928E"/>
<stop offset="1" stop-color="#FE7062"/>
</linearGradient>
<linearGradient id="paint44_linear_679_5432" x1="63.4711" y1="24.8965" x2="65.9058" y2="53.8619" gradientUnits="userSpaceOnUse">
<stop stop-color="#FF928E"/>
<stop offset="1" stop-color="#FE7062"/>
</linearGradient>
<linearGradient id="paint45_linear_679_5432" x1="63.4728" y1="24.7485" x2="65.9242" y2="53.9148" gradientUnits="userSpaceOnUse">
<stop stop-color="#FF928E"/>
<stop offset="1" stop-color="#FE7062"/>
</linearGradient>
<linearGradient id="paint46_linear_679_5432" x1="65.0544" y1="4.75228" x2="63.1334" y2="43.7074" gradientUnits="userSpaceOnUse">
<stop stop-color="#E1473D"/>
<stop offset="1" stop-color="#E9605A"/>
</linearGradient>
<linearGradient id="paint47_linear_679_5432" x1="64.2101" y1="16.8309" x2="64.0555" y2="22.9276" gradientUnits="userSpaceOnUse">
<stop stop-color="#FF928E"/>
<stop offset="1" stop-color="#FE7062"/>
</linearGradient>
<clipPath id="clip0_679_5432">
<rect width="122" height="132" fill="white"/>
</clipPath>
</defs>
</svg>
