<svg width="92" height="28" viewBox="0 0 92 28" fill="none" xmlns="http://www.w3.org/2000/svg">
<g clip-path="url(#clip0_1151_51)">
<path d="M86.898 26H5.09763C2.2844 26 0 23.6744 0 20.8006V9.19936C0 6.32998 2.2844 4 5.09763 4H86.898C89.7156 4 91.9957 6.32998 91.9957 9.19936V20.8006C92 23.6744 89.7156 26 86.898 26Z" fill="#1877F2"/>
<path d="M22.4885 15.0001C22.4885 10.7513 19.1118 7.30273 14.9418 7.30273C10.7718 7.30273 7.39502 10.7469 7.39502 15.0001C7.39502 18.8421 10.1562 22.0254 13.7627 22.6046V17.224H11.8468V15.0001H13.7627V13.3023C13.7627 11.3747 14.8897 10.3092 16.615 10.3092C17.4386 10.3092 18.3055 10.4595 18.3055 10.4595V12.3518H17.3519C16.4156 12.3518 16.1208 12.9442 16.1208 13.5543V15.0001H18.2145L17.8807 17.224H16.1208V22.6002C19.7316 22.0254 22.4885 18.8421 22.4885 15.0001Z" fill="white"/>
<path d="M17.8806 17.2239L18.2144 15H16.1207V13.5543C16.1207 12.9441 16.4111 12.3517 17.3518 12.3517H18.3054V10.4594C18.3054 10.4594 17.4428 10.3091 16.6149 10.3091C14.8897 10.3091 13.7626 11.3746 13.7626 13.3022V15H11.8467V17.2239H13.7626V22.6001C14.1484 22.662 14.5385 22.6929 14.9417 22.6929C15.3448 22.6929 15.7349 22.662 16.1207 22.6001V17.2239H17.8806Z" fill="#1677F0"/>
</g>
<path d="M37.7168 11.8223C37.0332 11.8223 36.5039 12.0801 36.1289 12.5957C35.7539 13.1074 35.5664 13.8223 35.5664 14.7402C35.5664 16.6504 36.2832 17.6055 37.7168 17.6055C38.3184 17.6055 39.0469 17.4551 39.9023 17.1543V18.6777C39.1992 18.9707 38.4141 19.1172 37.5469 19.1172C36.3008 19.1172 35.3477 18.7402 34.6875 17.9863C34.0273 17.2285 33.6973 16.1426 33.6973 14.7285C33.6973 13.8379 33.8594 13.0586 34.1836 12.3906C34.5078 11.7188 34.9727 11.2051 35.5781 10.8496C36.1875 10.4902 36.9004 10.3105 37.7168 10.3105C38.5488 10.3105 39.3848 10.5117 40.2246 10.9141L39.6387 12.3906C39.3184 12.2383 38.9961 12.1055 38.6719 11.9922C38.3477 11.8789 38.0293 11.8223 37.7168 11.8223ZM47.6367 19H45.8496V15.1738C45.8496 14.2285 45.498 13.7559 44.7949 13.7559C44.2949 13.7559 43.9336 13.9258 43.7109 14.2656C43.4883 14.6055 43.377 15.1562 43.377 15.918V19H41.5898V9.88281H43.377V11.7402C43.377 11.8848 43.3633 12.2246 43.3359 12.7598L43.2949 13.2871H43.3887C43.7871 12.6465 44.4199 12.3262 45.2871 12.3262C46.0566 12.3262 46.6406 12.5332 47.0391 12.9473C47.4375 13.3613 47.6367 13.9551 47.6367 14.7285V19ZM49.4004 10.7559C49.4004 10.1738 49.7246 9.88281 50.373 9.88281C51.0215 9.88281 51.3457 10.1738 51.3457 10.7559C51.3457 11.0332 51.2637 11.25 51.0996 11.4062C50.9395 11.5586 50.6973 11.6348 50.373 11.6348C49.7246 11.6348 49.4004 11.3418 49.4004 10.7559ZM51.2637 19H49.4766V12.4492H51.2637V19ZM57.3047 19L56.959 18.1094H56.9121C56.6113 18.4883 56.3008 18.752 55.9805 18.9004C55.6641 19.0449 55.25 19.1172 54.7383 19.1172C54.1094 19.1172 53.6133 18.9375 53.25 18.5781C52.8906 18.2188 52.7109 17.707 52.7109 17.043C52.7109 16.3477 52.9531 15.8359 53.4375 15.5078C53.9258 15.1758 54.6602 14.9922 55.6406 14.957L56.7773 14.9219V14.6348C56.7773 13.9707 56.4375 13.6387 55.7578 13.6387C55.2344 13.6387 54.6191 13.7969 53.9121 14.1133L53.3203 12.9062C54.0742 12.5117 54.9102 12.3145 55.8281 12.3145C56.707 12.3145 57.3809 12.5059 57.8496 12.8887C58.3184 13.2715 58.5527 13.8535 58.5527 14.6348V19H57.3047ZM56.7773 15.9648L56.0859 15.9883C55.5664 16.0039 55.1797 16.0977 54.9258 16.2695C54.6719 16.4414 54.5449 16.7031 54.5449 17.0547C54.5449 17.5586 54.834 17.8105 55.4121 17.8105C55.8262 17.8105 56.1562 17.6914 56.4023 17.4531C56.6523 17.2148 56.7773 16.8984 56.7773 16.5039V15.9648ZM68.0859 17.0547C68.0859 17.7266 67.8516 18.2383 67.3828 18.5898C66.918 18.9414 66.2207 19.1172 65.291 19.1172C64.8145 19.1172 64.4082 19.084 64.0723 19.0176C63.7363 18.9551 63.4219 18.8613 63.1289 18.7363V17.2598C63.4609 17.416 63.834 17.5469 64.248 17.6523C64.666 17.7578 65.0332 17.8105 65.3496 17.8105C65.998 17.8105 66.3223 17.623 66.3223 17.248C66.3223 17.1074 66.2793 16.9941 66.1934 16.9082C66.1074 16.8184 65.959 16.7188 65.748 16.6094C65.5371 16.4961 65.2559 16.3652 64.9043 16.2168C64.4004 16.0059 64.0293 15.8105 63.791 15.6309C63.5566 15.4512 63.3848 15.2461 63.2754 15.0156C63.1699 14.7812 63.1172 14.4941 63.1172 14.1543C63.1172 13.5723 63.3418 13.123 63.791 12.8066C64.2441 12.4863 64.8848 12.3262 65.7129 12.3262C66.502 12.3262 67.2695 12.498 68.0156 12.8418L67.4766 14.1309C67.1484 13.9902 66.8418 13.875 66.5566 13.7852C66.2715 13.6953 65.9805 13.6504 65.6836 13.6504C65.1562 13.6504 64.8926 13.793 64.8926 14.0781C64.8926 14.2383 64.9766 14.377 65.1445 14.4941C65.3164 14.6113 65.6895 14.7852 66.2637 15.0156C66.7754 15.2227 67.1504 15.416 67.3887 15.5957C67.627 15.7754 67.8027 15.9824 67.916 16.2168C68.0293 16.4512 68.0859 16.7305 68.0859 17.0547ZM72.1934 13.5977C71.8145 13.5977 71.5176 13.7188 71.3027 13.9609C71.0879 14.1992 70.9648 14.5391 70.9336 14.9805H73.4414C73.4336 14.5391 73.3184 14.1992 73.0957 13.9609C72.873 13.7188 72.5723 13.5977 72.1934 13.5977ZM72.4453 19.1172C71.3906 19.1172 70.5664 18.8262 69.9727 18.2441C69.3789 17.6621 69.082 16.8379 69.082 15.7715C69.082 14.6738 69.3555 13.8262 69.9023 13.2285C70.4531 12.627 71.2129 12.3262 72.1816 12.3262C73.1074 12.3262 73.8281 12.5898 74.3438 13.1172C74.8594 13.6445 75.1172 14.373 75.1172 15.3027V16.1699H70.8926C70.9121 16.6777 71.0625 17.0742 71.3438 17.3594C71.625 17.6445 72.0195 17.7871 72.5273 17.7871C72.9219 17.7871 73.2949 17.7461 73.6465 17.6641C73.998 17.582 74.3652 17.4512 74.748 17.2715V18.6543C74.4355 18.8105 74.1016 18.9258 73.7461 19C73.3906 19.0781 72.957 19.1172 72.4453 19.1172ZM73.7637 10.2871C73.7637 10.8965 73.4473 11.2812 72.8145 11.4414L72.7559 11.8574H71.7363L71.6016 10.9961C71.8945 10.9492 72.0938 10.877 72.1992 10.7793C72.3047 10.6777 72.3574 10.5547 72.3574 10.4102C72.3574 10.2852 72.3164 10.1895 72.2344 10.123C72.1523 10.0566 72.0449 10.0234 71.9121 10.0234C71.6582 10.0234 71.3867 10.0684 71.0977 10.1582V9.17383C71.2148 9.13477 71.375 9.10352 71.5781 9.08008C71.7852 9.05273 71.9688 9.03906 72.1289 9.03906C72.6758 9.03906 73.084 9.14844 73.3535 9.36719C73.627 9.58203 73.7637 9.88867 73.7637 10.2871ZM85.0898 14.7109C85.0898 15.4023 85.0352 16.0215 84.9258 16.5684C84.8203 17.1113 84.6523 17.5723 84.4219 17.9512C84.1914 18.3301 83.8906 18.6191 83.5195 18.8184C83.1484 19.0176 82.6992 19.1172 82.1719 19.1172C81.5117 19.1172 80.9668 18.9434 80.5371 18.5957C80.1074 18.2441 79.7891 17.7402 79.582 17.084C79.375 16.4238 79.2715 15.6328 79.2715 14.7109C79.2715 13.7891 79.3652 13 79.5527 12.3438C79.7441 11.6836 80.0527 11.1777 80.4785 10.8262C80.9043 10.4746 81.4688 10.2988 82.1719 10.2988C82.8359 10.2988 83.3828 10.4746 83.8125 10.8262C84.2461 11.1738 84.5664 11.6777 84.7734 12.3379C84.9844 12.9941 85.0898 13.7852 85.0898 14.7109ZM80.6602 14.7109C80.6602 15.4336 80.707 16.0371 80.8008 16.5215C80.8984 17.0059 81.0586 17.3691 81.2812 17.6113C81.5039 17.8496 81.8008 17.9688 82.1719 17.9688C82.543 17.9688 82.8398 17.8496 83.0625 17.6113C83.2852 17.373 83.4453 17.0117 83.543 16.5273C83.6445 16.043 83.6953 15.4375 83.6953 14.7109C83.6953 13.9922 83.6465 13.3906 83.5488 12.9062C83.4512 12.4219 83.291 12.0586 83.0684 11.8164C82.8457 11.5703 82.5469 11.4473 82.1719 11.4473C81.7969 11.4473 81.498 11.5703 81.2754 11.8164C81.0566 12.0586 80.8984 12.4219 80.8008 12.9062C80.707 13.3906 80.6602 13.9922 80.6602 14.7109Z" fill="white"/>
<defs>
<clipPath id="clip0_1151_51">
<rect width="92" height="22" fill="white" transform="translate(0 4)"/>
</clipPath>
</defs>
</svg>
